<?xml version="1.0" encoding="utf-8" standalone="no"?>
<!DOCTYPE svg PUBLIC "-//W3C//DTD SVG 1.1//EN"
  "http://www.w3.org/Graphics/SVG/1.1/DTD/svg11.dtd">
<svg xmlns:xlink="http://www.w3.org/1999/xlink" width="656.958125pt" height="540.100875pt" viewBox="0 0 656.958125 540.100875" xmlns="http://www.w3.org/2000/svg" version="1.1">
 <metadata>
  <rdf:RDF xmlns:dc="http://purl.org/dc/elements/1.1/" xmlns:cc="http://creativecommons.org/ns#" xmlns:rdf="http://www.w3.org/1999/02/22-rdf-syntax-ns#">
   <cc:Work>
    <dc:type rdf:resource="http://purl.org/dc/dcmitype/StillImage"/>
    <dc:date>2024-10-02T17:52:05.497066</dc:date>
    <dc:format>image/svg+xml</dc:format>
    <dc:creator>
     <cc:Agent>
      <dc:title>Matplotlib v3.5.2, https://matplotlib.org/</dc:title>
     </cc:Agent>
    </dc:creator>
   </cc:Work>
  </rdf:RDF>
 </metadata>
 <defs>
  <style type="text/css">*{stroke-linejoin: round; stroke-linecap: butt}</style>
 </defs>
 <g id="figure_1">
  <g id="patch_1">
   <path d="M 0 540.100875 
L 656.958125 540.100875 
L 656.958125 0 
L 0 0 
z
" style="fill: #ffffff"/>
  </g>
  <g id="axes_1">
   <g id="patch_2">
    <path d="M 91.758125 416.476875 
L 649.758125 416.476875 
L 649.758125 28.396875 
L 91.758125 28.396875 
z
" style="fill: #ffffff"/>
   </g>
   <g id="PolyCollection_1">
    <defs>
     <path id="m07be68186f" d="M 117.121761 -464.06096 
L 117.121761 -397.116121 
L 117.897408 -450.864899 
L 118.673054 -467.331633 
L 119.4487 -473.524795 
L 120.224347 -476.220388 
L 120.999993 -477.530684 
L 121.77564 -478.225437 
L 122.551286 -478.620647 
L 123.326932 -478.858897 
L 124.102579 -479.009679 
L 124.878225 -479.109112 
L 125.653871 -479.177024 
L 126.429518 -479.224817 
L 127.205164 -479.259326 
L 127.980811 -479.28479 
L 128.756457 -479.303928 
L 129.532103 -479.318529 
L 130.30775 -479.3298 
L 131.083396 -479.338576 
L 131.859042 -479.343679 
L 132.634689 -479.336209 
L 133.410335 -479.327415 
L 134.185982 -479.317166 
L 134.961628 -479.305309 
L 135.737274 -479.291664 
L 136.512921 -479.27603 
L 137.288567 -479.258179 
L 138.064213 -479.237855 
L 138.83986 -479.214775 
L 139.615506 -479.188628 
L 140.391153 -479.159068 
L 141.166799 -479.125719 
L 141.942445 -479.08817 
L 142.718092 -479.045971 
L 143.493738 -478.998637 
L 144.269384 -478.945641 
L 145.045031 -478.886414 
L 145.820677 -478.820343 
L 146.596323 -478.746773 
L 147.37197 -478.665 
L 148.147616 -478.574273 
L 148.923263 -478.473791 
L 149.698909 -478.362706 
L 150.474555 -478.240117 
L 151.250202 -478.105074 
L 152.025848 -477.956576 
L 152.801494 -477.793568 
L 153.577141 -477.614949 
L 154.352787 -477.419565 
L 155.128434 -477.206213 
L 155.90408 -476.973645 
L 156.679726 -476.720566 
L 157.455373 -476.445636 
L 158.231019 -476.147477 
L 159.006665 -475.824669 
L 159.782312 -475.475761 
L 160.557958 -475.099269 
L 161.333605 -474.69368 
L 162.109251 -474.257462 
L 162.884897 -473.789062 
L 163.660544 -473.286915 
L 164.43619 -472.749448 
L 165.211836 -472.175088 
L 165.987483 -471.562262 
L 166.763129 -470.90941 
L 167.538776 -470.214989 
L 168.314422 -469.477476 
L 169.090068 -468.695379 
L 169.865715 -467.867243 
L 170.641361 -466.991655 
L 171.417007 -466.06725 
L 172.192654 -465.09272 
L 172.9683 -464.066822 
L 173.743947 -462.988377 
L 174.519593 -461.856284 
L 175.295239 -460.669522 
L 176.070886 -459.427157 
L 176.846532 -458.128346 
L 177.622178 -456.772343 
L 178.397825 -455.358503 
L 179.173471 -453.886286 
L 179.949117 -452.35526 
L 180.724764 -450.765108 
L 181.50041 -449.115625 
L 182.276057 -447.406723 
L 183.051703 -445.638434 
L 183.827349 -443.810909 
L 184.602996 -441.924419 
L 185.378642 -439.979355 
L 186.154288 -437.976229 
L 186.929935 -435.915669 
L 187.705581 -433.798423 
L 188.481228 -431.625352 
L 189.256874 -429.397431 
L 190.03252 -427.115743 
L 190.808167 -424.781478 
L 191.583813 -422.395928 
L 192.359459 -419.960482 
L 193.135106 -417.476624 
L 193.910752 -414.945926 
L 194.686399 -412.370042 
L 195.462045 -409.750705 
L 196.237691 -407.08972 
L 197.013338 -404.388957 
L 197.788984 -401.65035 
L 198.56463 -398.875882 
L 199.340277 -396.067589 
L 200.115923 -393.227546 
L 200.89157 -390.357864 
L 201.667216 -387.460686 
L 202.442862 -384.538174 
L 203.218509 -381.592512 
L 203.994155 -378.625893 
L 204.769801 -375.640515 
L 205.545448 -372.638578 
L 206.321094 -369.622276 
L 207.096741 -366.593791 
L 207.872387 -363.55529 
L 208.648033 -360.50892 
L 209.42368 -357.456803 
L 210.199326 -354.40103 
L 210.974972 -351.343659 
L 211.750619 -348.286712 
L 212.526265 -345.232168 
L 213.301911 -342.181962 
L 214.077558 -339.137983 
L 214.853204 -336.10207 
L 215.628851 -333.076008 
L 216.404497 -330.061528 
L 217.180143 -327.060305 
L 217.95579 -324.073955 
L 218.731436 -321.104036 
L 219.507082 -318.152043 
L 220.282729 -315.21941 
L 221.058375 -312.307508 
L 221.834022 -309.417647 
L 222.609668 -306.551071 
L 223.385314 -303.708963 
L 224.160961 -300.892441 
L 224.936607 -298.102559 
L 225.712253 -295.340312 
L 226.4879 -292.60663 
L 227.263546 -289.902381 
L 228.039193 -287.228375 
L 228.814839 -284.585362 
L 229.590485 -281.974031 
L 230.366132 -279.395017 
L 231.141778 -276.848897 
L 231.917424 -274.336193 
L 232.693071 -271.857376 
L 233.468717 -269.412863 
L 234.244364 -267.00302 
L 235.02001 -264.628168 
L 235.795656 -262.288578 
L 236.571303 -259.984475 
L 237.346949 -257.716042 
L 238.122595 -255.483419 
L 238.898242 -253.286705 
L 239.673888 -251.125962 
L 240.449535 -249.001212 
L 241.225181 -246.912443 
L 242.000827 -244.85961 
L 242.776474 -242.842635 
L 243.55212 -240.86141 
L 244.327766 -238.915795 
L 245.103413 -237.005627 
L 245.879059 -235.130714 
L 246.654705 -233.290841 
L 247.430352 -231.485769 
L 248.205998 -229.715239 
L 248.981645 -227.97897 
L 249.757291 -226.276664 
L 250.532937 -224.608004 
L 251.308584 -222.972658 
L 252.08423 -221.370278 
L 252.859876 -219.800504 
L 253.635523 -218.262961 
L 254.411169 -216.757265 
L 255.186816 -215.283019 
L 255.962462 -213.839818 
L 256.738108 -212.427249 
L 257.513755 -211.04489 
L 258.289401 -209.692315 
L 259.065047 -208.369088 
L 259.840694 -207.074773 
L 260.61634 -205.808925 
L 261.391987 -204.5711 
L 262.167633 -203.360849 
L 262.943279 -202.17772 
L 263.718926 -201.021262 
L 264.494572 -199.891021 
L 265.270218 -198.786544 
L 266.045865 -197.707378 
L 266.821511 -196.653071 
L 267.597158 -195.623172 
L 268.372804 -194.61723 
L 269.14845 -193.634799 
L 269.924097 -192.675434 
L 270.699743 -191.738693 
L 271.475389 -190.824136 
L 272.251036 -189.931328 
L 273.026682 -189.059838 
L 273.802329 -188.209237 
L 274.577975 -187.379103 
L 275.353621 -186.569015 
L 276.129268 -185.778559 
L 276.904914 -185.007327 
L 277.68056 -184.254912 
L 278.456207 -183.520916 
L 279.231853 -182.804944 
L 280.007499 -182.106608 
L 280.783146 -181.425524 
L 281.558792 -180.761315 
L 282.334439 -180.113608 
L 283.110085 -179.482038 
L 283.885731 -178.866243 
L 284.661378 -178.265869 
L 285.437024 -177.680567 
L 286.21267 -177.109995 
L 286.988317 -176.553815 
L 287.763963 -176.011696 
L 288.53961 -175.483313 
L 289.315256 -174.968346 
L 290.090902 -174.466482 
L 290.866549 -173.977414 
L 291.642195 -173.50084 
L 292.417841 -173.036463 
L 293.193488 -172.583995 
L 293.969134 -172.143149 
L 294.744781 -171.713648 
L 295.520427 -171.295218 
L 296.296073 -170.887592 
L 297.07172 -170.490507 
L 297.847366 -170.103707 
L 298.623012 -169.726941 
L 299.398659 -169.359963 
L 300.174305 -169.002532 
L 300.949952 -168.654413 
L 301.725598 -168.315375 
L 302.501244 -167.985193 
L 303.276891 -167.663647 
L 304.052537 -167.350521 
L 304.828183 -167.045605 
L 305.60383 -166.748692 
L 306.379476 -166.459582 
L 307.155122 -166.178077 
L 307.930769 -165.903987 
L 308.706415 -165.637122 
L 309.482062 -165.377299 
L 310.257708 -165.12434 
L 311.033354 -164.87807 
L 311.809001 -164.638318 
L 312.584647 -164.404916 
L 313.360293 -164.177703 
L 314.13594 -163.956518 
L 314.911586 -163.741208 
L 315.687233 -163.531621 
L 316.462879 -163.327609 
L 317.238525 -163.129028 
L 318.014172 -162.935737 
L 318.789818 -162.747599 
L 319.565464 -162.56448 
L 320.341111 -162.386249 
L 321.116757 -162.21278 
L 321.892404 -162.043948 
L 322.66805 -161.879632 
L 323.443696 -161.719713 
L 324.219343 -161.564078 
L 324.994989 -161.412612 
L 325.770635 -161.265207 
L 326.546282 -161.121757 
L 327.321928 -160.982156 
L 328.097575 -160.846304 
L 328.873221 -160.714102 
L 329.648867 -160.585454 
L 330.424514 -160.460265 
L 331.20016 -160.338444 
L 331.975806 -160.219902 
L 332.751453 -160.104553 
L 333.527099 -159.99231 
L 334.302746 -159.883093 
L 335.078392 -159.776821 
L 335.854038 -159.673414 
L 336.629685 -159.572798 
L 337.405331 -159.474898 
L 338.180977 -159.379641 
L 338.956624 -159.286957 
L 339.73227 -159.196778 
L 340.507916 -159.109036 
L 341.283563 -159.023666 
L 342.059209 -158.940605 
L 342.834856 -158.859792 
L 343.610502 -158.781165 
L 344.386148 -158.704667 
L 345.161795 -158.63024 
L 345.937441 -158.557829 
L 346.713087 -158.487379 
L 347.488734 -158.418839 
L 348.26438 -158.352156 
L 349.040027 -158.287282 
L 349.815673 -158.224166 
L 350.591319 -158.162763 
L 351.366966 -158.103026 
L 352.142612 -158.044909 
L 352.918258 -157.98837 
L 353.693905 -157.933366 
L 354.469551 -157.879856 
L 355.245198 -157.827798 
L 356.020844 -157.777155 
L 356.79649 -157.727888 
L 357.572137 -157.679959 
L 358.347783 -157.633333 
L 359.123429 -157.587975 
L 359.899076 -157.543849 
L 360.674722 -157.500924 
L 361.450369 -157.459165 
L 362.226015 -157.418543 
L 363.001661 -157.379025 
L 363.777308 -157.340583 
L 364.552954 -157.303187 
L 365.3286 -157.266809 
L 366.104247 -157.23142 
L 366.879893 -157.196995 
L 367.65554 -157.163508 
L 368.431186 -157.130932 
L 369.206832 -157.099243 
L 369.982479 -157.068417 
L 370.758125 -157.038431 
L 371.533771 -157.009262 
L 372.309418 -156.980887 
L 373.085064 -156.953286 
L 373.86071 -156.926436 
L 374.636357 -156.900319 
L 375.412003 -156.874913 
L 376.18765 -156.850199 
L 376.963296 -156.826159 
L 377.738942 -156.802775 
L 378.514589 -156.780028 
L 379.290235 -156.757901 
L 380.065881 -156.736378 
L 380.841528 -156.715442 
L 381.617174 -156.695076 
L 382.392821 -156.675267 
L 383.168467 -156.655997 
L 383.944113 -156.637253 
L 384.71976 -156.61902 
L 385.495406 -156.601285 
L 386.271052 -156.584034 
L 387.046699 -156.567253 
L 387.822345 -156.550931 
L 388.597992 -156.535053 
L 389.373638 -156.519609 
L 390.149284 -156.504587 
L 390.924931 -156.489974 
L 391.700577 -156.47576 
L 392.476223 -156.461935 
L 393.25187 -156.448486 
L 394.027516 -156.435405 
L 394.803163 -156.422681 
L 395.578809 -156.410304 
L 396.354455 -156.398266 
L 397.130102 -156.386556 
L 397.905748 -156.375165 
L 398.681394 -156.364086 
L 399.457041 -156.353309 
L 400.232687 -156.342827 
L 401.008334 -156.33263 
L 401.78398 -156.322712 
L 402.559626 -156.313066 
L 403.335273 -156.303682 
L 404.110919 -156.294555 
L 404.886565 -156.285677 
L 405.662212 -156.277042 
L 406.437858 -156.268642 
L 407.213504 -156.260472 
L 407.989151 -156.252525 
L 408.764797 -156.244795 
L 409.540444 -156.237277 
L 410.31609 -156.229963 
L 411.091736 -156.22285 
L 411.867383 -156.215931 
L 412.643029 -156.209201 
L 413.418675 -156.202655 
L 414.194322 -156.196287 
L 414.969968 -156.190094 
L 415.745615 -156.18407 
L 416.521261 -156.17821 
L 417.296907 -156.172511 
L 418.072554 -156.166967 
L 418.8482 -156.161575 
L 419.623846 -156.15633 
L 420.399493 -156.151229 
L 421.175139 -156.146266 
L 421.950786 -156.14144 
L 422.726432 -156.136745 
L 423.502078 -156.132179 
L 424.277725 -156.127738 
L 425.053371 -156.123417 
L 425.829017 -156.119215 
L 426.604664 -156.115128 
L 427.38031 -156.111153 
L 428.155957 -156.107286 
L 428.931603 -156.103525 
L 429.707249 -156.099866 
L 430.482896 -156.096308 
L 431.258542 -156.092847 
L 432.034188 -156.08948 
L 432.809835 -156.086206 
L 433.585481 -156.083021 
L 434.361128 -156.079923 
L 435.136774 -156.07691 
L 435.91242 -156.073979 
L 436.688067 -156.071128 
L 437.463713 -156.068355 
L 438.239359 -156.065658 
L 439.015006 -156.063035 
L 439.790652 -156.060483 
L 440.566298 -156.058001 
L 441.341945 -156.055587 
L 442.117591 -156.053239 
L 442.893238 -156.050955 
L 443.668884 -156.048734 
L 444.44453 -156.046573 
L 445.220177 -156.044472 
L 445.995823 -156.042427 
L 446.771469 -156.040439 
L 447.547116 -156.038505 
L 448.322762 -156.036624 
L 449.098409 -156.034795 
L 449.874055 -156.033015 
L 450.649701 -156.031284 
L 451.425348 -156.0296 
L 452.200994 -156.027963 
L 452.97664 -156.02637 
L 453.752287 -156.024821 
L 454.527933 -156.023314 
L 455.30358 -156.021848 
L 456.079226 -156.020422 
L 456.854872 -156.019036 
L 457.630519 -156.017687 
L 458.406165 -156.016375 
L 459.181811 -156.015099 
L 459.957458 -156.013858 
L 460.733104 -156.012651 
L 461.508751 -156.011477 
L 462.284397 -156.010335 
L 463.060043 -156.009224 
L 463.83569 -156.008143 
L 464.611336 -156.007092 
L 465.386982 -156.00607 
L 466.162629 -156.005076 
L 466.938275 -156.004109 
L 467.713921 -156.003168 
L 468.489568 -156.002253 
L 469.265214 -156.001363 
L 470.040861 -156.000498 
L 470.816507 -155.999656 
L 471.592153 -155.998837 
L 472.3678 -155.99804 
L 473.143446 -155.997266 
L 473.919092 -155.996512 
L 474.694739 -155.995779 
L 475.470385 -155.995066 
L 476.246032 -155.994373 
L 477.021678 -155.993698 
L 477.797324 -155.993042 
L 478.572971 -155.992404 
L 479.348617 -155.991784 
L 480.124263 -155.99118 
L 480.89991 -155.990593 
L 481.675556 -155.990022 
L 482.451203 -155.989466 
L 483.226849 -155.988926 
L 484.002495 -155.988401 
L 484.778142 -155.987889 
L 485.553788 -155.987392 
L 486.329434 -155.986909 
L 487.105081 -155.986438 
L 487.880727 -155.985981 
L 488.656374 -155.985536 
L 489.43202 -155.985103 
L 490.207666 -155.984682 
L 490.983313 -155.984273 
L 491.758959 -155.983874 
L 492.534605 -155.983487 
L 493.310252 -155.98311 
L 494.085898 -155.982744 
L 494.861545 -155.982387 
L 495.637191 -155.982041 
L 496.412837 -155.981703 
L 497.188484 -155.981375 
L 497.96413 -155.981056 
L 498.739776 -155.980746 
L 499.515423 -155.980444 
L 500.291069 -155.980151 
L 501.066715 -155.979865 
L 501.842362 -155.979587 
L 502.618008 -155.979317 
L 503.393655 -155.979054 
L 504.169301 -155.978799 
L 504.944947 -155.97855 
L 505.720594 -155.978308 
L 506.49624 -155.978073 
L 507.271886 -155.977844 
L 508.047533 -155.977622 
L 508.823179 -155.977406 
L 509.598826 -155.977195 
L 510.374472 -155.97699 
L 511.150118 -155.976791 
L 511.925765 -155.976597 
L 512.701411 -155.976409 
L 513.477057 -155.976226 
L 514.252704 -155.976048 
L 515.02835 -155.975874 
L 515.803997 -155.975706 
L 516.579643 -155.975542 
L 517.355289 -155.975382 
L 518.130936 -155.975227 
L 518.906582 -155.975076 
L 519.682228 -155.974929 
L 520.457875 -155.974786 
L 521.233521 -155.974648 
L 522.009168 -155.974512 
L 522.784814 -155.974381 
L 523.56046 -155.974253 
L 524.336107 -155.974129 
L 525.111753 -155.974008 
L 525.887399 -155.97389 
L 526.663046 -155.973776 
L 527.438692 -155.973665 
L 528.214339 -155.973557 
L 528.989985 -155.973451 
L 529.765631 -155.973349 
L 530.541278 -155.973249 
L 531.316924 -155.973153 
L 532.09257 -155.973058 
L 532.868217 -155.972967 
L 533.643863 -155.972878 
L 534.419509 -155.972791 
L 535.195156 -155.972707 
L 535.970802 -155.972625 
L 536.746449 -155.972545 
L 537.522095 -155.972467 
L 538.297741 -155.972392 
L 539.073388 -155.972318 
L 539.849034 -155.972247 
L 540.62468 -155.972178 
L 541.400327 -155.97211 
L 542.175973 -155.972044 
L 542.95162 -155.971981 
L 543.727266 -155.971918 
L 544.502912 -155.971858 
L 545.278559 -155.971799 
L 546.054205 -155.971742 
L 546.829851 -155.971686 
L 547.605498 -155.971632 
L 548.381144 -155.97158 
L 549.156791 -155.971528 
L 549.932437 -155.971479 
L 550.708083 -155.97143 
L 551.48373 -155.971383 
L 552.259376 -155.971337 
L 553.035022 -155.971293 
L 553.810669 -155.971249 
L 554.586315 -155.971207 
L 555.361962 -155.971166 
L 556.137608 -155.971126 
L 556.913254 -155.971088 
L 557.688901 -155.97105 
L 558.464547 -155.971013 
L 559.240193 -155.970977 
L 560.01584 -155.970943 
L 560.791486 -155.970909 
L 561.567133 -155.970876 
L 562.342779 -155.970844 
L 563.118425 -155.970813 
L 563.894072 -155.970783 
L 564.669718 -155.970753 
L 565.445364 -155.970725 
L 566.221011 -155.970697 
L 566.996657 -155.97067 
L 567.772303 -155.970644 
L 568.54795 -155.970618 
L 569.323596 -155.970593 
L 570.099243 -155.970569 
L 570.874889 -155.970545 
L 571.650535 -155.970523 
L 572.426182 -155.9705 
L 573.201828 -155.970479 
L 573.977474 -155.970457 
L 574.753121 -155.970437 
L 575.528767 -155.970417 
L 576.304414 -155.970398 
L 577.08006 -155.970379 
L 577.855706 -155.97036 
L 578.631353 -155.970343 
L 579.406999 -155.970325 
L 580.182645 -155.970308 
L 580.958292 -155.970292 
L 581.733938 -155.970276 
L 582.509585 -155.97026 
L 583.285231 -155.970245 
L 584.060877 -155.970231 
L 584.836524 -155.970216 
L 585.61217 -155.970202 
L 586.387816 -155.970189 
L 587.163463 -155.970176 
L 587.939109 -155.970163 
L 588.714756 -155.97015 
L 589.490402 -155.970138 
L 590.266048 -155.970127 
L 591.041695 -155.970115 
L 591.817341 -155.970104 
L 592.592987 -155.970093 
L 593.368634 -155.970083 
L 594.14428 -155.970072 
L 594.919927 -155.970062 
L 595.695573 -155.970053 
L 596.471219 -155.970043 
L 597.246866 -155.970034 
L 598.022512 -155.970025 
L 598.798158 -155.970016 
L 599.573805 -155.970008 
L 600.349451 -155.97 
L 601.125097 -155.969992 
L 601.900744 -155.969984 
L 602.67639 -155.969977 
L 603.452037 -155.969969 
L 604.227683 -155.969962 
L 605.003329 -155.969955 
L 605.778976 -155.969948 
L 606.554622 -155.969942 
L 607.330268 -155.969935 
L 608.105915 -155.969929 
L 608.881561 -155.969923 
L 609.657208 -155.969917 
L 610.432854 -155.969911 
L 611.2085 -155.969906 
L 611.984147 -155.9699 
L 612.759793 -155.969895 
L 613.535439 -155.96989 
L 614.311086 -155.969885 
L 615.086732 -155.96988 
L 615.862379 -155.969875 
L 616.638025 -155.969871 
L 617.413671 -155.969866 
L 618.189318 -155.969862 
L 618.964964 -155.969858 
L 619.74061 -155.969854 
L 620.516257 -155.96985 
L 621.291903 -155.969846 
L 622.06755 -155.969842 
L 622.843196 -155.969838 
L 623.618842 -155.969835 
L 624.394489 -155.969831 
L 624.394489 -166.656994 
L 624.394489 -166.656994 
L 623.618842 -166.76277 
L 622.843196 -166.869572 
L 622.06755 -166.977409 
L 621.291903 -167.08629 
L 620.516257 -167.196225 
L 619.74061 -167.307225 
L 618.964964 -167.419298 
L 618.189318 -167.532455 
L 617.413671 -167.646706 
L 616.638025 -167.762061 
L 615.862379 -167.87853 
L 615.086732 -167.996123 
L 614.311086 -168.11485 
L 613.535439 -168.234723 
L 612.759793 -168.35575 
L 611.984147 -168.477944 
L 611.2085 -168.601315 
L 610.432854 -168.725873 
L 609.657208 -168.85163 
L 608.881561 -168.978596 
L 608.105915 -169.106782 
L 607.330268 -169.236199 
L 606.554622 -169.366859 
L 605.778976 -169.498773 
L 605.003329 -169.631952 
L 604.227683 -169.766408 
L 603.452037 -169.902152 
L 602.67639 -170.039195 
L 601.900744 -170.177551 
L 601.125097 -170.31723 
L 600.349451 -170.458244 
L 599.573805 -170.600606 
L 598.798158 -170.744327 
L 598.022512 -170.889419 
L 597.246866 -171.035896 
L 596.471219 -171.183769 
L 595.695573 -171.333051 
L 594.919927 -171.483754 
L 594.14428 -171.635891 
L 593.368634 -171.789475 
L 592.592987 -171.944519 
L 591.817341 -172.101036 
L 591.041695 -172.259038 
L 590.266048 -172.418538 
L 589.490402 -172.579551 
L 588.714756 -172.74209 
L 587.939109 -172.906167 
L 587.163463 -173.071797 
L 586.387816 -173.238992 
L 585.61217 -173.407768 
L 584.836524 -173.578137 
L 584.060877 -173.750113 
L 583.285231 -173.923711 
L 582.509585 -174.098945 
L 581.733938 -174.275829 
L 580.958292 -174.454377 
L 580.182645 -174.634603 
L 579.406999 -174.816523 
L 578.631353 -175.000151 
L 577.855706 -175.185501 
L 577.08006 -175.372589 
L 576.304414 -175.56143 
L 575.528767 -175.752037 
L 574.753121 -175.944427 
L 573.977474 -176.138615 
L 573.201828 -176.334616 
L 572.426182 -176.532446 
L 571.650535 -176.73212 
L 570.874889 -176.933654 
L 570.099243 -177.137063 
L 569.323596 -177.342363 
L 568.54795 -177.549571 
L 567.772303 -177.758702 
L 566.996657 -177.969773 
L 566.221011 -178.1828 
L 565.445364 -178.397799 
L 564.669718 -178.614786 
L 563.894072 -178.833779 
L 563.118425 -179.054793 
L 562.342779 -179.277847 
L 561.567133 -179.502955 
L 560.791486 -179.730136 
L 560.01584 -179.959407 
L 559.240193 -180.190785 
L 558.464547 -180.424286 
L 557.688901 -180.659929 
L 556.913254 -180.89773 
L 556.137608 -181.137708 
L 555.361962 -181.37988 
L 554.586315 -181.624264 
L 553.810669 -181.870878 
L 553.035022 -182.119739 
L 552.259376 -182.370865 
L 551.48373 -182.624276 
L 550.708083 -182.879989 
L 549.932437 -183.138022 
L 549.156791 -183.398394 
L 548.381144 -183.661124 
L 547.605498 -183.926229 
L 546.829851 -184.193729 
L 546.054205 -184.463643 
L 545.278559 -184.735989 
L 544.502912 -185.010787 
L 543.727266 -185.288055 
L 542.95162 -185.567813 
L 542.175973 -185.85008 
L 541.400327 -186.134875 
L 540.62468 -186.422218 
L 539.849034 -186.712129 
L 539.073388 -187.004626 
L 538.297741 -187.299729 
L 537.522095 -187.597459 
L 536.746449 -187.897835 
L 535.970802 -188.200877 
L 535.195156 -188.506606 
L 534.419509 -188.81504 
L 533.643863 -189.126201 
L 532.868217 -189.440108 
L 532.09257 -189.756782 
L 531.316924 -190.076243 
L 530.541278 -190.398512 
L 529.765631 -190.723609 
L 528.989985 -191.051555 
L 528.214339 -191.38237 
L 527.438692 -191.716075 
L 526.663046 -192.052692 
L 525.887399 -192.39224 
L 525.111753 -192.73474 
L 524.336107 -193.080214 
L 523.56046 -193.428682 
L 522.784814 -193.780166 
L 522.009168 -194.134687 
L 521.233521 -194.492265 
L 520.457875 -194.852923 
L 519.682228 -195.21668 
L 518.906582 -195.583559 
L 518.130936 -195.953581 
L 517.355289 -196.326767 
L 516.579643 -196.703138 
L 515.803997 -197.082717 
L 515.02835 -197.465524 
L 514.252704 -197.85158 
L 513.477057 -198.240908 
L 512.701411 -198.633529 
L 511.925765 -199.029464 
L 511.150118 -199.428735 
L 510.374472 -199.831363 
L 509.598826 -200.23737 
L 508.823179 -200.646778 
L 508.047533 -201.059608 
L 507.271886 -201.475882 
L 506.49624 -201.895621 
L 505.720594 -202.318847 
L 504.944947 -202.745581 
L 504.169301 -203.175845 
L 503.393655 -203.60966 
L 502.618008 -204.047048 
L 501.842362 -204.488031 
L 501.066715 -204.932629 
L 500.291069 -205.380864 
L 499.515423 -205.832758 
L 498.739776 -206.288332 
L 497.96413 -206.747606 
L 497.188484 -207.210603 
L 496.412837 -207.677343 
L 495.637191 -208.147848 
L 494.861545 -208.622138 
L 494.085898 -209.100234 
L 493.310252 -209.582158 
L 492.534605 -210.067931 
L 491.758959 -210.557572 
L 490.983313 -211.051102 
L 490.207666 -211.548543 
L 489.43202 -212.049914 
L 488.656374 -212.555236 
L 487.880727 -213.064528 
L 487.105081 -213.577813 
L 486.329434 -214.095108 
L 485.553788 -214.616434 
L 484.778142 -215.141811 
L 484.002495 -215.671258 
L 483.226849 -216.204795 
L 482.451203 -216.742442 
L 481.675556 -217.284216 
L 480.89991 -217.830138 
L 480.124263 -218.380225 
L 479.348617 -218.934498 
L 478.572971 -219.492973 
L 477.797324 -220.05567 
L 477.021678 -220.622606 
L 476.246032 -221.193799 
L 475.470385 -221.769268 
L 474.694739 -222.349029 
L 473.919092 -222.9331 
L 473.143446 -223.521497 
L 472.3678 -224.114238 
L 471.592153 -224.711338 
L 470.816507 -225.312815 
L 470.040861 -225.918684 
L 469.265214 -226.528961 
L 468.489568 -227.143662 
L 467.713921 -227.762801 
L 466.938275 -228.386393 
L 466.162629 -229.014454 
L 465.386982 -229.646997 
L 464.611336 -230.284036 
L 463.83569 -230.925586 
L 463.060043 -231.571659 
L 462.284397 -232.222268 
L 461.508751 -232.877426 
L 460.733104 -233.537145 
L 459.957458 -234.201438 
L 459.181811 -234.870315 
L 458.406165 -235.543788 
L 457.630519 -236.221867 
L 456.854872 -236.904564 
L 456.079226 -237.591887 
L 455.30358 -238.283847 
L 454.527933 -238.980453 
L 453.752287 -239.681712 
L 452.97664 -240.387635 
L 452.200994 -241.098227 
L 451.425348 -241.813497 
L 450.649701 -242.533451 
L 449.874055 -243.258096 
L 449.098409 -243.987438 
L 448.322762 -244.721481 
L 447.547116 -245.460231 
L 446.771469 -246.203692 
L 445.995823 -246.951868 
L 445.220177 -247.704762 
L 444.44453 -248.462376 
L 443.668884 -249.224713 
L 442.893238 -249.991774 
L 442.117591 -250.76356 
L 441.341945 -251.540072 
L 440.566298 -252.321309 
L 439.790652 -253.10727 
L 439.015006 -253.897954 
L 438.239359 -254.693358 
L 437.463713 -255.49348 
L 436.688067 -256.298317 
L 435.91242 -257.107864 
L 435.136774 -257.922116 
L 434.361128 -258.741068 
L 433.585481 -259.564713 
L 432.809835 -260.393046 
L 432.034188 -261.226057 
L 431.258542 -262.06374 
L 430.482896 -262.906084 
L 429.707249 -263.753079 
L 428.931603 -264.604716 
L 428.155957 -265.460982 
L 427.38031 -266.321866 
L 426.604664 -267.187355 
L 425.829017 -268.057434 
L 425.053371 -268.93209 
L 424.277725 -269.811306 
L 423.502078 -270.695067 
L 422.726432 -271.583355 
L 421.950786 -272.476152 
L 421.175139 -273.37344 
L 420.399493 -274.275199 
L 419.623846 -275.181409 
L 418.8482 -276.092047 
L 418.072554 -277.007092 
L 417.296907 -277.92652 
L 416.521261 -278.850307 
L 415.745615 -279.778427 
L 414.969968 -280.710856 
L 414.194322 -281.647565 
L 413.418675 -282.588527 
L 412.643029 -283.533714 
L 411.867383 -284.483094 
L 411.091736 -285.436637 
L 410.31609 -286.394311 
L 409.540444 -287.356084 
L 408.764797 -288.321921 
L 407.989151 -289.291788 
L 407.213504 -290.265649 
L 406.437858 -291.243466 
L 405.662212 -292.225203 
L 404.886565 -293.210819 
L 404.110919 -294.200275 
L 403.335273 -295.19353 
L 402.559626 -296.190542 
L 401.78398 -297.191268 
L 401.008334 -298.195662 
L 400.232687 -299.203681 
L 399.457041 -300.215277 
L 398.681394 -301.230404 
L 397.905748 -302.249012 
L 397.130102 -303.271052 
L 396.354455 -304.296474 
L 395.578809 -305.325225 
L 394.803163 -306.357253 
L 394.027516 -307.392504 
L 393.25187 -308.430922 
L 392.476223 -309.472453 
L 391.700577 -310.517037 
L 390.924931 -311.564618 
L 390.149284 -312.615135 
L 389.373638 -313.668529 
L 388.597992 -314.724737 
L 387.822345 -315.783696 
L 387.046699 -316.845344 
L 386.271052 -317.909616 
L 385.495406 -318.976444 
L 384.71976 -320.045763 
L 383.944113 -321.117503 
L 383.168467 -322.191597 
L 382.392821 -323.267974 
L 381.617174 -324.346562 
L 380.841528 -325.427289 
L 380.065881 -326.510082 
L 379.290235 -327.594866 
L 378.514589 -328.681566 
L 377.738942 -329.770105 
L 376.963296 -330.860407 
L 376.18765 -331.952391 
L 375.412003 -333.045979 
L 374.636357 -334.141091 
L 373.86071 -335.237644 
L 373.085064 -336.335557 
L 372.309418 -337.434745 
L 371.533771 -338.535126 
L 370.758125 -339.636612 
L 369.982479 -340.739119 
L 369.206832 -341.842559 
L 368.431186 -342.946845 
L 367.65554 -344.051886 
L 366.879893 -345.157595 
L 366.104247 -346.263879 
L 365.3286 -347.370649 
L 364.552954 -348.477811 
L 363.777308 -349.585273 
L 363.001661 -350.692942 
L 362.226015 -351.800722 
L 361.450369 -352.908519 
L 360.674722 -354.016237 
L 359.899076 -355.123779 
L 359.123429 -356.231049 
L 358.347783 -357.337948 
L 357.572137 -358.444378 
L 356.79649 -359.550241 
L 356.020844 -360.655436 
L 355.245198 -361.759863 
L 354.469551 -362.863423 
L 353.693905 -363.966014 
L 352.918258 -365.067534 
L 352.142612 -366.167882 
L 351.366966 -367.266955 
L 350.591319 -368.364651 
L 349.815673 -369.460866 
L 349.040027 -370.555498 
L 348.26438 -371.648443 
L 347.488734 -372.739596 
L 346.713087 -373.828854 
L 345.937441 -374.916113 
L 345.161795 -376.001268 
L 344.386148 -377.084215 
L 343.610502 -378.164848 
L 342.834856 -379.243065 
L 342.059209 -380.318759 
L 341.283563 -381.391826 
L 340.507916 -382.462162 
L 339.73227 -383.529662 
L 338.956624 -384.594222 
L 338.180977 -385.655738 
L 337.405331 -386.714105 
L 336.629685 -387.76922 
L 335.854038 -388.820979 
L 335.078392 -389.86928 
L 334.302746 -390.914019 
L 333.527099 -391.955093 
L 332.751453 -392.992402 
L 331.975806 -394.025843 
L 331.20016 -395.055316 
L 330.424514 -396.080719 
L 329.648867 -397.101953 
L 328.873221 -398.118919 
L 328.097575 -399.131517 
L 327.321928 -400.139651 
L 326.546282 -401.143222 
L 325.770635 -402.142134 
L 324.994989 -403.136292 
L 324.219343 -404.125601 
L 323.443696 -405.109966 
L 322.66805 -406.089296 
L 321.892404 -407.063497 
L 321.116757 -408.032479 
L 320.341111 -408.996151 
L 319.565464 -409.954426 
L 318.789818 -410.907215 
L 318.014172 -411.854431 
L 317.238525 -412.795989 
L 316.462879 -413.731805 
L 315.687233 -414.661796 
L 314.911586 -415.585879 
L 314.13594 -416.503976 
L 313.360293 -417.416006 
L 312.584647 -418.321893 
L 311.809001 -419.221559 
L 311.033354 -420.114931 
L 310.257708 -421.001936 
L 309.482062 -421.882501 
L 308.706415 -422.756556 
L 307.930769 -423.624033 
L 307.155122 -424.484866 
L 306.379476 -425.338988 
L 305.60383 -426.186337 
L 304.828183 -427.02685 
L 304.052537 -427.860468 
L 303.276891 -428.687132 
L 302.501244 -429.506785 
L 301.725598 -430.319373 
L 300.949952 -431.124843 
L 300.174305 -431.923144 
L 299.398659 -432.714226 
L 298.623012 -433.498043 
L 297.847366 -434.274549 
L 297.07172 -435.0437 
L 296.296073 -435.805455 
L 295.520427 -436.559775 
L 294.744781 -437.306621 
L 293.969134 -438.045959 
L 293.193488 -438.777755 
L 292.417841 -439.501978 
L 291.642195 -440.218597 
L 290.866549 -440.927585 
L 290.090902 -441.628917 
L 289.315256 -442.322571 
L 288.53961 -443.008523 
L 287.763963 -443.686756 
L 286.988317 -444.357251 
L 286.21267 -445.019995 
L 285.437024 -445.674973 
L 284.661378 -446.322175 
L 283.885731 -446.961593 
L 283.110085 -447.593219 
L 282.334439 -448.217048 
L 281.558792 -448.833079 
L 280.783146 -449.44131 
L 280.007499 -450.041742 
L 279.231853 -450.63438 
L 278.456207 -451.219229 
L 277.68056 -451.796297 
L 276.904914 -452.365592 
L 276.129268 -452.927126 
L 275.353621 -453.480914 
L 274.577975 -454.02697 
L 273.802329 -454.565311 
L 273.026682 -455.095958 
L 272.251036 -455.618931 
L 271.475389 -456.134254 
L 270.699743 -456.641952 
L 269.924097 -457.14205 
L 269.14845 -457.634579 
L 268.372804 -458.119569 
L 267.597158 -458.597051 
L 266.821511 -459.06706 
L 266.045865 -459.529631 
L 265.270218 -459.984803 
L 264.494572 -460.432613 
L 263.718926 -460.873102 
L 262.943279 -461.306314 
L 262.167633 -461.732291 
L 261.391987 -462.151079 
L 260.61634 -462.562725 
L 259.840694 -462.967277 
L 259.065047 -463.364785 
L 258.289401 -463.7553 
L 257.513755 -464.138874 
L 256.738108 -464.515562 
L 255.962462 -464.885419 
L 255.186816 -465.248501 
L 254.411169 -465.604864 
L 253.635523 -465.954569 
L 252.859876 -466.297675 
L 252.08423 -466.634243 
L 251.308584 -466.964335 
L 250.532937 -467.288014 
L 249.757291 -467.605344 
L 248.981645 -467.91639 
L 248.205998 -468.221217 
L 247.430352 -468.519892 
L 246.654705 -468.812483 
L 245.879059 -469.099058 
L 245.103413 -469.379686 
L 244.327766 -469.654436 
L 243.55212 -469.923378 
L 242.776474 -470.186584 
L 242.000827 -470.444124 
L 241.225181 -470.696071 
L 240.449535 -470.942497 
L 239.673888 -471.183474 
L 238.898242 -471.419077 
L 238.122595 -471.649377 
L 237.346949 -471.87445 
L 236.571303 -472.094368 
L 235.795656 -472.309208 
L 235.02001 -472.519042 
L 234.244364 -472.723945 
L 233.468717 -472.923993 
L 232.693071 -473.11926 
L 231.917424 -473.309821 
L 231.141778 -473.495751 
L 230.366132 -473.677124 
L 229.590485 -473.854015 
L 228.814839 -474.0265 
L 228.039193 -474.194651 
L 227.263546 -474.358545 
L 226.4879 -474.518254 
L 225.712253 -474.673852 
L 224.936607 -474.825413 
L 224.160961 -474.973011 
L 223.385314 -475.116718 
L 222.609668 -475.256607 
L 221.834022 -475.392749 
L 221.058375 -475.525217 
L 220.282729 -475.654082 
L 219.507082 -475.779415 
L 218.731436 -475.901285 
L 217.95579 -476.019763 
L 217.180143 -476.134918 
L 216.404497 -476.246818 
L 215.628851 -476.355531 
L 214.853204 -476.461125 
L 214.077558 -476.563667 
L 213.301911 -476.663222 
L 212.526265 -476.759856 
L 211.750619 -476.853634 
L 210.974972 -476.94462 
L 210.199326 -477.032877 
L 209.42368 -477.118467 
L 208.648033 -477.201452 
L 207.872387 -477.281894 
L 207.096741 -477.359852 
L 206.321094 -477.435386 
L 205.545448 -477.508555 
L 204.769801 -477.579416 
L 203.994155 -477.648026 
L 203.218509 -477.714441 
L 202.442862 -477.778717 
L 201.667216 -477.840908 
L 200.89157 -477.901067 
L 200.115923 -477.959248 
L 199.340277 -478.015501 
L 198.56463 -478.069879 
L 197.788984 -478.122431 
L 197.013338 -478.173206 
L 196.237691 -478.222253 
L 195.462045 -478.269619 
L 194.686399 -478.315351 
L 193.910752 -478.359494 
L 193.135106 -478.402094 
L 192.359459 -478.443193 
L 191.583813 -478.482836 
L 190.808167 -478.521064 
L 190.03252 -478.557919 
L 189.256874 -478.593442 
L 188.481228 -478.627671 
L 187.705581 -478.660646 
L 186.929935 -478.692404 
L 186.154288 -478.722983 
L 185.378642 -478.752419 
L 184.602996 -478.780747 
L 183.827349 -478.808001 
L 183.051703 -478.834217 
L 182.276057 -478.859426 
L 181.50041 -478.88366 
L 180.724764 -478.906952 
L 179.949117 -478.929331 
L 179.173471 -478.950828 
L 178.397825 -478.971471 
L 177.622178 -478.99129 
L 176.846532 -479.01031 
L 176.070886 -479.02856 
L 175.295239 -479.046065 
L 174.519593 -479.062851 
L 173.743947 -479.078942 
L 172.9683 -479.094362 
L 172.192654 -479.109136 
L 171.417007 -479.123284 
L 170.641361 -479.13683 
L 169.865715 -479.149795 
L 169.090068 -479.162199 
L 168.314422 -479.174062 
L 167.538776 -479.185405 
L 166.763129 -479.196245 
L 165.987483 -479.206601 
L 165.211836 -479.21649 
L 164.43619 -479.225931 
L 163.660544 -479.234938 
L 162.884897 -479.243529 
L 162.109251 -479.251718 
L 161.333605 -479.259521 
L 160.557958 -479.266951 
L 159.782312 -479.274023 
L 159.006665 -479.28075 
L 158.231019 -479.287143 
L 157.455373 -479.293217 
L 156.679726 -479.298982 
L 155.90408 -479.304449 
L 155.128434 -479.309629 
L 154.352787 -479.314533 
L 153.577141 -479.319169 
L 152.801494 -479.323547 
L 152.025848 -479.327675 
L 151.250202 -479.331562 
L 150.474555 -479.335214 
L 149.698909 -479.338638 
L 148.923263 -479.34184 
L 148.147616 -479.344827 
L 147.37197 -479.347601 
L 146.596323 -479.350167 
L 145.820677 -479.352529 
L 145.045031 -479.354687 
L 144.269384 -479.356642 
L 143.493738 -479.358394 
L 142.718092 -479.359941 
L 141.942445 -479.361278 
L 141.166799 -479.362401 
L 140.391153 -479.363299 
L 139.615506 -479.363963 
L 138.83986 -479.364376 
L 138.064213 -479.364519 
L 137.288567 -479.364366 
L 136.512921 -479.364136 
L 135.737274 -479.364475 
L 134.961628 -479.364473 
L 134.185982 -479.364088 
L 133.410335 -479.364304 
L 132.634689 -479.364519 
L 131.859042 -479.364282 
L 131.083396 -479.363916 
L 130.30775 -479.364448 
L 129.532103 -479.364444 
L 128.756457 -479.363794 
L 127.980811 -479.364151 
L 127.205164 -479.364519 
L 126.429518 -479.364085 
L 125.653871 -479.362601 
L 124.878225 -479.359682 
L 124.102579 -479.354697 
L 123.326932 -479.346568 
L 122.551286 -479.333327 
L 121.77564 -479.311105 
L 120.999993 -479.271538 
L 120.224347 -479.194192 
L 119.4487 -479.020353 
L 118.673054 -478.538634 
L 117.897408 -476.684687 
L 117.121761 -464.06096 
z
" style="stroke: #ffa500; stroke-opacity: 0.3"/>
    </defs>
    <g clip-path="url(#pe866c86f98)">
     <use xlink:href="#m07be68186f" x="0" y="540.100875" style="fill: #ffa500; fill-opacity: 0.3; stroke: #ffa500; stroke-opacity: 0.3"/>
    </g>
   </g>
   <g id="PolyCollection_2">
    <defs>
     <path id="mef38de0a61" d="M 117.121761 -197.478686 
L 117.121761 -173.161976 
L 117.897408 -188.123272 
L 118.673054 -201.196201 
L 119.4487 -212.659256 
L 120.224347 -222.740679 
L 120.999993 -231.62896 
L 121.77564 -239.480875 
L 122.551286 -246.427685 
L 123.326932 -252.579976 
L 124.102579 -258.031462 
L 124.878225 -262.861998 
L 125.653871 -267.139986 
L 126.429518 -270.924308 
L 127.205164 -274.265891 
L 127.980811 -277.208981 
L 128.756457 -279.792185 
L 129.532103 -282.049328 
L 130.30775 -284.010169 
L 131.083396 -285.700984 
L 131.859042 -286.762901 
L 132.634689 -285.228992 
L 133.410335 -283.576907 
L 134.185982 -281.826208 
L 134.961628 -279.99382 
L 135.737274 -278.09443 
L 136.512921 -276.140823 
L 137.288567 -274.144147 
L 138.064213 -272.114142 
L 138.83986 -270.05933 
L 139.615506 -267.987175 
L 140.391153 -265.904217 
L 141.166799 -263.816188 
L 141.942445 -261.728113 
L 142.718092 -259.644395 
L 143.493738 -257.568887 
L 144.269384 -255.504959 
L 145.045031 -253.455554 
L 145.820677 -251.423236 
L 146.596323 -249.410233 
L 147.37197 -247.418478 
L 148.147616 -245.449638 
L 148.923263 -243.505143 
L 149.698909 -241.586219 
L 150.474555 -239.693902 
L 151.250202 -237.829065 
L 152.025848 -235.992434 
L 152.801494 -234.1846 
L 153.577141 -232.406041 
L 154.352787 -230.65713 
L 155.128434 -228.938143 
L 155.90408 -227.249278 
L 156.679726 -225.590656 
L 157.455373 -223.962332 
L 158.231019 -222.364303 
L 159.006665 -220.796513 
L 159.782312 -219.258858 
L 160.557958 -217.751195 
L 161.333605 -216.273342 
L 162.109251 -214.825085 
L 162.884897 -213.406178 
L 163.660544 -212.016354 
L 164.43619 -210.65532 
L 165.211836 -209.322762 
L 165.987483 -208.018352 
L 166.763129 -206.741742 
L 167.538776 -205.492575 
L 168.314422 -204.270479 
L 169.090068 -203.075074 
L 169.865715 -201.90597 
L 170.641361 -200.762772 
L 171.417007 -199.645078 
L 172.192654 -198.552479 
L 172.9683 -197.484567 
L 173.743947 -196.440927 
L 174.519593 -195.421145 
L 175.295239 -194.424803 
L 176.070886 -193.451485 
L 176.846532 -192.500773 
L 177.622178 -191.572253 
L 178.397825 -190.665508 
L 179.173471 -189.780126 
L 179.949117 -188.915696 
L 180.724764 -188.07181 
L 181.50041 -187.248063 
L 182.276057 -186.444052 
L 183.051703 -185.659379 
L 183.827349 -184.89365 
L 184.602996 -184.146475 
L 185.378642 -183.417466 
L 186.154288 -182.706243 
L 186.929935 -182.012429 
L 187.705581 -181.335651 
L 188.481228 -180.675543 
L 189.256874 -180.031743 
L 190.03252 -179.403893 
L 190.808167 -178.791643 
L 191.583813 -178.194647 
L 192.359459 -177.612563 
L 193.135106 -177.045056 
L 193.910752 -176.491797 
L 194.686399 -175.952462 
L 195.462045 -175.426732 
L 196.237691 -174.914294 
L 197.013338 -174.41484 
L 197.788984 -173.928069 
L 198.56463 -173.453684 
L 199.340277 -172.991395 
L 200.115923 -172.540916 
L 200.89157 -172.101967 
L 201.667216 -171.674275 
L 202.442862 -171.257569 
L 203.218509 -170.851588 
L 203.994155 -170.456071 
L 204.769801 -170.070767 
L 205.545448 -169.695428 
L 206.321094 -169.32981 
L 207.096741 -168.973677 
L 207.872387 -168.626796 
L 208.648033 -168.28894 
L 209.42368 -167.959885 
L 210.199326 -167.639414 
L 210.974972 -167.327315 
L 211.750619 -167.023378 
L 212.526265 -166.727401 
L 213.301911 -166.439183 
L 214.077558 -166.158531 
L 214.853204 -165.885253 
L 215.628851 -165.619166 
L 216.404497 -165.360085 
L 217.180143 -165.107835 
L 217.95579 -164.862242 
L 218.731436 -164.623136 
L 219.507082 -164.390352 
L 220.282729 -164.163729 
L 221.058375 -163.943109 
L 221.834022 -163.728339 
L 222.609668 -163.519267 
L 223.385314 -163.315748 
L 224.160961 -163.117638 
L 224.936607 -162.924798 
L 225.712253 -162.737091 
L 226.4879 -162.554384 
L 227.263546 -162.376548 
L 228.039193 -162.203457 
L 228.814839 -162.034986 
L 229.590485 -161.871016 
L 230.366132 -161.711428 
L 231.141778 -161.556109 
L 231.917424 -161.404947 
L 232.693071 -161.257833 
L 233.468717 -161.114661 
L 234.244364 -160.975328 
L 235.02001 -160.839732 
L 235.795656 -160.707775 
L 236.571303 -160.579361 
L 237.346949 -160.454397 
L 238.122595 -160.332793 
L 238.898242 -160.214458 
L 239.673888 -160.099307 
L 240.449535 -159.987255 
L 241.225181 -159.878221 
L 242.000827 -159.772124 
L 242.776474 -159.668886 
L 243.55212 -159.568432 
L 244.327766 -159.470687 
L 245.103413 -159.375579 
L 245.879059 -159.283039 
L 246.654705 -159.192997 
L 247.430352 -159.105387 
L 248.205998 -159.020144 
L 248.981645 -158.937205 
L 249.757291 -158.856509 
L 250.532937 -158.777995 
L 251.308584 -158.701606 
L 252.08423 -158.627283 
L 252.859876 -158.554973 
L 253.635523 -158.48462 
L 254.411169 -158.416173 
L 255.186816 -158.34958 
L 255.962462 -158.284792 
L 256.738108 -158.221759 
L 257.513755 -158.160436 
L 258.289401 -158.100775 
L 259.065047 -158.042733 
L 259.840694 -157.986266 
L 260.61634 -157.931331 
L 261.391987 -157.877887 
L 262.167633 -157.825893 
L 262.943279 -157.775312 
L 263.718926 -157.726104 
L 264.494572 -157.678233 
L 265.270218 -157.631662 
L 266.045865 -157.586357 
L 266.821511 -157.542283 
L 267.597158 -157.499407 
L 268.372804 -157.457697 
L 269.14845 -157.417121 
L 269.924097 -157.377648 
L 270.699743 -157.339249 
L 271.475389 -157.301895 
L 272.251036 -157.265557 
L 273.026682 -157.230207 
L 273.802329 -157.19582 
L 274.577975 -157.162369 
L 275.353621 -157.129828 
L 276.129268 -157.098173 
L 276.904914 -157.06738 
L 277.68056 -157.037426 
L 278.456207 -157.008287 
L 279.231853 -156.979942 
L 280.007499 -156.952369 
L 280.783146 -156.925548 
L 281.558792 -156.899457 
L 282.334439 -156.874077 
L 283.110085 -156.849389 
L 283.885731 -156.825373 
L 284.661378 -156.802012 
L 285.437024 -156.779288 
L 286.21267 -156.757184 
L 286.988317 -156.735682 
L 287.763963 -156.714766 
L 288.53961 -156.694421 
L 289.315256 -156.67463 
L 290.090902 -156.655379 
L 290.866549 -156.636654 
L 291.642195 -156.618439 
L 292.417841 -156.600721 
L 293.193488 -156.583486 
L 293.969134 -156.566721 
L 294.744781 -156.550414 
L 295.520427 -156.534552 
L 296.296073 -156.519122 
L 297.07172 -156.504114 
L 297.847366 -156.489515 
L 298.623012 -156.475315 
L 299.398659 -156.461502 
L 300.174305 -156.448066 
L 300.949952 -156.434997 
L 301.725598 -156.422285 
L 302.501244 -156.40992 
L 303.276891 -156.397892 
L 304.052537 -156.386192 
L 304.828183 -156.374813 
L 305.60383 -156.363743 
L 306.379476 -156.352976 
L 307.155122 -156.342503 
L 307.930769 -156.332316 
L 308.706415 -156.322407 
L 309.482062 -156.312769 
L 310.257708 -156.303394 
L 311.033354 -156.294275 
L 311.809001 -156.285405 
L 312.584647 -156.276778 
L 313.360293 -156.268385 
L 314.13594 -156.260223 
L 314.911586 -156.252283 
L 315.687233 -156.24456 
L 316.462879 -156.237048 
L 317.238525 -156.229741 
L 318.014172 -156.222634 
L 318.789818 -156.215721 
L 319.565464 -156.208997 
L 320.341111 -156.202456 
L 321.116757 -156.196095 
L 321.892404 -156.189907 
L 322.66805 -156.183888 
L 323.443696 -156.178033 
L 324.219343 -156.172339 
L 324.994989 -156.1668 
L 325.770635 -156.161412 
L 326.546282 -156.156172 
L 327.321928 -156.151075 
L 328.097575 -156.146117 
L 328.873221 -156.141295 
L 329.648867 -156.136604 
L 330.424514 -156.132042 
L 331.20016 -156.127604 
L 331.975806 -156.123288 
L 332.751453 -156.119089 
L 333.527099 -156.115006 
L 334.302746 -156.111034 
L 335.078392 -156.10717 
L 335.854038 -156.103412 
L 336.629685 -156.099757 
L 337.405331 -156.096202 
L 338.180977 -156.092743 
L 338.956624 -156.08938 
L 339.73227 -156.086108 
L 340.507916 -156.082926 
L 341.283563 -156.07983 
L 342.059209 -156.07682 
L 342.834856 -156.073891 
L 343.610502 -156.071043 
L 344.386148 -156.068272 
L 345.161795 -156.065578 
L 345.937441 -156.062957 
L 346.713087 -156.060407 
L 347.488734 -156.057927 
L 348.26438 -156.055515 
L 349.040027 -156.053169 
L 349.815673 -156.050887 
L 350.591319 -156.048668 
L 351.366966 -156.046509 
L 352.142612 -156.044409 
L 352.918258 -156.042367 
L 353.693905 -156.04038 
L 354.469551 -156.038448 
L 355.245198 -156.036568 
L 356.020844 -156.03474 
L 356.79649 -156.032962 
L 357.572137 -156.031233 
L 358.347783 -156.029551 
L 359.123429 -156.027914 
L 359.899076 -156.026323 
L 360.674722 -156.024775 
L 361.450369 -156.023269 
L 362.226015 -156.021805 
L 363.001661 -156.02038 
L 363.777308 -156.018995 
L 364.552954 -156.017647 
L 365.3286 -156.016336 
L 366.104247 -156.015061 
L 366.879893 -156.013821 
L 367.65554 -156.012615 
L 368.431186 -156.011442 
L 369.206832 -156.010301 
L 369.982479 -156.009191 
L 370.758125 -156.008111 
L 371.533771 -156.007061 
L 372.309418 -156.00604 
L 373.085064 -156.005046 
L 373.86071 -156.00408 
L 374.636357 -156.00314 
L 375.412003 -156.002226 
L 376.18765 -156.001337 
L 376.963296 -156.000472 
L 377.738942 -155.999631 
L 378.514589 -155.998813 
L 379.290235 -155.998017 
L 380.065881 -155.997243 
L 380.841528 -155.99649 
L 381.617174 -155.995758 
L 382.392821 -155.995045 
L 383.168467 -155.994352 
L 383.944113 -155.993679 
L 384.71976 -155.993023 
L 385.495406 -155.992386 
L 386.271052 -155.991765 
L 387.046699 -155.991162 
L 387.822345 -155.990576 
L 388.597992 -155.990005 
L 389.373638 -155.98945 
L 390.149284 -155.98891 
L 390.924931 -155.988385 
L 391.700577 -155.987874 
L 392.476223 -155.987378 
L 393.25187 -155.986894 
L 394.027516 -155.986425 
L 394.803163 -155.985967 
L 395.578809 -155.985523 
L 396.354455 -155.98509 
L 397.130102 -155.98467 
L 397.905748 -155.984261 
L 398.681394 -155.983863 
L 399.457041 -155.983476 
L 400.232687 -155.983099 
L 401.008334 -155.982733 
L 401.78398 -155.982377 
L 402.559626 -155.98203 
L 403.335273 -155.981693 
L 404.110919 -155.981366 
L 404.886565 -155.981047 
L 405.662212 -155.980737 
L 406.437858 -155.980435 
L 407.213504 -155.980142 
L 407.989151 -155.979857 
L 408.764797 -155.979579 
L 409.540444 -155.979309 
L 410.31609 -155.979047 
L 411.091736 -155.978791 
L 411.867383 -155.978543 
L 412.643029 -155.978301 
L 413.418675 -155.978066 
L 414.194322 -155.977838 
L 414.969968 -155.977615 
L 415.745615 -155.977399 
L 416.521261 -155.977189 
L 417.296907 -155.976984 
L 418.072554 -155.976785 
L 418.8482 -155.976592 
L 419.623846 -155.976404 
L 420.399493 -155.97622 
L 421.175139 -155.976042 
L 421.950786 -155.975869 
L 422.726432 -155.975701 
L 423.502078 -155.975537 
L 424.277725 -155.975377 
L 425.053371 -155.975222 
L 425.829017 -155.975072 
L 426.604664 -155.974925 
L 427.38031 -155.974782 
L 428.155957 -155.974643 
L 428.931603 -155.974508 
L 429.707249 -155.974377 
L 430.482896 -155.97425 
L 431.258542 -155.974125 
L 432.034188 -155.974005 
L 432.809835 -155.973887 
L 433.585481 -155.973773 
L 434.361128 -155.973662 
L 435.136774 -155.973553 
L 435.91242 -155.973448 
L 436.688067 -155.973346 
L 437.463713 -155.973247 
L 438.239359 -155.97315 
L 439.015006 -155.973056 
L 439.790652 -155.972964 
L 440.566298 -155.972875 
L 441.341945 -155.972788 
L 442.117591 -155.972704 
L 442.893238 -155.972622 
L 443.668884 -155.972543 
L 444.44453 -155.972465 
L 445.220177 -155.97239 
L 445.995823 -155.972316 
L 446.771469 -155.972245 
L 447.547116 -155.972176 
L 448.322762 -155.972108 
L 449.098409 -155.972042 
L 449.874055 -155.971979 
L 450.649701 -155.971917 
L 451.425348 -155.971856 
L 452.200994 -155.971797 
L 452.97664 -155.97174 
L 453.752287 -155.971685 
L 454.527933 -155.971631 
L 455.30358 -155.971578 
L 456.079226 -155.971527 
L 456.854872 -155.971477 
L 457.630519 -155.971429 
L 458.406165 -155.971382 
L 459.181811 -155.971336 
L 459.957458 -155.971291 
L 460.733104 -155.971248 
L 461.508751 -155.971206 
L 462.284397 -155.971165 
L 463.060043 -155.971125 
L 463.83569 -155.971086 
L 464.611336 -155.971049 
L 465.386982 -155.971012 
L 466.162629 -155.970976 
L 466.938275 -155.970942 
L 467.713921 -155.970908 
L 468.489568 -155.970875 
L 469.265214 -155.970843 
L 470.040861 -155.970812 
L 470.816507 -155.970782 
L 471.592153 -155.970753 
L 472.3678 -155.970724 
L 473.143446 -155.970696 
L 473.919092 -155.970669 
L 474.694739 -155.970643 
L 475.470385 -155.970617 
L 476.246032 -155.970592 
L 477.021678 -155.970568 
L 477.797324 -155.970545 
L 478.572971 -155.970522 
L 479.348617 -155.9705 
L 480.124263 -155.970478 
L 480.89991 -155.970457 
L 481.675556 -155.970436 
L 482.451203 -155.970416 
L 483.226849 -155.970397 
L 484.002495 -155.970378 
L 484.778142 -155.97036 
L 485.553788 -155.970342 
L 486.329434 -155.970325 
L 487.105081 -155.970308 
L 487.880727 -155.970291 
L 488.656374 -155.970275 
L 489.43202 -155.97026 
L 490.207666 -155.970245 
L 490.983313 -155.97023 
L 491.758959 -155.970216 
L 492.534605 -155.970202 
L 493.310252 -155.970188 
L 494.085898 -155.970175 
L 494.861545 -155.970163 
L 495.637191 -155.97015 
L 496.412837 -155.970138 
L 497.188484 -155.970126 
L 497.96413 -155.970115 
L 498.739776 -155.970104 
L 499.515423 -155.970093 
L 500.291069 -155.970082 
L 501.066715 -155.970072 
L 501.842362 -155.970062 
L 502.618008 -155.970052 
L 503.393655 -155.970043 
L 504.169301 -155.970034 
L 504.944947 -155.970025 
L 505.720594 -155.970016 
L 506.49624 -155.970008 
L 507.271886 -155.97 
L 508.047533 -155.969992 
L 508.823179 -155.969984 
L 509.598826 -155.969976 
L 510.374472 -155.969969 
L 511.150118 -155.969962 
L 511.925765 -155.969955 
L 512.701411 -155.969948 
L 513.477057 -155.969942 
L 514.252704 -155.969935 
L 515.02835 -155.969929 
L 515.803997 -155.969923 
L 516.579643 -155.969917 
L 517.355289 -155.969911 
L 518.130936 -155.969906 
L 518.906582 -155.9699 
L 519.682228 -155.969895 
L 520.457875 -155.96989 
L 521.233521 -155.969885 
L 522.009168 -155.96988 
L 522.784814 -155.969875 
L 523.56046 -155.969871 
L 524.336107 -155.969866 
L 525.111753 -155.969862 
L 525.887399 -155.969858 
L 526.663046 -155.969854 
L 527.438692 -155.96985 
L 528.214339 -155.969846 
L 528.989985 -155.969842 
L 529.765631 -155.969838 
L 530.541278 -155.969835 
L 531.316924 -155.969831 
L 532.09257 -155.969828 
L 532.868217 -155.969825 
L 533.643863 -155.969821 
L 534.419509 -155.969818 
L 535.195156 -155.969815 
L 535.970802 -155.969812 
L 536.746449 -155.969809 
L 537.522095 -155.969807 
L 538.297741 -155.969804 
L 539.073388 -155.969801 
L 539.849034 -155.969799 
L 540.62468 -155.969796 
L 541.400327 -155.969794 
L 542.175973 -155.969792 
L 542.95162 -155.969789 
L 543.727266 -155.969787 
L 544.502912 -155.969785 
L 545.278559 -155.969783 
L 546.054205 -155.969781 
L 546.829851 -155.969779 
L 547.605498 -155.969777 
L 548.381144 -155.969775 
L 549.156791 -155.969773 
L 549.932437 -155.969771 
L 550.708083 -155.96977 
L 551.48373 -155.969768 
L 552.259376 -155.969766 
L 553.035022 -155.969765 
L 553.810669 -155.969763 
L 554.586315 -155.969762 
L 555.361962 -155.96976 
L 556.137608 -155.969759 
L 556.913254 -155.969757 
L 557.688901 -155.969756 
L 558.464547 -155.969755 
L 559.240193 -155.969753 
L 560.01584 -155.969752 
L 560.791486 -155.969751 
L 561.567133 -155.96975 
L 562.342779 -155.969748 
L 563.118425 -155.969747 
L 563.894072 -155.969746 
L 564.669718 -155.969745 
L 565.445364 -155.969744 
L 566.221011 -155.969743 
L 566.996657 -155.969742 
L 567.772303 -155.969741 
L 568.54795 -155.96974 
L 569.323596 -155.969739 
L 570.099243 -155.969739 
L 570.874889 -155.969738 
L 571.650535 -155.969737 
L 572.426182 -155.969736 
L 573.201828 -155.969735 
L 573.977474 -155.969735 
L 574.753121 -155.969734 
L 575.528767 -155.969733 
L 576.304414 -155.969732 
L 577.08006 -155.969732 
L 577.855706 -155.969731 
L 578.631353 -155.969731 
L 579.406999 -155.96973 
L 580.182645 -155.969729 
L 580.958292 -155.969729 
L 581.733938 -155.969728 
L 582.509585 -155.969728 
L 583.285231 -155.969727 
L 584.060877 -155.969726 
L 584.836524 -155.969726 
L 585.61217 -155.969725 
L 586.387816 -155.969725 
L 587.163463 -155.969725 
L 587.939109 -155.969724 
L 588.714756 -155.969724 
L 589.490402 -155.969723 
L 590.266048 -155.969723 
L 591.041695 -155.969722 
L 591.817341 -155.969722 
L 592.592987 -155.969722 
L 593.368634 -155.969721 
L 594.14428 -155.969721 
L 594.919927 -155.96972 
L 595.695573 -155.96972 
L 596.471219 -155.96972 
L 597.246866 -155.969719 
L 598.022512 -155.969719 
L 598.798158 -155.969719 
L 599.573805 -155.969719 
L 600.349451 -155.969718 
L 601.125097 -155.969718 
L 601.900744 -155.969718 
L 602.67639 -155.969717 
L 603.452037 -155.969717 
L 604.227683 -155.969717 
L 605.003329 -155.969717 
L 605.778976 -155.969716 
L 606.554622 -155.969716 
L 607.330268 -155.969716 
L 608.105915 -155.969716 
L 608.881561 -155.969715 
L 609.657208 -155.969715 
L 610.432854 -155.969715 
L 611.2085 -155.969715 
L 611.984147 -155.969715 
L 612.759793 -155.969714 
L 613.535439 -155.969714 
L 614.311086 -155.969714 
L 615.086732 -155.969714 
L 615.862379 -155.969714 
L 616.638025 -155.969714 
L 617.413671 -155.969713 
L 618.189318 -155.969713 
L 618.964964 -155.969713 
L 619.74061 -155.969713 
L 620.516257 -155.969713 
L 621.291903 -155.969713 
L 622.06755 -155.969713 
L 622.843196 -155.969712 
L 623.618842 -155.969712 
L 624.394489 -155.969712 
L 624.394489 -156.360327 
L 624.394489 -156.360327 
L 623.618842 -156.364268 
L 622.843196 -156.368248 
L 622.06755 -156.372269 
L 621.291903 -156.37633 
L 620.516257 -156.380432 
L 619.74061 -156.384576 
L 618.964964 -156.388761 
L 618.189318 -156.392988 
L 617.413671 -156.397259 
L 616.638025 -156.401572 
L 615.862379 -156.405928 
L 615.086732 -156.410329 
L 614.311086 -156.414773 
L 613.535439 -156.419263 
L 612.759793 -156.423798 
L 611.984147 -156.428378 
L 611.2085 -156.433005 
L 610.432854 -156.437679 
L 609.657208 -156.442399 
L 608.881561 -156.447167 
L 608.105915 -156.451983 
L 607.330268 -156.456848 
L 606.554622 -156.461761 
L 605.778976 -156.466725 
L 605.003329 -156.471738 
L 604.227683 -156.476801 
L 603.452037 -156.481916 
L 602.67639 -156.487082 
L 601.900744 -156.492301 
L 601.125097 -156.497572 
L 600.349451 -156.502896 
L 599.573805 -156.508273 
L 598.798158 -156.513705 
L 598.022512 -156.519192 
L 597.246866 -156.524733 
L 596.471219 -156.530331 
L 595.695573 -156.535985 
L 594.919927 -156.541696 
L 594.14428 -156.547465 
L 593.368634 -156.553291 
L 592.592987 -156.559177 
L 591.817341 -156.565121 
L 591.041695 -156.571126 
L 590.266048 -156.577191 
L 589.490402 -156.583317 
L 588.714756 -156.589504 
L 587.939109 -156.595755 
L 587.163463 -156.602068 
L 586.387816 -156.608444 
L 585.61217 -156.614885 
L 584.836524 -156.621391 
L 584.060877 -156.627962 
L 583.285231 -156.634599 
L 582.509585 -156.641304 
L 581.733938 -156.648076 
L 580.958292 -156.654915 
L 580.182645 -156.661824 
L 579.406999 -156.668803 
L 578.631353 -156.675851 
L 577.855706 -156.682971 
L 577.08006 -156.690162 
L 576.304414 -156.697426 
L 575.528767 -156.704763 
L 574.753121 -156.712174 
L 573.977474 -156.719659 
L 573.201828 -156.72722 
L 572.426182 -156.734856 
L 571.650535 -156.74257 
L 570.874889 -156.750361 
L 570.099243 -156.758231 
L 569.323596 -156.76618 
L 568.54795 -156.774209 
L 567.772303 -156.782319 
L 566.996657 -156.79051 
L 566.221011 -156.798784 
L 565.445364 -156.807141 
L 564.669718 -156.815582 
L 563.894072 -156.824109 
L 563.118425 -156.832721 
L 562.342779 -156.841419 
L 561.567133 -156.850205 
L 560.791486 -156.85908 
L 560.01584 -156.868044 
L 559.240193 -156.877098 
L 558.464547 -156.886243 
L 557.688901 -156.89548 
L 556.913254 -156.90481 
L 556.137608 -156.914234 
L 555.361962 -156.923753 
L 554.586315 -156.933367 
L 553.810669 -156.943078 
L 553.035022 -156.952887 
L 552.259376 -156.962794 
L 551.48373 -156.972802 
L 550.708083 -156.982909 
L 549.932437 -156.993119 
L 549.156791 -157.003431 
L 548.381144 -157.013847 
L 547.605498 -157.024367 
L 546.829851 -157.034994 
L 546.054205 -157.045727 
L 545.278559 -157.056568 
L 544.502912 -157.067518 
L 543.727266 -157.078578 
L 542.95162 -157.08975 
L 542.175973 -157.101033 
L 541.400327 -157.11243 
L 540.62468 -157.123942 
L 539.849034 -157.135569 
L 539.073388 -157.147313 
L 538.297741 -157.159176 
L 537.522095 -157.171157 
L 536.746449 -157.183259 
L 535.970802 -157.195483 
L 535.195156 -157.207829 
L 534.419509 -157.220299 
L 533.643863 -157.232895 
L 532.868217 -157.245617 
L 532.09257 -157.258467 
L 531.316924 -157.271446 
L 530.541278 -157.284556 
L 529.765631 -157.297797 
L 528.989985 -157.311171 
L 528.214339 -157.32468 
L 527.438692 -157.338324 
L 526.663046 -157.352105 
L 525.887399 -157.366025 
L 525.111753 -157.380084 
L 524.336107 -157.394284 
L 523.56046 -157.408628 
L 522.784814 -157.423115 
L 522.009168 -157.437747 
L 521.233521 -157.452527 
L 520.457875 -157.467455 
L 519.682228 -157.482532 
L 518.906582 -157.497761 
L 518.130936 -157.513143 
L 517.355289 -157.52868 
L 516.579643 -157.544372 
L 515.803997 -157.560221 
L 515.02835 -157.57623 
L 514.252704 -157.592399 
L 513.477057 -157.608731 
L 512.701411 -157.625226 
L 511.925765 -157.641887 
L 511.150118 -157.658715 
L 510.374472 -157.675712 
L 509.598826 -157.692879 
L 508.823179 -157.710219 
L 508.047533 -157.727732 
L 507.271886 -157.745421 
L 506.49624 -157.763287 
L 505.720594 -157.781332 
L 504.944947 -157.799559 
L 504.169301 -157.817968 
L 503.393655 -157.836561 
L 502.618008 -157.855341 
L 501.842362 -157.87431 
L 501.066715 -157.893468 
L 500.291069 -157.912818 
L 499.515423 -157.932362 
L 498.739776 -157.952102 
L 497.96413 -157.97204 
L 497.188484 -157.992178 
L 496.412837 -158.012517 
L 495.637191 -158.03306 
L 494.861545 -158.053809 
L 494.085898 -158.074765 
L 493.310252 -158.095931 
L 492.534605 -158.11731 
L 491.758959 -158.138902 
L 490.983313 -158.160711 
L 490.207666 -158.182738 
L 489.43202 -158.204985 
L 488.656374 -158.227455 
L 487.880727 -158.25015 
L 487.105081 -158.273072 
L 486.329434 -158.296223 
L 485.553788 -158.319606 
L 484.778142 -158.343223 
L 484.002495 -158.367076 
L 483.226849 -158.391168 
L 482.451203 -158.415501 
L 481.675556 -158.440077 
L 480.89991 -158.464899 
L 480.124263 -158.489969 
L 479.348617 -158.51529 
L 478.572971 -158.540864 
L 477.797324 -158.566693 
L 477.021678 -158.592781 
L 476.246032 -158.619129 
L 475.470385 -158.645741 
L 474.694739 -158.672619 
L 473.919092 -158.699765 
L 473.143446 -158.727182 
L 472.3678 -158.754873 
L 471.592153 -158.782841 
L 470.816507 -158.811088 
L 470.040861 -158.839617 
L 469.265214 -158.868431 
L 468.489568 -158.897532 
L 467.713921 -158.926924 
L 466.938275 -158.95661 
L 466.162629 -158.986591 
L 465.386982 -159.016872 
L 464.611336 -159.047455 
L 463.83569 -159.078343 
L 463.060043 -159.109539 
L 462.284397 -159.141047 
L 461.508751 -159.172868 
L 460.733104 -159.205007 
L 459.957458 -159.237466 
L 459.181811 -159.270249 
L 458.406165 -159.303358 
L 457.630519 -159.336798 
L 456.854872 -159.370571 
L 456.079226 -159.40468 
L 455.30358 -159.439129 
L 454.527933 -159.473921 
L 453.752287 -159.50906 
L 452.97664 -159.544548 
L 452.200994 -159.58039 
L 451.425348 -159.616589 
L 450.649701 -159.653148 
L 449.874055 -159.690071 
L 449.098409 -159.727361 
L 448.322762 -159.765022 
L 447.547116 -159.803058 
L 446.771469 -159.841472 
L 445.995823 -159.880269 
L 445.220177 -159.919451 
L 444.44453 -159.959022 
L 443.668884 -159.998987 
L 442.893238 -160.03935 
L 442.117591 -160.080113 
L 441.341945 -160.121281 
L 440.566298 -160.162858 
L 439.790652 -160.204849 
L 439.015006 -160.247256 
L 438.239359 -160.290084 
L 437.463713 -160.333338 
L 436.688067 -160.37702 
L 435.91242 -160.421137 
L 435.136774 -160.46569 
L 434.361128 -160.510686 
L 433.585481 -160.556129 
L 432.809835 -160.602022 
L 432.034188 -160.64837 
L 431.258542 -160.695177 
L 430.482896 -160.742448 
L 429.707249 -160.790188 
L 428.931603 -160.838401 
L 428.155957 -160.887091 
L 427.38031 -160.936264 
L 426.604664 -160.985923 
L 425.829017 -161.036074 
L 425.053371 -161.086722 
L 424.277725 -161.137871 
L 423.502078 -161.189525 
L 422.726432 -161.241691 
L 421.950786 -161.294373 
L 421.175139 -161.347575 
L 420.399493 -161.401304 
L 419.623846 -161.455563 
L 418.8482 -161.510359 
L 418.072554 -161.565696 
L 417.296907 -161.62158 
L 416.521261 -161.678015 
L 415.745615 -161.735008 
L 414.969968 -161.792563 
L 414.194322 -161.850686 
L 413.418675 -161.909383 
L 412.643029 -161.968658 
L 411.867383 -162.028518 
L 411.091736 -162.088969 
L 410.31609 -162.150015 
L 409.540444 -162.211662 
L 408.764797 -162.273917 
L 407.989151 -162.336785 
L 407.213504 -162.400273 
L 406.437858 -162.464385 
L 405.662212 -162.529128 
L 404.886565 -162.594508 
L 404.110919 -162.660531 
L 403.335273 -162.727204 
L 402.559626 -162.794532 
L 401.78398 -162.862522 
L 401.008334 -162.93118 
L 400.232687 -163.000512 
L 399.457041 -163.070525 
L 398.681394 -163.141226 
L 397.905748 -163.21262 
L 397.130102 -163.284715 
L 396.354455 -163.357517 
L 395.578809 -163.431033 
L 394.803163 -163.50527 
L 394.027516 -163.580235 
L 393.25187 -163.655934 
L 392.476223 -163.732374 
L 391.700577 -163.809563 
L 390.924931 -163.887507 
L 390.149284 -163.966214 
L 389.373638 -164.045691 
L 388.597992 -164.125946 
L 387.822345 -164.206984 
L 387.046699 -164.288815 
L 386.271052 -164.371446 
L 385.495406 -164.454883 
L 384.71976 -164.539135 
L 383.944113 -164.624209 
L 383.168467 -164.710113 
L 382.392821 -164.796855 
L 381.617174 -164.884443 
L 380.841528 -164.972884 
L 380.065881 -165.062187 
L 379.290235 -165.152359 
L 378.514589 -165.24341 
L 377.738942 -165.335346 
L 376.963296 -165.428177 
L 376.18765 -165.521911 
L 375.412003 -165.616556 
L 374.636357 -165.71212 
L 373.86071 -165.808613 
L 373.085064 -165.906042 
L 372.309418 -166.004418 
L 371.533771 -166.103747 
L 370.758125 -166.20404 
L 369.982479 -166.305305 
L 369.206832 -166.407551 
L 368.431186 -166.510787 
L 367.65554 -166.615023 
L 366.879893 -166.720268 
L 366.104247 -166.826531 
L 365.3286 -166.933821 
L 364.552954 -167.042148 
L 363.777308 -167.151521 
L 363.001661 -167.261951 
L 362.226015 -167.373446 
L 361.450369 -167.486017 
L 360.674722 -167.599674 
L 359.899076 -167.714425 
L 359.123429 -167.830283 
L 358.347783 -167.947255 
L 357.572137 -168.065354 
L 356.79649 -168.184589 
L 356.020844 -168.30497 
L 355.245198 -168.426507 
L 354.469551 -168.549213 
L 353.693905 -168.673096 
L 352.918258 -168.798167 
L 352.142612 -168.924439 
L 351.366966 -169.05192 
L 350.591319 -169.180623 
L 349.815673 -169.310558 
L 349.040027 -169.441737 
L 348.26438 -169.57417 
L 347.488734 -169.707869 
L 346.713087 -169.842845 
L 345.937441 -169.97911 
L 345.161795 -170.116676 
L 344.386148 -170.255553 
L 343.610502 -170.395754 
L 342.834856 -170.537291 
L 342.059209 -170.680175 
L 341.283563 -170.824419 
L 340.507916 -170.970034 
L 339.73227 -171.117033 
L 338.956624 -171.265428 
L 338.180977 -171.415231 
L 337.405331 -171.566456 
L 336.629685 -171.719113 
L 335.854038 -171.873217 
L 335.078392 -172.02878 
L 334.302746 -172.185814 
L 333.527099 -172.344333 
L 332.751453 -172.50435 
L 331.975806 -172.665877 
L 331.20016 -172.828928 
L 330.424514 -172.993516 
L 329.648867 -173.159656 
L 328.873221 -173.327359 
L 328.097575 -173.49664 
L 327.321928 -173.667512 
L 326.546282 -173.839989 
L 325.770635 -174.014086 
L 324.994989 -174.189816 
L 324.219343 -174.367192 
L 323.443696 -174.54623 
L 322.66805 -174.726944 
L 321.892404 -174.909347 
L 321.116757 -175.093455 
L 320.341111 -175.279281 
L 319.565464 -175.466841 
L 318.789818 -175.65615 
L 318.014172 -175.847221 
L 317.238525 -176.040071 
L 316.462879 -176.234713 
L 315.687233 -176.431164 
L 314.911586 -176.629438 
L 314.13594 -176.829551 
L 313.360293 -177.031518 
L 312.584647 -177.235355 
L 311.809001 -177.441077 
L 311.033354 -177.6487 
L 310.257708 -177.85824 
L 309.482062 -178.069713 
L 308.706415 -178.283134 
L 307.930769 -178.49852 
L 307.155122 -178.715887 
L 306.379476 -178.935252 
L 305.60383 -179.15663 
L 304.828183 -179.380038 
L 304.052537 -179.605493 
L 303.276891 -179.833012 
L 302.501244 -180.06261 
L 301.725598 -180.294306 
L 300.949952 -180.528116 
L 300.174305 -180.764056 
L 299.398659 -181.002145 
L 298.623012 -181.242399 
L 297.847366 -181.484835 
L 297.07172 -181.729472 
L 296.296073 -181.976326 
L 295.520427 -182.225416 
L 294.744781 -182.476758 
L 293.969134 -182.730371 
L 293.193488 -182.986273 
L 292.417841 -183.24448 
L 291.642195 -183.505013 
L 290.866549 -183.767887 
L 290.090902 -184.033123 
L 289.315256 -184.300737 
L 288.53961 -184.570749 
L 287.763963 -184.843177 
L 286.988317 -185.118039 
L 286.21267 -185.395355 
L 285.437024 -185.675141 
L 284.661378 -185.957419 
L 283.885731 -186.242205 
L 283.110085 -186.52952 
L 282.334439 -186.819382 
L 281.558792 -187.111811 
L 280.783146 -187.406825 
L 280.007499 -187.704443 
L 279.231853 -188.004686 
L 278.456207 -188.307572 
L 277.68056 -188.613121 
L 276.904914 -188.921352 
L 276.129268 -189.232285 
L 275.353621 -189.545939 
L 274.577975 -189.862335 
L 273.802329 -190.181491 
L 273.026682 -190.503428 
L 272.251036 -190.828166 
L 271.475389 -191.155724 
L 270.699743 -191.486122 
L 269.924097 -191.819381 
L 269.14845 -192.155521 
L 268.372804 -192.494561 
L 267.597158 -192.836522 
L 266.821511 -193.181424 
L 266.045865 -193.529288 
L 265.270218 -193.880133 
L 264.494572 -194.23398 
L 263.718926 -194.590849 
L 262.943279 -194.950761 
L 262.167633 -195.313736 
L 261.391987 -195.679794 
L 260.61634 -196.048956 
L 259.840694 -196.421243 
L 259.065047 -196.796675 
L 258.289401 -197.175273 
L 257.513755 -197.557056 
L 256.738108 -197.942046 
L 255.962462 -198.330264 
L 255.186816 -198.721729 
L 254.411169 -199.116463 
L 253.635523 -199.514485 
L 252.859876 -199.915817 
L 252.08423 -200.320479 
L 251.308584 -200.728491 
L 250.532937 -201.139875 
L 249.757291 -201.55465 
L 248.981645 -201.972837 
L 248.205998 -202.394457 
L 247.430352 -202.81953 
L 246.654705 -203.248076 
L 245.879059 -203.680116 
L 245.103413 -204.11567 
L 244.327766 -204.554758 
L 243.55212 -204.997401 
L 242.776474 -205.443619 
L 242.000827 -205.893431 
L 241.225181 -206.346858 
L 240.449535 -206.803919 
L 239.673888 -207.264636 
L 238.898242 -207.729027 
L 238.122595 -208.197112 
L 237.346949 -208.66891 
L 236.571303 -209.144442 
L 235.795656 -209.623727 
L 235.02001 -210.106784 
L 234.244364 -210.593631 
L 233.468717 -211.08429 
L 232.693071 -211.578777 
L 231.917424 -212.077112 
L 231.141778 -212.579315 
L 230.366132 -213.085402 
L 229.590485 -213.595393 
L 228.814839 -214.109305 
L 228.039193 -214.627158 
L 227.263546 -215.148967 
L 226.4879 -215.674752 
L 225.712253 -216.20453 
L 224.936607 -216.738318 
L 224.160961 -217.276132 
L 223.385314 -217.81799 
L 222.609668 -218.363908 
L 221.834022 -218.913903 
L 221.058375 -219.46799 
L 220.282729 -220.026185 
L 219.507082 -220.588504 
L 218.731436 -221.154961 
L 217.95579 -221.725572 
L 217.180143 -222.300351 
L 216.404497 -222.879313 
L 215.628851 -223.46247 
L 214.853204 -224.049836 
L 214.077558 -224.641425 
L 213.301911 -225.237249 
L 212.526265 -225.837319 
L 211.750619 -226.441648 
L 210.974972 -227.050247 
L 210.199326 -227.663126 
L 209.42368 -228.280295 
L 208.648033 -228.901764 
L 207.872387 -229.527542 
L 207.096741 -230.157638 
L 206.321094 -230.792057 
L 205.545448 -231.430809 
L 204.769801 -232.073898 
L 203.994155 -232.72133 
L 203.218509 -233.37311 
L 202.442862 -234.029241 
L 201.667216 -234.689726 
L 200.89157 -235.354567 
L 200.115923 -236.023764 
L 199.340277 -236.697317 
L 198.56463 -237.375224 
L 197.788984 -238.057483 
L 197.013338 -238.744089 
L 196.237691 -239.435036 
L 195.462045 -240.130317 
L 194.686399 -240.829924 
L 193.910752 -241.533846 
L 193.135106 -242.24207 
L 192.359459 -242.954583 
L 191.583813 -243.671368 
L 190.808167 -244.392405 
L 190.03252 -245.117675 
L 189.256874 -245.847153 
L 188.481228 -246.580813 
L 187.705581 -247.318625 
L 186.929935 -248.060558 
L 186.154288 -248.806574 
L 185.378642 -249.556635 
L 184.602996 -250.310696 
L 183.827349 -251.06871 
L 183.051703 -251.830625 
L 182.276057 -252.596383 
L 181.50041 -253.365922 
L 180.724764 -254.139174 
L 179.949117 -254.916064 
L 179.173471 -255.696512 
L 178.397825 -256.480429 
L 177.622178 -257.267721 
L 176.846532 -258.058283 
L 176.070886 -258.852003 
L 175.295239 -259.648759 
L 174.519593 -260.448417 
L 173.743947 -261.250834 
L 172.9683 -262.055855 
L 172.192654 -262.86331 
L 171.417007 -263.673017 
L 170.641361 -264.484777 
L 169.865715 -265.298375 
L 169.090068 -266.11358 
L 168.314422 -266.930138 
L 167.538776 -267.747778 
L 166.763129 -268.566205 
L 165.987483 -269.385097 
L 165.211836 -270.20411 
L 164.43619 -271.022869 
L 163.660544 -271.840966 
L 162.884897 -272.657963 
L 162.109251 -273.473382 
L 161.333605 -274.286709 
L 160.557958 -275.097383 
L 159.782312 -275.904799 
L 159.006665 -276.7083 
L 158.231019 -277.507174 
L 157.455373 -278.300649 
L 156.679726 -279.087888 
L 155.90408 -279.867983 
L 155.128434 -280.639947 
L 154.352787 -281.402711 
L 153.577141 -282.155112 
L 152.801494 -282.895889 
L 152.025848 -283.62367 
L 151.250202 -284.336962 
L 150.474555 -285.034142 
L 149.698909 -285.713445 
L 148.923263 -286.372946 
L 148.147616 -287.010548 
L 147.37197 -287.623965 
L 146.596323 -288.210701 
L 145.820677 -288.768029 
L 145.045031 -289.292969 
L 144.269384 -289.782259 
L 143.493738 -290.232326 
L 142.718092 -290.63925 
L 141.942445 -290.998728 
L 141.166799 -291.306028 
L 140.391153 -291.555938 
L 139.615506 -291.742712 
L 138.83986 -291.860003 
L 138.064213 -291.900785 
L 137.288567 -291.85727 
L 136.512921 -291.791694 
L 135.737274 -291.888195 
L 134.961628 -291.887697 
L 134.185982 -291.77822 
L 133.410335 -291.839497 
L 132.634689 -291.900785 
L 131.859042 -291.833359 
L 131.083396 -291.729364 
L 130.30775 -291.880584 
L 129.532103 -291.879317 
L 128.756457 -291.694997 
L 127.980811 -291.79593 
L 127.205164 -291.900785 
L 126.429518 -291.777285 
L 125.653871 -291.361519 
L 124.878225 -290.570508 
L 124.102579 -289.295608 
L 123.326932 -287.393119 
L 122.551286 -284.670557 
L 121.77564 -280.866095 
L 120.999993 -275.616843 
L 120.224347 -268.408278 
L 119.4487 -258.490591 
L 118.673054 -244.734317 
L 117.897408 -225.368638 
L 117.121761 -197.478686 
z
" style="stroke: #1f77b4; stroke-opacity: 0.3"/>
    </defs>
    <g clip-path="url(#pe866c86f98)">
     <use xlink:href="#mef38de0a61" x="0" y="540.100875" style="fill: #1f77b4; fill-opacity: 0.3; stroke: #1f77b4; stroke-opacity: 0.3"/>
    </g>
   </g>
   <g id="matplotlib.axis_1">
    <g id="xtick_1">
     <g id="line2d_1">
      <defs>
       <path id="med455a96df" d="M 0 0 
L 0 3.5 
" style="stroke: #000000; stroke-width: 0.8"/>
      </defs>
      <g>
       <use xlink:href="#med455a96df" x="116.346115" y="416.476875" style="stroke: #000000; stroke-width: 0.8"/>
      </g>
     </g>
     <g id="text_1">
      <!-- 0 -->
      <g transform="translate(109.983615 438.67375)scale(0.2 -0.2)">
       <defs>
        <path id="DejaVuSans-30" d="M 2034 4250 
Q 1547 4250 1301 3770 
Q 1056 3291 1056 2328 
Q 1056 1369 1301 889 
Q 1547 409 2034 409 
Q 2525 409 2770 889 
Q 3016 1369 3016 2328 
Q 3016 3291 2770 3770 
Q 2525 4250 2034 4250 
z
M 2034 4750 
Q 2819 4750 3233 4129 
Q 3647 3509 3647 2328 
Q 3647 1150 3233 529 
Q 2819 -91 2034 -91 
Q 1250 -91 836 529 
Q 422 1150 422 2328 
Q 422 3509 836 4129 
Q 1250 4750 2034 4750 
z
" transform="scale(0.015625)"/>
       </defs>
       <use xlink:href="#DejaVuSans-30"/>
      </g>
     </g>
    </g>
    <g id="xtick_2">
     <g id="line2d_2">
      <g>
       <use xlink:href="#med455a96df" x="193.910752" y="416.476875" style="stroke: #000000; stroke-width: 0.8"/>
      </g>
     </g>
     <g id="text_2">
      <!-- 100 -->
      <g transform="translate(174.823252 438.67375)scale(0.2 -0.2)">
       <defs>
        <path id="DejaVuSans-31" d="M 794 531 
L 1825 531 
L 1825 4091 
L 703 3866 
L 703 4441 
L 1819 4666 
L 2450 4666 
L 2450 531 
L 3481 531 
L 3481 0 
L 794 0 
L 794 531 
z
" transform="scale(0.015625)"/>
       </defs>
       <use xlink:href="#DejaVuSans-31"/>
       <use xlink:href="#DejaVuSans-30" x="63.623047"/>
       <use xlink:href="#DejaVuSans-30" x="127.246094"/>
      </g>
     </g>
    </g>
    <g id="xtick_3">
     <g id="line2d_3">
      <g>
       <use xlink:href="#med455a96df" x="271.475389" y="416.476875" style="stroke: #000000; stroke-width: 0.8"/>
      </g>
     </g>
     <g id="text_3">
      <!-- 200 -->
      <g transform="translate(252.387889 438.67375)scale(0.2 -0.2)">
       <defs>
        <path id="DejaVuSans-32" d="M 1228 531 
L 3431 531 
L 3431 0 
L 469 0 
L 469 531 
Q 828 903 1448 1529 
Q 2069 2156 2228 2338 
Q 2531 2678 2651 2914 
Q 2772 3150 2772 3378 
Q 2772 3750 2511 3984 
Q 2250 4219 1831 4219 
Q 1534 4219 1204 4116 
Q 875 4013 500 3803 
L 500 4441 
Q 881 4594 1212 4672 
Q 1544 4750 1819 4750 
Q 2544 4750 2975 4387 
Q 3406 4025 3406 3419 
Q 3406 3131 3298 2873 
Q 3191 2616 2906 2266 
Q 2828 2175 2409 1742 
Q 1991 1309 1228 531 
z
" transform="scale(0.015625)"/>
       </defs>
       <use xlink:href="#DejaVuSans-32"/>
       <use xlink:href="#DejaVuSans-30" x="63.623047"/>
       <use xlink:href="#DejaVuSans-30" x="127.246094"/>
      </g>
     </g>
    </g>
    <g id="xtick_4">
     <g id="line2d_4">
      <g>
       <use xlink:href="#med455a96df" x="349.040027" y="416.476875" style="stroke: #000000; stroke-width: 0.8"/>
      </g>
     </g>
     <g id="text_4">
      <!-- 300 -->
      <g transform="translate(329.952527 438.67375)scale(0.2 -0.2)">
       <defs>
        <path id="DejaVuSans-33" d="M 2597 2516 
Q 3050 2419 3304 2112 
Q 3559 1806 3559 1356 
Q 3559 666 3084 287 
Q 2609 -91 1734 -91 
Q 1441 -91 1130 -33 
Q 819 25 488 141 
L 488 750 
Q 750 597 1062 519 
Q 1375 441 1716 441 
Q 2309 441 2620 675 
Q 2931 909 2931 1356 
Q 2931 1769 2642 2001 
Q 2353 2234 1838 2234 
L 1294 2234 
L 1294 2753 
L 1863 2753 
Q 2328 2753 2575 2939 
Q 2822 3125 2822 3475 
Q 2822 3834 2567 4026 
Q 2313 4219 1838 4219 
Q 1578 4219 1281 4162 
Q 984 4106 628 3988 
L 628 4550 
Q 988 4650 1302 4700 
Q 1616 4750 1894 4750 
Q 2613 4750 3031 4423 
Q 3450 4097 3450 3541 
Q 3450 3153 3228 2886 
Q 3006 2619 2597 2516 
z
" transform="scale(0.015625)"/>
       </defs>
       <use xlink:href="#DejaVuSans-33"/>
       <use xlink:href="#DejaVuSans-30" x="63.623047"/>
       <use xlink:href="#DejaVuSans-30" x="127.246094"/>
      </g>
     </g>
    </g>
    <g id="xtick_5">
     <g id="line2d_5">
      <g>
       <use xlink:href="#med455a96df" x="426.604664" y="416.476875" style="stroke: #000000; stroke-width: 0.8"/>
      </g>
     </g>
     <g id="text_5">
      <!-- 400 -->
      <g transform="translate(407.517164 438.67375)scale(0.2 -0.2)">
       <defs>
        <path id="DejaVuSans-34" d="M 2419 4116 
L 825 1625 
L 2419 1625 
L 2419 4116 
z
M 2253 4666 
L 3047 4666 
L 3047 1625 
L 3713 1625 
L 3713 1100 
L 3047 1100 
L 3047 0 
L 2419 0 
L 2419 1100 
L 313 1100 
L 313 1709 
L 2253 4666 
z
" transform="scale(0.015625)"/>
       </defs>
       <use xlink:href="#DejaVuSans-34"/>
       <use xlink:href="#DejaVuSans-30" x="63.623047"/>
       <use xlink:href="#DejaVuSans-30" x="127.246094"/>
      </g>
     </g>
    </g>
    <g id="xtick_6">
     <g id="line2d_6">
      <g>
       <use xlink:href="#med455a96df" x="504.169301" y="416.476875" style="stroke: #000000; stroke-width: 0.8"/>
      </g>
     </g>
     <g id="text_6">
      <!-- 500 -->
      <g transform="translate(485.081801 438.67375)scale(0.2 -0.2)">
       <defs>
        <path id="DejaVuSans-35" d="M 691 4666 
L 3169 4666 
L 3169 4134 
L 1269 4134 
L 1269 2991 
Q 1406 3038 1543 3061 
Q 1681 3084 1819 3084 
Q 2600 3084 3056 2656 
Q 3513 2228 3513 1497 
Q 3513 744 3044 326 
Q 2575 -91 1722 -91 
Q 1428 -91 1123 -41 
Q 819 9 494 109 
L 494 744 
Q 775 591 1075 516 
Q 1375 441 1709 441 
Q 2250 441 2565 725 
Q 2881 1009 2881 1497 
Q 2881 1984 2565 2268 
Q 2250 2553 1709 2553 
Q 1456 2553 1204 2497 
Q 953 2441 691 2322 
L 691 4666 
z
" transform="scale(0.015625)"/>
       </defs>
       <use xlink:href="#DejaVuSans-35"/>
       <use xlink:href="#DejaVuSans-30" x="63.623047"/>
       <use xlink:href="#DejaVuSans-30" x="127.246094"/>
      </g>
     </g>
    </g>
    <g id="xtick_7">
     <g id="line2d_7">
      <g>
       <use xlink:href="#med455a96df" x="581.733938" y="416.476875" style="stroke: #000000; stroke-width: 0.8"/>
      </g>
     </g>
     <g id="text_7">
      <!-- 600 -->
      <g transform="translate(562.646438 438.67375)scale(0.2 -0.2)">
       <defs>
        <path id="DejaVuSans-36" d="M 2113 2584 
Q 1688 2584 1439 2293 
Q 1191 2003 1191 1497 
Q 1191 994 1439 701 
Q 1688 409 2113 409 
Q 2538 409 2786 701 
Q 3034 994 3034 1497 
Q 3034 2003 2786 2293 
Q 2538 2584 2113 2584 
z
M 3366 4563 
L 3366 3988 
Q 3128 4100 2886 4159 
Q 2644 4219 2406 4219 
Q 1781 4219 1451 3797 
Q 1122 3375 1075 2522 
Q 1259 2794 1537 2939 
Q 1816 3084 2150 3084 
Q 2853 3084 3261 2657 
Q 3669 2231 3669 1497 
Q 3669 778 3244 343 
Q 2819 -91 2113 -91 
Q 1303 -91 875 529 
Q 447 1150 447 2328 
Q 447 3434 972 4092 
Q 1497 4750 2381 4750 
Q 2619 4750 2861 4703 
Q 3103 4656 3366 4563 
z
" transform="scale(0.015625)"/>
       </defs>
       <use xlink:href="#DejaVuSans-36"/>
       <use xlink:href="#DejaVuSans-30" x="63.623047"/>
       <use xlink:href="#DejaVuSans-30" x="127.246094"/>
      </g>
     </g>
    </g>
    <g id="text_8">
     <!-- Days since antigen exposure -->
     <g transform="translate(226.337813 462.03)scale(0.2 -0.2)">
      <defs>
       <path id="DejaVuSans-44" d="M 1259 4147 
L 1259 519 
L 2022 519 
Q 2988 519 3436 956 
Q 3884 1394 3884 2338 
Q 3884 3275 3436 3711 
Q 2988 4147 2022 4147 
L 1259 4147 
z
M 628 4666 
L 1925 4666 
Q 3281 4666 3915 4102 
Q 4550 3538 4550 2338 
Q 4550 1131 3912 565 
Q 3275 0 1925 0 
L 628 0 
L 628 4666 
z
" transform="scale(0.015625)"/>
       <path id="DejaVuSans-61" d="M 2194 1759 
Q 1497 1759 1228 1600 
Q 959 1441 959 1056 
Q 959 750 1161 570 
Q 1363 391 1709 391 
Q 2188 391 2477 730 
Q 2766 1069 2766 1631 
L 2766 1759 
L 2194 1759 
z
M 3341 1997 
L 3341 0 
L 2766 0 
L 2766 531 
Q 2569 213 2275 61 
Q 1981 -91 1556 -91 
Q 1019 -91 701 211 
Q 384 513 384 1019 
Q 384 1609 779 1909 
Q 1175 2209 1959 2209 
L 2766 2209 
L 2766 2266 
Q 2766 2663 2505 2880 
Q 2244 3097 1772 3097 
Q 1472 3097 1187 3025 
Q 903 2953 641 2809 
L 641 3341 
Q 956 3463 1253 3523 
Q 1550 3584 1831 3584 
Q 2591 3584 2966 3190 
Q 3341 2797 3341 1997 
z
" transform="scale(0.015625)"/>
       <path id="DejaVuSans-79" d="M 2059 -325 
Q 1816 -950 1584 -1140 
Q 1353 -1331 966 -1331 
L 506 -1331 
L 506 -850 
L 844 -850 
Q 1081 -850 1212 -737 
Q 1344 -625 1503 -206 
L 1606 56 
L 191 3500 
L 800 3500 
L 1894 763 
L 2988 3500 
L 3597 3500 
L 2059 -325 
z
" transform="scale(0.015625)"/>
       <path id="DejaVuSans-73" d="M 2834 3397 
L 2834 2853 
Q 2591 2978 2328 3040 
Q 2066 3103 1784 3103 
Q 1356 3103 1142 2972 
Q 928 2841 928 2578 
Q 928 2378 1081 2264 
Q 1234 2150 1697 2047 
L 1894 2003 
Q 2506 1872 2764 1633 
Q 3022 1394 3022 966 
Q 3022 478 2636 193 
Q 2250 -91 1575 -91 
Q 1294 -91 989 -36 
Q 684 19 347 128 
L 347 722 
Q 666 556 975 473 
Q 1284 391 1588 391 
Q 1994 391 2212 530 
Q 2431 669 2431 922 
Q 2431 1156 2273 1281 
Q 2116 1406 1581 1522 
L 1381 1569 
Q 847 1681 609 1914 
Q 372 2147 372 2553 
Q 372 3047 722 3315 
Q 1072 3584 1716 3584 
Q 2034 3584 2315 3537 
Q 2597 3491 2834 3397 
z
" transform="scale(0.015625)"/>
       <path id="DejaVuSans-20" transform="scale(0.015625)"/>
       <path id="DejaVuSans-69" d="M 603 3500 
L 1178 3500 
L 1178 0 
L 603 0 
L 603 3500 
z
M 603 4863 
L 1178 4863 
L 1178 4134 
L 603 4134 
L 603 4863 
z
" transform="scale(0.015625)"/>
       <path id="DejaVuSans-6e" d="M 3513 2113 
L 3513 0 
L 2938 0 
L 2938 2094 
Q 2938 2591 2744 2837 
Q 2550 3084 2163 3084 
Q 1697 3084 1428 2787 
Q 1159 2491 1159 1978 
L 1159 0 
L 581 0 
L 581 3500 
L 1159 3500 
L 1159 2956 
Q 1366 3272 1645 3428 
Q 1925 3584 2291 3584 
Q 2894 3584 3203 3211 
Q 3513 2838 3513 2113 
z
" transform="scale(0.015625)"/>
       <path id="DejaVuSans-63" d="M 3122 3366 
L 3122 2828 
Q 2878 2963 2633 3030 
Q 2388 3097 2138 3097 
Q 1578 3097 1268 2742 
Q 959 2388 959 1747 
Q 959 1106 1268 751 
Q 1578 397 2138 397 
Q 2388 397 2633 464 
Q 2878 531 3122 666 
L 3122 134 
Q 2881 22 2623 -34 
Q 2366 -91 2075 -91 
Q 1284 -91 818 406 
Q 353 903 353 1747 
Q 353 2603 823 3093 
Q 1294 3584 2113 3584 
Q 2378 3584 2631 3529 
Q 2884 3475 3122 3366 
z
" transform="scale(0.015625)"/>
       <path id="DejaVuSans-65" d="M 3597 1894 
L 3597 1613 
L 953 1613 
Q 991 1019 1311 708 
Q 1631 397 2203 397 
Q 2534 397 2845 478 
Q 3156 559 3463 722 
L 3463 178 
Q 3153 47 2828 -22 
Q 2503 -91 2169 -91 
Q 1331 -91 842 396 
Q 353 884 353 1716 
Q 353 2575 817 3079 
Q 1281 3584 2069 3584 
Q 2775 3584 3186 3129 
Q 3597 2675 3597 1894 
z
M 3022 2063 
Q 3016 2534 2758 2815 
Q 2500 3097 2075 3097 
Q 1594 3097 1305 2825 
Q 1016 2553 972 2059 
L 3022 2063 
z
" transform="scale(0.015625)"/>
       <path id="DejaVuSans-74" d="M 1172 4494 
L 1172 3500 
L 2356 3500 
L 2356 3053 
L 1172 3053 
L 1172 1153 
Q 1172 725 1289 603 
Q 1406 481 1766 481 
L 2356 481 
L 2356 0 
L 1766 0 
Q 1100 0 847 248 
Q 594 497 594 1153 
L 594 3053 
L 172 3053 
L 172 3500 
L 594 3500 
L 594 4494 
L 1172 4494 
z
" transform="scale(0.015625)"/>
       <path id="DejaVuSans-67" d="M 2906 1791 
Q 2906 2416 2648 2759 
Q 2391 3103 1925 3103 
Q 1463 3103 1205 2759 
Q 947 2416 947 1791 
Q 947 1169 1205 825 
Q 1463 481 1925 481 
Q 2391 481 2648 825 
Q 2906 1169 2906 1791 
z
M 3481 434 
Q 3481 -459 3084 -895 
Q 2688 -1331 1869 -1331 
Q 1566 -1331 1297 -1286 
Q 1028 -1241 775 -1147 
L 775 -588 
Q 1028 -725 1275 -790 
Q 1522 -856 1778 -856 
Q 2344 -856 2625 -561 
Q 2906 -266 2906 331 
L 2906 616 
Q 2728 306 2450 153 
Q 2172 0 1784 0 
Q 1141 0 747 490 
Q 353 981 353 1791 
Q 353 2603 747 3093 
Q 1141 3584 1784 3584 
Q 2172 3584 2450 3431 
Q 2728 3278 2906 2969 
L 2906 3500 
L 3481 3500 
L 3481 434 
z
" transform="scale(0.015625)"/>
       <path id="DejaVuSans-78" d="M 3513 3500 
L 2247 1797 
L 3578 0 
L 2900 0 
L 1881 1375 
L 863 0 
L 184 0 
L 1544 1831 
L 300 3500 
L 978 3500 
L 1906 2253 
L 2834 3500 
L 3513 3500 
z
" transform="scale(0.015625)"/>
       <path id="DejaVuSans-70" d="M 1159 525 
L 1159 -1331 
L 581 -1331 
L 581 3500 
L 1159 3500 
L 1159 2969 
Q 1341 3281 1617 3432 
Q 1894 3584 2278 3584 
Q 2916 3584 3314 3078 
Q 3713 2572 3713 1747 
Q 3713 922 3314 415 
Q 2916 -91 2278 -91 
Q 1894 -91 1617 61 
Q 1341 213 1159 525 
z
M 3116 1747 
Q 3116 2381 2855 2742 
Q 2594 3103 2138 3103 
Q 1681 3103 1420 2742 
Q 1159 2381 1159 1747 
Q 1159 1113 1420 752 
Q 1681 391 2138 391 
Q 2594 391 2855 752 
Q 3116 1113 3116 1747 
z
" transform="scale(0.015625)"/>
       <path id="DejaVuSans-6f" d="M 1959 3097 
Q 1497 3097 1228 2736 
Q 959 2375 959 1747 
Q 959 1119 1226 758 
Q 1494 397 1959 397 
Q 2419 397 2687 759 
Q 2956 1122 2956 1747 
Q 2956 2369 2687 2733 
Q 2419 3097 1959 3097 
z
M 1959 3584 
Q 2709 3584 3137 3096 
Q 3566 2609 3566 1747 
Q 3566 888 3137 398 
Q 2709 -91 1959 -91 
Q 1206 -91 779 398 
Q 353 888 353 1747 
Q 353 2609 779 3096 
Q 1206 3584 1959 3584 
z
" transform="scale(0.015625)"/>
       <path id="DejaVuSans-75" d="M 544 1381 
L 544 3500 
L 1119 3500 
L 1119 1403 
Q 1119 906 1312 657 
Q 1506 409 1894 409 
Q 2359 409 2629 706 
Q 2900 1003 2900 1516 
L 2900 3500 
L 3475 3500 
L 3475 0 
L 2900 0 
L 2900 538 
Q 2691 219 2414 64 
Q 2138 -91 1772 -91 
Q 1169 -91 856 284 
Q 544 659 544 1381 
z
M 1991 3584 
L 1991 3584 
z
" transform="scale(0.015625)"/>
       <path id="DejaVuSans-72" d="M 2631 2963 
Q 2534 3019 2420 3045 
Q 2306 3072 2169 3072 
Q 1681 3072 1420 2755 
Q 1159 2438 1159 1844 
L 1159 0 
L 581 0 
L 581 3500 
L 1159 3500 
L 1159 2956 
Q 1341 3275 1631 3429 
Q 1922 3584 2338 3584 
Q 2397 3584 2469 3576 
Q 2541 3569 2628 3553 
L 2631 2963 
z
" transform="scale(0.015625)"/>
      </defs>
      <use xlink:href="#DejaVuSans-44"/>
      <use xlink:href="#DejaVuSans-61" x="77.001953"/>
      <use xlink:href="#DejaVuSans-79" x="138.28125"/>
      <use xlink:href="#DejaVuSans-73" x="197.460938"/>
      <use xlink:href="#DejaVuSans-20" x="249.560547"/>
      <use xlink:href="#DejaVuSans-73" x="281.347656"/>
      <use xlink:href="#DejaVuSans-69" x="333.447266"/>
      <use xlink:href="#DejaVuSans-6e" x="361.230469"/>
      <use xlink:href="#DejaVuSans-63" x="424.609375"/>
      <use xlink:href="#DejaVuSans-65" x="479.589844"/>
      <use xlink:href="#DejaVuSans-20" x="541.113281"/>
      <use xlink:href="#DejaVuSans-61" x="572.900391"/>
      <use xlink:href="#DejaVuSans-6e" x="634.179688"/>
      <use xlink:href="#DejaVuSans-74" x="697.558594"/>
      <use xlink:href="#DejaVuSans-69" x="736.767578"/>
      <use xlink:href="#DejaVuSans-67" x="764.550781"/>
      <use xlink:href="#DejaVuSans-65" x="828.027344"/>
      <use xlink:href="#DejaVuSans-6e" x="889.550781"/>
      <use xlink:href="#DejaVuSans-20" x="952.929688"/>
      <use xlink:href="#DejaVuSans-65" x="984.716797"/>
      <use xlink:href="#DejaVuSans-78" x="1044.490234"/>
      <use xlink:href="#DejaVuSans-70" x="1103.669922"/>
      <use xlink:href="#DejaVuSans-6f" x="1167.146484"/>
      <use xlink:href="#DejaVuSans-73" x="1228.328125"/>
      <use xlink:href="#DejaVuSans-75" x="1280.427734"/>
      <use xlink:href="#DejaVuSans-72" x="1343.806641"/>
      <use xlink:href="#DejaVuSans-65" x="1382.669922"/>
     </g>
    </g>
   </g>
   <g id="matplotlib.axis_2">
    <g id="ytick_1">
     <g id="line2d_8">
      <defs>
       <path id="m5ddaaefad7" d="M 0 0 
L -3.5 0 
" style="stroke: #000000; stroke-width: 0.8"/>
      </defs>
      <g>
       <use xlink:href="#m5ddaaefad7" x="91.758125" y="384.131167" style="stroke: #000000; stroke-width: 0.8"/>
      </g>
     </g>
     <g id="text_9">
      <!-- 0.0 -->
      <g transform="translate(52.951875 391.729605)scale(0.2 -0.2)">
       <defs>
        <path id="DejaVuSans-2e" d="M 684 794 
L 1344 794 
L 1344 0 
L 684 0 
L 684 794 
z
" transform="scale(0.015625)"/>
       </defs>
       <use xlink:href="#DejaVuSans-30"/>
       <use xlink:href="#DejaVuSans-2e" x="63.623047"/>
       <use xlink:href="#DejaVuSans-30" x="95.410156"/>
      </g>
     </g>
    </g>
    <g id="ytick_2">
     <g id="line2d_9">
      <g>
       <use xlink:href="#m5ddaaefad7" x="91.758125" y="319.439752" style="stroke: #000000; stroke-width: 0.8"/>
      </g>
     </g>
     <g id="text_10">
      <!-- 0.2 -->
      <g transform="translate(52.951875 327.038189)scale(0.2 -0.2)">
       <use xlink:href="#DejaVuSans-30"/>
       <use xlink:href="#DejaVuSans-2e" x="63.623047"/>
       <use xlink:href="#DejaVuSans-32" x="95.410156"/>
      </g>
     </g>
    </g>
    <g id="ytick_3">
     <g id="line2d_10">
      <g>
       <use xlink:href="#m5ddaaefad7" x="91.758125" y="254.748336" style="stroke: #000000; stroke-width: 0.8"/>
      </g>
     </g>
     <g id="text_11">
      <!-- 0.4 -->
      <g transform="translate(52.951875 262.346774)scale(0.2 -0.2)">
       <use xlink:href="#DejaVuSans-30"/>
       <use xlink:href="#DejaVuSans-2e" x="63.623047"/>
       <use xlink:href="#DejaVuSans-34" x="95.410156"/>
      </g>
     </g>
    </g>
    <g id="ytick_4">
     <g id="line2d_11">
      <g>
       <use xlink:href="#m5ddaaefad7" x="91.758125" y="190.056921" style="stroke: #000000; stroke-width: 0.8"/>
      </g>
     </g>
     <g id="text_12">
      <!-- 0.6 -->
      <g transform="translate(52.951875 197.655358)scale(0.2 -0.2)">
       <use xlink:href="#DejaVuSans-30"/>
       <use xlink:href="#DejaVuSans-2e" x="63.623047"/>
       <use xlink:href="#DejaVuSans-36" x="95.410156"/>
      </g>
     </g>
    </g>
    <g id="ytick_5">
     <g id="line2d_12">
      <g>
       <use xlink:href="#m5ddaaefad7" x="91.758125" y="125.365505" style="stroke: #000000; stroke-width: 0.8"/>
      </g>
     </g>
     <g id="text_13">
      <!-- 0.8 -->
      <g transform="translate(52.951875 132.963943)scale(0.2 -0.2)">
       <defs>
        <path id="DejaVuSans-38" d="M 2034 2216 
Q 1584 2216 1326 1975 
Q 1069 1734 1069 1313 
Q 1069 891 1326 650 
Q 1584 409 2034 409 
Q 2484 409 2743 651 
Q 3003 894 3003 1313 
Q 3003 1734 2745 1975 
Q 2488 2216 2034 2216 
z
M 1403 2484 
Q 997 2584 770 2862 
Q 544 3141 544 3541 
Q 544 4100 942 4425 
Q 1341 4750 2034 4750 
Q 2731 4750 3128 4425 
Q 3525 4100 3525 3541 
Q 3525 3141 3298 2862 
Q 3072 2584 2669 2484 
Q 3125 2378 3379 2068 
Q 3634 1759 3634 1313 
Q 3634 634 3220 271 
Q 2806 -91 2034 -91 
Q 1263 -91 848 271 
Q 434 634 434 1313 
Q 434 1759 690 2068 
Q 947 2378 1403 2484 
z
M 1172 3481 
Q 1172 3119 1398 2916 
Q 1625 2713 2034 2713 
Q 2441 2713 2670 2916 
Q 2900 3119 2900 3481 
Q 2900 3844 2670 4047 
Q 2441 4250 2034 4250 
Q 1625 4250 1398 4047 
Q 1172 3844 1172 3481 
z
" transform="scale(0.015625)"/>
       </defs>
       <use xlink:href="#DejaVuSans-30"/>
       <use xlink:href="#DejaVuSans-2e" x="63.623047"/>
       <use xlink:href="#DejaVuSans-38" x="95.410156"/>
      </g>
     </g>
    </g>
    <g id="ytick_6">
     <g id="line2d_13">
      <g>
       <use xlink:href="#m5ddaaefad7" x="91.758125" y="60.67409" style="stroke: #000000; stroke-width: 0.8"/>
      </g>
     </g>
     <g id="text_14">
      <!-- 1.0 -->
      <g transform="translate(52.951875 68.272527)scale(0.2 -0.2)">
       <use xlink:href="#DejaVuSans-31"/>
       <use xlink:href="#DejaVuSans-2e" x="63.623047"/>
       <use xlink:href="#DejaVuSans-30" x="95.410156"/>
      </g>
     </g>
    </g>
    <g id="text_15">
     <!-- Virus neutralization -->
     <g transform="translate(22.396875 319.741562)rotate(-90)scale(0.2 -0.2)">
      <defs>
       <path id="DejaVuSans-56" d="M 1831 0 
L 50 4666 
L 709 4666 
L 2188 738 
L 3669 4666 
L 4325 4666 
L 2547 0 
L 1831 0 
z
" transform="scale(0.015625)"/>
       <path id="DejaVuSans-6c" d="M 603 4863 
L 1178 4863 
L 1178 0 
L 603 0 
L 603 4863 
z
" transform="scale(0.015625)"/>
       <path id="DejaVuSans-7a" d="M 353 3500 
L 3084 3500 
L 3084 2975 
L 922 459 
L 3084 459 
L 3084 0 
L 275 0 
L 275 525 
L 2438 3041 
L 353 3041 
L 353 3500 
z
" transform="scale(0.015625)"/>
      </defs>
      <use xlink:href="#DejaVuSans-56"/>
      <use xlink:href="#DejaVuSans-69" x="66.158203"/>
      <use xlink:href="#DejaVuSans-72" x="93.941406"/>
      <use xlink:href="#DejaVuSans-75" x="135.054688"/>
      <use xlink:href="#DejaVuSans-73" x="198.433594"/>
      <use xlink:href="#DejaVuSans-20" x="250.533203"/>
      <use xlink:href="#DejaVuSans-6e" x="282.320312"/>
      <use xlink:href="#DejaVuSans-65" x="345.699219"/>
      <use xlink:href="#DejaVuSans-75" x="407.222656"/>
      <use xlink:href="#DejaVuSans-74" x="470.601562"/>
      <use xlink:href="#DejaVuSans-72" x="509.810547"/>
      <use xlink:href="#DejaVuSans-61" x="550.923828"/>
      <use xlink:href="#DejaVuSans-6c" x="612.203125"/>
      <use xlink:href="#DejaVuSans-69" x="639.986328"/>
      <use xlink:href="#DejaVuSans-7a" x="667.769531"/>
      <use xlink:href="#DejaVuSans-61" x="720.259766"/>
      <use xlink:href="#DejaVuSans-74" x="781.539062"/>
      <use xlink:href="#DejaVuSans-69" x="820.748047"/>
      <use xlink:href="#DejaVuSans-6f" x="848.53125"/>
      <use xlink:href="#DejaVuSans-6e" x="909.712891"/>
     </g>
     <!--  probability -->
     <g transform="translate(44.7925 278.966562)rotate(-90)scale(0.2 -0.2)">
      <defs>
       <path id="DejaVuSans-62" d="M 3116 1747 
Q 3116 2381 2855 2742 
Q 2594 3103 2138 3103 
Q 1681 3103 1420 2742 
Q 1159 2381 1159 1747 
Q 1159 1113 1420 752 
Q 1681 391 2138 391 
Q 2594 391 2855 752 
Q 3116 1113 3116 1747 
z
M 1159 2969 
Q 1341 3281 1617 3432 
Q 1894 3584 2278 3584 
Q 2916 3584 3314 3078 
Q 3713 2572 3713 1747 
Q 3713 922 3314 415 
Q 2916 -91 2278 -91 
Q 1894 -91 1617 61 
Q 1341 213 1159 525 
L 1159 0 
L 581 0 
L 581 4863 
L 1159 4863 
L 1159 2969 
z
" transform="scale(0.015625)"/>
      </defs>
      <use xlink:href="#DejaVuSans-20"/>
      <use xlink:href="#DejaVuSans-70" x="31.787109"/>
      <use xlink:href="#DejaVuSans-72" x="95.263672"/>
      <use xlink:href="#DejaVuSans-6f" x="134.126953"/>
      <use xlink:href="#DejaVuSans-62" x="195.308594"/>
      <use xlink:href="#DejaVuSans-61" x="258.785156"/>
      <use xlink:href="#DejaVuSans-62" x="320.064453"/>
      <use xlink:href="#DejaVuSans-69" x="383.541016"/>
      <use xlink:href="#DejaVuSans-6c" x="411.324219"/>
      <use xlink:href="#DejaVuSans-69" x="439.107422"/>
      <use xlink:href="#DejaVuSans-74" x="466.890625"/>
      <use xlink:href="#DejaVuSans-79" x="506.099609"/>
     </g>
    </g>
   </g>
   <g id="patch_3">
    <path d="M 91.758125 416.476875 
L 91.758125 28.396875 
" style="fill: none; stroke: #000000; stroke-width: 0.8; stroke-linejoin: miter; stroke-linecap: square"/>
   </g>
   <g id="patch_4">
    <path d="M 649.758125 416.476875 
L 649.758125 28.396875 
" style="fill: none; stroke: #000000; stroke-width: 0.8; stroke-linejoin: miter; stroke-linecap: square"/>
   </g>
   <g id="patch_5">
    <path d="M 91.758125 416.476875 
L 649.758125 416.476875 
" style="fill: none; stroke: #000000; stroke-width: 0.8; stroke-linejoin: miter; stroke-linecap: square"/>
   </g>
   <g id="patch_6">
    <path d="M 91.758125 28.396875 
L 649.758125 28.396875 
" style="fill: none; stroke: #000000; stroke-width: 0.8; stroke-linejoin: miter; stroke-linecap: square"/>
   </g>
   <g id="text_16">
    <!-- BA.1 antigen -->
    <g transform="translate(306.509687 22.396875)scale(0.2 -0.2)">
     <defs>
      <path id="DejaVuSans-42" d="M 1259 2228 
L 1259 519 
L 2272 519 
Q 2781 519 3026 730 
Q 3272 941 3272 1375 
Q 3272 1813 3026 2020 
Q 2781 2228 2272 2228 
L 1259 2228 
z
M 1259 4147 
L 1259 2741 
L 2194 2741 
Q 2656 2741 2882 2914 
Q 3109 3088 3109 3444 
Q 3109 3797 2882 3972 
Q 2656 4147 2194 4147 
L 1259 4147 
z
M 628 4666 
L 2241 4666 
Q 2963 4666 3353 4366 
Q 3744 4066 3744 3513 
Q 3744 3084 3544 2831 
Q 3344 2578 2956 2516 
Q 3422 2416 3680 2098 
Q 3938 1781 3938 1306 
Q 3938 681 3513 340 
Q 3088 0 2303 0 
L 628 0 
L 628 4666 
z
" transform="scale(0.015625)"/>
      <path id="DejaVuSans-41" d="M 2188 4044 
L 1331 1722 
L 3047 1722 
L 2188 4044 
z
M 1831 4666 
L 2547 4666 
L 4325 0 
L 3669 0 
L 3244 1197 
L 1141 1197 
L 716 0 
L 50 0 
L 1831 4666 
z
" transform="scale(0.015625)"/>
     </defs>
     <use xlink:href="#DejaVuSans-42"/>
     <use xlink:href="#DejaVuSans-41" x="68.603516"/>
     <use xlink:href="#DejaVuSans-2e" x="135.261719"/>
     <use xlink:href="#DejaVuSans-31" x="167.048828"/>
     <use xlink:href="#DejaVuSans-20" x="230.671875"/>
     <use xlink:href="#DejaVuSans-61" x="262.458984"/>
     <use xlink:href="#DejaVuSans-6e" x="323.738281"/>
     <use xlink:href="#DejaVuSans-74" x="387.117188"/>
     <use xlink:href="#DejaVuSans-69" x="426.326172"/>
     <use xlink:href="#DejaVuSans-67" x="454.109375"/>
     <use xlink:href="#DejaVuSans-65" x="517.585938"/>
     <use xlink:href="#DejaVuSans-6e" x="579.109375"/>
    </g>
   </g>
   <g id="legend_1">
    <g id="patch_7">
     <path d="M 235.258125 532.900875 
L 520.69875 532.900875 
Q 524.69875 532.900875 524.69875 528.900875 
L 524.69875 501.544625 
Q 524.69875 497.544625 520.69875 497.544625 
L 235.258125 497.544625 
Q 231.258125 497.544625 231.258125 501.544625 
L 231.258125 528.900875 
Q 231.258125 532.900875 235.258125 532.900875 
z
" style="fill: #ffffff; opacity: 0.8; stroke: #cccccc; stroke-linejoin: miter"/>
    </g>
    <g id="patch_8">
     <path d="M 239.258125 520.7415 
L 279.258125 520.7415 
L 279.258125 506.7415 
L 239.258125 506.7415 
z
" style="fill: #ffa500; fill-opacity: 0.3; stroke: #ffa500; stroke-opacity: 0.3; stroke-linejoin: miter"/>
    </g>
    <g id="text_17">
     <!-- BA.1 -->
     <g transform="translate(295.258125 520.7415)scale(0.2 -0.2)">
      <use xlink:href="#DejaVuSans-42"/>
      <use xlink:href="#DejaVuSans-41" x="68.603516"/>
      <use xlink:href="#DejaVuSans-2e" x="135.261719"/>
      <use xlink:href="#DejaVuSans-31" x="167.048828"/>
     </g>
    </g>
    <g id="patch_9">
     <path d="M 381.3925 520.7415 
L 421.3925 520.7415 
L 421.3925 506.7415 
L 381.3925 506.7415 
z
" style="fill: #1f77b4; fill-opacity: 0.3; stroke: #1f77b4; stroke-opacity: 0.3; stroke-linejoin: miter"/>
    </g>
    <g id="text_18">
     <!-- XBB.1.5 -->
     <g transform="translate(437.3925 520.7415)scale(0.2 -0.2)">
      <defs>
       <path id="DejaVuSans-58" d="M 403 4666 
L 1081 4666 
L 2241 2931 
L 3406 4666 
L 4084 4666 
L 2584 2425 
L 4184 0 
L 3506 0 
L 2194 1984 
L 872 0 
L 191 0 
L 1856 2491 
L 403 4666 
z
" transform="scale(0.015625)"/>
      </defs>
      <use xlink:href="#DejaVuSans-58"/>
      <use xlink:href="#DejaVuSans-42" x="68.505859"/>
      <use xlink:href="#DejaVuSans-42" x="137.109375"/>
      <use xlink:href="#DejaVuSans-2e" x="205.712891"/>
      <use xlink:href="#DejaVuSans-31" x="237.5"/>
      <use xlink:href="#DejaVuSans-2e" x="301.123047"/>
      <use xlink:href="#DejaVuSans-35" x="332.910156"/>
     </g>
    </g>
   </g>
  </g>
 </g>
 <defs>
  <clipPath id="pe866c86f98">
   <rect x="91.758125" y="28.396875" width="558" height="388.08"/>
  </clipPath>
 </defs>
</svg>
