<?xml version="1.0" encoding="utf-8" standalone="no"?>
<!DOCTYPE svg PUBLIC "-//W3C//DTD SVG 1.1//EN"
  "http://www.w3.org/Graphics/SVG/1.1/DTD/svg11.dtd">
<svg xmlns:xlink="http://www.w3.org/1999/xlink" width="656.958125pt" height="540.100875pt" viewBox="0 0 656.958125 540.100875" xmlns="http://www.w3.org/2000/svg" version="1.1">
 <metadata>
  <rdf:RDF xmlns:dc="http://purl.org/dc/elements/1.1/" xmlns:cc="http://creativecommons.org/ns#" xmlns:rdf="http://www.w3.org/1999/02/22-rdf-syntax-ns#">
   <cc:Work>
    <dc:type rdf:resource="http://purl.org/dc/dcmitype/StillImage"/>
    <dc:date>2024-09-30T17:26:15.920664</dc:date>
    <dc:format>image/svg+xml</dc:format>
    <dc:creator>
     <cc:Agent>
      <dc:title>Matplotlib v3.5.2, https://matplotlib.org/</dc:title>
     </cc:Agent>
    </dc:creator>
   </cc:Work>
  </rdf:RDF>
 </metadata>
 <defs>
  <style type="text/css">*{stroke-linejoin: round; stroke-linecap: butt}</style>
 </defs>
 <g id="figure_1">
  <g id="patch_1">
   <path d="M 0 540.100875 
L 656.958125 540.100875 
L 656.958125 0 
L 0 0 
z
" style="fill: #ffffff"/>
  </g>
  <g id="axes_1">
   <g id="patch_2">
    <path d="M 91.758125 416.476875 
L 649.758125 416.476875 
L 649.758125 28.396875 
L 91.758125 28.396875 
z
" style="fill: #ffffff"/>
   </g>
   <g id="PolyCollection_1">
    <defs>
     <path id="m2419beeca0" d="M 117.121761 -396.381033 
L 117.121761 -301.201492 
L 117.897408 -368.830355 
L 118.673054 -405.184123 
L 119.4487 -426.629222 
L 120.224347 -440.150921 
L 120.999993 -449.120808 
L 121.77564 -455.315875 
L 122.551286 -459.737456 
L 123.326932 -462.98056 
L 124.102579 -465.414446 
L 124.878225 -467.276774 
L 125.653871 -468.725327 
L 126.429518 -469.867715 
L 127.205164 -470.779066 
L 127.980811 -471.512937 
L 128.756457 -472.108208 
L 129.532103 -472.593574 
L 130.30775 -472.990522 
L 131.083396 -473.315354 
L 131.859042 -473.511457 
L 132.634689 -473.226256 
L 133.410335 -472.904722 
L 134.185982 -472.546978 
L 134.961628 -472.152851 
L 135.737274 -471.721941 
L 136.512921 -471.253678 
L 137.288567 -470.747363 
L 138.064213 -470.202204 
L 138.83986 -469.617339 
L 139.615506 -468.991863 
L 140.391153 -468.324838 
L 141.166799 -467.615314 
L 141.942445 -466.862341 
L 142.718092 -466.064976 
L 143.493738 -465.222296 
L 144.269384 -464.333405 
L 145.045031 -463.397439 
L 145.820677 -462.413577 
L 146.596323 -461.381044 
L 147.37197 -460.299116 
L 148.147616 -459.167127 
L 148.923263 -457.984469 
L 149.698909 -456.750601 
L 150.474555 -455.465049 
L 151.250202 -454.127409 
L 152.025848 -452.737353 
L 152.801494 -451.294628 
L 153.577141 -449.79906 
L 154.352787 -448.250553 
L 155.128434 -446.649095 
L 155.90408 -444.994757 
L 156.679726 -443.28769 
L 157.455373 -441.528134 
L 158.231019 -439.716409 
L 159.006665 -437.852922 
L 159.782312 -435.938162 
L 160.557958 -433.972702 
L 161.333605 -431.957198 
L 162.109251 -429.892386 
L 162.884897 -427.779081 
L 163.660544 -425.618178 
L 164.43619 -423.410646 
L 165.211836 -421.157528 
L 165.987483 -418.859938 
L 166.763129 -416.51906 
L 167.538776 -414.136142 
L 168.314422 -411.712496 
L 169.090068 -409.249492 
L 169.865715 -406.748557 
L 170.641361 -404.211171 
L 171.417007 -401.638862 
L 172.192654 -399.033203 
L 172.9683 -396.395811 
L 173.743947 -393.728337 
L 174.519593 -391.032469 
L 175.295239 -388.309922 
L 176.070886 -385.562437 
L 176.846532 -382.791779 
L 177.622178 -379.999727 
L 178.397825 -377.188078 
L 179.173471 -374.358634 
L 179.949117 -371.513207 
L 180.724764 -368.653608 
L 181.50041 -365.781648 
L 182.276057 -362.899133 
L 183.051703 -360.007859 
L 183.827349 -357.109611 
L 184.602996 -354.206155 
L 185.378642 -351.299244 
L 186.154288 -348.390603 
L 186.929935 -345.481937 
L 187.705581 -342.574921 
L 188.481228 -339.671201 
L 189.256874 -336.77239 
L 190.03252 -333.880067 
L 190.808167 -330.995772 
L 191.583813 -328.121009 
L 192.359459 -325.257239 
L 193.135106 -322.405882 
L 193.910752 -319.568314 
L 194.686399 -316.745867 
L 195.462045 -313.939825 
L 196.237691 -311.151426 
L 197.013338 -308.381859 
L 197.788984 -305.632267 
L 198.56463 -302.903742 
L 199.340277 -300.197326 
L 200.115923 -297.514013 
L 200.89157 -294.854746 
L 201.667216 -292.220418 
L 202.442862 -289.611873 
L 203.218509 -287.029906 
L 203.994155 -284.475262 
L 204.769801 -281.948638 
L 205.545448 -279.450683 
L 206.321094 -276.981999 
L 207.096741 -274.543139 
L 207.872387 -272.134613 
L 208.648033 -269.756886 
L 209.42368 -267.410376 
L 210.199326 -265.095462 
L 210.974972 -262.812477 
L 211.750619 -260.561717 
L 212.526265 -258.343434 
L 213.301911 -256.157846 
L 214.077558 -254.00513 
L 214.853204 -251.885429 
L 215.628851 -249.79885 
L 216.404497 -247.745466 
L 217.180143 -245.725318 
L 217.95579 -243.738417 
L 218.731436 -241.784743 
L 219.507082 -239.864246 
L 220.282729 -237.976853 
L 221.058375 -236.12246 
L 221.834022 -234.30094 
L 222.609668 -232.512145 
L 223.385314 -230.755901 
L 224.160961 -229.032014 
L 224.936607 -227.34027 
L 225.712253 -225.680438 
L 226.4879 -224.052267 
L 227.263546 -222.45549 
L 228.039193 -220.889824 
L 228.814839 -219.354974 
L 229.590485 -217.850628 
L 230.366132 -216.376464 
L 231.141778 -214.932149 
L 231.917424 -213.517338 
L 232.693071 -212.131675 
L 233.468717 -210.7748 
L 234.244364 -209.44634 
L 235.02001 -208.145917 
L 235.795656 -206.873148 
L 236.571303 -205.627643 
L 237.346949 -204.409007 
L 238.122595 -203.216841 
L 238.898242 -202.050742 
L 239.673888 -200.910306 
L 240.449535 -199.795124 
L 241.225181 -198.704789 
L 242.000827 -197.638888 
L 242.776474 -196.59701 
L 243.55212 -195.578745 
L 244.327766 -194.583681 
L 245.103413 -193.611408 
L 245.879059 -192.661515 
L 246.654705 -191.733596 
L 247.430352 -190.827244 
L 248.205998 -189.942054 
L 248.981645 -189.077627 
L 249.757291 -188.233561 
L 250.532937 -187.409463 
L 251.308584 -186.60494 
L 252.08423 -185.819601 
L 252.859876 -185.053064 
L 253.635523 -184.304945 
L 254.411169 -183.574868 
L 255.186816 -182.862461 
L 255.962462 -182.167354 
L 256.738108 -181.489183 
L 257.513755 -180.827591 
L 258.289401 -180.182221 
L 259.065047 -179.552726 
L 259.840694 -178.938759 
L 260.61634 -178.339982 
L 261.391987 -177.756061 
L 262.167633 -177.186666 
L 262.943279 -176.631473 
L 263.718926 -176.090164 
L 264.494572 -175.562424 
L 265.270218 -175.047947 
L 266.045865 -174.546429 
L 266.821511 -174.057573 
L 267.597158 -173.581085 
L 268.372804 -173.116681 
L 269.14845 -172.664077 
L 269.924097 -172.222997 
L 270.699743 -171.79317 
L 271.475389 -171.374331 
L 272.251036 -170.966218 
L 273.026682 -170.568575 
L 273.802329 -170.181152 
L 274.577975 -169.803704 
L 275.353621 -169.43599 
L 276.129268 -169.077774 
L 276.904914 -168.728826 
L 277.68056 -168.388919 
L 278.456207 -168.057832 
L 279.231853 -167.73535 
L 280.007499 -167.421259 
L 280.783146 -167.115354 
L 281.558792 -166.817431 
L 282.334439 -166.527291 
L 283.110085 -166.244743 
L 283.885731 -165.969594 
L 284.661378 -165.701662 
L 285.437024 -165.440763 
L 286.21267 -165.186722 
L 286.988317 -164.939365 
L 287.763963 -164.698523 
L 288.53961 -164.464032 
L 289.315256 -164.23573 
L 290.090902 -164.01346 
L 290.866549 -163.797067 
L 291.642195 -163.586402 
L 292.417841 -163.381318 
L 293.193488 -163.181672 
L 293.969134 -162.987324 
L 294.744781 -162.798139 
L 295.520427 -162.613982 
L 296.296073 -162.434723 
L 297.07172 -162.260238 
L 297.847366 -162.0904 
L 298.623012 -161.925091 
L 299.398659 -161.764192 
L 300.174305 -161.607589 
L 300.949952 -161.455169 
L 301.725598 -161.306824 
L 302.501244 -161.162447 
L 303.276891 -161.021935 
L 304.052537 -160.885185 
L 304.828183 -160.7521 
L 305.60383 -160.622582 
L 306.379476 -160.49654 
L 307.155122 -160.37388 
L 307.930769 -160.254514 
L 308.706415 -160.138355 
L 309.482062 -160.025318 
L 310.257708 -159.915321 
L 311.033354 -159.808284 
L 311.809001 -159.704127 
L 312.584647 -159.602776 
L 313.360293 -159.504155 
L 314.13594 -159.408192 
L 314.911586 -159.314816 
L 315.687233 -159.223958 
L 316.462879 -159.135552 
L 317.238525 -159.049533 
L 318.014172 -158.965836 
L 318.789818 -158.8844 
L 319.565464 -158.805164 
L 320.341111 -158.72807 
L 321.116757 -158.65306 
L 321.892404 -158.580079 
L 322.66805 -158.509073 
L 323.443696 -158.439988 
L 324.219343 -158.372773 
L 324.994989 -158.307378 
L 325.770635 -158.243754 
L 326.546282 -158.181854 
L 327.321928 -158.121632 
L 328.097575 -158.063042 
L 328.873221 -158.00604 
L 329.648867 -157.950584 
L 330.424514 -157.896632 
L 331.20016 -157.844144 
L 331.975806 -157.79308 
L 332.751453 -157.743403 
L 333.527099 -157.695074 
L 334.302746 -157.648057 
L 335.078392 -157.602317 
L 335.854038 -157.557819 
L 336.629685 -157.514531 
L 337.405331 -157.472419 
L 338.180977 -157.431451 
L 338.956624 -157.391597 
L 339.73227 -157.352826 
L 340.507916 -157.31511 
L 341.283563 -157.278419 
L 342.059209 -157.242726 
L 342.834856 -157.208004 
L 343.610502 -157.174227 
L 344.386148 -157.141369 
L 345.161795 -157.109405 
L 345.937441 -157.078311 
L 346.713087 -157.048064 
L 347.488734 -157.01864 
L 348.26438 -156.990017 
L 349.040027 -156.962174 
L 349.815673 -156.935089 
L 350.591319 -156.908742 
L 351.366966 -156.883112 
L 352.142612 -156.858181 
L 352.918258 -156.833929 
L 353.693905 -156.810338 
L 354.469551 -156.787389 
L 355.245198 -156.765067 
L 356.020844 -156.743352 
L 356.79649 -156.72223 
L 357.572137 -156.701683 
L 358.347783 -156.681696 
L 359.123429 -156.662255 
L 359.899076 -156.643343 
L 360.674722 -156.624948 
L 361.450369 -156.607054 
L 362.226015 -156.589648 
L 363.001661 -156.572717 
L 363.777308 -156.556247 
L 364.552954 -156.540227 
L 365.3286 -156.524644 
L 366.104247 -156.509486 
L 366.879893 -156.494742 
L 367.65554 -156.4804 
L 368.431186 -156.466449 
L 369.206832 -156.452879 
L 369.982479 -156.43968 
L 370.758125 -156.426841 
L 371.533771 -156.414352 
L 372.309418 -156.402204 
L 373.085064 -156.390387 
L 373.86071 -156.378894 
L 374.636357 -156.367714 
L 375.412003 -156.356839 
L 376.18765 -156.346261 
L 376.963296 -156.335972 
L 377.738942 -156.325964 
L 378.514589 -156.316229 
L 379.290235 -156.30676 
L 380.065881 -156.297549 
L 380.841528 -156.28859 
L 381.617174 -156.279876 
L 382.392821 -156.2714 
L 383.168467 -156.263155 
L 383.944113 -156.255135 
L 384.71976 -156.247335 
L 385.495406 -156.239747 
L 386.271052 -156.232367 
L 387.046699 -156.225188 
L 387.822345 -156.218206 
L 388.597992 -156.211414 
L 389.373638 -156.204808 
L 390.149284 -156.198382 
L 390.924931 -156.192132 
L 391.700577 -156.186052 
L 392.476223 -156.180139 
L 393.25187 -156.174387 
L 394.027516 -156.168792 
L 394.803163 -156.163351 
L 395.578809 -156.158057 
L 396.354455 -156.152909 
L 397.130102 -156.147901 
L 397.905748 -156.14303 
L 398.681394 -156.138292 
L 399.457041 -156.133684 
L 400.232687 -156.129201 
L 401.008334 -156.124841 
L 401.78398 -156.120601 
L 402.559626 -156.116476 
L 403.335273 -156.112464 
L 404.110919 -156.108561 
L 404.886565 -156.104765 
L 405.662212 -156.101073 
L 406.437858 -156.097482 
L 407.213504 -156.093989 
L 407.989151 -156.090591 
L 408.764797 -156.087286 
L 409.540444 -156.084072 
L 410.31609 -156.080945 
L 411.091736 -156.077904 
L 411.867383 -156.074946 
L 412.643029 -156.072069 
L 413.418675 -156.06927 
L 414.194322 -156.066548 
L 414.969968 -156.063901 
L 415.745615 -156.061326 
L 416.521261 -156.058821 
L 417.296907 -156.056384 
L 418.072554 -156.054015 
L 418.8482 -156.05171 
L 419.623846 -156.049468 
L 420.399493 -156.047287 
L 421.175139 -156.045166 
L 421.950786 -156.043103 
L 422.726432 -156.041096 
L 423.502078 -156.039144 
L 424.277725 -156.037246 
L 425.053371 -156.035399 
L 425.829017 -156.033603 
L 426.604664 -156.031856 
L 427.38031 -156.030157 
L 428.155957 -156.028504 
L 428.931603 -156.026897 
L 429.707249 -156.025333 
L 430.482896 -156.023812 
L 431.258542 -156.022333 
L 432.034188 -156.020894 
L 432.809835 -156.019494 
L 433.585481 -156.018133 
L 434.361128 -156.016809 
L 435.136774 -156.015521 
L 435.91242 -156.014268 
L 436.688067 -156.01305 
L 437.463713 -156.011865 
L 438.239359 -156.010712 
L 439.015006 -156.009591 
L 439.790652 -156.0085 
L 440.566298 -156.00744 
L 441.341945 -156.006408 
L 442.117591 -156.005405 
L 442.893238 -156.004429 
L 443.668884 -156.003479 
L 444.44453 -156.002556 
L 445.220177 -156.001658 
L 445.995823 -156.000784 
L 446.771469 -155.999934 
L 447.547116 -155.999108 
L 448.322762 -155.998304 
L 449.098409 -155.997522 
L 449.874055 -155.996761 
L 450.649701 -155.996022 
L 451.425348 -155.995302 
L 452.200994 -155.994602 
L 452.97664 -155.993922 
L 453.752287 -155.993259 
L 454.527933 -155.992615 
L 455.30358 -155.991989 
L 456.079226 -155.99138 
L 456.854872 -155.990787 
L 457.630519 -155.990211 
L 458.406165 -155.98965 
L 459.181811 -155.989105 
L 459.957458 -155.988574 
L 460.733104 -155.988059 
L 461.508751 -155.987557 
L 462.284397 -155.987069 
L 463.060043 -155.986594 
L 463.83569 -155.986132 
L 464.611336 -155.985683 
L 465.386982 -155.985246 
L 466.162629 -155.984821 
L 466.938275 -155.984408 
L 467.713921 -155.984006 
L 468.489568 -155.983615 
L 469.265214 -155.983235 
L 470.040861 -155.982865 
L 470.816507 -155.982505 
L 471.592153 -155.982155 
L 472.3678 -155.981815 
L 473.143446 -155.981484 
L 473.919092 -155.981162 
L 474.694739 -155.980849 
L 475.470385 -155.980544 
L 476.246032 -155.980248 
L 477.021678 -155.979959 
L 477.797324 -155.979679 
L 478.572971 -155.979407 
L 479.348617 -155.979141 
L 480.124263 -155.978883 
L 480.89991 -155.978632 
L 481.675556 -155.978388 
L 482.451203 -155.978151 
L 483.226849 -155.97792 
L 484.002495 -155.977696 
L 484.778142 -155.977477 
L 485.553788 -155.977265 
L 486.329434 -155.977058 
L 487.105081 -155.976857 
L 487.880727 -155.976662 
L 488.656374 -155.976471 
L 489.43202 -155.976286 
L 490.207666 -155.976107 
L 490.983313 -155.975932 
L 491.758959 -155.975761 
L 492.534605 -155.975596 
L 493.310252 -155.975435 
L 494.085898 -155.975278 
L 494.861545 -155.975126 
L 495.637191 -155.974978 
L 496.412837 -155.974834 
L 497.188484 -155.974694 
L 497.96413 -155.974557 
L 498.739776 -155.974425 
L 499.515423 -155.974296 
L 500.291069 -155.97417 
L 501.066715 -155.974048 
L 501.842362 -155.973929 
L 502.618008 -155.973814 
L 503.393655 -155.973702 
L 504.169301 -155.973592 
L 504.944947 -155.973486 
L 505.720594 -155.973383 
L 506.49624 -155.973282 
L 507.271886 -155.973185 
L 508.047533 -155.97309 
L 508.823179 -155.972997 
L 509.598826 -155.972907 
L 510.374472 -155.97282 
L 511.150118 -155.972735 
L 511.925765 -155.972652 
L 512.701411 -155.972571 
L 513.477057 -155.972493 
L 514.252704 -155.972417 
L 515.02835 -155.972343 
L 515.803997 -155.972271 
L 516.579643 -155.972201 
L 517.355289 -155.972132 
L 518.130936 -155.972066 
L 518.906582 -155.972002 
L 519.682228 -155.971939 
L 520.457875 -155.971878 
L 521.233521 -155.971819 
L 522.009168 -155.971761 
L 522.784814 -155.971705 
L 523.56046 -155.97165 
L 524.336107 -155.971597 
L 525.111753 -155.971545 
L 525.887399 -155.971495 
L 526.663046 -155.971446 
L 527.438692 -155.971399 
L 528.214339 -155.971352 
L 528.989985 -155.971307 
L 529.765631 -155.971264 
L 530.541278 -155.971221 
L 531.316924 -155.97118 
L 532.09257 -155.97114 
L 532.868217 -155.9711 
L 533.643863 -155.971062 
L 534.419509 -155.971025 
L 535.195156 -155.970989 
L 535.970802 -155.970954 
L 536.746449 -155.97092 
L 537.522095 -155.970887 
L 538.297741 -155.970855 
L 539.073388 -155.970823 
L 539.849034 -155.970793 
L 540.62468 -155.970763 
L 541.400327 -155.970734 
L 542.175973 -155.970706 
L 542.95162 -155.970679 
L 543.727266 -155.970652 
L 544.502912 -155.970627 
L 545.278559 -155.970601 
L 546.054205 -155.970577 
L 546.829851 -155.970553 
L 547.605498 -155.97053 
L 548.381144 -155.970508 
L 549.156791 -155.970486 
L 549.932437 -155.970464 
L 550.708083 -155.970444 
L 551.48373 -155.970424 
L 552.259376 -155.970404 
L 553.035022 -155.970385 
L 553.810669 -155.970366 
L 554.586315 -155.970348 
L 555.361962 -155.970331 
L 556.137608 -155.970314 
L 556.913254 -155.970297 
L 557.688901 -155.970281 
L 558.464547 -155.970266 
L 559.240193 -155.97025 
L 560.01584 -155.970235 
L 560.791486 -155.970221 
L 561.567133 -155.970207 
L 562.342779 -155.970193 
L 563.118425 -155.97018 
L 563.894072 -155.970167 
L 564.669718 -155.970155 
L 565.445364 -155.970142 
L 566.221011 -155.97013 
L 566.996657 -155.970119 
L 567.772303 -155.970108 
L 568.54795 -155.970097 
L 569.323596 -155.970086 
L 570.099243 -155.970076 
L 570.874889 -155.970066 
L 571.650535 -155.970056 
L 572.426182 -155.970046 
L 573.201828 -155.970037 
L 573.977474 -155.970028 
L 574.753121 -155.970019 
L 575.528767 -155.970011 
L 576.304414 -155.970003 
L 577.08006 -155.969994 
L 577.855706 -155.969987 
L 578.631353 -155.969979 
L 579.406999 -155.969972 
L 580.182645 -155.969964 
L 580.958292 -155.969957 
L 581.733938 -155.969951 
L 582.509585 -155.969944 
L 583.285231 -155.969937 
L 584.060877 -155.969931 
L 584.836524 -155.969925 
L 585.61217 -155.969919 
L 586.387816 -155.969913 
L 587.163463 -155.969908 
L 587.939109 -155.969902 
L 588.714756 -155.969897 
L 589.490402 -155.969892 
L 590.266048 -155.969887 
L 591.041695 -155.969882 
L 591.817341 -155.969877 
L 592.592987 -155.969872 
L 593.368634 -155.969868 
L 594.14428 -155.969864 
L 594.919927 -155.969859 
L 595.695573 -155.969855 
L 596.471219 -155.969851 
L 597.246866 -155.969847 
L 598.022512 -155.969843 
L 598.798158 -155.96984 
L 599.573805 -155.969836 
L 600.349451 -155.969833 
L 601.125097 -155.969829 
L 601.900744 -155.969826 
L 602.67639 -155.969823 
L 603.452037 -155.969819 
L 604.227683 -155.969816 
L 605.003329 -155.969813 
L 605.778976 -155.969811 
L 606.554622 -155.969808 
L 607.330268 -155.969805 
L 608.105915 -155.969802 
L 608.881561 -155.9698 
L 609.657208 -155.969797 
L 610.432854 -155.969795 
L 611.2085 -155.969792 
L 611.984147 -155.96979 
L 612.759793 -155.969788 
L 613.535439 -155.969786 
L 614.311086 -155.969784 
L 615.086732 -155.969781 
L 615.862379 -155.969779 
L 616.638025 -155.969777 
L 617.413671 -155.969776 
L 618.189318 -155.969774 
L 618.964964 -155.969772 
L 619.74061 -155.96977 
L 620.516257 -155.969768 
L 621.291903 -155.969767 
L 622.06755 -155.969765 
L 622.843196 -155.969764 
L 623.618842 -155.969762 
L 624.394489 -155.969761 
L 624.394489 -160.582597 
L 624.394489 -160.582597 
L 623.618842 -160.628722 
L 622.843196 -160.675303 
L 622.06755 -160.722345 
L 621.291903 -160.769853 
L 620.516257 -160.81783 
L 619.74061 -160.866283 
L 618.964964 -160.915215 
L 618.189318 -160.96463 
L 617.413671 -161.014534 
L 616.638025 -161.064931 
L 615.862379 -161.115827 
L 615.086732 -161.167225 
L 614.311086 -161.219131 
L 613.535439 -161.271549 
L 612.759793 -161.324485 
L 611.984147 -161.377944 
L 611.2085 -161.43193 
L 610.432854 -161.486449 
L 609.657208 -161.541506 
L 608.881561 -161.597105 
L 608.105915 -161.653253 
L 607.330268 -161.709954 
L 606.554622 -161.767215 
L 605.778976 -161.825039 
L 605.003329 -161.883433 
L 604.227683 -161.942402 
L 603.452037 -162.001951 
L 602.67639 -162.062087 
L 601.900744 -162.122814 
L 601.125097 -162.184139 
L 600.349451 -162.246067 
L 599.573805 -162.308603 
L 598.798158 -162.371755 
L 598.022512 -162.435527 
L 597.246866 -162.499925 
L 596.471219 -162.564957 
L 595.695573 -162.630626 
L 594.919927 -162.69694 
L 594.14428 -162.763905 
L 593.368634 -162.831527 
L 592.592987 -162.899813 
L 591.817341 -162.968767 
L 591.041695 -163.038398 
L 590.266048 -163.108711 
L 589.490402 -163.179712 
L 588.714756 -163.251409 
L 587.939109 -163.323808 
L 587.163463 -163.396916 
L 586.387816 -163.470738 
L 585.61217 -163.545283 
L 584.836524 -163.620557 
L 584.060877 -163.696566 
L 583.285231 -163.773318 
L 582.509585 -163.85082 
L 581.733938 -163.929078 
L 580.958292 -164.008101 
L 580.182645 -164.087894 
L 579.406999 -164.168466 
L 578.631353 -164.249824 
L 577.855706 -164.331974 
L 577.08006 -164.414925 
L 576.304414 -164.498684 
L 575.528767 -164.583259 
L 574.753121 -164.668657 
L 573.977474 -164.754885 
L 573.201828 -164.841953 
L 572.426182 -164.929867 
L 571.650535 -165.018635 
L 570.874889 -165.108266 
L 570.099243 -165.198767 
L 569.323596 -165.290146 
L 568.54795 -165.382413 
L 567.772303 -165.475574 
L 566.996657 -165.569639 
L 566.221011 -165.664615 
L 565.445364 -165.760511 
L 564.669718 -165.857336 
L 563.894072 -165.955098 
L 563.118425 -166.053806 
L 562.342779 -166.153469 
L 561.567133 -166.254095 
L 560.791486 -166.355693 
L 560.01584 -166.458273 
L 559.240193 -166.561843 
L 558.464547 -166.666412 
L 557.688901 -166.77199 
L 556.913254 -166.878586 
L 556.137608 -166.986209 
L 555.361962 -167.094868 
L 554.586315 -167.204573 
L 553.810669 -167.315335 
L 553.035022 -167.427161 
L 552.259376 -167.540062 
L 551.48373 -167.654048 
L 550.708083 -167.769129 
L 549.932437 -167.885314 
L 549.156791 -168.002614 
L 548.381144 -168.121038 
L 547.605498 -168.240598 
L 546.829851 -168.361302 
L 546.054205 -168.483162 
L 545.278559 -168.606188 
L 544.502912 -168.73039 
L 543.727266 -168.855779 
L 542.95162 -168.982366 
L 542.175973 -169.110162 
L 541.400327 -169.239177 
L 540.62468 -169.369422 
L 539.849034 -169.500908 
L 539.073388 -169.633646 
L 538.297741 -169.767648 
L 537.522095 -169.902925 
L 536.746449 -170.039488 
L 535.970802 -170.177348 
L 535.195156 -170.316517 
L 534.419509 -170.457007 
L 533.643863 -170.59883 
L 532.868217 -170.741996 
L 532.09257 -170.886518 
L 531.316924 -171.032409 
L 530.541278 -171.179679 
L 529.765631 -171.328341 
L 528.989985 -171.478408 
L 528.214339 -171.629891 
L 527.438692 -171.782803 
L 526.663046 -171.937156 
L 525.887399 -172.092964 
L 525.111753 -172.250238 
L 524.336107 -172.408991 
L 523.56046 -172.569237 
L 522.784814 -172.730988 
L 522.009168 -172.894257 
L 521.233521 -173.059058 
L 520.457875 -173.225403 
L 519.682228 -173.393305 
L 518.906582 -173.562779 
L 518.130936 -173.733838 
L 517.355289 -173.906494 
L 516.579643 -174.080763 
L 515.803997 -174.256657 
L 515.02835 -174.43419 
L 514.252704 -174.613377 
L 513.477057 -174.794231 
L 512.701411 -174.976767 
L 511.925765 -175.160998 
L 511.150118 -175.346939 
L 510.374472 -175.534604 
L 509.598826 -175.724008 
L 508.823179 -175.915166 
L 508.047533 -176.108091 
L 507.271886 -176.302799 
L 506.49624 -176.499305 
L 505.720594 -176.697623 
L 504.944947 -176.897769 
L 504.169301 -177.099757 
L 503.393655 -177.303604 
L 502.618008 -177.509323 
L 501.842362 -177.716931 
L 501.066715 -177.926443 
L 500.291069 -178.137874 
L 499.515423 -178.35124 
L 498.739776 -178.566558 
L 497.96413 -178.783842 
L 497.188484 -179.003109 
L 496.412837 -179.224374 
L 495.637191 -179.447655 
L 494.861545 -179.672966 
L 494.085898 -179.900325 
L 493.310252 -180.129747 
L 492.534605 -180.361249 
L 491.758959 -180.594847 
L 490.983313 -180.830559 
L 490.207666 -181.068401 
L 489.43202 -181.308389 
L 488.656374 -181.550541 
L 487.880727 -181.794873 
L 487.105081 -182.041403 
L 486.329434 -182.290147 
L 485.553788 -182.541124 
L 484.778142 -182.794349 
L 484.002495 -183.049841 
L 483.226849 -183.307616 
L 482.451203 -183.567693 
L 481.675556 -183.830089 
L 480.89991 -184.094822 
L 480.124263 -184.361909 
L 479.348617 -184.631368 
L 478.572971 -184.903217 
L 477.797324 -185.177475 
L 477.021678 -185.454158 
L 476.246032 -185.733286 
L 475.470385 -186.014876 
L 474.694739 -186.298947 
L 473.919092 -186.585516 
L 473.143446 -186.874603 
L 472.3678 -187.166226 
L 471.592153 -187.460403 
L 470.816507 -187.757153 
L 470.040861 -188.056494 
L 469.265214 -188.358445 
L 468.489568 -188.663025 
L 467.713921 -188.970253 
L 466.938275 -189.280148 
L 466.162629 -189.592727 
L 465.386982 -189.908012 
L 464.611336 -190.226019 
L 463.83569 -190.546769 
L 463.060043 -190.870281 
L 462.284397 -191.196573 
L 461.508751 -191.525665 
L 460.733104 -191.857576 
L 459.957458 -192.192326 
L 459.181811 -192.529933 
L 458.406165 -192.870417 
L 457.630519 -193.213798 
L 456.854872 -193.560094 
L 456.079226 -193.909326 
L 455.30358 -194.261512 
L 454.527933 -194.616672 
L 453.752287 -194.974826 
L 452.97664 -195.335993 
L 452.200994 -195.700193 
L 451.425348 -196.067445 
L 450.649701 -196.437769 
L 449.874055 -196.811184 
L 449.098409 -197.18771 
L 448.322762 -197.567366 
L 447.547116 -197.950173 
L 446.771469 -198.336149 
L 445.995823 -198.725314 
L 445.220177 -199.117688 
L 444.44453 -199.51329 
L 443.668884 -199.91214 
L 442.893238 -200.314258 
L 442.117591 -200.719662 
L 441.341945 -201.128372 
L 440.566298 -201.540409 
L 439.790652 -201.95579 
L 439.015006 -202.374535 
L 438.239359 -202.796665 
L 437.463713 -203.222197 
L 436.688067 -203.651152 
L 435.91242 -204.083548 
L 435.136774 -204.519405 
L 434.361128 -204.958742 
L 433.585481 -205.401577 
L 432.809835 -205.84793 
L 432.034188 -206.297819 
L 431.258542 -206.751264 
L 430.482896 -207.208283 
L 429.707249 -207.668895 
L 428.931603 -208.133118 
L 428.155957 -208.600971 
L 427.38031 -209.072472 
L 426.604664 -209.547639 
L 425.829017 -210.026491 
L 425.053371 -210.509045 
L 424.277725 -210.99532 
L 423.502078 -211.485333 
L 422.726432 -211.979103 
L 421.950786 -212.476646 
L 421.175139 -212.97798 
L 420.399493 -213.483123 
L 419.623846 -213.992091 
L 418.8482 -214.504901 
L 418.072554 -215.021571 
L 417.296907 -215.542117 
L 416.521261 -216.066556 
L 415.745615 -216.594904 
L 414.969968 -217.127176 
L 414.194322 -217.66339 
L 413.418675 -218.20356 
L 412.643029 -218.747703 
L 411.867383 -219.295834 
L 411.091736 -219.847968 
L 410.31609 -220.404119 
L 409.540444 -220.964304 
L 408.764797 -221.528536 
L 407.989151 -222.096829 
L 407.213504 -222.669198 
L 406.437858 -223.245656 
L 405.662212 -223.826218 
L 404.886565 -224.410896 
L 404.110919 -224.999703 
L 403.335273 -225.592652 
L 402.559626 -226.189756 
L 401.78398 -226.791027 
L 401.008334 -227.396476 
L 400.232687 -228.006116 
L 399.457041 -228.619958 
L 398.681394 -229.238012 
L 397.905748 -229.86029 
L 397.130102 -230.486801 
L 396.354455 -231.117556 
L 395.578809 -231.752564 
L 394.803163 -232.391836 
L 394.027516 -233.035379 
L 393.25187 -233.683202 
L 392.476223 -234.335314 
L 391.700577 -234.991722 
L 390.924931 -235.652434 
L 390.149284 -236.317457 
L 389.373638 -236.986798 
L 388.597992 -237.660463 
L 387.822345 -238.338457 
L 387.046699 -239.020787 
L 386.271052 -239.707457 
L 385.495406 -240.398472 
L 384.71976 -241.093836 
L 383.944113 -241.793553 
L 383.168467 -242.497625 
L 382.392821 -243.206056 
L 381.617174 -243.918847 
L 380.841528 -244.636001 
L 380.065881 -245.357519 
L 379.290235 -246.083402 
L 378.514589 -246.813649 
L 377.738942 -247.548261 
L 376.963296 -248.287236 
L 376.18765 -249.030574 
L 375.412003 -249.778272 
L 374.636357 -250.530329 
L 373.86071 -251.286741 
L 373.085064 -252.047504 
L 372.309418 -252.812615 
L 371.533771 -253.582069 
L 370.758125 -254.35586 
L 369.982479 -255.133983 
L 369.206832 -255.916431 
L 368.431186 -256.703197 
L 367.65554 -257.494274 
L 366.879893 -258.289652 
L 366.104247 -259.089324 
L 365.3286 -259.893278 
L 364.552954 -260.701506 
L 363.777308 -261.513996 
L 363.001661 -262.330736 
L 362.226015 -263.151715 
L 361.450369 -263.976918 
L 360.674722 -264.806334 
L 359.899076 -265.639946 
L 359.123429 -266.477741 
L 358.347783 -267.319702 
L 357.572137 -268.165814 
L 356.79649 -269.016058 
L 356.020844 -269.870416 
L 355.245198 -270.728871 
L 354.469551 -271.591403 
L 353.693905 -272.457991 
L 352.918258 -273.328615 
L 352.142612 -274.203254 
L 351.366966 -275.081883 
L 350.591319 -275.964481 
L 349.815673 -276.851024 
L 349.040027 -277.741486 
L 348.26438 -278.635842 
L 347.488734 -279.534066 
L 346.713087 -280.436131 
L 345.937441 -281.342008 
L 345.161795 -282.251669 
L 344.386148 -283.165084 
L 343.610502 -284.082223 
L 342.834856 -285.003055 
L 342.059209 -285.927547 
L 341.283563 -286.855668 
L 340.507916 -287.787382 
L 339.73227 -288.722656 
L 338.956624 -289.661453 
L 338.180977 -290.603739 
L 337.405331 -291.549476 
L 336.629685 -292.498625 
L 335.854038 -293.451149 
L 335.078392 -294.407007 
L 334.302746 -295.366159 
L 333.527099 -296.328564 
L 332.751453 -297.29418 
L 331.975806 -298.262963 
L 331.20016 -299.23487 
L 330.424514 -300.209855 
L 329.648867 -301.187874 
L 328.873221 -302.16888 
L 328.097575 -303.152825 
L 327.321928 -304.139661 
L 326.546282 -305.12934 
L 325.770635 -306.121811 
L 324.994989 -307.117024 
L 324.219343 -308.114927 
L 323.443696 -309.115467 
L 322.66805 -310.118592 
L 321.892404 -311.124247 
L 321.116757 -312.132378 
L 320.341111 -313.142927 
L 319.565464 -314.15584 
L 318.789818 -315.171058 
L 318.014172 -316.188522 
L 317.238525 -317.208175 
L 316.462879 -318.229956 
L 315.687233 -319.253804 
L 314.911586 -320.279658 
L 314.13594 -321.307456 
L 313.360293 -322.337133 
L 312.584647 -323.368628 
L 311.809001 -324.401874 
L 311.033354 -325.436806 
L 310.257708 -326.473358 
L 309.482062 -327.511464 
L 308.706415 -328.551056 
L 307.930769 -329.592064 
L 307.155122 -330.634421 
L 306.379476 -331.678056 
L 305.60383 -332.722898 
L 304.828183 -333.768877 
L 304.052537 -334.81592 
L 303.276891 -335.863956 
L 302.501244 -336.91291 
L 301.725598 -337.962709 
L 300.949952 -339.013278 
L 300.174305 -340.064542 
L 299.398659 -341.116426 
L 298.623012 -342.168853 
L 297.847366 -343.221747 
L 297.07172 -344.275029 
L 296.296073 -345.328622 
L 295.520427 -346.382447 
L 294.744781 -347.436425 
L 293.969134 -348.490477 
L 293.193488 -349.544523 
L 292.417841 -350.598482 
L 291.642195 -351.652273 
L 290.866549 -352.705815 
L 290.090902 -353.759026 
L 289.315256 -354.811823 
L 288.53961 -355.864126 
L 287.763963 -356.915849 
L 286.988317 -357.96691 
L 286.21267 -359.017226 
L 285.437024 -360.066713 
L 284.661378 -361.115286 
L 283.885731 -362.162861 
L 283.110085 -363.209353 
L 282.334439 -364.254678 
L 281.558792 -365.29875 
L 280.783146 -366.341485 
L 280.007499 -367.382796 
L 279.231853 -368.422598 
L 278.456207 -369.460806 
L 277.68056 -370.497334 
L 276.904914 -371.532095 
L 276.129268 -372.565005 
L 275.353621 -373.595977 
L 274.577975 -374.624926 
L 273.802329 -375.651765 
L 273.026682 -376.676409 
L 272.251036 -377.698772 
L 271.475389 -378.718769 
L 270.699743 -379.736314 
L 269.924097 -380.751322 
L 269.14845 -381.763707 
L 268.372804 -382.773385 
L 267.597158 -383.780271 
L 266.821511 -384.784281 
L 266.045865 -385.78533 
L 265.270218 -386.783335 
L 264.494572 -387.778211 
L 263.718926 -388.769876 
L 262.943279 -389.758247 
L 262.167633 -390.743242 
L 261.391987 -391.724778 
L 260.61634 -392.702774 
L 259.840694 -393.677149 
L 259.065047 -394.647821 
L 258.289401 -395.614713 
L 257.513755 -396.577743 
L 256.738108 -397.536832 
L 255.962462 -398.491903 
L 255.186816 -399.442878 
L 254.411169 -400.38968 
L 253.635523 -401.332233 
L 252.859876 -402.27046 
L 252.08423 -403.204287 
L 251.308584 -404.13364 
L 250.532937 -405.058445 
L 249.757291 -405.97863 
L 248.981645 -406.894123 
L 248.205998 -407.804853 
L 247.430352 -408.71075 
L 246.654705 -409.611745 
L 245.879059 -410.50777 
L 245.103413 -411.398758 
L 244.327766 -412.284641 
L 243.55212 -413.165355 
L 242.776474 -414.040836 
L 242.000827 -414.91102 
L 241.225181 -415.775845 
L 240.449535 -416.635249 
L 239.673888 -417.489173 
L 238.898242 -418.337558 
L 238.122595 -419.180345 
L 237.346949 -420.017479 
L 236.571303 -420.848902 
L 235.795656 -421.674562 
L 235.02001 -422.494405 
L 234.244364 -423.308379 
L 233.468717 -424.116433 
L 232.693071 -424.918517 
L 231.917424 -425.714584 
L 231.141778 -426.504587 
L 230.366132 -427.28848 
L 229.590485 -428.066218 
L 228.814839 -428.837759 
L 228.039193 -429.60306 
L 227.263546 -430.362083 
L 226.4879 -431.114786 
L 225.712253 -431.861134 
L 224.936607 -432.60109 
L 224.160961 -433.334618 
L 223.385314 -434.061686 
L 222.609668 -434.78226 
L 221.834022 -435.496312 
L 221.058375 -436.203811 
L 220.282729 -436.90473 
L 219.507082 -437.599041 
L 218.731436 -438.286721 
L 217.95579 -438.967746 
L 217.180143 -439.642093 
L 216.404497 -440.309742 
L 215.628851 -440.970674 
L 214.853204 -441.624871 
L 214.077558 -442.272317 
L 213.301911 -442.912996 
L 212.526265 -443.546895 
L 211.750619 -444.174002 
L 210.974972 -444.794307 
L 210.199326 -445.4078 
L 209.42368 -446.014473 
L 208.648033 -446.614321 
L 207.872387 -447.207338 
L 207.096741 -447.79352 
L 206.321094 -448.372866 
L 205.545448 -448.945374 
L 204.769801 -449.511045 
L 203.994155 -450.069882 
L 203.218509 -450.621886 
L 202.442862 -451.167063 
L 201.667216 -451.705418 
L 200.89157 -452.236959 
L 200.115923 -452.761693 
L 199.340277 -453.279631 
L 198.56463 -453.790784 
L 197.788984 -454.295163 
L 197.013338 -454.792782 
L 196.237691 -455.283655 
L 195.462045 -455.767797 
L 194.686399 -456.245226 
L 193.910752 -456.715959 
L 193.135106 -457.180015 
L 192.359459 -457.637413 
L 191.583813 -458.088175 
L 190.808167 -458.532322 
L 190.03252 -458.969878 
L 189.256874 -459.400865 
L 188.481228 -459.825308 
L 187.705581 -460.243233 
L 186.929935 -460.654665 
L 186.154288 -461.059631 
L 185.378642 -461.45816 
L 184.602996 -461.850279 
L 183.827349 -462.236017 
L 183.051703 -462.615403 
L 182.276057 -462.988468 
L 181.50041 -463.355241 
L 180.724764 -463.715754 
L 179.949117 -464.070037 
L 179.173471 -464.418123 
L 178.397825 -464.760042 
L 177.622178 -465.095827 
L 176.846532 -465.42551 
L 176.070886 -465.749122 
L 175.295239 -466.066696 
L 174.519593 -466.378264 
L 173.743947 -466.683857 
L 172.9683 -466.983507 
L 172.192654 -467.277246 
L 171.417007 -467.565102 
L 170.641361 -467.847108 
L 169.865715 -468.123292 
L 169.090068 -468.393683 
L 168.314422 -468.658308 
L 167.538776 -468.917196 
L 166.763129 -469.17037 
L 165.987483 -469.417857 
L 165.211836 -469.659678 
L 164.43619 -469.895854 
L 163.660544 -470.126407 
L 162.884897 -470.351351 
L 162.109251 -470.570704 
L 161.333605 -470.784476 
L 160.557958 -470.992679 
L 159.782312 -471.195318 
L 159.006665 -471.392396 
L 158.231019 -471.583914 
L 157.455373 -471.769864 
L 156.679726 -471.950238 
L 155.90408 -472.12502 
L 155.128434 -472.294188 
L 154.352787 -472.457714 
L 153.577141 -472.615562 
L 152.801494 -472.767686 
L 152.025848 -472.914033 
L 151.250202 -473.054538 
L 150.474555 -473.189121 
L 149.698909 -473.31769 
L 148.923263 -473.440138 
L 148.147616 -473.556337 
L 147.37197 -473.666137 
L 146.596323 -473.769366 
L 145.820677 -473.865822 
L 145.045031 -473.955269 
L 144.269384 -474.037433 
L 143.493738 -474.111996 
L 142.718092 -474.178584 
L 141.942445 -474.236762 
L 141.166799 -474.286019 
L 140.391153 -474.325757 
L 139.615506 -474.355269 
L 138.83986 -474.373721 
L 138.064213 -474.380122 
L 137.288567 -474.373292 
L 136.512921 -474.362982 
L 135.737274 -474.378147 
L 134.961628 -474.378069 
L 134.185982 -474.360862 
L 133.410335 -474.3705 
L 132.634689 -474.380122 
L 131.859042 -474.369535 
L 131.083396 -474.353165 
L 130.30775 -474.376952 
L 129.532103 -474.376753 
L 128.756457 -474.347745 
L 127.980811 -474.363649 
L 127.205164 -474.380122 
L 126.429518 -474.360714 
L 125.653871 -474.294867 
L 124.878225 -474.16739 
L 124.102579 -473.955715 
L 123.326932 -473.625043 
L 122.551286 -473.11927 
L 121.77564 -472.343044 
L 120.999993 -471.123583 
L 120.224347 -469.121975 
L 119.4487 -465.602676 
L 118.673054 -458.739735 
L 117.897408 -443.052758 
L 117.121761 -396.381033 
z
" style="stroke: #ffa500; stroke-opacity: 0.3"/>
    </defs>
    <g clip-path="url(#p72f5c78225)">
     <use xlink:href="#m2419beeca0" x="0" y="540.100875" style="fill: #ffa500; fill-opacity: 0.3; stroke: #ffa500; stroke-opacity: 0.3"/>
    </g>
   </g>
   <g id="PolyCollection_2">
    <defs>
     <path id="m8bf7586dd7" d="M 117.121761 -464.06096 
L 117.121761 -397.116121 
L 117.897408 -450.864899 
L 118.673054 -467.331633 
L 119.4487 -473.524795 
L 120.224347 -476.220388 
L 120.999993 -477.530684 
L 121.77564 -478.225437 
L 122.551286 -478.620647 
L 123.326932 -478.858897 
L 124.102579 -479.009679 
L 124.878225 -479.109112 
L 125.653871 -479.177024 
L 126.429518 -479.224817 
L 127.205164 -479.259326 
L 127.980811 -479.28479 
L 128.756457 -479.303928 
L 129.532103 -479.318529 
L 130.30775 -479.3298 
L 131.083396 -479.338576 
L 131.859042 -479.343679 
L 132.634689 -479.336209 
L 133.410335 -479.327415 
L 134.185982 -479.317166 
L 134.961628 -479.305309 
L 135.737274 -479.291664 
L 136.512921 -479.27603 
L 137.288567 -479.258179 
L 138.064213 -479.237855 
L 138.83986 -479.214775 
L 139.615506 -479.188628 
L 140.391153 -479.159068 
L 141.166799 -479.125719 
L 141.942445 -479.08817 
L 142.718092 -479.045971 
L 143.493738 -478.998637 
L 144.269384 -478.945641 
L 145.045031 -478.886414 
L 145.820677 -478.820343 
L 146.596323 -478.746773 
L 147.37197 -478.665 
L 148.147616 -478.574273 
L 148.923263 -478.473791 
L 149.698909 -478.362706 
L 150.474555 -478.240117 
L 151.250202 -478.105074 
L 152.025848 -477.956576 
L 152.801494 -477.793568 
L 153.577141 -477.614949 
L 154.352787 -477.419565 
L 155.128434 -477.206213 
L 155.90408 -476.973645 
L 156.679726 -476.720566 
L 157.455373 -476.445636 
L 158.231019 -476.147477 
L 159.006665 -475.824669 
L 159.782312 -475.475761 
L 160.557958 -475.099269 
L 161.333605 -474.69368 
L 162.109251 -474.257462 
L 162.884897 -473.789062 
L 163.660544 -473.286915 
L 164.43619 -472.749448 
L 165.211836 -472.175088 
L 165.987483 -471.562262 
L 166.763129 -470.90941 
L 167.538776 -470.214989 
L 168.314422 -469.477476 
L 169.090068 -468.695379 
L 169.865715 -467.867243 
L 170.641361 -466.991655 
L 171.417007 -466.06725 
L 172.192654 -465.09272 
L 172.9683 -464.066822 
L 173.743947 -462.988377 
L 174.519593 -461.856284 
L 175.295239 -460.669522 
L 176.070886 -459.427157 
L 176.846532 -458.128346 
L 177.622178 -456.772343 
L 178.397825 -455.358503 
L 179.173471 -453.886286 
L 179.949117 -452.35526 
L 180.724764 -450.765108 
L 181.50041 -449.115625 
L 182.276057 -447.406723 
L 183.051703 -445.638434 
L 183.827349 -443.810909 
L 184.602996 -441.924419 
L 185.378642 -439.979355 
L 186.154288 -437.976229 
L 186.929935 -435.915669 
L 187.705581 -433.798423 
L 188.481228 -431.625352 
L 189.256874 -429.397431 
L 190.03252 -427.115743 
L 190.808167 -424.781478 
L 191.583813 -422.395928 
L 192.359459 -419.960482 
L 193.135106 -417.476624 
L 193.910752 -414.945926 
L 194.686399 -412.370042 
L 195.462045 -409.750705 
L 196.237691 -407.08972 
L 197.013338 -404.388957 
L 197.788984 -401.65035 
L 198.56463 -398.875882 
L 199.340277 -396.067589 
L 200.115923 -393.227546 
L 200.89157 -390.357864 
L 201.667216 -387.460686 
L 202.442862 -384.538174 
L 203.218509 -381.592512 
L 203.994155 -378.625893 
L 204.769801 -375.640515 
L 205.545448 -372.638578 
L 206.321094 -369.622276 
L 207.096741 -366.593791 
L 207.872387 -363.55529 
L 208.648033 -360.50892 
L 209.42368 -357.456803 
L 210.199326 -354.40103 
L 210.974972 -351.343659 
L 211.750619 -348.286712 
L 212.526265 -345.232168 
L 213.301911 -342.181962 
L 214.077558 -339.137983 
L 214.853204 -336.10207 
L 215.628851 -333.076008 
L 216.404497 -330.061528 
L 217.180143 -327.060305 
L 217.95579 -324.073955 
L 218.731436 -321.104036 
L 219.507082 -318.152043 
L 220.282729 -315.21941 
L 221.058375 -312.307508 
L 221.834022 -309.417647 
L 222.609668 -306.551071 
L 223.385314 -303.708963 
L 224.160961 -300.892441 
L 224.936607 -298.102559 
L 225.712253 -295.340312 
L 226.4879 -292.60663 
L 227.263546 -289.902381 
L 228.039193 -287.228375 
L 228.814839 -284.585362 
L 229.590485 -281.974031 
L 230.366132 -279.395017 
L 231.141778 -276.848897 
L 231.917424 -274.336193 
L 232.693071 -271.857376 
L 233.468717 -269.412863 
L 234.244364 -267.00302 
L 235.02001 -264.628168 
L 235.795656 -262.288578 
L 236.571303 -259.984475 
L 237.346949 -257.716042 
L 238.122595 -255.483419 
L 238.898242 -253.286705 
L 239.673888 -251.125962 
L 240.449535 -249.001212 
L 241.225181 -246.912443 
L 242.000827 -244.85961 
L 242.776474 -242.842635 
L 243.55212 -240.86141 
L 244.327766 -238.915795 
L 245.103413 -237.005627 
L 245.879059 -235.130714 
L 246.654705 -233.290841 
L 247.430352 -231.485769 
L 248.205998 -229.715239 
L 248.981645 -227.97897 
L 249.757291 -226.276664 
L 250.532937 -224.608004 
L 251.308584 -222.972658 
L 252.08423 -221.370278 
L 252.859876 -219.800504 
L 253.635523 -218.262961 
L 254.411169 -216.757265 
L 255.186816 -215.283019 
L 255.962462 -213.839818 
L 256.738108 -212.427249 
L 257.513755 -211.04489 
L 258.289401 -209.692315 
L 259.065047 -208.369088 
L 259.840694 -207.074773 
L 260.61634 -205.808925 
L 261.391987 -204.5711 
L 262.167633 -203.360849 
L 262.943279 -202.17772 
L 263.718926 -201.021262 
L 264.494572 -199.891021 
L 265.270218 -198.786544 
L 266.045865 -197.707378 
L 266.821511 -196.653071 
L 267.597158 -195.623172 
L 268.372804 -194.61723 
L 269.14845 -193.634799 
L 269.924097 -192.675434 
L 270.699743 -191.738693 
L 271.475389 -190.824136 
L 272.251036 -189.931328 
L 273.026682 -189.059838 
L 273.802329 -188.209237 
L 274.577975 -187.379103 
L 275.353621 -186.569015 
L 276.129268 -185.778559 
L 276.904914 -185.007327 
L 277.68056 -184.254912 
L 278.456207 -183.520916 
L 279.231853 -182.804944 
L 280.007499 -182.106608 
L 280.783146 -181.425524 
L 281.558792 -180.761315 
L 282.334439 -180.113608 
L 283.110085 -179.482038 
L 283.885731 -178.866243 
L 284.661378 -178.265869 
L 285.437024 -177.680567 
L 286.21267 -177.109995 
L 286.988317 -176.553815 
L 287.763963 -176.011696 
L 288.53961 -175.483313 
L 289.315256 -174.968346 
L 290.090902 -174.466482 
L 290.866549 -173.977414 
L 291.642195 -173.50084 
L 292.417841 -173.036463 
L 293.193488 -172.583995 
L 293.969134 -172.143149 
L 294.744781 -171.713648 
L 295.520427 -171.295218 
L 296.296073 -170.887592 
L 297.07172 -170.490507 
L 297.847366 -170.103707 
L 298.623012 -169.726941 
L 299.398659 -169.359963 
L 300.174305 -169.002532 
L 300.949952 -168.654413 
L 301.725598 -168.315375 
L 302.501244 -167.985193 
L 303.276891 -167.663647 
L 304.052537 -167.350521 
L 304.828183 -167.045605 
L 305.60383 -166.748692 
L 306.379476 -166.459582 
L 307.155122 -166.178077 
L 307.930769 -165.903987 
L 308.706415 -165.637122 
L 309.482062 -165.377299 
L 310.257708 -165.12434 
L 311.033354 -164.87807 
L 311.809001 -164.638318 
L 312.584647 -164.404916 
L 313.360293 -164.177703 
L 314.13594 -163.956518 
L 314.911586 -163.741208 
L 315.687233 -163.531621 
L 316.462879 -163.327609 
L 317.238525 -163.129028 
L 318.014172 -162.935737 
L 318.789818 -162.747599 
L 319.565464 -162.56448 
L 320.341111 -162.386249 
L 321.116757 -162.21278 
L 321.892404 -162.043948 
L 322.66805 -161.879632 
L 323.443696 -161.719713 
L 324.219343 -161.564078 
L 324.994989 -161.412612 
L 325.770635 -161.265207 
L 326.546282 -161.121757 
L 327.321928 -160.982156 
L 328.097575 -160.846304 
L 328.873221 -160.714102 
L 329.648867 -160.585454 
L 330.424514 -160.460265 
L 331.20016 -160.338444 
L 331.975806 -160.219902 
L 332.751453 -160.104553 
L 333.527099 -159.99231 
L 334.302746 -159.883093 
L 335.078392 -159.776821 
L 335.854038 -159.673414 
L 336.629685 -159.572798 
L 337.405331 -159.474898 
L 338.180977 -159.379641 
L 338.956624 -159.286957 
L 339.73227 -159.196778 
L 340.507916 -159.109036 
L 341.283563 -159.023666 
L 342.059209 -158.940605 
L 342.834856 -158.859792 
L 343.610502 -158.781165 
L 344.386148 -158.704667 
L 345.161795 -158.63024 
L 345.937441 -158.557829 
L 346.713087 -158.487379 
L 347.488734 -158.418839 
L 348.26438 -158.352156 
L 349.040027 -158.287282 
L 349.815673 -158.224166 
L 350.591319 -158.162763 
L 351.366966 -158.103026 
L 352.142612 -158.044909 
L 352.918258 -157.98837 
L 353.693905 -157.933366 
L 354.469551 -157.879856 
L 355.245198 -157.827798 
L 356.020844 -157.777155 
L 356.79649 -157.727888 
L 357.572137 -157.679959 
L 358.347783 -157.633333 
L 359.123429 -157.587975 
L 359.899076 -157.543849 
L 360.674722 -157.500924 
L 361.450369 -157.459165 
L 362.226015 -157.418543 
L 363.001661 -157.379025 
L 363.777308 -157.340583 
L 364.552954 -157.303187 
L 365.3286 -157.266809 
L 366.104247 -157.23142 
L 366.879893 -157.196995 
L 367.65554 -157.163508 
L 368.431186 -157.130932 
L 369.206832 -157.099243 
L 369.982479 -157.068417 
L 370.758125 -157.038431 
L 371.533771 -157.009262 
L 372.309418 -156.980887 
L 373.085064 -156.953286 
L 373.86071 -156.926436 
L 374.636357 -156.900319 
L 375.412003 -156.874913 
L 376.18765 -156.850199 
L 376.963296 -156.826159 
L 377.738942 -156.802775 
L 378.514589 -156.780028 
L 379.290235 -156.757901 
L 380.065881 -156.736378 
L 380.841528 -156.715442 
L 381.617174 -156.695076 
L 382.392821 -156.675267 
L 383.168467 -156.655997 
L 383.944113 -156.637253 
L 384.71976 -156.61902 
L 385.495406 -156.601285 
L 386.271052 -156.584034 
L 387.046699 -156.567253 
L 387.822345 -156.550931 
L 388.597992 -156.535053 
L 389.373638 -156.519609 
L 390.149284 -156.504587 
L 390.924931 -156.489974 
L 391.700577 -156.47576 
L 392.476223 -156.461935 
L 393.25187 -156.448486 
L 394.027516 -156.435405 
L 394.803163 -156.422681 
L 395.578809 -156.410304 
L 396.354455 -156.398266 
L 397.130102 -156.386556 
L 397.905748 -156.375165 
L 398.681394 -156.364086 
L 399.457041 -156.353309 
L 400.232687 -156.342827 
L 401.008334 -156.33263 
L 401.78398 -156.322712 
L 402.559626 -156.313066 
L 403.335273 -156.303682 
L 404.110919 -156.294555 
L 404.886565 -156.285677 
L 405.662212 -156.277042 
L 406.437858 -156.268642 
L 407.213504 -156.260472 
L 407.989151 -156.252525 
L 408.764797 -156.244795 
L 409.540444 -156.237277 
L 410.31609 -156.229963 
L 411.091736 -156.22285 
L 411.867383 -156.215931 
L 412.643029 -156.209201 
L 413.418675 -156.202655 
L 414.194322 -156.196287 
L 414.969968 -156.190094 
L 415.745615 -156.18407 
L 416.521261 -156.17821 
L 417.296907 -156.172511 
L 418.072554 -156.166967 
L 418.8482 -156.161575 
L 419.623846 -156.15633 
L 420.399493 -156.151229 
L 421.175139 -156.146266 
L 421.950786 -156.14144 
L 422.726432 -156.136745 
L 423.502078 -156.132179 
L 424.277725 -156.127738 
L 425.053371 -156.123417 
L 425.829017 -156.119215 
L 426.604664 -156.115128 
L 427.38031 -156.111153 
L 428.155957 -156.107286 
L 428.931603 -156.103525 
L 429.707249 -156.099866 
L 430.482896 -156.096308 
L 431.258542 -156.092847 
L 432.034188 -156.08948 
L 432.809835 -156.086206 
L 433.585481 -156.083021 
L 434.361128 -156.079923 
L 435.136774 -156.07691 
L 435.91242 -156.073979 
L 436.688067 -156.071128 
L 437.463713 -156.068355 
L 438.239359 -156.065658 
L 439.015006 -156.063035 
L 439.790652 -156.060483 
L 440.566298 -156.058001 
L 441.341945 -156.055587 
L 442.117591 -156.053239 
L 442.893238 -156.050955 
L 443.668884 -156.048734 
L 444.44453 -156.046573 
L 445.220177 -156.044472 
L 445.995823 -156.042427 
L 446.771469 -156.040439 
L 447.547116 -156.038505 
L 448.322762 -156.036624 
L 449.098409 -156.034795 
L 449.874055 -156.033015 
L 450.649701 -156.031284 
L 451.425348 -156.0296 
L 452.200994 -156.027963 
L 452.97664 -156.02637 
L 453.752287 -156.024821 
L 454.527933 -156.023314 
L 455.30358 -156.021848 
L 456.079226 -156.020422 
L 456.854872 -156.019036 
L 457.630519 -156.017687 
L 458.406165 -156.016375 
L 459.181811 -156.015099 
L 459.957458 -156.013858 
L 460.733104 -156.012651 
L 461.508751 -156.011477 
L 462.284397 -156.010335 
L 463.060043 -156.009224 
L 463.83569 -156.008143 
L 464.611336 -156.007092 
L 465.386982 -156.00607 
L 466.162629 -156.005076 
L 466.938275 -156.004109 
L 467.713921 -156.003168 
L 468.489568 -156.002253 
L 469.265214 -156.001363 
L 470.040861 -156.000498 
L 470.816507 -155.999656 
L 471.592153 -155.998837 
L 472.3678 -155.99804 
L 473.143446 -155.997266 
L 473.919092 -155.996512 
L 474.694739 -155.995779 
L 475.470385 -155.995066 
L 476.246032 -155.994373 
L 477.021678 -155.993698 
L 477.797324 -155.993042 
L 478.572971 -155.992404 
L 479.348617 -155.991784 
L 480.124263 -155.99118 
L 480.89991 -155.990593 
L 481.675556 -155.990022 
L 482.451203 -155.989466 
L 483.226849 -155.988926 
L 484.002495 -155.988401 
L 484.778142 -155.987889 
L 485.553788 -155.987392 
L 486.329434 -155.986909 
L 487.105081 -155.986438 
L 487.880727 -155.985981 
L 488.656374 -155.985536 
L 489.43202 -155.985103 
L 490.207666 -155.984682 
L 490.983313 -155.984273 
L 491.758959 -155.983874 
L 492.534605 -155.983487 
L 493.310252 -155.98311 
L 494.085898 -155.982744 
L 494.861545 -155.982387 
L 495.637191 -155.982041 
L 496.412837 -155.981703 
L 497.188484 -155.981375 
L 497.96413 -155.981056 
L 498.739776 -155.980746 
L 499.515423 -155.980444 
L 500.291069 -155.980151 
L 501.066715 -155.979865 
L 501.842362 -155.979587 
L 502.618008 -155.979317 
L 503.393655 -155.979054 
L 504.169301 -155.978799 
L 504.944947 -155.97855 
L 505.720594 -155.978308 
L 506.49624 -155.978073 
L 507.271886 -155.977844 
L 508.047533 -155.977622 
L 508.823179 -155.977406 
L 509.598826 -155.977195 
L 510.374472 -155.97699 
L 511.150118 -155.976791 
L 511.925765 -155.976597 
L 512.701411 -155.976409 
L 513.477057 -155.976226 
L 514.252704 -155.976048 
L 515.02835 -155.975874 
L 515.803997 -155.975706 
L 516.579643 -155.975542 
L 517.355289 -155.975382 
L 518.130936 -155.975227 
L 518.906582 -155.975076 
L 519.682228 -155.974929 
L 520.457875 -155.974786 
L 521.233521 -155.974648 
L 522.009168 -155.974512 
L 522.784814 -155.974381 
L 523.56046 -155.974253 
L 524.336107 -155.974129 
L 525.111753 -155.974008 
L 525.887399 -155.97389 
L 526.663046 -155.973776 
L 527.438692 -155.973665 
L 528.214339 -155.973557 
L 528.989985 -155.973451 
L 529.765631 -155.973349 
L 530.541278 -155.973249 
L 531.316924 -155.973153 
L 532.09257 -155.973058 
L 532.868217 -155.972967 
L 533.643863 -155.972878 
L 534.419509 -155.972791 
L 535.195156 -155.972707 
L 535.970802 -155.972625 
L 536.746449 -155.972545 
L 537.522095 -155.972467 
L 538.297741 -155.972392 
L 539.073388 -155.972318 
L 539.849034 -155.972247 
L 540.62468 -155.972178 
L 541.400327 -155.97211 
L 542.175973 -155.972044 
L 542.95162 -155.971981 
L 543.727266 -155.971918 
L 544.502912 -155.971858 
L 545.278559 -155.971799 
L 546.054205 -155.971742 
L 546.829851 -155.971686 
L 547.605498 -155.971632 
L 548.381144 -155.97158 
L 549.156791 -155.971528 
L 549.932437 -155.971479 
L 550.708083 -155.97143 
L 551.48373 -155.971383 
L 552.259376 -155.971337 
L 553.035022 -155.971293 
L 553.810669 -155.971249 
L 554.586315 -155.971207 
L 555.361962 -155.971166 
L 556.137608 -155.971126 
L 556.913254 -155.971088 
L 557.688901 -155.97105 
L 558.464547 -155.971013 
L 559.240193 -155.970977 
L 560.01584 -155.970943 
L 560.791486 -155.970909 
L 561.567133 -155.970876 
L 562.342779 -155.970844 
L 563.118425 -155.970813 
L 563.894072 -155.970783 
L 564.669718 -155.970753 
L 565.445364 -155.970725 
L 566.221011 -155.970697 
L 566.996657 -155.97067 
L 567.772303 -155.970644 
L 568.54795 -155.970618 
L 569.323596 -155.970593 
L 570.099243 -155.970569 
L 570.874889 -155.970545 
L 571.650535 -155.970523 
L 572.426182 -155.9705 
L 573.201828 -155.970479 
L 573.977474 -155.970457 
L 574.753121 -155.970437 
L 575.528767 -155.970417 
L 576.304414 -155.970398 
L 577.08006 -155.970379 
L 577.855706 -155.97036 
L 578.631353 -155.970343 
L 579.406999 -155.970325 
L 580.182645 -155.970308 
L 580.958292 -155.970292 
L 581.733938 -155.970276 
L 582.509585 -155.97026 
L 583.285231 -155.970245 
L 584.060877 -155.970231 
L 584.836524 -155.970216 
L 585.61217 -155.970202 
L 586.387816 -155.970189 
L 587.163463 -155.970176 
L 587.939109 -155.970163 
L 588.714756 -155.97015 
L 589.490402 -155.970138 
L 590.266048 -155.970127 
L 591.041695 -155.970115 
L 591.817341 -155.970104 
L 592.592987 -155.970093 
L 593.368634 -155.970083 
L 594.14428 -155.970072 
L 594.919927 -155.970062 
L 595.695573 -155.970053 
L 596.471219 -155.970043 
L 597.246866 -155.970034 
L 598.022512 -155.970025 
L 598.798158 -155.970016 
L 599.573805 -155.970008 
L 600.349451 -155.97 
L 601.125097 -155.969992 
L 601.900744 -155.969984 
L 602.67639 -155.969977 
L 603.452037 -155.969969 
L 604.227683 -155.969962 
L 605.003329 -155.969955 
L 605.778976 -155.969948 
L 606.554622 -155.969942 
L 607.330268 -155.969935 
L 608.105915 -155.969929 
L 608.881561 -155.969923 
L 609.657208 -155.969917 
L 610.432854 -155.969911 
L 611.2085 -155.969906 
L 611.984147 -155.9699 
L 612.759793 -155.969895 
L 613.535439 -155.96989 
L 614.311086 -155.969885 
L 615.086732 -155.96988 
L 615.862379 -155.969875 
L 616.638025 -155.969871 
L 617.413671 -155.969866 
L 618.189318 -155.969862 
L 618.964964 -155.969858 
L 619.74061 -155.969854 
L 620.516257 -155.96985 
L 621.291903 -155.969846 
L 622.06755 -155.969842 
L 622.843196 -155.969838 
L 623.618842 -155.969835 
L 624.394489 -155.969831 
L 624.394489 -166.656994 
L 624.394489 -166.656994 
L 623.618842 -166.76277 
L 622.843196 -166.869572 
L 622.06755 -166.977409 
L 621.291903 -167.08629 
L 620.516257 -167.196225 
L 619.74061 -167.307225 
L 618.964964 -167.419298 
L 618.189318 -167.532455 
L 617.413671 -167.646706 
L 616.638025 -167.762061 
L 615.862379 -167.87853 
L 615.086732 -167.996123 
L 614.311086 -168.11485 
L 613.535439 -168.234723 
L 612.759793 -168.35575 
L 611.984147 -168.477944 
L 611.2085 -168.601315 
L 610.432854 -168.725873 
L 609.657208 -168.85163 
L 608.881561 -168.978596 
L 608.105915 -169.106782 
L 607.330268 -169.236199 
L 606.554622 -169.366859 
L 605.778976 -169.498773 
L 605.003329 -169.631952 
L 604.227683 -169.766408 
L 603.452037 -169.902152 
L 602.67639 -170.039195 
L 601.900744 -170.177551 
L 601.125097 -170.31723 
L 600.349451 -170.458244 
L 599.573805 -170.600606 
L 598.798158 -170.744327 
L 598.022512 -170.889419 
L 597.246866 -171.035896 
L 596.471219 -171.183769 
L 595.695573 -171.333051 
L 594.919927 -171.483754 
L 594.14428 -171.635891 
L 593.368634 -171.789475 
L 592.592987 -171.944519 
L 591.817341 -172.101036 
L 591.041695 -172.259038 
L 590.266048 -172.418538 
L 589.490402 -172.579551 
L 588.714756 -172.74209 
L 587.939109 -172.906167 
L 587.163463 -173.071797 
L 586.387816 -173.238992 
L 585.61217 -173.407768 
L 584.836524 -173.578137 
L 584.060877 -173.750113 
L 583.285231 -173.923711 
L 582.509585 -174.098945 
L 581.733938 -174.275829 
L 580.958292 -174.454377 
L 580.182645 -174.634603 
L 579.406999 -174.816523 
L 578.631353 -175.000151 
L 577.855706 -175.185501 
L 577.08006 -175.372589 
L 576.304414 -175.56143 
L 575.528767 -175.752037 
L 574.753121 -175.944427 
L 573.977474 -176.138615 
L 573.201828 -176.334616 
L 572.426182 -176.532446 
L 571.650535 -176.73212 
L 570.874889 -176.933654 
L 570.099243 -177.137063 
L 569.323596 -177.342363 
L 568.54795 -177.549571 
L 567.772303 -177.758702 
L 566.996657 -177.969773 
L 566.221011 -178.1828 
L 565.445364 -178.397799 
L 564.669718 -178.614786 
L 563.894072 -178.833779 
L 563.118425 -179.054793 
L 562.342779 -179.277847 
L 561.567133 -179.502955 
L 560.791486 -179.730136 
L 560.01584 -179.959407 
L 559.240193 -180.190785 
L 558.464547 -180.424286 
L 557.688901 -180.659929 
L 556.913254 -180.89773 
L 556.137608 -181.137708 
L 555.361962 -181.37988 
L 554.586315 -181.624264 
L 553.810669 -181.870878 
L 553.035022 -182.119739 
L 552.259376 -182.370865 
L 551.48373 -182.624276 
L 550.708083 -182.879989 
L 549.932437 -183.138022 
L 549.156791 -183.398394 
L 548.381144 -183.661124 
L 547.605498 -183.926229 
L 546.829851 -184.193729 
L 546.054205 -184.463643 
L 545.278559 -184.735989 
L 544.502912 -185.010787 
L 543.727266 -185.288055 
L 542.95162 -185.567813 
L 542.175973 -185.85008 
L 541.400327 -186.134875 
L 540.62468 -186.422218 
L 539.849034 -186.712129 
L 539.073388 -187.004626 
L 538.297741 -187.299729 
L 537.522095 -187.597459 
L 536.746449 -187.897835 
L 535.970802 -188.200877 
L 535.195156 -188.506606 
L 534.419509 -188.81504 
L 533.643863 -189.126201 
L 532.868217 -189.440108 
L 532.09257 -189.756782 
L 531.316924 -190.076243 
L 530.541278 -190.398512 
L 529.765631 -190.723609 
L 528.989985 -191.051555 
L 528.214339 -191.38237 
L 527.438692 -191.716075 
L 526.663046 -192.052692 
L 525.887399 -192.39224 
L 525.111753 -192.73474 
L 524.336107 -193.080214 
L 523.56046 -193.428682 
L 522.784814 -193.780166 
L 522.009168 -194.134687 
L 521.233521 -194.492265 
L 520.457875 -194.852923 
L 519.682228 -195.21668 
L 518.906582 -195.583559 
L 518.130936 -195.953581 
L 517.355289 -196.326767 
L 516.579643 -196.703138 
L 515.803997 -197.082717 
L 515.02835 -197.465524 
L 514.252704 -197.85158 
L 513.477057 -198.240908 
L 512.701411 -198.633529 
L 511.925765 -199.029464 
L 511.150118 -199.428735 
L 510.374472 -199.831363 
L 509.598826 -200.23737 
L 508.823179 -200.646778 
L 508.047533 -201.059608 
L 507.271886 -201.475882 
L 506.49624 -201.895621 
L 505.720594 -202.318847 
L 504.944947 -202.745581 
L 504.169301 -203.175845 
L 503.393655 -203.60966 
L 502.618008 -204.047048 
L 501.842362 -204.488031 
L 501.066715 -204.932629 
L 500.291069 -205.380864 
L 499.515423 -205.832758 
L 498.739776 -206.288332 
L 497.96413 -206.747606 
L 497.188484 -207.210603 
L 496.412837 -207.677343 
L 495.637191 -208.147848 
L 494.861545 -208.622138 
L 494.085898 -209.100234 
L 493.310252 -209.582158 
L 492.534605 -210.067931 
L 491.758959 -210.557572 
L 490.983313 -211.051102 
L 490.207666 -211.548543 
L 489.43202 -212.049914 
L 488.656374 -212.555236 
L 487.880727 -213.064528 
L 487.105081 -213.577813 
L 486.329434 -214.095108 
L 485.553788 -214.616434 
L 484.778142 -215.141811 
L 484.002495 -215.671258 
L 483.226849 -216.204795 
L 482.451203 -216.742442 
L 481.675556 -217.284216 
L 480.89991 -217.830138 
L 480.124263 -218.380225 
L 479.348617 -218.934498 
L 478.572971 -219.492973 
L 477.797324 -220.05567 
L 477.021678 -220.622606 
L 476.246032 -221.193799 
L 475.470385 -221.769268 
L 474.694739 -222.349029 
L 473.919092 -222.9331 
L 473.143446 -223.521497 
L 472.3678 -224.114238 
L 471.592153 -224.711338 
L 470.816507 -225.312815 
L 470.040861 -225.918684 
L 469.265214 -226.528961 
L 468.489568 -227.143662 
L 467.713921 -227.762801 
L 466.938275 -228.386393 
L 466.162629 -229.014454 
L 465.386982 -229.646997 
L 464.611336 -230.284036 
L 463.83569 -230.925586 
L 463.060043 -231.571659 
L 462.284397 -232.222268 
L 461.508751 -232.877426 
L 460.733104 -233.537145 
L 459.957458 -234.201438 
L 459.181811 -234.870315 
L 458.406165 -235.543788 
L 457.630519 -236.221867 
L 456.854872 -236.904564 
L 456.079226 -237.591887 
L 455.30358 -238.283847 
L 454.527933 -238.980453 
L 453.752287 -239.681712 
L 452.97664 -240.387635 
L 452.200994 -241.098227 
L 451.425348 -241.813497 
L 450.649701 -242.533451 
L 449.874055 -243.258096 
L 449.098409 -243.987438 
L 448.322762 -244.721481 
L 447.547116 -245.460231 
L 446.771469 -246.203692 
L 445.995823 -246.951868 
L 445.220177 -247.704762 
L 444.44453 -248.462376 
L 443.668884 -249.224713 
L 442.893238 -249.991774 
L 442.117591 -250.76356 
L 441.341945 -251.540072 
L 440.566298 -252.321309 
L 439.790652 -253.10727 
L 439.015006 -253.897954 
L 438.239359 -254.693358 
L 437.463713 -255.49348 
L 436.688067 -256.298317 
L 435.91242 -257.107864 
L 435.136774 -257.922116 
L 434.361128 -258.741068 
L 433.585481 -259.564713 
L 432.809835 -260.393046 
L 432.034188 -261.226057 
L 431.258542 -262.06374 
L 430.482896 -262.906084 
L 429.707249 -263.753079 
L 428.931603 -264.604716 
L 428.155957 -265.460982 
L 427.38031 -266.321866 
L 426.604664 -267.187355 
L 425.829017 -268.057434 
L 425.053371 -268.93209 
L 424.277725 -269.811306 
L 423.502078 -270.695067 
L 422.726432 -271.583355 
L 421.950786 -272.476152 
L 421.175139 -273.37344 
L 420.399493 -274.275199 
L 419.623846 -275.181409 
L 418.8482 -276.092047 
L 418.072554 -277.007092 
L 417.296907 -277.92652 
L 416.521261 -278.850307 
L 415.745615 -279.778427 
L 414.969968 -280.710856 
L 414.194322 -281.647565 
L 413.418675 -282.588527 
L 412.643029 -283.533714 
L 411.867383 -284.483094 
L 411.091736 -285.436637 
L 410.31609 -286.394311 
L 409.540444 -287.356084 
L 408.764797 -288.321921 
L 407.989151 -289.291788 
L 407.213504 -290.265649 
L 406.437858 -291.243466 
L 405.662212 -292.225203 
L 404.886565 -293.210819 
L 404.110919 -294.200275 
L 403.335273 -295.19353 
L 402.559626 -296.190542 
L 401.78398 -297.191268 
L 401.008334 -298.195662 
L 400.232687 -299.203681 
L 399.457041 -300.215277 
L 398.681394 -301.230404 
L 397.905748 -302.249012 
L 397.130102 -303.271052 
L 396.354455 -304.296474 
L 395.578809 -305.325225 
L 394.803163 -306.357253 
L 394.027516 -307.392504 
L 393.25187 -308.430922 
L 392.476223 -309.472453 
L 391.700577 -310.517037 
L 390.924931 -311.564618 
L 390.149284 -312.615135 
L 389.373638 -313.668529 
L 388.597992 -314.724737 
L 387.822345 -315.783696 
L 387.046699 -316.845344 
L 386.271052 -317.909616 
L 385.495406 -318.976444 
L 384.71976 -320.045763 
L 383.944113 -321.117503 
L 383.168467 -322.191597 
L 382.392821 -323.267974 
L 381.617174 -324.346562 
L 380.841528 -325.427289 
L 380.065881 -326.510082 
L 379.290235 -327.594866 
L 378.514589 -328.681566 
L 377.738942 -329.770105 
L 376.963296 -330.860407 
L 376.18765 -331.952391 
L 375.412003 -333.045979 
L 374.636357 -334.141091 
L 373.86071 -335.237644 
L 373.085064 -336.335557 
L 372.309418 -337.434745 
L 371.533771 -338.535126 
L 370.758125 -339.636612 
L 369.982479 -340.739119 
L 369.206832 -341.842559 
L 368.431186 -342.946845 
L 367.65554 -344.051886 
L 366.879893 -345.157595 
L 366.104247 -346.263879 
L 365.3286 -347.370649 
L 364.552954 -348.477811 
L 363.777308 -349.585273 
L 363.001661 -350.692942 
L 362.226015 -351.800722 
L 361.450369 -352.908519 
L 360.674722 -354.016237 
L 359.899076 -355.123779 
L 359.123429 -356.231049 
L 358.347783 -357.337948 
L 357.572137 -358.444378 
L 356.79649 -359.550241 
L 356.020844 -360.655436 
L 355.245198 -361.759863 
L 354.469551 -362.863423 
L 353.693905 -363.966014 
L 352.918258 -365.067534 
L 352.142612 -366.167882 
L 351.366966 -367.266955 
L 350.591319 -368.364651 
L 349.815673 -369.460866 
L 349.040027 -370.555498 
L 348.26438 -371.648443 
L 347.488734 -372.739596 
L 346.713087 -373.828854 
L 345.937441 -374.916113 
L 345.161795 -376.001268 
L 344.386148 -377.084215 
L 343.610502 -378.164848 
L 342.834856 -379.243065 
L 342.059209 -380.318759 
L 341.283563 -381.391826 
L 340.507916 -382.462162 
L 339.73227 -383.529662 
L 338.956624 -384.594222 
L 338.180977 -385.655738 
L 337.405331 -386.714105 
L 336.629685 -387.76922 
L 335.854038 -388.820979 
L 335.078392 -389.86928 
L 334.302746 -390.914019 
L 333.527099 -391.955093 
L 332.751453 -392.992402 
L 331.975806 -394.025843 
L 331.20016 -395.055316 
L 330.424514 -396.080719 
L 329.648867 -397.101953 
L 328.873221 -398.118919 
L 328.097575 -399.131517 
L 327.321928 -400.139651 
L 326.546282 -401.143222 
L 325.770635 -402.142134 
L 324.994989 -403.136292 
L 324.219343 -404.125601 
L 323.443696 -405.109966 
L 322.66805 -406.089296 
L 321.892404 -407.063497 
L 321.116757 -408.032479 
L 320.341111 -408.996151 
L 319.565464 -409.954426 
L 318.789818 -410.907215 
L 318.014172 -411.854431 
L 317.238525 -412.795989 
L 316.462879 -413.731805 
L 315.687233 -414.661796 
L 314.911586 -415.585879 
L 314.13594 -416.503976 
L 313.360293 -417.416006 
L 312.584647 -418.321893 
L 311.809001 -419.221559 
L 311.033354 -420.114931 
L 310.257708 -421.001936 
L 309.482062 -421.882501 
L 308.706415 -422.756556 
L 307.930769 -423.624033 
L 307.155122 -424.484866 
L 306.379476 -425.338988 
L 305.60383 -426.186337 
L 304.828183 -427.02685 
L 304.052537 -427.860468 
L 303.276891 -428.687132 
L 302.501244 -429.506785 
L 301.725598 -430.319373 
L 300.949952 -431.124843 
L 300.174305 -431.923144 
L 299.398659 -432.714226 
L 298.623012 -433.498043 
L 297.847366 -434.274549 
L 297.07172 -435.0437 
L 296.296073 -435.805455 
L 295.520427 -436.559775 
L 294.744781 -437.306621 
L 293.969134 -438.045959 
L 293.193488 -438.777755 
L 292.417841 -439.501978 
L 291.642195 -440.218597 
L 290.866549 -440.927585 
L 290.090902 -441.628917 
L 289.315256 -442.322571 
L 288.53961 -443.008523 
L 287.763963 -443.686756 
L 286.988317 -444.357251 
L 286.21267 -445.019995 
L 285.437024 -445.674973 
L 284.661378 -446.322175 
L 283.885731 -446.961593 
L 283.110085 -447.593219 
L 282.334439 -448.217048 
L 281.558792 -448.833079 
L 280.783146 -449.44131 
L 280.007499 -450.041742 
L 279.231853 -450.63438 
L 278.456207 -451.219229 
L 277.68056 -451.796297 
L 276.904914 -452.365592 
L 276.129268 -452.927126 
L 275.353621 -453.480914 
L 274.577975 -454.02697 
L 273.802329 -454.565311 
L 273.026682 -455.095958 
L 272.251036 -455.618931 
L 271.475389 -456.134254 
L 270.699743 -456.641952 
L 269.924097 -457.14205 
L 269.14845 -457.634579 
L 268.372804 -458.119569 
L 267.597158 -458.597051 
L 266.821511 -459.06706 
L 266.045865 -459.529631 
L 265.270218 -459.984803 
L 264.494572 -460.432613 
L 263.718926 -460.873102 
L 262.943279 -461.306314 
L 262.167633 -461.732291 
L 261.391987 -462.151079 
L 260.61634 -462.562725 
L 259.840694 -462.967277 
L 259.065047 -463.364785 
L 258.289401 -463.7553 
L 257.513755 -464.138874 
L 256.738108 -464.515562 
L 255.962462 -464.885419 
L 255.186816 -465.248501 
L 254.411169 -465.604864 
L 253.635523 -465.954569 
L 252.859876 -466.297675 
L 252.08423 -466.634243 
L 251.308584 -466.964335 
L 250.532937 -467.288014 
L 249.757291 -467.605344 
L 248.981645 -467.91639 
L 248.205998 -468.221217 
L 247.430352 -468.519892 
L 246.654705 -468.812483 
L 245.879059 -469.099058 
L 245.103413 -469.379686 
L 244.327766 -469.654436 
L 243.55212 -469.923378 
L 242.776474 -470.186584 
L 242.000827 -470.444124 
L 241.225181 -470.696071 
L 240.449535 -470.942497 
L 239.673888 -471.183474 
L 238.898242 -471.419077 
L 238.122595 -471.649377 
L 237.346949 -471.87445 
L 236.571303 -472.094368 
L 235.795656 -472.309208 
L 235.02001 -472.519042 
L 234.244364 -472.723945 
L 233.468717 -472.923993 
L 232.693071 -473.11926 
L 231.917424 -473.309821 
L 231.141778 -473.495751 
L 230.366132 -473.677124 
L 229.590485 -473.854015 
L 228.814839 -474.0265 
L 228.039193 -474.194651 
L 227.263546 -474.358545 
L 226.4879 -474.518254 
L 225.712253 -474.673852 
L 224.936607 -474.825413 
L 224.160961 -474.973011 
L 223.385314 -475.116718 
L 222.609668 -475.256607 
L 221.834022 -475.392749 
L 221.058375 -475.525217 
L 220.282729 -475.654082 
L 219.507082 -475.779415 
L 218.731436 -475.901285 
L 217.95579 -476.019763 
L 217.180143 -476.134918 
L 216.404497 -476.246818 
L 215.628851 -476.355531 
L 214.853204 -476.461125 
L 214.077558 -476.563667 
L 213.301911 -476.663222 
L 212.526265 -476.759856 
L 211.750619 -476.853634 
L 210.974972 -476.94462 
L 210.199326 -477.032877 
L 209.42368 -477.118467 
L 208.648033 -477.201452 
L 207.872387 -477.281894 
L 207.096741 -477.359852 
L 206.321094 -477.435386 
L 205.545448 -477.508555 
L 204.769801 -477.579416 
L 203.994155 -477.648026 
L 203.218509 -477.714441 
L 202.442862 -477.778717 
L 201.667216 -477.840908 
L 200.89157 -477.901067 
L 200.115923 -477.959248 
L 199.340277 -478.015501 
L 198.56463 -478.069879 
L 197.788984 -478.122431 
L 197.013338 -478.173206 
L 196.237691 -478.222253 
L 195.462045 -478.269619 
L 194.686399 -478.315351 
L 193.910752 -478.359494 
L 193.135106 -478.402094 
L 192.359459 -478.443193 
L 191.583813 -478.482836 
L 190.808167 -478.521064 
L 190.03252 -478.557919 
L 189.256874 -478.593442 
L 188.481228 -478.627671 
L 187.705581 -478.660646 
L 186.929935 -478.692404 
L 186.154288 -478.722983 
L 185.378642 -478.752419 
L 184.602996 -478.780747 
L 183.827349 -478.808001 
L 183.051703 -478.834217 
L 182.276057 -478.859426 
L 181.50041 -478.88366 
L 180.724764 -478.906952 
L 179.949117 -478.929331 
L 179.173471 -478.950828 
L 178.397825 -478.971471 
L 177.622178 -478.99129 
L 176.846532 -479.01031 
L 176.070886 -479.02856 
L 175.295239 -479.046065 
L 174.519593 -479.062851 
L 173.743947 -479.078942 
L 172.9683 -479.094362 
L 172.192654 -479.109136 
L 171.417007 -479.123284 
L 170.641361 -479.13683 
L 169.865715 -479.149795 
L 169.090068 -479.162199 
L 168.314422 -479.174062 
L 167.538776 -479.185405 
L 166.763129 -479.196245 
L 165.987483 -479.206601 
L 165.211836 -479.21649 
L 164.43619 -479.225931 
L 163.660544 -479.234938 
L 162.884897 -479.243529 
L 162.109251 -479.251718 
L 161.333605 -479.259521 
L 160.557958 -479.266951 
L 159.782312 -479.274023 
L 159.006665 -479.28075 
L 158.231019 -479.287143 
L 157.455373 -479.293217 
L 156.679726 -479.298982 
L 155.90408 -479.304449 
L 155.128434 -479.309629 
L 154.352787 -479.314533 
L 153.577141 -479.319169 
L 152.801494 -479.323547 
L 152.025848 -479.327675 
L 151.250202 -479.331562 
L 150.474555 -479.335214 
L 149.698909 -479.338638 
L 148.923263 -479.34184 
L 148.147616 -479.344827 
L 147.37197 -479.347601 
L 146.596323 -479.350167 
L 145.820677 -479.352529 
L 145.045031 -479.354687 
L 144.269384 -479.356642 
L 143.493738 -479.358394 
L 142.718092 -479.359941 
L 141.942445 -479.361278 
L 141.166799 -479.362401 
L 140.391153 -479.363299 
L 139.615506 -479.363963 
L 138.83986 -479.364376 
L 138.064213 -479.364519 
L 137.288567 -479.364366 
L 136.512921 -479.364136 
L 135.737274 -479.364475 
L 134.961628 -479.364473 
L 134.185982 -479.364088 
L 133.410335 -479.364304 
L 132.634689 -479.364519 
L 131.859042 -479.364282 
L 131.083396 -479.363916 
L 130.30775 -479.364448 
L 129.532103 -479.364444 
L 128.756457 -479.363794 
L 127.980811 -479.364151 
L 127.205164 -479.364519 
L 126.429518 -479.364085 
L 125.653871 -479.362601 
L 124.878225 -479.359682 
L 124.102579 -479.354697 
L 123.326932 -479.346568 
L 122.551286 -479.333327 
L 121.77564 -479.311105 
L 120.999993 -479.271538 
L 120.224347 -479.194192 
L 119.4487 -479.020353 
L 118.673054 -478.538634 
L 117.897408 -476.684687 
L 117.121761 -464.06096 
z
" style="stroke: #1f77b4; stroke-opacity: 0.3"/>
    </defs>
    <g clip-path="url(#p72f5c78225)">
     <use xlink:href="#m8bf7586dd7" x="0" y="540.100875" style="fill: #1f77b4; fill-opacity: 0.3; stroke: #1f77b4; stroke-opacity: 0.3"/>
    </g>
   </g>
   <g id="matplotlib.axis_1">
    <g id="xtick_1">
     <g id="line2d_1">
      <defs>
       <path id="me074b0c6fc" d="M 0 0 
L 0 3.5 
" style="stroke: #000000; stroke-width: 0.8"/>
      </defs>
      <g>
       <use xlink:href="#me074b0c6fc" x="116.346115" y="416.476875" style="stroke: #000000; stroke-width: 0.8"/>
      </g>
     </g>
     <g id="text_1">
      <!-- 0 -->
      <g transform="translate(109.983615 438.67375)scale(0.2 -0.2)">
       <defs>
        <path id="DejaVuSans-30" d="M 2034 4250 
Q 1547 4250 1301 3770 
Q 1056 3291 1056 2328 
Q 1056 1369 1301 889 
Q 1547 409 2034 409 
Q 2525 409 2770 889 
Q 3016 1369 3016 2328 
Q 3016 3291 2770 3770 
Q 2525 4250 2034 4250 
z
M 2034 4750 
Q 2819 4750 3233 4129 
Q 3647 3509 3647 2328 
Q 3647 1150 3233 529 
Q 2819 -91 2034 -91 
Q 1250 -91 836 529 
Q 422 1150 422 2328 
Q 422 3509 836 4129 
Q 1250 4750 2034 4750 
z
" transform="scale(0.015625)"/>
       </defs>
       <use xlink:href="#DejaVuSans-30"/>
      </g>
     </g>
    </g>
    <g id="xtick_2">
     <g id="line2d_2">
      <g>
       <use xlink:href="#me074b0c6fc" x="193.910752" y="416.476875" style="stroke: #000000; stroke-width: 0.8"/>
      </g>
     </g>
     <g id="text_2">
      <!-- 100 -->
      <g transform="translate(174.823252 438.67375)scale(0.2 -0.2)">
       <defs>
        <path id="DejaVuSans-31" d="M 794 531 
L 1825 531 
L 1825 4091 
L 703 3866 
L 703 4441 
L 1819 4666 
L 2450 4666 
L 2450 531 
L 3481 531 
L 3481 0 
L 794 0 
L 794 531 
z
" transform="scale(0.015625)"/>
       </defs>
       <use xlink:href="#DejaVuSans-31"/>
       <use xlink:href="#DejaVuSans-30" x="63.623047"/>
       <use xlink:href="#DejaVuSans-30" x="127.246094"/>
      </g>
     </g>
    </g>
    <g id="xtick_3">
     <g id="line2d_3">
      <g>
       <use xlink:href="#me074b0c6fc" x="271.475389" y="416.476875" style="stroke: #000000; stroke-width: 0.8"/>
      </g>
     </g>
     <g id="text_3">
      <!-- 200 -->
      <g transform="translate(252.387889 438.67375)scale(0.2 -0.2)">
       <defs>
        <path id="DejaVuSans-32" d="M 1228 531 
L 3431 531 
L 3431 0 
L 469 0 
L 469 531 
Q 828 903 1448 1529 
Q 2069 2156 2228 2338 
Q 2531 2678 2651 2914 
Q 2772 3150 2772 3378 
Q 2772 3750 2511 3984 
Q 2250 4219 1831 4219 
Q 1534 4219 1204 4116 
Q 875 4013 500 3803 
L 500 4441 
Q 881 4594 1212 4672 
Q 1544 4750 1819 4750 
Q 2544 4750 2975 4387 
Q 3406 4025 3406 3419 
Q 3406 3131 3298 2873 
Q 3191 2616 2906 2266 
Q 2828 2175 2409 1742 
Q 1991 1309 1228 531 
z
" transform="scale(0.015625)"/>
       </defs>
       <use xlink:href="#DejaVuSans-32"/>
       <use xlink:href="#DejaVuSans-30" x="63.623047"/>
       <use xlink:href="#DejaVuSans-30" x="127.246094"/>
      </g>
     </g>
    </g>
    <g id="xtick_4">
     <g id="line2d_4">
      <g>
       <use xlink:href="#me074b0c6fc" x="349.040027" y="416.476875" style="stroke: #000000; stroke-width: 0.8"/>
      </g>
     </g>
     <g id="text_4">
      <!-- 300 -->
      <g transform="translate(329.952527 438.67375)scale(0.2 -0.2)">
       <defs>
        <path id="DejaVuSans-33" d="M 2597 2516 
Q 3050 2419 3304 2112 
Q 3559 1806 3559 1356 
Q 3559 666 3084 287 
Q 2609 -91 1734 -91 
Q 1441 -91 1130 -33 
Q 819 25 488 141 
L 488 750 
Q 750 597 1062 519 
Q 1375 441 1716 441 
Q 2309 441 2620 675 
Q 2931 909 2931 1356 
Q 2931 1769 2642 2001 
Q 2353 2234 1838 2234 
L 1294 2234 
L 1294 2753 
L 1863 2753 
Q 2328 2753 2575 2939 
Q 2822 3125 2822 3475 
Q 2822 3834 2567 4026 
Q 2313 4219 1838 4219 
Q 1578 4219 1281 4162 
Q 984 4106 628 3988 
L 628 4550 
Q 988 4650 1302 4700 
Q 1616 4750 1894 4750 
Q 2613 4750 3031 4423 
Q 3450 4097 3450 3541 
Q 3450 3153 3228 2886 
Q 3006 2619 2597 2516 
z
" transform="scale(0.015625)"/>
       </defs>
       <use xlink:href="#DejaVuSans-33"/>
       <use xlink:href="#DejaVuSans-30" x="63.623047"/>
       <use xlink:href="#DejaVuSans-30" x="127.246094"/>
      </g>
     </g>
    </g>
    <g id="xtick_5">
     <g id="line2d_5">
      <g>
       <use xlink:href="#me074b0c6fc" x="426.604664" y="416.476875" style="stroke: #000000; stroke-width: 0.8"/>
      </g>
     </g>
     <g id="text_5">
      <!-- 400 -->
      <g transform="translate(407.517164 438.67375)scale(0.2 -0.2)">
       <defs>
        <path id="DejaVuSans-34" d="M 2419 4116 
L 825 1625 
L 2419 1625 
L 2419 4116 
z
M 2253 4666 
L 3047 4666 
L 3047 1625 
L 3713 1625 
L 3713 1100 
L 3047 1100 
L 3047 0 
L 2419 0 
L 2419 1100 
L 313 1100 
L 313 1709 
L 2253 4666 
z
" transform="scale(0.015625)"/>
       </defs>
       <use xlink:href="#DejaVuSans-34"/>
       <use xlink:href="#DejaVuSans-30" x="63.623047"/>
       <use xlink:href="#DejaVuSans-30" x="127.246094"/>
      </g>
     </g>
    </g>
    <g id="xtick_6">
     <g id="line2d_6">
      <g>
       <use xlink:href="#me074b0c6fc" x="504.169301" y="416.476875" style="stroke: #000000; stroke-width: 0.8"/>
      </g>
     </g>
     <g id="text_6">
      <!-- 500 -->
      <g transform="translate(485.081801 438.67375)scale(0.2 -0.2)">
       <defs>
        <path id="DejaVuSans-35" d="M 691 4666 
L 3169 4666 
L 3169 4134 
L 1269 4134 
L 1269 2991 
Q 1406 3038 1543 3061 
Q 1681 3084 1819 3084 
Q 2600 3084 3056 2656 
Q 3513 2228 3513 1497 
Q 3513 744 3044 326 
Q 2575 -91 1722 -91 
Q 1428 -91 1123 -41 
Q 819 9 494 109 
L 494 744 
Q 775 591 1075 516 
Q 1375 441 1709 441 
Q 2250 441 2565 725 
Q 2881 1009 2881 1497 
Q 2881 1984 2565 2268 
Q 2250 2553 1709 2553 
Q 1456 2553 1204 2497 
Q 953 2441 691 2322 
L 691 4666 
z
" transform="scale(0.015625)"/>
       </defs>
       <use xlink:href="#DejaVuSans-35"/>
       <use xlink:href="#DejaVuSans-30" x="63.623047"/>
       <use xlink:href="#DejaVuSans-30" x="127.246094"/>
      </g>
     </g>
    </g>
    <g id="xtick_7">
     <g id="line2d_7">
      <g>
       <use xlink:href="#me074b0c6fc" x="581.733938" y="416.476875" style="stroke: #000000; stroke-width: 0.8"/>
      </g>
     </g>
     <g id="text_7">
      <!-- 600 -->
      <g transform="translate(562.646438 438.67375)scale(0.2 -0.2)">
       <defs>
        <path id="DejaVuSans-36" d="M 2113 2584 
Q 1688 2584 1439 2293 
Q 1191 2003 1191 1497 
Q 1191 994 1439 701 
Q 1688 409 2113 409 
Q 2538 409 2786 701 
Q 3034 994 3034 1497 
Q 3034 2003 2786 2293 
Q 2538 2584 2113 2584 
z
M 3366 4563 
L 3366 3988 
Q 3128 4100 2886 4159 
Q 2644 4219 2406 4219 
Q 1781 4219 1451 3797 
Q 1122 3375 1075 2522 
Q 1259 2794 1537 2939 
Q 1816 3084 2150 3084 
Q 2853 3084 3261 2657 
Q 3669 2231 3669 1497 
Q 3669 778 3244 343 
Q 2819 -91 2113 -91 
Q 1303 -91 875 529 
Q 447 1150 447 2328 
Q 447 3434 972 4092 
Q 1497 4750 2381 4750 
Q 2619 4750 2861 4703 
Q 3103 4656 3366 4563 
z
" transform="scale(0.015625)"/>
       </defs>
       <use xlink:href="#DejaVuSans-36"/>
       <use xlink:href="#DejaVuSans-30" x="63.623047"/>
       <use xlink:href="#DejaVuSans-30" x="127.246094"/>
      </g>
     </g>
    </g>
    <g id="text_8">
     <!-- Days since antigen exposure -->
     <g transform="translate(226.337813 462.03)scale(0.2 -0.2)">
      <defs>
       <path id="DejaVuSans-44" d="M 1259 4147 
L 1259 519 
L 2022 519 
Q 2988 519 3436 956 
Q 3884 1394 3884 2338 
Q 3884 3275 3436 3711 
Q 2988 4147 2022 4147 
L 1259 4147 
z
M 628 4666 
L 1925 4666 
Q 3281 4666 3915 4102 
Q 4550 3538 4550 2338 
Q 4550 1131 3912 565 
Q 3275 0 1925 0 
L 628 0 
L 628 4666 
z
" transform="scale(0.015625)"/>
       <path id="DejaVuSans-61" d="M 2194 1759 
Q 1497 1759 1228 1600 
Q 959 1441 959 1056 
Q 959 750 1161 570 
Q 1363 391 1709 391 
Q 2188 391 2477 730 
Q 2766 1069 2766 1631 
L 2766 1759 
L 2194 1759 
z
M 3341 1997 
L 3341 0 
L 2766 0 
L 2766 531 
Q 2569 213 2275 61 
Q 1981 -91 1556 -91 
Q 1019 -91 701 211 
Q 384 513 384 1019 
Q 384 1609 779 1909 
Q 1175 2209 1959 2209 
L 2766 2209 
L 2766 2266 
Q 2766 2663 2505 2880 
Q 2244 3097 1772 3097 
Q 1472 3097 1187 3025 
Q 903 2953 641 2809 
L 641 3341 
Q 956 3463 1253 3523 
Q 1550 3584 1831 3584 
Q 2591 3584 2966 3190 
Q 3341 2797 3341 1997 
z
" transform="scale(0.015625)"/>
       <path id="DejaVuSans-79" d="M 2059 -325 
Q 1816 -950 1584 -1140 
Q 1353 -1331 966 -1331 
L 506 -1331 
L 506 -850 
L 844 -850 
Q 1081 -850 1212 -737 
Q 1344 -625 1503 -206 
L 1606 56 
L 191 3500 
L 800 3500 
L 1894 763 
L 2988 3500 
L 3597 3500 
L 2059 -325 
z
" transform="scale(0.015625)"/>
       <path id="DejaVuSans-73" d="M 2834 3397 
L 2834 2853 
Q 2591 2978 2328 3040 
Q 2066 3103 1784 3103 
Q 1356 3103 1142 2972 
Q 928 2841 928 2578 
Q 928 2378 1081 2264 
Q 1234 2150 1697 2047 
L 1894 2003 
Q 2506 1872 2764 1633 
Q 3022 1394 3022 966 
Q 3022 478 2636 193 
Q 2250 -91 1575 -91 
Q 1294 -91 989 -36 
Q 684 19 347 128 
L 347 722 
Q 666 556 975 473 
Q 1284 391 1588 391 
Q 1994 391 2212 530 
Q 2431 669 2431 922 
Q 2431 1156 2273 1281 
Q 2116 1406 1581 1522 
L 1381 1569 
Q 847 1681 609 1914 
Q 372 2147 372 2553 
Q 372 3047 722 3315 
Q 1072 3584 1716 3584 
Q 2034 3584 2315 3537 
Q 2597 3491 2834 3397 
z
" transform="scale(0.015625)"/>
       <path id="DejaVuSans-20" transform="scale(0.015625)"/>
       <path id="DejaVuSans-69" d="M 603 3500 
L 1178 3500 
L 1178 0 
L 603 0 
L 603 3500 
z
M 603 4863 
L 1178 4863 
L 1178 4134 
L 603 4134 
L 603 4863 
z
" transform="scale(0.015625)"/>
       <path id="DejaVuSans-6e" d="M 3513 2113 
L 3513 0 
L 2938 0 
L 2938 2094 
Q 2938 2591 2744 2837 
Q 2550 3084 2163 3084 
Q 1697 3084 1428 2787 
Q 1159 2491 1159 1978 
L 1159 0 
L 581 0 
L 581 3500 
L 1159 3500 
L 1159 2956 
Q 1366 3272 1645 3428 
Q 1925 3584 2291 3584 
Q 2894 3584 3203 3211 
Q 3513 2838 3513 2113 
z
" transform="scale(0.015625)"/>
       <path id="DejaVuSans-63" d="M 3122 3366 
L 3122 2828 
Q 2878 2963 2633 3030 
Q 2388 3097 2138 3097 
Q 1578 3097 1268 2742 
Q 959 2388 959 1747 
Q 959 1106 1268 751 
Q 1578 397 2138 397 
Q 2388 397 2633 464 
Q 2878 531 3122 666 
L 3122 134 
Q 2881 22 2623 -34 
Q 2366 -91 2075 -91 
Q 1284 -91 818 406 
Q 353 903 353 1747 
Q 353 2603 823 3093 
Q 1294 3584 2113 3584 
Q 2378 3584 2631 3529 
Q 2884 3475 3122 3366 
z
" transform="scale(0.015625)"/>
       <path id="DejaVuSans-65" d="M 3597 1894 
L 3597 1613 
L 953 1613 
Q 991 1019 1311 708 
Q 1631 397 2203 397 
Q 2534 397 2845 478 
Q 3156 559 3463 722 
L 3463 178 
Q 3153 47 2828 -22 
Q 2503 -91 2169 -91 
Q 1331 -91 842 396 
Q 353 884 353 1716 
Q 353 2575 817 3079 
Q 1281 3584 2069 3584 
Q 2775 3584 3186 3129 
Q 3597 2675 3597 1894 
z
M 3022 2063 
Q 3016 2534 2758 2815 
Q 2500 3097 2075 3097 
Q 1594 3097 1305 2825 
Q 1016 2553 972 2059 
L 3022 2063 
z
" transform="scale(0.015625)"/>
       <path id="DejaVuSans-74" d="M 1172 4494 
L 1172 3500 
L 2356 3500 
L 2356 3053 
L 1172 3053 
L 1172 1153 
Q 1172 725 1289 603 
Q 1406 481 1766 481 
L 2356 481 
L 2356 0 
L 1766 0 
Q 1100 0 847 248 
Q 594 497 594 1153 
L 594 3053 
L 172 3053 
L 172 3500 
L 594 3500 
L 594 4494 
L 1172 4494 
z
" transform="scale(0.015625)"/>
       <path id="DejaVuSans-67" d="M 2906 1791 
Q 2906 2416 2648 2759 
Q 2391 3103 1925 3103 
Q 1463 3103 1205 2759 
Q 947 2416 947 1791 
Q 947 1169 1205 825 
Q 1463 481 1925 481 
Q 2391 481 2648 825 
Q 2906 1169 2906 1791 
z
M 3481 434 
Q 3481 -459 3084 -895 
Q 2688 -1331 1869 -1331 
Q 1566 -1331 1297 -1286 
Q 1028 -1241 775 -1147 
L 775 -588 
Q 1028 -725 1275 -790 
Q 1522 -856 1778 -856 
Q 2344 -856 2625 -561 
Q 2906 -266 2906 331 
L 2906 616 
Q 2728 306 2450 153 
Q 2172 0 1784 0 
Q 1141 0 747 490 
Q 353 981 353 1791 
Q 353 2603 747 3093 
Q 1141 3584 1784 3584 
Q 2172 3584 2450 3431 
Q 2728 3278 2906 2969 
L 2906 3500 
L 3481 3500 
L 3481 434 
z
" transform="scale(0.015625)"/>
       <path id="DejaVuSans-78" d="M 3513 3500 
L 2247 1797 
L 3578 0 
L 2900 0 
L 1881 1375 
L 863 0 
L 184 0 
L 1544 1831 
L 300 3500 
L 978 3500 
L 1906 2253 
L 2834 3500 
L 3513 3500 
z
" transform="scale(0.015625)"/>
       <path id="DejaVuSans-70" d="M 1159 525 
L 1159 -1331 
L 581 -1331 
L 581 3500 
L 1159 3500 
L 1159 2969 
Q 1341 3281 1617 3432 
Q 1894 3584 2278 3584 
Q 2916 3584 3314 3078 
Q 3713 2572 3713 1747 
Q 3713 922 3314 415 
Q 2916 -91 2278 -91 
Q 1894 -91 1617 61 
Q 1341 213 1159 525 
z
M 3116 1747 
Q 3116 2381 2855 2742 
Q 2594 3103 2138 3103 
Q 1681 3103 1420 2742 
Q 1159 2381 1159 1747 
Q 1159 1113 1420 752 
Q 1681 391 2138 391 
Q 2594 391 2855 752 
Q 3116 1113 3116 1747 
z
" transform="scale(0.015625)"/>
       <path id="DejaVuSans-6f" d="M 1959 3097 
Q 1497 3097 1228 2736 
Q 959 2375 959 1747 
Q 959 1119 1226 758 
Q 1494 397 1959 397 
Q 2419 397 2687 759 
Q 2956 1122 2956 1747 
Q 2956 2369 2687 2733 
Q 2419 3097 1959 3097 
z
M 1959 3584 
Q 2709 3584 3137 3096 
Q 3566 2609 3566 1747 
Q 3566 888 3137 398 
Q 2709 -91 1959 -91 
Q 1206 -91 779 398 
Q 353 888 353 1747 
Q 353 2609 779 3096 
Q 1206 3584 1959 3584 
z
" transform="scale(0.015625)"/>
       <path id="DejaVuSans-75" d="M 544 1381 
L 544 3500 
L 1119 3500 
L 1119 1403 
Q 1119 906 1312 657 
Q 1506 409 1894 409 
Q 2359 409 2629 706 
Q 2900 1003 2900 1516 
L 2900 3500 
L 3475 3500 
L 3475 0 
L 2900 0 
L 2900 538 
Q 2691 219 2414 64 
Q 2138 -91 1772 -91 
Q 1169 -91 856 284 
Q 544 659 544 1381 
z
M 1991 3584 
L 1991 3584 
z
" transform="scale(0.015625)"/>
       <path id="DejaVuSans-72" d="M 2631 2963 
Q 2534 3019 2420 3045 
Q 2306 3072 2169 3072 
Q 1681 3072 1420 2755 
Q 1159 2438 1159 1844 
L 1159 0 
L 581 0 
L 581 3500 
L 1159 3500 
L 1159 2956 
Q 1341 3275 1631 3429 
Q 1922 3584 2338 3584 
Q 2397 3584 2469 3576 
Q 2541 3569 2628 3553 
L 2631 2963 
z
" transform="scale(0.015625)"/>
      </defs>
      <use xlink:href="#DejaVuSans-44"/>
      <use xlink:href="#DejaVuSans-61" x="77.001953"/>
      <use xlink:href="#DejaVuSans-79" x="138.28125"/>
      <use xlink:href="#DejaVuSans-73" x="197.460938"/>
      <use xlink:href="#DejaVuSans-20" x="249.560547"/>
      <use xlink:href="#DejaVuSans-73" x="281.347656"/>
      <use xlink:href="#DejaVuSans-69" x="333.447266"/>
      <use xlink:href="#DejaVuSans-6e" x="361.230469"/>
      <use xlink:href="#DejaVuSans-63" x="424.609375"/>
      <use xlink:href="#DejaVuSans-65" x="479.589844"/>
      <use xlink:href="#DejaVuSans-20" x="541.113281"/>
      <use xlink:href="#DejaVuSans-61" x="572.900391"/>
      <use xlink:href="#DejaVuSans-6e" x="634.179688"/>
      <use xlink:href="#DejaVuSans-74" x="697.558594"/>
      <use xlink:href="#DejaVuSans-69" x="736.767578"/>
      <use xlink:href="#DejaVuSans-67" x="764.550781"/>
      <use xlink:href="#DejaVuSans-65" x="828.027344"/>
      <use xlink:href="#DejaVuSans-6e" x="889.550781"/>
      <use xlink:href="#DejaVuSans-20" x="952.929688"/>
      <use xlink:href="#DejaVuSans-65" x="984.716797"/>
      <use xlink:href="#DejaVuSans-78" x="1044.490234"/>
      <use xlink:href="#DejaVuSans-70" x="1103.669922"/>
      <use xlink:href="#DejaVuSans-6f" x="1167.146484"/>
      <use xlink:href="#DejaVuSans-73" x="1228.328125"/>
      <use xlink:href="#DejaVuSans-75" x="1280.427734"/>
      <use xlink:href="#DejaVuSans-72" x="1343.806641"/>
      <use xlink:href="#DejaVuSans-65" x="1382.669922"/>
     </g>
    </g>
   </g>
   <g id="matplotlib.axis_2">
    <g id="ytick_1">
     <g id="line2d_8">
      <defs>
       <path id="m0de5ec5736" d="M 0 0 
L -3.5 0 
" style="stroke: #000000; stroke-width: 0.8"/>
      </defs>
      <g>
       <use xlink:href="#m0de5ec5736" x="91.758125" y="384.131167" style="stroke: #000000; stroke-width: 0.8"/>
      </g>
     </g>
     <g id="text_9">
      <!-- 0.0 -->
      <g transform="translate(52.951875 391.729605)scale(0.2 -0.2)">
       <defs>
        <path id="DejaVuSans-2e" d="M 684 794 
L 1344 794 
L 1344 0 
L 684 0 
L 684 794 
z
" transform="scale(0.015625)"/>
       </defs>
       <use xlink:href="#DejaVuSans-30"/>
       <use xlink:href="#DejaVuSans-2e" x="63.623047"/>
       <use xlink:href="#DejaVuSans-30" x="95.410156"/>
      </g>
     </g>
    </g>
    <g id="ytick_2">
     <g id="line2d_9">
      <g>
       <use xlink:href="#m0de5ec5736" x="91.758125" y="319.439752" style="stroke: #000000; stroke-width: 0.8"/>
      </g>
     </g>
     <g id="text_10">
      <!-- 0.2 -->
      <g transform="translate(52.951875 327.038189)scale(0.2 -0.2)">
       <use xlink:href="#DejaVuSans-30"/>
       <use xlink:href="#DejaVuSans-2e" x="63.623047"/>
       <use xlink:href="#DejaVuSans-32" x="95.410156"/>
      </g>
     </g>
    </g>
    <g id="ytick_3">
     <g id="line2d_10">
      <g>
       <use xlink:href="#m0de5ec5736" x="91.758125" y="254.748336" style="stroke: #000000; stroke-width: 0.8"/>
      </g>
     </g>
     <g id="text_11">
      <!-- 0.4 -->
      <g transform="translate(52.951875 262.346774)scale(0.2 -0.2)">
       <use xlink:href="#DejaVuSans-30"/>
       <use xlink:href="#DejaVuSans-2e" x="63.623047"/>
       <use xlink:href="#DejaVuSans-34" x="95.410156"/>
      </g>
     </g>
    </g>
    <g id="ytick_4">
     <g id="line2d_11">
      <g>
       <use xlink:href="#m0de5ec5736" x="91.758125" y="190.056921" style="stroke: #000000; stroke-width: 0.8"/>
      </g>
     </g>
     <g id="text_12">
      <!-- 0.6 -->
      <g transform="translate(52.951875 197.655358)scale(0.2 -0.2)">
       <use xlink:href="#DejaVuSans-30"/>
       <use xlink:href="#DejaVuSans-2e" x="63.623047"/>
       <use xlink:href="#DejaVuSans-36" x="95.410156"/>
      </g>
     </g>
    </g>
    <g id="ytick_5">
     <g id="line2d_12">
      <g>
       <use xlink:href="#m0de5ec5736" x="91.758125" y="125.365505" style="stroke: #000000; stroke-width: 0.8"/>
      </g>
     </g>
     <g id="text_13">
      <!-- 0.8 -->
      <g transform="translate(52.951875 132.963943)scale(0.2 -0.2)">
       <defs>
        <path id="DejaVuSans-38" d="M 2034 2216 
Q 1584 2216 1326 1975 
Q 1069 1734 1069 1313 
Q 1069 891 1326 650 
Q 1584 409 2034 409 
Q 2484 409 2743 651 
Q 3003 894 3003 1313 
Q 3003 1734 2745 1975 
Q 2488 2216 2034 2216 
z
M 1403 2484 
Q 997 2584 770 2862 
Q 544 3141 544 3541 
Q 544 4100 942 4425 
Q 1341 4750 2034 4750 
Q 2731 4750 3128 4425 
Q 3525 4100 3525 3541 
Q 3525 3141 3298 2862 
Q 3072 2584 2669 2484 
Q 3125 2378 3379 2068 
Q 3634 1759 3634 1313 
Q 3634 634 3220 271 
Q 2806 -91 2034 -91 
Q 1263 -91 848 271 
Q 434 634 434 1313 
Q 434 1759 690 2068 
Q 947 2378 1403 2484 
z
M 1172 3481 
Q 1172 3119 1398 2916 
Q 1625 2713 2034 2713 
Q 2441 2713 2670 2916 
Q 2900 3119 2900 3481 
Q 2900 3844 2670 4047 
Q 2441 4250 2034 4250 
Q 1625 4250 1398 4047 
Q 1172 3844 1172 3481 
z
" transform="scale(0.015625)"/>
       </defs>
       <use xlink:href="#DejaVuSans-30"/>
       <use xlink:href="#DejaVuSans-2e" x="63.623047"/>
       <use xlink:href="#DejaVuSans-38" x="95.410156"/>
      </g>
     </g>
    </g>
    <g id="ytick_6">
     <g id="line2d_13">
      <g>
       <use xlink:href="#m0de5ec5736" x="91.758125" y="60.67409" style="stroke: #000000; stroke-width: 0.8"/>
      </g>
     </g>
     <g id="text_14">
      <!-- 1.0 -->
      <g transform="translate(52.951875 68.272527)scale(0.2 -0.2)">
       <use xlink:href="#DejaVuSans-31"/>
       <use xlink:href="#DejaVuSans-2e" x="63.623047"/>
       <use xlink:href="#DejaVuSans-30" x="95.410156"/>
      </g>
     </g>
    </g>
    <g id="text_15">
     <!-- Virus neutralization -->
     <g transform="translate(22.396875 319.741562)rotate(-90)scale(0.2 -0.2)">
      <defs>
       <path id="DejaVuSans-56" d="M 1831 0 
L 50 4666 
L 709 4666 
L 2188 738 
L 3669 4666 
L 4325 4666 
L 2547 0 
L 1831 0 
z
" transform="scale(0.015625)"/>
       <path id="DejaVuSans-6c" d="M 603 4863 
L 1178 4863 
L 1178 0 
L 603 0 
L 603 4863 
z
" transform="scale(0.015625)"/>
       <path id="DejaVuSans-7a" d="M 353 3500 
L 3084 3500 
L 3084 2975 
L 922 459 
L 3084 459 
L 3084 0 
L 275 0 
L 275 525 
L 2438 3041 
L 353 3041 
L 353 3500 
z
" transform="scale(0.015625)"/>
      </defs>
      <use xlink:href="#DejaVuSans-56"/>
      <use xlink:href="#DejaVuSans-69" x="66.158203"/>
      <use xlink:href="#DejaVuSans-72" x="93.941406"/>
      <use xlink:href="#DejaVuSans-75" x="135.054688"/>
      <use xlink:href="#DejaVuSans-73" x="198.433594"/>
      <use xlink:href="#DejaVuSans-20" x="250.533203"/>
      <use xlink:href="#DejaVuSans-6e" x="282.320312"/>
      <use xlink:href="#DejaVuSans-65" x="345.699219"/>
      <use xlink:href="#DejaVuSans-75" x="407.222656"/>
      <use xlink:href="#DejaVuSans-74" x="470.601562"/>
      <use xlink:href="#DejaVuSans-72" x="509.810547"/>
      <use xlink:href="#DejaVuSans-61" x="550.923828"/>
      <use xlink:href="#DejaVuSans-6c" x="612.203125"/>
      <use xlink:href="#DejaVuSans-69" x="639.986328"/>
      <use xlink:href="#DejaVuSans-7a" x="667.769531"/>
      <use xlink:href="#DejaVuSans-61" x="720.259766"/>
      <use xlink:href="#DejaVuSans-74" x="781.539062"/>
      <use xlink:href="#DejaVuSans-69" x="820.748047"/>
      <use xlink:href="#DejaVuSans-6f" x="848.53125"/>
      <use xlink:href="#DejaVuSans-6e" x="909.712891"/>
     </g>
     <!--  probability -->
     <g transform="translate(44.7925 278.966562)rotate(-90)scale(0.2 -0.2)">
      <defs>
       <path id="DejaVuSans-62" d="M 3116 1747 
Q 3116 2381 2855 2742 
Q 2594 3103 2138 3103 
Q 1681 3103 1420 2742 
Q 1159 2381 1159 1747 
Q 1159 1113 1420 752 
Q 1681 391 2138 391 
Q 2594 391 2855 752 
Q 3116 1113 3116 1747 
z
M 1159 2969 
Q 1341 3281 1617 3432 
Q 1894 3584 2278 3584 
Q 2916 3584 3314 3078 
Q 3713 2572 3713 1747 
Q 3713 922 3314 415 
Q 2916 -91 2278 -91 
Q 1894 -91 1617 61 
Q 1341 213 1159 525 
L 1159 0 
L 581 0 
L 581 4863 
L 1159 4863 
L 1159 2969 
z
" transform="scale(0.015625)"/>
      </defs>
      <use xlink:href="#DejaVuSans-20"/>
      <use xlink:href="#DejaVuSans-70" x="31.787109"/>
      <use xlink:href="#DejaVuSans-72" x="95.263672"/>
      <use xlink:href="#DejaVuSans-6f" x="134.126953"/>
      <use xlink:href="#DejaVuSans-62" x="195.308594"/>
      <use xlink:href="#DejaVuSans-61" x="258.785156"/>
      <use xlink:href="#DejaVuSans-62" x="320.064453"/>
      <use xlink:href="#DejaVuSans-69" x="383.541016"/>
      <use xlink:href="#DejaVuSans-6c" x="411.324219"/>
      <use xlink:href="#DejaVuSans-69" x="439.107422"/>
      <use xlink:href="#DejaVuSans-74" x="466.890625"/>
      <use xlink:href="#DejaVuSans-79" x="506.099609"/>
     </g>
    </g>
   </g>
   <g id="patch_3">
    <path d="M 91.758125 416.476875 
L 91.758125 28.396875 
" style="fill: none; stroke: #000000; stroke-width: 0.8; stroke-linejoin: miter; stroke-linecap: square"/>
   </g>
   <g id="patch_4">
    <path d="M 649.758125 416.476875 
L 649.758125 28.396875 
" style="fill: none; stroke: #000000; stroke-width: 0.8; stroke-linejoin: miter; stroke-linecap: square"/>
   </g>
   <g id="patch_5">
    <path d="M 91.758125 416.476875 
L 649.758125 416.476875 
" style="fill: none; stroke: #000000; stroke-width: 0.8; stroke-linejoin: miter; stroke-linecap: square"/>
   </g>
   <g id="patch_6">
    <path d="M 91.758125 28.396875 
L 649.758125 28.396875 
" style="fill: none; stroke: #000000; stroke-width: 0.8; stroke-linejoin: miter; stroke-linecap: square"/>
   </g>
   <g id="text_16">
    <!-- JN.3 antigen -->
    <g transform="translate(309.605 22.396875)scale(0.2 -0.2)">
     <defs>
      <path id="DejaVuSans-4a" d="M 628 4666 
L 1259 4666 
L 1259 325 
Q 1259 -519 939 -900 
Q 619 -1281 -91 -1281 
L -331 -1281 
L -331 -750 
L -134 -750 
Q 284 -750 456 -515 
Q 628 -281 628 325 
L 628 4666 
z
" transform="scale(0.015625)"/>
      <path id="DejaVuSans-4e" d="M 628 4666 
L 1478 4666 
L 3547 763 
L 3547 4666 
L 4159 4666 
L 4159 0 
L 3309 0 
L 1241 3903 
L 1241 0 
L 628 0 
L 628 4666 
z
" transform="scale(0.015625)"/>
     </defs>
     <use xlink:href="#DejaVuSans-4a"/>
     <use xlink:href="#DejaVuSans-4e" x="29.492188"/>
     <use xlink:href="#DejaVuSans-2e" x="104.296875"/>
     <use xlink:href="#DejaVuSans-33" x="136.083984"/>
     <use xlink:href="#DejaVuSans-20" x="199.707031"/>
     <use xlink:href="#DejaVuSans-61" x="231.494141"/>
     <use xlink:href="#DejaVuSans-6e" x="292.773438"/>
     <use xlink:href="#DejaVuSans-74" x="356.152344"/>
     <use xlink:href="#DejaVuSans-69" x="395.361328"/>
     <use xlink:href="#DejaVuSans-67" x="423.144531"/>
     <use xlink:href="#DejaVuSans-65" x="486.621094"/>
     <use xlink:href="#DejaVuSans-6e" x="548.144531"/>
    </g>
   </g>
   <g id="legend_1">
    <g id="patch_7">
     <path d="M 235.258125 532.900875 
L 475.145625 532.900875 
Q 479.145625 532.900875 479.145625 528.900875 
L 479.145625 501.544625 
Q 479.145625 497.544625 475.145625 497.544625 
L 235.258125 497.544625 
Q 231.258125 497.544625 231.258125 501.544625 
L 231.258125 528.900875 
Q 231.258125 532.900875 235.258125 532.900875 
z
" style="fill: #ffffff; opacity: 0.8; stroke: #cccccc; stroke-linejoin: miter"/>
    </g>
    <g id="patch_8">
     <path d="M 239.258125 520.7415 
L 279.258125 520.7415 
L 279.258125 506.7415 
L 239.258125 506.7415 
z
" style="fill: #ffa500; fill-opacity: 0.3; stroke: #ffa500; stroke-opacity: 0.3; stroke-linejoin: miter"/>
    </g>
    <g id="text_17">
     <!-- JN.1 -->
     <g transform="translate(295.258125 520.7415)scale(0.2 -0.2)">
      <use xlink:href="#DejaVuSans-4a"/>
      <use xlink:href="#DejaVuSans-4e" x="29.492188"/>
      <use xlink:href="#DejaVuSans-2e" x="104.296875"/>
      <use xlink:href="#DejaVuSans-31" x="136.083984"/>
     </g>
    </g>
    <g id="patch_9">
     <path d="M 375.201875 520.7415 
L 415.201875 520.7415 
L 415.201875 506.7415 
L 375.201875 506.7415 
z
" style="fill: #1f77b4; fill-opacity: 0.3; stroke: #1f77b4; stroke-opacity: 0.3; stroke-linejoin: miter"/>
    </g>
    <g id="text_18">
     <!-- JN.3 -->
     <g transform="translate(431.201875 520.7415)scale(0.2 -0.2)">
      <use xlink:href="#DejaVuSans-4a"/>
      <use xlink:href="#DejaVuSans-4e" x="29.492188"/>
      <use xlink:href="#DejaVuSans-2e" x="104.296875"/>
      <use xlink:href="#DejaVuSans-33" x="136.083984"/>
     </g>
    </g>
   </g>
  </g>
 </g>
 <defs>
  <clipPath id="p72f5c78225">
   <rect x="91.758125" y="28.396875" width="558" height="388.08"/>
  </clipPath>
 </defs>
</svg>
