<?xml version="1.0" encoding="utf-8" standalone="no"?>
<!DOCTYPE svg PUBLIC "-//W3C//DTD SVG 1.1//EN"
  "http://www.w3.org/Graphics/SVG/1.1/DTD/svg11.dtd">
<svg xmlns:xlink="http://www.w3.org/1999/xlink" width="656.958125pt" height="540.100875pt" viewBox="0 0 656.958125 540.100875" xmlns="http://www.w3.org/2000/svg" version="1.1">
 <metadata>
  <rdf:RDF xmlns:dc="http://purl.org/dc/elements/1.1/" xmlns:cc="http://creativecommons.org/ns#" xmlns:rdf="http://www.w3.org/1999/02/22-rdf-syntax-ns#">
   <cc:Work>
    <dc:type rdf:resource="http://purl.org/dc/dcmitype/StillImage"/>
    <dc:date>2024-10-02T18:57:08.709430</dc:date>
    <dc:format>image/svg+xml</dc:format>
    <dc:creator>
     <cc:Agent>
      <dc:title>Matplotlib v3.5.2, https://matplotlib.org/</dc:title>
     </cc:Agent>
    </dc:creator>
   </cc:Work>
  </rdf:RDF>
 </metadata>
 <defs>
  <style type="text/css">*{stroke-linejoin: round; stroke-linecap: butt}</style>
 </defs>
 <g id="figure_1">
  <g id="patch_1">
   <path d="M 0 540.100875 
L 656.958125 540.100875 
L 656.958125 0 
L 0 0 
z
" style="fill: #ffffff"/>
  </g>
  <g id="axes_1">
   <g id="patch_2">
    <path d="M 91.758125 416.476875 
L 649.758125 416.476875 
L 649.758125 28.396875 
L 91.758125 28.396875 
z
" style="fill: #ffffff"/>
   </g>
   <g id="PolyCollection_1">
    <defs>
     <path id="mdff201f453" d="M 117.121761 -231.214026 
L 117.121761 -188.453569 
L 117.897408 -215.199564 
L 118.673054 -237.427365 
L 119.4487 -256.052804 
L 120.224347 -271.773037 
L 120.999993 -285.12544 
L 121.77564 -296.529023 
L 122.551286 -306.313984 
L 123.326932 -314.743098 
L 124.102579 -322.02739 
L 124.878225 -328.337768 
L 125.653871 -333.813739 
L 126.429518 -338.570024 
L 127.205164 -342.701608 
L 127.980811 -346.287649 
L 128.756457 -349.39452 
L 129.532103 -352.07819 
L 130.30775 -354.386118 
L 131.083396 -356.358752 
L 131.859042 -357.589408 
L 132.634689 -355.809717 
L 133.410335 -353.878039 
L 134.185982 -351.814195 
L 134.961628 -349.635434 
L 135.737274 -347.356874 
L 136.512921 -344.991852 
L 137.288567 -342.552202 
L 138.064213 -340.048479 
L 138.83986 -337.490133 
L 139.615506 -334.885667 
L 140.391153 -332.242746 
L 141.166799 -329.56831 
L 141.942445 -326.868648 
L 142.718092 -324.149479 
L 143.493738 -321.416007 
L 144.269384 -318.672976 
L 145.045031 -315.924716 
L 145.820677 -313.17518 
L 146.596323 -310.427984 
L 147.37197 -307.68643 
L 148.147616 -304.95354 
L 148.923263 -302.232077 
L 149.698909 -299.524566 
L 150.474555 -296.833315 
L 151.250202 -294.160431 
L 152.025848 -291.507836 
L 152.801494 -288.877281 
L 153.577141 -286.27036 
L 154.352787 -283.688518 
L 155.128434 -281.133068 
L 155.90408 -278.605195 
L 156.679726 -276.105965 
L 157.455373 -273.636337 
L 158.231019 -271.197169 
L 159.006665 -268.789223 
L 159.782312 -266.413171 
L 160.557958 -264.069606 
L 161.333605 -261.75904 
L 162.109251 -259.481916 
L 162.884897 -257.238608 
L 163.660544 -255.029426 
L 164.43619 -252.854622 
L 165.211836 -250.714393 
L 165.987483 -248.608884 
L 166.763129 -246.538191 
L 167.538776 -244.502364 
L 168.314422 -242.501414 
L 169.090068 -240.535308 
L 169.865715 -238.60398 
L 170.641361 -236.707326 
L 171.417007 -234.845213 
L 172.192654 -233.017476 
L 172.9683 -231.223922 
L 173.743947 -229.464335 
L 174.519593 -227.73847 
L 175.295239 -226.046065 
L 176.070886 -224.386835 
L 176.846532 -222.760475 
L 177.622178 -221.166665 
L 178.397825 -219.605067 
L 179.173471 -218.075331 
L 179.949117 -216.577091 
L 180.724764 -215.10997 
L 181.50041 -213.673582 
L 182.276057 -212.267528 
L 183.051703 -210.891403 
L 183.827349 -209.544793 
L 184.602996 -208.227278 
L 185.378642 -206.938432 
L 186.154288 -205.677824 
L 186.929935 -204.445018 
L 187.705581 -203.239576 
L 188.481228 -202.061058 
L 189.256874 -200.909019 
L 190.03252 -199.783017 
L 190.808167 -198.682604 
L 191.583813 -197.607336 
L 192.359459 -196.556769 
L 193.135106 -195.530458 
L 193.910752 -194.527959 
L 194.686399 -193.548833 
L 195.462045 -192.592639 
L 196.237691 -191.658943 
L 197.013338 -190.747309 
L 197.788984 -189.857308 
L 198.56463 -188.988513 
L 199.340277 -188.140501 
L 200.115923 -187.312853 
L 200.89157 -186.505154 
L 201.667216 -185.716993 
L 202.442862 -184.947966 
L 203.218509 -184.19767 
L 203.994155 -183.46571 
L 204.769801 -182.751696 
L 205.545448 -182.055242 
L 206.321094 -181.375967 
L 207.096741 -180.713497 
L 207.872387 -180.067463 
L 208.648033 -179.437502 
L 209.42368 -178.823254 
L 210.199326 -178.224369 
L 210.974972 -177.6405 
L 211.750619 -177.071305 
L 212.526265 -176.516451 
L 213.301911 -175.975609 
L 214.077558 -175.448454 
L 214.853204 -174.93467 
L 215.628851 -174.433945 
L 216.404497 -173.945974 
L 217.180143 -173.470455 
L 217.95579 -173.007096 
L 218.731436 -172.555607 
L 219.507082 -172.115706 
L 220.282729 -171.687114 
L 221.058375 -171.269561 
L 221.834022 -170.86278 
L 222.609668 -170.466509 
L 223.385314 -170.080495 
L 224.160961 -169.704486 
L 224.936607 -169.338238 
L 225.712253 -168.981511 
L 226.4879 -168.634071 
L 227.263546 -168.295689 
L 228.039193 -167.966139 
L 228.814839 -167.645203 
L 229.590485 -167.332665 
L 230.366132 -167.028317 
L 231.141778 -166.731953 
L 231.917424 -166.443372 
L 232.693071 -166.162379 
L 233.468717 -165.888782 
L 234.244364 -165.622394 
L 235.02001 -165.363033 
L 235.795656 -165.110519 
L 236.571303 -164.864679 
L 237.346949 -164.625342 
L 238.122595 -164.392342 
L 238.898242 -164.165516 
L 239.673888 -163.944708 
L 240.449535 -163.72976 
L 241.225181 -163.520524 
L 242.000827 -163.316851 
L 242.776474 -163.118598 
L 243.55212 -162.925624 
L 244.327766 -162.737793 
L 245.103413 -162.554971 
L 245.879059 -162.377027 
L 246.654705 -162.203836 
L 247.430352 -162.035273 
L 248.205998 -161.871217 
L 248.981645 -161.711551 
L 249.757291 -161.556159 
L 250.532937 -161.40493 
L 251.308584 -161.257754 
L 252.08423 -161.114524 
L 252.859876 -160.975138 
L 253.635523 -160.839494 
L 254.411169 -160.707493 
L 255.186816 -160.57904 
L 255.962462 -160.45404 
L 256.738108 -160.332402 
L 257.513755 -160.214037 
L 258.289401 -160.098859 
L 259.065047 -159.986784 
L 259.840694 -159.877728 
L 260.61634 -159.771612 
L 261.391987 -159.668357 
L 262.167633 -159.567888 
L 262.943279 -159.47013 
L 263.718926 -159.375011 
L 264.494572 -159.282462 
L 265.270218 -159.192412 
L 266.045865 -159.104796 
L 266.821511 -159.019548 
L 267.597158 -158.936606 
L 268.372804 -158.855907 
L 269.14845 -158.777392 
L 269.924097 -158.701002 
L 270.699743 -158.62668 
L 271.475389 -158.554371 
L 272.251036 -158.48402 
L 273.026682 -158.415576 
L 273.802329 -158.348986 
L 274.577975 -158.284202 
L 275.353621 -158.221174 
L 276.129268 -158.159856 
L 276.904914 -158.100201 
L 277.68056 -158.042165 
L 278.456207 -157.985704 
L 279.231853 -157.930775 
L 280.007499 -157.877338 
L 280.783146 -157.825352 
L 281.558792 -157.774777 
L 282.334439 -157.725577 
L 283.110085 -157.677714 
L 283.885731 -157.631151 
L 284.661378 -157.585854 
L 285.437024 -157.541788 
L 286.21267 -157.49892 
L 286.988317 -157.457218 
L 287.763963 -157.416651 
L 288.53961 -157.377186 
L 289.315256 -157.338796 
L 290.090902 -157.30145 
L 290.866549 -157.26512 
L 291.642195 -157.229779 
L 292.417841 -157.1954 
L 293.193488 -157.161957 
L 293.969134 -157.129424 
L 294.744781 -157.097777 
L 295.520427 -157.066992 
L 296.296073 -157.037046 
L 297.07172 -157.007915 
L 297.847366 -156.979578 
L 298.623012 -156.952013 
L 299.398659 -156.925199 
L 300.174305 -156.899116 
L 300.949952 -156.873743 
L 301.725598 -156.849062 
L 302.501244 -156.825054 
L 303.276891 -156.8017 
L 304.052537 -156.778983 
L 304.828183 -156.756886 
L 305.60383 -156.735391 
L 306.379476 -156.714482 
L 307.155122 -156.694143 
L 307.930769 -156.674359 
L 308.706415 -156.655114 
L 309.482062 -156.636395 
L 310.257708 -156.618186 
L 311.033354 -156.600474 
L 311.809001 -156.583245 
L 312.584647 -156.566486 
L 313.360293 -156.550185 
L 314.13594 -156.534328 
L 314.911586 -156.518904 
L 315.687233 -156.503901 
L 316.462879 -156.489307 
L 317.238525 -156.475112 
L 318.014172 -156.461304 
L 318.789818 -156.447873 
L 319.565464 -156.434809 
L 320.341111 -156.422101 
L 321.116757 -156.409741 
L 321.892404 -156.397717 
L 322.66805 -156.386022 
L 323.443696 -156.374647 
L 324.219343 -156.363582 
L 324.994989 -156.352819 
L 325.770635 -156.34235 
L 326.546282 -156.332167 
L 327.321928 -156.322262 
L 328.097575 -156.312627 
L 328.873221 -156.303256 
L 329.648867 -156.29414 
L 330.424514 -156.285274 
L 331.20016 -156.276649 
L 331.975806 -156.268261 
L 332.751453 -156.260101 
L 333.527099 -156.252164 
L 334.302746 -156.244445 
L 335.078392 -156.236936 
L 335.854038 -156.229632 
L 336.629685 -156.222527 
L 337.405331 -156.215617 
L 338.180977 -156.208896 
L 338.956624 -156.202358 
L 339.73227 -156.195999 
L 340.507916 -156.189813 
L 341.283563 -156.183797 
L 342.059209 -156.177945 
L 342.834856 -156.172253 
L 343.610502 -156.166716 
L 344.386148 -156.161331 
L 345.161795 -156.156093 
L 345.937441 -156.150998 
L 346.713087 -156.146042 
L 347.488734 -156.141221 
L 348.26438 -156.136533 
L 349.040027 -156.131972 
L 349.815673 -156.127536 
L 350.591319 -156.123222 
L 351.366966 -156.119025 
L 352.142612 -156.114943 
L 352.918258 -156.110973 
L 353.693905 -156.107111 
L 354.469551 -156.103354 
L 355.245198 -156.099701 
L 356.020844 -156.096147 
L 356.79649 -156.09269 
L 357.572137 -156.089328 
L 358.347783 -156.086058 
L 359.123429 -156.082877 
L 359.899076 -156.079783 
L 360.674722 -156.076773 
L 361.450369 -156.073846 
L 362.226015 -156.070999 
L 363.001661 -156.06823 
L 363.777308 -156.065536 
L 364.552954 -156.062916 
L 365.3286 -156.060368 
L 366.104247 -156.057889 
L 366.879893 -156.055478 
L 367.65554 -156.053133 
L 368.431186 -156.050852 
L 369.206832 -156.048634 
L 369.982479 -156.046476 
L 370.758125 -156.044377 
L 371.533771 -156.042335 
L 372.309418 -156.040349 
L 373.085064 -156.038418 
L 373.86071 -156.036539 
L 374.636357 -156.034712 
L 375.412003 -156.032935 
L 376.18765 -156.031206 
L 376.963296 -156.029524 
L 377.738942 -156.027889 
L 378.514589 -156.026298 
L 379.290235 -156.024751 
L 380.065881 -156.023246 
L 380.841528 -156.021782 
L 381.617174 -156.020358 
L 382.392821 -156.018973 
L 383.168467 -156.017626 
L 383.944113 -156.016316 
L 384.71976 -156.015042 
L 385.495406 -156.013802 
L 386.271052 -156.012596 
L 387.046699 -156.011424 
L 387.822345 -156.010283 
L 388.597992 -156.009174 
L 389.373638 -156.008094 
L 390.149284 -156.007045 
L 390.924931 -156.006024 
L 391.700577 -156.005031 
L 392.476223 -156.004065 
L 393.25187 -156.003126 
L 394.027516 -156.002212 
L 394.803163 -156.001323 
L 395.578809 -156.000459 
L 396.354455 -155.999618 
L 397.130102 -155.9988 
L 397.905748 -155.998004 
L 398.681394 -155.997231 
L 399.457041 -155.996478 
L 400.232687 -155.995746 
L 401.008334 -155.995034 
L 401.78398 -155.994342 
L 402.559626 -155.993668 
L 403.335273 -155.993013 
L 404.110919 -155.992376 
L 404.886565 -155.991756 
L 405.662212 -155.991153 
L 406.437858 -155.990566 
L 407.213504 -155.989996 
L 407.989151 -155.989441 
L 408.764797 -155.988902 
L 409.540444 -155.988377 
L 410.31609 -155.987866 
L 411.091736 -155.98737 
L 411.867383 -155.986887 
L 412.643029 -155.986417 
L 413.418675 -155.98596 
L 414.194322 -155.985516 
L 414.969968 -155.985084 
L 415.745615 -155.984663 
L 416.521261 -155.984254 
L 417.296907 -155.983856 
L 418.072554 -155.98347 
L 418.8482 -155.983093 
L 419.623846 -155.982727 
L 420.399493 -155.982371 
L 421.175139 -155.982025 
L 421.950786 -155.981688 
L 422.726432 -155.981361 
L 423.502078 -155.981042 
L 424.277725 -155.980732 
L 425.053371 -155.980431 
L 425.829017 -155.980137 
L 426.604664 -155.979852 
L 427.38031 -155.979575 
L 428.155957 -155.979305 
L 428.931603 -155.979042 
L 429.707249 -155.978787 
L 430.482896 -155.978539 
L 431.258542 -155.978297 
L 432.034188 -155.978063 
L 432.809835 -155.977834 
L 433.585481 -155.977612 
L 434.361128 -155.977396 
L 435.136774 -155.977186 
L 435.91242 -155.976981 
L 436.688067 -155.976782 
L 437.463713 -155.976589 
L 438.239359 -155.976401 
L 439.015006 -155.976218 
L 439.790652 -155.97604 
L 440.566298 -155.975866 
L 441.341945 -155.975698 
L 442.117591 -155.975534 
L 442.893238 -155.975375 
L 443.668884 -155.97522 
L 444.44453 -155.975069 
L 445.220177 -155.974923 
L 445.995823 -155.97478 
L 446.771469 -155.974641 
L 447.547116 -155.974506 
L 448.322762 -155.974375 
L 449.098409 -155.974248 
L 449.874055 -155.974123 
L 450.649701 -155.974003 
L 451.425348 -155.973885 
L 452.200994 -155.973771 
L 452.97664 -155.97366 
L 453.752287 -155.973552 
L 454.527933 -155.973447 
L 455.30358 -155.973344 
L 456.079226 -155.973245 
L 456.854872 -155.973148 
L 457.630519 -155.973054 
L 458.406165 -155.972963 
L 459.181811 -155.972874 
L 459.957458 -155.972787 
L 460.733104 -155.972703 
L 461.508751 -155.972621 
L 462.284397 -155.972541 
L 463.060043 -155.972464 
L 463.83569 -155.972388 
L 464.611336 -155.972315 
L 465.386982 -155.972244 
L 466.162629 -155.972175 
L 466.938275 -155.972107 
L 467.713921 -155.972041 
L 468.489568 -155.971978 
L 469.265214 -155.971916 
L 470.040861 -155.971855 
L 470.816507 -155.971796 
L 471.592153 -155.971739 
L 472.3678 -155.971684 
L 473.143446 -155.97163 
L 473.919092 -155.971577 
L 474.694739 -155.971526 
L 475.470385 -155.971476 
L 476.246032 -155.971428 
L 477.021678 -155.971381 
L 477.797324 -155.971335 
L 478.572971 -155.971291 
L 479.348617 -155.971247 
L 480.124263 -155.971205 
L 480.89991 -155.971164 
L 481.675556 -155.971125 
L 482.451203 -155.971086 
L 483.226849 -155.971048 
L 484.002495 -155.971011 
L 484.778142 -155.970976 
L 485.553788 -155.970941 
L 486.329434 -155.970907 
L 487.105081 -155.970875 
L 487.880727 -155.970843 
L 488.656374 -155.970812 
L 489.43202 -155.970781 
L 490.207666 -155.970752 
L 490.983313 -155.970724 
L 491.758959 -155.970696 
L 492.534605 -155.970669 
L 493.310252 -155.970642 
L 494.085898 -155.970617 
L 494.861545 -155.970592 
L 495.637191 -155.970568 
L 496.412837 -155.970544 
L 497.188484 -155.970521 
L 497.96413 -155.970499 
L 498.739776 -155.970478 
L 499.515423 -155.970457 
L 500.291069 -155.970436 
L 501.066715 -155.970416 
L 501.842362 -155.970397 
L 502.618008 -155.970378 
L 503.393655 -155.97036 
L 504.169301 -155.970342 
L 504.944947 -155.970324 
L 505.720594 -155.970308 
L 506.49624 -155.970291 
L 507.271886 -155.970275 
L 508.047533 -155.97026 
L 508.823179 -155.970245 
L 509.598826 -155.97023 
L 510.374472 -155.970216 
L 511.150118 -155.970202 
L 511.925765 -155.970188 
L 512.701411 -155.970175 
L 513.477057 -155.970162 
L 514.252704 -155.97015 
L 515.02835 -155.970138 
L 515.803997 -155.970126 
L 516.579643 -155.970115 
L 517.355289 -155.970103 
L 518.130936 -155.970093 
L 518.906582 -155.970082 
L 519.682228 -155.970072 
L 520.457875 -155.970062 
L 521.233521 -155.970052 
L 522.009168 -155.970043 
L 522.784814 -155.970034 
L 523.56046 -155.970025 
L 524.336107 -155.970016 
L 525.111753 -155.970008 
L 525.887399 -155.969999 
L 526.663046 -155.969991 
L 527.438692 -155.969984 
L 528.214339 -155.969976 
L 528.989985 -155.969969 
L 529.765631 -155.969962 
L 530.541278 -155.969955 
L 531.316924 -155.969948 
L 532.09257 -155.969941 
L 532.868217 -155.969935 
L 533.643863 -155.969929 
L 534.419509 -155.969923 
L 535.195156 -155.969917 
L 535.970802 -155.969911 
L 536.746449 -155.969906 
L 537.522095 -155.9699 
L 538.297741 -155.969895 
L 539.073388 -155.96989 
L 539.849034 -155.969885 
L 540.62468 -155.96988 
L 541.400327 -155.969875 
L 542.175973 -155.969871 
L 542.95162 -155.969866 
L 543.727266 -155.969862 
L 544.502912 -155.969858 
L 545.278559 -155.969854 
L 546.054205 -155.96985 
L 546.829851 -155.969846 
L 547.605498 -155.969842 
L 548.381144 -155.969838 
L 549.156791 -155.969835 
L 549.932437 -155.969831 
L 550.708083 -155.969828 
L 551.48373 -155.969825 
L 552.259376 -155.969821 
L 553.035022 -155.969818 
L 553.810669 -155.969815 
L 554.586315 -155.969812 
L 555.361962 -155.969809 
L 556.137608 -155.969807 
L 556.913254 -155.969804 
L 557.688901 -155.969801 
L 558.464547 -155.969799 
L 559.240193 -155.969796 
L 560.01584 -155.969794 
L 560.791486 -155.969792 
L 561.567133 -155.969789 
L 562.342779 -155.969787 
L 563.118425 -155.969785 
L 563.894072 -155.969783 
L 564.669718 -155.969781 
L 565.445364 -155.969779 
L 566.221011 -155.969777 
L 566.996657 -155.969775 
L 567.772303 -155.969773 
L 568.54795 -155.969771 
L 569.323596 -155.969769 
L 570.099243 -155.969768 
L 570.874889 -155.969766 
L 571.650535 -155.969765 
L 572.426182 -155.969763 
L 573.201828 -155.969761 
L 573.977474 -155.96976 
L 574.753121 -155.969759 
L 575.528767 -155.969757 
L 576.304414 -155.969756 
L 577.08006 -155.969755 
L 577.855706 -155.969753 
L 578.631353 -155.969752 
L 579.406999 -155.969751 
L 580.182645 -155.96975 
L 580.958292 -155.969748 
L 581.733938 -155.969747 
L 582.509585 -155.969746 
L 583.285231 -155.969745 
L 584.060877 -155.969744 
L 584.836524 -155.969743 
L 585.61217 -155.969742 
L 586.387816 -155.969741 
L 587.163463 -155.96974 
L 587.939109 -155.969739 
L 588.714756 -155.969739 
L 589.490402 -155.969738 
L 590.266048 -155.969737 
L 591.041695 -155.969736 
L 591.817341 -155.969735 
L 592.592987 -155.969735 
L 593.368634 -155.969734 
L 594.14428 -155.969733 
L 594.919927 -155.969732 
L 595.695573 -155.969732 
L 596.471219 -155.969731 
L 597.246866 -155.96973 
L 598.022512 -155.96973 
L 598.798158 -155.969729 
L 599.573805 -155.969729 
L 600.349451 -155.969728 
L 601.125097 -155.969728 
L 601.900744 -155.969727 
L 602.67639 -155.969726 
L 603.452037 -155.969726 
L 604.227683 -155.969725 
L 605.003329 -155.969725 
L 605.778976 -155.969725 
L 606.554622 -155.969724 
L 607.330268 -155.969724 
L 608.105915 -155.969723 
L 608.881561 -155.969723 
L 609.657208 -155.969722 
L 610.432854 -155.969722 
L 611.2085 -155.969722 
L 611.984147 -155.969721 
L 612.759793 -155.969721 
L 613.535439 -155.96972 
L 614.311086 -155.96972 
L 615.086732 -155.96972 
L 615.862379 -155.969719 
L 616.638025 -155.969719 
L 617.413671 -155.969719 
L 618.189318 -155.969719 
L 618.964964 -155.969718 
L 619.74061 -155.969718 
L 620.516257 -155.969718 
L 621.291903 -155.969717 
L 622.06755 -155.969717 
L 622.843196 -155.969717 
L 623.618842 -155.969717 
L 624.394489 -155.969716 
L 624.394489 -156.728757 
L 624.394489 -156.728757 
L 623.618842 -156.736409 
L 622.843196 -156.744139 
L 622.06755 -156.751947 
L 621.291903 -156.759833 
L 620.516257 -156.767798 
L 619.74061 -156.775844 
L 618.964964 -156.783971 
L 618.189318 -156.79218 
L 617.413671 -156.800471 
L 616.638025 -156.808845 
L 615.862379 -156.817304 
L 615.086732 -156.825848 
L 614.311086 -156.834478 
L 613.535439 -156.843195 
L 612.759793 -156.852 
L 611.984147 -156.860893 
L 611.2085 -156.869876 
L 610.432854 -156.878949 
L 609.657208 -156.888114 
L 608.881561 -156.89737 
L 608.105915 -156.90672 
L 607.330268 -156.916164 
L 606.554622 -156.925703 
L 605.778976 -156.935337 
L 605.003329 -156.945069 
L 604.227683 -156.954899 
L 603.452037 -156.964827 
L 602.67639 -156.974856 
L 601.900744 -156.984985 
L 601.125097 -156.995216 
L 600.349451 -157.00555 
L 599.573805 -157.015988 
L 598.798158 -157.026531 
L 598.022512 -157.03718 
L 597.246866 -157.047936 
L 596.471219 -157.0588 
L 595.695573 -157.069774 
L 594.919927 -157.080858 
L 594.14428 -157.092053 
L 593.368634 -157.103361 
L 592.592987 -157.114782 
L 591.817341 -157.126319 
L 591.041695 -157.137971 
L 590.266048 -157.149741 
L 589.490402 -157.161628 
L 588.714756 -157.173636 
L 587.939109 -157.185764 
L 587.163463 -157.198014 
L 586.387816 -157.210386 
L 585.61217 -157.222884 
L 584.836524 -157.235507 
L 584.060877 -157.248256 
L 583.285231 -157.261134 
L 582.509585 -157.274142 
L 581.733938 -157.28728 
L 580.958292 -157.30055 
L 580.182645 -157.313953 
L 579.406999 -157.327491 
L 578.631353 -157.341165 
L 577.855706 -157.354976 
L 577.08006 -157.368926 
L 576.304414 -157.383016 
L 575.528767 -157.397248 
L 574.753121 -157.411622 
L 573.977474 -157.426141 
L 573.201828 -157.440806 
L 572.426182 -157.455618 
L 571.650535 -157.470578 
L 570.874889 -157.485689 
L 570.099243 -157.500952 
L 569.323596 -157.516368 
L 568.54795 -157.531938 
L 567.772303 -157.547665 
L 566.996657 -157.56355 
L 566.221011 -157.579594 
L 565.445364 -157.595799 
L 564.669718 -157.612167 
L 563.894072 -157.628699 
L 563.118425 -157.645397 
L 562.342779 -157.662263 
L 561.567133 -157.679297 
L 560.791486 -157.696503 
L 560.01584 -157.713881 
L 559.240193 -157.731434 
L 558.464547 -157.749162 
L 557.688901 -157.767068 
L 556.913254 -157.785154 
L 556.137608 -157.803422 
L 555.361962 -157.821872 
L 554.586315 -157.840508 
L 553.810669 -157.85933 
L 553.035022 -157.878341 
L 552.259376 -157.897543 
L 551.48373 -157.916937 
L 550.708083 -157.936526 
L 549.932437 -157.95631 
L 549.156791 -157.976294 
L 548.381144 -157.996477 
L 547.605498 -158.016863 
L 546.829851 -158.037453 
L 546.054205 -158.058249 
L 545.278559 -158.079253 
L 544.502912 -158.100468 
L 543.727266 -158.121896 
L 542.95162 -158.143538 
L 542.175973 -158.165397 
L 541.400327 -158.187474 
L 540.62468 -158.209773 
L 539.849034 -158.232295 
L 539.073388 -158.255043 
L 538.297741 -158.278018 
L 537.522095 -158.301223 
L 536.746449 -158.324661 
L 535.970802 -158.348333 
L 535.195156 -158.372242 
L 534.419509 -158.39639 
L 533.643863 -158.42078 
L 532.868217 -158.445413 
L 532.09257 -158.470294 
L 531.316924 -158.495423 
L 530.541278 -158.520803 
L 529.765631 -158.546438 
L 528.989985 -158.572328 
L 528.214339 -158.598478 
L 527.438692 -158.624889 
L 526.663046 -158.651564 
L 525.887399 -158.678505 
L 525.111753 -158.705716 
L 524.336107 -158.733199 
L 523.56046 -158.760956 
L 522.784814 -158.788991 
L 522.009168 -158.817306 
L 521.233521 -158.845904 
L 520.457875 -158.874787 
L 519.682228 -158.903959 
L 518.906582 -158.933422 
L 518.130936 -158.96318 
L 517.355289 -158.993234 
L 516.579643 -159.023589 
L 515.803997 -159.054246 
L 515.02835 -159.08521 
L 514.252704 -159.116482 
L 513.477057 -159.148067 
L 512.701411 -159.179967 
L 511.925765 -159.212185 
L 511.150118 -159.244724 
L 510.374472 -159.277588 
L 509.598826 -159.310779 
L 508.823179 -159.344302 
L 508.047533 -159.378159 
L 507.271886 -159.412353 
L 506.49624 -159.446888 
L 505.720594 -159.481767 
L 504.944947 -159.516994 
L 504.169301 -159.552572 
L 503.393655 -159.588504 
L 502.618008 -159.624794 
L 501.842362 -159.661446 
L 501.066715 -159.698462 
L 500.291069 -159.735847 
L 499.515423 -159.773605 
L 498.739776 -159.811738 
L 497.96413 -159.85025 
L 497.188484 -159.889146 
L 496.412837 -159.928429 
L 495.637191 -159.968103 
L 494.861545 -160.008171 
L 494.085898 -160.048638 
L 493.310252 -160.089507 
L 492.534605 -160.130782 
L 491.758959 -160.172468 
L 490.983313 -160.214568 
L 490.207666 -160.257086 
L 489.43202 -160.300027 
L 488.656374 -160.343394 
L 487.880727 -160.387192 
L 487.105081 -160.431425 
L 486.329434 -160.476098 
L 485.553788 -160.521213 
L 484.778142 -160.566777 
L 484.002495 -160.612792 
L 483.226849 -160.659265 
L 482.451203 -160.706198 
L 481.675556 -160.753597 
L 480.89991 -160.801465 
L 480.124263 -160.849809 
L 479.348617 -160.898632 
L 478.572971 -160.947938 
L 477.797324 -160.997733 
L 477.021678 -161.048022 
L 476.246032 -161.098808 
L 475.470385 -161.150098 
L 474.694739 -161.201896 
L 473.919092 -161.254206 
L 473.143446 -161.307034 
L 472.3678 -161.360385 
L 471.592153 -161.414264 
L 470.816507 -161.468675 
L 470.040861 -161.523625 
L 469.265214 -161.579118 
L 468.489568 -161.63516 
L 467.713921 -161.691755 
L 466.938275 -161.74891 
L 466.162629 -161.80663 
L 465.386982 -161.864919 
L 464.611336 -161.923784 
L 463.83569 -161.983231 
L 463.060043 -162.043264 
L 462.284397 -162.103889 
L 461.508751 -162.165113 
L 460.733104 -162.22694 
L 459.957458 -162.289377 
L 459.181811 -162.35243 
L 458.406165 -162.416104 
L 457.630519 -162.480406 
L 456.854872 -162.545341 
L 456.079226 -162.610916 
L 455.30358 -162.677136 
L 454.527933 -162.744008 
L 453.752287 -162.811539 
L 452.97664 -162.879733 
L 452.200994 -162.948599 
L 451.425348 -163.018142 
L 450.649701 -163.088368 
L 449.874055 -163.159285 
L 449.098409 -163.230898 
L 448.322762 -163.303215 
L 447.547116 -163.376242 
L 446.771469 -163.449986 
L 445.995823 -163.524454 
L 445.220177 -163.599653 
L 444.44453 -163.675589 
L 443.668884 -163.75227 
L 442.893238 -163.829702 
L 442.117591 -163.907894 
L 441.341945 -163.986851 
L 440.566298 -164.066582 
L 439.790652 -164.147093 
L 439.015006 -164.228393 
L 438.239359 -164.310488 
L 437.463713 -164.393386 
L 436.688067 -164.477095 
L 435.91242 -164.561622 
L 435.136774 -164.646975 
L 434.361128 -164.733162 
L 433.585481 -164.82019 
L 432.809835 -164.908069 
L 432.034188 -164.996805 
L 431.258542 -165.086406 
L 430.482896 -165.176882 
L 429.707249 -165.268239 
L 428.931603 -165.360487 
L 428.155957 -165.453633 
L 427.38031 -165.547687 
L 426.604664 -165.642656 
L 425.829017 -165.738549 
L 425.053371 -165.835375 
L 424.277725 -165.933143 
L 423.502078 -166.031861 
L 422.726432 -166.131538 
L 421.950786 -166.232184 
L 421.175139 -166.333806 
L 420.399493 -166.436415 
L 419.623846 -166.540019 
L 418.8482 -166.644627 
L 418.072554 -166.75025 
L 417.296907 -166.856896 
L 416.521261 -166.964575 
L 415.745615 -167.073296 
L 414.969968 -167.183069 
L 414.194322 -167.293904 
L 413.418675 -167.405811 
L 412.643029 -167.518799 
L 411.867383 -167.632878 
L 411.091736 -167.748059 
L 410.31609 -167.864352 
L 409.540444 -167.981766 
L 408.764797 -168.100312 
L 407.989151 -168.220001 
L 407.213504 -168.340842 
L 406.437858 -168.462847 
L 405.662212 -168.586027 
L 404.886565 -168.710391 
L 404.110919 -168.83595 
L 403.335273 -168.962716 
L 402.559626 -169.090699 
L 401.78398 -169.219911 
L 401.008334 -169.350363 
L 400.232687 -169.482065 
L 399.457041 -169.61503 
L 398.681394 -169.749268 
L 397.905748 -169.884792 
L 397.130102 -170.021612 
L 396.354455 -170.159741 
L 395.578809 -170.299189 
L 394.803163 -170.43997 
L 394.027516 -170.582095 
L 393.25187 -170.725576 
L 392.476223 -170.870425 
L 391.700577 -171.016655 
L 390.924931 -171.164277 
L 390.149284 -171.313305 
L 389.373638 -171.46375 
L 388.597992 -171.615626 
L 387.822345 -171.768944 
L 387.046699 -171.923719 
L 386.271052 -172.079962 
L 385.495406 -172.237687 
L 384.71976 -172.396907 
L 383.944113 -172.557634 
L 383.168467 -172.719883 
L 382.392821 -172.883667 
L 381.617174 -173.048998 
L 380.841528 -173.215892 
L 380.065881 -173.38436 
L 379.290235 -173.554418 
L 378.514589 -173.726079 
L 377.738942 -173.899356 
L 376.963296 -174.074265 
L 376.18765 -174.250819 
L 375.412003 -174.429032 
L 374.636357 -174.608919 
L 373.86071 -174.790494 
L 373.085064 -174.973772 
L 372.309418 -175.158767 
L 371.533771 -175.345494 
L 370.758125 -175.533969 
L 369.982479 -175.724205 
L 369.206832 -175.916219 
L 368.431186 -176.110024 
L 367.65554 -176.305637 
L 366.879893 -176.503073 
L 366.104247 -176.702348 
L 365.3286 -176.903475 
L 364.552954 -177.106473 
L 363.777308 -177.311356 
L 363.001661 -177.518139 
L 362.226015 -177.72684 
L 361.450369 -177.937474 
L 360.674722 -178.150057 
L 359.899076 -178.364605 
L 359.123429 -178.581136 
L 358.347783 -178.799665 
L 357.572137 -179.020208 
L 356.79649 -179.242783 
L 356.020844 -179.467407 
L 355.245198 -179.694095 
L 354.469551 -179.922866 
L 353.693905 -180.153736 
L 352.918258 -180.386722 
L 352.142612 -180.621841 
L 351.366966 -180.859112 
L 350.591319 -181.09855 
L 349.815673 -181.340175 
L 349.040027 -181.584003 
L 348.26438 -181.830052 
L 347.488734 -182.07834 
L 346.713087 -182.328886 
L 345.937441 -182.581706 
L 345.161795 -182.836819 
L 344.386148 -183.094243 
L 343.610502 -183.353997 
L 342.834856 -183.616099 
L 342.059209 -183.880568 
L 341.283563 -184.147421 
L 340.507916 -184.416678 
L 339.73227 -184.688358 
L 338.956624 -184.962478 
L 338.180977 -185.239059 
L 337.405331 -185.518119 
L 336.629685 -185.799677 
L 335.854038 -186.083753 
L 335.078392 -186.370365 
L 334.302746 -186.659533 
L 333.527099 -186.951276 
L 332.751453 -187.245615 
L 331.975806 -187.542568 
L 331.20016 -187.842155 
L 330.424514 -188.144396 
L 329.648867 -188.449311 
L 328.873221 -188.756919 
L 328.097575 -189.067241 
L 327.321928 -189.380297 
L 326.546282 -189.696106 
L 325.770635 -190.014689 
L 324.994989 -190.336066 
L 324.219343 -190.660257 
L 323.443696 -190.987283 
L 322.66805 -191.317164 
L 321.892404 -191.649921 
L 321.116757 -191.985574 
L 320.341111 -192.324144 
L 319.565464 -192.665651 
L 318.789818 -193.010116 
L 318.014172 -193.35756 
L 317.238525 -193.708004 
L 316.462879 -194.061468 
L 315.687233 -194.417974 
L 314.911586 -194.777542 
L 314.13594 -195.140194 
L 313.360293 -195.505949 
L 312.584647 -195.87483 
L 311.809001 -196.246858 
L 311.033354 -196.622053 
L 310.257708 -197.000437 
L 309.482062 -197.38203 
L 308.706415 -197.766855 
L 307.930769 -198.154931 
L 307.155122 -198.546282 
L 306.379476 -198.940927 
L 305.60383 -199.338887 
L 304.828183 -199.740185 
L 304.052537 -200.144842 
L 303.276891 -200.552877 
L 302.501244 -200.964314 
L 301.725598 -201.379173 
L 300.949952 -201.797476 
L 300.174305 -202.219242 
L 299.398659 -202.644495 
L 298.623012 -203.073255 
L 297.847366 -203.505542 
L 297.07172 -203.941379 
L 296.296073 -204.380787 
L 295.520427 -204.823786 
L 294.744781 -205.270397 
L 293.969134 -205.720641 
L 293.193488 -206.17454 
L 292.417841 -206.632115 
L 291.642195 -207.093385 
L 290.866549 -207.558372 
L 290.090902 -208.027097 
L 289.315256 -208.49958 
L 288.53961 -208.975842 
L 287.763963 -209.455902 
L 286.988317 -209.939783 
L 286.21267 -210.427503 
L 285.437024 -210.919084 
L 284.661378 -211.414544 
L 283.885731 -211.913905 
L 283.110085 -212.417187 
L 282.334439 -212.924408 
L 281.558792 -213.435588 
L 280.783146 -213.950748 
L 280.007499 -214.469906 
L 279.231853 -214.993082 
L 278.456207 -215.520296 
L 277.68056 -216.051564 
L 276.904914 -216.586908 
L 276.129268 -217.126345 
L 275.353621 -217.669894 
L 274.577975 -218.217573 
L 273.802329 -218.769401 
L 273.026682 -219.325395 
L 272.251036 -219.885572 
L 271.475389 -220.449952 
L 270.699743 -221.01855 
L 269.924097 -221.591385 
L 269.14845 -222.168472 
L 268.372804 -222.749829 
L 267.597158 -223.335473 
L 266.821511 -223.925419 
L 266.045865 -224.519683 
L 265.270218 -225.118281 
L 264.494572 -225.721228 
L 263.718926 -226.328541 
L 262.943279 -226.940232 
L 262.167633 -227.556318 
L 261.391987 -228.176813 
L 260.61634 -228.80173 
L 259.840694 -229.431082 
L 259.065047 -230.064885 
L 258.289401 -230.70315 
L 257.513755 -231.34589 
L 256.738108 -231.993118 
L 255.962462 -232.644846 
L 255.186816 -233.301084 
L 254.411169 -233.961846 
L 253.635523 -234.62714 
L 252.859876 -235.296979 
L 252.08423 -235.971371 
L 251.308584 -236.650328 
L 250.532937 -237.333857 
L 249.757291 -238.021968 
L 248.981645 -238.714669 
L 248.205998 -239.411969 
L 247.430352 -240.113874 
L 246.654705 -240.820391 
L 245.879059 -241.531529 
L 245.103413 -242.247291 
L 244.327766 -242.967684 
L 243.55212 -243.692714 
L 242.776474 -244.422384 
L 242.000827 -245.156698 
L 241.225181 -245.895661 
L 240.449535 -246.639274 
L 239.673888 -247.387542 
L 238.898242 -248.140464 
L 238.122595 -248.898042 
L 237.346949 -249.660278 
L 236.571303 -250.427171 
L 235.795656 -251.19872 
L 235.02001 -251.974925 
L 234.244364 -252.755783 
L 233.468717 -253.541292 
L 232.693071 -254.331448 
L 231.917424 -255.126249 
L 231.141778 -255.925688 
L 230.366132 -256.729762 
L 229.590485 -257.538464 
L 228.814839 -258.351787 
L 228.039193 -259.169724 
L 227.263546 -259.992267 
L 226.4879 -260.819407 
L 225.712253 -261.651133 
L 224.936607 -262.487436 
L 224.160961 -263.328304 
L 223.385314 -264.173725 
L 222.609668 -265.023685 
L 221.834022 -265.878171 
L 221.058375 -266.737169 
L 220.282729 -267.600661 
L 219.507082 -268.468632 
L 218.731436 -269.341065 
L 217.95579 -270.217939 
L 217.180143 -271.099237 
L 216.404497 -271.984937 
L 215.628851 -272.875018 
L 214.853204 -273.769457 
L 214.077558 -274.668231 
L 213.301911 -275.571315 
L 212.526265 -276.478683 
L 211.750619 -277.390308 
L 210.974972 -278.306162 
L 210.199326 -279.226216 
L 209.42368 -280.150438 
L 208.648033 -281.078797 
L 207.872387 -282.011259 
L 207.096741 -282.947791 
L 206.321094 -283.888356 
L 205.545448 -284.832916 
L 204.769801 -285.781434 
L 203.994155 -286.733867 
L 203.218509 -287.690175 
L 202.442862 -288.650314 
L 201.667216 -289.614239 
L 200.89157 -290.581902 
L 200.115923 -291.553254 
L 199.340277 -292.528245 
L 198.56463 -293.506822 
L 197.788984 -294.48893 
L 197.013338 -295.474513 
L 196.237691 -296.46351 
L 195.462045 -297.455861 
L 194.686399 -298.451502 
L 193.910752 -299.450366 
L 193.135106 -300.452384 
L 192.359459 -301.457484 
L 191.583813 -302.46559 
L 190.808167 -303.476626 
L 190.03252 -304.490509 
L 189.256874 -305.507154 
L 188.481228 -306.526473 
L 187.705581 -307.548374 
L 186.929935 -308.572761 
L 186.154288 -309.599531 
L 185.378642 -310.628581 
L 184.602996 -311.659799 
L 183.827349 -312.69307 
L 183.051703 -313.728273 
L 182.276057 -314.765281 
L 181.50041 -315.803961 
L 180.724764 -316.844174 
L 179.949117 -317.885771 
L 179.173471 -318.9286 
L 178.397825 -319.972497 
L 177.622178 -321.017291 
L 176.846532 -322.062801 
L 176.070886 -323.108838 
L 175.295239 -324.1552 
L 174.519593 -325.201674 
L 173.743947 -326.248037 
L 172.9683 -327.294051 
L 172.192654 -328.339464 
L 171.417007 -329.384009 
L 170.641361 -330.427403 
L 169.865715 -331.469347 
L 169.090068 -332.509521 
L 168.314422 -333.547586 
L 167.538776 -334.583182 
L 166.763129 -335.615924 
L 165.987483 -336.645404 
L 165.211836 -337.671185 
L 164.43619 -338.692801 
L 163.660544 -339.709755 
L 162.884897 -340.721516 
L 162.109251 -341.727516 
L 161.333605 -342.727147 
L 160.557958 -343.719758 
L 159.782312 -344.70465 
L 159.006665 -345.681076 
L 158.231019 -346.648231 
L 157.455373 -347.605253 
L 156.679726 -348.551212 
L 155.90408 -349.485111 
L 155.128434 -350.405873 
L 154.352787 -351.312338 
L 153.577141 -352.203255 
L 152.801494 -353.077272 
L 152.025848 -353.932928 
L 151.250202 -354.76864 
L 150.474555 -355.582694 
L 149.698909 -356.373231 
L 148.923263 -357.138229 
L 148.147616 -357.875491 
L 147.37197 -358.582622 
L 146.596323 -359.257011 
L 145.820677 -359.895802 
L 145.045031 -360.495871 
L 144.269384 -361.053791 
L 143.493738 -361.565796 
L 142.718092 -362.02774 
L 141.942445 -362.435049 
L 141.166799 -362.78266 
L 140.391153 -363.064963 
L 139.615506 -363.275717 
L 138.83986 -363.407966 
L 138.064213 -363.453932 
L 137.288567 -363.404885 
L 136.512921 -363.330955 
L 135.737274 -363.439743 
L 134.961628 -363.439182 
L 134.185982 -363.315762 
L 133.410335 -363.384851 
L 132.634689 -363.453932 
L 131.859042 -363.377932 
L 131.083396 -363.260661 
L 130.30775 -363.431165 
L 129.532103 -363.429736 
L 128.756457 -363.221894 
L 127.980811 -363.335732 
L 127.205164 -363.453932 
L 126.429518 -363.314707 
L 125.653871 -362.845375 
L 124.878225 -361.949768 
L 124.102579 -360.498884 
L 123.326932 -358.316758 
L 122.551286 -355.158502 
L 121.77564 -350.674971 
L 120.999993 -344.353826 
L 120.224347 -335.416942 
L 119.4487 -322.63299 
L 118.673054 -303.954983 
L 117.897408 -275.770174 
L 117.121761 -231.214026 
z
" style="stroke: #ffa500; stroke-opacity: 0.3"/>
    </defs>
    <g clip-path="url(#p3dca9151f5)">
     <use xlink:href="#mdff201f453" x="0" y="540.100875" style="fill: #ffa500; fill-opacity: 0.3; stroke: #ffa500; stroke-opacity: 0.3"/>
    </g>
   </g>
   <g id="PolyCollection_2">
    <defs>
     <path id="m6f7ecd8d71" d="M 117.121761 -464.06096 
L 117.121761 -397.116121 
L 117.897408 -450.864899 
L 118.673054 -467.331633 
L 119.4487 -473.524795 
L 120.224347 -476.220388 
L 120.999993 -477.530684 
L 121.77564 -478.225437 
L 122.551286 -478.620647 
L 123.326932 -478.858897 
L 124.102579 -479.009679 
L 124.878225 -479.109112 
L 125.653871 -479.177024 
L 126.429518 -479.224817 
L 127.205164 -479.259326 
L 127.980811 -479.28479 
L 128.756457 -479.303928 
L 129.532103 -479.318529 
L 130.30775 -479.3298 
L 131.083396 -479.338576 
L 131.859042 -479.343679 
L 132.634689 -479.336209 
L 133.410335 -479.327415 
L 134.185982 -479.317166 
L 134.961628 -479.305309 
L 135.737274 -479.291664 
L 136.512921 -479.27603 
L 137.288567 -479.258179 
L 138.064213 -479.237855 
L 138.83986 -479.214775 
L 139.615506 -479.188628 
L 140.391153 -479.159068 
L 141.166799 -479.125719 
L 141.942445 -479.08817 
L 142.718092 -479.045971 
L 143.493738 -478.998637 
L 144.269384 -478.945641 
L 145.045031 -478.886414 
L 145.820677 -478.820343 
L 146.596323 -478.746773 
L 147.37197 -478.665 
L 148.147616 -478.574273 
L 148.923263 -478.473791 
L 149.698909 -478.362706 
L 150.474555 -478.240117 
L 151.250202 -478.105074 
L 152.025848 -477.956576 
L 152.801494 -477.793568 
L 153.577141 -477.614949 
L 154.352787 -477.419565 
L 155.128434 -477.206213 
L 155.90408 -476.973645 
L 156.679726 -476.720566 
L 157.455373 -476.445636 
L 158.231019 -476.147477 
L 159.006665 -475.824669 
L 159.782312 -475.475761 
L 160.557958 -475.099269 
L 161.333605 -474.69368 
L 162.109251 -474.257462 
L 162.884897 -473.789062 
L 163.660544 -473.286915 
L 164.43619 -472.749448 
L 165.211836 -472.175088 
L 165.987483 -471.562262 
L 166.763129 -470.90941 
L 167.538776 -470.214989 
L 168.314422 -469.477476 
L 169.090068 -468.695379 
L 169.865715 -467.867243 
L 170.641361 -466.991655 
L 171.417007 -466.06725 
L 172.192654 -465.09272 
L 172.9683 -464.066822 
L 173.743947 -462.988377 
L 174.519593 -461.856284 
L 175.295239 -460.669522 
L 176.070886 -459.427157 
L 176.846532 -458.128346 
L 177.622178 -456.772343 
L 178.397825 -455.358503 
L 179.173471 -453.886286 
L 179.949117 -452.35526 
L 180.724764 -450.765108 
L 181.50041 -449.115625 
L 182.276057 -447.406723 
L 183.051703 -445.638434 
L 183.827349 -443.810909 
L 184.602996 -441.924419 
L 185.378642 -439.979355 
L 186.154288 -437.976229 
L 186.929935 -435.915669 
L 187.705581 -433.798423 
L 188.481228 -431.625352 
L 189.256874 -429.397431 
L 190.03252 -427.115743 
L 190.808167 -424.781478 
L 191.583813 -422.395928 
L 192.359459 -419.960482 
L 193.135106 -417.476624 
L 193.910752 -414.945926 
L 194.686399 -412.370042 
L 195.462045 -409.750705 
L 196.237691 -407.08972 
L 197.013338 -404.388957 
L 197.788984 -401.65035 
L 198.56463 -398.875882 
L 199.340277 -396.067589 
L 200.115923 -393.227546 
L 200.89157 -390.357864 
L 201.667216 -387.460686 
L 202.442862 -384.538174 
L 203.218509 -381.592512 
L 203.994155 -378.625893 
L 204.769801 -375.640515 
L 205.545448 -372.638578 
L 206.321094 -369.622276 
L 207.096741 -366.593791 
L 207.872387 -363.55529 
L 208.648033 -360.50892 
L 209.42368 -357.456803 
L 210.199326 -354.40103 
L 210.974972 -351.343659 
L 211.750619 -348.286712 
L 212.526265 -345.232168 
L 213.301911 -342.181962 
L 214.077558 -339.137983 
L 214.853204 -336.10207 
L 215.628851 -333.076008 
L 216.404497 -330.061528 
L 217.180143 -327.060305 
L 217.95579 -324.073955 
L 218.731436 -321.104036 
L 219.507082 -318.152043 
L 220.282729 -315.21941 
L 221.058375 -312.307508 
L 221.834022 -309.417647 
L 222.609668 -306.551071 
L 223.385314 -303.708963 
L 224.160961 -300.892441 
L 224.936607 -298.102559 
L 225.712253 -295.340312 
L 226.4879 -292.60663 
L 227.263546 -289.902381 
L 228.039193 -287.228375 
L 228.814839 -284.585362 
L 229.590485 -281.974031 
L 230.366132 -279.395017 
L 231.141778 -276.848897 
L 231.917424 -274.336193 
L 232.693071 -271.857376 
L 233.468717 -269.412863 
L 234.244364 -267.00302 
L 235.02001 -264.628168 
L 235.795656 -262.288578 
L 236.571303 -259.984475 
L 237.346949 -257.716042 
L 238.122595 -255.483419 
L 238.898242 -253.286705 
L 239.673888 -251.125962 
L 240.449535 -249.001212 
L 241.225181 -246.912443 
L 242.000827 -244.85961 
L 242.776474 -242.842635 
L 243.55212 -240.86141 
L 244.327766 -238.915795 
L 245.103413 -237.005627 
L 245.879059 -235.130714 
L 246.654705 -233.290841 
L 247.430352 -231.485769 
L 248.205998 -229.715239 
L 248.981645 -227.97897 
L 249.757291 -226.276664 
L 250.532937 -224.608004 
L 251.308584 -222.972658 
L 252.08423 -221.370278 
L 252.859876 -219.800504 
L 253.635523 -218.262961 
L 254.411169 -216.757265 
L 255.186816 -215.283019 
L 255.962462 -213.839818 
L 256.738108 -212.427249 
L 257.513755 -211.04489 
L 258.289401 -209.692315 
L 259.065047 -208.369088 
L 259.840694 -207.074773 
L 260.61634 -205.808925 
L 261.391987 -204.5711 
L 262.167633 -203.360849 
L 262.943279 -202.17772 
L 263.718926 -201.021262 
L 264.494572 -199.891021 
L 265.270218 -198.786544 
L 266.045865 -197.707378 
L 266.821511 -196.653071 
L 267.597158 -195.623172 
L 268.372804 -194.61723 
L 269.14845 -193.634799 
L 269.924097 -192.675434 
L 270.699743 -191.738693 
L 271.475389 -190.824136 
L 272.251036 -189.931328 
L 273.026682 -189.059838 
L 273.802329 -188.209237 
L 274.577975 -187.379103 
L 275.353621 -186.569015 
L 276.129268 -185.778559 
L 276.904914 -185.007327 
L 277.68056 -184.254912 
L 278.456207 -183.520916 
L 279.231853 -182.804944 
L 280.007499 -182.106608 
L 280.783146 -181.425524 
L 281.558792 -180.761315 
L 282.334439 -180.113608 
L 283.110085 -179.482038 
L 283.885731 -178.866243 
L 284.661378 -178.265869 
L 285.437024 -177.680567 
L 286.21267 -177.109995 
L 286.988317 -176.553815 
L 287.763963 -176.011696 
L 288.53961 -175.483313 
L 289.315256 -174.968346 
L 290.090902 -174.466482 
L 290.866549 -173.977414 
L 291.642195 -173.50084 
L 292.417841 -173.036463 
L 293.193488 -172.583995 
L 293.969134 -172.143149 
L 294.744781 -171.713648 
L 295.520427 -171.295218 
L 296.296073 -170.887592 
L 297.07172 -170.490507 
L 297.847366 -170.103707 
L 298.623012 -169.726941 
L 299.398659 -169.359963 
L 300.174305 -169.002532 
L 300.949952 -168.654413 
L 301.725598 -168.315375 
L 302.501244 -167.985193 
L 303.276891 -167.663647 
L 304.052537 -167.350521 
L 304.828183 -167.045605 
L 305.60383 -166.748692 
L 306.379476 -166.459582 
L 307.155122 -166.178077 
L 307.930769 -165.903987 
L 308.706415 -165.637122 
L 309.482062 -165.377299 
L 310.257708 -165.12434 
L 311.033354 -164.87807 
L 311.809001 -164.638318 
L 312.584647 -164.404916 
L 313.360293 -164.177703 
L 314.13594 -163.956518 
L 314.911586 -163.741208 
L 315.687233 -163.531621 
L 316.462879 -163.327609 
L 317.238525 -163.129028 
L 318.014172 -162.935737 
L 318.789818 -162.747599 
L 319.565464 -162.56448 
L 320.341111 -162.386249 
L 321.116757 -162.21278 
L 321.892404 -162.043948 
L 322.66805 -161.879632 
L 323.443696 -161.719713 
L 324.219343 -161.564078 
L 324.994989 -161.412612 
L 325.770635 -161.265207 
L 326.546282 -161.121757 
L 327.321928 -160.982156 
L 328.097575 -160.846304 
L 328.873221 -160.714102 
L 329.648867 -160.585454 
L 330.424514 -160.460265 
L 331.20016 -160.338444 
L 331.975806 -160.219902 
L 332.751453 -160.104553 
L 333.527099 -159.99231 
L 334.302746 -159.883093 
L 335.078392 -159.776821 
L 335.854038 -159.673414 
L 336.629685 -159.572798 
L 337.405331 -159.474898 
L 338.180977 -159.379641 
L 338.956624 -159.286957 
L 339.73227 -159.196778 
L 340.507916 -159.109036 
L 341.283563 -159.023666 
L 342.059209 -158.940605 
L 342.834856 -158.859792 
L 343.610502 -158.781165 
L 344.386148 -158.704667 
L 345.161795 -158.63024 
L 345.937441 -158.557829 
L 346.713087 -158.487379 
L 347.488734 -158.418839 
L 348.26438 -158.352156 
L 349.040027 -158.287282 
L 349.815673 -158.224166 
L 350.591319 -158.162763 
L 351.366966 -158.103026 
L 352.142612 -158.044909 
L 352.918258 -157.98837 
L 353.693905 -157.933366 
L 354.469551 -157.879856 
L 355.245198 -157.827798 
L 356.020844 -157.777155 
L 356.79649 -157.727888 
L 357.572137 -157.679959 
L 358.347783 -157.633333 
L 359.123429 -157.587975 
L 359.899076 -157.543849 
L 360.674722 -157.500924 
L 361.450369 -157.459165 
L 362.226015 -157.418543 
L 363.001661 -157.379025 
L 363.777308 -157.340583 
L 364.552954 -157.303187 
L 365.3286 -157.266809 
L 366.104247 -157.23142 
L 366.879893 -157.196995 
L 367.65554 -157.163508 
L 368.431186 -157.130932 
L 369.206832 -157.099243 
L 369.982479 -157.068417 
L 370.758125 -157.038431 
L 371.533771 -157.009262 
L 372.309418 -156.980887 
L 373.085064 -156.953286 
L 373.86071 -156.926436 
L 374.636357 -156.900319 
L 375.412003 -156.874913 
L 376.18765 -156.850199 
L 376.963296 -156.826159 
L 377.738942 -156.802775 
L 378.514589 -156.780028 
L 379.290235 -156.757901 
L 380.065881 -156.736378 
L 380.841528 -156.715442 
L 381.617174 -156.695076 
L 382.392821 -156.675267 
L 383.168467 -156.655997 
L 383.944113 -156.637253 
L 384.71976 -156.61902 
L 385.495406 -156.601285 
L 386.271052 -156.584034 
L 387.046699 -156.567253 
L 387.822345 -156.550931 
L 388.597992 -156.535053 
L 389.373638 -156.519609 
L 390.149284 -156.504587 
L 390.924931 -156.489974 
L 391.700577 -156.47576 
L 392.476223 -156.461935 
L 393.25187 -156.448486 
L 394.027516 -156.435405 
L 394.803163 -156.422681 
L 395.578809 -156.410304 
L 396.354455 -156.398266 
L 397.130102 -156.386556 
L 397.905748 -156.375165 
L 398.681394 -156.364086 
L 399.457041 -156.353309 
L 400.232687 -156.342827 
L 401.008334 -156.33263 
L 401.78398 -156.322712 
L 402.559626 -156.313066 
L 403.335273 -156.303682 
L 404.110919 -156.294555 
L 404.886565 -156.285677 
L 405.662212 -156.277042 
L 406.437858 -156.268642 
L 407.213504 -156.260472 
L 407.989151 -156.252525 
L 408.764797 -156.244795 
L 409.540444 -156.237277 
L 410.31609 -156.229963 
L 411.091736 -156.22285 
L 411.867383 -156.215931 
L 412.643029 -156.209201 
L 413.418675 -156.202655 
L 414.194322 -156.196287 
L 414.969968 -156.190094 
L 415.745615 -156.18407 
L 416.521261 -156.17821 
L 417.296907 -156.172511 
L 418.072554 -156.166967 
L 418.8482 -156.161575 
L 419.623846 -156.15633 
L 420.399493 -156.151229 
L 421.175139 -156.146266 
L 421.950786 -156.14144 
L 422.726432 -156.136745 
L 423.502078 -156.132179 
L 424.277725 -156.127738 
L 425.053371 -156.123417 
L 425.829017 -156.119215 
L 426.604664 -156.115128 
L 427.38031 -156.111153 
L 428.155957 -156.107286 
L 428.931603 -156.103525 
L 429.707249 -156.099866 
L 430.482896 -156.096308 
L 431.258542 -156.092847 
L 432.034188 -156.08948 
L 432.809835 -156.086206 
L 433.585481 -156.083021 
L 434.361128 -156.079923 
L 435.136774 -156.07691 
L 435.91242 -156.073979 
L 436.688067 -156.071128 
L 437.463713 -156.068355 
L 438.239359 -156.065658 
L 439.015006 -156.063035 
L 439.790652 -156.060483 
L 440.566298 -156.058001 
L 441.341945 -156.055587 
L 442.117591 -156.053239 
L 442.893238 -156.050955 
L 443.668884 -156.048734 
L 444.44453 -156.046573 
L 445.220177 -156.044472 
L 445.995823 -156.042427 
L 446.771469 -156.040439 
L 447.547116 -156.038505 
L 448.322762 -156.036624 
L 449.098409 -156.034795 
L 449.874055 -156.033015 
L 450.649701 -156.031284 
L 451.425348 -156.0296 
L 452.200994 -156.027963 
L 452.97664 -156.02637 
L 453.752287 -156.024821 
L 454.527933 -156.023314 
L 455.30358 -156.021848 
L 456.079226 -156.020422 
L 456.854872 -156.019036 
L 457.630519 -156.017687 
L 458.406165 -156.016375 
L 459.181811 -156.015099 
L 459.957458 -156.013858 
L 460.733104 -156.012651 
L 461.508751 -156.011477 
L 462.284397 -156.010335 
L 463.060043 -156.009224 
L 463.83569 -156.008143 
L 464.611336 -156.007092 
L 465.386982 -156.00607 
L 466.162629 -156.005076 
L 466.938275 -156.004109 
L 467.713921 -156.003168 
L 468.489568 -156.002253 
L 469.265214 -156.001363 
L 470.040861 -156.000498 
L 470.816507 -155.999656 
L 471.592153 -155.998837 
L 472.3678 -155.99804 
L 473.143446 -155.997266 
L 473.919092 -155.996512 
L 474.694739 -155.995779 
L 475.470385 -155.995066 
L 476.246032 -155.994373 
L 477.021678 -155.993698 
L 477.797324 -155.993042 
L 478.572971 -155.992404 
L 479.348617 -155.991784 
L 480.124263 -155.99118 
L 480.89991 -155.990593 
L 481.675556 -155.990022 
L 482.451203 -155.989466 
L 483.226849 -155.988926 
L 484.002495 -155.988401 
L 484.778142 -155.987889 
L 485.553788 -155.987392 
L 486.329434 -155.986909 
L 487.105081 -155.986438 
L 487.880727 -155.985981 
L 488.656374 -155.985536 
L 489.43202 -155.985103 
L 490.207666 -155.984682 
L 490.983313 -155.984273 
L 491.758959 -155.983874 
L 492.534605 -155.983487 
L 493.310252 -155.98311 
L 494.085898 -155.982744 
L 494.861545 -155.982387 
L 495.637191 -155.982041 
L 496.412837 -155.981703 
L 497.188484 -155.981375 
L 497.96413 -155.981056 
L 498.739776 -155.980746 
L 499.515423 -155.980444 
L 500.291069 -155.980151 
L 501.066715 -155.979865 
L 501.842362 -155.979587 
L 502.618008 -155.979317 
L 503.393655 -155.979054 
L 504.169301 -155.978799 
L 504.944947 -155.97855 
L 505.720594 -155.978308 
L 506.49624 -155.978073 
L 507.271886 -155.977844 
L 508.047533 -155.977622 
L 508.823179 -155.977406 
L 509.598826 -155.977195 
L 510.374472 -155.97699 
L 511.150118 -155.976791 
L 511.925765 -155.976597 
L 512.701411 -155.976409 
L 513.477057 -155.976226 
L 514.252704 -155.976048 
L 515.02835 -155.975874 
L 515.803997 -155.975706 
L 516.579643 -155.975542 
L 517.355289 -155.975382 
L 518.130936 -155.975227 
L 518.906582 -155.975076 
L 519.682228 -155.974929 
L 520.457875 -155.974786 
L 521.233521 -155.974648 
L 522.009168 -155.974512 
L 522.784814 -155.974381 
L 523.56046 -155.974253 
L 524.336107 -155.974129 
L 525.111753 -155.974008 
L 525.887399 -155.97389 
L 526.663046 -155.973776 
L 527.438692 -155.973665 
L 528.214339 -155.973557 
L 528.989985 -155.973451 
L 529.765631 -155.973349 
L 530.541278 -155.973249 
L 531.316924 -155.973153 
L 532.09257 -155.973058 
L 532.868217 -155.972967 
L 533.643863 -155.972878 
L 534.419509 -155.972791 
L 535.195156 -155.972707 
L 535.970802 -155.972625 
L 536.746449 -155.972545 
L 537.522095 -155.972467 
L 538.297741 -155.972392 
L 539.073388 -155.972318 
L 539.849034 -155.972247 
L 540.62468 -155.972178 
L 541.400327 -155.97211 
L 542.175973 -155.972044 
L 542.95162 -155.971981 
L 543.727266 -155.971918 
L 544.502912 -155.971858 
L 545.278559 -155.971799 
L 546.054205 -155.971742 
L 546.829851 -155.971686 
L 547.605498 -155.971632 
L 548.381144 -155.97158 
L 549.156791 -155.971528 
L 549.932437 -155.971479 
L 550.708083 -155.97143 
L 551.48373 -155.971383 
L 552.259376 -155.971337 
L 553.035022 -155.971293 
L 553.810669 -155.971249 
L 554.586315 -155.971207 
L 555.361962 -155.971166 
L 556.137608 -155.971126 
L 556.913254 -155.971088 
L 557.688901 -155.97105 
L 558.464547 -155.971013 
L 559.240193 -155.970977 
L 560.01584 -155.970943 
L 560.791486 -155.970909 
L 561.567133 -155.970876 
L 562.342779 -155.970844 
L 563.118425 -155.970813 
L 563.894072 -155.970783 
L 564.669718 -155.970753 
L 565.445364 -155.970725 
L 566.221011 -155.970697 
L 566.996657 -155.97067 
L 567.772303 -155.970644 
L 568.54795 -155.970618 
L 569.323596 -155.970593 
L 570.099243 -155.970569 
L 570.874889 -155.970545 
L 571.650535 -155.970523 
L 572.426182 -155.9705 
L 573.201828 -155.970479 
L 573.977474 -155.970457 
L 574.753121 -155.970437 
L 575.528767 -155.970417 
L 576.304414 -155.970398 
L 577.08006 -155.970379 
L 577.855706 -155.97036 
L 578.631353 -155.970343 
L 579.406999 -155.970325 
L 580.182645 -155.970308 
L 580.958292 -155.970292 
L 581.733938 -155.970276 
L 582.509585 -155.97026 
L 583.285231 -155.970245 
L 584.060877 -155.970231 
L 584.836524 -155.970216 
L 585.61217 -155.970202 
L 586.387816 -155.970189 
L 587.163463 -155.970176 
L 587.939109 -155.970163 
L 588.714756 -155.97015 
L 589.490402 -155.970138 
L 590.266048 -155.970127 
L 591.041695 -155.970115 
L 591.817341 -155.970104 
L 592.592987 -155.970093 
L 593.368634 -155.970083 
L 594.14428 -155.970072 
L 594.919927 -155.970062 
L 595.695573 -155.970053 
L 596.471219 -155.970043 
L 597.246866 -155.970034 
L 598.022512 -155.970025 
L 598.798158 -155.970016 
L 599.573805 -155.970008 
L 600.349451 -155.97 
L 601.125097 -155.969992 
L 601.900744 -155.969984 
L 602.67639 -155.969977 
L 603.452037 -155.969969 
L 604.227683 -155.969962 
L 605.003329 -155.969955 
L 605.778976 -155.969948 
L 606.554622 -155.969942 
L 607.330268 -155.969935 
L 608.105915 -155.969929 
L 608.881561 -155.969923 
L 609.657208 -155.969917 
L 610.432854 -155.969911 
L 611.2085 -155.969906 
L 611.984147 -155.9699 
L 612.759793 -155.969895 
L 613.535439 -155.96989 
L 614.311086 -155.969885 
L 615.086732 -155.96988 
L 615.862379 -155.969875 
L 616.638025 -155.969871 
L 617.413671 -155.969866 
L 618.189318 -155.969862 
L 618.964964 -155.969858 
L 619.74061 -155.969854 
L 620.516257 -155.96985 
L 621.291903 -155.969846 
L 622.06755 -155.969842 
L 622.843196 -155.969838 
L 623.618842 -155.969835 
L 624.394489 -155.969831 
L 624.394489 -166.656994 
L 624.394489 -166.656994 
L 623.618842 -166.76277 
L 622.843196 -166.869572 
L 622.06755 -166.977409 
L 621.291903 -167.08629 
L 620.516257 -167.196225 
L 619.74061 -167.307225 
L 618.964964 -167.419298 
L 618.189318 -167.532455 
L 617.413671 -167.646706 
L 616.638025 -167.762061 
L 615.862379 -167.87853 
L 615.086732 -167.996123 
L 614.311086 -168.11485 
L 613.535439 -168.234723 
L 612.759793 -168.35575 
L 611.984147 -168.477944 
L 611.2085 -168.601315 
L 610.432854 -168.725873 
L 609.657208 -168.85163 
L 608.881561 -168.978596 
L 608.105915 -169.106782 
L 607.330268 -169.236199 
L 606.554622 -169.366859 
L 605.778976 -169.498773 
L 605.003329 -169.631952 
L 604.227683 -169.766408 
L 603.452037 -169.902152 
L 602.67639 -170.039195 
L 601.900744 -170.177551 
L 601.125097 -170.31723 
L 600.349451 -170.458244 
L 599.573805 -170.600606 
L 598.798158 -170.744327 
L 598.022512 -170.889419 
L 597.246866 -171.035896 
L 596.471219 -171.183769 
L 595.695573 -171.333051 
L 594.919927 -171.483754 
L 594.14428 -171.635891 
L 593.368634 -171.789475 
L 592.592987 -171.944519 
L 591.817341 -172.101036 
L 591.041695 -172.259038 
L 590.266048 -172.418538 
L 589.490402 -172.579551 
L 588.714756 -172.74209 
L 587.939109 -172.906167 
L 587.163463 -173.071797 
L 586.387816 -173.238992 
L 585.61217 -173.407768 
L 584.836524 -173.578137 
L 584.060877 -173.750113 
L 583.285231 -173.923711 
L 582.509585 -174.098945 
L 581.733938 -174.275829 
L 580.958292 -174.454377 
L 580.182645 -174.634603 
L 579.406999 -174.816523 
L 578.631353 -175.000151 
L 577.855706 -175.185501 
L 577.08006 -175.372589 
L 576.304414 -175.56143 
L 575.528767 -175.752037 
L 574.753121 -175.944427 
L 573.977474 -176.138615 
L 573.201828 -176.334616 
L 572.426182 -176.532446 
L 571.650535 -176.73212 
L 570.874889 -176.933654 
L 570.099243 -177.137063 
L 569.323596 -177.342363 
L 568.54795 -177.549571 
L 567.772303 -177.758702 
L 566.996657 -177.969773 
L 566.221011 -178.1828 
L 565.445364 -178.397799 
L 564.669718 -178.614786 
L 563.894072 -178.833779 
L 563.118425 -179.054793 
L 562.342779 -179.277847 
L 561.567133 -179.502955 
L 560.791486 -179.730136 
L 560.01584 -179.959407 
L 559.240193 -180.190785 
L 558.464547 -180.424286 
L 557.688901 -180.659929 
L 556.913254 -180.89773 
L 556.137608 -181.137708 
L 555.361962 -181.37988 
L 554.586315 -181.624264 
L 553.810669 -181.870878 
L 553.035022 -182.119739 
L 552.259376 -182.370865 
L 551.48373 -182.624276 
L 550.708083 -182.879989 
L 549.932437 -183.138022 
L 549.156791 -183.398394 
L 548.381144 -183.661124 
L 547.605498 -183.926229 
L 546.829851 -184.193729 
L 546.054205 -184.463643 
L 545.278559 -184.735989 
L 544.502912 -185.010787 
L 543.727266 -185.288055 
L 542.95162 -185.567813 
L 542.175973 -185.85008 
L 541.400327 -186.134875 
L 540.62468 -186.422218 
L 539.849034 -186.712129 
L 539.073388 -187.004626 
L 538.297741 -187.299729 
L 537.522095 -187.597459 
L 536.746449 -187.897835 
L 535.970802 -188.200877 
L 535.195156 -188.506606 
L 534.419509 -188.81504 
L 533.643863 -189.126201 
L 532.868217 -189.440108 
L 532.09257 -189.756782 
L 531.316924 -190.076243 
L 530.541278 -190.398512 
L 529.765631 -190.723609 
L 528.989985 -191.051555 
L 528.214339 -191.38237 
L 527.438692 -191.716075 
L 526.663046 -192.052692 
L 525.887399 -192.39224 
L 525.111753 -192.73474 
L 524.336107 -193.080214 
L 523.56046 -193.428682 
L 522.784814 -193.780166 
L 522.009168 -194.134687 
L 521.233521 -194.492265 
L 520.457875 -194.852923 
L 519.682228 -195.21668 
L 518.906582 -195.583559 
L 518.130936 -195.953581 
L 517.355289 -196.326767 
L 516.579643 -196.703138 
L 515.803997 -197.082717 
L 515.02835 -197.465524 
L 514.252704 -197.85158 
L 513.477057 -198.240908 
L 512.701411 -198.633529 
L 511.925765 -199.029464 
L 511.150118 -199.428735 
L 510.374472 -199.831363 
L 509.598826 -200.23737 
L 508.823179 -200.646778 
L 508.047533 -201.059608 
L 507.271886 -201.475882 
L 506.49624 -201.895621 
L 505.720594 -202.318847 
L 504.944947 -202.745581 
L 504.169301 -203.175845 
L 503.393655 -203.60966 
L 502.618008 -204.047048 
L 501.842362 -204.488031 
L 501.066715 -204.932629 
L 500.291069 -205.380864 
L 499.515423 -205.832758 
L 498.739776 -206.288332 
L 497.96413 -206.747606 
L 497.188484 -207.210603 
L 496.412837 -207.677343 
L 495.637191 -208.147848 
L 494.861545 -208.622138 
L 494.085898 -209.100234 
L 493.310252 -209.582158 
L 492.534605 -210.067931 
L 491.758959 -210.557572 
L 490.983313 -211.051102 
L 490.207666 -211.548543 
L 489.43202 -212.049914 
L 488.656374 -212.555236 
L 487.880727 -213.064528 
L 487.105081 -213.577813 
L 486.329434 -214.095108 
L 485.553788 -214.616434 
L 484.778142 -215.141811 
L 484.002495 -215.671258 
L 483.226849 -216.204795 
L 482.451203 -216.742442 
L 481.675556 -217.284216 
L 480.89991 -217.830138 
L 480.124263 -218.380225 
L 479.348617 -218.934498 
L 478.572971 -219.492973 
L 477.797324 -220.05567 
L 477.021678 -220.622606 
L 476.246032 -221.193799 
L 475.470385 -221.769268 
L 474.694739 -222.349029 
L 473.919092 -222.9331 
L 473.143446 -223.521497 
L 472.3678 -224.114238 
L 471.592153 -224.711338 
L 470.816507 -225.312815 
L 470.040861 -225.918684 
L 469.265214 -226.528961 
L 468.489568 -227.143662 
L 467.713921 -227.762801 
L 466.938275 -228.386393 
L 466.162629 -229.014454 
L 465.386982 -229.646997 
L 464.611336 -230.284036 
L 463.83569 -230.925586 
L 463.060043 -231.571659 
L 462.284397 -232.222268 
L 461.508751 -232.877426 
L 460.733104 -233.537145 
L 459.957458 -234.201438 
L 459.181811 -234.870315 
L 458.406165 -235.543788 
L 457.630519 -236.221867 
L 456.854872 -236.904564 
L 456.079226 -237.591887 
L 455.30358 -238.283847 
L 454.527933 -238.980453 
L 453.752287 -239.681712 
L 452.97664 -240.387635 
L 452.200994 -241.098227 
L 451.425348 -241.813497 
L 450.649701 -242.533451 
L 449.874055 -243.258096 
L 449.098409 -243.987438 
L 448.322762 -244.721481 
L 447.547116 -245.460231 
L 446.771469 -246.203692 
L 445.995823 -246.951868 
L 445.220177 -247.704762 
L 444.44453 -248.462376 
L 443.668884 -249.224713 
L 442.893238 -249.991774 
L 442.117591 -250.76356 
L 441.341945 -251.540072 
L 440.566298 -252.321309 
L 439.790652 -253.10727 
L 439.015006 -253.897954 
L 438.239359 -254.693358 
L 437.463713 -255.49348 
L 436.688067 -256.298317 
L 435.91242 -257.107864 
L 435.136774 -257.922116 
L 434.361128 -258.741068 
L 433.585481 -259.564713 
L 432.809835 -260.393046 
L 432.034188 -261.226057 
L 431.258542 -262.06374 
L 430.482896 -262.906084 
L 429.707249 -263.753079 
L 428.931603 -264.604716 
L 428.155957 -265.460982 
L 427.38031 -266.321866 
L 426.604664 -267.187355 
L 425.829017 -268.057434 
L 425.053371 -268.93209 
L 424.277725 -269.811306 
L 423.502078 -270.695067 
L 422.726432 -271.583355 
L 421.950786 -272.476152 
L 421.175139 -273.37344 
L 420.399493 -274.275199 
L 419.623846 -275.181409 
L 418.8482 -276.092047 
L 418.072554 -277.007092 
L 417.296907 -277.92652 
L 416.521261 -278.850307 
L 415.745615 -279.778427 
L 414.969968 -280.710856 
L 414.194322 -281.647565 
L 413.418675 -282.588527 
L 412.643029 -283.533714 
L 411.867383 -284.483094 
L 411.091736 -285.436637 
L 410.31609 -286.394311 
L 409.540444 -287.356084 
L 408.764797 -288.321921 
L 407.989151 -289.291788 
L 407.213504 -290.265649 
L 406.437858 -291.243466 
L 405.662212 -292.225203 
L 404.886565 -293.210819 
L 404.110919 -294.200275 
L 403.335273 -295.19353 
L 402.559626 -296.190542 
L 401.78398 -297.191268 
L 401.008334 -298.195662 
L 400.232687 -299.203681 
L 399.457041 -300.215277 
L 398.681394 -301.230404 
L 397.905748 -302.249012 
L 397.130102 -303.271052 
L 396.354455 -304.296474 
L 395.578809 -305.325225 
L 394.803163 -306.357253 
L 394.027516 -307.392504 
L 393.25187 -308.430922 
L 392.476223 -309.472453 
L 391.700577 -310.517037 
L 390.924931 -311.564618 
L 390.149284 -312.615135 
L 389.373638 -313.668529 
L 388.597992 -314.724737 
L 387.822345 -315.783696 
L 387.046699 -316.845344 
L 386.271052 -317.909616 
L 385.495406 -318.976444 
L 384.71976 -320.045763 
L 383.944113 -321.117503 
L 383.168467 -322.191597 
L 382.392821 -323.267974 
L 381.617174 -324.346562 
L 380.841528 -325.427289 
L 380.065881 -326.510082 
L 379.290235 -327.594866 
L 378.514589 -328.681566 
L 377.738942 -329.770105 
L 376.963296 -330.860407 
L 376.18765 -331.952391 
L 375.412003 -333.045979 
L 374.636357 -334.141091 
L 373.86071 -335.237644 
L 373.085064 -336.335557 
L 372.309418 -337.434745 
L 371.533771 -338.535126 
L 370.758125 -339.636612 
L 369.982479 -340.739119 
L 369.206832 -341.842559 
L 368.431186 -342.946845 
L 367.65554 -344.051886 
L 366.879893 -345.157595 
L 366.104247 -346.263879 
L 365.3286 -347.370649 
L 364.552954 -348.477811 
L 363.777308 -349.585273 
L 363.001661 -350.692942 
L 362.226015 -351.800722 
L 361.450369 -352.908519 
L 360.674722 -354.016237 
L 359.899076 -355.123779 
L 359.123429 -356.231049 
L 358.347783 -357.337948 
L 357.572137 -358.444378 
L 356.79649 -359.550241 
L 356.020844 -360.655436 
L 355.245198 -361.759863 
L 354.469551 -362.863423 
L 353.693905 -363.966014 
L 352.918258 -365.067534 
L 352.142612 -366.167882 
L 351.366966 -367.266955 
L 350.591319 -368.364651 
L 349.815673 -369.460866 
L 349.040027 -370.555498 
L 348.26438 -371.648443 
L 347.488734 -372.739596 
L 346.713087 -373.828854 
L 345.937441 -374.916113 
L 345.161795 -376.001268 
L 344.386148 -377.084215 
L 343.610502 -378.164848 
L 342.834856 -379.243065 
L 342.059209 -380.318759 
L 341.283563 -381.391826 
L 340.507916 -382.462162 
L 339.73227 -383.529662 
L 338.956624 -384.594222 
L 338.180977 -385.655738 
L 337.405331 -386.714105 
L 336.629685 -387.76922 
L 335.854038 -388.820979 
L 335.078392 -389.86928 
L 334.302746 -390.914019 
L 333.527099 -391.955093 
L 332.751453 -392.992402 
L 331.975806 -394.025843 
L 331.20016 -395.055316 
L 330.424514 -396.080719 
L 329.648867 -397.101953 
L 328.873221 -398.118919 
L 328.097575 -399.131517 
L 327.321928 -400.139651 
L 326.546282 -401.143222 
L 325.770635 -402.142134 
L 324.994989 -403.136292 
L 324.219343 -404.125601 
L 323.443696 -405.109966 
L 322.66805 -406.089296 
L 321.892404 -407.063497 
L 321.116757 -408.032479 
L 320.341111 -408.996151 
L 319.565464 -409.954426 
L 318.789818 -410.907215 
L 318.014172 -411.854431 
L 317.238525 -412.795989 
L 316.462879 -413.731805 
L 315.687233 -414.661796 
L 314.911586 -415.585879 
L 314.13594 -416.503976 
L 313.360293 -417.416006 
L 312.584647 -418.321893 
L 311.809001 -419.221559 
L 311.033354 -420.114931 
L 310.257708 -421.001936 
L 309.482062 -421.882501 
L 308.706415 -422.756556 
L 307.930769 -423.624033 
L 307.155122 -424.484866 
L 306.379476 -425.338988 
L 305.60383 -426.186337 
L 304.828183 -427.02685 
L 304.052537 -427.860468 
L 303.276891 -428.687132 
L 302.501244 -429.506785 
L 301.725598 -430.319373 
L 300.949952 -431.124843 
L 300.174305 -431.923144 
L 299.398659 -432.714226 
L 298.623012 -433.498043 
L 297.847366 -434.274549 
L 297.07172 -435.0437 
L 296.296073 -435.805455 
L 295.520427 -436.559775 
L 294.744781 -437.306621 
L 293.969134 -438.045959 
L 293.193488 -438.777755 
L 292.417841 -439.501978 
L 291.642195 -440.218597 
L 290.866549 -440.927585 
L 290.090902 -441.628917 
L 289.315256 -442.322571 
L 288.53961 -443.008523 
L 287.763963 -443.686756 
L 286.988317 -444.357251 
L 286.21267 -445.019995 
L 285.437024 -445.674973 
L 284.661378 -446.322175 
L 283.885731 -446.961593 
L 283.110085 -447.593219 
L 282.334439 -448.217048 
L 281.558792 -448.833079 
L 280.783146 -449.44131 
L 280.007499 -450.041742 
L 279.231853 -450.63438 
L 278.456207 -451.219229 
L 277.68056 -451.796297 
L 276.904914 -452.365592 
L 276.129268 -452.927126 
L 275.353621 -453.480914 
L 274.577975 -454.02697 
L 273.802329 -454.565311 
L 273.026682 -455.095958 
L 272.251036 -455.618931 
L 271.475389 -456.134254 
L 270.699743 -456.641952 
L 269.924097 -457.14205 
L 269.14845 -457.634579 
L 268.372804 -458.119569 
L 267.597158 -458.597051 
L 266.821511 -459.06706 
L 266.045865 -459.529631 
L 265.270218 -459.984803 
L 264.494572 -460.432613 
L 263.718926 -460.873102 
L 262.943279 -461.306314 
L 262.167633 -461.732291 
L 261.391987 -462.151079 
L 260.61634 -462.562725 
L 259.840694 -462.967277 
L 259.065047 -463.364785 
L 258.289401 -463.7553 
L 257.513755 -464.138874 
L 256.738108 -464.515562 
L 255.962462 -464.885419 
L 255.186816 -465.248501 
L 254.411169 -465.604864 
L 253.635523 -465.954569 
L 252.859876 -466.297675 
L 252.08423 -466.634243 
L 251.308584 -466.964335 
L 250.532937 -467.288014 
L 249.757291 -467.605344 
L 248.981645 -467.91639 
L 248.205998 -468.221217 
L 247.430352 -468.519892 
L 246.654705 -468.812483 
L 245.879059 -469.099058 
L 245.103413 -469.379686 
L 244.327766 -469.654436 
L 243.55212 -469.923378 
L 242.776474 -470.186584 
L 242.000827 -470.444124 
L 241.225181 -470.696071 
L 240.449535 -470.942497 
L 239.673888 -471.183474 
L 238.898242 -471.419077 
L 238.122595 -471.649377 
L 237.346949 -471.87445 
L 236.571303 -472.094368 
L 235.795656 -472.309208 
L 235.02001 -472.519042 
L 234.244364 -472.723945 
L 233.468717 -472.923993 
L 232.693071 -473.11926 
L 231.917424 -473.309821 
L 231.141778 -473.495751 
L 230.366132 -473.677124 
L 229.590485 -473.854015 
L 228.814839 -474.0265 
L 228.039193 -474.194651 
L 227.263546 -474.358545 
L 226.4879 -474.518254 
L 225.712253 -474.673852 
L 224.936607 -474.825413 
L 224.160961 -474.973011 
L 223.385314 -475.116718 
L 222.609668 -475.256607 
L 221.834022 -475.392749 
L 221.058375 -475.525217 
L 220.282729 -475.654082 
L 219.507082 -475.779415 
L 218.731436 -475.901285 
L 217.95579 -476.019763 
L 217.180143 -476.134918 
L 216.404497 -476.246818 
L 215.628851 -476.355531 
L 214.853204 -476.461125 
L 214.077558 -476.563667 
L 213.301911 -476.663222 
L 212.526265 -476.759856 
L 211.750619 -476.853634 
L 210.974972 -476.94462 
L 210.199326 -477.032877 
L 209.42368 -477.118467 
L 208.648033 -477.201452 
L 207.872387 -477.281894 
L 207.096741 -477.359852 
L 206.321094 -477.435386 
L 205.545448 -477.508555 
L 204.769801 -477.579416 
L 203.994155 -477.648026 
L 203.218509 -477.714441 
L 202.442862 -477.778717 
L 201.667216 -477.840908 
L 200.89157 -477.901067 
L 200.115923 -477.959248 
L 199.340277 -478.015501 
L 198.56463 -478.069879 
L 197.788984 -478.122431 
L 197.013338 -478.173206 
L 196.237691 -478.222253 
L 195.462045 -478.269619 
L 194.686399 -478.315351 
L 193.910752 -478.359494 
L 193.135106 -478.402094 
L 192.359459 -478.443193 
L 191.583813 -478.482836 
L 190.808167 -478.521064 
L 190.03252 -478.557919 
L 189.256874 -478.593442 
L 188.481228 -478.627671 
L 187.705581 -478.660646 
L 186.929935 -478.692404 
L 186.154288 -478.722983 
L 185.378642 -478.752419 
L 184.602996 -478.780747 
L 183.827349 -478.808001 
L 183.051703 -478.834217 
L 182.276057 -478.859426 
L 181.50041 -478.88366 
L 180.724764 -478.906952 
L 179.949117 -478.929331 
L 179.173471 -478.950828 
L 178.397825 -478.971471 
L 177.622178 -478.99129 
L 176.846532 -479.01031 
L 176.070886 -479.02856 
L 175.295239 -479.046065 
L 174.519593 -479.062851 
L 173.743947 -479.078942 
L 172.9683 -479.094362 
L 172.192654 -479.109136 
L 171.417007 -479.123284 
L 170.641361 -479.13683 
L 169.865715 -479.149795 
L 169.090068 -479.162199 
L 168.314422 -479.174062 
L 167.538776 -479.185405 
L 166.763129 -479.196245 
L 165.987483 -479.206601 
L 165.211836 -479.21649 
L 164.43619 -479.225931 
L 163.660544 -479.234938 
L 162.884897 -479.243529 
L 162.109251 -479.251718 
L 161.333605 -479.259521 
L 160.557958 -479.266951 
L 159.782312 -479.274023 
L 159.006665 -479.28075 
L 158.231019 -479.287143 
L 157.455373 -479.293217 
L 156.679726 -479.298982 
L 155.90408 -479.304449 
L 155.128434 -479.309629 
L 154.352787 -479.314533 
L 153.577141 -479.319169 
L 152.801494 -479.323547 
L 152.025848 -479.327675 
L 151.250202 -479.331562 
L 150.474555 -479.335214 
L 149.698909 -479.338638 
L 148.923263 -479.34184 
L 148.147616 -479.344827 
L 147.37197 -479.347601 
L 146.596323 -479.350167 
L 145.820677 -479.352529 
L 145.045031 -479.354687 
L 144.269384 -479.356642 
L 143.493738 -479.358394 
L 142.718092 -479.359941 
L 141.942445 -479.361278 
L 141.166799 -479.362401 
L 140.391153 -479.363299 
L 139.615506 -479.363963 
L 138.83986 -479.364376 
L 138.064213 -479.364519 
L 137.288567 -479.364366 
L 136.512921 -479.364136 
L 135.737274 -479.364475 
L 134.961628 -479.364473 
L 134.185982 -479.364088 
L 133.410335 -479.364304 
L 132.634689 -479.364519 
L 131.859042 -479.364282 
L 131.083396 -479.363916 
L 130.30775 -479.364448 
L 129.532103 -479.364444 
L 128.756457 -479.363794 
L 127.980811 -479.364151 
L 127.205164 -479.364519 
L 126.429518 -479.364085 
L 125.653871 -479.362601 
L 124.878225 -479.359682 
L 124.102579 -479.354697 
L 123.326932 -479.346568 
L 122.551286 -479.333327 
L 121.77564 -479.311105 
L 120.999993 -479.271538 
L 120.224347 -479.194192 
L 119.4487 -479.020353 
L 118.673054 -478.538634 
L 117.897408 -476.684687 
L 117.121761 -464.06096 
z
" style="stroke: #1f77b4; stroke-opacity: 0.3"/>
    </defs>
    <g clip-path="url(#p3dca9151f5)">
     <use xlink:href="#m6f7ecd8d71" x="0" y="540.100875" style="fill: #1f77b4; fill-opacity: 0.3; stroke: #1f77b4; stroke-opacity: 0.3"/>
    </g>
   </g>
   <g id="matplotlib.axis_1">
    <g id="xtick_1">
     <g id="line2d_1">
      <defs>
       <path id="m1f3b23d04e" d="M 0 0 
L 0 3.5 
" style="stroke: #000000; stroke-width: 0.8"/>
      </defs>
      <g>
       <use xlink:href="#m1f3b23d04e" x="116.346115" y="416.476875" style="stroke: #000000; stroke-width: 0.8"/>
      </g>
     </g>
     <g id="text_1">
      <!-- 0 -->
      <g transform="translate(109.983615 438.67375)scale(0.2 -0.2)">
       <defs>
        <path id="DejaVuSans-30" d="M 2034 4250 
Q 1547 4250 1301 3770 
Q 1056 3291 1056 2328 
Q 1056 1369 1301 889 
Q 1547 409 2034 409 
Q 2525 409 2770 889 
Q 3016 1369 3016 2328 
Q 3016 3291 2770 3770 
Q 2525 4250 2034 4250 
z
M 2034 4750 
Q 2819 4750 3233 4129 
Q 3647 3509 3647 2328 
Q 3647 1150 3233 529 
Q 2819 -91 2034 -91 
Q 1250 -91 836 529 
Q 422 1150 422 2328 
Q 422 3509 836 4129 
Q 1250 4750 2034 4750 
z
" transform="scale(0.015625)"/>
       </defs>
       <use xlink:href="#DejaVuSans-30"/>
      </g>
     </g>
    </g>
    <g id="xtick_2">
     <g id="line2d_2">
      <g>
       <use xlink:href="#m1f3b23d04e" x="193.910752" y="416.476875" style="stroke: #000000; stroke-width: 0.8"/>
      </g>
     </g>
     <g id="text_2">
      <!-- 100 -->
      <g transform="translate(174.823252 438.67375)scale(0.2 -0.2)">
       <defs>
        <path id="DejaVuSans-31" d="M 794 531 
L 1825 531 
L 1825 4091 
L 703 3866 
L 703 4441 
L 1819 4666 
L 2450 4666 
L 2450 531 
L 3481 531 
L 3481 0 
L 794 0 
L 794 531 
z
" transform="scale(0.015625)"/>
       </defs>
       <use xlink:href="#DejaVuSans-31"/>
       <use xlink:href="#DejaVuSans-30" x="63.623047"/>
       <use xlink:href="#DejaVuSans-30" x="127.246094"/>
      </g>
     </g>
    </g>
    <g id="xtick_3">
     <g id="line2d_3">
      <g>
       <use xlink:href="#m1f3b23d04e" x="271.475389" y="416.476875" style="stroke: #000000; stroke-width: 0.8"/>
      </g>
     </g>
     <g id="text_3">
      <!-- 200 -->
      <g transform="translate(252.387889 438.67375)scale(0.2 -0.2)">
       <defs>
        <path id="DejaVuSans-32" d="M 1228 531 
L 3431 531 
L 3431 0 
L 469 0 
L 469 531 
Q 828 903 1448 1529 
Q 2069 2156 2228 2338 
Q 2531 2678 2651 2914 
Q 2772 3150 2772 3378 
Q 2772 3750 2511 3984 
Q 2250 4219 1831 4219 
Q 1534 4219 1204 4116 
Q 875 4013 500 3803 
L 500 4441 
Q 881 4594 1212 4672 
Q 1544 4750 1819 4750 
Q 2544 4750 2975 4387 
Q 3406 4025 3406 3419 
Q 3406 3131 3298 2873 
Q 3191 2616 2906 2266 
Q 2828 2175 2409 1742 
Q 1991 1309 1228 531 
z
" transform="scale(0.015625)"/>
       </defs>
       <use xlink:href="#DejaVuSans-32"/>
       <use xlink:href="#DejaVuSans-30" x="63.623047"/>
       <use xlink:href="#DejaVuSans-30" x="127.246094"/>
      </g>
     </g>
    </g>
    <g id="xtick_4">
     <g id="line2d_4">
      <g>
       <use xlink:href="#m1f3b23d04e" x="349.040027" y="416.476875" style="stroke: #000000; stroke-width: 0.8"/>
      </g>
     </g>
     <g id="text_4">
      <!-- 300 -->
      <g transform="translate(329.952527 438.67375)scale(0.2 -0.2)">
       <defs>
        <path id="DejaVuSans-33" d="M 2597 2516 
Q 3050 2419 3304 2112 
Q 3559 1806 3559 1356 
Q 3559 666 3084 287 
Q 2609 -91 1734 -91 
Q 1441 -91 1130 -33 
Q 819 25 488 141 
L 488 750 
Q 750 597 1062 519 
Q 1375 441 1716 441 
Q 2309 441 2620 675 
Q 2931 909 2931 1356 
Q 2931 1769 2642 2001 
Q 2353 2234 1838 2234 
L 1294 2234 
L 1294 2753 
L 1863 2753 
Q 2328 2753 2575 2939 
Q 2822 3125 2822 3475 
Q 2822 3834 2567 4026 
Q 2313 4219 1838 4219 
Q 1578 4219 1281 4162 
Q 984 4106 628 3988 
L 628 4550 
Q 988 4650 1302 4700 
Q 1616 4750 1894 4750 
Q 2613 4750 3031 4423 
Q 3450 4097 3450 3541 
Q 3450 3153 3228 2886 
Q 3006 2619 2597 2516 
z
" transform="scale(0.015625)"/>
       </defs>
       <use xlink:href="#DejaVuSans-33"/>
       <use xlink:href="#DejaVuSans-30" x="63.623047"/>
       <use xlink:href="#DejaVuSans-30" x="127.246094"/>
      </g>
     </g>
    </g>
    <g id="xtick_5">
     <g id="line2d_5">
      <g>
       <use xlink:href="#m1f3b23d04e" x="426.604664" y="416.476875" style="stroke: #000000; stroke-width: 0.8"/>
      </g>
     </g>
     <g id="text_5">
      <!-- 400 -->
      <g transform="translate(407.517164 438.67375)scale(0.2 -0.2)">
       <defs>
        <path id="DejaVuSans-34" d="M 2419 4116 
L 825 1625 
L 2419 1625 
L 2419 4116 
z
M 2253 4666 
L 3047 4666 
L 3047 1625 
L 3713 1625 
L 3713 1100 
L 3047 1100 
L 3047 0 
L 2419 0 
L 2419 1100 
L 313 1100 
L 313 1709 
L 2253 4666 
z
" transform="scale(0.015625)"/>
       </defs>
       <use xlink:href="#DejaVuSans-34"/>
       <use xlink:href="#DejaVuSans-30" x="63.623047"/>
       <use xlink:href="#DejaVuSans-30" x="127.246094"/>
      </g>
     </g>
    </g>
    <g id="xtick_6">
     <g id="line2d_6">
      <g>
       <use xlink:href="#m1f3b23d04e" x="504.169301" y="416.476875" style="stroke: #000000; stroke-width: 0.8"/>
      </g>
     </g>
     <g id="text_6">
      <!-- 500 -->
      <g transform="translate(485.081801 438.67375)scale(0.2 -0.2)">
       <defs>
        <path id="DejaVuSans-35" d="M 691 4666 
L 3169 4666 
L 3169 4134 
L 1269 4134 
L 1269 2991 
Q 1406 3038 1543 3061 
Q 1681 3084 1819 3084 
Q 2600 3084 3056 2656 
Q 3513 2228 3513 1497 
Q 3513 744 3044 326 
Q 2575 -91 1722 -91 
Q 1428 -91 1123 -41 
Q 819 9 494 109 
L 494 744 
Q 775 591 1075 516 
Q 1375 441 1709 441 
Q 2250 441 2565 725 
Q 2881 1009 2881 1497 
Q 2881 1984 2565 2268 
Q 2250 2553 1709 2553 
Q 1456 2553 1204 2497 
Q 953 2441 691 2322 
L 691 4666 
z
" transform="scale(0.015625)"/>
       </defs>
       <use xlink:href="#DejaVuSans-35"/>
       <use xlink:href="#DejaVuSans-30" x="63.623047"/>
       <use xlink:href="#DejaVuSans-30" x="127.246094"/>
      </g>
     </g>
    </g>
    <g id="xtick_7">
     <g id="line2d_7">
      <g>
       <use xlink:href="#m1f3b23d04e" x="581.733938" y="416.476875" style="stroke: #000000; stroke-width: 0.8"/>
      </g>
     </g>
     <g id="text_7">
      <!-- 600 -->
      <g transform="translate(562.646438 438.67375)scale(0.2 -0.2)">
       <defs>
        <path id="DejaVuSans-36" d="M 2113 2584 
Q 1688 2584 1439 2293 
Q 1191 2003 1191 1497 
Q 1191 994 1439 701 
Q 1688 409 2113 409 
Q 2538 409 2786 701 
Q 3034 994 3034 1497 
Q 3034 2003 2786 2293 
Q 2538 2584 2113 2584 
z
M 3366 4563 
L 3366 3988 
Q 3128 4100 2886 4159 
Q 2644 4219 2406 4219 
Q 1781 4219 1451 3797 
Q 1122 3375 1075 2522 
Q 1259 2794 1537 2939 
Q 1816 3084 2150 3084 
Q 2853 3084 3261 2657 
Q 3669 2231 3669 1497 
Q 3669 778 3244 343 
Q 2819 -91 2113 -91 
Q 1303 -91 875 529 
Q 447 1150 447 2328 
Q 447 3434 972 4092 
Q 1497 4750 2381 4750 
Q 2619 4750 2861 4703 
Q 3103 4656 3366 4563 
z
" transform="scale(0.015625)"/>
       </defs>
       <use xlink:href="#DejaVuSans-36"/>
       <use xlink:href="#DejaVuSans-30" x="63.623047"/>
       <use xlink:href="#DejaVuSans-30" x="127.246094"/>
      </g>
     </g>
    </g>
    <g id="text_8">
     <!-- Days since antigen exposure -->
     <g transform="translate(226.337813 462.03)scale(0.2 -0.2)">
      <defs>
       <path id="DejaVuSans-44" d="M 1259 4147 
L 1259 519 
L 2022 519 
Q 2988 519 3436 956 
Q 3884 1394 3884 2338 
Q 3884 3275 3436 3711 
Q 2988 4147 2022 4147 
L 1259 4147 
z
M 628 4666 
L 1925 4666 
Q 3281 4666 3915 4102 
Q 4550 3538 4550 2338 
Q 4550 1131 3912 565 
Q 3275 0 1925 0 
L 628 0 
L 628 4666 
z
" transform="scale(0.015625)"/>
       <path id="DejaVuSans-61" d="M 2194 1759 
Q 1497 1759 1228 1600 
Q 959 1441 959 1056 
Q 959 750 1161 570 
Q 1363 391 1709 391 
Q 2188 391 2477 730 
Q 2766 1069 2766 1631 
L 2766 1759 
L 2194 1759 
z
M 3341 1997 
L 3341 0 
L 2766 0 
L 2766 531 
Q 2569 213 2275 61 
Q 1981 -91 1556 -91 
Q 1019 -91 701 211 
Q 384 513 384 1019 
Q 384 1609 779 1909 
Q 1175 2209 1959 2209 
L 2766 2209 
L 2766 2266 
Q 2766 2663 2505 2880 
Q 2244 3097 1772 3097 
Q 1472 3097 1187 3025 
Q 903 2953 641 2809 
L 641 3341 
Q 956 3463 1253 3523 
Q 1550 3584 1831 3584 
Q 2591 3584 2966 3190 
Q 3341 2797 3341 1997 
z
" transform="scale(0.015625)"/>
       <path id="DejaVuSans-79" d="M 2059 -325 
Q 1816 -950 1584 -1140 
Q 1353 -1331 966 -1331 
L 506 -1331 
L 506 -850 
L 844 -850 
Q 1081 -850 1212 -737 
Q 1344 -625 1503 -206 
L 1606 56 
L 191 3500 
L 800 3500 
L 1894 763 
L 2988 3500 
L 3597 3500 
L 2059 -325 
z
" transform="scale(0.015625)"/>
       <path id="DejaVuSans-73" d="M 2834 3397 
L 2834 2853 
Q 2591 2978 2328 3040 
Q 2066 3103 1784 3103 
Q 1356 3103 1142 2972 
Q 928 2841 928 2578 
Q 928 2378 1081 2264 
Q 1234 2150 1697 2047 
L 1894 2003 
Q 2506 1872 2764 1633 
Q 3022 1394 3022 966 
Q 3022 478 2636 193 
Q 2250 -91 1575 -91 
Q 1294 -91 989 -36 
Q 684 19 347 128 
L 347 722 
Q 666 556 975 473 
Q 1284 391 1588 391 
Q 1994 391 2212 530 
Q 2431 669 2431 922 
Q 2431 1156 2273 1281 
Q 2116 1406 1581 1522 
L 1381 1569 
Q 847 1681 609 1914 
Q 372 2147 372 2553 
Q 372 3047 722 3315 
Q 1072 3584 1716 3584 
Q 2034 3584 2315 3537 
Q 2597 3491 2834 3397 
z
" transform="scale(0.015625)"/>
       <path id="DejaVuSans-20" transform="scale(0.015625)"/>
       <path id="DejaVuSans-69" d="M 603 3500 
L 1178 3500 
L 1178 0 
L 603 0 
L 603 3500 
z
M 603 4863 
L 1178 4863 
L 1178 4134 
L 603 4134 
L 603 4863 
z
" transform="scale(0.015625)"/>
       <path id="DejaVuSans-6e" d="M 3513 2113 
L 3513 0 
L 2938 0 
L 2938 2094 
Q 2938 2591 2744 2837 
Q 2550 3084 2163 3084 
Q 1697 3084 1428 2787 
Q 1159 2491 1159 1978 
L 1159 0 
L 581 0 
L 581 3500 
L 1159 3500 
L 1159 2956 
Q 1366 3272 1645 3428 
Q 1925 3584 2291 3584 
Q 2894 3584 3203 3211 
Q 3513 2838 3513 2113 
z
" transform="scale(0.015625)"/>
       <path id="DejaVuSans-63" d="M 3122 3366 
L 3122 2828 
Q 2878 2963 2633 3030 
Q 2388 3097 2138 3097 
Q 1578 3097 1268 2742 
Q 959 2388 959 1747 
Q 959 1106 1268 751 
Q 1578 397 2138 397 
Q 2388 397 2633 464 
Q 2878 531 3122 666 
L 3122 134 
Q 2881 22 2623 -34 
Q 2366 -91 2075 -91 
Q 1284 -91 818 406 
Q 353 903 353 1747 
Q 353 2603 823 3093 
Q 1294 3584 2113 3584 
Q 2378 3584 2631 3529 
Q 2884 3475 3122 3366 
z
" transform="scale(0.015625)"/>
       <path id="DejaVuSans-65" d="M 3597 1894 
L 3597 1613 
L 953 1613 
Q 991 1019 1311 708 
Q 1631 397 2203 397 
Q 2534 397 2845 478 
Q 3156 559 3463 722 
L 3463 178 
Q 3153 47 2828 -22 
Q 2503 -91 2169 -91 
Q 1331 -91 842 396 
Q 353 884 353 1716 
Q 353 2575 817 3079 
Q 1281 3584 2069 3584 
Q 2775 3584 3186 3129 
Q 3597 2675 3597 1894 
z
M 3022 2063 
Q 3016 2534 2758 2815 
Q 2500 3097 2075 3097 
Q 1594 3097 1305 2825 
Q 1016 2553 972 2059 
L 3022 2063 
z
" transform="scale(0.015625)"/>
       <path id="DejaVuSans-74" d="M 1172 4494 
L 1172 3500 
L 2356 3500 
L 2356 3053 
L 1172 3053 
L 1172 1153 
Q 1172 725 1289 603 
Q 1406 481 1766 481 
L 2356 481 
L 2356 0 
L 1766 0 
Q 1100 0 847 248 
Q 594 497 594 1153 
L 594 3053 
L 172 3053 
L 172 3500 
L 594 3500 
L 594 4494 
L 1172 4494 
z
" transform="scale(0.015625)"/>
       <path id="DejaVuSans-67" d="M 2906 1791 
Q 2906 2416 2648 2759 
Q 2391 3103 1925 3103 
Q 1463 3103 1205 2759 
Q 947 2416 947 1791 
Q 947 1169 1205 825 
Q 1463 481 1925 481 
Q 2391 481 2648 825 
Q 2906 1169 2906 1791 
z
M 3481 434 
Q 3481 -459 3084 -895 
Q 2688 -1331 1869 -1331 
Q 1566 -1331 1297 -1286 
Q 1028 -1241 775 -1147 
L 775 -588 
Q 1028 -725 1275 -790 
Q 1522 -856 1778 -856 
Q 2344 -856 2625 -561 
Q 2906 -266 2906 331 
L 2906 616 
Q 2728 306 2450 153 
Q 2172 0 1784 0 
Q 1141 0 747 490 
Q 353 981 353 1791 
Q 353 2603 747 3093 
Q 1141 3584 1784 3584 
Q 2172 3584 2450 3431 
Q 2728 3278 2906 2969 
L 2906 3500 
L 3481 3500 
L 3481 434 
z
" transform="scale(0.015625)"/>
       <path id="DejaVuSans-78" d="M 3513 3500 
L 2247 1797 
L 3578 0 
L 2900 0 
L 1881 1375 
L 863 0 
L 184 0 
L 1544 1831 
L 300 3500 
L 978 3500 
L 1906 2253 
L 2834 3500 
L 3513 3500 
z
" transform="scale(0.015625)"/>
       <path id="DejaVuSans-70" d="M 1159 525 
L 1159 -1331 
L 581 -1331 
L 581 3500 
L 1159 3500 
L 1159 2969 
Q 1341 3281 1617 3432 
Q 1894 3584 2278 3584 
Q 2916 3584 3314 3078 
Q 3713 2572 3713 1747 
Q 3713 922 3314 415 
Q 2916 -91 2278 -91 
Q 1894 -91 1617 61 
Q 1341 213 1159 525 
z
M 3116 1747 
Q 3116 2381 2855 2742 
Q 2594 3103 2138 3103 
Q 1681 3103 1420 2742 
Q 1159 2381 1159 1747 
Q 1159 1113 1420 752 
Q 1681 391 2138 391 
Q 2594 391 2855 752 
Q 3116 1113 3116 1747 
z
" transform="scale(0.015625)"/>
       <path id="DejaVuSans-6f" d="M 1959 3097 
Q 1497 3097 1228 2736 
Q 959 2375 959 1747 
Q 959 1119 1226 758 
Q 1494 397 1959 397 
Q 2419 397 2687 759 
Q 2956 1122 2956 1747 
Q 2956 2369 2687 2733 
Q 2419 3097 1959 3097 
z
M 1959 3584 
Q 2709 3584 3137 3096 
Q 3566 2609 3566 1747 
Q 3566 888 3137 398 
Q 2709 -91 1959 -91 
Q 1206 -91 779 398 
Q 353 888 353 1747 
Q 353 2609 779 3096 
Q 1206 3584 1959 3584 
z
" transform="scale(0.015625)"/>
       <path id="DejaVuSans-75" d="M 544 1381 
L 544 3500 
L 1119 3500 
L 1119 1403 
Q 1119 906 1312 657 
Q 1506 409 1894 409 
Q 2359 409 2629 706 
Q 2900 1003 2900 1516 
L 2900 3500 
L 3475 3500 
L 3475 0 
L 2900 0 
L 2900 538 
Q 2691 219 2414 64 
Q 2138 -91 1772 -91 
Q 1169 -91 856 284 
Q 544 659 544 1381 
z
M 1991 3584 
L 1991 3584 
z
" transform="scale(0.015625)"/>
       <path id="DejaVuSans-72" d="M 2631 2963 
Q 2534 3019 2420 3045 
Q 2306 3072 2169 3072 
Q 1681 3072 1420 2755 
Q 1159 2438 1159 1844 
L 1159 0 
L 581 0 
L 581 3500 
L 1159 3500 
L 1159 2956 
Q 1341 3275 1631 3429 
Q 1922 3584 2338 3584 
Q 2397 3584 2469 3576 
Q 2541 3569 2628 3553 
L 2631 2963 
z
" transform="scale(0.015625)"/>
      </defs>
      <use xlink:href="#DejaVuSans-44"/>
      <use xlink:href="#DejaVuSans-61" x="77.001953"/>
      <use xlink:href="#DejaVuSans-79" x="138.28125"/>
      <use xlink:href="#DejaVuSans-73" x="197.460938"/>
      <use xlink:href="#DejaVuSans-20" x="249.560547"/>
      <use xlink:href="#DejaVuSans-73" x="281.347656"/>
      <use xlink:href="#DejaVuSans-69" x="333.447266"/>
      <use xlink:href="#DejaVuSans-6e" x="361.230469"/>
      <use xlink:href="#DejaVuSans-63" x="424.609375"/>
      <use xlink:href="#DejaVuSans-65" x="479.589844"/>
      <use xlink:href="#DejaVuSans-20" x="541.113281"/>
      <use xlink:href="#DejaVuSans-61" x="572.900391"/>
      <use xlink:href="#DejaVuSans-6e" x="634.179688"/>
      <use xlink:href="#DejaVuSans-74" x="697.558594"/>
      <use xlink:href="#DejaVuSans-69" x="736.767578"/>
      <use xlink:href="#DejaVuSans-67" x="764.550781"/>
      <use xlink:href="#DejaVuSans-65" x="828.027344"/>
      <use xlink:href="#DejaVuSans-6e" x="889.550781"/>
      <use xlink:href="#DejaVuSans-20" x="952.929688"/>
      <use xlink:href="#DejaVuSans-65" x="984.716797"/>
      <use xlink:href="#DejaVuSans-78" x="1044.490234"/>
      <use xlink:href="#DejaVuSans-70" x="1103.669922"/>
      <use xlink:href="#DejaVuSans-6f" x="1167.146484"/>
      <use xlink:href="#DejaVuSans-73" x="1228.328125"/>
      <use xlink:href="#DejaVuSans-75" x="1280.427734"/>
      <use xlink:href="#DejaVuSans-72" x="1343.806641"/>
      <use xlink:href="#DejaVuSans-65" x="1382.669922"/>
     </g>
    </g>
   </g>
   <g id="matplotlib.axis_2">
    <g id="ytick_1">
     <g id="line2d_8">
      <defs>
       <path id="mc07bf843ff" d="M 0 0 
L -3.5 0 
" style="stroke: #000000; stroke-width: 0.8"/>
      </defs>
      <g>
       <use xlink:href="#mc07bf843ff" x="91.758125" y="384.131167" style="stroke: #000000; stroke-width: 0.8"/>
      </g>
     </g>
     <g id="text_9">
      <!-- 0.0 -->
      <g transform="translate(52.951875 391.729605)scale(0.2 -0.2)">
       <defs>
        <path id="DejaVuSans-2e" d="M 684 794 
L 1344 794 
L 1344 0 
L 684 0 
L 684 794 
z
" transform="scale(0.015625)"/>
       </defs>
       <use xlink:href="#DejaVuSans-30"/>
       <use xlink:href="#DejaVuSans-2e" x="63.623047"/>
       <use xlink:href="#DejaVuSans-30" x="95.410156"/>
      </g>
     </g>
    </g>
    <g id="ytick_2">
     <g id="line2d_9">
      <g>
       <use xlink:href="#mc07bf843ff" x="91.758125" y="319.439752" style="stroke: #000000; stroke-width: 0.8"/>
      </g>
     </g>
     <g id="text_10">
      <!-- 0.2 -->
      <g transform="translate(52.951875 327.038189)scale(0.2 -0.2)">
       <use xlink:href="#DejaVuSans-30"/>
       <use xlink:href="#DejaVuSans-2e" x="63.623047"/>
       <use xlink:href="#DejaVuSans-32" x="95.410156"/>
      </g>
     </g>
    </g>
    <g id="ytick_3">
     <g id="line2d_10">
      <g>
       <use xlink:href="#mc07bf843ff" x="91.758125" y="254.748336" style="stroke: #000000; stroke-width: 0.8"/>
      </g>
     </g>
     <g id="text_11">
      <!-- 0.4 -->
      <g transform="translate(52.951875 262.346774)scale(0.2 -0.2)">
       <use xlink:href="#DejaVuSans-30"/>
       <use xlink:href="#DejaVuSans-2e" x="63.623047"/>
       <use xlink:href="#DejaVuSans-34" x="95.410156"/>
      </g>
     </g>
    </g>
    <g id="ytick_4">
     <g id="line2d_11">
      <g>
       <use xlink:href="#mc07bf843ff" x="91.758125" y="190.056921" style="stroke: #000000; stroke-width: 0.8"/>
      </g>
     </g>
     <g id="text_12">
      <!-- 0.6 -->
      <g transform="translate(52.951875 197.655358)scale(0.2 -0.2)">
       <use xlink:href="#DejaVuSans-30"/>
       <use xlink:href="#DejaVuSans-2e" x="63.623047"/>
       <use xlink:href="#DejaVuSans-36" x="95.410156"/>
      </g>
     </g>
    </g>
    <g id="ytick_5">
     <g id="line2d_12">
      <g>
       <use xlink:href="#mc07bf843ff" x="91.758125" y="125.365505" style="stroke: #000000; stroke-width: 0.8"/>
      </g>
     </g>
     <g id="text_13">
      <!-- 0.8 -->
      <g transform="translate(52.951875 132.963943)scale(0.2 -0.2)">
       <defs>
        <path id="DejaVuSans-38" d="M 2034 2216 
Q 1584 2216 1326 1975 
Q 1069 1734 1069 1313 
Q 1069 891 1326 650 
Q 1584 409 2034 409 
Q 2484 409 2743 651 
Q 3003 894 3003 1313 
Q 3003 1734 2745 1975 
Q 2488 2216 2034 2216 
z
M 1403 2484 
Q 997 2584 770 2862 
Q 544 3141 544 3541 
Q 544 4100 942 4425 
Q 1341 4750 2034 4750 
Q 2731 4750 3128 4425 
Q 3525 4100 3525 3541 
Q 3525 3141 3298 2862 
Q 3072 2584 2669 2484 
Q 3125 2378 3379 2068 
Q 3634 1759 3634 1313 
Q 3634 634 3220 271 
Q 2806 -91 2034 -91 
Q 1263 -91 848 271 
Q 434 634 434 1313 
Q 434 1759 690 2068 
Q 947 2378 1403 2484 
z
M 1172 3481 
Q 1172 3119 1398 2916 
Q 1625 2713 2034 2713 
Q 2441 2713 2670 2916 
Q 2900 3119 2900 3481 
Q 2900 3844 2670 4047 
Q 2441 4250 2034 4250 
Q 1625 4250 1398 4047 
Q 1172 3844 1172 3481 
z
" transform="scale(0.015625)"/>
       </defs>
       <use xlink:href="#DejaVuSans-30"/>
       <use xlink:href="#DejaVuSans-2e" x="63.623047"/>
       <use xlink:href="#DejaVuSans-38" x="95.410156"/>
      </g>
     </g>
    </g>
    <g id="ytick_6">
     <g id="line2d_13">
      <g>
       <use xlink:href="#mc07bf843ff" x="91.758125" y="60.67409" style="stroke: #000000; stroke-width: 0.8"/>
      </g>
     </g>
     <g id="text_14">
      <!-- 1.0 -->
      <g transform="translate(52.951875 68.272527)scale(0.2 -0.2)">
       <use xlink:href="#DejaVuSans-31"/>
       <use xlink:href="#DejaVuSans-2e" x="63.623047"/>
       <use xlink:href="#DejaVuSans-30" x="95.410156"/>
      </g>
     </g>
    </g>
    <g id="text_15">
     <!-- Virus neutralization -->
     <g transform="translate(22.396875 319.741562)rotate(-90)scale(0.2 -0.2)">
      <defs>
       <path id="DejaVuSans-56" d="M 1831 0 
L 50 4666 
L 709 4666 
L 2188 738 
L 3669 4666 
L 4325 4666 
L 2547 0 
L 1831 0 
z
" transform="scale(0.015625)"/>
       <path id="DejaVuSans-6c" d="M 603 4863 
L 1178 4863 
L 1178 0 
L 603 0 
L 603 4863 
z
" transform="scale(0.015625)"/>
       <path id="DejaVuSans-7a" d="M 353 3500 
L 3084 3500 
L 3084 2975 
L 922 459 
L 3084 459 
L 3084 0 
L 275 0 
L 275 525 
L 2438 3041 
L 353 3041 
L 353 3500 
z
" transform="scale(0.015625)"/>
      </defs>
      <use xlink:href="#DejaVuSans-56"/>
      <use xlink:href="#DejaVuSans-69" x="66.158203"/>
      <use xlink:href="#DejaVuSans-72" x="93.941406"/>
      <use xlink:href="#DejaVuSans-75" x="135.054688"/>
      <use xlink:href="#DejaVuSans-73" x="198.433594"/>
      <use xlink:href="#DejaVuSans-20" x="250.533203"/>
      <use xlink:href="#DejaVuSans-6e" x="282.320312"/>
      <use xlink:href="#DejaVuSans-65" x="345.699219"/>
      <use xlink:href="#DejaVuSans-75" x="407.222656"/>
      <use xlink:href="#DejaVuSans-74" x="470.601562"/>
      <use xlink:href="#DejaVuSans-72" x="509.810547"/>
      <use xlink:href="#DejaVuSans-61" x="550.923828"/>
      <use xlink:href="#DejaVuSans-6c" x="612.203125"/>
      <use xlink:href="#DejaVuSans-69" x="639.986328"/>
      <use xlink:href="#DejaVuSans-7a" x="667.769531"/>
      <use xlink:href="#DejaVuSans-61" x="720.259766"/>
      <use xlink:href="#DejaVuSans-74" x="781.539062"/>
      <use xlink:href="#DejaVuSans-69" x="820.748047"/>
      <use xlink:href="#DejaVuSans-6f" x="848.53125"/>
      <use xlink:href="#DejaVuSans-6e" x="909.712891"/>
     </g>
     <!--  probability -->
     <g transform="translate(44.7925 278.966562)rotate(-90)scale(0.2 -0.2)">
      <defs>
       <path id="DejaVuSans-62" d="M 3116 1747 
Q 3116 2381 2855 2742 
Q 2594 3103 2138 3103 
Q 1681 3103 1420 2742 
Q 1159 2381 1159 1747 
Q 1159 1113 1420 752 
Q 1681 391 2138 391 
Q 2594 391 2855 752 
Q 3116 1113 3116 1747 
z
M 1159 2969 
Q 1341 3281 1617 3432 
Q 1894 3584 2278 3584 
Q 2916 3584 3314 3078 
Q 3713 2572 3713 1747 
Q 3713 922 3314 415 
Q 2916 -91 2278 -91 
Q 1894 -91 1617 61 
Q 1341 213 1159 525 
L 1159 0 
L 581 0 
L 581 4863 
L 1159 4863 
L 1159 2969 
z
" transform="scale(0.015625)"/>
      </defs>
      <use xlink:href="#DejaVuSans-20"/>
      <use xlink:href="#DejaVuSans-70" x="31.787109"/>
      <use xlink:href="#DejaVuSans-72" x="95.263672"/>
      <use xlink:href="#DejaVuSans-6f" x="134.126953"/>
      <use xlink:href="#DejaVuSans-62" x="195.308594"/>
      <use xlink:href="#DejaVuSans-61" x="258.785156"/>
      <use xlink:href="#DejaVuSans-62" x="320.064453"/>
      <use xlink:href="#DejaVuSans-69" x="383.541016"/>
      <use xlink:href="#DejaVuSans-6c" x="411.324219"/>
      <use xlink:href="#DejaVuSans-69" x="439.107422"/>
      <use xlink:href="#DejaVuSans-74" x="466.890625"/>
      <use xlink:href="#DejaVuSans-79" x="506.099609"/>
     </g>
    </g>
   </g>
   <g id="patch_3">
    <path d="M 91.758125 416.476875 
L 91.758125 28.396875 
" style="fill: none; stroke: #000000; stroke-width: 0.8; stroke-linejoin: miter; stroke-linecap: square"/>
   </g>
   <g id="patch_4">
    <path d="M 649.758125 416.476875 
L 649.758125 28.396875 
" style="fill: none; stroke: #000000; stroke-width: 0.8; stroke-linejoin: miter; stroke-linecap: square"/>
   </g>
   <g id="patch_5">
    <path d="M 91.758125 416.476875 
L 649.758125 416.476875 
" style="fill: none; stroke: #000000; stroke-width: 0.8; stroke-linejoin: miter; stroke-linecap: square"/>
   </g>
   <g id="patch_6">
    <path d="M 91.758125 28.396875 
L 649.758125 28.396875 
" style="fill: none; stroke: #000000; stroke-width: 0.8; stroke-linejoin: miter; stroke-linecap: square"/>
   </g>
   <g id="text_16">
    <!-- XBB.1.5 antigen -->
    <g transform="translate(289.92375 22.396875)scale(0.2 -0.2)">
     <defs>
      <path id="DejaVuSans-58" d="M 403 4666 
L 1081 4666 
L 2241 2931 
L 3406 4666 
L 4084 4666 
L 2584 2425 
L 4184 0 
L 3506 0 
L 2194 1984 
L 872 0 
L 191 0 
L 1856 2491 
L 403 4666 
z
" transform="scale(0.015625)"/>
      <path id="DejaVuSans-42" d="M 1259 2228 
L 1259 519 
L 2272 519 
Q 2781 519 3026 730 
Q 3272 941 3272 1375 
Q 3272 1813 3026 2020 
Q 2781 2228 2272 2228 
L 1259 2228 
z
M 1259 4147 
L 1259 2741 
L 2194 2741 
Q 2656 2741 2882 2914 
Q 3109 3088 3109 3444 
Q 3109 3797 2882 3972 
Q 2656 4147 2194 4147 
L 1259 4147 
z
M 628 4666 
L 2241 4666 
Q 2963 4666 3353 4366 
Q 3744 4066 3744 3513 
Q 3744 3084 3544 2831 
Q 3344 2578 2956 2516 
Q 3422 2416 3680 2098 
Q 3938 1781 3938 1306 
Q 3938 681 3513 340 
Q 3088 0 2303 0 
L 628 0 
L 628 4666 
z
" transform="scale(0.015625)"/>
     </defs>
     <use xlink:href="#DejaVuSans-58"/>
     <use xlink:href="#DejaVuSans-42" x="68.505859"/>
     <use xlink:href="#DejaVuSans-42" x="137.109375"/>
     <use xlink:href="#DejaVuSans-2e" x="205.712891"/>
     <use xlink:href="#DejaVuSans-31" x="237.5"/>
     <use xlink:href="#DejaVuSans-2e" x="301.123047"/>
     <use xlink:href="#DejaVuSans-35" x="332.910156"/>
     <use xlink:href="#DejaVuSans-20" x="396.533203"/>
     <use xlink:href="#DejaVuSans-61" x="428.320312"/>
     <use xlink:href="#DejaVuSans-6e" x="489.599609"/>
     <use xlink:href="#DejaVuSans-74" x="552.978516"/>
     <use xlink:href="#DejaVuSans-69" x="592.1875"/>
     <use xlink:href="#DejaVuSans-67" x="619.970703"/>
     <use xlink:href="#DejaVuSans-65" x="683.447266"/>
     <use xlink:href="#DejaVuSans-6e" x="744.970703"/>
    </g>
   </g>
   <g id="legend_1">
    <g id="patch_7">
     <path d="M 235.258125 532.900875 
L 520.69875 532.900875 
Q 524.69875 532.900875 524.69875 528.900875 
L 524.69875 501.544625 
Q 524.69875 497.544625 520.69875 497.544625 
L 235.258125 497.544625 
Q 231.258125 497.544625 231.258125 501.544625 
L 231.258125 528.900875 
Q 231.258125 532.900875 235.258125 532.900875 
z
" style="fill: #ffffff; opacity: 0.8; stroke: #cccccc; stroke-linejoin: miter"/>
    </g>
    <g id="patch_8">
     <path d="M 239.258125 520.7415 
L 279.258125 520.7415 
L 279.258125 506.7415 
L 239.258125 506.7415 
z
" style="fill: #ffa500; fill-opacity: 0.3; stroke: #ffa500; stroke-opacity: 0.3; stroke-linejoin: miter"/>
    </g>
    <g id="text_17">
     <!-- BA.4 -->
     <g transform="translate(295.258125 520.7415)scale(0.2 -0.2)">
      <defs>
       <path id="DejaVuSans-41" d="M 2188 4044 
L 1331 1722 
L 3047 1722 
L 2188 4044 
z
M 1831 4666 
L 2547 4666 
L 4325 0 
L 3669 0 
L 3244 1197 
L 1141 1197 
L 716 0 
L 50 0 
L 1831 4666 
z
" transform="scale(0.015625)"/>
      </defs>
      <use xlink:href="#DejaVuSans-42"/>
      <use xlink:href="#DejaVuSans-41" x="68.603516"/>
      <use xlink:href="#DejaVuSans-2e" x="135.261719"/>
      <use xlink:href="#DejaVuSans-34" x="167.048828"/>
     </g>
    </g>
    <g id="patch_9">
     <path d="M 381.3925 520.7415 
L 421.3925 520.7415 
L 421.3925 506.7415 
L 381.3925 506.7415 
z
" style="fill: #1f77b4; fill-opacity: 0.3; stroke: #1f77b4; stroke-opacity: 0.3; stroke-linejoin: miter"/>
    </g>
    <g id="text_18">
     <!-- XBB.1.5 -->
     <g transform="translate(437.3925 520.7415)scale(0.2 -0.2)">
      <use xlink:href="#DejaVuSans-58"/>
      <use xlink:href="#DejaVuSans-42" x="68.505859"/>
      <use xlink:href="#DejaVuSans-42" x="137.109375"/>
      <use xlink:href="#DejaVuSans-2e" x="205.712891"/>
      <use xlink:href="#DejaVuSans-31" x="237.5"/>
      <use xlink:href="#DejaVuSans-2e" x="301.123047"/>
      <use xlink:href="#DejaVuSans-35" x="332.910156"/>
     </g>
    </g>
   </g>
  </g>
 </g>
 <defs>
  <clipPath id="p3dca9151f5">
   <rect x="91.758125" y="28.396875" width="558" height="388.08"/>
  </clipPath>
 </defs>
</svg>
