<?xml version="1.0" encoding="utf-8" standalone="no"?>
<!DOCTYPE svg PUBLIC "-//W3C//DTD SVG 1.1//EN"
  "http://www.w3.org/Graphics/SVG/1.1/DTD/svg11.dtd">
<svg xmlns:xlink="http://www.w3.org/1999/xlink" width="656.958125pt" height="540.100875pt" viewBox="0 0 656.958125 540.100875" xmlns="http://www.w3.org/2000/svg" version="1.1">
 <metadata>
  <rdf:RDF xmlns:dc="http://purl.org/dc/elements/1.1/" xmlns:cc="http://creativecommons.org/ns#" xmlns:rdf="http://www.w3.org/1999/02/22-rdf-syntax-ns#">
   <cc:Work>
    <dc:type rdf:resource="http://purl.org/dc/dcmitype/StillImage"/>
    <dc:date>2024-09-28T11:34:30.070338</dc:date>
    <dc:format>image/svg+xml</dc:format>
    <dc:creator>
     <cc:Agent>
      <dc:title>Matplotlib v3.5.2, https://matplotlib.org/</dc:title>
     </cc:Agent>
    </dc:creator>
   </cc:Work>
  </rdf:RDF>
 </metadata>
 <defs>
  <style type="text/css">*{stroke-linejoin: round; stroke-linecap: butt}</style>
 </defs>
 <g id="figure_1">
  <g id="patch_1">
   <path d="M 0 540.100875 
L 656.958125 540.100875 
L 656.958125 0 
L 0 0 
z
" style="fill: #ffffff"/>
  </g>
  <g id="axes_1">
   <g id="patch_2">
    <path d="M 91.758125 416.476875 
L 649.758125 416.476875 
L 649.758125 28.396875 
L 91.758125 28.396875 
z
" style="fill: #ffffff"/>
   </g>
   <g id="PolyCollection_1">
    <defs>
     <path id="m3c754e4a00" d="M 117.121761 -464.06096 
L 117.121761 -397.116121 
L 117.897408 -450.864899 
L 118.673054 -467.331633 
L 119.4487 -473.524795 
L 120.224347 -476.220388 
L 120.999993 -477.530684 
L 121.77564 -478.225437 
L 122.551286 -478.620647 
L 123.326932 -478.858897 
L 124.102579 -479.009679 
L 124.878225 -479.109112 
L 125.653871 -479.177024 
L 126.429518 -479.224817 
L 127.205164 -479.259326 
L 127.980811 -479.28479 
L 128.756457 -479.303928 
L 129.532103 -479.318529 
L 130.30775 -479.3298 
L 131.083396 -479.338576 
L 131.859042 -479.343679 
L 132.634689 -479.336209 
L 133.410335 -479.327415 
L 134.185982 -479.317166 
L 134.961628 -479.305309 
L 135.737274 -479.291664 
L 136.512921 -479.27603 
L 137.288567 -479.258179 
L 138.064213 -479.237855 
L 138.83986 -479.214775 
L 139.615506 -479.188628 
L 140.391153 -479.159068 
L 141.166799 -479.125719 
L 141.942445 -479.08817 
L 142.718092 -479.045971 
L 143.493738 -478.998637 
L 144.269384 -478.945641 
L 145.045031 -478.886414 
L 145.820677 -478.820343 
L 146.596323 -478.746773 
L 147.37197 -478.665 
L 148.147616 -478.574273 
L 148.923263 -478.473791 
L 149.698909 -478.362706 
L 150.474555 -478.240117 
L 151.250202 -478.105074 
L 152.025848 -477.956576 
L 152.801494 -477.793568 
L 153.577141 -477.614949 
L 154.352787 -477.419565 
L 155.128434 -477.206213 
L 155.90408 -476.973645 
L 156.679726 -476.720566 
L 157.455373 -476.445636 
L 158.231019 -476.147477 
L 159.006665 -475.824669 
L 159.782312 -475.475761 
L 160.557958 -475.099269 
L 161.333605 -474.69368 
L 162.109251 -474.257462 
L 162.884897 -473.789062 
L 163.660544 -473.286915 
L 164.43619 -472.749448 
L 165.211836 -472.175088 
L 165.987483 -471.562262 
L 166.763129 -470.90941 
L 167.538776 -470.214989 
L 168.314422 -469.477476 
L 169.090068 -468.695379 
L 169.865715 -467.867243 
L 170.641361 -466.991655 
L 171.417007 -466.06725 
L 172.192654 -465.09272 
L 172.9683 -464.066822 
L 173.743947 -462.988377 
L 174.519593 -461.856284 
L 175.295239 -460.669522 
L 176.070886 -459.427157 
L 176.846532 -458.128346 
L 177.622178 -456.772343 
L 178.397825 -455.358503 
L 179.173471 -453.886286 
L 179.949117 -452.35526 
L 180.724764 -450.765108 
L 181.50041 -449.115625 
L 182.276057 -447.406723 
L 183.051703 -445.638434 
L 183.827349 -443.810909 
L 184.602996 -441.924419 
L 185.378642 -439.979355 
L 186.154288 -437.976229 
L 186.929935 -435.915669 
L 187.705581 -433.798423 
L 188.481228 -431.625352 
L 189.256874 -429.397431 
L 190.03252 -427.115743 
L 190.808167 -424.781478 
L 191.583813 -422.395928 
L 192.359459 -419.960482 
L 193.135106 -417.476624 
L 193.910752 -414.945926 
L 194.686399 -412.370042 
L 195.462045 -409.750705 
L 196.237691 -407.08972 
L 197.013338 -404.388957 
L 197.788984 -401.65035 
L 198.56463 -398.875882 
L 199.340277 -396.067589 
L 200.115923 -393.227546 
L 200.89157 -390.357864 
L 201.667216 -387.460686 
L 202.442862 -384.538174 
L 203.218509 -381.592512 
L 203.994155 -378.625893 
L 204.769801 -375.640515 
L 205.545448 -372.638578 
L 206.321094 -369.622276 
L 207.096741 -366.593791 
L 207.872387 -363.55529 
L 208.648033 -360.50892 
L 209.42368 -357.456803 
L 210.199326 -354.40103 
L 210.974972 -351.343659 
L 211.750619 -348.286712 
L 212.526265 -345.232168 
L 213.301911 -342.181962 
L 214.077558 -339.137983 
L 214.853204 -336.10207 
L 215.628851 -333.076008 
L 216.404497 -330.061528 
L 217.180143 -327.060305 
L 217.95579 -324.073955 
L 218.731436 -321.104036 
L 219.507082 -318.152043 
L 220.282729 -315.21941 
L 221.058375 -312.307508 
L 221.834022 -309.417647 
L 222.609668 -306.551071 
L 223.385314 -303.708963 
L 224.160961 -300.892441 
L 224.936607 -298.102559 
L 225.712253 -295.340312 
L 226.4879 -292.60663 
L 227.263546 -289.902381 
L 228.039193 -287.228375 
L 228.814839 -284.585362 
L 229.590485 -281.974031 
L 230.366132 -279.395017 
L 231.141778 -276.848897 
L 231.917424 -274.336193 
L 232.693071 -271.857376 
L 233.468717 -269.412863 
L 234.244364 -267.00302 
L 235.02001 -264.628168 
L 235.795656 -262.288578 
L 236.571303 -259.984475 
L 237.346949 -257.716042 
L 238.122595 -255.483419 
L 238.898242 -253.286705 
L 239.673888 -251.125962 
L 240.449535 -249.001212 
L 241.225181 -246.912443 
L 242.000827 -244.85961 
L 242.776474 -242.842635 
L 243.55212 -240.86141 
L 244.327766 -238.915795 
L 245.103413 -237.005627 
L 245.879059 -235.130714 
L 246.654705 -233.290841 
L 247.430352 -231.485769 
L 248.205998 -229.715239 
L 248.981645 -227.97897 
L 249.757291 -226.276664 
L 250.532937 -224.608004 
L 251.308584 -222.972658 
L 252.08423 -221.370278 
L 252.859876 -219.800504 
L 253.635523 -218.262961 
L 254.411169 -216.757265 
L 255.186816 -215.283019 
L 255.962462 -213.839818 
L 256.738108 -212.427249 
L 257.513755 -211.04489 
L 258.289401 -209.692315 
L 259.065047 -208.369088 
L 259.840694 -207.074773 
L 260.61634 -205.808925 
L 261.391987 -204.5711 
L 262.167633 -203.360849 
L 262.943279 -202.17772 
L 263.718926 -201.021262 
L 264.494572 -199.891021 
L 265.270218 -198.786544 
L 266.045865 -197.707378 
L 266.821511 -196.653071 
L 267.597158 -195.623172 
L 268.372804 -194.61723 
L 269.14845 -193.634799 
L 269.924097 -192.675434 
L 270.699743 -191.738693 
L 271.475389 -190.824136 
L 272.251036 -189.931328 
L 273.026682 -189.059838 
L 273.802329 -188.209237 
L 274.577975 -187.379103 
L 275.353621 -186.569015 
L 276.129268 -185.778559 
L 276.904914 -185.007327 
L 277.68056 -184.254912 
L 278.456207 -183.520916 
L 279.231853 -182.804944 
L 280.007499 -182.106608 
L 280.783146 -181.425524 
L 281.558792 -180.761315 
L 282.334439 -180.113608 
L 283.110085 -179.482038 
L 283.885731 -178.866243 
L 284.661378 -178.265869 
L 285.437024 -177.680567 
L 286.21267 -177.109995 
L 286.988317 -176.553815 
L 287.763963 -176.011696 
L 288.53961 -175.483313 
L 289.315256 -174.968346 
L 290.090902 -174.466482 
L 290.866549 -173.977414 
L 291.642195 -173.50084 
L 292.417841 -173.036463 
L 293.193488 -172.583995 
L 293.969134 -172.143149 
L 294.744781 -171.713648 
L 295.520427 -171.295218 
L 296.296073 -170.887592 
L 297.07172 -170.490507 
L 297.847366 -170.103707 
L 298.623012 -169.726941 
L 299.398659 -169.359963 
L 300.174305 -169.002532 
L 300.949952 -168.654413 
L 301.725598 -168.315375 
L 302.501244 -167.985193 
L 303.276891 -167.663647 
L 304.052537 -167.350521 
L 304.828183 -167.045605 
L 305.60383 -166.748692 
L 306.379476 -166.459582 
L 307.155122 -166.178077 
L 307.930769 -165.903987 
L 308.706415 -165.637122 
L 309.482062 -165.377299 
L 310.257708 -165.12434 
L 311.033354 -164.87807 
L 311.809001 -164.638318 
L 312.584647 -164.404916 
L 313.360293 -164.177703 
L 314.13594 -163.956518 
L 314.911586 -163.741208 
L 315.687233 -163.531621 
L 316.462879 -163.327609 
L 317.238525 -163.129028 
L 318.014172 -162.935737 
L 318.789818 -162.747599 
L 319.565464 -162.56448 
L 320.341111 -162.386249 
L 321.116757 -162.21278 
L 321.892404 -162.043948 
L 322.66805 -161.879632 
L 323.443696 -161.719713 
L 324.219343 -161.564078 
L 324.994989 -161.412612 
L 325.770635 -161.265207 
L 326.546282 -161.121757 
L 327.321928 -160.982156 
L 328.097575 -160.846304 
L 328.873221 -160.714102 
L 329.648867 -160.585454 
L 330.424514 -160.460265 
L 331.20016 -160.338444 
L 331.975806 -160.219902 
L 332.751453 -160.104553 
L 333.527099 -159.99231 
L 334.302746 -159.883093 
L 335.078392 -159.776821 
L 335.854038 -159.673414 
L 336.629685 -159.572798 
L 337.405331 -159.474898 
L 338.180977 -159.379641 
L 338.956624 -159.286957 
L 339.73227 -159.196778 
L 340.507916 -159.109036 
L 341.283563 -159.023666 
L 342.059209 -158.940605 
L 342.834856 -158.859792 
L 343.610502 -158.781165 
L 344.386148 -158.704667 
L 345.161795 -158.63024 
L 345.937441 -158.557829 
L 346.713087 -158.487379 
L 347.488734 -158.418839 
L 348.26438 -158.352156 
L 349.040027 -158.287282 
L 349.815673 -158.224166 
L 350.591319 -158.162763 
L 351.366966 -158.103026 
L 352.142612 -158.044909 
L 352.918258 -157.98837 
L 353.693905 -157.933366 
L 354.469551 -157.879856 
L 355.245198 -157.827798 
L 356.020844 -157.777155 
L 356.79649 -157.727888 
L 357.572137 -157.679959 
L 358.347783 -157.633333 
L 359.123429 -157.587975 
L 359.899076 -157.543849 
L 360.674722 -157.500924 
L 361.450369 -157.459165 
L 362.226015 -157.418543 
L 363.001661 -157.379025 
L 363.777308 -157.340583 
L 364.552954 -157.303187 
L 365.3286 -157.266809 
L 366.104247 -157.23142 
L 366.879893 -157.196995 
L 367.65554 -157.163508 
L 368.431186 -157.130932 
L 369.206832 -157.099243 
L 369.982479 -157.068417 
L 370.758125 -157.038431 
L 371.533771 -157.009262 
L 372.309418 -156.980887 
L 373.085064 -156.953286 
L 373.86071 -156.926436 
L 374.636357 -156.900319 
L 375.412003 -156.874913 
L 376.18765 -156.850199 
L 376.963296 -156.826159 
L 377.738942 -156.802775 
L 378.514589 -156.780028 
L 379.290235 -156.757901 
L 380.065881 -156.736378 
L 380.841528 -156.715442 
L 381.617174 -156.695076 
L 382.392821 -156.675267 
L 383.168467 -156.655997 
L 383.944113 -156.637253 
L 384.71976 -156.61902 
L 385.495406 -156.601285 
L 386.271052 -156.584034 
L 387.046699 -156.567253 
L 387.822345 -156.550931 
L 388.597992 -156.535053 
L 389.373638 -156.519609 
L 390.149284 -156.504587 
L 390.924931 -156.489974 
L 391.700577 -156.47576 
L 392.476223 -156.461935 
L 393.25187 -156.448486 
L 394.027516 -156.435405 
L 394.803163 -156.422681 
L 395.578809 -156.410304 
L 396.354455 -156.398266 
L 397.130102 -156.386556 
L 397.905748 -156.375165 
L 398.681394 -156.364086 
L 399.457041 -156.353309 
L 400.232687 -156.342827 
L 401.008334 -156.33263 
L 401.78398 -156.322712 
L 402.559626 -156.313066 
L 403.335273 -156.303682 
L 404.110919 -156.294555 
L 404.886565 -156.285677 
L 405.662212 -156.277042 
L 406.437858 -156.268642 
L 407.213504 -156.260472 
L 407.989151 -156.252525 
L 408.764797 -156.244795 
L 409.540444 -156.237277 
L 410.31609 -156.229963 
L 411.091736 -156.22285 
L 411.867383 -156.215931 
L 412.643029 -156.209201 
L 413.418675 -156.202655 
L 414.194322 -156.196287 
L 414.969968 -156.190094 
L 415.745615 -156.18407 
L 416.521261 -156.17821 
L 417.296907 -156.172511 
L 418.072554 -156.166967 
L 418.8482 -156.161575 
L 419.623846 -156.15633 
L 420.399493 -156.151229 
L 421.175139 -156.146266 
L 421.950786 -156.14144 
L 422.726432 -156.136745 
L 423.502078 -156.132179 
L 424.277725 -156.127738 
L 425.053371 -156.123417 
L 425.829017 -156.119215 
L 426.604664 -156.115128 
L 427.38031 -156.111153 
L 428.155957 -156.107286 
L 428.931603 -156.103525 
L 429.707249 -156.099866 
L 430.482896 -156.096308 
L 431.258542 -156.092847 
L 432.034188 -156.08948 
L 432.809835 -156.086206 
L 433.585481 -156.083021 
L 434.361128 -156.079923 
L 435.136774 -156.07691 
L 435.91242 -156.073979 
L 436.688067 -156.071128 
L 437.463713 -156.068355 
L 438.239359 -156.065658 
L 439.015006 -156.063035 
L 439.790652 -156.060483 
L 440.566298 -156.058001 
L 441.341945 -156.055587 
L 442.117591 -156.053239 
L 442.893238 -156.050955 
L 443.668884 -156.048734 
L 444.44453 -156.046573 
L 445.220177 -156.044472 
L 445.995823 -156.042427 
L 446.771469 -156.040439 
L 447.547116 -156.038505 
L 448.322762 -156.036624 
L 449.098409 -156.034795 
L 449.874055 -156.033015 
L 450.649701 -156.031284 
L 451.425348 -156.0296 
L 452.200994 -156.027963 
L 452.97664 -156.02637 
L 453.752287 -156.024821 
L 454.527933 -156.023314 
L 455.30358 -156.021848 
L 456.079226 -156.020422 
L 456.854872 -156.019036 
L 457.630519 -156.017687 
L 458.406165 -156.016375 
L 459.181811 -156.015099 
L 459.957458 -156.013858 
L 460.733104 -156.012651 
L 461.508751 -156.011477 
L 462.284397 -156.010335 
L 463.060043 -156.009224 
L 463.83569 -156.008143 
L 464.611336 -156.007092 
L 465.386982 -156.00607 
L 466.162629 -156.005076 
L 466.938275 -156.004109 
L 467.713921 -156.003168 
L 468.489568 -156.002253 
L 469.265214 -156.001363 
L 470.040861 -156.000498 
L 470.816507 -155.999656 
L 471.592153 -155.998837 
L 472.3678 -155.99804 
L 473.143446 -155.997266 
L 473.919092 -155.996512 
L 474.694739 -155.995779 
L 475.470385 -155.995066 
L 476.246032 -155.994373 
L 477.021678 -155.993698 
L 477.797324 -155.993042 
L 478.572971 -155.992404 
L 479.348617 -155.991784 
L 480.124263 -155.99118 
L 480.89991 -155.990593 
L 481.675556 -155.990022 
L 482.451203 -155.989466 
L 483.226849 -155.988926 
L 484.002495 -155.988401 
L 484.778142 -155.987889 
L 485.553788 -155.987392 
L 486.329434 -155.986909 
L 487.105081 -155.986438 
L 487.880727 -155.985981 
L 488.656374 -155.985536 
L 489.43202 -155.985103 
L 490.207666 -155.984682 
L 490.983313 -155.984273 
L 491.758959 -155.983874 
L 492.534605 -155.983487 
L 493.310252 -155.98311 
L 494.085898 -155.982744 
L 494.861545 -155.982387 
L 495.637191 -155.982041 
L 496.412837 -155.981703 
L 497.188484 -155.981375 
L 497.96413 -155.981056 
L 498.739776 -155.980746 
L 499.515423 -155.980444 
L 500.291069 -155.980151 
L 501.066715 -155.979865 
L 501.842362 -155.979587 
L 502.618008 -155.979317 
L 503.393655 -155.979054 
L 504.169301 -155.978799 
L 504.944947 -155.97855 
L 505.720594 -155.978308 
L 506.49624 -155.978073 
L 507.271886 -155.977844 
L 508.047533 -155.977622 
L 508.823179 -155.977406 
L 509.598826 -155.977195 
L 510.374472 -155.97699 
L 511.150118 -155.976791 
L 511.925765 -155.976597 
L 512.701411 -155.976409 
L 513.477057 -155.976226 
L 514.252704 -155.976048 
L 515.02835 -155.975874 
L 515.803997 -155.975706 
L 516.579643 -155.975542 
L 517.355289 -155.975382 
L 518.130936 -155.975227 
L 518.906582 -155.975076 
L 519.682228 -155.974929 
L 520.457875 -155.974786 
L 521.233521 -155.974648 
L 522.009168 -155.974512 
L 522.784814 -155.974381 
L 523.56046 -155.974253 
L 524.336107 -155.974129 
L 525.111753 -155.974008 
L 525.887399 -155.97389 
L 526.663046 -155.973776 
L 527.438692 -155.973665 
L 528.214339 -155.973557 
L 528.989985 -155.973451 
L 529.765631 -155.973349 
L 530.541278 -155.973249 
L 531.316924 -155.973153 
L 532.09257 -155.973058 
L 532.868217 -155.972967 
L 533.643863 -155.972878 
L 534.419509 -155.972791 
L 535.195156 -155.972707 
L 535.970802 -155.972625 
L 536.746449 -155.972545 
L 537.522095 -155.972467 
L 538.297741 -155.972392 
L 539.073388 -155.972318 
L 539.849034 -155.972247 
L 540.62468 -155.972178 
L 541.400327 -155.97211 
L 542.175973 -155.972044 
L 542.95162 -155.971981 
L 543.727266 -155.971918 
L 544.502912 -155.971858 
L 545.278559 -155.971799 
L 546.054205 -155.971742 
L 546.829851 -155.971686 
L 547.605498 -155.971632 
L 548.381144 -155.97158 
L 549.156791 -155.971528 
L 549.932437 -155.971479 
L 550.708083 -155.97143 
L 551.48373 -155.971383 
L 552.259376 -155.971337 
L 553.035022 -155.971293 
L 553.810669 -155.971249 
L 554.586315 -155.971207 
L 555.361962 -155.971166 
L 556.137608 -155.971126 
L 556.913254 -155.971088 
L 557.688901 -155.97105 
L 558.464547 -155.971013 
L 559.240193 -155.970977 
L 560.01584 -155.970943 
L 560.791486 -155.970909 
L 561.567133 -155.970876 
L 562.342779 -155.970844 
L 563.118425 -155.970813 
L 563.894072 -155.970783 
L 564.669718 -155.970753 
L 565.445364 -155.970725 
L 566.221011 -155.970697 
L 566.996657 -155.97067 
L 567.772303 -155.970644 
L 568.54795 -155.970618 
L 569.323596 -155.970593 
L 570.099243 -155.970569 
L 570.874889 -155.970545 
L 571.650535 -155.970523 
L 572.426182 -155.9705 
L 573.201828 -155.970479 
L 573.977474 -155.970457 
L 574.753121 -155.970437 
L 575.528767 -155.970417 
L 576.304414 -155.970398 
L 577.08006 -155.970379 
L 577.855706 -155.97036 
L 578.631353 -155.970343 
L 579.406999 -155.970325 
L 580.182645 -155.970308 
L 580.958292 -155.970292 
L 581.733938 -155.970276 
L 582.509585 -155.97026 
L 583.285231 -155.970245 
L 584.060877 -155.970231 
L 584.836524 -155.970216 
L 585.61217 -155.970202 
L 586.387816 -155.970189 
L 587.163463 -155.970176 
L 587.939109 -155.970163 
L 588.714756 -155.97015 
L 589.490402 -155.970138 
L 590.266048 -155.970127 
L 591.041695 -155.970115 
L 591.817341 -155.970104 
L 592.592987 -155.970093 
L 593.368634 -155.970083 
L 594.14428 -155.970072 
L 594.919927 -155.970062 
L 595.695573 -155.970053 
L 596.471219 -155.970043 
L 597.246866 -155.970034 
L 598.022512 -155.970025 
L 598.798158 -155.970016 
L 599.573805 -155.970008 
L 600.349451 -155.97 
L 601.125097 -155.969992 
L 601.900744 -155.969984 
L 602.67639 -155.969977 
L 603.452037 -155.969969 
L 604.227683 -155.969962 
L 605.003329 -155.969955 
L 605.778976 -155.969948 
L 606.554622 -155.969942 
L 607.330268 -155.969935 
L 608.105915 -155.969929 
L 608.881561 -155.969923 
L 609.657208 -155.969917 
L 610.432854 -155.969911 
L 611.2085 -155.969906 
L 611.984147 -155.9699 
L 612.759793 -155.969895 
L 613.535439 -155.96989 
L 614.311086 -155.969885 
L 615.086732 -155.96988 
L 615.862379 -155.969875 
L 616.638025 -155.969871 
L 617.413671 -155.969866 
L 618.189318 -155.969862 
L 618.964964 -155.969858 
L 619.74061 -155.969854 
L 620.516257 -155.96985 
L 621.291903 -155.969846 
L 622.06755 -155.969842 
L 622.843196 -155.969838 
L 623.618842 -155.969835 
L 624.394489 -155.969831 
L 624.394489 -166.656994 
L 624.394489 -166.656994 
L 623.618842 -166.76277 
L 622.843196 -166.869572 
L 622.06755 -166.977409 
L 621.291903 -167.08629 
L 620.516257 -167.196225 
L 619.74061 -167.307225 
L 618.964964 -167.419298 
L 618.189318 -167.532455 
L 617.413671 -167.646706 
L 616.638025 -167.762061 
L 615.862379 -167.87853 
L 615.086732 -167.996123 
L 614.311086 -168.11485 
L 613.535439 -168.234723 
L 612.759793 -168.35575 
L 611.984147 -168.477944 
L 611.2085 -168.601315 
L 610.432854 -168.725873 
L 609.657208 -168.85163 
L 608.881561 -168.978596 
L 608.105915 -169.106782 
L 607.330268 -169.236199 
L 606.554622 -169.366859 
L 605.778976 -169.498773 
L 605.003329 -169.631952 
L 604.227683 -169.766408 
L 603.452037 -169.902152 
L 602.67639 -170.039195 
L 601.900744 -170.177551 
L 601.125097 -170.31723 
L 600.349451 -170.458244 
L 599.573805 -170.600606 
L 598.798158 -170.744327 
L 598.022512 -170.889419 
L 597.246866 -171.035896 
L 596.471219 -171.183769 
L 595.695573 -171.333051 
L 594.919927 -171.483754 
L 594.14428 -171.635891 
L 593.368634 -171.789475 
L 592.592987 -171.944519 
L 591.817341 -172.101036 
L 591.041695 -172.259038 
L 590.266048 -172.418538 
L 589.490402 -172.579551 
L 588.714756 -172.74209 
L 587.939109 -172.906167 
L 587.163463 -173.071797 
L 586.387816 -173.238992 
L 585.61217 -173.407768 
L 584.836524 -173.578137 
L 584.060877 -173.750113 
L 583.285231 -173.923711 
L 582.509585 -174.098945 
L 581.733938 -174.275829 
L 580.958292 -174.454377 
L 580.182645 -174.634603 
L 579.406999 -174.816523 
L 578.631353 -175.000151 
L 577.855706 -175.185501 
L 577.08006 -175.372589 
L 576.304414 -175.56143 
L 575.528767 -175.752037 
L 574.753121 -175.944427 
L 573.977474 -176.138615 
L 573.201828 -176.334616 
L 572.426182 -176.532446 
L 571.650535 -176.73212 
L 570.874889 -176.933654 
L 570.099243 -177.137063 
L 569.323596 -177.342363 
L 568.54795 -177.549571 
L 567.772303 -177.758702 
L 566.996657 -177.969773 
L 566.221011 -178.1828 
L 565.445364 -178.397799 
L 564.669718 -178.614786 
L 563.894072 -178.833779 
L 563.118425 -179.054793 
L 562.342779 -179.277847 
L 561.567133 -179.502955 
L 560.791486 -179.730136 
L 560.01584 -179.959407 
L 559.240193 -180.190785 
L 558.464547 -180.424286 
L 557.688901 -180.659929 
L 556.913254 -180.89773 
L 556.137608 -181.137708 
L 555.361962 -181.37988 
L 554.586315 -181.624264 
L 553.810669 -181.870878 
L 553.035022 -182.119739 
L 552.259376 -182.370865 
L 551.48373 -182.624276 
L 550.708083 -182.879989 
L 549.932437 -183.138022 
L 549.156791 -183.398394 
L 548.381144 -183.661124 
L 547.605498 -183.926229 
L 546.829851 -184.193729 
L 546.054205 -184.463643 
L 545.278559 -184.735989 
L 544.502912 -185.010787 
L 543.727266 -185.288055 
L 542.95162 -185.567813 
L 542.175973 -185.85008 
L 541.400327 -186.134875 
L 540.62468 -186.422218 
L 539.849034 -186.712129 
L 539.073388 -187.004626 
L 538.297741 -187.299729 
L 537.522095 -187.597459 
L 536.746449 -187.897835 
L 535.970802 -188.200877 
L 535.195156 -188.506606 
L 534.419509 -188.81504 
L 533.643863 -189.126201 
L 532.868217 -189.440108 
L 532.09257 -189.756782 
L 531.316924 -190.076243 
L 530.541278 -190.398512 
L 529.765631 -190.723609 
L 528.989985 -191.051555 
L 528.214339 -191.38237 
L 527.438692 -191.716075 
L 526.663046 -192.052692 
L 525.887399 -192.39224 
L 525.111753 -192.73474 
L 524.336107 -193.080214 
L 523.56046 -193.428682 
L 522.784814 -193.780166 
L 522.009168 -194.134687 
L 521.233521 -194.492265 
L 520.457875 -194.852923 
L 519.682228 -195.21668 
L 518.906582 -195.583559 
L 518.130936 -195.953581 
L 517.355289 -196.326767 
L 516.579643 -196.703138 
L 515.803997 -197.082717 
L 515.02835 -197.465524 
L 514.252704 -197.85158 
L 513.477057 -198.240908 
L 512.701411 -198.633529 
L 511.925765 -199.029464 
L 511.150118 -199.428735 
L 510.374472 -199.831363 
L 509.598826 -200.23737 
L 508.823179 -200.646778 
L 508.047533 -201.059608 
L 507.271886 -201.475882 
L 506.49624 -201.895621 
L 505.720594 -202.318847 
L 504.944947 -202.745581 
L 504.169301 -203.175845 
L 503.393655 -203.60966 
L 502.618008 -204.047048 
L 501.842362 -204.488031 
L 501.066715 -204.932629 
L 500.291069 -205.380864 
L 499.515423 -205.832758 
L 498.739776 -206.288332 
L 497.96413 -206.747606 
L 497.188484 -207.210603 
L 496.412837 -207.677343 
L 495.637191 -208.147848 
L 494.861545 -208.622138 
L 494.085898 -209.100234 
L 493.310252 -209.582158 
L 492.534605 -210.067931 
L 491.758959 -210.557572 
L 490.983313 -211.051102 
L 490.207666 -211.548543 
L 489.43202 -212.049914 
L 488.656374 -212.555236 
L 487.880727 -213.064528 
L 487.105081 -213.577813 
L 486.329434 -214.095108 
L 485.553788 -214.616434 
L 484.778142 -215.141811 
L 484.002495 -215.671258 
L 483.226849 -216.204795 
L 482.451203 -216.742442 
L 481.675556 -217.284216 
L 480.89991 -217.830138 
L 480.124263 -218.380225 
L 479.348617 -218.934498 
L 478.572971 -219.492973 
L 477.797324 -220.05567 
L 477.021678 -220.622606 
L 476.246032 -221.193799 
L 475.470385 -221.769268 
L 474.694739 -222.349029 
L 473.919092 -222.9331 
L 473.143446 -223.521497 
L 472.3678 -224.114238 
L 471.592153 -224.711338 
L 470.816507 -225.312815 
L 470.040861 -225.918684 
L 469.265214 -226.528961 
L 468.489568 -227.143662 
L 467.713921 -227.762801 
L 466.938275 -228.386393 
L 466.162629 -229.014454 
L 465.386982 -229.646997 
L 464.611336 -230.284036 
L 463.83569 -230.925586 
L 463.060043 -231.571659 
L 462.284397 -232.222268 
L 461.508751 -232.877426 
L 460.733104 -233.537145 
L 459.957458 -234.201438 
L 459.181811 -234.870315 
L 458.406165 -235.543788 
L 457.630519 -236.221867 
L 456.854872 -236.904564 
L 456.079226 -237.591887 
L 455.30358 -238.283847 
L 454.527933 -238.980453 
L 453.752287 -239.681712 
L 452.97664 -240.387635 
L 452.200994 -241.098227 
L 451.425348 -241.813497 
L 450.649701 -242.533451 
L 449.874055 -243.258096 
L 449.098409 -243.987438 
L 448.322762 -244.721481 
L 447.547116 -245.460231 
L 446.771469 -246.203692 
L 445.995823 -246.951868 
L 445.220177 -247.704762 
L 444.44453 -248.462376 
L 443.668884 -249.224713 
L 442.893238 -249.991774 
L 442.117591 -250.76356 
L 441.341945 -251.540072 
L 440.566298 -252.321309 
L 439.790652 -253.10727 
L 439.015006 -253.897954 
L 438.239359 -254.693358 
L 437.463713 -255.49348 
L 436.688067 -256.298317 
L 435.91242 -257.107864 
L 435.136774 -257.922116 
L 434.361128 -258.741068 
L 433.585481 -259.564713 
L 432.809835 -260.393046 
L 432.034188 -261.226057 
L 431.258542 -262.06374 
L 430.482896 -262.906084 
L 429.707249 -263.753079 
L 428.931603 -264.604716 
L 428.155957 -265.460982 
L 427.38031 -266.321866 
L 426.604664 -267.187355 
L 425.829017 -268.057434 
L 425.053371 -268.93209 
L 424.277725 -269.811306 
L 423.502078 -270.695067 
L 422.726432 -271.583355 
L 421.950786 -272.476152 
L 421.175139 -273.37344 
L 420.399493 -274.275199 
L 419.623846 -275.181409 
L 418.8482 -276.092047 
L 418.072554 -277.007092 
L 417.296907 -277.92652 
L 416.521261 -278.850307 
L 415.745615 -279.778427 
L 414.969968 -280.710856 
L 414.194322 -281.647565 
L 413.418675 -282.588527 
L 412.643029 -283.533714 
L 411.867383 -284.483094 
L 411.091736 -285.436637 
L 410.31609 -286.394311 
L 409.540444 -287.356084 
L 408.764797 -288.321921 
L 407.989151 -289.291788 
L 407.213504 -290.265649 
L 406.437858 -291.243466 
L 405.662212 -292.225203 
L 404.886565 -293.210819 
L 404.110919 -294.200275 
L 403.335273 -295.19353 
L 402.559626 -296.190542 
L 401.78398 -297.191268 
L 401.008334 -298.195662 
L 400.232687 -299.203681 
L 399.457041 -300.215277 
L 398.681394 -301.230404 
L 397.905748 -302.249012 
L 397.130102 -303.271052 
L 396.354455 -304.296474 
L 395.578809 -305.325225 
L 394.803163 -306.357253 
L 394.027516 -307.392504 
L 393.25187 -308.430922 
L 392.476223 -309.472453 
L 391.700577 -310.517037 
L 390.924931 -311.564618 
L 390.149284 -312.615135 
L 389.373638 -313.668529 
L 388.597992 -314.724737 
L 387.822345 -315.783696 
L 387.046699 -316.845344 
L 386.271052 -317.909616 
L 385.495406 -318.976444 
L 384.71976 -320.045763 
L 383.944113 -321.117503 
L 383.168467 -322.191597 
L 382.392821 -323.267974 
L 381.617174 -324.346562 
L 380.841528 -325.427289 
L 380.065881 -326.510082 
L 379.290235 -327.594866 
L 378.514589 -328.681566 
L 377.738942 -329.770105 
L 376.963296 -330.860407 
L 376.18765 -331.952391 
L 375.412003 -333.045979 
L 374.636357 -334.141091 
L 373.86071 -335.237644 
L 373.085064 -336.335557 
L 372.309418 -337.434745 
L 371.533771 -338.535126 
L 370.758125 -339.636612 
L 369.982479 -340.739119 
L 369.206832 -341.842559 
L 368.431186 -342.946845 
L 367.65554 -344.051886 
L 366.879893 -345.157595 
L 366.104247 -346.263879 
L 365.3286 -347.370649 
L 364.552954 -348.477811 
L 363.777308 -349.585273 
L 363.001661 -350.692942 
L 362.226015 -351.800722 
L 361.450369 -352.908519 
L 360.674722 -354.016237 
L 359.899076 -355.123779 
L 359.123429 -356.231049 
L 358.347783 -357.337948 
L 357.572137 -358.444378 
L 356.79649 -359.550241 
L 356.020844 -360.655436 
L 355.245198 -361.759863 
L 354.469551 -362.863423 
L 353.693905 -363.966014 
L 352.918258 -365.067534 
L 352.142612 -366.167882 
L 351.366966 -367.266955 
L 350.591319 -368.364651 
L 349.815673 -369.460866 
L 349.040027 -370.555498 
L 348.26438 -371.648443 
L 347.488734 -372.739596 
L 346.713087 -373.828854 
L 345.937441 -374.916113 
L 345.161795 -376.001268 
L 344.386148 -377.084215 
L 343.610502 -378.164848 
L 342.834856 -379.243065 
L 342.059209 -380.318759 
L 341.283563 -381.391826 
L 340.507916 -382.462162 
L 339.73227 -383.529662 
L 338.956624 -384.594222 
L 338.180977 -385.655738 
L 337.405331 -386.714105 
L 336.629685 -387.76922 
L 335.854038 -388.820979 
L 335.078392 -389.86928 
L 334.302746 -390.914019 
L 333.527099 -391.955093 
L 332.751453 -392.992402 
L 331.975806 -394.025843 
L 331.20016 -395.055316 
L 330.424514 -396.080719 
L 329.648867 -397.101953 
L 328.873221 -398.118919 
L 328.097575 -399.131517 
L 327.321928 -400.139651 
L 326.546282 -401.143222 
L 325.770635 -402.142134 
L 324.994989 -403.136292 
L 324.219343 -404.125601 
L 323.443696 -405.109966 
L 322.66805 -406.089296 
L 321.892404 -407.063497 
L 321.116757 -408.032479 
L 320.341111 -408.996151 
L 319.565464 -409.954426 
L 318.789818 -410.907215 
L 318.014172 -411.854431 
L 317.238525 -412.795989 
L 316.462879 -413.731805 
L 315.687233 -414.661796 
L 314.911586 -415.585879 
L 314.13594 -416.503976 
L 313.360293 -417.416006 
L 312.584647 -418.321893 
L 311.809001 -419.221559 
L 311.033354 -420.114931 
L 310.257708 -421.001936 
L 309.482062 -421.882501 
L 308.706415 -422.756556 
L 307.930769 -423.624033 
L 307.155122 -424.484866 
L 306.379476 -425.338988 
L 305.60383 -426.186337 
L 304.828183 -427.02685 
L 304.052537 -427.860468 
L 303.276891 -428.687132 
L 302.501244 -429.506785 
L 301.725598 -430.319373 
L 300.949952 -431.124843 
L 300.174305 -431.923144 
L 299.398659 -432.714226 
L 298.623012 -433.498043 
L 297.847366 -434.274549 
L 297.07172 -435.0437 
L 296.296073 -435.805455 
L 295.520427 -436.559775 
L 294.744781 -437.306621 
L 293.969134 -438.045959 
L 293.193488 -438.777755 
L 292.417841 -439.501978 
L 291.642195 -440.218597 
L 290.866549 -440.927585 
L 290.090902 -441.628917 
L 289.315256 -442.322571 
L 288.53961 -443.008523 
L 287.763963 -443.686756 
L 286.988317 -444.357251 
L 286.21267 -445.019995 
L 285.437024 -445.674973 
L 284.661378 -446.322175 
L 283.885731 -446.961593 
L 283.110085 -447.593219 
L 282.334439 -448.217048 
L 281.558792 -448.833079 
L 280.783146 -449.44131 
L 280.007499 -450.041742 
L 279.231853 -450.63438 
L 278.456207 -451.219229 
L 277.68056 -451.796297 
L 276.904914 -452.365592 
L 276.129268 -452.927126 
L 275.353621 -453.480914 
L 274.577975 -454.02697 
L 273.802329 -454.565311 
L 273.026682 -455.095958 
L 272.251036 -455.618931 
L 271.475389 -456.134254 
L 270.699743 -456.641952 
L 269.924097 -457.14205 
L 269.14845 -457.634579 
L 268.372804 -458.119569 
L 267.597158 -458.597051 
L 266.821511 -459.06706 
L 266.045865 -459.529631 
L 265.270218 -459.984803 
L 264.494572 -460.432613 
L 263.718926 -460.873102 
L 262.943279 -461.306314 
L 262.167633 -461.732291 
L 261.391987 -462.151079 
L 260.61634 -462.562725 
L 259.840694 -462.967277 
L 259.065047 -463.364785 
L 258.289401 -463.7553 
L 257.513755 -464.138874 
L 256.738108 -464.515562 
L 255.962462 -464.885419 
L 255.186816 -465.248501 
L 254.411169 -465.604864 
L 253.635523 -465.954569 
L 252.859876 -466.297675 
L 252.08423 -466.634243 
L 251.308584 -466.964335 
L 250.532937 -467.288014 
L 249.757291 -467.605344 
L 248.981645 -467.91639 
L 248.205998 -468.221217 
L 247.430352 -468.519892 
L 246.654705 -468.812483 
L 245.879059 -469.099058 
L 245.103413 -469.379686 
L 244.327766 -469.654436 
L 243.55212 -469.923378 
L 242.776474 -470.186584 
L 242.000827 -470.444124 
L 241.225181 -470.696071 
L 240.449535 -470.942497 
L 239.673888 -471.183474 
L 238.898242 -471.419077 
L 238.122595 -471.649377 
L 237.346949 -471.87445 
L 236.571303 -472.094368 
L 235.795656 -472.309208 
L 235.02001 -472.519042 
L 234.244364 -472.723945 
L 233.468717 -472.923993 
L 232.693071 -473.11926 
L 231.917424 -473.309821 
L 231.141778 -473.495751 
L 230.366132 -473.677124 
L 229.590485 -473.854015 
L 228.814839 -474.0265 
L 228.039193 -474.194651 
L 227.263546 -474.358545 
L 226.4879 -474.518254 
L 225.712253 -474.673852 
L 224.936607 -474.825413 
L 224.160961 -474.973011 
L 223.385314 -475.116718 
L 222.609668 -475.256607 
L 221.834022 -475.392749 
L 221.058375 -475.525217 
L 220.282729 -475.654082 
L 219.507082 -475.779415 
L 218.731436 -475.901285 
L 217.95579 -476.019763 
L 217.180143 -476.134918 
L 216.404497 -476.246818 
L 215.628851 -476.355531 
L 214.853204 -476.461125 
L 214.077558 -476.563667 
L 213.301911 -476.663222 
L 212.526265 -476.759856 
L 211.750619 -476.853634 
L 210.974972 -476.94462 
L 210.199326 -477.032877 
L 209.42368 -477.118467 
L 208.648033 -477.201452 
L 207.872387 -477.281894 
L 207.096741 -477.359852 
L 206.321094 -477.435386 
L 205.545448 -477.508555 
L 204.769801 -477.579416 
L 203.994155 -477.648026 
L 203.218509 -477.714441 
L 202.442862 -477.778717 
L 201.667216 -477.840908 
L 200.89157 -477.901067 
L 200.115923 -477.959248 
L 199.340277 -478.015501 
L 198.56463 -478.069879 
L 197.788984 -478.122431 
L 197.013338 -478.173206 
L 196.237691 -478.222253 
L 195.462045 -478.269619 
L 194.686399 -478.315351 
L 193.910752 -478.359494 
L 193.135106 -478.402094 
L 192.359459 -478.443193 
L 191.583813 -478.482836 
L 190.808167 -478.521064 
L 190.03252 -478.557919 
L 189.256874 -478.593442 
L 188.481228 -478.627671 
L 187.705581 -478.660646 
L 186.929935 -478.692404 
L 186.154288 -478.722983 
L 185.378642 -478.752419 
L 184.602996 -478.780747 
L 183.827349 -478.808001 
L 183.051703 -478.834217 
L 182.276057 -478.859426 
L 181.50041 -478.88366 
L 180.724764 -478.906952 
L 179.949117 -478.929331 
L 179.173471 -478.950828 
L 178.397825 -478.971471 
L 177.622178 -478.99129 
L 176.846532 -479.01031 
L 176.070886 -479.02856 
L 175.295239 -479.046065 
L 174.519593 -479.062851 
L 173.743947 -479.078942 
L 172.9683 -479.094362 
L 172.192654 -479.109136 
L 171.417007 -479.123284 
L 170.641361 -479.13683 
L 169.865715 -479.149795 
L 169.090068 -479.162199 
L 168.314422 -479.174062 
L 167.538776 -479.185405 
L 166.763129 -479.196245 
L 165.987483 -479.206601 
L 165.211836 -479.21649 
L 164.43619 -479.225931 
L 163.660544 -479.234938 
L 162.884897 -479.243529 
L 162.109251 -479.251718 
L 161.333605 -479.259521 
L 160.557958 -479.266951 
L 159.782312 -479.274023 
L 159.006665 -479.28075 
L 158.231019 -479.287143 
L 157.455373 -479.293217 
L 156.679726 -479.298982 
L 155.90408 -479.304449 
L 155.128434 -479.309629 
L 154.352787 -479.314533 
L 153.577141 -479.319169 
L 152.801494 -479.323547 
L 152.025848 -479.327675 
L 151.250202 -479.331562 
L 150.474555 -479.335214 
L 149.698909 -479.338638 
L 148.923263 -479.34184 
L 148.147616 -479.344827 
L 147.37197 -479.347601 
L 146.596323 -479.350167 
L 145.820677 -479.352529 
L 145.045031 -479.354687 
L 144.269384 -479.356642 
L 143.493738 -479.358394 
L 142.718092 -479.359941 
L 141.942445 -479.361278 
L 141.166799 -479.362401 
L 140.391153 -479.363299 
L 139.615506 -479.363963 
L 138.83986 -479.364376 
L 138.064213 -479.364519 
L 137.288567 -479.364366 
L 136.512921 -479.364136 
L 135.737274 -479.364475 
L 134.961628 -479.364473 
L 134.185982 -479.364088 
L 133.410335 -479.364304 
L 132.634689 -479.364519 
L 131.859042 -479.364282 
L 131.083396 -479.363916 
L 130.30775 -479.364448 
L 129.532103 -479.364444 
L 128.756457 -479.363794 
L 127.980811 -479.364151 
L 127.205164 -479.364519 
L 126.429518 -479.364085 
L 125.653871 -479.362601 
L 124.878225 -479.359682 
L 124.102579 -479.354697 
L 123.326932 -479.346568 
L 122.551286 -479.333327 
L 121.77564 -479.311105 
L 120.999993 -479.271538 
L 120.224347 -479.194192 
L 119.4487 -479.020353 
L 118.673054 -478.538634 
L 117.897408 -476.684687 
L 117.121761 -464.06096 
z
" style="stroke: #ffa500; stroke-opacity: 0.3"/>
    </defs>
    <g clip-path="url(#p50ba39897c)">
     <use xlink:href="#m3c754e4a00" x="0" y="540.100875" style="fill: #ffa500; fill-opacity: 0.3; stroke: #ffa500; stroke-opacity: 0.3"/>
    </g>
   </g>
   <g id="PolyCollection_2">
    <defs>
     <path id="m23b72ef096" d="M 117.121761 -243.139727 
L 117.121761 -194.319096 
L 117.897408 -225.081003 
L 118.673054 -250.072215 
L 119.4487 -270.601344 
L 120.224347 -287.628632 
L 120.999993 -301.870499 
L 121.77564 -313.869511 
L 122.551286 -324.042169 
L 123.326932 -332.712163 
L 124.102579 -340.133908 
L 124.878225 -346.509436 
L 125.653871 -352.000723 
L 126.429518 -356.73877 
L 127.205164 -360.830396 
L 127.980811 -364.363357 
L 128.756457 -367.410267 
L 129.532103 -370.031597 
L 130.30775 -372.278026 
L 131.083396 -374.192272 
L 131.859042 -375.383764 
L 132.634689 -373.660029 
L 133.410335 -371.784115 
L 134.185982 -369.77417 
L 134.961628 -367.645985 
L 135.737274 -365.413417 
L 136.512921 -363.088726 
L 137.288567 -360.682829 
L 138.064213 -358.205518 
L 138.83986 -355.665615 
L 139.615506 -353.071115 
L 140.391153 -350.429289 
L 141.166799 -347.746778 
L 141.942445 -345.029664 
L 142.718092 -342.283536 
L 143.493738 -339.513538 
L 144.269384 -336.724419 
L 145.045031 -333.920566 
L 145.820677 -331.106041 
L 146.596323 -328.284606 
L 147.37197 -325.459754 
L 148.147616 -322.634723 
L 148.923263 -319.812521 
L 149.698909 -316.995944 
L 150.474555 -314.187588 
L 151.250202 -311.389863 
L 152.025848 -308.605011 
L 152.801494 -305.835111 
L 153.577141 -303.082091 
L 154.352787 -300.347741 
L 155.128434 -297.633717 
L 155.90408 -294.941551 
L 156.679726 -292.272658 
L 157.455373 -289.628342 
L 158.231019 -287.009805 
L 159.006665 -284.418149 
L 159.782312 -281.854381 
L 160.557958 -279.319425 
L 161.333605 -276.814115 
L 162.109251 -274.339212 
L 162.884897 -271.895399 
L 163.660544 -269.483286 
L 164.43619 -267.10342 
L 165.211836 -264.75628 
L 165.987483 -262.442286 
L 166.763129 -260.161799 
L 167.538776 -257.915128 
L 168.314422 -255.702527 
L 169.090068 -253.524202 
L 169.865715 -251.380313 
L 170.641361 -249.270975 
L 171.417007 -247.196261 
L 172.192654 -245.156204 
L 172.9683 -243.150802 
L 173.743947 -241.180015 
L 174.519593 -239.243771 
L 175.295239 -237.341967 
L 176.070886 -235.474469 
L 176.846532 -233.641118 
L 177.622178 -231.841726 
L 178.397825 -230.076083 
L 179.173471 -228.343955 
L 179.949117 -226.645087 
L 180.724764 -224.979206 
L 181.50041 -223.346018 
L 182.276057 -221.745214 
L 183.051703 -220.176469 
L 183.827349 -218.639443 
L 184.602996 -217.133784 
L 185.378642 -215.659127 
L 186.154288 -214.215097 
L 186.929935 -212.801308 
L 187.705581 -211.417366 
L 188.481228 -210.062868 
L 189.256874 -208.737406 
L 190.03252 -207.440564 
L 190.808167 -206.171922 
L 191.583813 -204.931054 
L 192.359459 -203.717533 
L 193.135106 -202.530925 
L 193.910752 -201.370797 
L 194.686399 -200.236713 
L 195.462045 -199.128235 
L 196.237691 -198.044926 
L 197.013338 -196.986347 
L 197.788984 -195.952063 
L 198.56463 -194.941635 
L 199.340277 -193.954629 
L 200.115923 -192.990612 
L 200.89157 -192.049153 
L 201.667216 -191.129822 
L 202.442862 -190.232194 
L 203.218509 -189.355846 
L 203.994155 -188.500359 
L 204.769801 -187.665317 
L 205.545448 -186.850309 
L 206.321094 -186.054928 
L 207.096741 -185.278769 
L 207.872387 -184.521435 
L 208.648033 -183.782533 
L 209.42368 -183.061672 
L 210.199326 -182.358469 
L 210.974972 -181.672546 
L 211.750619 -181.003529 
L 212.526265 -180.351049 
L 213.301911 -179.714744 
L 214.077558 -179.094257 
L 214.853204 -178.489237 
L 215.628851 -177.899336 
L 216.404497 -177.324215 
L 217.180143 -176.763538 
L 217.95579 -176.216977 
L 218.731436 -175.684208 
L 219.507082 -175.164914 
L 220.282729 -174.658783 
L 221.058375 -174.165507 
L 221.834022 -173.684787 
L 222.609668 -173.216328 
L 223.385314 -172.75984 
L 224.160961 -172.315039 
L 224.936607 -171.881647 
L 225.712253 -171.459391 
L 226.4879 -171.048004 
L 227.263546 -170.647225 
L 228.039193 -170.256795 
L 228.814839 -169.876466 
L 229.590485 -169.505989 
L 230.366132 -169.145125 
L 231.141778 -168.793637 
L 231.917424 -168.451295 
L 232.693071 -168.117874 
L 233.468717 -167.793153 
L 234.244364 -167.476914 
L 235.02001 -167.168949 
L 235.795656 -166.869049 
L 236.571303 -166.577013 
L 237.346949 -166.292644 
L 238.122595 -166.015749 
L 238.898242 -165.746139 
L 239.673888 -165.483631 
L 240.449535 -165.228044 
L 241.225181 -164.979203 
L 242.000827 -164.736936 
L 242.776474 -164.501076 
L 243.55212 -164.271459 
L 244.327766 -164.047925 
L 245.103413 -163.830318 
L 245.879059 -163.618486 
L 246.654705 -163.41228 
L 247.430352 -163.211555 
L 248.205998 -163.016171 
L 248.981645 -162.825988 
L 249.757291 -162.640871 
L 250.532937 -162.460691 
L 251.308584 -162.285317 
L 252.08423 -162.114626 
L 252.859876 -161.948495 
L 253.635523 -161.786805 
L 254.411169 -161.62944 
L 255.186816 -161.476287 
L 255.962462 -161.327236 
L 256.738108 -161.182179 
L 257.513755 -161.041011 
L 258.289401 -160.903631 
L 259.065047 -160.769937 
L 259.840694 -160.639834 
L 260.61634 -160.513226 
L 261.391987 -160.390022 
L 262.167633 -160.270131 
L 262.943279 -160.153466 
L 263.718926 -160.039941 
L 264.494572 -159.929473 
L 265.270218 -159.821982 
L 266.045865 -159.717387 
L 266.821511 -159.615613 
L 267.597158 -159.516584 
L 268.372804 -159.420226 
L 269.14845 -159.32647 
L 269.924097 -159.235246 
L 270.699743 -159.146485 
L 271.475389 -159.060123 
L 272.251036 -158.976095 
L 273.026682 -158.89434 
L 273.802329 -158.814795 
L 274.577975 -158.737403 
L 275.353621 -158.662105 
L 276.129268 -158.588845 
L 276.904914 -158.517569 
L 277.68056 -158.448224 
L 278.456207 -158.380757 
L 279.231853 -158.315119 
L 280.007499 -158.25126 
L 280.783146 -158.189132 
L 281.558792 -158.128689 
L 282.334439 -158.069885 
L 283.110085 -158.012677 
L 283.885731 -157.957022 
L 284.661378 -157.902877 
L 285.437024 -157.850202 
L 286.21267 -157.798957 
L 286.988317 -157.749104 
L 287.763963 -157.700605 
L 288.53961 -157.653424 
L 289.315256 -157.607525 
L 290.090902 -157.562874 
L 290.866549 -157.519436 
L 291.642195 -157.477179 
L 292.417841 -157.436071 
L 293.193488 -157.396081 
L 293.969134 -157.357179 
L 294.744781 -157.319335 
L 295.520427 -157.282521 
L 296.296073 -157.246708 
L 297.07172 -157.211871 
L 297.847366 -157.177981 
L 298.623012 -157.145014 
L 299.398659 -157.112944 
L 300.174305 -157.081748 
L 300.949952 -157.051401 
L 301.725598 -157.021881 
L 302.501244 -156.993165 
L 303.276891 -156.965231 
L 304.052537 -156.938058 
L 304.828183 -156.911625 
L 305.60383 -156.885913 
L 306.379476 -156.860902 
L 307.155122 -156.836572 
L 307.930769 -156.812905 
L 308.706415 -156.789883 
L 309.482062 -156.767489 
L 310.257708 -156.745706 
L 311.033354 -156.724516 
L 311.809001 -156.703905 
L 312.584647 -156.683855 
L 313.360293 -156.664352 
L 314.13594 -156.645381 
L 314.911586 -156.626928 
L 315.687233 -156.608978 
L 316.462879 -156.591517 
L 317.238525 -156.574533 
L 318.014172 -156.558013 
L 318.789818 -156.541943 
L 319.565464 -156.526311 
L 320.341111 -156.511107 
L 321.116757 -156.496317 
L 321.892404 -156.481931 
L 322.66805 -156.467937 
L 323.443696 -156.454325 
L 324.219343 -156.441085 
L 324.994989 -156.428206 
L 325.770635 -156.415679 
L 326.546282 -156.403494 
L 327.321928 -156.391642 
L 328.097575 -156.380113 
L 328.873221 -156.368899 
L 329.648867 -156.357991 
L 330.424514 -156.347381 
L 331.20016 -156.33706 
L 331.975806 -156.327022 
L 332.751453 -156.317258 
L 333.527099 -156.30776 
L 334.302746 -156.298521 
L 335.078392 -156.289535 
L 335.854038 -156.280795 
L 336.629685 -156.272293 
L 337.405331 -156.264023 
L 338.180977 -156.25598 
L 338.956624 -156.248156 
L 339.73227 -156.240545 
L 340.507916 -156.233143 
L 341.283563 -156.225943 
L 342.059209 -156.218939 
L 342.834856 -156.212127 
L 343.610502 -156.205501 
L 344.386148 -156.199056 
L 345.161795 -156.192787 
L 345.937441 -156.18669 
L 346.713087 -156.180759 
L 347.488734 -156.17499 
L 348.26438 -156.169378 
L 349.040027 -156.16392 
L 349.815673 -156.158611 
L 350.591319 -156.153448 
L 351.366966 -156.148425 
L 352.142612 -156.14354 
L 352.918258 -156.138788 
L 353.693905 -156.134166 
L 354.469551 -156.12967 
L 355.245198 -156.125297 
L 356.020844 -156.121044 
L 356.79649 -156.116906 
L 357.572137 -156.112882 
L 358.347783 -156.108968 
L 359.123429 -156.105161 
L 359.899076 -156.101458 
L 360.674722 -156.097856 
L 361.450369 -156.094353 
L 362.226015 -156.090945 
L 363.001661 -156.087631 
L 363.777308 -156.084407 
L 364.552954 -156.081271 
L 365.3286 -156.078221 
L 366.104247 -156.075254 
L 366.879893 -156.072369 
L 367.65554 -156.069562 
L 368.431186 -156.066832 
L 369.206832 -156.064176 
L 369.982479 -156.061594 
L 370.758125 -156.059081 
L 371.533771 -156.056638 
L 372.309418 -156.054261 
L 373.085064 -156.051949 
L 373.86071 -156.049701 
L 374.636357 -156.047514 
L 375.412003 -156.045386 
L 376.18765 -156.043317 
L 376.963296 -156.041305 
L 377.738942 -156.039347 
L 378.514589 -156.037443 
L 379.290235 -156.035591 
L 380.065881 -156.03379 
L 380.841528 -156.032038 
L 381.617174 -156.030333 
L 382.392821 -156.028676 
L 383.168467 -156.027063 
L 383.944113 -156.025495 
L 384.71976 -156.02397 
L 385.495406 -156.022486 
L 386.271052 -156.021043 
L 387.046699 -156.019639 
L 387.822345 -156.018274 
L 388.597992 -156.016946 
L 389.373638 -156.015655 
L 390.149284 -156.014398 
L 390.924931 -156.013176 
L 391.700577 -156.011988 
L 392.476223 -156.010832 
L 393.25187 -156.009707 
L 394.027516 -156.008614 
L 394.803163 -156.00755 
L 395.578809 -156.006515 
L 396.354455 -156.005509 
L 397.130102 -156.00453 
L 397.905748 -156.003578 
L 398.681394 -156.002651 
L 399.457041 -156.001751 
L 400.232687 -156.000874 
L 401.008334 -156.000022 
L 401.78398 -155.999193 
L 402.559626 -155.998387 
L 403.335273 -155.997603 
L 404.110919 -155.99684 
L 404.886565 -155.996098 
L 405.662212 -155.995377 
L 406.437858 -155.994675 
L 407.213504 -155.993992 
L 407.989151 -155.993328 
L 408.764797 -155.992682 
L 409.540444 -155.992054 
L 410.31609 -155.991443 
L 411.091736 -155.990849 
L 411.867383 -155.990271 
L 412.643029 -155.989708 
L 413.418675 -155.989161 
L 414.194322 -155.988629 
L 414.969968 -155.988112 
L 415.745615 -155.987609 
L 416.521261 -155.987119 
L 417.296907 -155.986643 
L 418.072554 -155.98618 
L 418.8482 -155.98573 
L 419.623846 -155.985292 
L 420.399493 -155.984865 
L 421.175139 -155.984451 
L 421.950786 -155.984048 
L 422.726432 -155.983656 
L 423.502078 -155.983274 
L 424.277725 -155.982903 
L 425.053371 -155.982543 
L 425.829017 -155.982192 
L 426.604664 -155.98185 
L 427.38031 -155.981518 
L 428.155957 -155.981195 
L 428.931603 -155.980881 
L 429.707249 -155.980576 
L 430.482896 -155.980278 
L 431.258542 -155.979989 
L 432.034188 -155.979708 
L 432.809835 -155.979435 
L 433.585481 -155.979169 
L 434.361128 -155.97891 
L 435.136774 -155.978658 
L 435.91242 -155.978414 
L 436.688067 -155.978176 
L 437.463713 -155.977944 
L 438.239359 -155.977719 
L 439.015006 -155.9775 
L 439.790652 -155.977287 
L 440.566298 -155.977079 
L 441.341945 -155.976878 
L 442.117591 -155.976682 
L 442.893238 -155.976491 
L 443.668884 -155.976306 
L 444.44453 -155.976125 
L 445.220177 -155.97595 
L 445.995823 -155.975779 
L 446.771469 -155.975613 
L 447.547116 -155.975452 
L 448.322762 -155.975294 
L 449.098409 -155.975142 
L 449.874055 -155.974993 
L 450.649701 -155.974849 
L 451.425348 -155.974708 
L 452.200994 -155.974571 
L 452.97664 -155.974438 
L 453.752287 -155.974309 
L 454.527933 -155.974183 
L 455.30358 -155.974061 
L 456.079226 -155.973942 
L 456.854872 -155.973826 
L 457.630519 -155.973713 
L 458.406165 -155.973604 
L 459.181811 -155.973497 
L 459.957458 -155.973394 
L 460.733104 -155.973293 
L 461.508751 -155.973195 
L 462.284397 -155.973099 
L 463.060043 -155.973007 
L 463.83569 -155.972916 
L 464.611336 -155.972829 
L 465.386982 -155.972743 
L 466.162629 -155.97266 
L 466.938275 -155.97258 
L 467.713921 -155.972501 
L 468.489568 -155.972425 
L 469.265214 -155.97235 
L 470.040861 -155.972278 
L 470.816507 -155.972208 
L 471.592153 -155.97214 
L 472.3678 -155.972073 
L 473.143446 -155.972008 
L 473.919092 -155.971945 
L 474.694739 -155.971884 
L 475.470385 -155.971825 
L 476.246032 -155.971767 
L 477.021678 -155.971711 
L 477.797324 -155.971656 
L 478.572971 -155.971602 
L 479.348617 -155.971551 
L 480.124263 -155.9715 
L 480.89991 -155.971451 
L 481.675556 -155.971404 
L 482.451203 -155.971357 
L 483.226849 -155.971312 
L 484.002495 -155.971268 
L 484.778142 -155.971226 
L 485.553788 -155.971184 
L 486.329434 -155.971144 
L 487.105081 -155.971104 
L 487.880727 -155.971066 
L 488.656374 -155.971029 
L 489.43202 -155.970993 
L 490.207666 -155.970958 
L 490.983313 -155.970924 
L 491.758959 -155.97089 
L 492.534605 -155.970858 
L 493.310252 -155.970827 
L 494.085898 -155.970796 
L 494.861545 -155.970766 
L 495.637191 -155.970737 
L 496.412837 -155.970709 
L 497.188484 -155.970682 
L 497.96413 -155.970655 
L 498.739776 -155.970629 
L 499.515423 -155.970604 
L 500.291069 -155.97058 
L 501.066715 -155.970556 
L 501.842362 -155.970532 
L 502.618008 -155.97051 
L 503.393655 -155.970488 
L 504.169301 -155.970467 
L 504.944947 -155.970446 
L 505.720594 -155.970426 
L 506.49624 -155.970406 
L 507.271886 -155.970387 
L 508.047533 -155.970368 
L 508.823179 -155.97035 
L 509.598826 -155.970333 
L 510.374472 -155.970316 
L 511.150118 -155.970299 
L 511.925765 -155.970283 
L 512.701411 -155.970267 
L 513.477057 -155.970252 
L 514.252704 -155.970237 
L 515.02835 -155.970223 
L 515.803997 -155.970208 
L 516.579643 -155.970195 
L 517.355289 -155.970181 
L 518.130936 -155.970168 
L 518.906582 -155.970156 
L 519.682228 -155.970144 
L 520.457875 -155.970132 
L 521.233521 -155.97012 
L 522.009168 -155.970109 
L 522.784814 -155.970098 
L 523.56046 -155.970087 
L 524.336107 -155.970077 
L 525.111753 -155.970067 
L 525.887399 -155.970057 
L 526.663046 -155.970047 
L 527.438692 -155.970038 
L 528.214339 -155.970029 
L 528.989985 -155.97002 
L 529.765631 -155.970012 
L 530.541278 -155.970003 
L 531.316924 -155.969995 
L 532.09257 -155.969987 
L 532.868217 -155.96998 
L 533.643863 -155.969972 
L 534.419509 -155.969965 
L 535.195156 -155.969958 
L 535.970802 -155.969951 
L 536.746449 -155.969945 
L 537.522095 -155.969938 
L 538.297741 -155.969932 
L 539.073388 -155.969926 
L 539.849034 -155.96992 
L 540.62468 -155.969914 
L 541.400327 -155.969908 
L 542.175973 -155.969903 
L 542.95162 -155.969897 
L 543.727266 -155.969892 
L 544.502912 -155.969887 
L 545.278559 -155.969882 
L 546.054205 -155.969878 
L 546.829851 -155.969873 
L 547.605498 -155.969868 
L 548.381144 -155.969864 
L 549.156791 -155.96986 
L 549.932437 -155.969856 
L 550.708083 -155.969852 
L 551.48373 -155.969848 
L 552.259376 -155.969844 
L 553.035022 -155.96984 
L 553.810669 -155.969836 
L 554.586315 -155.969833 
L 555.361962 -155.969829 
L 556.137608 -155.969826 
L 556.913254 -155.969823 
L 557.688901 -155.96982 
L 558.464547 -155.969817 
L 559.240193 -155.969814 
L 560.01584 -155.969811 
L 560.791486 -155.969808 
L 561.567133 -155.969805 
L 562.342779 -155.969803 
L 563.118425 -155.9698 
L 563.894072 -155.969797 
L 564.669718 -155.969795 
L 565.445364 -155.969793 
L 566.221011 -155.96979 
L 566.996657 -155.969788 
L 567.772303 -155.969786 
L 568.54795 -155.969784 
L 569.323596 -155.969782 
L 570.099243 -155.96978 
L 570.874889 -155.969778 
L 571.650535 -155.969776 
L 572.426182 -155.969774 
L 573.201828 -155.969772 
L 573.977474 -155.96977 
L 574.753121 -155.969769 
L 575.528767 -155.969767 
L 576.304414 -155.969765 
L 577.08006 -155.969764 
L 577.855706 -155.969762 
L 578.631353 -155.969761 
L 579.406999 -155.969759 
L 580.182645 -155.969758 
L 580.958292 -155.969757 
L 581.733938 -155.969755 
L 582.509585 -155.969754 
L 583.285231 -155.969753 
L 584.060877 -155.969751 
L 584.836524 -155.96975 
L 585.61217 -155.969749 
L 586.387816 -155.969748 
L 587.163463 -155.969747 
L 587.939109 -155.969746 
L 588.714756 -155.969745 
L 589.490402 -155.969744 
L 590.266048 -155.969743 
L 591.041695 -155.969742 
L 591.817341 -155.969741 
L 592.592987 -155.96974 
L 593.368634 -155.969739 
L 594.14428 -155.969738 
L 594.919927 -155.969737 
L 595.695573 -155.969737 
L 596.471219 -155.969736 
L 597.246866 -155.969735 
L 598.022512 -155.969734 
L 598.798158 -155.969734 
L 599.573805 -155.969733 
L 600.349451 -155.969732 
L 601.125097 -155.969731 
L 601.900744 -155.969731 
L 602.67639 -155.96973 
L 603.452037 -155.96973 
L 604.227683 -155.969729 
L 605.003329 -155.969728 
L 605.778976 -155.969728 
L 606.554622 -155.969727 
L 607.330268 -155.969727 
L 608.105915 -155.969726 
L 608.881561 -155.969726 
L 609.657208 -155.969725 
L 610.432854 -155.969725 
L 611.2085 -155.969724 
L 611.984147 -155.969724 
L 612.759793 -155.969723 
L 613.535439 -155.969723 
L 614.311086 -155.969723 
L 615.086732 -155.969722 
L 615.862379 -155.969722 
L 616.638025 -155.969721 
L 617.413671 -155.969721 
L 618.189318 -155.969721 
L 618.964964 -155.96972 
L 619.74061 -155.96972 
L 620.516257 -155.96972 
L 621.291903 -155.969719 
L 622.06755 -155.969719 
L 622.843196 -155.969719 
L 623.618842 -155.969718 
L 624.394489 -155.969718 
L 624.394489 -156.877977 
L 624.394489 -156.877977 
L 623.618842 -156.887132 
L 622.843196 -156.896378 
L 622.06755 -156.905717 
L 621.291903 -156.915151 
L 620.516257 -156.924679 
L 619.74061 -156.934303 
L 618.964964 -156.944024 
L 618.189318 -156.953843 
L 617.413671 -156.96376 
L 616.638025 -156.973777 
L 615.862379 -156.983895 
L 615.086732 -156.994115 
L 614.311086 -157.004437 
L 613.535439 -157.014864 
L 612.759793 -157.025395 
L 611.984147 -157.036032 
L 611.2085 -157.046776 
L 610.432854 -157.057628 
L 609.657208 -157.068589 
L 608.881561 -157.07966 
L 608.105915 -157.090843 
L 607.330268 -157.102138 
L 606.554622 -157.113547 
L 605.778976 -157.12507 
L 605.003329 -157.136709 
L 604.227683 -157.148465 
L 603.452037 -157.16034 
L 602.67639 -157.172333 
L 601.900744 -157.184447 
L 601.125097 -157.196683 
L 600.349451 -157.209042 
L 599.573805 -157.221525 
L 598.798158 -157.234134 
L 598.022512 -157.246869 
L 597.246866 -157.259732 
L 596.471219 -157.272724 
L 595.695573 -157.285847 
L 594.919927 -157.299102 
L 594.14428 -157.31249 
L 593.368634 -157.326012 
L 592.592987 -157.33967 
L 591.817341 -157.353466 
L 591.041695 -157.3674 
L 590.266048 -157.381474 
L 589.490402 -157.395689 
L 588.714756 -157.410047 
L 587.939109 -157.424549 
L 587.163463 -157.439197 
L 586.387816 -157.453991 
L 585.61217 -157.468935 
L 584.836524 -157.484028 
L 584.060877 -157.499273 
L 583.285231 -157.514671 
L 582.509585 -157.530223 
L 581.733938 -157.545931 
L 580.958292 -157.561798 
L 580.182645 -157.577823 
L 579.406999 -157.594009 
L 578.631353 -157.610358 
L 577.855706 -157.62687 
L 577.08006 -157.643549 
L 576.304414 -157.660394 
L 575.528767 -157.677409 
L 574.753121 -157.694594 
L 573.977474 -157.711952 
L 573.201828 -157.729483 
L 572.426182 -157.747191 
L 571.650535 -157.765076 
L 570.874889 -157.78314 
L 570.099243 -157.801386 
L 569.323596 -157.819814 
L 568.54795 -157.838428 
L 567.772303 -157.857227 
L 566.996657 -157.876216 
L 566.221011 -157.895394 
L 565.445364 -157.914765 
L 564.669718 -157.93433 
L 563.894072 -157.954091 
L 563.118425 -157.97405 
L 562.342779 -157.994209 
L 561.567133 -158.01457 
L 560.791486 -158.035135 
L 560.01584 -158.055906 
L 559.240193 -158.076885 
L 558.464547 -158.098074 
L 557.688901 -158.119475 
L 556.913254 -158.141091 
L 556.137608 -158.162923 
L 555.361962 -158.184974 
L 554.586315 -158.207245 
L 553.810669 -158.229739 
L 553.035022 -158.252459 
L 552.259376 -158.275406 
L 551.48373 -158.298582 
L 550.708083 -158.321991 
L 549.932437 -158.345633 
L 549.156791 -158.369513 
L 548.381144 -158.393631 
L 547.605498 -158.41799 
L 546.829851 -158.442593 
L 546.054205 -158.467442 
L 545.278559 -158.49254 
L 544.502912 -158.517889 
L 543.727266 -158.543491 
L 542.95162 -158.569349 
L 542.175973 -158.595465 
L 541.400327 -158.621843 
L 540.62468 -158.648484 
L 539.849034 -158.675391 
L 539.073388 -158.702567 
L 538.297741 -158.730015 
L 537.522095 -158.757737 
L 536.746449 -158.785736 
L 535.970802 -158.814015 
L 535.195156 -158.842576 
L 534.419509 -158.871422 
L 533.643863 -158.900556 
L 532.868217 -158.929981 
L 532.09257 -158.9597 
L 531.316924 -158.989715 
L 530.541278 -159.02003 
L 529.765631 -159.050648 
L 528.989985 -159.081571 
L 528.214339 -159.112803 
L 527.438692 -159.144346 
L 526.663046 -159.176204 
L 525.887399 -159.208379 
L 525.111753 -159.240875 
L 524.336107 -159.273696 
L 523.56046 -159.306843 
L 522.784814 -159.340321 
L 522.009168 -159.374133 
L 521.233521 -159.408282 
L 520.457875 -159.44277 
L 519.682228 -159.477603 
L 518.906582 -159.512782 
L 518.130936 -159.548312 
L 517.355289 -159.584196 
L 516.579643 -159.620437 
L 515.803997 -159.657039 
L 515.02835 -159.694005 
L 514.252704 -159.731339 
L 513.477057 -159.769044 
L 512.701411 -159.807125 
L 511.925765 -159.845585 
L 511.150118 -159.884427 
L 510.374472 -159.923656 
L 509.598826 -159.963274 
L 508.823179 -160.003287 
L 508.047533 -160.043697 
L 507.271886 -160.084509 
L 506.49624 -160.125727 
L 505.720594 -160.167354 
L 504.944947 -160.209395 
L 504.169301 -160.251853 
L 503.393655 -160.294733 
L 502.618008 -160.338039 
L 501.842362 -160.381775 
L 501.066715 -160.425945 
L 500.291069 -160.470553 
L 499.515423 -160.515604 
L 498.739776 -160.561102 
L 497.96413 -160.607052 
L 497.188484 -160.653457 
L 496.412837 -160.700322 
L 495.637191 -160.747652 
L 494.861545 -160.795451 
L 494.085898 -160.843723 
L 493.310252 -160.892474 
L 492.534605 -160.941708 
L 491.758959 -160.99143 
L 490.983313 -161.041644 
L 490.207666 -161.092355 
L 489.43202 -161.143568 
L 488.656374 -161.195288 
L 487.880727 -161.24752 
L 487.105081 -161.300269 
L 486.329434 -161.353539 
L 485.553788 -161.407336 
L 484.778142 -161.461666 
L 484.002495 -161.516532 
L 483.226849 -161.57194 
L 482.451203 -161.627896 
L 481.675556 -161.684404 
L 480.89991 -161.741471 
L 480.124263 -161.799101 
L 479.348617 -161.8573 
L 478.572971 -161.916073 
L 477.797324 -161.975427 
L 477.021678 -162.035366 
L 476.246032 -162.095896 
L 475.470385 -162.157023 
L 474.694739 -162.218752 
L 473.919092 -162.28109 
L 473.143446 -162.344042 
L 472.3678 -162.407614 
L 471.592153 -162.471812 
L 470.816507 -162.536643 
L 470.040861 -162.602111 
L 469.265214 -162.668224 
L 468.489568 -162.734987 
L 467.713921 -162.802407 
L 466.938275 -162.87049 
L 466.162629 -162.939242 
L 465.386982 -163.008669 
L 464.611336 -163.078779 
L 463.83569 -163.149577 
L 463.060043 -163.221071 
L 462.284397 -163.293267 
L 461.508751 -163.366171 
L 460.733104 -163.43979 
L 459.957458 -163.514131 
L 459.181811 -163.589201 
L 458.406165 -163.665007 
L 457.630519 -163.741556 
L 456.854872 -163.818855 
L 456.079226 -163.896911 
L 455.30358 -163.975731 
L 454.527933 -164.055322 
L 453.752287 -164.135693 
L 452.97664 -164.216849 
L 452.200994 -164.298799 
L 451.425348 -164.38155 
L 450.649701 -164.465109 
L 449.874055 -164.549485 
L 449.098409 -164.634684 
L 448.322762 -164.720716 
L 447.547116 -164.807586 
L 446.771469 -164.895305 
L 445.995823 -164.983878 
L 445.220177 -165.073315 
L 444.44453 -165.163624 
L 443.668884 -165.254812 
L 442.893238 -165.346888 
L 442.117591 -165.43986 
L 441.341945 -165.533737 
L 440.566298 -165.628527 
L 439.790652 -165.724239 
L 439.015006 -165.820881 
L 438.239359 -165.918462 
L 437.463713 -166.01699 
L 436.688067 -166.116475 
L 435.91242 -166.216925 
L 435.136774 -166.31835 
L 434.361128 -166.420758 
L 433.585481 -166.524159 
L 432.809835 -166.628561 
L 432.034188 -166.733974 
L 431.258542 -166.840408 
L 430.482896 -166.947871 
L 429.707249 -167.056374 
L 428.931603 -167.165925 
L 428.155957 -167.276535 
L 427.38031 -167.388214 
L 426.604664 -167.50097 
L 425.829017 -167.614815 
L 425.053371 -167.729757 
L 424.277725 -167.845808 
L 423.502078 -167.962977 
L 422.726432 -168.081274 
L 421.950786 -168.20071 
L 421.175139 -168.321295 
L 420.399493 -168.44304 
L 419.623846 -168.565956 
L 418.8482 -168.690052 
L 418.072554 -168.81534 
L 417.296907 -168.94183 
L 416.521261 -169.069534 
L 415.745615 -169.198462 
L 414.969968 -169.328625 
L 414.194322 -169.460035 
L 413.418675 -169.592703 
L 412.643029 -169.72664 
L 411.867383 -169.861858 
L 411.091736 -169.998369 
L 410.31609 -170.136182 
L 409.540444 -170.275312 
L 408.764797 -170.415769 
L 407.989151 -170.557564 
L 407.213504 -170.700711 
L 406.437858 -170.845222 
L 405.662212 -170.991107 
L 404.886565 -171.138381 
L 404.110919 -171.287054 
L 403.335273 -171.43714 
L 402.559626 -171.58865 
L 401.78398 -171.741598 
L 401.008334 -171.895996 
L 400.232687 -172.051858 
L 399.457041 -172.209195 
L 398.681394 -172.368021 
L 397.905748 -172.52835 
L 397.130102 -172.690193 
L 396.354455 -172.853565 
L 395.578809 -173.018479 
L 394.803163 -173.184948 
L 394.027516 -173.352986 
L 393.25187 -173.522607 
L 392.476223 -173.693824 
L 391.700577 -173.866651 
L 390.924931 -174.041103 
L 390.149284 -174.217192 
L 389.373638 -174.394934 
L 388.597992 -174.574342 
L 387.822345 -174.755432 
L 387.046699 -174.938216 
L 386.271052 -175.122711 
L 385.495406 -175.30893 
L 384.71976 -175.496888 
L 383.944113 -175.686601 
L 383.168467 -175.878082 
L 382.392821 -176.071348 
L 381.617174 -176.266412 
L 380.841528 -176.463291 
L 380.065881 -176.662 
L 379.290235 -176.862554 
L 378.514589 -177.064968 
L 377.738942 -177.269259 
L 376.963296 -177.475441 
L 376.18765 -177.683532 
L 375.412003 -177.893546 
L 374.636357 -178.1055 
L 373.86071 -178.31941 
L 373.085064 -178.535291 
L 372.309418 -178.753161 
L 371.533771 -178.973036 
L 370.758125 -179.194932 
L 369.982479 -179.418866 
L 369.206832 -179.644854 
L 368.431186 -179.872913 
L 367.65554 -180.103061 
L 366.879893 -180.335313 
L 366.104247 -180.569688 
L 365.3286 -180.806203 
L 364.552954 -181.044873 
L 363.777308 -181.285718 
L 363.001661 -181.528754 
L 362.226015 -181.774 
L 361.450369 -182.021471 
L 360.674722 -182.271187 
L 359.899076 -182.523166 
L 359.123429 -182.777424 
L 358.347783 -183.03398 
L 357.572137 -183.292853 
L 356.79649 -183.554059 
L 356.020844 -183.817619 
L 355.245198 -184.083549 
L 354.469551 -184.351868 
L 353.693905 -184.622596 
L 352.918258 -184.895749 
L 352.142612 -185.171348 
L 351.366966 -185.449411 
L 350.591319 -185.729957 
L 349.815673 -186.013004 
L 349.040027 -186.298573 
L 348.26438 -186.586681 
L 347.488734 -186.877348 
L 346.713087 -187.170593 
L 345.937441 -187.466436 
L 345.161795 -187.764896 
L 344.386148 -188.065992 
L 343.610502 -188.369745 
L 342.834856 -188.676173 
L 342.059209 -188.985296 
L 341.283563 -189.297135 
L 340.507916 -189.611708 
L 339.73227 -189.929036 
L 338.956624 -190.249139 
L 338.180977 -190.572036 
L 337.405331 -190.897749 
L 336.629685 -191.226296 
L 335.854038 -191.557699 
L 335.078392 -191.891976 
L 334.302746 -192.22915 
L 333.527099 -192.569239 
L 332.751453 -192.912265 
L 331.975806 -193.258247 
L 331.20016 -193.607207 
L 330.424514 -193.959164 
L 329.648867 -194.31414 
L 328.873221 -194.672155 
L 328.097575 -195.033229 
L 327.321928 -195.397384 
L 326.546282 -195.764639 
L 325.770635 -196.135016 
L 324.994989 -196.508536 
L 324.219343 -196.885219 
L 323.443696 -197.265086 
L 322.66805 -197.648157 
L 321.892404 -198.034454 
L 321.116757 -198.423998 
L 320.341111 -198.816809 
L 319.565464 -199.212908 
L 318.789818 -199.612316 
L 318.014172 -200.015054 
L 317.238525 -200.421142 
L 316.462879 -200.830603 
L 315.687233 -201.243455 
L 314.911586 -201.659721 
L 314.13594 -202.079421 
L 313.360293 -202.502576 
L 312.584647 -202.929206 
L 311.809001 -203.359333 
L 311.033354 -203.792976 
L 310.257708 -204.230158 
L 309.482062 -204.670897 
L 308.706415 -205.115216 
L 307.930769 -205.563133 
L 307.155122 -206.014671 
L 306.379476 -206.469849 
L 305.60383 -206.928688 
L 304.828183 -207.391208 
L 304.052537 -207.857429 
L 303.276891 -208.327372 
L 302.501244 -208.801056 
L 301.725598 -209.278502 
L 300.949952 -209.759729 
L 300.174305 -210.244757 
L 299.398659 -210.733606 
L 298.623012 -211.226296 
L 297.847366 -211.722846 
L 297.07172 -212.223276 
L 296.296073 -212.727604 
L 295.520427 -213.23585 
L 294.744781 -213.748033 
L 293.969134 -214.264172 
L 293.193488 -214.784286 
L 292.417841 -215.308393 
L 291.642195 -215.836512 
L 290.866549 -216.36866 
L 290.090902 -216.904857 
L 289.315256 -217.44512 
L 288.53961 -217.989467 
L 287.763963 -218.537916 
L 286.988317 -219.090483 
L 286.21267 -219.647187 
L 285.437024 -220.208043 
L 284.661378 -220.77307 
L 283.885731 -221.342284 
L 283.110085 -221.9157 
L 282.334439 -222.493336 
L 281.558792 -223.075206 
L 280.783146 -223.661328 
L 280.007499 -224.251715 
L 279.231853 -224.846384 
L 278.456207 -225.445349 
L 277.68056 -226.048625 
L 276.904914 -226.656227 
L 276.129268 -227.268167 
L 275.353621 -227.884461 
L 274.577975 -228.505121 
L 273.802329 -229.130161 
L 273.026682 -229.759593 
L 272.251036 -230.393431 
L 271.475389 -231.031685 
L 270.699743 -231.674369 
L 269.924097 -232.321494 
L 269.14845 -232.97307 
L 268.372804 -233.629108 
L 267.597158 -234.28962 
L 266.821511 -234.954614 
L 266.045865 -235.624101 
L 265.270218 -236.298089 
L 264.494572 -236.976588 
L 263.718926 -237.659605 
L 262.943279 -238.34715 
L 262.167633 -239.039229 
L 261.391987 -239.735849 
L 260.61634 -240.437017 
L 259.840694 -241.14274 
L 259.065047 -241.853022 
L 258.289401 -242.567869 
L 257.513755 -243.287286 
L 256.738108 -244.011277 
L 255.962462 -244.739845 
L 255.186816 -245.472994 
L 254.411169 -246.210727 
L 253.635523 -246.953045 
L 252.859876 -247.69995 
L 252.08423 -248.451443 
L 251.308584 -249.207524 
L 250.532937 -249.968194 
L 249.757291 -250.733451 
L 248.981645 -251.503294 
L 248.205998 -252.277722 
L 247.430352 -253.056731 
L 246.654705 -253.840318 
L 245.879059 -254.62848 
L 245.103413 -255.421211 
L 244.327766 -256.218508 
L 243.55212 -257.020363 
L 242.776474 -257.826771 
L 242.000827 -258.637724 
L 241.225181 -259.453215 
L 240.449535 -260.273234 
L 239.673888 -261.097772 
L 238.898242 -261.926819 
L 238.122595 -262.760365 
L 237.346949 -263.598398 
L 236.571303 -264.440905 
L 235.795656 -265.287873 
L 235.02001 -266.139288 
L 234.244364 -266.995137 
L 233.468717 -267.855402 
L 232.693071 -268.720067 
L 231.917424 -269.589117 
L 231.141778 -270.462531 
L 230.366132 -271.340292 
L 229.590485 -272.22238 
L 228.814839 -273.108774 
L 228.039193 -273.999453 
L 227.263546 -274.894394 
L 226.4879 -275.793573 
L 225.712253 -276.696967 
L 224.936607 -277.60455 
L 224.160961 -278.516296 
L 223.385314 -279.432178 
L 222.609668 -280.352167 
L 221.834022 -281.276235 
L 221.058375 -282.204352 
L 220.282729 -283.136485 
L 219.507082 -284.072603 
L 218.731436 -285.012673 
L 217.95579 -285.956661 
L 217.180143 -286.90453 
L 216.404497 -287.856244 
L 215.628851 -288.811766 
L 214.853204 -289.771056 
L 214.077558 -290.734076 
L 213.301911 -291.700782 
L 212.526265 -292.671134 
L 211.750619 -293.645087 
L 210.974972 -294.622597 
L 210.199326 -295.603617 
L 209.42368 -296.588099 
L 208.648033 -297.575996 
L 207.872387 -298.567256 
L 207.096741 -299.561829 
L 206.321094 -300.55966 
L 205.545448 -301.560696 
L 204.769801 -302.564881 
L 203.994155 -303.572156 
L 203.218509 -304.582463 
L 202.442862 -305.59574 
L 201.667216 -306.611926 
L 200.89157 -307.630956 
L 200.115923 -308.652763 
L 199.340277 -309.67728 
L 198.56463 -310.704437 
L 197.788984 -311.734162 
L 197.013338 -312.76638 
L 196.237691 -313.801016 
L 195.462045 -314.837991 
L 194.686399 -315.877224 
L 193.910752 -316.918631 
L 193.135106 -317.962127 
L 192.359459 -319.007624 
L 191.583813 -320.055029 
L 190.808167 -321.104247 
L 190.03252 -322.155183 
L 189.256874 -323.207734 
L 188.481228 -324.261796 
L 187.705581 -325.317261 
L 186.929935 -326.374018 
L 186.154288 -327.43195 
L 185.378642 -328.490938 
L 184.602996 -329.550855 
L 183.827349 -330.611573 
L 183.051703 -331.672956 
L 182.276057 -332.734865 
L 181.50041 -333.797153 
L 180.724764 -334.859668 
L 179.949117 -335.922251 
L 179.173471 -336.984735 
L 178.397825 -338.046948 
L 177.622178 -339.108708 
L 176.846532 -340.169825 
L 176.070886 -341.230099 
L 175.295239 -342.289323 
L 174.519593 -343.347276 
L 173.743947 -344.403727 
L 172.9683 -345.458435 
L 172.192654 -346.511143 
L 171.417007 -347.561582 
L 170.641361 -348.609468 
L 169.865715 -349.654501 
L 169.090068 -350.696364 
L 168.314422 -351.73472 
L 167.538776 -352.769215 
L 166.763129 -353.799471 
L 165.987483 -354.825089 
L 165.211836 -355.845644 
L 164.43619 -356.860684 
L 163.660544 -357.86973 
L 162.884897 -358.872271 
L 162.109251 -359.86776 
L 161.333605 -360.855618 
L 160.557958 -361.835222 
L 159.782312 -362.80591 
L 159.006665 -363.766972 
L 158.231019 -364.717648 
L 157.455373 -365.657124 
L 156.679726 -366.584525 
L 155.90408 -367.498913 
L 155.128434 -368.399279 
L 154.352787 -369.284537 
L 153.577141 -370.153517 
L 152.801494 -371.004955 
L 152.025848 -371.83749 
L 151.250202 -372.649647 
L 150.474555 -373.439828 
L 149.698909 -374.206301 
L 148.923263 -374.947187 
L 148.147616 -375.66044 
L 147.37197 -376.34383 
L 146.596323 -376.994924 
L 145.820677 -377.611062 
L 145.045031 -378.189327 
L 144.269384 -378.72652 
L 143.493738 -379.219117 
L 142.718092 -379.663232 
L 141.942445 -380.05457 
L 141.166799 -380.388364 
L 140.391153 -380.65932 
L 139.615506 -380.861528 
L 138.83986 -380.988383 
L 138.064213 -381.032468 
L 137.288567 -380.985428 
L 136.512921 -380.914517 
L 135.737274 -381.01886 
L 134.961628 -381.018322 
L 134.185982 -380.899943 
L 133.410335 -380.966213 
L 132.634689 -381.032468 
L 131.859042 -380.959576 
L 131.083396 -380.847085 
L 130.30775 -381.010633 
L 129.532103 -381.009263 
L 128.756457 -380.809894 
L 127.980811 -380.919098 
L 127.205164 -381.032468 
L 126.429518 -380.89893 
L 125.653871 -380.448568 
L 124.878225 -379.588291 
L 124.102579 -378.192229 
L 123.326932 -376.086974 
L 122.551286 -373.02819 
L 121.77564 -368.662199 
L 120.999993 -362.460294 
L 120.224347 -353.601076 
L 119.4487 -340.747945 
L 118.673054 -321.600241 
L 117.897408 -291.913525 
L 117.121761 -243.139727 
z
" style="stroke: #1f77b4; stroke-opacity: 0.3"/>
    </defs>
    <g clip-path="url(#p50ba39897c)">
     <use xlink:href="#m23b72ef096" x="0" y="540.100875" style="fill: #1f77b4; fill-opacity: 0.3; stroke: #1f77b4; stroke-opacity: 0.3"/>
    </g>
   </g>
   <g id="matplotlib.axis_1">
    <g id="xtick_1">
     <g id="line2d_1">
      <defs>
       <path id="mcb8d69fb62" d="M 0 0 
L 0 3.5 
" style="stroke: #000000; stroke-width: 0.8"/>
      </defs>
      <g>
       <use xlink:href="#mcb8d69fb62" x="116.346115" y="416.476875" style="stroke: #000000; stroke-width: 0.8"/>
      </g>
     </g>
     <g id="text_1">
      <!-- 0 -->
      <g transform="translate(109.983615 438.67375)scale(0.2 -0.2)">
       <defs>
        <path id="DejaVuSans-30" d="M 2034 4250 
Q 1547 4250 1301 3770 
Q 1056 3291 1056 2328 
Q 1056 1369 1301 889 
Q 1547 409 2034 409 
Q 2525 409 2770 889 
Q 3016 1369 3016 2328 
Q 3016 3291 2770 3770 
Q 2525 4250 2034 4250 
z
M 2034 4750 
Q 2819 4750 3233 4129 
Q 3647 3509 3647 2328 
Q 3647 1150 3233 529 
Q 2819 -91 2034 -91 
Q 1250 -91 836 529 
Q 422 1150 422 2328 
Q 422 3509 836 4129 
Q 1250 4750 2034 4750 
z
" transform="scale(0.015625)"/>
       </defs>
       <use xlink:href="#DejaVuSans-30"/>
      </g>
     </g>
    </g>
    <g id="xtick_2">
     <g id="line2d_2">
      <g>
       <use xlink:href="#mcb8d69fb62" x="193.910752" y="416.476875" style="stroke: #000000; stroke-width: 0.8"/>
      </g>
     </g>
     <g id="text_2">
      <!-- 100 -->
      <g transform="translate(174.823252 438.67375)scale(0.2 -0.2)">
       <defs>
        <path id="DejaVuSans-31" d="M 794 531 
L 1825 531 
L 1825 4091 
L 703 3866 
L 703 4441 
L 1819 4666 
L 2450 4666 
L 2450 531 
L 3481 531 
L 3481 0 
L 794 0 
L 794 531 
z
" transform="scale(0.015625)"/>
       </defs>
       <use xlink:href="#DejaVuSans-31"/>
       <use xlink:href="#DejaVuSans-30" x="63.623047"/>
       <use xlink:href="#DejaVuSans-30" x="127.246094"/>
      </g>
     </g>
    </g>
    <g id="xtick_3">
     <g id="line2d_3">
      <g>
       <use xlink:href="#mcb8d69fb62" x="271.475389" y="416.476875" style="stroke: #000000; stroke-width: 0.8"/>
      </g>
     </g>
     <g id="text_3">
      <!-- 200 -->
      <g transform="translate(252.387889 438.67375)scale(0.2 -0.2)">
       <defs>
        <path id="DejaVuSans-32" d="M 1228 531 
L 3431 531 
L 3431 0 
L 469 0 
L 469 531 
Q 828 903 1448 1529 
Q 2069 2156 2228 2338 
Q 2531 2678 2651 2914 
Q 2772 3150 2772 3378 
Q 2772 3750 2511 3984 
Q 2250 4219 1831 4219 
Q 1534 4219 1204 4116 
Q 875 4013 500 3803 
L 500 4441 
Q 881 4594 1212 4672 
Q 1544 4750 1819 4750 
Q 2544 4750 2975 4387 
Q 3406 4025 3406 3419 
Q 3406 3131 3298 2873 
Q 3191 2616 2906 2266 
Q 2828 2175 2409 1742 
Q 1991 1309 1228 531 
z
" transform="scale(0.015625)"/>
       </defs>
       <use xlink:href="#DejaVuSans-32"/>
       <use xlink:href="#DejaVuSans-30" x="63.623047"/>
       <use xlink:href="#DejaVuSans-30" x="127.246094"/>
      </g>
     </g>
    </g>
    <g id="xtick_4">
     <g id="line2d_4">
      <g>
       <use xlink:href="#mcb8d69fb62" x="349.040027" y="416.476875" style="stroke: #000000; stroke-width: 0.8"/>
      </g>
     </g>
     <g id="text_4">
      <!-- 300 -->
      <g transform="translate(329.952527 438.67375)scale(0.2 -0.2)">
       <defs>
        <path id="DejaVuSans-33" d="M 2597 2516 
Q 3050 2419 3304 2112 
Q 3559 1806 3559 1356 
Q 3559 666 3084 287 
Q 2609 -91 1734 -91 
Q 1441 -91 1130 -33 
Q 819 25 488 141 
L 488 750 
Q 750 597 1062 519 
Q 1375 441 1716 441 
Q 2309 441 2620 675 
Q 2931 909 2931 1356 
Q 2931 1769 2642 2001 
Q 2353 2234 1838 2234 
L 1294 2234 
L 1294 2753 
L 1863 2753 
Q 2328 2753 2575 2939 
Q 2822 3125 2822 3475 
Q 2822 3834 2567 4026 
Q 2313 4219 1838 4219 
Q 1578 4219 1281 4162 
Q 984 4106 628 3988 
L 628 4550 
Q 988 4650 1302 4700 
Q 1616 4750 1894 4750 
Q 2613 4750 3031 4423 
Q 3450 4097 3450 3541 
Q 3450 3153 3228 2886 
Q 3006 2619 2597 2516 
z
" transform="scale(0.015625)"/>
       </defs>
       <use xlink:href="#DejaVuSans-33"/>
       <use xlink:href="#DejaVuSans-30" x="63.623047"/>
       <use xlink:href="#DejaVuSans-30" x="127.246094"/>
      </g>
     </g>
    </g>
    <g id="xtick_5">
     <g id="line2d_5">
      <g>
       <use xlink:href="#mcb8d69fb62" x="426.604664" y="416.476875" style="stroke: #000000; stroke-width: 0.8"/>
      </g>
     </g>
     <g id="text_5">
      <!-- 400 -->
      <g transform="translate(407.517164 438.67375)scale(0.2 -0.2)">
       <defs>
        <path id="DejaVuSans-34" d="M 2419 4116 
L 825 1625 
L 2419 1625 
L 2419 4116 
z
M 2253 4666 
L 3047 4666 
L 3047 1625 
L 3713 1625 
L 3713 1100 
L 3047 1100 
L 3047 0 
L 2419 0 
L 2419 1100 
L 313 1100 
L 313 1709 
L 2253 4666 
z
" transform="scale(0.015625)"/>
       </defs>
       <use xlink:href="#DejaVuSans-34"/>
       <use xlink:href="#DejaVuSans-30" x="63.623047"/>
       <use xlink:href="#DejaVuSans-30" x="127.246094"/>
      </g>
     </g>
    </g>
    <g id="xtick_6">
     <g id="line2d_6">
      <g>
       <use xlink:href="#mcb8d69fb62" x="504.169301" y="416.476875" style="stroke: #000000; stroke-width: 0.8"/>
      </g>
     </g>
     <g id="text_6">
      <!-- 500 -->
      <g transform="translate(485.081801 438.67375)scale(0.2 -0.2)">
       <defs>
        <path id="DejaVuSans-35" d="M 691 4666 
L 3169 4666 
L 3169 4134 
L 1269 4134 
L 1269 2991 
Q 1406 3038 1543 3061 
Q 1681 3084 1819 3084 
Q 2600 3084 3056 2656 
Q 3513 2228 3513 1497 
Q 3513 744 3044 326 
Q 2575 -91 1722 -91 
Q 1428 -91 1123 -41 
Q 819 9 494 109 
L 494 744 
Q 775 591 1075 516 
Q 1375 441 1709 441 
Q 2250 441 2565 725 
Q 2881 1009 2881 1497 
Q 2881 1984 2565 2268 
Q 2250 2553 1709 2553 
Q 1456 2553 1204 2497 
Q 953 2441 691 2322 
L 691 4666 
z
" transform="scale(0.015625)"/>
       </defs>
       <use xlink:href="#DejaVuSans-35"/>
       <use xlink:href="#DejaVuSans-30" x="63.623047"/>
       <use xlink:href="#DejaVuSans-30" x="127.246094"/>
      </g>
     </g>
    </g>
    <g id="xtick_7">
     <g id="line2d_7">
      <g>
       <use xlink:href="#mcb8d69fb62" x="581.733938" y="416.476875" style="stroke: #000000; stroke-width: 0.8"/>
      </g>
     </g>
     <g id="text_7">
      <!-- 600 -->
      <g transform="translate(562.646438 438.67375)scale(0.2 -0.2)">
       <defs>
        <path id="DejaVuSans-36" d="M 2113 2584 
Q 1688 2584 1439 2293 
Q 1191 2003 1191 1497 
Q 1191 994 1439 701 
Q 1688 409 2113 409 
Q 2538 409 2786 701 
Q 3034 994 3034 1497 
Q 3034 2003 2786 2293 
Q 2538 2584 2113 2584 
z
M 3366 4563 
L 3366 3988 
Q 3128 4100 2886 4159 
Q 2644 4219 2406 4219 
Q 1781 4219 1451 3797 
Q 1122 3375 1075 2522 
Q 1259 2794 1537 2939 
Q 1816 3084 2150 3084 
Q 2853 3084 3261 2657 
Q 3669 2231 3669 1497 
Q 3669 778 3244 343 
Q 2819 -91 2113 -91 
Q 1303 -91 875 529 
Q 447 1150 447 2328 
Q 447 3434 972 4092 
Q 1497 4750 2381 4750 
Q 2619 4750 2861 4703 
Q 3103 4656 3366 4563 
z
" transform="scale(0.015625)"/>
       </defs>
       <use xlink:href="#DejaVuSans-36"/>
       <use xlink:href="#DejaVuSans-30" x="63.623047"/>
       <use xlink:href="#DejaVuSans-30" x="127.246094"/>
      </g>
     </g>
    </g>
    <g id="text_8">
     <!-- Days since antigen exposure -->
     <g transform="translate(226.337813 462.03)scale(0.2 -0.2)">
      <defs>
       <path id="DejaVuSans-44" d="M 1259 4147 
L 1259 519 
L 2022 519 
Q 2988 519 3436 956 
Q 3884 1394 3884 2338 
Q 3884 3275 3436 3711 
Q 2988 4147 2022 4147 
L 1259 4147 
z
M 628 4666 
L 1925 4666 
Q 3281 4666 3915 4102 
Q 4550 3538 4550 2338 
Q 4550 1131 3912 565 
Q 3275 0 1925 0 
L 628 0 
L 628 4666 
z
" transform="scale(0.015625)"/>
       <path id="DejaVuSans-61" d="M 2194 1759 
Q 1497 1759 1228 1600 
Q 959 1441 959 1056 
Q 959 750 1161 570 
Q 1363 391 1709 391 
Q 2188 391 2477 730 
Q 2766 1069 2766 1631 
L 2766 1759 
L 2194 1759 
z
M 3341 1997 
L 3341 0 
L 2766 0 
L 2766 531 
Q 2569 213 2275 61 
Q 1981 -91 1556 -91 
Q 1019 -91 701 211 
Q 384 513 384 1019 
Q 384 1609 779 1909 
Q 1175 2209 1959 2209 
L 2766 2209 
L 2766 2266 
Q 2766 2663 2505 2880 
Q 2244 3097 1772 3097 
Q 1472 3097 1187 3025 
Q 903 2953 641 2809 
L 641 3341 
Q 956 3463 1253 3523 
Q 1550 3584 1831 3584 
Q 2591 3584 2966 3190 
Q 3341 2797 3341 1997 
z
" transform="scale(0.015625)"/>
       <path id="DejaVuSans-79" d="M 2059 -325 
Q 1816 -950 1584 -1140 
Q 1353 -1331 966 -1331 
L 506 -1331 
L 506 -850 
L 844 -850 
Q 1081 -850 1212 -737 
Q 1344 -625 1503 -206 
L 1606 56 
L 191 3500 
L 800 3500 
L 1894 763 
L 2988 3500 
L 3597 3500 
L 2059 -325 
z
" transform="scale(0.015625)"/>
       <path id="DejaVuSans-73" d="M 2834 3397 
L 2834 2853 
Q 2591 2978 2328 3040 
Q 2066 3103 1784 3103 
Q 1356 3103 1142 2972 
Q 928 2841 928 2578 
Q 928 2378 1081 2264 
Q 1234 2150 1697 2047 
L 1894 2003 
Q 2506 1872 2764 1633 
Q 3022 1394 3022 966 
Q 3022 478 2636 193 
Q 2250 -91 1575 -91 
Q 1294 -91 989 -36 
Q 684 19 347 128 
L 347 722 
Q 666 556 975 473 
Q 1284 391 1588 391 
Q 1994 391 2212 530 
Q 2431 669 2431 922 
Q 2431 1156 2273 1281 
Q 2116 1406 1581 1522 
L 1381 1569 
Q 847 1681 609 1914 
Q 372 2147 372 2553 
Q 372 3047 722 3315 
Q 1072 3584 1716 3584 
Q 2034 3584 2315 3537 
Q 2597 3491 2834 3397 
z
" transform="scale(0.015625)"/>
       <path id="DejaVuSans-20" transform="scale(0.015625)"/>
       <path id="DejaVuSans-69" d="M 603 3500 
L 1178 3500 
L 1178 0 
L 603 0 
L 603 3500 
z
M 603 4863 
L 1178 4863 
L 1178 4134 
L 603 4134 
L 603 4863 
z
" transform="scale(0.015625)"/>
       <path id="DejaVuSans-6e" d="M 3513 2113 
L 3513 0 
L 2938 0 
L 2938 2094 
Q 2938 2591 2744 2837 
Q 2550 3084 2163 3084 
Q 1697 3084 1428 2787 
Q 1159 2491 1159 1978 
L 1159 0 
L 581 0 
L 581 3500 
L 1159 3500 
L 1159 2956 
Q 1366 3272 1645 3428 
Q 1925 3584 2291 3584 
Q 2894 3584 3203 3211 
Q 3513 2838 3513 2113 
z
" transform="scale(0.015625)"/>
       <path id="DejaVuSans-63" d="M 3122 3366 
L 3122 2828 
Q 2878 2963 2633 3030 
Q 2388 3097 2138 3097 
Q 1578 3097 1268 2742 
Q 959 2388 959 1747 
Q 959 1106 1268 751 
Q 1578 397 2138 397 
Q 2388 397 2633 464 
Q 2878 531 3122 666 
L 3122 134 
Q 2881 22 2623 -34 
Q 2366 -91 2075 -91 
Q 1284 -91 818 406 
Q 353 903 353 1747 
Q 353 2603 823 3093 
Q 1294 3584 2113 3584 
Q 2378 3584 2631 3529 
Q 2884 3475 3122 3366 
z
" transform="scale(0.015625)"/>
       <path id="DejaVuSans-65" d="M 3597 1894 
L 3597 1613 
L 953 1613 
Q 991 1019 1311 708 
Q 1631 397 2203 397 
Q 2534 397 2845 478 
Q 3156 559 3463 722 
L 3463 178 
Q 3153 47 2828 -22 
Q 2503 -91 2169 -91 
Q 1331 -91 842 396 
Q 353 884 353 1716 
Q 353 2575 817 3079 
Q 1281 3584 2069 3584 
Q 2775 3584 3186 3129 
Q 3597 2675 3597 1894 
z
M 3022 2063 
Q 3016 2534 2758 2815 
Q 2500 3097 2075 3097 
Q 1594 3097 1305 2825 
Q 1016 2553 972 2059 
L 3022 2063 
z
" transform="scale(0.015625)"/>
       <path id="DejaVuSans-74" d="M 1172 4494 
L 1172 3500 
L 2356 3500 
L 2356 3053 
L 1172 3053 
L 1172 1153 
Q 1172 725 1289 603 
Q 1406 481 1766 481 
L 2356 481 
L 2356 0 
L 1766 0 
Q 1100 0 847 248 
Q 594 497 594 1153 
L 594 3053 
L 172 3053 
L 172 3500 
L 594 3500 
L 594 4494 
L 1172 4494 
z
" transform="scale(0.015625)"/>
       <path id="DejaVuSans-67" d="M 2906 1791 
Q 2906 2416 2648 2759 
Q 2391 3103 1925 3103 
Q 1463 3103 1205 2759 
Q 947 2416 947 1791 
Q 947 1169 1205 825 
Q 1463 481 1925 481 
Q 2391 481 2648 825 
Q 2906 1169 2906 1791 
z
M 3481 434 
Q 3481 -459 3084 -895 
Q 2688 -1331 1869 -1331 
Q 1566 -1331 1297 -1286 
Q 1028 -1241 775 -1147 
L 775 -588 
Q 1028 -725 1275 -790 
Q 1522 -856 1778 -856 
Q 2344 -856 2625 -561 
Q 2906 -266 2906 331 
L 2906 616 
Q 2728 306 2450 153 
Q 2172 0 1784 0 
Q 1141 0 747 490 
Q 353 981 353 1791 
Q 353 2603 747 3093 
Q 1141 3584 1784 3584 
Q 2172 3584 2450 3431 
Q 2728 3278 2906 2969 
L 2906 3500 
L 3481 3500 
L 3481 434 
z
" transform="scale(0.015625)"/>
       <path id="DejaVuSans-78" d="M 3513 3500 
L 2247 1797 
L 3578 0 
L 2900 0 
L 1881 1375 
L 863 0 
L 184 0 
L 1544 1831 
L 300 3500 
L 978 3500 
L 1906 2253 
L 2834 3500 
L 3513 3500 
z
" transform="scale(0.015625)"/>
       <path id="DejaVuSans-70" d="M 1159 525 
L 1159 -1331 
L 581 -1331 
L 581 3500 
L 1159 3500 
L 1159 2969 
Q 1341 3281 1617 3432 
Q 1894 3584 2278 3584 
Q 2916 3584 3314 3078 
Q 3713 2572 3713 1747 
Q 3713 922 3314 415 
Q 2916 -91 2278 -91 
Q 1894 -91 1617 61 
Q 1341 213 1159 525 
z
M 3116 1747 
Q 3116 2381 2855 2742 
Q 2594 3103 2138 3103 
Q 1681 3103 1420 2742 
Q 1159 2381 1159 1747 
Q 1159 1113 1420 752 
Q 1681 391 2138 391 
Q 2594 391 2855 752 
Q 3116 1113 3116 1747 
z
" transform="scale(0.015625)"/>
       <path id="DejaVuSans-6f" d="M 1959 3097 
Q 1497 3097 1228 2736 
Q 959 2375 959 1747 
Q 959 1119 1226 758 
Q 1494 397 1959 397 
Q 2419 397 2687 759 
Q 2956 1122 2956 1747 
Q 2956 2369 2687 2733 
Q 2419 3097 1959 3097 
z
M 1959 3584 
Q 2709 3584 3137 3096 
Q 3566 2609 3566 1747 
Q 3566 888 3137 398 
Q 2709 -91 1959 -91 
Q 1206 -91 779 398 
Q 353 888 353 1747 
Q 353 2609 779 3096 
Q 1206 3584 1959 3584 
z
" transform="scale(0.015625)"/>
       <path id="DejaVuSans-75" d="M 544 1381 
L 544 3500 
L 1119 3500 
L 1119 1403 
Q 1119 906 1312 657 
Q 1506 409 1894 409 
Q 2359 409 2629 706 
Q 2900 1003 2900 1516 
L 2900 3500 
L 3475 3500 
L 3475 0 
L 2900 0 
L 2900 538 
Q 2691 219 2414 64 
Q 2138 -91 1772 -91 
Q 1169 -91 856 284 
Q 544 659 544 1381 
z
M 1991 3584 
L 1991 3584 
z
" transform="scale(0.015625)"/>
       <path id="DejaVuSans-72" d="M 2631 2963 
Q 2534 3019 2420 3045 
Q 2306 3072 2169 3072 
Q 1681 3072 1420 2755 
Q 1159 2438 1159 1844 
L 1159 0 
L 581 0 
L 581 3500 
L 1159 3500 
L 1159 2956 
Q 1341 3275 1631 3429 
Q 1922 3584 2338 3584 
Q 2397 3584 2469 3576 
Q 2541 3569 2628 3553 
L 2631 2963 
z
" transform="scale(0.015625)"/>
      </defs>
      <use xlink:href="#DejaVuSans-44"/>
      <use xlink:href="#DejaVuSans-61" x="77.001953"/>
      <use xlink:href="#DejaVuSans-79" x="138.28125"/>
      <use xlink:href="#DejaVuSans-73" x="197.460938"/>
      <use xlink:href="#DejaVuSans-20" x="249.560547"/>
      <use xlink:href="#DejaVuSans-73" x="281.347656"/>
      <use xlink:href="#DejaVuSans-69" x="333.447266"/>
      <use xlink:href="#DejaVuSans-6e" x="361.230469"/>
      <use xlink:href="#DejaVuSans-63" x="424.609375"/>
      <use xlink:href="#DejaVuSans-65" x="479.589844"/>
      <use xlink:href="#DejaVuSans-20" x="541.113281"/>
      <use xlink:href="#DejaVuSans-61" x="572.900391"/>
      <use xlink:href="#DejaVuSans-6e" x="634.179688"/>
      <use xlink:href="#DejaVuSans-74" x="697.558594"/>
      <use xlink:href="#DejaVuSans-69" x="736.767578"/>
      <use xlink:href="#DejaVuSans-67" x="764.550781"/>
      <use xlink:href="#DejaVuSans-65" x="828.027344"/>
      <use xlink:href="#DejaVuSans-6e" x="889.550781"/>
      <use xlink:href="#DejaVuSans-20" x="952.929688"/>
      <use xlink:href="#DejaVuSans-65" x="984.716797"/>
      <use xlink:href="#DejaVuSans-78" x="1044.490234"/>
      <use xlink:href="#DejaVuSans-70" x="1103.669922"/>
      <use xlink:href="#DejaVuSans-6f" x="1167.146484"/>
      <use xlink:href="#DejaVuSans-73" x="1228.328125"/>
      <use xlink:href="#DejaVuSans-75" x="1280.427734"/>
      <use xlink:href="#DejaVuSans-72" x="1343.806641"/>
      <use xlink:href="#DejaVuSans-65" x="1382.669922"/>
     </g>
    </g>
   </g>
   <g id="matplotlib.axis_2">
    <g id="ytick_1">
     <g id="line2d_8">
      <defs>
       <path id="mf174823f5a" d="M 0 0 
L -3.5 0 
" style="stroke: #000000; stroke-width: 0.8"/>
      </defs>
      <g>
       <use xlink:href="#mf174823f5a" x="91.758125" y="384.131167" style="stroke: #000000; stroke-width: 0.8"/>
      </g>
     </g>
     <g id="text_9">
      <!-- 0.0 -->
      <g transform="translate(52.951875 391.729605)scale(0.2 -0.2)">
       <defs>
        <path id="DejaVuSans-2e" d="M 684 794 
L 1344 794 
L 1344 0 
L 684 0 
L 684 794 
z
" transform="scale(0.015625)"/>
       </defs>
       <use xlink:href="#DejaVuSans-30"/>
       <use xlink:href="#DejaVuSans-2e" x="63.623047"/>
       <use xlink:href="#DejaVuSans-30" x="95.410156"/>
      </g>
     </g>
    </g>
    <g id="ytick_2">
     <g id="line2d_9">
      <g>
       <use xlink:href="#mf174823f5a" x="91.758125" y="319.439752" style="stroke: #000000; stroke-width: 0.8"/>
      </g>
     </g>
     <g id="text_10">
      <!-- 0.2 -->
      <g transform="translate(52.951875 327.038189)scale(0.2 -0.2)">
       <use xlink:href="#DejaVuSans-30"/>
       <use xlink:href="#DejaVuSans-2e" x="63.623047"/>
       <use xlink:href="#DejaVuSans-32" x="95.410156"/>
      </g>
     </g>
    </g>
    <g id="ytick_3">
     <g id="line2d_10">
      <g>
       <use xlink:href="#mf174823f5a" x="91.758125" y="254.748336" style="stroke: #000000; stroke-width: 0.8"/>
      </g>
     </g>
     <g id="text_11">
      <!-- 0.4 -->
      <g transform="translate(52.951875 262.346774)scale(0.2 -0.2)">
       <use xlink:href="#DejaVuSans-30"/>
       <use xlink:href="#DejaVuSans-2e" x="63.623047"/>
       <use xlink:href="#DejaVuSans-34" x="95.410156"/>
      </g>
     </g>
    </g>
    <g id="ytick_4">
     <g id="line2d_11">
      <g>
       <use xlink:href="#mf174823f5a" x="91.758125" y="190.056921" style="stroke: #000000; stroke-width: 0.8"/>
      </g>
     </g>
     <g id="text_12">
      <!-- 0.6 -->
      <g transform="translate(52.951875 197.655358)scale(0.2 -0.2)">
       <use xlink:href="#DejaVuSans-30"/>
       <use xlink:href="#DejaVuSans-2e" x="63.623047"/>
       <use xlink:href="#DejaVuSans-36" x="95.410156"/>
      </g>
     </g>
    </g>
    <g id="ytick_5">
     <g id="line2d_12">
      <g>
       <use xlink:href="#mf174823f5a" x="91.758125" y="125.365505" style="stroke: #000000; stroke-width: 0.8"/>
      </g>
     </g>
     <g id="text_13">
      <!-- 0.8 -->
      <g transform="translate(52.951875 132.963943)scale(0.2 -0.2)">
       <defs>
        <path id="DejaVuSans-38" d="M 2034 2216 
Q 1584 2216 1326 1975 
Q 1069 1734 1069 1313 
Q 1069 891 1326 650 
Q 1584 409 2034 409 
Q 2484 409 2743 651 
Q 3003 894 3003 1313 
Q 3003 1734 2745 1975 
Q 2488 2216 2034 2216 
z
M 1403 2484 
Q 997 2584 770 2862 
Q 544 3141 544 3541 
Q 544 4100 942 4425 
Q 1341 4750 2034 4750 
Q 2731 4750 3128 4425 
Q 3525 4100 3525 3541 
Q 3525 3141 3298 2862 
Q 3072 2584 2669 2484 
Q 3125 2378 3379 2068 
Q 3634 1759 3634 1313 
Q 3634 634 3220 271 
Q 2806 -91 2034 -91 
Q 1263 -91 848 271 
Q 434 634 434 1313 
Q 434 1759 690 2068 
Q 947 2378 1403 2484 
z
M 1172 3481 
Q 1172 3119 1398 2916 
Q 1625 2713 2034 2713 
Q 2441 2713 2670 2916 
Q 2900 3119 2900 3481 
Q 2900 3844 2670 4047 
Q 2441 4250 2034 4250 
Q 1625 4250 1398 4047 
Q 1172 3844 1172 3481 
z
" transform="scale(0.015625)"/>
       </defs>
       <use xlink:href="#DejaVuSans-30"/>
       <use xlink:href="#DejaVuSans-2e" x="63.623047"/>
       <use xlink:href="#DejaVuSans-38" x="95.410156"/>
      </g>
     </g>
    </g>
    <g id="ytick_6">
     <g id="line2d_13">
      <g>
       <use xlink:href="#mf174823f5a" x="91.758125" y="60.67409" style="stroke: #000000; stroke-width: 0.8"/>
      </g>
     </g>
     <g id="text_14">
      <!-- 1.0 -->
      <g transform="translate(52.951875 68.272527)scale(0.2 -0.2)">
       <use xlink:href="#DejaVuSans-31"/>
       <use xlink:href="#DejaVuSans-2e" x="63.623047"/>
       <use xlink:href="#DejaVuSans-30" x="95.410156"/>
      </g>
     </g>
    </g>
    <g id="text_15">
     <!-- Virus neutralization -->
     <g transform="translate(22.396875 319.741562)rotate(-90)scale(0.2 -0.2)">
      <defs>
       <path id="DejaVuSans-56" d="M 1831 0 
L 50 4666 
L 709 4666 
L 2188 738 
L 3669 4666 
L 4325 4666 
L 2547 0 
L 1831 0 
z
" transform="scale(0.015625)"/>
       <path id="DejaVuSans-6c" d="M 603 4863 
L 1178 4863 
L 1178 0 
L 603 0 
L 603 4863 
z
" transform="scale(0.015625)"/>
       <path id="DejaVuSans-7a" d="M 353 3500 
L 3084 3500 
L 3084 2975 
L 922 459 
L 3084 459 
L 3084 0 
L 275 0 
L 275 525 
L 2438 3041 
L 353 3041 
L 353 3500 
z
" transform="scale(0.015625)"/>
      </defs>
      <use xlink:href="#DejaVuSans-56"/>
      <use xlink:href="#DejaVuSans-69" x="66.158203"/>
      <use xlink:href="#DejaVuSans-72" x="93.941406"/>
      <use xlink:href="#DejaVuSans-75" x="135.054688"/>
      <use xlink:href="#DejaVuSans-73" x="198.433594"/>
      <use xlink:href="#DejaVuSans-20" x="250.533203"/>
      <use xlink:href="#DejaVuSans-6e" x="282.320312"/>
      <use xlink:href="#DejaVuSans-65" x="345.699219"/>
      <use xlink:href="#DejaVuSans-75" x="407.222656"/>
      <use xlink:href="#DejaVuSans-74" x="470.601562"/>
      <use xlink:href="#DejaVuSans-72" x="509.810547"/>
      <use xlink:href="#DejaVuSans-61" x="550.923828"/>
      <use xlink:href="#DejaVuSans-6c" x="612.203125"/>
      <use xlink:href="#DejaVuSans-69" x="639.986328"/>
      <use xlink:href="#DejaVuSans-7a" x="667.769531"/>
      <use xlink:href="#DejaVuSans-61" x="720.259766"/>
      <use xlink:href="#DejaVuSans-74" x="781.539062"/>
      <use xlink:href="#DejaVuSans-69" x="820.748047"/>
      <use xlink:href="#DejaVuSans-6f" x="848.53125"/>
      <use xlink:href="#DejaVuSans-6e" x="909.712891"/>
     </g>
     <!--  probability -->
     <g transform="translate(44.7925 278.966562)rotate(-90)scale(0.2 -0.2)">
      <defs>
       <path id="DejaVuSans-62" d="M 3116 1747 
Q 3116 2381 2855 2742 
Q 2594 3103 2138 3103 
Q 1681 3103 1420 2742 
Q 1159 2381 1159 1747 
Q 1159 1113 1420 752 
Q 1681 391 2138 391 
Q 2594 391 2855 752 
Q 3116 1113 3116 1747 
z
M 1159 2969 
Q 1341 3281 1617 3432 
Q 1894 3584 2278 3584 
Q 2916 3584 3314 3078 
Q 3713 2572 3713 1747 
Q 3713 922 3314 415 
Q 2916 -91 2278 -91 
Q 1894 -91 1617 61 
Q 1341 213 1159 525 
L 1159 0 
L 581 0 
L 581 4863 
L 1159 4863 
L 1159 2969 
z
" transform="scale(0.015625)"/>
      </defs>
      <use xlink:href="#DejaVuSans-20"/>
      <use xlink:href="#DejaVuSans-70" x="31.787109"/>
      <use xlink:href="#DejaVuSans-72" x="95.263672"/>
      <use xlink:href="#DejaVuSans-6f" x="134.126953"/>
      <use xlink:href="#DejaVuSans-62" x="195.308594"/>
      <use xlink:href="#DejaVuSans-61" x="258.785156"/>
      <use xlink:href="#DejaVuSans-62" x="320.064453"/>
      <use xlink:href="#DejaVuSans-69" x="383.541016"/>
      <use xlink:href="#DejaVuSans-6c" x="411.324219"/>
      <use xlink:href="#DejaVuSans-69" x="439.107422"/>
      <use xlink:href="#DejaVuSans-74" x="466.890625"/>
      <use xlink:href="#DejaVuSans-79" x="506.099609"/>
     </g>
    </g>
   </g>
   <g id="patch_3">
    <path d="M 91.758125 416.476875 
L 91.758125 28.396875 
" style="fill: none; stroke: #000000; stroke-width: 0.8; stroke-linejoin: miter; stroke-linecap: square"/>
   </g>
   <g id="patch_4">
    <path d="M 649.758125 416.476875 
L 649.758125 28.396875 
" style="fill: none; stroke: #000000; stroke-width: 0.8; stroke-linejoin: miter; stroke-linecap: square"/>
   </g>
   <g id="patch_5">
    <path d="M 91.758125 416.476875 
L 649.758125 416.476875 
" style="fill: none; stroke: #000000; stroke-width: 0.8; stroke-linejoin: miter; stroke-linecap: square"/>
   </g>
   <g id="patch_6">
    <path d="M 91.758125 28.396875 
L 649.758125 28.396875 
" style="fill: none; stroke: #000000; stroke-width: 0.8; stroke-linejoin: miter; stroke-linecap: square"/>
   </g>
   <g id="text_16">
    <!-- JN.2 antigen -->
    <g transform="translate(309.605 22.396875)scale(0.2 -0.2)">
     <defs>
      <path id="DejaVuSans-4a" d="M 628 4666 
L 1259 4666 
L 1259 325 
Q 1259 -519 939 -900 
Q 619 -1281 -91 -1281 
L -331 -1281 
L -331 -750 
L -134 -750 
Q 284 -750 456 -515 
Q 628 -281 628 325 
L 628 4666 
z
" transform="scale(0.015625)"/>
      <path id="DejaVuSans-4e" d="M 628 4666 
L 1478 4666 
L 3547 763 
L 3547 4666 
L 4159 4666 
L 4159 0 
L 3309 0 
L 1241 3903 
L 1241 0 
L 628 0 
L 628 4666 
z
" transform="scale(0.015625)"/>
     </defs>
     <use xlink:href="#DejaVuSans-4a"/>
     <use xlink:href="#DejaVuSans-4e" x="29.492188"/>
     <use xlink:href="#DejaVuSans-2e" x="104.296875"/>
     <use xlink:href="#DejaVuSans-32" x="136.083984"/>
     <use xlink:href="#DejaVuSans-20" x="199.707031"/>
     <use xlink:href="#DejaVuSans-61" x="231.494141"/>
     <use xlink:href="#DejaVuSans-6e" x="292.773438"/>
     <use xlink:href="#DejaVuSans-74" x="356.152344"/>
     <use xlink:href="#DejaVuSans-69" x="395.361328"/>
     <use xlink:href="#DejaVuSans-67" x="423.144531"/>
     <use xlink:href="#DejaVuSans-65" x="486.621094"/>
     <use xlink:href="#DejaVuSans-6e" x="548.144531"/>
    </g>
   </g>
   <g id="legend_1">
    <g id="patch_7">
     <path d="M 235.258125 532.900875 
L 514.508125 532.900875 
Q 518.508125 532.900875 518.508125 528.900875 
L 518.508125 501.544625 
Q 518.508125 497.544625 514.508125 497.544625 
L 235.258125 497.544625 
Q 231.258125 497.544625 231.258125 501.544625 
L 231.258125 528.900875 
Q 231.258125 532.900875 235.258125 532.900875 
z
" style="fill: #ffffff; opacity: 0.8; stroke: #cccccc; stroke-linejoin: miter"/>
    </g>
    <g id="patch_8">
     <path d="M 239.258125 520.7415 
L 279.258125 520.7415 
L 279.258125 506.7415 
L 239.258125 506.7415 
z
" style="fill: #ffa500; fill-opacity: 0.3; stroke: #ffa500; stroke-opacity: 0.3; stroke-linejoin: miter"/>
    </g>
    <g id="text_17">
     <!-- JN.2 -->
     <g transform="translate(295.258125 520.7415)scale(0.2 -0.2)">
      <use xlink:href="#DejaVuSans-4a"/>
      <use xlink:href="#DejaVuSans-4e" x="29.492188"/>
      <use xlink:href="#DejaVuSans-2e" x="104.296875"/>
      <use xlink:href="#DejaVuSans-32" x="136.083984"/>
     </g>
    </g>
    <g id="patch_9">
     <path d="M 375.201875 520.7415 
L 415.201875 520.7415 
L 415.201875 506.7415 
L 375.201875 506.7415 
z
" style="fill: #1f77b4; fill-opacity: 0.3; stroke: #1f77b4; stroke-opacity: 0.3; stroke-linejoin: miter"/>
    </g>
    <g id="text_18">
     <!-- XBB.1.5 -->
     <g transform="translate(431.201875 520.7415)scale(0.2 -0.2)">
      <defs>
       <path id="DejaVuSans-58" d="M 403 4666 
L 1081 4666 
L 2241 2931 
L 3406 4666 
L 4084 4666 
L 2584 2425 
L 4184 0 
L 3506 0 
L 2194 1984 
L 872 0 
L 191 0 
L 1856 2491 
L 403 4666 
z
" transform="scale(0.015625)"/>
       <path id="DejaVuSans-42" d="M 1259 2228 
L 1259 519 
L 2272 519 
Q 2781 519 3026 730 
Q 3272 941 3272 1375 
Q 3272 1813 3026 2020 
Q 2781 2228 2272 2228 
L 1259 2228 
z
M 1259 4147 
L 1259 2741 
L 2194 2741 
Q 2656 2741 2882 2914 
Q 3109 3088 3109 3444 
Q 3109 3797 2882 3972 
Q 2656 4147 2194 4147 
L 1259 4147 
z
M 628 4666 
L 2241 4666 
Q 2963 4666 3353 4366 
Q 3744 4066 3744 3513 
Q 3744 3084 3544 2831 
Q 3344 2578 2956 2516 
Q 3422 2416 3680 2098 
Q 3938 1781 3938 1306 
Q 3938 681 3513 340 
Q 3088 0 2303 0 
L 628 0 
L 628 4666 
z
" transform="scale(0.015625)"/>
      </defs>
      <use xlink:href="#DejaVuSans-58"/>
      <use xlink:href="#DejaVuSans-42" x="68.505859"/>
      <use xlink:href="#DejaVuSans-42" x="137.109375"/>
      <use xlink:href="#DejaVuSans-2e" x="205.712891"/>
      <use xlink:href="#DejaVuSans-31" x="237.5"/>
      <use xlink:href="#DejaVuSans-2e" x="301.123047"/>
      <use xlink:href="#DejaVuSans-35" x="332.910156"/>
     </g>
    </g>
   </g>
  </g>
 </g>
 <defs>
  <clipPath id="p50ba39897c">
   <rect x="91.758125" y="28.396875" width="558" height="388.08"/>
  </clipPath>
 </defs>
</svg>
