<?xml version="1.0" encoding="utf-8" standalone="no"?>
<!DOCTYPE svg PUBLIC "-//W3C//DTD SVG 1.1//EN"
  "http://www.w3.org/Graphics/SVG/1.1/DTD/svg11.dtd">
<svg xmlns:xlink="http://www.w3.org/1999/xlink" width="656.958125pt" height="540.100875pt" viewBox="0 0 656.958125 540.100875" xmlns="http://www.w3.org/2000/svg" version="1.1">
 <metadata>
  <rdf:RDF xmlns:dc="http://purl.org/dc/elements/1.1/" xmlns:cc="http://creativecommons.org/ns#" xmlns:rdf="http://www.w3.org/1999/02/22-rdf-syntax-ns#">
   <cc:Work>
    <dc:type rdf:resource="http://purl.org/dc/dcmitype/StillImage"/>
    <dc:date>2024-10-02T20:18:28.703335</dc:date>
    <dc:format>image/svg+xml</dc:format>
    <dc:creator>
     <cc:Agent>
      <dc:title>Matplotlib v3.5.2, https://matplotlib.org/</dc:title>
     </cc:Agent>
    </dc:creator>
   </cc:Work>
  </rdf:RDF>
 </metadata>
 <defs>
  <style type="text/css">*{stroke-linejoin: round; stroke-linecap: butt}</style>
 </defs>
 <g id="figure_1">
  <g id="patch_1">
   <path d="M 0 540.100875 
L 656.958125 540.100875 
L 656.958125 0 
L 0 0 
z
" style="fill: #ffffff"/>
  </g>
  <g id="axes_1">
   <g id="patch_2">
    <path d="M 91.758125 416.476875 
L 649.758125 416.476875 
L 649.758125 28.396875 
L 91.758125 28.396875 
z
" style="fill: #ffffff"/>
   </g>
   <g id="PolyCollection_1">
    <defs>
     <path id="ma4d5b43bbc" d="M 117.121761 -265.791043 
L 117.121761 -205.839723 
L 117.897408 -244.089795 
L 118.673054 -273.969764 
L 119.4487 -297.681815 
L 120.224347 -316.757114 
L 120.999993 -332.284476 
L 121.77564 -345.053671 
L 122.551286 -355.647755 
L 123.326932 -364.504042 
L 124.102579 -371.955238 
L 124.878225 -378.257757 
L 125.653871 -383.611555 
L 126.429518 -388.174242 
L 127.205164 -392.071284 
L 127.980811 -395.403467 
L 128.756457 -398.25243 
L 129.532103 -400.684817 
L 130.30775 -402.755422 
L 131.083396 -404.509597 
L 131.859042 -405.596652 
L 132.634689 -404.022813 
L 133.410335 -402.301276 
L 134.185982 -400.446715 
L 134.961628 -398.471867 
L 135.737274 -396.38792 
L 136.512921 -394.204808 
L 137.288567 -391.93144 
L 138.064213 -389.575876 
L 138.83986 -387.145468 
L 139.615506 -384.646967 
L 140.391153 -382.086614 
L 141.166799 -379.470205 
L 141.942445 -376.80315 
L 142.718092 -374.090521 
L 143.493738 -371.337082 
L 144.269384 -368.547328 
L 145.045031 -365.725505 
L 145.820677 -362.875635 
L 146.596323 -360.00153 
L 147.37197 -357.106812 
L 148.147616 -354.194922 
L 148.923263 -351.269134 
L 149.698909 -348.332564 
L 150.474555 -345.388179 
L 151.250202 -342.438804 
L 152.025848 -339.487128 
L 152.801494 -336.535712 
L 153.577141 -333.586995 
L 154.352787 -330.643296 
L 155.128434 -327.70682 
L 155.90408 -324.779663 
L 156.679726 -321.863814 
L 157.455373 -318.961162 
L 158.231019 -316.073494 
L 159.006665 -313.202505 
L 159.782312 -310.349793 
L 160.557958 -307.516869 
L 161.333605 -304.705156 
L 162.109251 -301.915993 
L 162.884897 -299.150635 
L 163.660544 -296.41026 
L 164.43619 -293.695966 
L 165.211836 -291.008779 
L 165.987483 -288.349651 
L 166.763129 -285.719463 
L 167.538776 -283.11903 
L 168.314422 -280.549099 
L 169.090068 -278.010355 
L 169.865715 -275.503419 
L 170.641361 -273.028855 
L 171.417007 -270.587169 
L 172.192654 -268.17881 
L 172.9683 -265.804176 
L 173.743947 -263.463613 
L 174.519593 -261.157416 
L 175.295239 -258.885835 
L 176.070886 -256.649073 
L 176.846532 -254.44729 
L 177.622178 -252.280605 
L 178.397825 -250.149097 
L 179.173471 -248.052807 
L 179.949117 -245.991739 
L 180.724764 -243.965863 
L 181.50041 -241.975118 
L 182.276057 -240.01941 
L 183.051703 -238.098617 
L 183.827349 -236.212588 
L 184.602996 -234.361147 
L 185.378642 -232.544093 
L 186.154288 -230.761203 
L 186.929935 -229.01223 
L 187.705581 -227.296908 
L 188.481228 -225.614954 
L 189.256874 -223.966063 
L 190.03252 -222.349918 
L 190.808167 -220.766184 
L 191.583813 -219.214514 
L 192.359459 -217.694547 
L 193.135106 -216.205912 
L 193.910752 -214.748225 
L 194.686399 -213.321095 
L 195.462045 -211.924119 
L 196.237691 -210.55689 
L 197.013338 -209.218993 
L 197.788984 -207.910005 
L 198.56463 -206.6295 
L 199.340277 -205.377048 
L 200.115923 -204.152214 
L 200.89157 -202.95456 
L 201.667216 -201.783647 
L 202.442862 -200.639033 
L 203.218509 -199.520276 
L 203.994155 -198.426933 
L 204.769801 -197.358561 
L 205.545448 -196.314718 
L 206.321094 -195.294963 
L 207.096741 -194.298854 
L 207.872387 -193.325955 
L 208.648033 -192.375829 
L 209.42368 -191.448044 
L 210.199326 -190.542168 
L 210.974972 -189.657774 
L 211.750619 -188.79444 
L 212.526265 -187.951744 
L 213.301911 -187.129272 
L 214.077558 -186.326611 
L 214.853204 -185.543354 
L 215.628851 -184.779099 
L 216.404497 -184.033447 
L 217.180143 -183.306007 
L 217.95579 -182.596391 
L 218.731436 -181.904215 
L 219.507082 -181.229103 
L 220.282729 -180.570683 
L 221.058375 -179.928588 
L 221.834022 -179.302458 
L 222.609668 -178.691938 
L 223.385314 -178.096678 
L 224.160961 -177.516334 
L 224.936607 -176.950569 
L 225.712253 -176.39905 
L 226.4879 -175.861451 
L 227.263546 -175.33745 
L 228.039193 -174.826733 
L 228.814839 -174.328991 
L 229.590485 -173.84392 
L 230.366132 -173.371222 
L 231.141778 -172.910605 
L 231.917424 -172.461783 
L 232.693071 -172.024474 
L 233.468717 -171.598403 
L 234.244364 -171.183302 
L 235.02001 -170.778904 
L 235.795656 -170.384951 
L 236.571303 -170.00119 
L 237.346949 -169.627372 
L 238.122595 -169.263254 
L 238.898242 -168.908598 
L 239.673888 -168.563172 
L 240.449535 -168.226747 
L 241.225181 -167.899101 
L 242.000827 -167.580015 
L 242.776474 -167.269277 
L 243.55212 -166.966679 
L 244.327766 -166.672016 
L 245.103413 -166.385089 
L 245.879059 -166.105704 
L 246.654705 -165.83367 
L 247.430352 -165.568802 
L 248.205998 -165.310919 
L 248.981645 -165.059842 
L 249.757291 -164.815399 
L 250.532937 -164.57742 
L 251.308584 -164.345741 
L 252.08423 -164.1202 
L 252.859876 -163.90064 
L 253.635523 -163.686907 
L 254.411169 -163.478851 
L 255.186816 -163.276326 
L 255.962462 -163.079189 
L 256.738108 -162.8873 
L 257.513755 -162.700524 
L 258.289401 -162.518728 
L 259.065047 -162.341782 
L 259.840694 -162.169561 
L 260.61634 -162.001941 
L 261.391987 -161.838802 
L 262.167633 -161.680028 
L 262.943279 -161.525503 
L 263.718926 -161.375116 
L 264.494572 -161.22876 
L 265.270218 -161.086328 
L 266.045865 -160.947717 
L 266.821511 -160.812827 
L 267.597158 -160.681559 
L 268.372804 -160.553818 
L 269.14845 -160.429511 
L 269.924097 -160.308548 
L 270.699743 -160.190838 
L 271.475389 -160.076298 
L 272.251036 -159.964842 
L 273.026682 -159.856388 
L 273.802329 -159.750858 
L 274.577975 -159.648174 
L 275.353621 -159.548259 
L 276.129268 -159.45104 
L 276.904914 -159.356445 
L 277.68056 -159.264405 
L 278.456207 -159.174851 
L 279.231853 -159.087717 
L 280.007499 -159.002938 
L 280.783146 -158.920451 
L 281.558792 -158.840196 
L 282.334439 -158.762112 
L 283.110085 -158.686141 
L 283.885731 -158.612226 
L 284.661378 -158.540313 
L 285.437024 -158.470348 
L 286.21267 -158.402279 
L 286.988317 -158.336054 
L 287.763963 -158.271624 
L 288.53961 -158.208941 
L 289.315256 -158.147959 
L 290.090902 -158.08863 
L 290.866549 -158.030911 
L 291.642195 -157.974758 
L 292.417841 -157.92013 
L 293.193488 -157.866984 
L 293.969134 -157.815282 
L 294.744781 -157.764983 
L 295.520427 -157.716052 
L 296.296073 -157.668449 
L 297.07172 -157.62214 
L 297.847366 -157.57709 
L 298.623012 -157.533264 
L 299.398659 -157.49063 
L 300.174305 -157.449155 
L 300.949952 -157.408808 
L 301.725598 -157.369559 
L 302.501244 -157.331377 
L 303.276891 -157.294234 
L 304.052537 -157.258102 
L 304.828183 -157.222953 
L 305.60383 -157.188761 
L 306.379476 -157.1555 
L 307.155122 -157.123144 
L 307.930769 -157.091669 
L 308.706415 -157.061052 
L 309.482062 -157.031268 
L 310.257708 -157.002295 
L 311.033354 -156.974112 
L 311.809001 -156.946697 
L 312.584647 -156.920028 
L 313.360293 -156.894086 
L 314.13594 -156.868852 
L 314.911586 -156.844305 
L 315.687233 -156.820427 
L 316.462879 -156.7972 
L 317.238525 -156.774606 
L 318.014172 -156.752628 
L 318.789818 -156.731249 
L 319.565464 -156.710454 
L 320.341111 -156.690225 
L 321.116757 -156.670548 
L 321.892404 -156.651408 
L 322.66805 -156.63279 
L 323.443696 -156.61468 
L 324.219343 -156.597064 
L 324.994989 -156.579928 
L 325.770635 -156.56326 
L 326.546282 -156.547047 
L 327.321928 -156.531276 
L 328.097575 -156.515936 
L 328.873221 -156.501014 
L 329.648867 -156.486499 
L 330.424514 -156.472381 
L 331.20016 -156.458648 
L 331.975806 -156.445289 
L 332.751453 -156.432296 
L 333.527099 -156.419657 
L 334.302746 -156.407363 
L 335.078392 -156.395405 
L 335.854038 -156.383773 
L 336.629685 -156.372459 
L 337.405331 -156.361454 
L 338.180977 -156.350749 
L 338.956624 -156.340337 
L 339.73227 -156.330209 
L 340.507916 -156.320357 
L 341.283563 -156.310775 
L 342.059209 -156.301454 
L 342.834856 -156.292388 
L 343.610502 -156.283569 
L 344.386148 -156.274992 
L 345.161795 -156.266648 
L 345.937441 -156.258533 
L 346.713087 -156.250639 
L 347.488734 -156.242961 
L 348.26438 -156.235492 
L 349.040027 -156.228228 
L 349.815673 -156.221162 
L 350.591319 -156.214289 
L 351.366966 -156.207604 
L 352.142612 -156.201102 
L 352.918258 -156.194777 
L 353.693905 -156.188625 
L 354.469551 -156.182641 
L 355.245198 -156.17682 
L 356.020844 -156.171159 
L 356.79649 -156.165652 
L 357.572137 -156.160296 
L 358.347783 -156.155086 
L 359.123429 -156.150019 
L 359.899076 -156.14509 
L 360.674722 -156.140296 
L 361.450369 -156.135632 
L 362.226015 -156.131096 
L 363.001661 -156.126684 
L 363.777308 -156.122393 
L 364.552954 -156.118219 
L 365.3286 -156.114159 
L 366.104247 -156.11021 
L 366.879893 -156.106369 
L 367.65554 -156.102633 
L 368.431186 -156.098999 
L 369.206832 -156.095464 
L 369.982479 -156.092026 
L 370.758125 -156.088682 
L 371.533771 -156.08543 
L 372.309418 -156.082266 
L 373.085064 -156.079189 
L 373.86071 -156.076195 
L 374.636357 -156.073284 
L 375.412003 -156.070452 
L 376.18765 -156.067698 
L 376.963296 -156.065019 
L 377.738942 -156.062413 
L 378.514589 -156.059878 
L 379.290235 -156.057413 
L 380.065881 -156.055015 
L 380.841528 -156.052683 
L 381.617174 -156.050414 
L 382.392821 -156.048208 
L 383.168467 -156.046061 
L 383.944113 -156.043974 
L 384.71976 -156.041943 
L 385.495406 -156.039968 
L 386.271052 -156.038047 
L 387.046699 -156.036179 
L 387.822345 -156.034361 
L 388.597992 -156.032593 
L 389.373638 -156.030874 
L 390.149284 -156.029202 
L 390.924931 -156.027575 
L 391.700577 -156.025993 
L 392.476223 -156.024454 
L 393.25187 -156.022957 
L 394.027516 -156.021501 
L 394.803163 -156.020085 
L 395.578809 -156.018707 
L 396.354455 -156.017368 
L 397.130102 -156.016064 
L 397.905748 -156.014797 
L 398.681394 -156.013564 
L 399.457041 -156.012365 
L 400.232687 -156.011198 
L 401.008334 -156.010064 
L 401.78398 -156.008961 
L 402.559626 -156.007887 
L 403.335273 -156.006843 
L 404.110919 -156.005828 
L 404.886565 -156.00484 
L 405.662212 -156.00388 
L 406.437858 -156.002945 
L 407.213504 -156.002036 
L 407.989151 -156.001152 
L 408.764797 -156.000293 
L 409.540444 -155.999456 
L 410.31609 -155.998643 
L 411.091736 -155.997852 
L 411.867383 -155.997082 
L 412.643029 -155.996334 
L 413.418675 -155.995606 
L 414.194322 -155.994897 
L 414.969968 -155.994209 
L 415.745615 -155.993539 
L 416.521261 -155.992887 
L 417.296907 -155.992253 
L 418.072554 -155.991637 
L 418.8482 -155.991037 
L 419.623846 -155.990454 
L 420.399493 -155.989887 
L 421.175139 -155.989335 
L 421.950786 -155.988798 
L 422.726432 -155.988276 
L 423.502078 -155.987768 
L 424.277725 -155.987275 
L 425.053371 -155.986794 
L 425.829017 -155.986327 
L 426.604664 -155.985873 
L 427.38031 -155.985431 
L 428.155957 -155.985001 
L 428.931603 -155.984582 
L 429.707249 -155.984176 
L 430.482896 -155.98378 
L 431.258542 -155.983395 
L 432.034188 -155.983021 
L 432.809835 -155.982657 
L 433.585481 -155.982303 
L 434.361128 -155.981958 
L 435.136774 -155.981623 
L 435.91242 -155.981298 
L 436.688067 -155.980981 
L 437.463713 -155.980672 
L 438.239359 -155.980373 
L 439.015006 -155.980081 
L 439.790652 -155.979797 
L 440.566298 -155.979521 
L 441.341945 -155.979253 
L 442.117591 -155.978992 
L 442.893238 -155.978738 
L 443.668884 -155.978491 
L 444.44453 -155.978251 
L 445.220177 -155.978017 
L 445.995823 -155.97779 
L 446.771469 -155.977569 
L 447.547116 -155.977354 
L 448.322762 -155.977145 
L 449.098409 -155.976942 
L 449.874055 -155.976744 
L 450.649701 -155.976552 
L 451.425348 -155.976364 
L 452.200994 -155.976182 
L 452.97664 -155.976005 
L 453.752287 -155.975833 
L 454.527933 -155.975666 
L 455.30358 -155.975503 
L 456.079226 -155.975344 
L 456.854872 -155.97519 
L 457.630519 -155.97504 
L 458.406165 -155.974894 
L 459.181811 -155.974753 
L 459.957458 -155.974615 
L 460.733104 -155.97448 
L 461.508751 -155.97435 
L 462.284397 -155.974223 
L 463.060043 -155.9741 
L 463.83569 -155.973979 
L 464.611336 -155.973863 
L 465.386982 -155.973749 
L 466.162629 -155.973639 
L 466.938275 -155.973531 
L 467.713921 -155.973426 
L 468.489568 -155.973325 
L 469.265214 -155.973226 
L 470.040861 -155.97313 
L 470.816507 -155.973036 
L 471.592153 -155.972945 
L 472.3678 -155.972857 
L 473.143446 -155.97277 
L 473.919092 -155.972687 
L 474.694739 -155.972605 
L 475.470385 -155.972526 
L 476.246032 -155.972449 
L 477.021678 -155.972374 
L 477.797324 -155.972301 
L 478.572971 -155.97223 
L 479.348617 -155.972161 
L 480.124263 -155.972094 
L 480.89991 -155.972029 
L 481.675556 -155.971965 
L 482.451203 -155.971904 
L 483.226849 -155.971844 
L 484.002495 -155.971785 
L 484.778142 -155.971728 
L 485.553788 -155.971673 
L 486.329434 -155.971619 
L 487.105081 -155.971567 
L 487.880727 -155.971516 
L 488.656374 -155.971467 
L 489.43202 -155.971419 
L 490.207666 -155.971372 
L 490.983313 -155.971326 
L 491.758959 -155.971282 
L 492.534605 -155.971239 
L 493.310252 -155.971197 
L 494.085898 -155.971157 
L 494.861545 -155.971117 
L 495.637191 -155.971078 
L 496.412837 -155.971041 
L 497.188484 -155.971004 
L 497.96413 -155.970969 
L 498.739776 -155.970934 
L 499.515423 -155.970901 
L 500.291069 -155.970868 
L 501.066715 -155.970837 
L 501.842362 -155.970806 
L 502.618008 -155.970776 
L 503.393655 -155.970746 
L 504.169301 -155.970718 
L 504.944947 -155.97069 
L 505.720594 -155.970664 
L 506.49624 -155.970637 
L 507.271886 -155.970612 
L 508.047533 -155.970587 
L 508.823179 -155.970563 
L 509.598826 -155.97054 
L 510.374472 -155.970517 
L 511.150118 -155.970495 
L 511.925765 -155.970473 
L 512.701411 -155.970452 
L 513.477057 -155.970432 
L 514.252704 -155.970412 
L 515.02835 -155.970393 
L 515.803997 -155.970374 
L 516.579643 -155.970356 
L 517.355289 -155.970338 
L 518.130936 -155.970321 
L 518.906582 -155.970304 
L 519.682228 -155.970288 
L 520.457875 -155.970272 
L 521.233521 -155.970257 
L 522.009168 -155.970242 
L 522.784814 -155.970227 
L 523.56046 -155.970213 
L 524.336107 -155.970199 
L 525.111753 -155.970186 
L 525.887399 -155.970173 
L 526.663046 -155.97016 
L 527.438692 -155.970148 
L 528.214339 -155.970135 
L 528.989985 -155.970124 
L 529.765631 -155.970112 
L 530.541278 -155.970101 
L 531.316924 -155.970091 
L 532.09257 -155.97008 
L 532.868217 -155.97007 
L 533.643863 -155.97006 
L 534.419509 -155.97005 
L 535.195156 -155.970041 
L 535.970802 -155.970032 
L 536.746449 -155.970023 
L 537.522095 -155.970014 
L 538.297741 -155.970006 
L 539.073388 -155.969998 
L 539.849034 -155.96999 
L 540.62468 -155.969982 
L 541.400327 -155.969975 
L 542.175973 -155.969967 
L 542.95162 -155.96996 
L 543.727266 -155.969953 
L 544.502912 -155.969947 
L 545.278559 -155.96994 
L 546.054205 -155.969934 
L 546.829851 -155.969928 
L 547.605498 -155.969922 
L 548.381144 -155.969916 
L 549.156791 -155.96991 
L 549.932437 -155.969905 
L 550.708083 -155.969899 
L 551.48373 -155.969894 
L 552.259376 -155.969889 
L 553.035022 -155.969884 
L 553.810669 -155.969879 
L 554.586315 -155.969874 
L 555.361962 -155.96987 
L 556.137608 -155.969865 
L 556.913254 -155.969861 
L 557.688901 -155.969857 
L 558.464547 -155.969853 
L 559.240193 -155.969849 
L 560.01584 -155.969845 
L 560.791486 -155.969841 
L 561.567133 -155.969838 
L 562.342779 -155.969834 
L 563.118425 -155.969831 
L 563.894072 -155.969827 
L 564.669718 -155.969824 
L 565.445364 -155.969821 
L 566.221011 -155.969818 
L 566.996657 -155.969815 
L 567.772303 -155.969812 
L 568.54795 -155.969809 
L 569.323596 -155.969806 
L 570.099243 -155.969803 
L 570.874889 -155.969801 
L 571.650535 -155.969798 
L 572.426182 -155.969796 
L 573.201828 -155.969793 
L 573.977474 -155.969791 
L 574.753121 -155.969789 
L 575.528767 -155.969787 
L 576.304414 -155.969784 
L 577.08006 -155.969782 
L 577.855706 -155.96978 
L 578.631353 -155.969778 
L 579.406999 -155.969776 
L 580.182645 -155.969774 
L 580.958292 -155.969773 
L 581.733938 -155.969771 
L 582.509585 -155.969769 
L 583.285231 -155.969767 
L 584.060877 -155.969766 
L 584.836524 -155.969764 
L 585.61217 -155.969763 
L 586.387816 -155.969761 
L 587.163463 -155.96976 
L 587.939109 -155.969758 
L 588.714756 -155.969757 
L 589.490402 -155.969756 
L 590.266048 -155.969754 
L 591.041695 -155.969753 
L 591.817341 -155.969752 
L 592.592987 -155.969751 
L 593.368634 -155.969749 
L 594.14428 -155.969748 
L 594.919927 -155.969747 
L 595.695573 -155.969746 
L 596.471219 -155.969745 
L 597.246866 -155.969744 
L 598.022512 -155.969743 
L 598.798158 -155.969742 
L 599.573805 -155.969741 
L 600.349451 -155.96974 
L 601.125097 -155.969739 
L 601.900744 -155.969738 
L 602.67639 -155.969738 
L 603.452037 -155.969737 
L 604.227683 -155.969736 
L 605.003329 -155.969735 
L 605.778976 -155.969734 
L 606.554622 -155.969734 
L 607.330268 -155.969733 
L 608.105915 -155.969732 
L 608.881561 -155.969732 
L 609.657208 -155.969731 
L 610.432854 -155.96973 
L 611.2085 -155.96973 
L 611.984147 -155.969729 
L 612.759793 -155.969729 
L 613.535439 -155.969728 
L 614.311086 -155.969727 
L 615.086732 -155.969727 
L 615.862379 -155.969726 
L 616.638025 -155.969726 
L 617.413671 -155.969725 
L 618.189318 -155.969725 
L 618.964964 -155.969724 
L 619.74061 -155.969724 
L 620.516257 -155.969724 
L 621.291903 -155.969723 
L 622.06755 -155.969723 
L 622.843196 -155.969722 
L 623.618842 -155.969722 
L 624.394489 -155.969721 
L 624.394489 -157.178208 
L 624.394489 -157.178208 
L 623.618842 -157.190382 
L 622.843196 -157.202677 
L 622.06755 -157.215097 
L 621.291903 -157.227641 
L 620.516257 -157.240311 
L 619.74061 -157.253109 
L 618.964964 -157.266035 
L 618.189318 -157.279091 
L 617.413671 -157.292278 
L 616.638025 -157.305598 
L 615.862379 -157.319052 
L 615.086732 -157.33264 
L 614.311086 -157.346365 
L 613.535439 -157.360228 
L 612.759793 -157.374231 
L 611.984147 -157.388374 
L 611.2085 -157.402658 
L 610.432854 -157.417087 
L 609.657208 -157.43166 
L 608.881561 -157.446379 
L 608.105915 -157.461247 
L 607.330268 -157.476263 
L 606.554622 -157.491431 
L 605.778976 -157.50675 
L 605.003329 -157.522224 
L 604.227683 -157.537852 
L 603.452037 -157.553638 
L 602.67639 -157.569582 
L 601.900744 -157.585686 
L 601.125097 -157.601952 
L 600.349451 -157.61838 
L 599.573805 -157.634974 
L 598.798158 -157.651734 
L 598.022512 -157.668662 
L 597.246866 -157.685761 
L 596.471219 -157.70303 
L 595.695573 -157.720473 
L 594.919927 -157.738091 
L 594.14428 -157.755885 
L 593.368634 -157.773858 
L 592.592987 -157.792011 
L 591.817341 -157.810347 
L 591.041695 -157.828866 
L 590.266048 -157.84757 
L 589.490402 -157.866463 
L 588.714756 -157.885544 
L 587.939109 -157.904817 
L 587.163463 -157.924283 
L 586.387816 -157.943944 
L 585.61217 -157.963802 
L 584.836524 -157.983859 
L 584.060877 -158.004118 
L 583.285231 -158.024579 
L 582.509585 -158.045245 
L 581.733938 -158.066118 
L 580.958292 -158.0872 
L 580.182645 -158.108493 
L 579.406999 -158.13 
L 578.631353 -158.151722 
L 577.855706 -158.173661 
L 577.08006 -158.195821 
L 576.304414 -158.218202 
L 575.528767 -158.240807 
L 574.753121 -158.263638 
L 573.977474 -158.286698 
L 573.201828 -158.309988 
L 572.426182 -158.333512 
L 571.650535 -158.357271 
L 570.874889 -158.381268 
L 570.099243 -158.405505 
L 569.323596 -158.429984 
L 568.54795 -158.454709 
L 567.772303 -158.47968 
L 566.996657 -158.504902 
L 566.221011 -158.530375 
L 565.445364 -158.556103 
L 564.669718 -158.582089 
L 563.894072 -158.608334 
L 563.118425 -158.634841 
L 562.342779 -158.661614 
L 561.567133 -158.688654 
L 560.791486 -158.715964 
L 560.01584 -158.743548 
L 559.240193 -158.771406 
L 558.464547 -158.799543 
L 557.688901 -158.827962 
L 556.913254 -158.856664 
L 556.137608 -158.885652 
L 555.361962 -158.91493 
L 554.586315 -158.944501 
L 553.810669 -158.974366 
L 553.035022 -159.00453 
L 552.259376 -159.034995 
L 551.48373 -159.065764 
L 550.708083 -159.096839 
L 549.932437 -159.128225 
L 549.156791 -159.159924 
L 548.381144 -159.19194 
L 547.605498 -159.224274 
L 546.829851 -159.256931 
L 546.054205 -159.289914 
L 545.278559 -159.323225 
L 544.502912 -159.356869 
L 543.727266 -159.390848 
L 542.95162 -159.425165 
L 542.175973 -159.459825 
L 541.400327 -159.49483 
L 540.62468 -159.530183 
L 539.849034 -159.565889 
L 539.073388 -159.601951 
L 538.297741 -159.638371 
L 537.522095 -159.675154 
L 536.746449 -159.712304 
L 535.970802 -159.749823 
L 535.195156 -159.787715 
L 534.419509 -159.825985 
L 533.643863 -159.864635 
L 532.868217 -159.90367 
L 532.09257 -159.943093 
L 531.316924 -159.982908 
L 530.541278 -160.02312 
L 529.765631 -160.06373 
L 528.989985 -160.104745 
L 528.214339 -160.146167 
L 527.438692 -160.188001 
L 526.663046 -160.230251 
L 525.887399 -160.27292 
L 525.111753 -160.316013 
L 524.336107 -160.359534 
L 523.56046 -160.403487 
L 522.784814 -160.447877 
L 522.009168 -160.492707 
L 521.233521 -160.537982 
L 520.457875 -160.583706 
L 519.682228 -160.629884 
L 518.906582 -160.67652 
L 518.130936 -160.723619 
L 517.355289 -160.771184 
L 516.579643 -160.819221 
L 515.803997 -160.867734 
L 515.02835 -160.916728 
L 514.252704 -160.966207 
L 513.477057 -161.016177 
L 512.701411 -161.066641 
L 511.925765 -161.117605 
L 511.150118 -161.169074 
L 510.374472 -161.221052 
L 509.598826 -161.273545 
L 508.823179 -161.326556 
L 508.047533 -161.380093 
L 507.271886 -161.434159 
L 506.49624 -161.488759 
L 505.720594 -161.543899 
L 504.944947 -161.599584 
L 504.169301 -161.65582 
L 503.393655 -161.712611 
L 502.618008 -161.769963 
L 501.842362 -161.827881 
L 501.066715 -161.886372 
L 500.291069 -161.945439 
L 499.515423 -162.00509 
L 498.739776 -162.065329 
L 497.96413 -162.126162 
L 497.188484 -162.187595 
L 496.412837 -162.249634 
L 495.637191 -162.312284 
L 494.861545 -162.375552 
L 494.085898 -162.439443 
L 493.310252 -162.503963 
L 492.534605 -162.569119 
L 491.758959 -162.634916 
L 490.983313 -162.701361 
L 490.207666 -162.76846 
L 489.43202 -162.836218 
L 488.656374 -162.904643 
L 487.880727 -162.973741 
L 487.105081 -163.043518 
L 486.329434 -163.11398 
L 485.553788 -163.185135 
L 484.778142 -163.256988 
L 484.002495 -163.329547 
L 483.226849 -163.402819 
L 482.451203 -163.476809 
L 481.675556 -163.551525 
L 480.89991 -163.626974 
L 480.124263 -163.703162 
L 479.348617 -163.780097 
L 478.572971 -163.857786 
L 477.797324 -163.936236 
L 477.021678 -164.015455 
L 476.246032 -164.095448 
L 475.470385 -164.176225 
L 474.694739 -164.257791 
L 473.919092 -164.340156 
L 473.143446 -164.423326 
L 472.3678 -164.507308 
L 471.592153 -164.592111 
L 470.816507 -164.677742 
L 470.040861 -164.76421 
L 469.265214 -164.851521 
L 468.489568 -164.939684 
L 467.713921 -165.028707 
L 466.938275 -165.118598 
L 466.162629 -165.209365 
L 465.386982 -165.301017 
L 464.611336 -165.393561 
L 463.83569 -165.487006 
L 463.060043 -165.581361 
L 462.284397 -165.676633 
L 461.508751 -165.772832 
L 460.733104 -165.869966 
L 459.957458 -165.968044 
L 459.181811 -166.067075 
L 458.406165 -166.167067 
L 457.630519 -166.26803 
L 456.854872 -166.369973 
L 456.079226 -166.472904 
L 455.30358 -166.576833 
L 454.527933 -166.681769 
L 453.752287 -166.787721 
L 452.97664 -166.894699 
L 452.200994 -167.002713 
L 451.425348 -167.111771 
L 450.649701 -167.221884 
L 449.874055 -167.333061 
L 449.098409 -167.445312 
L 448.322762 -167.558648 
L 447.547116 -167.673077 
L 446.771469 -167.78861 
L 445.995823 -167.905257 
L 445.220177 -168.023028 
L 444.44453 -168.141934 
L 443.668884 -168.261985 
L 442.893238 -168.383192 
L 442.117591 -168.505564 
L 441.341945 -168.629113 
L 440.566298 -168.75385 
L 439.790652 -168.879784 
L 439.015006 -169.006928 
L 438.239359 -169.135292 
L 437.463713 -169.264886 
L 436.688067 -169.395723 
L 435.91242 -169.527814 
L 435.136774 -169.661169 
L 434.361128 -169.7958 
L 433.585481 -169.93172 
L 432.809835 -170.068938 
L 432.034188 -170.207468 
L 431.258542 -170.34732 
L 430.482896 -170.488507 
L 429.707249 -170.631041 
L 428.931603 -170.774933 
L 428.155957 -170.920196 
L 427.38031 -171.066842 
L 426.604664 -171.214883 
L 425.829017 -171.364333 
L 425.053371 -171.515202 
L 424.277725 -171.667505 
L 423.502078 -171.821253 
L 422.726432 -171.976459 
L 421.950786 -172.133137 
L 421.175139 -172.291298 
L 420.399493 -172.450958 
L 419.623846 -172.612127 
L 418.8482 -172.774821 
L 418.072554 -172.939052 
L 417.296907 -173.104833 
L 416.521261 -173.272178 
L 415.745615 -173.441102 
L 414.969968 -173.611616 
L 414.194322 -173.783737 
L 413.418675 -173.957476 
L 412.643029 -174.132849 
L 411.867383 -174.30987 
L 411.091736 -174.488552 
L 410.31609 -174.668911 
L 409.540444 -174.85096 
L 408.764797 -175.034714 
L 407.989151 -175.220188 
L 407.213504 -175.407397 
L 406.437858 -175.596354 
L 405.662212 -175.787076 
L 404.886565 -175.979578 
L 404.110919 -176.173873 
L 403.335273 -176.369979 
L 402.559626 -176.567909 
L 401.78398 -176.76768 
L 401.008334 -176.969307 
L 400.232687 -177.172805 
L 399.457041 -177.37819 
L 398.681394 -177.585479 
L 397.905748 -177.794687 
L 397.130102 -178.005829 
L 396.354455 -178.218923 
L 395.578809 -178.433985 
L 394.803163 -178.65103 
L 394.027516 -178.870075 
L 393.25187 -179.091137 
L 392.476223 -179.314232 
L 391.700577 -179.539377 
L 390.924931 -179.766589 
L 390.149284 -179.995884 
L 389.373638 -180.227281 
L 388.597992 -180.460795 
L 387.822345 -180.696444 
L 387.046699 -180.934246 
L 386.271052 -181.174217 
L 385.495406 -181.416375 
L 384.71976 -181.660738 
L 383.944113 -181.907324 
L 383.168467 -182.15615 
L 382.392821 -182.407234 
L 381.617174 -182.660594 
L 380.841528 -182.916248 
L 380.065881 -183.174214 
L 379.290235 -183.434511 
L 378.514589 -183.697156 
L 377.738942 -183.962169 
L 376.963296 -184.229567 
L 376.18765 -184.499369 
L 375.412003 -184.771595 
L 374.636357 -185.046262 
L 373.86071 -185.32339 
L 373.085064 -185.602997 
L 372.309418 -185.885102 
L 371.533771 -186.169726 
L 370.758125 -186.456885 
L 369.982479 -186.746601 
L 369.206832 -187.038893 
L 368.431186 -187.333778 
L 367.65554 -187.631279 
L 366.879893 -187.931413 
L 366.104247 -188.2342 
L 365.3286 -188.539661 
L 364.552954 -188.847814 
L 363.777308 -189.158681 
L 363.001661 -189.47228 
L 362.226015 -189.788632 
L 361.450369 -190.107756 
L 360.674722 -190.429674 
L 359.899076 -190.754405 
L 359.123429 -191.081969 
L 358.347783 -191.412386 
L 357.572137 -191.745678 
L 356.79649 -192.081864 
L 356.020844 -192.420965 
L 355.245198 -192.763002 
L 354.469551 -193.107994 
L 353.693905 -193.455963 
L 352.918258 -193.80693 
L 352.142612 -194.160915 
L 351.366966 -194.517938 
L 350.591319 -194.878021 
L 349.815673 -195.241184 
L 349.040027 -195.607449 
L 348.26438 -195.976836 
L 347.488734 -196.349366 
L 346.713087 -196.72506 
L 345.937441 -197.10394 
L 345.161795 -197.486025 
L 344.386148 -197.871337 
L 343.610502 -198.259898 
L 342.834856 -198.651728 
L 342.059209 -199.046848 
L 341.283563 -199.44528 
L 340.507916 -199.847044 
L 339.73227 -200.252161 
L 338.956624 -200.660653 
L 338.180977 -201.072541 
L 337.405331 -201.487845 
L 336.629685 -201.906588 
L 335.854038 -202.328789 
L 335.078392 -202.75447 
L 334.302746 -203.183651 
L 333.527099 -203.616355 
L 332.751453 -204.052601 
L 331.975806 -204.492412 
L 331.20016 -204.935806 
L 330.424514 -205.382806 
L 329.648867 -205.833432 
L 328.873221 -206.287706 
L 328.097575 -206.745646 
L 327.321928 -207.207275 
L 326.546282 -207.672613 
L 325.770635 -208.14168 
L 324.994989 -208.614496 
L 324.219343 -209.091083 
L 323.443696 -209.57146 
L 322.66805 -210.055647 
L 321.892404 -210.543665 
L 321.116757 -211.035534 
L 320.341111 -211.531273 
L 319.565464 -212.030902 
L 318.789818 -212.534441 
L 318.014172 -213.041909 
L 317.238525 -213.553327 
L 316.462879 -214.068712 
L 315.687233 -214.588085 
L 314.911586 -215.111465 
L 314.13594 -215.63887 
L 313.360293 -216.170318 
L 312.584647 -216.70583 
L 311.809001 -217.245422 
L 311.033354 -217.789114 
L 310.257708 -218.336923 
L 309.482062 -218.888868 
L 308.706415 -219.444965 
L 307.930769 -220.005233 
L 307.155122 -220.569689 
L 306.379476 -221.13835 
L 305.60383 -221.711233 
L 304.828183 -222.288354 
L 304.052537 -222.86973 
L 303.276891 -223.455378 
L 302.501244 -224.045312 
L 301.725598 -224.63955 
L 300.949952 -225.238106 
L 300.174305 -225.840995 
L 299.398659 -226.448233 
L 298.623012 -227.059834 
L 297.847366 -227.675813 
L 297.07172 -228.296183 
L 296.296073 -228.920959 
L 295.520427 -229.550154 
L 294.744781 -230.183781 
L 293.969134 -230.821852 
L 293.193488 -231.464381 
L 292.417841 -232.11138 
L 291.642195 -232.762859 
L 290.866549 -233.418832 
L 290.090902 -234.079308 
L 289.315256 -234.744299 
L 288.53961 -235.413815 
L 287.763963 -236.087865 
L 286.988317 -236.76646 
L 286.21267 -237.449608 
L 285.437024 -238.137318 
L 284.661378 -238.829599 
L 283.885731 -239.526458 
L 283.110085 -240.227902 
L 282.334439 -240.933939 
L 281.558792 -241.644575 
L 280.783146 -242.359816 
L 280.007499 -243.079667 
L 279.231853 -243.804134 
L 278.456207 -244.53322 
L 277.68056 -245.266931 
L 276.904914 -246.005269 
L 276.129268 -246.748238 
L 275.353621 -247.495839 
L 274.577975 -248.248076 
L 273.802329 -249.004948 
L 273.026682 -249.766457 
L 272.251036 -250.532602 
L 271.475389 -251.303385 
L 270.699743 -252.078802 
L 269.924097 -252.858854 
L 269.14845 -253.643536 
L 268.372804 -254.432848 
L 267.597158 -255.226784 
L 266.821511 -256.025342 
L 266.045865 -256.828515 
L 265.270218 -257.6363 
L 264.494572 -258.448688 
L 263.718926 -259.265674 
L 262.943279 -260.08725 
L 262.167633 -260.913408 
L 261.391987 -261.744138 
L 260.61634 -262.579432 
L 259.840694 -263.419278 
L 259.065047 -264.263665 
L 258.289401 -265.112582 
L 257.513755 -265.966015 
L 256.738108 -266.823951 
L 255.962462 -267.686377 
L 255.186816 -268.553276 
L 254.411169 -269.424633 
L 253.635523 -270.300432 
L 252.859876 -271.180654 
L 252.08423 -272.065281 
L 251.308584 -272.954295 
L 250.532937 -273.847675 
L 249.757291 -274.7454 
L 248.981645 -275.647448 
L 248.205998 -276.553797 
L 247.430352 -277.464424 
L 246.654705 -278.379303 
L 245.879059 -279.29841 
L 245.103413 -280.221718 
L 244.327766 -281.149201 
L 243.55212 -282.080829 
L 242.776474 -283.016574 
L 242.000827 -283.956406 
L 241.225181 -284.900294 
L 240.449535 -285.848206 
L 239.673888 -286.800109 
L 238.898242 -287.75597 
L 238.122595 -288.715753 
L 237.346949 -289.679423 
L 236.571303 -290.646943 
L 235.795656 -291.618275 
L 235.02001 -292.59338 
L 234.244364 -293.572218 
L 233.468717 -294.554749 
L 232.693071 -295.54093 
L 231.917424 -296.530719 
L 231.141778 -297.524071 
L 230.366132 -298.520941 
L 229.590485 -299.521284 
L 228.814839 -300.525052 
L 228.039193 -301.532197 
L 227.263546 -302.542668 
L 226.4879 -303.556417 
L 225.712253 -304.573391 
L 224.936607 -305.593538 
L 224.160961 -306.616804 
L 223.385314 -307.643134 
L 222.609668 -308.672472 
L 221.834022 -309.704761 
L 221.058375 -310.739943 
L 220.282729 -311.777958 
L 219.507082 -312.818746 
L 218.731436 -313.862245 
L 217.95579 -314.908392 
L 217.180143 -315.957123 
L 216.404497 -317.008373 
L 215.628851 -318.062076 
L 214.853204 -319.118164 
L 214.077558 -320.176568 
L 213.301911 -321.237218 
L 212.526265 -322.300043 
L 211.750619 -323.364971 
L 210.974972 -324.431927 
L 210.199326 -325.500836 
L 209.42368 -326.571623 
L 208.648033 -327.64421 
L 207.872387 -328.718517 
L 207.096741 -329.794465 
L 206.321094 -330.871971 
L 205.545448 -331.950954 
L 204.769801 -333.031327 
L 203.994155 -334.113006 
L 203.218509 -335.195903 
L 202.442862 -336.27993 
L 201.667216 -337.364995 
L 200.89157 -338.451007 
L 200.115923 -339.537873 
L 199.340277 -340.625497 
L 198.56463 -341.713782 
L 197.788984 -342.80263 
L 197.013338 -343.89194 
L 196.237691 -344.98161 
L 195.462045 -346.071535 
L 194.686399 -347.16161 
L 193.910752 -348.251725 
L 193.135106 -349.341771 
L 192.359459 -350.431634 
L 191.583813 -351.521199 
L 190.808167 -352.610348 
L 190.03252 -353.698962 
L 189.256874 -354.786917 
L 188.481228 -355.874087 
L 187.705581 -356.960344 
L 186.929935 -358.045555 
L 186.154288 -359.129585 
L 185.378642 -360.212295 
L 184.602996 -361.293542 
L 183.827349 -362.373179 
L 183.051703 -363.451057 
L 182.276057 -364.527019 
L 181.50041 -365.600905 
L 180.724764 -366.672551 
L 179.949117 -367.741786 
L 179.173471 -368.808434 
L 178.397825 -369.872313 
L 177.622178 -370.933233 
L 176.846532 -371.991001 
L 176.070886 -373.045412 
L 175.295239 -374.096255 
L 174.519593 -375.143312 
L 173.743947 -376.186355 
L 172.9683 -377.225144 
L 172.192654 -378.259432 
L 171.417007 -379.288959 
L 170.641361 -380.313453 
L 169.865715 -381.33263 
L 169.090068 -382.346193 
L 168.314422 -383.353828 
L 167.538776 -384.355205 
L 166.763129 -385.34998 
L 165.987483 -386.337787 
L 165.211836 -387.318243 
L 164.43619 -388.29094 
L 163.660544 -389.255451 
L 162.884897 -390.21132 
L 162.109251 -391.158067 
L 161.333605 -392.095181 
L 160.557958 -393.02212 
L 159.782312 -393.938307 
L 159.006665 -394.843128 
L 158.231019 -395.735928 
L 157.455373 -396.616008 
L 156.679726 -397.482622 
L 155.90408 -398.33497 
L 155.128434 -399.172194 
L 154.352787 -399.993375 
L 153.577141 -400.797525 
L 152.801494 -401.583577 
L 152.025848 -402.350385 
L 151.250202 -403.096708 
L 150.474555 -403.821204 
L 149.698909 -404.522419 
L 148.923263 -405.198773 
L 148.147616 -405.848546 
L 147.37197 -406.469865 
L 146.596323 -407.060678 
L 145.820677 -407.61874 
L 145.045031 -408.141586 
L 144.269384 -408.626499 
L 143.493738 -409.07048 
L 142.718092 -409.470209 
L 141.942445 -409.821996 
L 141.166799 -410.121731 
L 140.391153 -410.364818 
L 139.615506 -410.546101 
L 138.83986 -410.659771 
L 138.064213 -410.699264 
L 137.288567 -410.657124 
L 136.512921 -410.593587 
L 135.737274 -410.687074 
L 134.961628 -410.686592 
L 134.185982 -410.580527 
L 133.410335 -410.639908 
L 132.634689 -410.699264 
L 131.859042 -410.633962 
L 131.083396 -410.533156 
L 130.30775 -410.679704 
L 129.532103 -410.678476 
L 128.756457 -410.499821 
L 127.980811 -410.597693 
L 127.205164 -410.699264 
L 126.429518 -410.57962 
L 125.653871 -410.17576 
L 124.878225 -409.402794 
L 124.102579 -408.144208 
L 123.326932 -406.236483 
L 122.551286 -403.443985 
L 121.77564 -399.41629 
L 120.999993 -393.612361 
L 120.224347 -385.158612 
L 119.4487 -372.566236 
L 118.673054 -353.124414 
L 117.897408 -321.470392 
L 117.121761 -265.791043 
z
" style="stroke: #ffa500; stroke-opacity: 0.3"/>
    </defs>
    <g clip-path="url(#pc1980ef7bf)">
     <use xlink:href="#ma4d5b43bbc" x="0" y="540.100875" style="fill: #ffa500; fill-opacity: 0.3; stroke: #ffa500; stroke-opacity: 0.3"/>
    </g>
   </g>
   <g id="PolyCollection_2">
    <defs>
     <path id="m088a6939d4" d="M 117.121761 -464.06096 
L 117.121761 -397.116121 
L 117.897408 -450.864899 
L 118.673054 -467.331633 
L 119.4487 -473.524795 
L 120.224347 -476.220388 
L 120.999993 -477.530684 
L 121.77564 -478.225437 
L 122.551286 -478.620647 
L 123.326932 -478.858897 
L 124.102579 -479.009679 
L 124.878225 -479.109112 
L 125.653871 -479.177024 
L 126.429518 -479.224817 
L 127.205164 -479.259326 
L 127.980811 -479.28479 
L 128.756457 -479.303928 
L 129.532103 -479.318529 
L 130.30775 -479.3298 
L 131.083396 -479.338576 
L 131.859042 -479.343679 
L 132.634689 -479.336209 
L 133.410335 -479.327415 
L 134.185982 -479.317166 
L 134.961628 -479.305309 
L 135.737274 -479.291664 
L 136.512921 -479.27603 
L 137.288567 -479.258179 
L 138.064213 -479.237855 
L 138.83986 -479.214775 
L 139.615506 -479.188628 
L 140.391153 -479.159068 
L 141.166799 -479.125719 
L 141.942445 -479.08817 
L 142.718092 -479.045971 
L 143.493738 -478.998637 
L 144.269384 -478.945641 
L 145.045031 -478.886414 
L 145.820677 -478.820343 
L 146.596323 -478.746773 
L 147.37197 -478.665 
L 148.147616 -478.574273 
L 148.923263 -478.473791 
L 149.698909 -478.362706 
L 150.474555 -478.240117 
L 151.250202 -478.105074 
L 152.025848 -477.956576 
L 152.801494 -477.793568 
L 153.577141 -477.614949 
L 154.352787 -477.419565 
L 155.128434 -477.206213 
L 155.90408 -476.973645 
L 156.679726 -476.720566 
L 157.455373 -476.445636 
L 158.231019 -476.147477 
L 159.006665 -475.824669 
L 159.782312 -475.475761 
L 160.557958 -475.099269 
L 161.333605 -474.69368 
L 162.109251 -474.257462 
L 162.884897 -473.789062 
L 163.660544 -473.286915 
L 164.43619 -472.749448 
L 165.211836 -472.175088 
L 165.987483 -471.562262 
L 166.763129 -470.90941 
L 167.538776 -470.214989 
L 168.314422 -469.477476 
L 169.090068 -468.695379 
L 169.865715 -467.867243 
L 170.641361 -466.991655 
L 171.417007 -466.06725 
L 172.192654 -465.09272 
L 172.9683 -464.066822 
L 173.743947 -462.988377 
L 174.519593 -461.856284 
L 175.295239 -460.669522 
L 176.070886 -459.427157 
L 176.846532 -458.128346 
L 177.622178 -456.772343 
L 178.397825 -455.358503 
L 179.173471 -453.886286 
L 179.949117 -452.35526 
L 180.724764 -450.765108 
L 181.50041 -449.115625 
L 182.276057 -447.406723 
L 183.051703 -445.638434 
L 183.827349 -443.810909 
L 184.602996 -441.924419 
L 185.378642 -439.979355 
L 186.154288 -437.976229 
L 186.929935 -435.915669 
L 187.705581 -433.798423 
L 188.481228 -431.625352 
L 189.256874 -429.397431 
L 190.03252 -427.115743 
L 190.808167 -424.781478 
L 191.583813 -422.395928 
L 192.359459 -419.960482 
L 193.135106 -417.476624 
L 193.910752 -414.945926 
L 194.686399 -412.370042 
L 195.462045 -409.750705 
L 196.237691 -407.08972 
L 197.013338 -404.388957 
L 197.788984 -401.65035 
L 198.56463 -398.875882 
L 199.340277 -396.067589 
L 200.115923 -393.227546 
L 200.89157 -390.357864 
L 201.667216 -387.460686 
L 202.442862 -384.538174 
L 203.218509 -381.592512 
L 203.994155 -378.625893 
L 204.769801 -375.640515 
L 205.545448 -372.638578 
L 206.321094 -369.622276 
L 207.096741 -366.593791 
L 207.872387 -363.55529 
L 208.648033 -360.50892 
L 209.42368 -357.456803 
L 210.199326 -354.40103 
L 210.974972 -351.343659 
L 211.750619 -348.286712 
L 212.526265 -345.232168 
L 213.301911 -342.181962 
L 214.077558 -339.137983 
L 214.853204 -336.10207 
L 215.628851 -333.076008 
L 216.404497 -330.061528 
L 217.180143 -327.060305 
L 217.95579 -324.073955 
L 218.731436 -321.104036 
L 219.507082 -318.152043 
L 220.282729 -315.21941 
L 221.058375 -312.307508 
L 221.834022 -309.417647 
L 222.609668 -306.551071 
L 223.385314 -303.708963 
L 224.160961 -300.892441 
L 224.936607 -298.102559 
L 225.712253 -295.340312 
L 226.4879 -292.60663 
L 227.263546 -289.902381 
L 228.039193 -287.228375 
L 228.814839 -284.585362 
L 229.590485 -281.974031 
L 230.366132 -279.395017 
L 231.141778 -276.848897 
L 231.917424 -274.336193 
L 232.693071 -271.857376 
L 233.468717 -269.412863 
L 234.244364 -267.00302 
L 235.02001 -264.628168 
L 235.795656 -262.288578 
L 236.571303 -259.984475 
L 237.346949 -257.716042 
L 238.122595 -255.483419 
L 238.898242 -253.286705 
L 239.673888 -251.125962 
L 240.449535 -249.001212 
L 241.225181 -246.912443 
L 242.000827 -244.85961 
L 242.776474 -242.842635 
L 243.55212 -240.86141 
L 244.327766 -238.915795 
L 245.103413 -237.005627 
L 245.879059 -235.130714 
L 246.654705 -233.290841 
L 247.430352 -231.485769 
L 248.205998 -229.715239 
L 248.981645 -227.97897 
L 249.757291 -226.276664 
L 250.532937 -224.608004 
L 251.308584 -222.972658 
L 252.08423 -221.370278 
L 252.859876 -219.800504 
L 253.635523 -218.262961 
L 254.411169 -216.757265 
L 255.186816 -215.283019 
L 255.962462 -213.839818 
L 256.738108 -212.427249 
L 257.513755 -211.04489 
L 258.289401 -209.692315 
L 259.065047 -208.369088 
L 259.840694 -207.074773 
L 260.61634 -205.808925 
L 261.391987 -204.5711 
L 262.167633 -203.360849 
L 262.943279 -202.17772 
L 263.718926 -201.021262 
L 264.494572 -199.891021 
L 265.270218 -198.786544 
L 266.045865 -197.707378 
L 266.821511 -196.653071 
L 267.597158 -195.623172 
L 268.372804 -194.61723 
L 269.14845 -193.634799 
L 269.924097 -192.675434 
L 270.699743 -191.738693 
L 271.475389 -190.824136 
L 272.251036 -189.931328 
L 273.026682 -189.059838 
L 273.802329 -188.209237 
L 274.577975 -187.379103 
L 275.353621 -186.569015 
L 276.129268 -185.778559 
L 276.904914 -185.007327 
L 277.68056 -184.254912 
L 278.456207 -183.520916 
L 279.231853 -182.804944 
L 280.007499 -182.106608 
L 280.783146 -181.425524 
L 281.558792 -180.761315 
L 282.334439 -180.113608 
L 283.110085 -179.482038 
L 283.885731 -178.866243 
L 284.661378 -178.265869 
L 285.437024 -177.680567 
L 286.21267 -177.109995 
L 286.988317 -176.553815 
L 287.763963 -176.011696 
L 288.53961 -175.483313 
L 289.315256 -174.968346 
L 290.090902 -174.466482 
L 290.866549 -173.977414 
L 291.642195 -173.50084 
L 292.417841 -173.036463 
L 293.193488 -172.583995 
L 293.969134 -172.143149 
L 294.744781 -171.713648 
L 295.520427 -171.295218 
L 296.296073 -170.887592 
L 297.07172 -170.490507 
L 297.847366 -170.103707 
L 298.623012 -169.726941 
L 299.398659 -169.359963 
L 300.174305 -169.002532 
L 300.949952 -168.654413 
L 301.725598 -168.315375 
L 302.501244 -167.985193 
L 303.276891 -167.663647 
L 304.052537 -167.350521 
L 304.828183 -167.045605 
L 305.60383 -166.748692 
L 306.379476 -166.459582 
L 307.155122 -166.178077 
L 307.930769 -165.903987 
L 308.706415 -165.637122 
L 309.482062 -165.377299 
L 310.257708 -165.12434 
L 311.033354 -164.87807 
L 311.809001 -164.638318 
L 312.584647 -164.404916 
L 313.360293 -164.177703 
L 314.13594 -163.956518 
L 314.911586 -163.741208 
L 315.687233 -163.531621 
L 316.462879 -163.327609 
L 317.238525 -163.129028 
L 318.014172 -162.935737 
L 318.789818 -162.747599 
L 319.565464 -162.56448 
L 320.341111 -162.386249 
L 321.116757 -162.21278 
L 321.892404 -162.043948 
L 322.66805 -161.879632 
L 323.443696 -161.719713 
L 324.219343 -161.564078 
L 324.994989 -161.412612 
L 325.770635 -161.265207 
L 326.546282 -161.121757 
L 327.321928 -160.982156 
L 328.097575 -160.846304 
L 328.873221 -160.714102 
L 329.648867 -160.585454 
L 330.424514 -160.460265 
L 331.20016 -160.338444 
L 331.975806 -160.219902 
L 332.751453 -160.104553 
L 333.527099 -159.99231 
L 334.302746 -159.883093 
L 335.078392 -159.776821 
L 335.854038 -159.673414 
L 336.629685 -159.572798 
L 337.405331 -159.474898 
L 338.180977 -159.379641 
L 338.956624 -159.286957 
L 339.73227 -159.196778 
L 340.507916 -159.109036 
L 341.283563 -159.023666 
L 342.059209 -158.940605 
L 342.834856 -158.859792 
L 343.610502 -158.781165 
L 344.386148 -158.704667 
L 345.161795 -158.63024 
L 345.937441 -158.557829 
L 346.713087 -158.487379 
L 347.488734 -158.418839 
L 348.26438 -158.352156 
L 349.040027 -158.287282 
L 349.815673 -158.224166 
L 350.591319 -158.162763 
L 351.366966 -158.103026 
L 352.142612 -158.044909 
L 352.918258 -157.98837 
L 353.693905 -157.933366 
L 354.469551 -157.879856 
L 355.245198 -157.827798 
L 356.020844 -157.777155 
L 356.79649 -157.727888 
L 357.572137 -157.679959 
L 358.347783 -157.633333 
L 359.123429 -157.587975 
L 359.899076 -157.543849 
L 360.674722 -157.500924 
L 361.450369 -157.459165 
L 362.226015 -157.418543 
L 363.001661 -157.379025 
L 363.777308 -157.340583 
L 364.552954 -157.303187 
L 365.3286 -157.266809 
L 366.104247 -157.23142 
L 366.879893 -157.196995 
L 367.65554 -157.163508 
L 368.431186 -157.130932 
L 369.206832 -157.099243 
L 369.982479 -157.068417 
L 370.758125 -157.038431 
L 371.533771 -157.009262 
L 372.309418 -156.980887 
L 373.085064 -156.953286 
L 373.86071 -156.926436 
L 374.636357 -156.900319 
L 375.412003 -156.874913 
L 376.18765 -156.850199 
L 376.963296 -156.826159 
L 377.738942 -156.802775 
L 378.514589 -156.780028 
L 379.290235 -156.757901 
L 380.065881 -156.736378 
L 380.841528 -156.715442 
L 381.617174 -156.695076 
L 382.392821 -156.675267 
L 383.168467 -156.655997 
L 383.944113 -156.637253 
L 384.71976 -156.61902 
L 385.495406 -156.601285 
L 386.271052 -156.584034 
L 387.046699 -156.567253 
L 387.822345 -156.550931 
L 388.597992 -156.535053 
L 389.373638 -156.519609 
L 390.149284 -156.504587 
L 390.924931 -156.489974 
L 391.700577 -156.47576 
L 392.476223 -156.461935 
L 393.25187 -156.448486 
L 394.027516 -156.435405 
L 394.803163 -156.422681 
L 395.578809 -156.410304 
L 396.354455 -156.398266 
L 397.130102 -156.386556 
L 397.905748 -156.375165 
L 398.681394 -156.364086 
L 399.457041 -156.353309 
L 400.232687 -156.342827 
L 401.008334 -156.33263 
L 401.78398 -156.322712 
L 402.559626 -156.313066 
L 403.335273 -156.303682 
L 404.110919 -156.294555 
L 404.886565 -156.285677 
L 405.662212 -156.277042 
L 406.437858 -156.268642 
L 407.213504 -156.260472 
L 407.989151 -156.252525 
L 408.764797 -156.244795 
L 409.540444 -156.237277 
L 410.31609 -156.229963 
L 411.091736 -156.22285 
L 411.867383 -156.215931 
L 412.643029 -156.209201 
L 413.418675 -156.202655 
L 414.194322 -156.196287 
L 414.969968 -156.190094 
L 415.745615 -156.18407 
L 416.521261 -156.17821 
L 417.296907 -156.172511 
L 418.072554 -156.166967 
L 418.8482 -156.161575 
L 419.623846 -156.15633 
L 420.399493 -156.151229 
L 421.175139 -156.146266 
L 421.950786 -156.14144 
L 422.726432 -156.136745 
L 423.502078 -156.132179 
L 424.277725 -156.127738 
L 425.053371 -156.123417 
L 425.829017 -156.119215 
L 426.604664 -156.115128 
L 427.38031 -156.111153 
L 428.155957 -156.107286 
L 428.931603 -156.103525 
L 429.707249 -156.099866 
L 430.482896 -156.096308 
L 431.258542 -156.092847 
L 432.034188 -156.08948 
L 432.809835 -156.086206 
L 433.585481 -156.083021 
L 434.361128 -156.079923 
L 435.136774 -156.07691 
L 435.91242 -156.073979 
L 436.688067 -156.071128 
L 437.463713 -156.068355 
L 438.239359 -156.065658 
L 439.015006 -156.063035 
L 439.790652 -156.060483 
L 440.566298 -156.058001 
L 441.341945 -156.055587 
L 442.117591 -156.053239 
L 442.893238 -156.050955 
L 443.668884 -156.048734 
L 444.44453 -156.046573 
L 445.220177 -156.044472 
L 445.995823 -156.042427 
L 446.771469 -156.040439 
L 447.547116 -156.038505 
L 448.322762 -156.036624 
L 449.098409 -156.034795 
L 449.874055 -156.033015 
L 450.649701 -156.031284 
L 451.425348 -156.0296 
L 452.200994 -156.027963 
L 452.97664 -156.02637 
L 453.752287 -156.024821 
L 454.527933 -156.023314 
L 455.30358 -156.021848 
L 456.079226 -156.020422 
L 456.854872 -156.019036 
L 457.630519 -156.017687 
L 458.406165 -156.016375 
L 459.181811 -156.015099 
L 459.957458 -156.013858 
L 460.733104 -156.012651 
L 461.508751 -156.011477 
L 462.284397 -156.010335 
L 463.060043 -156.009224 
L 463.83569 -156.008143 
L 464.611336 -156.007092 
L 465.386982 -156.00607 
L 466.162629 -156.005076 
L 466.938275 -156.004109 
L 467.713921 -156.003168 
L 468.489568 -156.002253 
L 469.265214 -156.001363 
L 470.040861 -156.000498 
L 470.816507 -155.999656 
L 471.592153 -155.998837 
L 472.3678 -155.99804 
L 473.143446 -155.997266 
L 473.919092 -155.996512 
L 474.694739 -155.995779 
L 475.470385 -155.995066 
L 476.246032 -155.994373 
L 477.021678 -155.993698 
L 477.797324 -155.993042 
L 478.572971 -155.992404 
L 479.348617 -155.991784 
L 480.124263 -155.99118 
L 480.89991 -155.990593 
L 481.675556 -155.990022 
L 482.451203 -155.989466 
L 483.226849 -155.988926 
L 484.002495 -155.988401 
L 484.778142 -155.987889 
L 485.553788 -155.987392 
L 486.329434 -155.986909 
L 487.105081 -155.986438 
L 487.880727 -155.985981 
L 488.656374 -155.985536 
L 489.43202 -155.985103 
L 490.207666 -155.984682 
L 490.983313 -155.984273 
L 491.758959 -155.983874 
L 492.534605 -155.983487 
L 493.310252 -155.98311 
L 494.085898 -155.982744 
L 494.861545 -155.982387 
L 495.637191 -155.982041 
L 496.412837 -155.981703 
L 497.188484 -155.981375 
L 497.96413 -155.981056 
L 498.739776 -155.980746 
L 499.515423 -155.980444 
L 500.291069 -155.980151 
L 501.066715 -155.979865 
L 501.842362 -155.979587 
L 502.618008 -155.979317 
L 503.393655 -155.979054 
L 504.169301 -155.978799 
L 504.944947 -155.97855 
L 505.720594 -155.978308 
L 506.49624 -155.978073 
L 507.271886 -155.977844 
L 508.047533 -155.977622 
L 508.823179 -155.977406 
L 509.598826 -155.977195 
L 510.374472 -155.97699 
L 511.150118 -155.976791 
L 511.925765 -155.976597 
L 512.701411 -155.976409 
L 513.477057 -155.976226 
L 514.252704 -155.976048 
L 515.02835 -155.975874 
L 515.803997 -155.975706 
L 516.579643 -155.975542 
L 517.355289 -155.975382 
L 518.130936 -155.975227 
L 518.906582 -155.975076 
L 519.682228 -155.974929 
L 520.457875 -155.974786 
L 521.233521 -155.974648 
L 522.009168 -155.974512 
L 522.784814 -155.974381 
L 523.56046 -155.974253 
L 524.336107 -155.974129 
L 525.111753 -155.974008 
L 525.887399 -155.97389 
L 526.663046 -155.973776 
L 527.438692 -155.973665 
L 528.214339 -155.973557 
L 528.989985 -155.973451 
L 529.765631 -155.973349 
L 530.541278 -155.973249 
L 531.316924 -155.973153 
L 532.09257 -155.973058 
L 532.868217 -155.972967 
L 533.643863 -155.972878 
L 534.419509 -155.972791 
L 535.195156 -155.972707 
L 535.970802 -155.972625 
L 536.746449 -155.972545 
L 537.522095 -155.972467 
L 538.297741 -155.972392 
L 539.073388 -155.972318 
L 539.849034 -155.972247 
L 540.62468 -155.972178 
L 541.400327 -155.97211 
L 542.175973 -155.972044 
L 542.95162 -155.971981 
L 543.727266 -155.971918 
L 544.502912 -155.971858 
L 545.278559 -155.971799 
L 546.054205 -155.971742 
L 546.829851 -155.971686 
L 547.605498 -155.971632 
L 548.381144 -155.97158 
L 549.156791 -155.971528 
L 549.932437 -155.971479 
L 550.708083 -155.97143 
L 551.48373 -155.971383 
L 552.259376 -155.971337 
L 553.035022 -155.971293 
L 553.810669 -155.971249 
L 554.586315 -155.971207 
L 555.361962 -155.971166 
L 556.137608 -155.971126 
L 556.913254 -155.971088 
L 557.688901 -155.97105 
L 558.464547 -155.971013 
L 559.240193 -155.970977 
L 560.01584 -155.970943 
L 560.791486 -155.970909 
L 561.567133 -155.970876 
L 562.342779 -155.970844 
L 563.118425 -155.970813 
L 563.894072 -155.970783 
L 564.669718 -155.970753 
L 565.445364 -155.970725 
L 566.221011 -155.970697 
L 566.996657 -155.97067 
L 567.772303 -155.970644 
L 568.54795 -155.970618 
L 569.323596 -155.970593 
L 570.099243 -155.970569 
L 570.874889 -155.970545 
L 571.650535 -155.970523 
L 572.426182 -155.9705 
L 573.201828 -155.970479 
L 573.977474 -155.970457 
L 574.753121 -155.970437 
L 575.528767 -155.970417 
L 576.304414 -155.970398 
L 577.08006 -155.970379 
L 577.855706 -155.97036 
L 578.631353 -155.970343 
L 579.406999 -155.970325 
L 580.182645 -155.970308 
L 580.958292 -155.970292 
L 581.733938 -155.970276 
L 582.509585 -155.97026 
L 583.285231 -155.970245 
L 584.060877 -155.970231 
L 584.836524 -155.970216 
L 585.61217 -155.970202 
L 586.387816 -155.970189 
L 587.163463 -155.970176 
L 587.939109 -155.970163 
L 588.714756 -155.97015 
L 589.490402 -155.970138 
L 590.266048 -155.970127 
L 591.041695 -155.970115 
L 591.817341 -155.970104 
L 592.592987 -155.970093 
L 593.368634 -155.970083 
L 594.14428 -155.970072 
L 594.919927 -155.970062 
L 595.695573 -155.970053 
L 596.471219 -155.970043 
L 597.246866 -155.970034 
L 598.022512 -155.970025 
L 598.798158 -155.970016 
L 599.573805 -155.970008 
L 600.349451 -155.97 
L 601.125097 -155.969992 
L 601.900744 -155.969984 
L 602.67639 -155.969977 
L 603.452037 -155.969969 
L 604.227683 -155.969962 
L 605.003329 -155.969955 
L 605.778976 -155.969948 
L 606.554622 -155.969942 
L 607.330268 -155.969935 
L 608.105915 -155.969929 
L 608.881561 -155.969923 
L 609.657208 -155.969917 
L 610.432854 -155.969911 
L 611.2085 -155.969906 
L 611.984147 -155.9699 
L 612.759793 -155.969895 
L 613.535439 -155.96989 
L 614.311086 -155.969885 
L 615.086732 -155.96988 
L 615.862379 -155.969875 
L 616.638025 -155.969871 
L 617.413671 -155.969866 
L 618.189318 -155.969862 
L 618.964964 -155.969858 
L 619.74061 -155.969854 
L 620.516257 -155.96985 
L 621.291903 -155.969846 
L 622.06755 -155.969842 
L 622.843196 -155.969838 
L 623.618842 -155.969835 
L 624.394489 -155.969831 
L 624.394489 -166.656994 
L 624.394489 -166.656994 
L 623.618842 -166.76277 
L 622.843196 -166.869572 
L 622.06755 -166.977409 
L 621.291903 -167.08629 
L 620.516257 -167.196225 
L 619.74061 -167.307225 
L 618.964964 -167.419298 
L 618.189318 -167.532455 
L 617.413671 -167.646706 
L 616.638025 -167.762061 
L 615.862379 -167.87853 
L 615.086732 -167.996123 
L 614.311086 -168.11485 
L 613.535439 -168.234723 
L 612.759793 -168.35575 
L 611.984147 -168.477944 
L 611.2085 -168.601315 
L 610.432854 -168.725873 
L 609.657208 -168.85163 
L 608.881561 -168.978596 
L 608.105915 -169.106782 
L 607.330268 -169.236199 
L 606.554622 -169.366859 
L 605.778976 -169.498773 
L 605.003329 -169.631952 
L 604.227683 -169.766408 
L 603.452037 -169.902152 
L 602.67639 -170.039195 
L 601.900744 -170.177551 
L 601.125097 -170.31723 
L 600.349451 -170.458244 
L 599.573805 -170.600606 
L 598.798158 -170.744327 
L 598.022512 -170.889419 
L 597.246866 -171.035896 
L 596.471219 -171.183769 
L 595.695573 -171.333051 
L 594.919927 -171.483754 
L 594.14428 -171.635891 
L 593.368634 -171.789475 
L 592.592987 -171.944519 
L 591.817341 -172.101036 
L 591.041695 -172.259038 
L 590.266048 -172.418538 
L 589.490402 -172.579551 
L 588.714756 -172.74209 
L 587.939109 -172.906167 
L 587.163463 -173.071797 
L 586.387816 -173.238992 
L 585.61217 -173.407768 
L 584.836524 -173.578137 
L 584.060877 -173.750113 
L 583.285231 -173.923711 
L 582.509585 -174.098945 
L 581.733938 -174.275829 
L 580.958292 -174.454377 
L 580.182645 -174.634603 
L 579.406999 -174.816523 
L 578.631353 -175.000151 
L 577.855706 -175.185501 
L 577.08006 -175.372589 
L 576.304414 -175.56143 
L 575.528767 -175.752037 
L 574.753121 -175.944427 
L 573.977474 -176.138615 
L 573.201828 -176.334616 
L 572.426182 -176.532446 
L 571.650535 -176.73212 
L 570.874889 -176.933654 
L 570.099243 -177.137063 
L 569.323596 -177.342363 
L 568.54795 -177.549571 
L 567.772303 -177.758702 
L 566.996657 -177.969773 
L 566.221011 -178.1828 
L 565.445364 -178.397799 
L 564.669718 -178.614786 
L 563.894072 -178.833779 
L 563.118425 -179.054793 
L 562.342779 -179.277847 
L 561.567133 -179.502955 
L 560.791486 -179.730136 
L 560.01584 -179.959407 
L 559.240193 -180.190785 
L 558.464547 -180.424286 
L 557.688901 -180.659929 
L 556.913254 -180.89773 
L 556.137608 -181.137708 
L 555.361962 -181.37988 
L 554.586315 -181.624264 
L 553.810669 -181.870878 
L 553.035022 -182.119739 
L 552.259376 -182.370865 
L 551.48373 -182.624276 
L 550.708083 -182.879989 
L 549.932437 -183.138022 
L 549.156791 -183.398394 
L 548.381144 -183.661124 
L 547.605498 -183.926229 
L 546.829851 -184.193729 
L 546.054205 -184.463643 
L 545.278559 -184.735989 
L 544.502912 -185.010787 
L 543.727266 -185.288055 
L 542.95162 -185.567813 
L 542.175973 -185.85008 
L 541.400327 -186.134875 
L 540.62468 -186.422218 
L 539.849034 -186.712129 
L 539.073388 -187.004626 
L 538.297741 -187.299729 
L 537.522095 -187.597459 
L 536.746449 -187.897835 
L 535.970802 -188.200877 
L 535.195156 -188.506606 
L 534.419509 -188.81504 
L 533.643863 -189.126201 
L 532.868217 -189.440108 
L 532.09257 -189.756782 
L 531.316924 -190.076243 
L 530.541278 -190.398512 
L 529.765631 -190.723609 
L 528.989985 -191.051555 
L 528.214339 -191.38237 
L 527.438692 -191.716075 
L 526.663046 -192.052692 
L 525.887399 -192.39224 
L 525.111753 -192.73474 
L 524.336107 -193.080214 
L 523.56046 -193.428682 
L 522.784814 -193.780166 
L 522.009168 -194.134687 
L 521.233521 -194.492265 
L 520.457875 -194.852923 
L 519.682228 -195.21668 
L 518.906582 -195.583559 
L 518.130936 -195.953581 
L 517.355289 -196.326767 
L 516.579643 -196.703138 
L 515.803997 -197.082717 
L 515.02835 -197.465524 
L 514.252704 -197.85158 
L 513.477057 -198.240908 
L 512.701411 -198.633529 
L 511.925765 -199.029464 
L 511.150118 -199.428735 
L 510.374472 -199.831363 
L 509.598826 -200.23737 
L 508.823179 -200.646778 
L 508.047533 -201.059608 
L 507.271886 -201.475882 
L 506.49624 -201.895621 
L 505.720594 -202.318847 
L 504.944947 -202.745581 
L 504.169301 -203.175845 
L 503.393655 -203.60966 
L 502.618008 -204.047048 
L 501.842362 -204.488031 
L 501.066715 -204.932629 
L 500.291069 -205.380864 
L 499.515423 -205.832758 
L 498.739776 -206.288332 
L 497.96413 -206.747606 
L 497.188484 -207.210603 
L 496.412837 -207.677343 
L 495.637191 -208.147848 
L 494.861545 -208.622138 
L 494.085898 -209.100234 
L 493.310252 -209.582158 
L 492.534605 -210.067931 
L 491.758959 -210.557572 
L 490.983313 -211.051102 
L 490.207666 -211.548543 
L 489.43202 -212.049914 
L 488.656374 -212.555236 
L 487.880727 -213.064528 
L 487.105081 -213.577813 
L 486.329434 -214.095108 
L 485.553788 -214.616434 
L 484.778142 -215.141811 
L 484.002495 -215.671258 
L 483.226849 -216.204795 
L 482.451203 -216.742442 
L 481.675556 -217.284216 
L 480.89991 -217.830138 
L 480.124263 -218.380225 
L 479.348617 -218.934498 
L 478.572971 -219.492973 
L 477.797324 -220.05567 
L 477.021678 -220.622606 
L 476.246032 -221.193799 
L 475.470385 -221.769268 
L 474.694739 -222.349029 
L 473.919092 -222.9331 
L 473.143446 -223.521497 
L 472.3678 -224.114238 
L 471.592153 -224.711338 
L 470.816507 -225.312815 
L 470.040861 -225.918684 
L 469.265214 -226.528961 
L 468.489568 -227.143662 
L 467.713921 -227.762801 
L 466.938275 -228.386393 
L 466.162629 -229.014454 
L 465.386982 -229.646997 
L 464.611336 -230.284036 
L 463.83569 -230.925586 
L 463.060043 -231.571659 
L 462.284397 -232.222268 
L 461.508751 -232.877426 
L 460.733104 -233.537145 
L 459.957458 -234.201438 
L 459.181811 -234.870315 
L 458.406165 -235.543788 
L 457.630519 -236.221867 
L 456.854872 -236.904564 
L 456.079226 -237.591887 
L 455.30358 -238.283847 
L 454.527933 -238.980453 
L 453.752287 -239.681712 
L 452.97664 -240.387635 
L 452.200994 -241.098227 
L 451.425348 -241.813497 
L 450.649701 -242.533451 
L 449.874055 -243.258096 
L 449.098409 -243.987438 
L 448.322762 -244.721481 
L 447.547116 -245.460231 
L 446.771469 -246.203692 
L 445.995823 -246.951868 
L 445.220177 -247.704762 
L 444.44453 -248.462376 
L 443.668884 -249.224713 
L 442.893238 -249.991774 
L 442.117591 -250.76356 
L 441.341945 -251.540072 
L 440.566298 -252.321309 
L 439.790652 -253.10727 
L 439.015006 -253.897954 
L 438.239359 -254.693358 
L 437.463713 -255.49348 
L 436.688067 -256.298317 
L 435.91242 -257.107864 
L 435.136774 -257.922116 
L 434.361128 -258.741068 
L 433.585481 -259.564713 
L 432.809835 -260.393046 
L 432.034188 -261.226057 
L 431.258542 -262.06374 
L 430.482896 -262.906084 
L 429.707249 -263.753079 
L 428.931603 -264.604716 
L 428.155957 -265.460982 
L 427.38031 -266.321866 
L 426.604664 -267.187355 
L 425.829017 -268.057434 
L 425.053371 -268.93209 
L 424.277725 -269.811306 
L 423.502078 -270.695067 
L 422.726432 -271.583355 
L 421.950786 -272.476152 
L 421.175139 -273.37344 
L 420.399493 -274.275199 
L 419.623846 -275.181409 
L 418.8482 -276.092047 
L 418.072554 -277.007092 
L 417.296907 -277.92652 
L 416.521261 -278.850307 
L 415.745615 -279.778427 
L 414.969968 -280.710856 
L 414.194322 -281.647565 
L 413.418675 -282.588527 
L 412.643029 -283.533714 
L 411.867383 -284.483094 
L 411.091736 -285.436637 
L 410.31609 -286.394311 
L 409.540444 -287.356084 
L 408.764797 -288.321921 
L 407.989151 -289.291788 
L 407.213504 -290.265649 
L 406.437858 -291.243466 
L 405.662212 -292.225203 
L 404.886565 -293.210819 
L 404.110919 -294.200275 
L 403.335273 -295.19353 
L 402.559626 -296.190542 
L 401.78398 -297.191268 
L 401.008334 -298.195662 
L 400.232687 -299.203681 
L 399.457041 -300.215277 
L 398.681394 -301.230404 
L 397.905748 -302.249012 
L 397.130102 -303.271052 
L 396.354455 -304.296474 
L 395.578809 -305.325225 
L 394.803163 -306.357253 
L 394.027516 -307.392504 
L 393.25187 -308.430922 
L 392.476223 -309.472453 
L 391.700577 -310.517037 
L 390.924931 -311.564618 
L 390.149284 -312.615135 
L 389.373638 -313.668529 
L 388.597992 -314.724737 
L 387.822345 -315.783696 
L 387.046699 -316.845344 
L 386.271052 -317.909616 
L 385.495406 -318.976444 
L 384.71976 -320.045763 
L 383.944113 -321.117503 
L 383.168467 -322.191597 
L 382.392821 -323.267974 
L 381.617174 -324.346562 
L 380.841528 -325.427289 
L 380.065881 -326.510082 
L 379.290235 -327.594866 
L 378.514589 -328.681566 
L 377.738942 -329.770105 
L 376.963296 -330.860407 
L 376.18765 -331.952391 
L 375.412003 -333.045979 
L 374.636357 -334.141091 
L 373.86071 -335.237644 
L 373.085064 -336.335557 
L 372.309418 -337.434745 
L 371.533771 -338.535126 
L 370.758125 -339.636612 
L 369.982479 -340.739119 
L 369.206832 -341.842559 
L 368.431186 -342.946845 
L 367.65554 -344.051886 
L 366.879893 -345.157595 
L 366.104247 -346.263879 
L 365.3286 -347.370649 
L 364.552954 -348.477811 
L 363.777308 -349.585273 
L 363.001661 -350.692942 
L 362.226015 -351.800722 
L 361.450369 -352.908519 
L 360.674722 -354.016237 
L 359.899076 -355.123779 
L 359.123429 -356.231049 
L 358.347783 -357.337948 
L 357.572137 -358.444378 
L 356.79649 -359.550241 
L 356.020844 -360.655436 
L 355.245198 -361.759863 
L 354.469551 -362.863423 
L 353.693905 -363.966014 
L 352.918258 -365.067534 
L 352.142612 -366.167882 
L 351.366966 -367.266955 
L 350.591319 -368.364651 
L 349.815673 -369.460866 
L 349.040027 -370.555498 
L 348.26438 -371.648443 
L 347.488734 -372.739596 
L 346.713087 -373.828854 
L 345.937441 -374.916113 
L 345.161795 -376.001268 
L 344.386148 -377.084215 
L 343.610502 -378.164848 
L 342.834856 -379.243065 
L 342.059209 -380.318759 
L 341.283563 -381.391826 
L 340.507916 -382.462162 
L 339.73227 -383.529662 
L 338.956624 -384.594222 
L 338.180977 -385.655738 
L 337.405331 -386.714105 
L 336.629685 -387.76922 
L 335.854038 -388.820979 
L 335.078392 -389.86928 
L 334.302746 -390.914019 
L 333.527099 -391.955093 
L 332.751453 -392.992402 
L 331.975806 -394.025843 
L 331.20016 -395.055316 
L 330.424514 -396.080719 
L 329.648867 -397.101953 
L 328.873221 -398.118919 
L 328.097575 -399.131517 
L 327.321928 -400.139651 
L 326.546282 -401.143222 
L 325.770635 -402.142134 
L 324.994989 -403.136292 
L 324.219343 -404.125601 
L 323.443696 -405.109966 
L 322.66805 -406.089296 
L 321.892404 -407.063497 
L 321.116757 -408.032479 
L 320.341111 -408.996151 
L 319.565464 -409.954426 
L 318.789818 -410.907215 
L 318.014172 -411.854431 
L 317.238525 -412.795989 
L 316.462879 -413.731805 
L 315.687233 -414.661796 
L 314.911586 -415.585879 
L 314.13594 -416.503976 
L 313.360293 -417.416006 
L 312.584647 -418.321893 
L 311.809001 -419.221559 
L 311.033354 -420.114931 
L 310.257708 -421.001936 
L 309.482062 -421.882501 
L 308.706415 -422.756556 
L 307.930769 -423.624033 
L 307.155122 -424.484866 
L 306.379476 -425.338988 
L 305.60383 -426.186337 
L 304.828183 -427.02685 
L 304.052537 -427.860468 
L 303.276891 -428.687132 
L 302.501244 -429.506785 
L 301.725598 -430.319373 
L 300.949952 -431.124843 
L 300.174305 -431.923144 
L 299.398659 -432.714226 
L 298.623012 -433.498043 
L 297.847366 -434.274549 
L 297.07172 -435.0437 
L 296.296073 -435.805455 
L 295.520427 -436.559775 
L 294.744781 -437.306621 
L 293.969134 -438.045959 
L 293.193488 -438.777755 
L 292.417841 -439.501978 
L 291.642195 -440.218597 
L 290.866549 -440.927585 
L 290.090902 -441.628917 
L 289.315256 -442.322571 
L 288.53961 -443.008523 
L 287.763963 -443.686756 
L 286.988317 -444.357251 
L 286.21267 -445.019995 
L 285.437024 -445.674973 
L 284.661378 -446.322175 
L 283.885731 -446.961593 
L 283.110085 -447.593219 
L 282.334439 -448.217048 
L 281.558792 -448.833079 
L 280.783146 -449.44131 
L 280.007499 -450.041742 
L 279.231853 -450.63438 
L 278.456207 -451.219229 
L 277.68056 -451.796297 
L 276.904914 -452.365592 
L 276.129268 -452.927126 
L 275.353621 -453.480914 
L 274.577975 -454.02697 
L 273.802329 -454.565311 
L 273.026682 -455.095958 
L 272.251036 -455.618931 
L 271.475389 -456.134254 
L 270.699743 -456.641952 
L 269.924097 -457.14205 
L 269.14845 -457.634579 
L 268.372804 -458.119569 
L 267.597158 -458.597051 
L 266.821511 -459.06706 
L 266.045865 -459.529631 
L 265.270218 -459.984803 
L 264.494572 -460.432613 
L 263.718926 -460.873102 
L 262.943279 -461.306314 
L 262.167633 -461.732291 
L 261.391987 -462.151079 
L 260.61634 -462.562725 
L 259.840694 -462.967277 
L 259.065047 -463.364785 
L 258.289401 -463.7553 
L 257.513755 -464.138874 
L 256.738108 -464.515562 
L 255.962462 -464.885419 
L 255.186816 -465.248501 
L 254.411169 -465.604864 
L 253.635523 -465.954569 
L 252.859876 -466.297675 
L 252.08423 -466.634243 
L 251.308584 -466.964335 
L 250.532937 -467.288014 
L 249.757291 -467.605344 
L 248.981645 -467.91639 
L 248.205998 -468.221217 
L 247.430352 -468.519892 
L 246.654705 -468.812483 
L 245.879059 -469.099058 
L 245.103413 -469.379686 
L 244.327766 -469.654436 
L 243.55212 -469.923378 
L 242.776474 -470.186584 
L 242.000827 -470.444124 
L 241.225181 -470.696071 
L 240.449535 -470.942497 
L 239.673888 -471.183474 
L 238.898242 -471.419077 
L 238.122595 -471.649377 
L 237.346949 -471.87445 
L 236.571303 -472.094368 
L 235.795656 -472.309208 
L 235.02001 -472.519042 
L 234.244364 -472.723945 
L 233.468717 -472.923993 
L 232.693071 -473.11926 
L 231.917424 -473.309821 
L 231.141778 -473.495751 
L 230.366132 -473.677124 
L 229.590485 -473.854015 
L 228.814839 -474.0265 
L 228.039193 -474.194651 
L 227.263546 -474.358545 
L 226.4879 -474.518254 
L 225.712253 -474.673852 
L 224.936607 -474.825413 
L 224.160961 -474.973011 
L 223.385314 -475.116718 
L 222.609668 -475.256607 
L 221.834022 -475.392749 
L 221.058375 -475.525217 
L 220.282729 -475.654082 
L 219.507082 -475.779415 
L 218.731436 -475.901285 
L 217.95579 -476.019763 
L 217.180143 -476.134918 
L 216.404497 -476.246818 
L 215.628851 -476.355531 
L 214.853204 -476.461125 
L 214.077558 -476.563667 
L 213.301911 -476.663222 
L 212.526265 -476.759856 
L 211.750619 -476.853634 
L 210.974972 -476.94462 
L 210.199326 -477.032877 
L 209.42368 -477.118467 
L 208.648033 -477.201452 
L 207.872387 -477.281894 
L 207.096741 -477.359852 
L 206.321094 -477.435386 
L 205.545448 -477.508555 
L 204.769801 -477.579416 
L 203.994155 -477.648026 
L 203.218509 -477.714441 
L 202.442862 -477.778717 
L 201.667216 -477.840908 
L 200.89157 -477.901067 
L 200.115923 -477.959248 
L 199.340277 -478.015501 
L 198.56463 -478.069879 
L 197.788984 -478.122431 
L 197.013338 -478.173206 
L 196.237691 -478.222253 
L 195.462045 -478.269619 
L 194.686399 -478.315351 
L 193.910752 -478.359494 
L 193.135106 -478.402094 
L 192.359459 -478.443193 
L 191.583813 -478.482836 
L 190.808167 -478.521064 
L 190.03252 -478.557919 
L 189.256874 -478.593442 
L 188.481228 -478.627671 
L 187.705581 -478.660646 
L 186.929935 -478.692404 
L 186.154288 -478.722983 
L 185.378642 -478.752419 
L 184.602996 -478.780747 
L 183.827349 -478.808001 
L 183.051703 -478.834217 
L 182.276057 -478.859426 
L 181.50041 -478.88366 
L 180.724764 -478.906952 
L 179.949117 -478.929331 
L 179.173471 -478.950828 
L 178.397825 -478.971471 
L 177.622178 -478.99129 
L 176.846532 -479.01031 
L 176.070886 -479.02856 
L 175.295239 -479.046065 
L 174.519593 -479.062851 
L 173.743947 -479.078942 
L 172.9683 -479.094362 
L 172.192654 -479.109136 
L 171.417007 -479.123284 
L 170.641361 -479.13683 
L 169.865715 -479.149795 
L 169.090068 -479.162199 
L 168.314422 -479.174062 
L 167.538776 -479.185405 
L 166.763129 -479.196245 
L 165.987483 -479.206601 
L 165.211836 -479.21649 
L 164.43619 -479.225931 
L 163.660544 -479.234938 
L 162.884897 -479.243529 
L 162.109251 -479.251718 
L 161.333605 -479.259521 
L 160.557958 -479.266951 
L 159.782312 -479.274023 
L 159.006665 -479.28075 
L 158.231019 -479.287143 
L 157.455373 -479.293217 
L 156.679726 -479.298982 
L 155.90408 -479.304449 
L 155.128434 -479.309629 
L 154.352787 -479.314533 
L 153.577141 -479.319169 
L 152.801494 -479.323547 
L 152.025848 -479.327675 
L 151.250202 -479.331562 
L 150.474555 -479.335214 
L 149.698909 -479.338638 
L 148.923263 -479.34184 
L 148.147616 -479.344827 
L 147.37197 -479.347601 
L 146.596323 -479.350167 
L 145.820677 -479.352529 
L 145.045031 -479.354687 
L 144.269384 -479.356642 
L 143.493738 -479.358394 
L 142.718092 -479.359941 
L 141.942445 -479.361278 
L 141.166799 -479.362401 
L 140.391153 -479.363299 
L 139.615506 -479.363963 
L 138.83986 -479.364376 
L 138.064213 -479.364519 
L 137.288567 -479.364366 
L 136.512921 -479.364136 
L 135.737274 -479.364475 
L 134.961628 -479.364473 
L 134.185982 -479.364088 
L 133.410335 -479.364304 
L 132.634689 -479.364519 
L 131.859042 -479.364282 
L 131.083396 -479.363916 
L 130.30775 -479.364448 
L 129.532103 -479.364444 
L 128.756457 -479.363794 
L 127.980811 -479.364151 
L 127.205164 -479.364519 
L 126.429518 -479.364085 
L 125.653871 -479.362601 
L 124.878225 -479.359682 
L 124.102579 -479.354697 
L 123.326932 -479.346568 
L 122.551286 -479.333327 
L 121.77564 -479.311105 
L 120.999993 -479.271538 
L 120.224347 -479.194192 
L 119.4487 -479.020353 
L 118.673054 -478.538634 
L 117.897408 -476.684687 
L 117.121761 -464.06096 
z
" style="stroke: #1f77b4; stroke-opacity: 0.3"/>
    </defs>
    <g clip-path="url(#pc1980ef7bf)">
     <use xlink:href="#m088a6939d4" x="0" y="540.100875" style="fill: #1f77b4; fill-opacity: 0.3; stroke: #1f77b4; stroke-opacity: 0.3"/>
    </g>
   </g>
   <g id="matplotlib.axis_1">
    <g id="xtick_1">
     <g id="line2d_1">
      <defs>
       <path id="mbf2cb46ad5" d="M 0 0 
L 0 3.5 
" style="stroke: #000000; stroke-width: 0.8"/>
      </defs>
      <g>
       <use xlink:href="#mbf2cb46ad5" x="116.346115" y="416.476875" style="stroke: #000000; stroke-width: 0.8"/>
      </g>
     </g>
     <g id="text_1">
      <!-- 0 -->
      <g transform="translate(109.983615 438.67375)scale(0.2 -0.2)">
       <defs>
        <path id="DejaVuSans-30" d="M 2034 4250 
Q 1547 4250 1301 3770 
Q 1056 3291 1056 2328 
Q 1056 1369 1301 889 
Q 1547 409 2034 409 
Q 2525 409 2770 889 
Q 3016 1369 3016 2328 
Q 3016 3291 2770 3770 
Q 2525 4250 2034 4250 
z
M 2034 4750 
Q 2819 4750 3233 4129 
Q 3647 3509 3647 2328 
Q 3647 1150 3233 529 
Q 2819 -91 2034 -91 
Q 1250 -91 836 529 
Q 422 1150 422 2328 
Q 422 3509 836 4129 
Q 1250 4750 2034 4750 
z
" transform="scale(0.015625)"/>
       </defs>
       <use xlink:href="#DejaVuSans-30"/>
      </g>
     </g>
    </g>
    <g id="xtick_2">
     <g id="line2d_2">
      <g>
       <use xlink:href="#mbf2cb46ad5" x="193.910752" y="416.476875" style="stroke: #000000; stroke-width: 0.8"/>
      </g>
     </g>
     <g id="text_2">
      <!-- 100 -->
      <g transform="translate(174.823252 438.67375)scale(0.2 -0.2)">
       <defs>
        <path id="DejaVuSans-31" d="M 794 531 
L 1825 531 
L 1825 4091 
L 703 3866 
L 703 4441 
L 1819 4666 
L 2450 4666 
L 2450 531 
L 3481 531 
L 3481 0 
L 794 0 
L 794 531 
z
" transform="scale(0.015625)"/>
       </defs>
       <use xlink:href="#DejaVuSans-31"/>
       <use xlink:href="#DejaVuSans-30" x="63.623047"/>
       <use xlink:href="#DejaVuSans-30" x="127.246094"/>
      </g>
     </g>
    </g>
    <g id="xtick_3">
     <g id="line2d_3">
      <g>
       <use xlink:href="#mbf2cb46ad5" x="271.475389" y="416.476875" style="stroke: #000000; stroke-width: 0.8"/>
      </g>
     </g>
     <g id="text_3">
      <!-- 200 -->
      <g transform="translate(252.387889 438.67375)scale(0.2 -0.2)">
       <defs>
        <path id="DejaVuSans-32" d="M 1228 531 
L 3431 531 
L 3431 0 
L 469 0 
L 469 531 
Q 828 903 1448 1529 
Q 2069 2156 2228 2338 
Q 2531 2678 2651 2914 
Q 2772 3150 2772 3378 
Q 2772 3750 2511 3984 
Q 2250 4219 1831 4219 
Q 1534 4219 1204 4116 
Q 875 4013 500 3803 
L 500 4441 
Q 881 4594 1212 4672 
Q 1544 4750 1819 4750 
Q 2544 4750 2975 4387 
Q 3406 4025 3406 3419 
Q 3406 3131 3298 2873 
Q 3191 2616 2906 2266 
Q 2828 2175 2409 1742 
Q 1991 1309 1228 531 
z
" transform="scale(0.015625)"/>
       </defs>
       <use xlink:href="#DejaVuSans-32"/>
       <use xlink:href="#DejaVuSans-30" x="63.623047"/>
       <use xlink:href="#DejaVuSans-30" x="127.246094"/>
      </g>
     </g>
    </g>
    <g id="xtick_4">
     <g id="line2d_4">
      <g>
       <use xlink:href="#mbf2cb46ad5" x="349.040027" y="416.476875" style="stroke: #000000; stroke-width: 0.8"/>
      </g>
     </g>
     <g id="text_4">
      <!-- 300 -->
      <g transform="translate(329.952527 438.67375)scale(0.2 -0.2)">
       <defs>
        <path id="DejaVuSans-33" d="M 2597 2516 
Q 3050 2419 3304 2112 
Q 3559 1806 3559 1356 
Q 3559 666 3084 287 
Q 2609 -91 1734 -91 
Q 1441 -91 1130 -33 
Q 819 25 488 141 
L 488 750 
Q 750 597 1062 519 
Q 1375 441 1716 441 
Q 2309 441 2620 675 
Q 2931 909 2931 1356 
Q 2931 1769 2642 2001 
Q 2353 2234 1838 2234 
L 1294 2234 
L 1294 2753 
L 1863 2753 
Q 2328 2753 2575 2939 
Q 2822 3125 2822 3475 
Q 2822 3834 2567 4026 
Q 2313 4219 1838 4219 
Q 1578 4219 1281 4162 
Q 984 4106 628 3988 
L 628 4550 
Q 988 4650 1302 4700 
Q 1616 4750 1894 4750 
Q 2613 4750 3031 4423 
Q 3450 4097 3450 3541 
Q 3450 3153 3228 2886 
Q 3006 2619 2597 2516 
z
" transform="scale(0.015625)"/>
       </defs>
       <use xlink:href="#DejaVuSans-33"/>
       <use xlink:href="#DejaVuSans-30" x="63.623047"/>
       <use xlink:href="#DejaVuSans-30" x="127.246094"/>
      </g>
     </g>
    </g>
    <g id="xtick_5">
     <g id="line2d_5">
      <g>
       <use xlink:href="#mbf2cb46ad5" x="426.604664" y="416.476875" style="stroke: #000000; stroke-width: 0.8"/>
      </g>
     </g>
     <g id="text_5">
      <!-- 400 -->
      <g transform="translate(407.517164 438.67375)scale(0.2 -0.2)">
       <defs>
        <path id="DejaVuSans-34" d="M 2419 4116 
L 825 1625 
L 2419 1625 
L 2419 4116 
z
M 2253 4666 
L 3047 4666 
L 3047 1625 
L 3713 1625 
L 3713 1100 
L 3047 1100 
L 3047 0 
L 2419 0 
L 2419 1100 
L 313 1100 
L 313 1709 
L 2253 4666 
z
" transform="scale(0.015625)"/>
       </defs>
       <use xlink:href="#DejaVuSans-34"/>
       <use xlink:href="#DejaVuSans-30" x="63.623047"/>
       <use xlink:href="#DejaVuSans-30" x="127.246094"/>
      </g>
     </g>
    </g>
    <g id="xtick_6">
     <g id="line2d_6">
      <g>
       <use xlink:href="#mbf2cb46ad5" x="504.169301" y="416.476875" style="stroke: #000000; stroke-width: 0.8"/>
      </g>
     </g>
     <g id="text_6">
      <!-- 500 -->
      <g transform="translate(485.081801 438.67375)scale(0.2 -0.2)">
       <defs>
        <path id="DejaVuSans-35" d="M 691 4666 
L 3169 4666 
L 3169 4134 
L 1269 4134 
L 1269 2991 
Q 1406 3038 1543 3061 
Q 1681 3084 1819 3084 
Q 2600 3084 3056 2656 
Q 3513 2228 3513 1497 
Q 3513 744 3044 326 
Q 2575 -91 1722 -91 
Q 1428 -91 1123 -41 
Q 819 9 494 109 
L 494 744 
Q 775 591 1075 516 
Q 1375 441 1709 441 
Q 2250 441 2565 725 
Q 2881 1009 2881 1497 
Q 2881 1984 2565 2268 
Q 2250 2553 1709 2553 
Q 1456 2553 1204 2497 
Q 953 2441 691 2322 
L 691 4666 
z
" transform="scale(0.015625)"/>
       </defs>
       <use xlink:href="#DejaVuSans-35"/>
       <use xlink:href="#DejaVuSans-30" x="63.623047"/>
       <use xlink:href="#DejaVuSans-30" x="127.246094"/>
      </g>
     </g>
    </g>
    <g id="xtick_7">
     <g id="line2d_7">
      <g>
       <use xlink:href="#mbf2cb46ad5" x="581.733938" y="416.476875" style="stroke: #000000; stroke-width: 0.8"/>
      </g>
     </g>
     <g id="text_7">
      <!-- 600 -->
      <g transform="translate(562.646438 438.67375)scale(0.2 -0.2)">
       <defs>
        <path id="DejaVuSans-36" d="M 2113 2584 
Q 1688 2584 1439 2293 
Q 1191 2003 1191 1497 
Q 1191 994 1439 701 
Q 1688 409 2113 409 
Q 2538 409 2786 701 
Q 3034 994 3034 1497 
Q 3034 2003 2786 2293 
Q 2538 2584 2113 2584 
z
M 3366 4563 
L 3366 3988 
Q 3128 4100 2886 4159 
Q 2644 4219 2406 4219 
Q 1781 4219 1451 3797 
Q 1122 3375 1075 2522 
Q 1259 2794 1537 2939 
Q 1816 3084 2150 3084 
Q 2853 3084 3261 2657 
Q 3669 2231 3669 1497 
Q 3669 778 3244 343 
Q 2819 -91 2113 -91 
Q 1303 -91 875 529 
Q 447 1150 447 2328 
Q 447 3434 972 4092 
Q 1497 4750 2381 4750 
Q 2619 4750 2861 4703 
Q 3103 4656 3366 4563 
z
" transform="scale(0.015625)"/>
       </defs>
       <use xlink:href="#DejaVuSans-36"/>
       <use xlink:href="#DejaVuSans-30" x="63.623047"/>
       <use xlink:href="#DejaVuSans-30" x="127.246094"/>
      </g>
     </g>
    </g>
    <g id="text_8">
     <!-- Days since antigen exposure -->
     <g transform="translate(226.337813 462.03)scale(0.2 -0.2)">
      <defs>
       <path id="DejaVuSans-44" d="M 1259 4147 
L 1259 519 
L 2022 519 
Q 2988 519 3436 956 
Q 3884 1394 3884 2338 
Q 3884 3275 3436 3711 
Q 2988 4147 2022 4147 
L 1259 4147 
z
M 628 4666 
L 1925 4666 
Q 3281 4666 3915 4102 
Q 4550 3538 4550 2338 
Q 4550 1131 3912 565 
Q 3275 0 1925 0 
L 628 0 
L 628 4666 
z
" transform="scale(0.015625)"/>
       <path id="DejaVuSans-61" d="M 2194 1759 
Q 1497 1759 1228 1600 
Q 959 1441 959 1056 
Q 959 750 1161 570 
Q 1363 391 1709 391 
Q 2188 391 2477 730 
Q 2766 1069 2766 1631 
L 2766 1759 
L 2194 1759 
z
M 3341 1997 
L 3341 0 
L 2766 0 
L 2766 531 
Q 2569 213 2275 61 
Q 1981 -91 1556 -91 
Q 1019 -91 701 211 
Q 384 513 384 1019 
Q 384 1609 779 1909 
Q 1175 2209 1959 2209 
L 2766 2209 
L 2766 2266 
Q 2766 2663 2505 2880 
Q 2244 3097 1772 3097 
Q 1472 3097 1187 3025 
Q 903 2953 641 2809 
L 641 3341 
Q 956 3463 1253 3523 
Q 1550 3584 1831 3584 
Q 2591 3584 2966 3190 
Q 3341 2797 3341 1997 
z
" transform="scale(0.015625)"/>
       <path id="DejaVuSans-79" d="M 2059 -325 
Q 1816 -950 1584 -1140 
Q 1353 -1331 966 -1331 
L 506 -1331 
L 506 -850 
L 844 -850 
Q 1081 -850 1212 -737 
Q 1344 -625 1503 -206 
L 1606 56 
L 191 3500 
L 800 3500 
L 1894 763 
L 2988 3500 
L 3597 3500 
L 2059 -325 
z
" transform="scale(0.015625)"/>
       <path id="DejaVuSans-73" d="M 2834 3397 
L 2834 2853 
Q 2591 2978 2328 3040 
Q 2066 3103 1784 3103 
Q 1356 3103 1142 2972 
Q 928 2841 928 2578 
Q 928 2378 1081 2264 
Q 1234 2150 1697 2047 
L 1894 2003 
Q 2506 1872 2764 1633 
Q 3022 1394 3022 966 
Q 3022 478 2636 193 
Q 2250 -91 1575 -91 
Q 1294 -91 989 -36 
Q 684 19 347 128 
L 347 722 
Q 666 556 975 473 
Q 1284 391 1588 391 
Q 1994 391 2212 530 
Q 2431 669 2431 922 
Q 2431 1156 2273 1281 
Q 2116 1406 1581 1522 
L 1381 1569 
Q 847 1681 609 1914 
Q 372 2147 372 2553 
Q 372 3047 722 3315 
Q 1072 3584 1716 3584 
Q 2034 3584 2315 3537 
Q 2597 3491 2834 3397 
z
" transform="scale(0.015625)"/>
       <path id="DejaVuSans-20" transform="scale(0.015625)"/>
       <path id="DejaVuSans-69" d="M 603 3500 
L 1178 3500 
L 1178 0 
L 603 0 
L 603 3500 
z
M 603 4863 
L 1178 4863 
L 1178 4134 
L 603 4134 
L 603 4863 
z
" transform="scale(0.015625)"/>
       <path id="DejaVuSans-6e" d="M 3513 2113 
L 3513 0 
L 2938 0 
L 2938 2094 
Q 2938 2591 2744 2837 
Q 2550 3084 2163 3084 
Q 1697 3084 1428 2787 
Q 1159 2491 1159 1978 
L 1159 0 
L 581 0 
L 581 3500 
L 1159 3500 
L 1159 2956 
Q 1366 3272 1645 3428 
Q 1925 3584 2291 3584 
Q 2894 3584 3203 3211 
Q 3513 2838 3513 2113 
z
" transform="scale(0.015625)"/>
       <path id="DejaVuSans-63" d="M 3122 3366 
L 3122 2828 
Q 2878 2963 2633 3030 
Q 2388 3097 2138 3097 
Q 1578 3097 1268 2742 
Q 959 2388 959 1747 
Q 959 1106 1268 751 
Q 1578 397 2138 397 
Q 2388 397 2633 464 
Q 2878 531 3122 666 
L 3122 134 
Q 2881 22 2623 -34 
Q 2366 -91 2075 -91 
Q 1284 -91 818 406 
Q 353 903 353 1747 
Q 353 2603 823 3093 
Q 1294 3584 2113 3584 
Q 2378 3584 2631 3529 
Q 2884 3475 3122 3366 
z
" transform="scale(0.015625)"/>
       <path id="DejaVuSans-65" d="M 3597 1894 
L 3597 1613 
L 953 1613 
Q 991 1019 1311 708 
Q 1631 397 2203 397 
Q 2534 397 2845 478 
Q 3156 559 3463 722 
L 3463 178 
Q 3153 47 2828 -22 
Q 2503 -91 2169 -91 
Q 1331 -91 842 396 
Q 353 884 353 1716 
Q 353 2575 817 3079 
Q 1281 3584 2069 3584 
Q 2775 3584 3186 3129 
Q 3597 2675 3597 1894 
z
M 3022 2063 
Q 3016 2534 2758 2815 
Q 2500 3097 2075 3097 
Q 1594 3097 1305 2825 
Q 1016 2553 972 2059 
L 3022 2063 
z
" transform="scale(0.015625)"/>
       <path id="DejaVuSans-74" d="M 1172 4494 
L 1172 3500 
L 2356 3500 
L 2356 3053 
L 1172 3053 
L 1172 1153 
Q 1172 725 1289 603 
Q 1406 481 1766 481 
L 2356 481 
L 2356 0 
L 1766 0 
Q 1100 0 847 248 
Q 594 497 594 1153 
L 594 3053 
L 172 3053 
L 172 3500 
L 594 3500 
L 594 4494 
L 1172 4494 
z
" transform="scale(0.015625)"/>
       <path id="DejaVuSans-67" d="M 2906 1791 
Q 2906 2416 2648 2759 
Q 2391 3103 1925 3103 
Q 1463 3103 1205 2759 
Q 947 2416 947 1791 
Q 947 1169 1205 825 
Q 1463 481 1925 481 
Q 2391 481 2648 825 
Q 2906 1169 2906 1791 
z
M 3481 434 
Q 3481 -459 3084 -895 
Q 2688 -1331 1869 -1331 
Q 1566 -1331 1297 -1286 
Q 1028 -1241 775 -1147 
L 775 -588 
Q 1028 -725 1275 -790 
Q 1522 -856 1778 -856 
Q 2344 -856 2625 -561 
Q 2906 -266 2906 331 
L 2906 616 
Q 2728 306 2450 153 
Q 2172 0 1784 0 
Q 1141 0 747 490 
Q 353 981 353 1791 
Q 353 2603 747 3093 
Q 1141 3584 1784 3584 
Q 2172 3584 2450 3431 
Q 2728 3278 2906 2969 
L 2906 3500 
L 3481 3500 
L 3481 434 
z
" transform="scale(0.015625)"/>
       <path id="DejaVuSans-78" d="M 3513 3500 
L 2247 1797 
L 3578 0 
L 2900 0 
L 1881 1375 
L 863 0 
L 184 0 
L 1544 1831 
L 300 3500 
L 978 3500 
L 1906 2253 
L 2834 3500 
L 3513 3500 
z
" transform="scale(0.015625)"/>
       <path id="DejaVuSans-70" d="M 1159 525 
L 1159 -1331 
L 581 -1331 
L 581 3500 
L 1159 3500 
L 1159 2969 
Q 1341 3281 1617 3432 
Q 1894 3584 2278 3584 
Q 2916 3584 3314 3078 
Q 3713 2572 3713 1747 
Q 3713 922 3314 415 
Q 2916 -91 2278 -91 
Q 1894 -91 1617 61 
Q 1341 213 1159 525 
z
M 3116 1747 
Q 3116 2381 2855 2742 
Q 2594 3103 2138 3103 
Q 1681 3103 1420 2742 
Q 1159 2381 1159 1747 
Q 1159 1113 1420 752 
Q 1681 391 2138 391 
Q 2594 391 2855 752 
Q 3116 1113 3116 1747 
z
" transform="scale(0.015625)"/>
       <path id="DejaVuSans-6f" d="M 1959 3097 
Q 1497 3097 1228 2736 
Q 959 2375 959 1747 
Q 959 1119 1226 758 
Q 1494 397 1959 397 
Q 2419 397 2687 759 
Q 2956 1122 2956 1747 
Q 2956 2369 2687 2733 
Q 2419 3097 1959 3097 
z
M 1959 3584 
Q 2709 3584 3137 3096 
Q 3566 2609 3566 1747 
Q 3566 888 3137 398 
Q 2709 -91 1959 -91 
Q 1206 -91 779 398 
Q 353 888 353 1747 
Q 353 2609 779 3096 
Q 1206 3584 1959 3584 
z
" transform="scale(0.015625)"/>
       <path id="DejaVuSans-75" d="M 544 1381 
L 544 3500 
L 1119 3500 
L 1119 1403 
Q 1119 906 1312 657 
Q 1506 409 1894 409 
Q 2359 409 2629 706 
Q 2900 1003 2900 1516 
L 2900 3500 
L 3475 3500 
L 3475 0 
L 2900 0 
L 2900 538 
Q 2691 219 2414 64 
Q 2138 -91 1772 -91 
Q 1169 -91 856 284 
Q 544 659 544 1381 
z
M 1991 3584 
L 1991 3584 
z
" transform="scale(0.015625)"/>
       <path id="DejaVuSans-72" d="M 2631 2963 
Q 2534 3019 2420 3045 
Q 2306 3072 2169 3072 
Q 1681 3072 1420 2755 
Q 1159 2438 1159 1844 
L 1159 0 
L 581 0 
L 581 3500 
L 1159 3500 
L 1159 2956 
Q 1341 3275 1631 3429 
Q 1922 3584 2338 3584 
Q 2397 3584 2469 3576 
Q 2541 3569 2628 3553 
L 2631 2963 
z
" transform="scale(0.015625)"/>
      </defs>
      <use xlink:href="#DejaVuSans-44"/>
      <use xlink:href="#DejaVuSans-61" x="77.001953"/>
      <use xlink:href="#DejaVuSans-79" x="138.28125"/>
      <use xlink:href="#DejaVuSans-73" x="197.460938"/>
      <use xlink:href="#DejaVuSans-20" x="249.560547"/>
      <use xlink:href="#DejaVuSans-73" x="281.347656"/>
      <use xlink:href="#DejaVuSans-69" x="333.447266"/>
      <use xlink:href="#DejaVuSans-6e" x="361.230469"/>
      <use xlink:href="#DejaVuSans-63" x="424.609375"/>
      <use xlink:href="#DejaVuSans-65" x="479.589844"/>
      <use xlink:href="#DejaVuSans-20" x="541.113281"/>
      <use xlink:href="#DejaVuSans-61" x="572.900391"/>
      <use xlink:href="#DejaVuSans-6e" x="634.179688"/>
      <use xlink:href="#DejaVuSans-74" x="697.558594"/>
      <use xlink:href="#DejaVuSans-69" x="736.767578"/>
      <use xlink:href="#DejaVuSans-67" x="764.550781"/>
      <use xlink:href="#DejaVuSans-65" x="828.027344"/>
      <use xlink:href="#DejaVuSans-6e" x="889.550781"/>
      <use xlink:href="#DejaVuSans-20" x="952.929688"/>
      <use xlink:href="#DejaVuSans-65" x="984.716797"/>
      <use xlink:href="#DejaVuSans-78" x="1044.490234"/>
      <use xlink:href="#DejaVuSans-70" x="1103.669922"/>
      <use xlink:href="#DejaVuSans-6f" x="1167.146484"/>
      <use xlink:href="#DejaVuSans-73" x="1228.328125"/>
      <use xlink:href="#DejaVuSans-75" x="1280.427734"/>
      <use xlink:href="#DejaVuSans-72" x="1343.806641"/>
      <use xlink:href="#DejaVuSans-65" x="1382.669922"/>
     </g>
    </g>
   </g>
   <g id="matplotlib.axis_2">
    <g id="ytick_1">
     <g id="line2d_8">
      <defs>
       <path id="m80b7da0c5d" d="M 0 0 
L -3.5 0 
" style="stroke: #000000; stroke-width: 0.8"/>
      </defs>
      <g>
       <use xlink:href="#m80b7da0c5d" x="91.758125" y="384.131167" style="stroke: #000000; stroke-width: 0.8"/>
      </g>
     </g>
     <g id="text_9">
      <!-- 0.0 -->
      <g transform="translate(52.951875 391.729605)scale(0.2 -0.2)">
       <defs>
        <path id="DejaVuSans-2e" d="M 684 794 
L 1344 794 
L 1344 0 
L 684 0 
L 684 794 
z
" transform="scale(0.015625)"/>
       </defs>
       <use xlink:href="#DejaVuSans-30"/>
       <use xlink:href="#DejaVuSans-2e" x="63.623047"/>
       <use xlink:href="#DejaVuSans-30" x="95.410156"/>
      </g>
     </g>
    </g>
    <g id="ytick_2">
     <g id="line2d_9">
      <g>
       <use xlink:href="#m80b7da0c5d" x="91.758125" y="319.439752" style="stroke: #000000; stroke-width: 0.8"/>
      </g>
     </g>
     <g id="text_10">
      <!-- 0.2 -->
      <g transform="translate(52.951875 327.038189)scale(0.2 -0.2)">
       <use xlink:href="#DejaVuSans-30"/>
       <use xlink:href="#DejaVuSans-2e" x="63.623047"/>
       <use xlink:href="#DejaVuSans-32" x="95.410156"/>
      </g>
     </g>
    </g>
    <g id="ytick_3">
     <g id="line2d_10">
      <g>
       <use xlink:href="#m80b7da0c5d" x="91.758125" y="254.748336" style="stroke: #000000; stroke-width: 0.8"/>
      </g>
     </g>
     <g id="text_11">
      <!-- 0.4 -->
      <g transform="translate(52.951875 262.346774)scale(0.2 -0.2)">
       <use xlink:href="#DejaVuSans-30"/>
       <use xlink:href="#DejaVuSans-2e" x="63.623047"/>
       <use xlink:href="#DejaVuSans-34" x="95.410156"/>
      </g>
     </g>
    </g>
    <g id="ytick_4">
     <g id="line2d_11">
      <g>
       <use xlink:href="#m80b7da0c5d" x="91.758125" y="190.056921" style="stroke: #000000; stroke-width: 0.8"/>
      </g>
     </g>
     <g id="text_12">
      <!-- 0.6 -->
      <g transform="translate(52.951875 197.655358)scale(0.2 -0.2)">
       <use xlink:href="#DejaVuSans-30"/>
       <use xlink:href="#DejaVuSans-2e" x="63.623047"/>
       <use xlink:href="#DejaVuSans-36" x="95.410156"/>
      </g>
     </g>
    </g>
    <g id="ytick_5">
     <g id="line2d_12">
      <g>
       <use xlink:href="#m80b7da0c5d" x="91.758125" y="125.365505" style="stroke: #000000; stroke-width: 0.8"/>
      </g>
     </g>
     <g id="text_13">
      <!-- 0.8 -->
      <g transform="translate(52.951875 132.963943)scale(0.2 -0.2)">
       <defs>
        <path id="DejaVuSans-38" d="M 2034 2216 
Q 1584 2216 1326 1975 
Q 1069 1734 1069 1313 
Q 1069 891 1326 650 
Q 1584 409 2034 409 
Q 2484 409 2743 651 
Q 3003 894 3003 1313 
Q 3003 1734 2745 1975 
Q 2488 2216 2034 2216 
z
M 1403 2484 
Q 997 2584 770 2862 
Q 544 3141 544 3541 
Q 544 4100 942 4425 
Q 1341 4750 2034 4750 
Q 2731 4750 3128 4425 
Q 3525 4100 3525 3541 
Q 3525 3141 3298 2862 
Q 3072 2584 2669 2484 
Q 3125 2378 3379 2068 
Q 3634 1759 3634 1313 
Q 3634 634 3220 271 
Q 2806 -91 2034 -91 
Q 1263 -91 848 271 
Q 434 634 434 1313 
Q 434 1759 690 2068 
Q 947 2378 1403 2484 
z
M 1172 3481 
Q 1172 3119 1398 2916 
Q 1625 2713 2034 2713 
Q 2441 2713 2670 2916 
Q 2900 3119 2900 3481 
Q 2900 3844 2670 4047 
Q 2441 4250 2034 4250 
Q 1625 4250 1398 4047 
Q 1172 3844 1172 3481 
z
" transform="scale(0.015625)"/>
       </defs>
       <use xlink:href="#DejaVuSans-30"/>
       <use xlink:href="#DejaVuSans-2e" x="63.623047"/>
       <use xlink:href="#DejaVuSans-38" x="95.410156"/>
      </g>
     </g>
    </g>
    <g id="ytick_6">
     <g id="line2d_13">
      <g>
       <use xlink:href="#m80b7da0c5d" x="91.758125" y="60.67409" style="stroke: #000000; stroke-width: 0.8"/>
      </g>
     </g>
     <g id="text_14">
      <!-- 1.0 -->
      <g transform="translate(52.951875 68.272527)scale(0.2 -0.2)">
       <use xlink:href="#DejaVuSans-31"/>
       <use xlink:href="#DejaVuSans-2e" x="63.623047"/>
       <use xlink:href="#DejaVuSans-30" x="95.410156"/>
      </g>
     </g>
    </g>
    <g id="text_15">
     <!-- Virus neutralization -->
     <g transform="translate(22.396875 319.741562)rotate(-90)scale(0.2 -0.2)">
      <defs>
       <path id="DejaVuSans-56" d="M 1831 0 
L 50 4666 
L 709 4666 
L 2188 738 
L 3669 4666 
L 4325 4666 
L 2547 0 
L 1831 0 
z
" transform="scale(0.015625)"/>
       <path id="DejaVuSans-6c" d="M 603 4863 
L 1178 4863 
L 1178 0 
L 603 0 
L 603 4863 
z
" transform="scale(0.015625)"/>
       <path id="DejaVuSans-7a" d="M 353 3500 
L 3084 3500 
L 3084 2975 
L 922 459 
L 3084 459 
L 3084 0 
L 275 0 
L 275 525 
L 2438 3041 
L 353 3041 
L 353 3500 
z
" transform="scale(0.015625)"/>
      </defs>
      <use xlink:href="#DejaVuSans-56"/>
      <use xlink:href="#DejaVuSans-69" x="66.158203"/>
      <use xlink:href="#DejaVuSans-72" x="93.941406"/>
      <use xlink:href="#DejaVuSans-75" x="135.054688"/>
      <use xlink:href="#DejaVuSans-73" x="198.433594"/>
      <use xlink:href="#DejaVuSans-20" x="250.533203"/>
      <use xlink:href="#DejaVuSans-6e" x="282.320312"/>
      <use xlink:href="#DejaVuSans-65" x="345.699219"/>
      <use xlink:href="#DejaVuSans-75" x="407.222656"/>
      <use xlink:href="#DejaVuSans-74" x="470.601562"/>
      <use xlink:href="#DejaVuSans-72" x="509.810547"/>
      <use xlink:href="#DejaVuSans-61" x="550.923828"/>
      <use xlink:href="#DejaVuSans-6c" x="612.203125"/>
      <use xlink:href="#DejaVuSans-69" x="639.986328"/>
      <use xlink:href="#DejaVuSans-7a" x="667.769531"/>
      <use xlink:href="#DejaVuSans-61" x="720.259766"/>
      <use xlink:href="#DejaVuSans-74" x="781.539062"/>
      <use xlink:href="#DejaVuSans-69" x="820.748047"/>
      <use xlink:href="#DejaVuSans-6f" x="848.53125"/>
      <use xlink:href="#DejaVuSans-6e" x="909.712891"/>
     </g>
     <!--  probability -->
     <g transform="translate(44.7925 278.966562)rotate(-90)scale(0.2 -0.2)">
      <defs>
       <path id="DejaVuSans-62" d="M 3116 1747 
Q 3116 2381 2855 2742 
Q 2594 3103 2138 3103 
Q 1681 3103 1420 2742 
Q 1159 2381 1159 1747 
Q 1159 1113 1420 752 
Q 1681 391 2138 391 
Q 2594 391 2855 752 
Q 3116 1113 3116 1747 
z
M 1159 2969 
Q 1341 3281 1617 3432 
Q 1894 3584 2278 3584 
Q 2916 3584 3314 3078 
Q 3713 2572 3713 1747 
Q 3713 922 3314 415 
Q 2916 -91 2278 -91 
Q 1894 -91 1617 61 
Q 1341 213 1159 525 
L 1159 0 
L 581 0 
L 581 4863 
L 1159 4863 
L 1159 2969 
z
" transform="scale(0.015625)"/>
      </defs>
      <use xlink:href="#DejaVuSans-20"/>
      <use xlink:href="#DejaVuSans-70" x="31.787109"/>
      <use xlink:href="#DejaVuSans-72" x="95.263672"/>
      <use xlink:href="#DejaVuSans-6f" x="134.126953"/>
      <use xlink:href="#DejaVuSans-62" x="195.308594"/>
      <use xlink:href="#DejaVuSans-61" x="258.785156"/>
      <use xlink:href="#DejaVuSans-62" x="320.064453"/>
      <use xlink:href="#DejaVuSans-69" x="383.541016"/>
      <use xlink:href="#DejaVuSans-6c" x="411.324219"/>
      <use xlink:href="#DejaVuSans-69" x="439.107422"/>
      <use xlink:href="#DejaVuSans-74" x="466.890625"/>
      <use xlink:href="#DejaVuSans-79" x="506.099609"/>
     </g>
    </g>
   </g>
   <g id="patch_3">
    <path d="M 91.758125 416.476875 
L 91.758125 28.396875 
" style="fill: none; stroke: #000000; stroke-width: 0.8; stroke-linejoin: miter; stroke-linecap: square"/>
   </g>
   <g id="patch_4">
    <path d="M 649.758125 416.476875 
L 649.758125 28.396875 
" style="fill: none; stroke: #000000; stroke-width: 0.8; stroke-linejoin: miter; stroke-linecap: square"/>
   </g>
   <g id="patch_5">
    <path d="M 91.758125 416.476875 
L 649.758125 416.476875 
" style="fill: none; stroke: #000000; stroke-width: 0.8; stroke-linejoin: miter; stroke-linecap: square"/>
   </g>
   <g id="patch_6">
    <path d="M 91.758125 28.396875 
L 649.758125 28.396875 
" style="fill: none; stroke: #000000; stroke-width: 0.8; stroke-linejoin: miter; stroke-linecap: square"/>
   </g>
   <g id="text_16">
    <!-- JN.2 antigen -->
    <g transform="translate(309.605 22.396875)scale(0.2 -0.2)">
     <defs>
      <path id="DejaVuSans-4a" d="M 628 4666 
L 1259 4666 
L 1259 325 
Q 1259 -519 939 -900 
Q 619 -1281 -91 -1281 
L -331 -1281 
L -331 -750 
L -134 -750 
Q 284 -750 456 -515 
Q 628 -281 628 325 
L 628 4666 
z
" transform="scale(0.015625)"/>
      <path id="DejaVuSans-4e" d="M 628 4666 
L 1478 4666 
L 3547 763 
L 3547 4666 
L 4159 4666 
L 4159 0 
L 3309 0 
L 1241 3903 
L 1241 0 
L 628 0 
L 628 4666 
z
" transform="scale(0.015625)"/>
     </defs>
     <use xlink:href="#DejaVuSans-4a"/>
     <use xlink:href="#DejaVuSans-4e" x="29.492188"/>
     <use xlink:href="#DejaVuSans-2e" x="104.296875"/>
     <use xlink:href="#DejaVuSans-32" x="136.083984"/>
     <use xlink:href="#DejaVuSans-20" x="199.707031"/>
     <use xlink:href="#DejaVuSans-61" x="231.494141"/>
     <use xlink:href="#DejaVuSans-6e" x="292.773438"/>
     <use xlink:href="#DejaVuSans-74" x="356.152344"/>
     <use xlink:href="#DejaVuSans-69" x="395.361328"/>
     <use xlink:href="#DejaVuSans-67" x="423.144531"/>
     <use xlink:href="#DejaVuSans-65" x="486.621094"/>
     <use xlink:href="#DejaVuSans-6e" x="548.144531"/>
    </g>
   </g>
   <g id="legend_1">
    <g id="patch_7">
     <path d="M 235.258125 532.900875 
L 476.333125 532.900875 
Q 480.333125 532.900875 480.333125 528.900875 
L 480.333125 501.544625 
Q 480.333125 497.544625 476.333125 497.544625 
L 235.258125 497.544625 
Q 231.258125 497.544625 231.258125 501.544625 
L 231.258125 528.900875 
Q 231.258125 532.900875 235.258125 532.900875 
z
" style="fill: #ffffff; opacity: 0.8; stroke: #cccccc; stroke-linejoin: miter"/>
    </g>
    <g id="patch_8">
     <path d="M 239.258125 520.7415 
L 279.258125 520.7415 
L 279.258125 506.7415 
L 239.258125 506.7415 
z
" style="fill: #ffa500; fill-opacity: 0.3; stroke: #ffa500; stroke-opacity: 0.3; stroke-linejoin: miter"/>
    </g>
    <g id="text_17">
     <!-- KP.2 -->
     <g transform="translate(295.258125 520.7415)scale(0.2 -0.2)">
      <defs>
       <path id="DejaVuSans-4b" d="M 628 4666 
L 1259 4666 
L 1259 2694 
L 3353 4666 
L 4166 4666 
L 1850 2491 
L 4331 0 
L 3500 0 
L 1259 2247 
L 1259 0 
L 628 0 
L 628 4666 
z
" transform="scale(0.015625)"/>
       <path id="DejaVuSans-50" d="M 1259 4147 
L 1259 2394 
L 2053 2394 
Q 2494 2394 2734 2622 
Q 2975 2850 2975 3272 
Q 2975 3691 2734 3919 
Q 2494 4147 2053 4147 
L 1259 4147 
z
M 628 4666 
L 2053 4666 
Q 2838 4666 3239 4311 
Q 3641 3956 3641 3272 
Q 3641 2581 3239 2228 
Q 2838 1875 2053 1875 
L 1259 1875 
L 1259 0 
L 628 0 
L 628 4666 
z
" transform="scale(0.015625)"/>
      </defs>
      <use xlink:href="#DejaVuSans-4b"/>
      <use xlink:href="#DejaVuSans-50" x="65.576172"/>
      <use xlink:href="#DejaVuSans-2e" x="110.253906"/>
      <use xlink:href="#DejaVuSans-32" x="142.041016"/>
     </g>
    </g>
    <g id="patch_9">
     <path d="M 376.389375 520.7415 
L 416.389375 520.7415 
L 416.389375 506.7415 
L 376.389375 506.7415 
z
" style="fill: #1f77b4; fill-opacity: 0.3; stroke: #1f77b4; stroke-opacity: 0.3; stroke-linejoin: miter"/>
    </g>
    <g id="text_18">
     <!-- JN.2 -->
     <g transform="translate(432.389375 520.7415)scale(0.2 -0.2)">
      <use xlink:href="#DejaVuSans-4a"/>
      <use xlink:href="#DejaVuSans-4e" x="29.492188"/>
      <use xlink:href="#DejaVuSans-2e" x="104.296875"/>
      <use xlink:href="#DejaVuSans-32" x="136.083984"/>
     </g>
    </g>
   </g>
  </g>
 </g>
 <defs>
  <clipPath id="pc1980ef7bf">
   <rect x="91.758125" y="28.396875" width="558" height="388.08"/>
  </clipPath>
 </defs>
</svg>
