<?xml version="1.0" encoding="utf-8" standalone="no"?>
<!DOCTYPE svg PUBLIC "-//W3C//DTD SVG 1.1//EN"
  "http://www.w3.org/Graphics/SVG/1.1/DTD/svg11.dtd">
<svg xmlns:xlink="http://www.w3.org/1999/xlink" width="656.958125pt" height="540.100875pt" viewBox="0 0 656.958125 540.100875" xmlns="http://www.w3.org/2000/svg" version="1.1">
 <metadata>
  <rdf:RDF xmlns:dc="http://purl.org/dc/elements/1.1/" xmlns:cc="http://creativecommons.org/ns#" xmlns:rdf="http://www.w3.org/1999/02/22-rdf-syntax-ns#">
   <cc:Work>
    <dc:type rdf:resource="http://purl.org/dc/dcmitype/StillImage"/>
    <dc:date>2024-09-30T17:53:43.197022</dc:date>
    <dc:format>image/svg+xml</dc:format>
    <dc:creator>
     <cc:Agent>
      <dc:title>Matplotlib v3.5.2, https://matplotlib.org/</dc:title>
     </cc:Agent>
    </dc:creator>
   </cc:Work>
  </rdf:RDF>
 </metadata>
 <defs>
  <style type="text/css">*{stroke-linejoin: round; stroke-linecap: butt}</style>
 </defs>
 <g id="figure_1">
  <g id="patch_1">
   <path d="M 0 540.100875 
L 656.958125 540.100875 
L 656.958125 0 
L 0 0 
z
" style="fill: #ffffff"/>
  </g>
  <g id="axes_1">
   <g id="patch_2">
    <path d="M 91.758125 416.476875 
L 649.758125 416.476875 
L 649.758125 28.396875 
L 91.758125 28.396875 
z
" style="fill: #ffffff"/>
   </g>
   <g id="PolyCollection_1">
    <defs>
     <path id="m5b846e96c5" d="M 117.121761 -241.066999 
L 117.121761 -193.033415 
L 117.897408 -223.186777 
L 118.673054 -247.966383 
L 119.4487 -268.513054 
L 120.224347 -285.685706 
L 120.999993 -300.139345 
L 121.77564 -312.379408 
L 122.551286 -322.80018 
L 123.326932 -331.712357 
L 124.102579 -339.363062 
L 124.878225 -345.950572 
L 125.653871 -351.635271 
L 126.429518 -356.547871 
L 127.205164 -360.795669 
L 127.980811 -364.467322 
L 128.756457 -367.636552 
L 129.532103 -370.365021 
L 130.30775 -372.704593 
L 131.083396 -374.699126 
L 131.859042 -375.940999 
L 132.634689 -374.144478 
L 133.410335 -372.190101 
L 134.185982 -370.096997 
L 134.961628 -367.881834 
L 135.737274 -365.559262 
L 136.512921 -363.142255 
L 137.288567 -360.642386 
L 138.064213 -358.070038 
L 138.83986 -355.434577 
L 139.615506 -352.744489 
L 140.391153 -350.007494 
L 141.166799 -347.230638 
L 141.942445 -344.420373 
L 142.718092 -341.582616 
L 143.493738 -338.722809 
L 144.269384 -335.845963 
L 145.045031 -332.956699 
L 145.820677 -330.059283 
L 146.596323 -327.157655 
L 147.37197 -324.255458 
L 148.147616 -321.356058 
L 148.923263 -318.462572 
L 149.698909 -315.577879 
L 150.474555 -312.70464 
L 151.250202 -309.845318 
L 152.025848 -307.002183 
L 152.801494 -304.177333 
L 153.577141 -301.3727 
L 154.352787 -298.590063 
L 155.128434 -295.831058 
L 155.90408 -293.097187 
L 156.679726 -290.389823 
L 157.455373 -287.710223 
L 158.231019 -285.05953 
L 159.006665 -282.438784 
L 159.782312 -279.848925 
L 160.557958 -277.290799 
L 161.333605 -274.765165 
L 162.109251 -272.2727 
L 162.884897 -269.814002 
L 163.660544 -267.389593 
L 164.43619 -264.99993 
L 165.211836 -262.6454 
L 165.987483 -260.326332 
L 166.763129 -258.042993 
L 167.538776 -255.795597 
L 168.314422 -253.584306 
L 169.090068 -251.409232 
L 169.865715 -249.270443 
L 170.641361 -247.167962 
L 171.417007 -245.101771 
L 172.192654 -243.071816 
L 172.9683 -241.078005 
L 173.743947 -239.120213 
L 174.519593 -237.198285 
L 175.295239 -235.312033 
L 176.070886 -233.461247 
L 176.846532 -231.645686 
L 177.622178 -229.86509 
L 178.397825 -228.119173 
L 179.173471 -226.407631 
L 179.949117 -224.730142 
L 180.724764 -223.086363 
L 181.50041 -221.47594 
L 182.276057 -219.898501 
L 183.051703 -218.353662 
L 183.827349 -216.841026 
L 184.602996 -215.360188 
L 185.378642 -213.910731 
L 186.154288 -212.492229 
L 186.929935 -211.10425 
L 187.705581 -209.746354 
L 188.481228 -208.418098 
L 189.256874 -207.11903 
L 190.03252 -205.848698 
L 190.808167 -204.606643 
L 191.583813 -203.392408 
L 192.359459 -202.205529 
L 193.135106 -201.045545 
L 193.910752 -199.911993 
L 194.686399 -198.804409 
L 195.462045 -197.72233 
L 196.237691 -196.665297 
L 197.013338 -195.632847 
L 197.788984 -194.624523 
L 198.56463 -193.639871 
L 199.340277 -192.678436 
L 200.115923 -191.739768 
L 200.89157 -190.823423 
L 201.667216 -189.928956 
L 202.442862 -189.055929 
L 203.218509 -188.203908 
L 203.994155 -187.372463 
L 204.769801 -186.561169 
L 205.545448 -185.769606 
L 206.321094 -184.997359 
L 207.096741 -184.244017 
L 207.872387 -183.509176 
L 208.648033 -182.792437 
L 209.42368 -182.093408 
L 210.199326 -181.411699 
L 210.974972 -180.74693 
L 211.750619 -180.098725 
L 212.526265 -179.466713 
L 213.301911 -178.85053 
L 214.077558 -178.249818 
L 214.853204 -177.664225 
L 215.628851 -177.093406 
L 216.404497 -176.53702 
L 217.180143 -175.994734 
L 217.95579 -175.466219 
L 218.731436 -174.951153 
L 219.507082 -174.449222 
L 220.282729 -173.960115 
L 221.058375 -173.483529 
L 221.834022 -173.019165 
L 222.609668 -172.566732 
L 223.385314 -172.125943 
L 224.160961 -171.696518 
L 224.936607 -171.278182 
L 225.712253 -170.870667 
L 226.4879 -170.473707 
L 227.263546 -170.087047 
L 228.039193 -169.710433 
L 228.814839 -169.343618 
L 229.590485 -168.986361 
L 230.366132 -168.638424 
L 231.141778 -168.299578 
L 231.917424 -167.969594 
L 232.693071 -167.648253 
L 233.468717 -167.335338 
L 234.244364 -167.030638 
L 235.02001 -166.733945 
L 235.795656 -166.445059 
L 236.571303 -166.163782 
L 237.346949 -165.889921 
L 238.122595 -165.623288 
L 238.898242 -165.3637 
L 239.673888 -165.110976 
L 240.449535 -164.864941 
L 241.225181 -164.625424 
L 242.000827 -164.392258 
L 242.776474 -164.16528 
L 243.55212 -163.944331 
L 244.327766 -163.729255 
L 245.103413 -163.5199 
L 245.879059 -163.316119 
L 246.654705 -163.117768 
L 247.430352 -162.924704 
L 248.205998 -162.736792 
L 248.981645 -162.553897 
L 249.757291 -162.375887 
L 250.532937 -162.202637 
L 251.308584 -162.034021 
L 252.08423 -161.869918 
L 252.859876 -161.710211 
L 253.635523 -161.554783 
L 254.411169 -161.403522 
L 255.186816 -161.256319 
L 255.962462 -161.113068 
L 256.738108 -160.973663 
L 257.513755 -160.838004 
L 258.289401 -160.705991 
L 259.065047 -160.577529 
L 259.840694 -160.452523 
L 260.61634 -160.330882 
L 261.391987 -160.212517 
L 262.167633 -160.097341 
L 262.943279 -159.985269 
L 263.718926 -159.876218 
L 264.494572 -159.77011 
L 265.270218 -159.666864 
L 266.045865 -159.566405 
L 266.821511 -159.468659 
L 267.597158 -159.373553 
L 268.372804 -159.281018 
L 269.14845 -159.190983 
L 269.924097 -159.103383 
L 270.699743 -159.018152 
L 271.475389 -158.935227 
L 272.251036 -158.854547 
L 273.026682 -158.77605 
L 273.802329 -158.699679 
L 274.577975 -158.625377 
L 275.353621 -158.553087 
L 276.129268 -158.482757 
L 276.904914 -158.414333 
L 277.68056 -158.347764 
L 278.456207 -158.283001 
L 279.231853 -158.219994 
L 280.007499 -158.158696 
L 280.783146 -158.099063 
L 281.558792 -158.041047 
L 282.334439 -157.984607 
L 283.110085 -157.929699 
L 283.885731 -157.876283 
L 284.661378 -157.824318 
L 285.437024 -157.773764 
L 286.21267 -157.724584 
L 286.988317 -157.676741 
L 287.763963 -157.630198 
L 288.53961 -157.584921 
L 289.315256 -157.540875 
L 290.090902 -157.498027 
L 290.866549 -157.456344 
L 291.642195 -157.415795 
L 292.417841 -157.376349 
L 293.193488 -157.337977 
L 293.969134 -157.300649 
L 294.744781 -157.264337 
L 295.520427 -157.229014 
L 296.296073 -157.194652 
L 297.07172 -157.161226 
L 297.847366 -157.12871 
L 298.623012 -157.09708 
L 299.398659 -157.066312 
L 300.174305 -157.036381 
L 300.949952 -157.007266 
L 301.725598 -156.978944 
L 302.501244 -156.951394 
L 303.276891 -156.924595 
L 304.052537 -156.898526 
L 304.828183 -156.873168 
L 305.60383 -156.848501 
L 306.379476 -156.824506 
L 307.155122 -156.801166 
L 307.930769 -156.778462 
L 308.706415 -156.756377 
L 309.482062 -156.734894 
L 310.257708 -156.713998 
L 311.033354 -156.693671 
L 311.809001 -156.673899 
L 312.584647 -156.654666 
L 313.360293 -156.635957 
L 314.13594 -156.617759 
L 314.911586 -156.600058 
L 315.687233 -156.58284 
L 316.462879 -156.566091 
L 317.238525 -156.5498 
L 318.014172 -156.533953 
L 318.789818 -156.518538 
L 319.565464 -156.503544 
L 320.341111 -156.48896 
L 321.116757 -156.474774 
L 321.892404 -156.460974 
L 322.66805 -156.447552 
L 323.443696 -156.434496 
L 324.219343 -156.421796 
L 324.994989 -156.409444 
L 325.770635 -156.397428 
L 326.546282 -156.385741 
L 327.321928 -156.374372 
L 328.097575 -156.363314 
L 328.873221 -156.352558 
L 329.648867 -156.342096 
L 330.424514 -156.33192 
L 331.20016 -156.322021 
L 331.975806 -156.312393 
L 332.751453 -156.303027 
L 333.527099 -156.293918 
L 334.302746 -156.285057 
L 335.078392 -156.276439 
L 335.854038 -156.268056 
L 336.629685 -156.259901 
L 337.405331 -156.25197 
L 338.180977 -156.244255 
L 338.956624 -156.236751 
L 339.73227 -156.229452 
L 340.507916 -156.222353 
L 341.283563 -156.215447 
L 342.059209 -156.20873 
L 342.834856 -156.202197 
L 343.610502 -156.195842 
L 344.386148 -156.189661 
L 345.161795 -156.183648 
L 345.937441 -156.1778 
L 346.713087 -156.172112 
L 347.488734 -156.166579 
L 348.26438 -156.161197 
L 349.040027 -156.155963 
L 349.815673 -156.150871 
L 350.591319 -156.145919 
L 351.366966 -156.141102 
L 352.142612 -156.136416 
L 352.918258 -156.131859 
L 353.693905 -156.127426 
L 354.469551 -156.123115 
L 355.245198 -156.118921 
L 356.020844 -156.114842 
L 356.79649 -156.110874 
L 357.572137 -156.107015 
L 358.347783 -156.103261 
L 359.123429 -156.09961 
L 359.899076 -156.096058 
L 360.674722 -156.092604 
L 361.450369 -156.089244 
L 362.226015 -156.085976 
L 363.001661 -156.082797 
L 363.777308 -156.079705 
L 364.552954 -156.076698 
L 365.3286 -156.073773 
L 366.104247 -156.070928 
L 366.879893 -156.06816 
L 367.65554 -156.065469 
L 368.431186 -156.06285 
L 369.206832 -156.060304 
L 369.982479 -156.057827 
L 370.758125 -156.055418 
L 371.533771 -156.053074 
L 372.309418 -156.050795 
L 373.085064 -156.048578 
L 373.86071 -156.046421 
L 374.636357 -156.044324 
L 375.412003 -156.042284 
L 376.18765 -156.0403 
L 376.963296 -156.038369 
L 377.738942 -156.036492 
L 378.514589 -156.034666 
L 379.290235 -156.03289 
L 380.065881 -156.031162 
L 380.841528 -156.029482 
L 381.617174 -156.027848 
L 382.392821 -156.026258 
L 383.168467 -156.024712 
L 383.944113 -156.023208 
L 384.71976 -156.021745 
L 385.495406 -156.020322 
L 386.271052 -156.018938 
L 387.046699 -156.017592 
L 387.822345 -156.016283 
L 388.597992 -156.015009 
L 389.373638 -156.013771 
L 390.149284 -156.012566 
L 390.924931 -156.011394 
L 391.700577 -156.010254 
L 392.476223 -156.009146 
L 393.25187 -156.008067 
L 394.027516 -156.007018 
L 394.803163 -156.005998 
L 395.578809 -156.005006 
L 396.354455 -156.004041 
L 397.130102 -156.003102 
L 397.905748 -156.002189 
L 398.681394 -156.001301 
L 399.457041 -156.000437 
L 400.232687 -155.999597 
L 401.008334 -155.998779 
L 401.78398 -155.997984 
L 402.559626 -155.997211 
L 403.335273 -155.996459 
L 404.110919 -155.995728 
L 404.886565 -155.995016 
L 405.662212 -155.994324 
L 406.437858 -155.993651 
L 407.213504 -155.992996 
L 407.989151 -155.992359 
L 408.764797 -155.99174 
L 409.540444 -155.991138 
L 410.31609 -155.990552 
L 411.091736 -155.989982 
L 411.867383 -155.989427 
L 412.643029 -155.988888 
L 413.418675 -155.988364 
L 414.194322 -155.987854 
L 414.969968 -155.987357 
L 415.745615 -155.986875 
L 416.521261 -155.986405 
L 417.296907 -155.985949 
L 418.072554 -155.985505 
L 418.8482 -155.985073 
L 419.623846 -155.984653 
L 420.399493 -155.984244 
L 421.175139 -155.983846 
L 421.950786 -155.98346 
L 422.726432 -155.983084 
L 423.502078 -155.982718 
L 424.277725 -155.982362 
L 425.053371 -155.982016 
L 425.829017 -155.98168 
L 426.604664 -155.981352 
L 427.38031 -155.981034 
L 428.155957 -155.980724 
L 428.931603 -155.980423 
L 429.707249 -155.98013 
L 430.482896 -155.979845 
L 431.258542 -155.979568 
L 432.034188 -155.979298 
L 432.809835 -155.979036 
L 433.585481 -155.978781 
L 434.361128 -155.978533 
L 435.136774 -155.978291 
L 435.91242 -155.978057 
L 436.688067 -155.977828 
L 437.463713 -155.977606 
L 438.239359 -155.97739 
L 439.015006 -155.97718 
L 439.790652 -155.976976 
L 440.566298 -155.976777 
L 441.341945 -155.976584 
L 442.117591 -155.976396 
L 442.893238 -155.976213 
L 443.668884 -155.976035 
L 444.44453 -155.975862 
L 445.220177 -155.975694 
L 445.995823 -155.97553 
L 446.771469 -155.975371 
L 447.547116 -155.975216 
L 448.322762 -155.975065 
L 449.098409 -155.974919 
L 449.874055 -155.974776 
L 450.649701 -155.974638 
L 451.425348 -155.974503 
L 452.200994 -155.974372 
L 452.97664 -155.974244 
L 453.752287 -155.97412 
L 454.527933 -155.974 
L 455.30358 -155.973882 
L 456.079226 -155.973768 
L 456.854872 -155.973657 
L 457.630519 -155.973549 
L 458.406165 -155.973444 
L 459.181811 -155.973342 
L 459.957458 -155.973242 
L 460.733104 -155.973146 
L 461.508751 -155.973052 
L 462.284397 -155.97296 
L 463.060043 -155.972871 
L 463.83569 -155.972785 
L 464.611336 -155.972701 
L 465.386982 -155.972619 
L 466.162629 -155.972539 
L 466.938275 -155.972462 
L 467.713921 -155.972387 
L 468.489568 -155.972313 
L 469.265214 -155.972242 
L 470.040861 -155.972173 
L 470.816507 -155.972105 
L 471.592153 -155.97204 
L 472.3678 -155.971976 
L 473.143446 -155.971914 
L 473.919092 -155.971854 
L 474.694739 -155.971795 
L 475.470385 -155.971738 
L 476.246032 -155.971682 
L 477.021678 -155.971628 
L 477.797324 -155.971576 
L 478.572971 -155.971525 
L 479.348617 -155.971475 
L 480.124263 -155.971427 
L 480.89991 -155.97138 
L 481.675556 -155.971334 
L 482.451203 -155.97129 
L 483.226849 -155.971246 
L 484.002495 -155.971204 
L 484.778142 -155.971163 
L 485.553788 -155.971124 
L 486.329434 -155.971085 
L 487.105081 -155.971047 
L 487.880727 -155.971011 
L 488.656374 -155.970975 
L 489.43202 -155.97094 
L 490.207666 -155.970907 
L 490.983313 -155.970874 
L 491.758959 -155.970842 
L 492.534605 -155.970811 
L 493.310252 -155.970781 
L 494.085898 -155.970751 
L 494.861545 -155.970723 
L 495.637191 -155.970695 
L 496.412837 -155.970668 
L 497.188484 -155.970642 
L 497.96413 -155.970616 
L 498.739776 -155.970591 
L 499.515423 -155.970567 
L 500.291069 -155.970544 
L 501.066715 -155.970521 
L 501.842362 -155.970499 
L 502.618008 -155.970477 
L 503.393655 -155.970456 
L 504.169301 -155.970436 
L 504.944947 -155.970416 
L 505.720594 -155.970396 
L 506.49624 -155.970377 
L 507.271886 -155.970359 
L 508.047533 -155.970341 
L 508.823179 -155.970324 
L 509.598826 -155.970307 
L 510.374472 -155.970291 
L 511.150118 -155.970275 
L 511.925765 -155.970259 
L 512.701411 -155.970244 
L 513.477057 -155.97023 
L 514.252704 -155.970215 
L 515.02835 -155.970201 
L 515.803997 -155.970188 
L 516.579643 -155.970175 
L 517.355289 -155.970162 
L 518.130936 -155.97015 
L 518.906582 -155.970137 
L 519.682228 -155.970126 
L 520.457875 -155.970114 
L 521.233521 -155.970103 
L 522.009168 -155.970092 
L 522.784814 -155.970082 
L 523.56046 -155.970072 
L 524.336107 -155.970062 
L 525.111753 -155.970052 
L 525.887399 -155.970043 
L 526.663046 -155.970033 
L 527.438692 -155.970025 
L 528.214339 -155.970016 
L 528.989985 -155.970007 
L 529.765631 -155.969999 
L 530.541278 -155.969991 
L 531.316924 -155.969984 
L 532.09257 -155.969976 
L 532.868217 -155.969969 
L 533.643863 -155.969962 
L 534.419509 -155.969955 
L 535.195156 -155.969948 
L 535.970802 -155.969941 
L 536.746449 -155.969935 
L 537.522095 -155.969929 
L 538.297741 -155.969923 
L 539.073388 -155.969917 
L 539.849034 -155.969911 
L 540.62468 -155.969905 
L 541.400327 -155.9699 
L 542.175973 -155.969895 
L 542.95162 -155.96989 
L 543.727266 -155.969885 
L 544.502912 -155.96988 
L 545.278559 -155.969875 
L 546.054205 -155.969871 
L 546.829851 -155.969866 
L 547.605498 -155.969862 
L 548.381144 -155.969858 
L 549.156791 -155.969853 
L 549.932437 -155.96985 
L 550.708083 -155.969846 
L 551.48373 -155.969842 
L 552.259376 -155.969838 
L 553.035022 -155.969835 
L 553.810669 -155.969831 
L 554.586315 -155.969828 
L 555.361962 -155.969824 
L 556.137608 -155.969821 
L 556.913254 -155.969818 
L 557.688901 -155.969815 
L 558.464547 -155.969812 
L 559.240193 -155.969809 
L 560.01584 -155.969807 
L 560.791486 -155.969804 
L 561.567133 -155.969801 
L 562.342779 -155.969799 
L 563.118425 -155.969796 
L 563.894072 -155.969794 
L 564.669718 -155.969791 
L 565.445364 -155.969789 
L 566.221011 -155.969787 
L 566.996657 -155.969785 
L 567.772303 -155.969783 
L 568.54795 -155.969781 
L 569.323596 -155.969779 
L 570.099243 -155.969777 
L 570.874889 -155.969775 
L 571.650535 -155.969773 
L 572.426182 -155.969771 
L 573.201828 -155.969769 
L 573.977474 -155.969768 
L 574.753121 -155.969766 
L 575.528767 -155.969765 
L 576.304414 -155.969763 
L 577.08006 -155.969761 
L 577.855706 -155.96976 
L 578.631353 -155.969759 
L 579.406999 -155.969757 
L 580.182645 -155.969756 
L 580.958292 -155.969755 
L 581.733938 -155.969753 
L 582.509585 -155.969752 
L 583.285231 -155.969751 
L 584.060877 -155.96975 
L 584.836524 -155.969748 
L 585.61217 -155.969747 
L 586.387816 -155.969746 
L 587.163463 -155.969745 
L 587.939109 -155.969744 
L 588.714756 -155.969743 
L 589.490402 -155.969742 
L 590.266048 -155.969741 
L 591.041695 -155.96974 
L 591.817341 -155.969739 
L 592.592987 -155.969739 
L 593.368634 -155.969738 
L 594.14428 -155.969737 
L 594.919927 -155.969736 
L 595.695573 -155.969735 
L 596.471219 -155.969735 
L 597.246866 -155.969734 
L 598.022512 -155.969733 
L 598.798158 -155.969732 
L 599.573805 -155.969732 
L 600.349451 -155.969731 
L 601.125097 -155.96973 
L 601.900744 -155.96973 
L 602.67639 -155.969729 
L 603.452037 -155.969729 
L 604.227683 -155.969728 
L 605.003329 -155.969728 
L 605.778976 -155.969727 
L 606.554622 -155.969726 
L 607.330268 -155.969726 
L 608.105915 -155.969725 
L 608.881561 -155.969725 
L 609.657208 -155.969725 
L 610.432854 -155.969724 
L 611.2085 -155.969724 
L 611.984147 -155.969723 
L 612.759793 -155.969723 
L 613.535439 -155.969722 
L 614.311086 -155.969722 
L 615.086732 -155.969722 
L 615.862379 -155.969721 
L 616.638025 -155.969721 
L 617.413671 -155.96972 
L 618.189318 -155.96972 
L 618.964964 -155.96972 
L 619.74061 -155.969719 
L 620.516257 -155.969719 
L 621.291903 -155.969719 
L 622.06755 -155.969718 
L 622.843196 -155.969718 
L 623.618842 -155.969718 
L 624.394489 -155.969718 
L 624.394489 -156.840888 
L 624.394489 -156.840888 
L 623.618842 -156.84967 
L 622.843196 -156.85854 
L 622.06755 -156.8675 
L 621.291903 -156.87655 
L 620.516257 -156.885691 
L 619.74061 -156.894924 
L 618.964964 -156.90425 
L 618.189318 -156.913669 
L 617.413671 -156.923184 
L 616.638025 -156.932794 
L 615.862379 -156.942501 
L 615.086732 -156.952306 
L 614.311086 -156.962209 
L 613.535439 -156.972212 
L 612.759793 -156.982315 
L 611.984147 -156.99252 
L 611.2085 -157.002828 
L 610.432854 -157.01324 
L 609.657208 -157.023756 
L 608.881561 -157.034378 
L 608.105915 -157.045107 
L 607.330268 -157.055944 
L 606.554622 -157.066889 
L 605.778976 -157.077945 
L 605.003329 -157.089112 
L 604.227683 -157.100392 
L 603.452037 -157.111784 
L 602.67639 -157.123292 
L 601.900744 -157.134915 
L 601.125097 -157.146655 
L 600.349451 -157.158512 
L 599.573805 -157.17049 
L 598.798158 -157.182587 
L 598.022512 -157.194806 
L 597.246866 -157.207148 
L 596.471219 -157.219614 
L 595.695573 -157.232206 
L 594.919927 -157.244924 
L 594.14428 -157.257769 
L 593.368634 -157.270744 
L 592.592987 -157.283849 
L 591.817341 -157.297086 
L 591.041695 -157.310456 
L 590.266048 -157.323961 
L 589.490402 -157.337601 
L 588.714756 -157.351378 
L 587.939109 -157.365293 
L 587.163463 -157.379348 
L 586.387816 -157.393545 
L 585.61217 -157.407884 
L 584.836524 -157.422367 
L 584.060877 -157.436996 
L 583.285231 -157.451771 
L 582.509585 -157.466695 
L 581.733938 -157.481769 
L 580.958292 -157.496994 
L 580.182645 -157.512372 
L 579.406999 -157.527904 
L 578.631353 -157.543593 
L 577.855706 -157.559439 
L 577.08006 -157.575444 
L 576.304414 -157.591609 
L 575.528767 -157.607937 
L 574.753121 -157.624429 
L 573.977474 -157.641087 
L 573.201828 -157.657911 
L 572.426182 -157.674905 
L 571.650535 -157.692069 
L 570.874889 -157.709405 
L 570.099243 -157.726915 
L 569.323596 -157.744601 
L 568.54795 -157.762464 
L 567.772303 -157.780506 
L 566.996657 -157.79873 
L 566.221011 -157.817136 
L 565.445364 -157.835727 
L 564.669718 -157.854504 
L 563.894072 -157.87347 
L 563.118425 -157.892626 
L 562.342779 -157.911974 
L 561.567133 -157.931516 
L 560.791486 -157.951254 
L 560.01584 -157.97119 
L 559.240193 -157.991325 
L 558.464547 -158.011663 
L 557.688901 -158.032204 
L 556.913254 -158.052951 
L 556.137608 -158.073906 
L 555.361962 -158.095071 
L 554.586315 -158.116448 
L 553.810669 -158.13804 
L 553.035022 -158.159848 
L 552.259376 -158.181874 
L 551.48373 -158.20412 
L 550.708083 -158.22659 
L 549.932437 -158.249285 
L 549.156791 -158.272207 
L 548.381144 -158.295358 
L 547.605498 -158.318742 
L 546.829851 -158.342359 
L 546.054205 -158.366213 
L 545.278559 -158.390306 
L 544.502912 -158.414639 
L 543.727266 -158.439217 
L 542.95162 -158.46404 
L 542.175973 -158.489112 
L 541.400327 -158.514435 
L 540.62468 -158.540011 
L 539.849034 -158.565843 
L 539.073388 -158.591933 
L 538.297741 -158.618284 
L 537.522095 -158.644899 
L 536.746449 -158.67178 
L 535.970802 -158.69893 
L 535.195156 -158.726351 
L 534.419509 -158.754046 
L 533.643863 -158.782019 
L 532.868217 -158.81027 
L 532.09257 -158.838805 
L 531.316924 -158.867624 
L 530.541278 -158.896731 
L 529.765631 -158.92613 
L 528.989985 -158.955821 
L 528.214339 -158.98581 
L 527.438692 -159.016098 
L 526.663046 -159.046689 
L 525.887399 -159.077585 
L 525.111753 -159.108789 
L 524.336107 -159.140305 
L 523.56046 -159.172136 
L 522.784814 -159.204284 
L 522.009168 -159.236753 
L 521.233521 -159.269547 
L 520.457875 -159.302667 
L 519.682228 -159.336118 
L 518.906582 -159.369903 
L 518.130936 -159.404025 
L 517.355289 -159.438486 
L 516.579643 -159.473292 
L 515.803997 -159.508445 
L 515.02835 -159.543948 
L 514.252704 -159.579805 
L 513.477057 -159.616019 
L 512.701411 -159.652595 
L 511.925765 -159.689534 
L 511.150118 -159.726842 
L 510.374472 -159.764522 
L 509.598826 -159.802576 
L 508.823179 -159.84101 
L 508.047533 -159.879827 
L 507.271886 -159.919029 
L 506.49624 -159.958623 
L 505.720594 -159.99861 
L 504.944947 -160.038995 
L 504.169301 -160.079782 
L 503.393655 -160.120975 
L 502.618008 -160.162578 
L 501.842362 -160.204594 
L 501.066715 -160.247028 
L 500.291069 -160.289884 
L 499.515423 -160.333167 
L 498.739776 -160.376879 
L 497.96413 -160.421026 
L 497.188484 -160.465612 
L 496.412837 -160.51064 
L 495.637191 -160.556116 
L 494.861545 -160.602043 
L 494.085898 -160.648427 
L 493.310252 -160.695271 
L 492.534605 -160.74258 
L 491.758959 -160.790359 
L 490.983313 -160.838612 
L 490.207666 -160.887343 
L 489.43202 -160.936558 
L 488.656374 -160.986261 
L 487.880727 -161.036457 
L 487.105081 -161.087151 
L 486.329434 -161.138347 
L 485.553788 -161.19005 
L 484.778142 -161.242266 
L 484.002495 -161.294999 
L 483.226849 -161.348255 
L 482.451203 -161.402038 
L 481.675556 -161.456353 
L 480.89991 -161.511206 
L 480.124263 -161.566602 
L 479.348617 -161.622546 
L 478.572971 -161.679044 
L 477.797324 -161.7361 
L 477.021678 -161.793721 
L 476.246032 -161.851912 
L 475.470385 -161.910677 
L 474.694739 -161.970024 
L 473.919092 -162.029957 
L 473.143446 -162.090482 
L 472.3678 -162.151604 
L 471.592153 -162.213331 
L 470.816507 -162.275666 
L 470.040861 -162.338617 
L 469.265214 -162.402189 
L 468.489568 -162.466388 
L 467.713921 -162.53122 
L 466.938275 -162.596692 
L 466.162629 -162.662809 
L 465.386982 -162.729578 
L 464.611336 -162.797004 
L 463.83569 -162.865095 
L 463.060043 -162.933856 
L 462.284397 -163.003295 
L 461.508751 -163.073417 
L 460.733104 -163.144229 
L 459.957458 -163.215737 
L 459.181811 -163.287949 
L 458.406165 -163.360871 
L 457.630519 -163.43451 
L 456.854872 -163.508873 
L 456.079226 -163.583966 
L 455.30358 -163.659797 
L 454.527933 -163.736372 
L 453.752287 -163.813699 
L 452.97664 -163.891785 
L 452.200994 -163.970638 
L 451.425348 -164.050263 
L 450.649701 -164.130669 
L 449.874055 -164.211864 
L 449.098409 -164.293854 
L 448.322762 -164.376647 
L 447.547116 -164.460252 
L 446.771469 -164.544674 
L 445.995823 -164.629923 
L 445.220177 -164.716006 
L 444.44453 -164.802932 
L 443.668884 -164.890707 
L 442.893238 -164.97934 
L 442.117591 -165.068839 
L 441.341945 -165.159212 
L 440.566298 -165.250468 
L 439.790652 -165.342615 
L 439.015006 -165.43566 
L 438.239359 -165.529614 
L 437.463713 -165.624484 
L 436.688067 -165.720278 
L 435.91242 -165.817006 
L 435.136774 -165.914676 
L 434.361128 -166.013297 
L 433.585481 -166.112879 
L 432.809835 -166.213429 
L 432.034188 -166.314957 
L 431.258542 -166.417472 
L 430.482896 -166.520984 
L 429.707249 -166.625501 
L 428.931603 -166.731033 
L 428.155957 -166.83759 
L 427.38031 -166.94518 
L 426.604664 -167.053815 
L 425.829017 -167.163502 
L 425.053371 -167.274253 
L 424.277725 -167.386076 
L 423.502078 -167.498982 
L 422.726432 -167.612982 
L 421.950786 -167.728084 
L 421.175139 -167.844299 
L 420.399493 -167.961638 
L 419.623846 -168.08011 
L 418.8482 -168.199727 
L 418.072554 -168.320498 
L 417.296907 -168.442435 
L 416.521261 -168.565548 
L 415.745615 -168.689847 
L 414.969968 -168.815345 
L 414.194322 -168.942051 
L 413.418675 -169.069976 
L 412.643029 -169.199133 
L 411.867383 -169.329531 
L 411.091736 -169.461183 
L 410.31609 -169.5941 
L 409.540444 -169.728293 
L 408.764797 -169.863774 
L 407.989151 -170.000554 
L 407.213504 -170.138646 
L 406.437858 -170.278061 
L 405.662212 -170.418811 
L 404.886565 -170.560909 
L 404.110919 -170.704365 
L 403.335273 -170.849194 
L 402.559626 -170.995406 
L 401.78398 -171.143015 
L 401.008334 -171.292032 
L 400.232687 -171.442471 
L 399.457041 -171.594345 
L 398.681394 -171.747665 
L 397.905748 -171.902446 
L 397.130102 -172.058699 
L 396.354455 -172.216439 
L 395.578809 -172.375678 
L 394.803163 -172.536429 
L 394.027516 -172.698707 
L 393.25187 -172.862524 
L 392.476223 -173.027894 
L 391.700577 -173.194831 
L 390.924931 -173.363349 
L 390.149284 -173.533461 
L 389.373638 -173.705182 
L 388.597992 -173.878525 
L 387.822345 -174.053506 
L 387.046699 -174.230137 
L 386.271052 -174.408435 
L 385.495406 -174.588412 
L 384.71976 -174.770084 
L 383.944113 -174.953466 
L 383.168467 -175.138572 
L 382.392821 -175.325417 
L 381.617174 -175.514017 
L 380.841528 -175.704385 
L 380.065881 -175.896539 
L 379.290235 -176.090492 
L 378.514589 -176.286261 
L 377.738942 -176.483861 
L 376.963296 -176.683308 
L 376.18765 -176.884617 
L 375.412003 -177.087804 
L 374.636357 -177.292886 
L 373.86071 -177.499878 
L 373.085064 -177.708796 
L 372.309418 -177.919657 
L 371.533771 -178.132478 
L 370.758125 -178.347274 
L 369.982479 -178.564062 
L 369.206832 -178.782859 
L 368.431186 -179.003682 
L 367.65554 -179.226547 
L 366.879893 -179.451473 
L 366.104247 -179.678475 
L 365.3286 -179.907571 
L 364.552954 -180.138778 
L 363.777308 -180.372115 
L 363.001661 -180.607597 
L 362.226015 -180.845244 
L 361.450369 -181.085072 
L 360.674722 -181.327099 
L 359.899076 -181.571344 
L 359.123429 -181.817825 
L 358.347783 -182.066559 
L 357.572137 -182.317565 
L 356.79649 -182.570861 
L 356.020844 -182.826466 
L 355.245198 -183.084398 
L 354.469551 -183.344676 
L 353.693905 -183.607318 
L 352.918258 -183.872344 
L 352.142612 -184.139772 
L 351.366966 -184.409622 
L 350.591319 -184.681912 
L 349.815673 -184.956662 
L 349.040027 -185.23389 
L 348.26438 -185.513618 
L 347.488734 -185.795863 
L 346.713087 -186.080645 
L 345.937441 -186.367985 
L 345.161795 -186.657902 
L 344.386148 -186.950415 
L 343.610502 -187.245545 
L 342.834856 -187.543313 
L 342.059209 -187.843737 
L 341.283563 -188.146838 
L 340.507916 -188.452636 
L 339.73227 -188.761152 
L 338.956624 -189.072407 
L 338.180977 -189.38642 
L 337.405331 -189.703212 
L 336.629685 -190.022805 
L 335.854038 -190.345218 
L 335.078392 -190.670473 
L 334.302746 -190.998591 
L 333.527099 -191.329592 
L 332.751453 -191.663497 
L 331.975806 -192.000328 
L 331.20016 -192.340106 
L 330.424514 -192.682852 
L 329.648867 -193.028587 
L 328.873221 -193.377333 
L 328.097575 -193.729112 
L 327.321928 -194.083943 
L 326.546282 -194.44185 
L 325.770635 -194.802854 
L 324.994989 -195.166976 
L 324.219343 -195.534238 
L 323.443696 -195.904662 
L 322.66805 -196.278269 
L 321.892404 -196.655081 
L 321.116757 -197.035121 
L 320.341111 -197.41841 
L 319.565464 -197.804969 
L 318.789818 -198.194822 
L 318.014172 -198.587989 
L 317.238525 -198.984494 
L 316.462879 -199.384357 
L 315.687233 -199.787601 
L 314.911586 -200.194248 
L 314.13594 -200.60432 
L 313.360293 -201.017839 
L 312.584647 -201.434827 
L 311.809001 -201.855306 
L 311.033354 -202.279299 
L 310.257708 -202.706827 
L 309.482062 -203.137912 
L 308.706415 -203.572577 
L 307.930769 -204.010844 
L 307.155122 -204.452734 
L 306.379476 -204.898269 
L 305.60383 -205.347472 
L 304.828183 -205.800364 
L 304.052537 -206.256968 
L 303.276891 -206.717305 
L 302.501244 -207.181397 
L 301.725598 -207.649266 
L 300.949952 -208.120933 
L 300.174305 -208.59642 
L 299.398659 -209.075749 
L 298.623012 -209.558942 
L 297.847366 -210.046019 
L 297.07172 -210.537003 
L 296.296073 -211.031913 
L 295.520427 -211.530773 
L 294.744781 -212.033602 
L 293.969134 -212.540423 
L 293.193488 -213.051255 
L 292.417841 -213.566119 
L 291.642195 -214.085037 
L 290.866549 -214.608029 
L 290.090902 -215.135116 
L 289.315256 -215.666317 
L 288.53961 -216.201653 
L 287.763963 -216.741144 
L 286.988317 -217.28481 
L 286.21267 -217.83267 
L 285.437024 -218.384745 
L 284.661378 -218.941054 
L 283.885731 -219.501616 
L 283.110085 -220.066449 
L 282.334439 -220.635574 
L 281.558792 -221.209008 
L 280.783146 -221.786771 
L 280.007499 -222.368879 
L 279.231853 -222.955353 
L 278.456207 -223.546208 
L 277.68056 -224.141464 
L 276.904914 -224.741137 
L 276.129268 -225.345245 
L 275.353621 -225.953804 
L 274.577975 -226.566831 
L 273.802329 -227.184342 
L 273.026682 -227.806354 
L 272.251036 -228.432882 
L 271.475389 -229.063942 
L 270.699743 -229.699548 
L 269.924097 -230.339717 
L 269.14845 -230.984462 
L 268.372804 -231.633798 
L 267.597158 -232.287738 
L 266.821511 -232.946297 
L 266.045865 -233.609487 
L 265.270218 -234.277321 
L 264.494572 -234.949812 
L 263.718926 -235.626972 
L 262.943279 -236.308812 
L 262.167633 -236.995344 
L 261.391987 -237.686579 
L 260.61634 -238.382527 
L 259.840694 -239.083199 
L 259.065047 -239.788604 
L 258.289401 -240.49875 
L 257.513755 -241.213648 
L 256.738108 -241.933305 
L 255.962462 -242.657728 
L 255.186816 -243.386926 
L 254.411169 -244.120904 
L 253.635523 -244.85967 
L 252.859876 -245.603229 
L 252.08423 -246.351586 
L 251.308584 -247.104746 
L 250.532937 -247.862712 
L 249.757291 -248.62549 
L 248.981645 -249.393081 
L 248.205998 -250.165487 
L 247.430352 -250.942712 
L 246.654705 -251.724755 
L 245.879059 -252.511618 
L 245.103413 -253.303301 
L 244.327766 -254.099802 
L 243.55212 -254.90112 
L 242.776474 -255.707254 
L 242.000827 -256.5182 
L 241.225181 -257.333956 
L 240.449535 -258.154517 
L 239.673888 -258.979878 
L 238.898242 -259.810034 
L 238.122595 -260.644979 
L 237.346949 -261.484705 
L 236.571303 -262.329205 
L 235.795656 -263.178469 
L 235.02001 -264.03249 
L 234.244364 -264.891256 
L 233.468717 -265.754756 
L 232.693071 -266.62298 
L 231.917424 -267.495913 
L 231.141778 -268.373543 
L 230.366132 -269.255855 
L 229.590485 -270.142833 
L 228.814839 -271.034463 
L 228.039193 -271.930725 
L 227.263546 -272.831604 
L 226.4879 -273.737078 
L 225.712253 -274.647129 
L 224.936607 -275.561736 
L 224.160961 -276.480876 
L 223.385314 -277.404527 
L 222.609668 -278.332665 
L 221.834022 -279.265264 
L 221.058375 -280.202299 
L 220.282729 -281.143743 
L 219.507082 -282.089567 
L 218.731436 -283.039741 
L 217.95579 -283.994236 
L 217.180143 -284.95302 
L 216.404497 -285.91606 
L 215.628851 -286.883321 
L 214.853204 -287.854769 
L 214.077558 -288.830367 
L 213.301911 -289.810078 
L 212.526265 -290.793861 
L 211.750619 -291.781677 
L 210.974972 -292.773484 
L 210.199326 -293.769239 
L 209.42368 -294.768897 
L 208.648033 -295.772412 
L 207.872387 -296.779737 
L 207.096741 -297.790822 
L 206.321094 -298.805618 
L 205.545448 -299.824071 
L 204.769801 -300.846127 
L 203.994155 -301.871732 
L 203.218509 -302.900828 
L 202.442862 -303.933355 
L 201.667216 -304.969254 
L 200.89157 -306.00846 
L 200.115923 -307.050909 
L 199.340277 -308.096534 
L 198.56463 -309.145265 
L 197.788984 -310.197033 
L 197.013338 -311.251762 
L 196.237691 -312.309377 
L 195.462045 -313.369799 
L 194.686399 -314.432948 
L 193.910752 -315.498739 
L 193.135106 -316.567086 
L 192.359459 -317.637899 
L 191.583813 -318.711086 
L 190.808167 -319.78655 
L 190.03252 -320.864193 
L 189.256874 -321.943911 
L 188.481228 -323.025598 
L 187.705581 -324.109142 
L 186.929935 -325.19443 
L 186.154288 -326.281341 
L 185.378642 -327.369752 
L 184.602996 -328.459533 
L 183.827349 -329.55055 
L 183.051703 -330.642664 
L 182.276057 -331.735729 
L 181.50041 -332.829592 
L 180.724764 -333.924096 
L 179.949117 -335.019073 
L 179.173471 -336.114352 
L 178.397825 -337.209749 
L 177.622178 -338.305077 
L 176.846532 -339.400134 
L 176.070886 -340.494713 
L 175.295239 -341.588594 
L 174.519593 -342.681546 
L 173.743947 -343.773326 
L 172.9683 -344.86368 
L 172.192654 -345.952338 
L 171.417007 -347.039016 
L 170.641361 -348.123414 
L 169.865715 -349.205217 
L 169.090068 -350.284088 
L 168.314422 -351.359675 
L 167.538776 -352.431601 
L 166.763129 -353.499469 
L 165.987483 -354.562856 
L 165.211836 -355.621315 
L 164.43619 -356.674367 
L 163.660544 -357.721507 
L 162.884897 -358.762194 
L 162.109251 -359.795852 
L 161.333605 -360.821869 
L 160.557958 -361.839587 
L 159.782312 -362.848309 
L 159.006665 -363.847284 
L 158.231019 -364.83571 
L 157.455373 -365.81273 
L 156.679726 -366.777421 
L 155.90408 -367.728794 
L 155.128434 -368.665786 
L 154.352787 -369.587254 
L 153.577141 -370.491965 
L 152.801494 -371.378591 
L 152.025848 -372.245698 
L 151.250202 -373.091735 
L 150.474555 -373.915025 
L 149.698909 -374.713747 
L 148.923263 -375.485927 
L 148.147616 -376.229418 
L 147.37197 -376.94188 
L 146.596323 -377.620761 
L 145.820677 -378.263273 
L 145.045031 -378.86636 
L 144.269384 -379.426669 
L 143.493738 -379.940512 
L 142.718092 -380.40382 
L 141.942445 -380.812099 
L 141.166799 -381.160367 
L 140.391153 -381.443085 
L 139.615506 -381.654081 
L 138.83986 -381.786452 
L 138.064213 -381.832454 
L 137.288567 -381.783368 
L 136.512921 -381.709373 
L 135.737274 -381.818254 
L 134.961628 -381.817692 
L 134.185982 -381.694165 
L 133.410335 -381.763317 
L 132.634689 -381.832454 
L 131.859042 -381.756392 
L 131.083396 -381.63901 
L 130.30775 -381.809669 
L 129.532103 -381.808239 
L 128.756457 -381.600202 
L 127.980811 -381.714153 
L 127.205164 -381.832454 
L 126.429518 -381.693109 
L 125.653871 -381.223183 
L 124.878225 -380.325637 
L 124.102579 -378.869387 
L 123.326932 -376.674086 
L 122.551286 -373.486122 
L 121.77564 -368.939439 
L 120.999993 -362.489121 
L 120.224347 -353.293805 
L 119.4487 -339.996911 
L 118.673054 -320.295097 
L 117.897408 -290.025733 
L 117.121761 -241.066999 
z
" style="stroke: #ffa500; stroke-opacity: 0.3"/>
    </defs>
    <g clip-path="url(#p910625ace3)">
     <use xlink:href="#m5b846e96c5" x="0" y="540.100875" style="fill: #ffa500; fill-opacity: 0.3; stroke: #ffa500; stroke-opacity: 0.3"/>
    </g>
   </g>
   <g id="PolyCollection_2">
    <defs>
     <path id="m4da43d675c" d="M 117.121761 -464.06096 
L 117.121761 -397.116121 
L 117.897408 -450.864899 
L 118.673054 -467.331633 
L 119.4487 -473.524795 
L 120.224347 -476.220388 
L 120.999993 -477.530684 
L 121.77564 -478.225437 
L 122.551286 -478.620647 
L 123.326932 -478.858897 
L 124.102579 -479.009679 
L 124.878225 -479.109112 
L 125.653871 -479.177024 
L 126.429518 -479.224817 
L 127.205164 -479.259326 
L 127.980811 -479.28479 
L 128.756457 -479.303928 
L 129.532103 -479.318529 
L 130.30775 -479.3298 
L 131.083396 -479.338576 
L 131.859042 -479.343679 
L 132.634689 -479.336209 
L 133.410335 -479.327415 
L 134.185982 -479.317166 
L 134.961628 -479.305309 
L 135.737274 -479.291664 
L 136.512921 -479.27603 
L 137.288567 -479.258179 
L 138.064213 -479.237855 
L 138.83986 -479.214775 
L 139.615506 -479.188628 
L 140.391153 -479.159068 
L 141.166799 -479.125719 
L 141.942445 -479.08817 
L 142.718092 -479.045971 
L 143.493738 -478.998637 
L 144.269384 -478.945641 
L 145.045031 -478.886414 
L 145.820677 -478.820343 
L 146.596323 -478.746773 
L 147.37197 -478.665 
L 148.147616 -478.574273 
L 148.923263 -478.473791 
L 149.698909 -478.362706 
L 150.474555 -478.240117 
L 151.250202 -478.105074 
L 152.025848 -477.956576 
L 152.801494 -477.793568 
L 153.577141 -477.614949 
L 154.352787 -477.419565 
L 155.128434 -477.206213 
L 155.90408 -476.973645 
L 156.679726 -476.720566 
L 157.455373 -476.445636 
L 158.231019 -476.147477 
L 159.006665 -475.824669 
L 159.782312 -475.475761 
L 160.557958 -475.099269 
L 161.333605 -474.69368 
L 162.109251 -474.257462 
L 162.884897 -473.789062 
L 163.660544 -473.286915 
L 164.43619 -472.749448 
L 165.211836 -472.175088 
L 165.987483 -471.562262 
L 166.763129 -470.90941 
L 167.538776 -470.214989 
L 168.314422 -469.477476 
L 169.090068 -468.695379 
L 169.865715 -467.867243 
L 170.641361 -466.991655 
L 171.417007 -466.06725 
L 172.192654 -465.09272 
L 172.9683 -464.066822 
L 173.743947 -462.988377 
L 174.519593 -461.856284 
L 175.295239 -460.669522 
L 176.070886 -459.427157 
L 176.846532 -458.128346 
L 177.622178 -456.772343 
L 178.397825 -455.358503 
L 179.173471 -453.886286 
L 179.949117 -452.35526 
L 180.724764 -450.765108 
L 181.50041 -449.115625 
L 182.276057 -447.406723 
L 183.051703 -445.638434 
L 183.827349 -443.810909 
L 184.602996 -441.924419 
L 185.378642 -439.979355 
L 186.154288 -437.976229 
L 186.929935 -435.915669 
L 187.705581 -433.798423 
L 188.481228 -431.625352 
L 189.256874 -429.397431 
L 190.03252 -427.115743 
L 190.808167 -424.781478 
L 191.583813 -422.395928 
L 192.359459 -419.960482 
L 193.135106 -417.476624 
L 193.910752 -414.945926 
L 194.686399 -412.370042 
L 195.462045 -409.750705 
L 196.237691 -407.08972 
L 197.013338 -404.388957 
L 197.788984 -401.65035 
L 198.56463 -398.875882 
L 199.340277 -396.067589 
L 200.115923 -393.227546 
L 200.89157 -390.357864 
L 201.667216 -387.460686 
L 202.442862 -384.538174 
L 203.218509 -381.592512 
L 203.994155 -378.625893 
L 204.769801 -375.640515 
L 205.545448 -372.638578 
L 206.321094 -369.622276 
L 207.096741 -366.593791 
L 207.872387 -363.55529 
L 208.648033 -360.50892 
L 209.42368 -357.456803 
L 210.199326 -354.40103 
L 210.974972 -351.343659 
L 211.750619 -348.286712 
L 212.526265 -345.232168 
L 213.301911 -342.181962 
L 214.077558 -339.137983 
L 214.853204 -336.10207 
L 215.628851 -333.076008 
L 216.404497 -330.061528 
L 217.180143 -327.060305 
L 217.95579 -324.073955 
L 218.731436 -321.104036 
L 219.507082 -318.152043 
L 220.282729 -315.21941 
L 221.058375 -312.307508 
L 221.834022 -309.417647 
L 222.609668 -306.551071 
L 223.385314 -303.708963 
L 224.160961 -300.892441 
L 224.936607 -298.102559 
L 225.712253 -295.340312 
L 226.4879 -292.60663 
L 227.263546 -289.902381 
L 228.039193 -287.228375 
L 228.814839 -284.585362 
L 229.590485 -281.974031 
L 230.366132 -279.395017 
L 231.141778 -276.848897 
L 231.917424 -274.336193 
L 232.693071 -271.857376 
L 233.468717 -269.412863 
L 234.244364 -267.00302 
L 235.02001 -264.628168 
L 235.795656 -262.288578 
L 236.571303 -259.984475 
L 237.346949 -257.716042 
L 238.122595 -255.483419 
L 238.898242 -253.286705 
L 239.673888 -251.125962 
L 240.449535 -249.001212 
L 241.225181 -246.912443 
L 242.000827 -244.85961 
L 242.776474 -242.842635 
L 243.55212 -240.86141 
L 244.327766 -238.915795 
L 245.103413 -237.005627 
L 245.879059 -235.130714 
L 246.654705 -233.290841 
L 247.430352 -231.485769 
L 248.205998 -229.715239 
L 248.981645 -227.97897 
L 249.757291 -226.276664 
L 250.532937 -224.608004 
L 251.308584 -222.972658 
L 252.08423 -221.370278 
L 252.859876 -219.800504 
L 253.635523 -218.262961 
L 254.411169 -216.757265 
L 255.186816 -215.283019 
L 255.962462 -213.839818 
L 256.738108 -212.427249 
L 257.513755 -211.04489 
L 258.289401 -209.692315 
L 259.065047 -208.369088 
L 259.840694 -207.074773 
L 260.61634 -205.808925 
L 261.391987 -204.5711 
L 262.167633 -203.360849 
L 262.943279 -202.17772 
L 263.718926 -201.021262 
L 264.494572 -199.891021 
L 265.270218 -198.786544 
L 266.045865 -197.707378 
L 266.821511 -196.653071 
L 267.597158 -195.623172 
L 268.372804 -194.61723 
L 269.14845 -193.634799 
L 269.924097 -192.675434 
L 270.699743 -191.738693 
L 271.475389 -190.824136 
L 272.251036 -189.931328 
L 273.026682 -189.059838 
L 273.802329 -188.209237 
L 274.577975 -187.379103 
L 275.353621 -186.569015 
L 276.129268 -185.778559 
L 276.904914 -185.007327 
L 277.68056 -184.254912 
L 278.456207 -183.520916 
L 279.231853 -182.804944 
L 280.007499 -182.106608 
L 280.783146 -181.425524 
L 281.558792 -180.761315 
L 282.334439 -180.113608 
L 283.110085 -179.482038 
L 283.885731 -178.866243 
L 284.661378 -178.265869 
L 285.437024 -177.680567 
L 286.21267 -177.109995 
L 286.988317 -176.553815 
L 287.763963 -176.011696 
L 288.53961 -175.483313 
L 289.315256 -174.968346 
L 290.090902 -174.466482 
L 290.866549 -173.977414 
L 291.642195 -173.50084 
L 292.417841 -173.036463 
L 293.193488 -172.583995 
L 293.969134 -172.143149 
L 294.744781 -171.713648 
L 295.520427 -171.295218 
L 296.296073 -170.887592 
L 297.07172 -170.490507 
L 297.847366 -170.103707 
L 298.623012 -169.726941 
L 299.398659 -169.359963 
L 300.174305 -169.002532 
L 300.949952 -168.654413 
L 301.725598 -168.315375 
L 302.501244 -167.985193 
L 303.276891 -167.663647 
L 304.052537 -167.350521 
L 304.828183 -167.045605 
L 305.60383 -166.748692 
L 306.379476 -166.459582 
L 307.155122 -166.178077 
L 307.930769 -165.903987 
L 308.706415 -165.637122 
L 309.482062 -165.377299 
L 310.257708 -165.12434 
L 311.033354 -164.87807 
L 311.809001 -164.638318 
L 312.584647 -164.404916 
L 313.360293 -164.177703 
L 314.13594 -163.956518 
L 314.911586 -163.741208 
L 315.687233 -163.531621 
L 316.462879 -163.327609 
L 317.238525 -163.129028 
L 318.014172 -162.935737 
L 318.789818 -162.747599 
L 319.565464 -162.56448 
L 320.341111 -162.386249 
L 321.116757 -162.21278 
L 321.892404 -162.043948 
L 322.66805 -161.879632 
L 323.443696 -161.719713 
L 324.219343 -161.564078 
L 324.994989 -161.412612 
L 325.770635 -161.265207 
L 326.546282 -161.121757 
L 327.321928 -160.982156 
L 328.097575 -160.846304 
L 328.873221 -160.714102 
L 329.648867 -160.585454 
L 330.424514 -160.460265 
L 331.20016 -160.338444 
L 331.975806 -160.219902 
L 332.751453 -160.104553 
L 333.527099 -159.99231 
L 334.302746 -159.883093 
L 335.078392 -159.776821 
L 335.854038 -159.673414 
L 336.629685 -159.572798 
L 337.405331 -159.474898 
L 338.180977 -159.379641 
L 338.956624 -159.286957 
L 339.73227 -159.196778 
L 340.507916 -159.109036 
L 341.283563 -159.023666 
L 342.059209 -158.940605 
L 342.834856 -158.859792 
L 343.610502 -158.781165 
L 344.386148 -158.704667 
L 345.161795 -158.63024 
L 345.937441 -158.557829 
L 346.713087 -158.487379 
L 347.488734 -158.418839 
L 348.26438 -158.352156 
L 349.040027 -158.287282 
L 349.815673 -158.224166 
L 350.591319 -158.162763 
L 351.366966 -158.103026 
L 352.142612 -158.044909 
L 352.918258 -157.98837 
L 353.693905 -157.933366 
L 354.469551 -157.879856 
L 355.245198 -157.827798 
L 356.020844 -157.777155 
L 356.79649 -157.727888 
L 357.572137 -157.679959 
L 358.347783 -157.633333 
L 359.123429 -157.587975 
L 359.899076 -157.543849 
L 360.674722 -157.500924 
L 361.450369 -157.459165 
L 362.226015 -157.418543 
L 363.001661 -157.379025 
L 363.777308 -157.340583 
L 364.552954 -157.303187 
L 365.3286 -157.266809 
L 366.104247 -157.23142 
L 366.879893 -157.196995 
L 367.65554 -157.163508 
L 368.431186 -157.130932 
L 369.206832 -157.099243 
L 369.982479 -157.068417 
L 370.758125 -157.038431 
L 371.533771 -157.009262 
L 372.309418 -156.980887 
L 373.085064 -156.953286 
L 373.86071 -156.926436 
L 374.636357 -156.900319 
L 375.412003 -156.874913 
L 376.18765 -156.850199 
L 376.963296 -156.826159 
L 377.738942 -156.802775 
L 378.514589 -156.780028 
L 379.290235 -156.757901 
L 380.065881 -156.736378 
L 380.841528 -156.715442 
L 381.617174 -156.695076 
L 382.392821 -156.675267 
L 383.168467 -156.655997 
L 383.944113 -156.637253 
L 384.71976 -156.61902 
L 385.495406 -156.601285 
L 386.271052 -156.584034 
L 387.046699 -156.567253 
L 387.822345 -156.550931 
L 388.597992 -156.535053 
L 389.373638 -156.519609 
L 390.149284 -156.504587 
L 390.924931 -156.489974 
L 391.700577 -156.47576 
L 392.476223 -156.461935 
L 393.25187 -156.448486 
L 394.027516 -156.435405 
L 394.803163 -156.422681 
L 395.578809 -156.410304 
L 396.354455 -156.398266 
L 397.130102 -156.386556 
L 397.905748 -156.375165 
L 398.681394 -156.364086 
L 399.457041 -156.353309 
L 400.232687 -156.342827 
L 401.008334 -156.33263 
L 401.78398 -156.322712 
L 402.559626 -156.313066 
L 403.335273 -156.303682 
L 404.110919 -156.294555 
L 404.886565 -156.285677 
L 405.662212 -156.277042 
L 406.437858 -156.268642 
L 407.213504 -156.260472 
L 407.989151 -156.252525 
L 408.764797 -156.244795 
L 409.540444 -156.237277 
L 410.31609 -156.229963 
L 411.091736 -156.22285 
L 411.867383 -156.215931 
L 412.643029 -156.209201 
L 413.418675 -156.202655 
L 414.194322 -156.196287 
L 414.969968 -156.190094 
L 415.745615 -156.18407 
L 416.521261 -156.17821 
L 417.296907 -156.172511 
L 418.072554 -156.166967 
L 418.8482 -156.161575 
L 419.623846 -156.15633 
L 420.399493 -156.151229 
L 421.175139 -156.146266 
L 421.950786 -156.14144 
L 422.726432 -156.136745 
L 423.502078 -156.132179 
L 424.277725 -156.127738 
L 425.053371 -156.123417 
L 425.829017 -156.119215 
L 426.604664 -156.115128 
L 427.38031 -156.111153 
L 428.155957 -156.107286 
L 428.931603 -156.103525 
L 429.707249 -156.099866 
L 430.482896 -156.096308 
L 431.258542 -156.092847 
L 432.034188 -156.08948 
L 432.809835 -156.086206 
L 433.585481 -156.083021 
L 434.361128 -156.079923 
L 435.136774 -156.07691 
L 435.91242 -156.073979 
L 436.688067 -156.071128 
L 437.463713 -156.068355 
L 438.239359 -156.065658 
L 439.015006 -156.063035 
L 439.790652 -156.060483 
L 440.566298 -156.058001 
L 441.341945 -156.055587 
L 442.117591 -156.053239 
L 442.893238 -156.050955 
L 443.668884 -156.048734 
L 444.44453 -156.046573 
L 445.220177 -156.044472 
L 445.995823 -156.042427 
L 446.771469 -156.040439 
L 447.547116 -156.038505 
L 448.322762 -156.036624 
L 449.098409 -156.034795 
L 449.874055 -156.033015 
L 450.649701 -156.031284 
L 451.425348 -156.0296 
L 452.200994 -156.027963 
L 452.97664 -156.02637 
L 453.752287 -156.024821 
L 454.527933 -156.023314 
L 455.30358 -156.021848 
L 456.079226 -156.020422 
L 456.854872 -156.019036 
L 457.630519 -156.017687 
L 458.406165 -156.016375 
L 459.181811 -156.015099 
L 459.957458 -156.013858 
L 460.733104 -156.012651 
L 461.508751 -156.011477 
L 462.284397 -156.010335 
L 463.060043 -156.009224 
L 463.83569 -156.008143 
L 464.611336 -156.007092 
L 465.386982 -156.00607 
L 466.162629 -156.005076 
L 466.938275 -156.004109 
L 467.713921 -156.003168 
L 468.489568 -156.002253 
L 469.265214 -156.001363 
L 470.040861 -156.000498 
L 470.816507 -155.999656 
L 471.592153 -155.998837 
L 472.3678 -155.99804 
L 473.143446 -155.997266 
L 473.919092 -155.996512 
L 474.694739 -155.995779 
L 475.470385 -155.995066 
L 476.246032 -155.994373 
L 477.021678 -155.993698 
L 477.797324 -155.993042 
L 478.572971 -155.992404 
L 479.348617 -155.991784 
L 480.124263 -155.99118 
L 480.89991 -155.990593 
L 481.675556 -155.990022 
L 482.451203 -155.989466 
L 483.226849 -155.988926 
L 484.002495 -155.988401 
L 484.778142 -155.987889 
L 485.553788 -155.987392 
L 486.329434 -155.986909 
L 487.105081 -155.986438 
L 487.880727 -155.985981 
L 488.656374 -155.985536 
L 489.43202 -155.985103 
L 490.207666 -155.984682 
L 490.983313 -155.984273 
L 491.758959 -155.983874 
L 492.534605 -155.983487 
L 493.310252 -155.98311 
L 494.085898 -155.982744 
L 494.861545 -155.982387 
L 495.637191 -155.982041 
L 496.412837 -155.981703 
L 497.188484 -155.981375 
L 497.96413 -155.981056 
L 498.739776 -155.980746 
L 499.515423 -155.980444 
L 500.291069 -155.980151 
L 501.066715 -155.979865 
L 501.842362 -155.979587 
L 502.618008 -155.979317 
L 503.393655 -155.979054 
L 504.169301 -155.978799 
L 504.944947 -155.97855 
L 505.720594 -155.978308 
L 506.49624 -155.978073 
L 507.271886 -155.977844 
L 508.047533 -155.977622 
L 508.823179 -155.977406 
L 509.598826 -155.977195 
L 510.374472 -155.97699 
L 511.150118 -155.976791 
L 511.925765 -155.976597 
L 512.701411 -155.976409 
L 513.477057 -155.976226 
L 514.252704 -155.976048 
L 515.02835 -155.975874 
L 515.803997 -155.975706 
L 516.579643 -155.975542 
L 517.355289 -155.975382 
L 518.130936 -155.975227 
L 518.906582 -155.975076 
L 519.682228 -155.974929 
L 520.457875 -155.974786 
L 521.233521 -155.974648 
L 522.009168 -155.974512 
L 522.784814 -155.974381 
L 523.56046 -155.974253 
L 524.336107 -155.974129 
L 525.111753 -155.974008 
L 525.887399 -155.97389 
L 526.663046 -155.973776 
L 527.438692 -155.973665 
L 528.214339 -155.973557 
L 528.989985 -155.973451 
L 529.765631 -155.973349 
L 530.541278 -155.973249 
L 531.316924 -155.973153 
L 532.09257 -155.973058 
L 532.868217 -155.972967 
L 533.643863 -155.972878 
L 534.419509 -155.972791 
L 535.195156 -155.972707 
L 535.970802 -155.972625 
L 536.746449 -155.972545 
L 537.522095 -155.972467 
L 538.297741 -155.972392 
L 539.073388 -155.972318 
L 539.849034 -155.972247 
L 540.62468 -155.972178 
L 541.400327 -155.97211 
L 542.175973 -155.972044 
L 542.95162 -155.971981 
L 543.727266 -155.971918 
L 544.502912 -155.971858 
L 545.278559 -155.971799 
L 546.054205 -155.971742 
L 546.829851 -155.971686 
L 547.605498 -155.971632 
L 548.381144 -155.97158 
L 549.156791 -155.971528 
L 549.932437 -155.971479 
L 550.708083 -155.97143 
L 551.48373 -155.971383 
L 552.259376 -155.971337 
L 553.035022 -155.971293 
L 553.810669 -155.971249 
L 554.586315 -155.971207 
L 555.361962 -155.971166 
L 556.137608 -155.971126 
L 556.913254 -155.971088 
L 557.688901 -155.97105 
L 558.464547 -155.971013 
L 559.240193 -155.970977 
L 560.01584 -155.970943 
L 560.791486 -155.970909 
L 561.567133 -155.970876 
L 562.342779 -155.970844 
L 563.118425 -155.970813 
L 563.894072 -155.970783 
L 564.669718 -155.970753 
L 565.445364 -155.970725 
L 566.221011 -155.970697 
L 566.996657 -155.97067 
L 567.772303 -155.970644 
L 568.54795 -155.970618 
L 569.323596 -155.970593 
L 570.099243 -155.970569 
L 570.874889 -155.970545 
L 571.650535 -155.970523 
L 572.426182 -155.9705 
L 573.201828 -155.970479 
L 573.977474 -155.970457 
L 574.753121 -155.970437 
L 575.528767 -155.970417 
L 576.304414 -155.970398 
L 577.08006 -155.970379 
L 577.855706 -155.97036 
L 578.631353 -155.970343 
L 579.406999 -155.970325 
L 580.182645 -155.970308 
L 580.958292 -155.970292 
L 581.733938 -155.970276 
L 582.509585 -155.97026 
L 583.285231 -155.970245 
L 584.060877 -155.970231 
L 584.836524 -155.970216 
L 585.61217 -155.970202 
L 586.387816 -155.970189 
L 587.163463 -155.970176 
L 587.939109 -155.970163 
L 588.714756 -155.97015 
L 589.490402 -155.970138 
L 590.266048 -155.970127 
L 591.041695 -155.970115 
L 591.817341 -155.970104 
L 592.592987 -155.970093 
L 593.368634 -155.970083 
L 594.14428 -155.970072 
L 594.919927 -155.970062 
L 595.695573 -155.970053 
L 596.471219 -155.970043 
L 597.246866 -155.970034 
L 598.022512 -155.970025 
L 598.798158 -155.970016 
L 599.573805 -155.970008 
L 600.349451 -155.97 
L 601.125097 -155.969992 
L 601.900744 -155.969984 
L 602.67639 -155.969977 
L 603.452037 -155.969969 
L 604.227683 -155.969962 
L 605.003329 -155.969955 
L 605.778976 -155.969948 
L 606.554622 -155.969942 
L 607.330268 -155.969935 
L 608.105915 -155.969929 
L 608.881561 -155.969923 
L 609.657208 -155.969917 
L 610.432854 -155.969911 
L 611.2085 -155.969906 
L 611.984147 -155.9699 
L 612.759793 -155.969895 
L 613.535439 -155.96989 
L 614.311086 -155.969885 
L 615.086732 -155.96988 
L 615.862379 -155.969875 
L 616.638025 -155.969871 
L 617.413671 -155.969866 
L 618.189318 -155.969862 
L 618.964964 -155.969858 
L 619.74061 -155.969854 
L 620.516257 -155.96985 
L 621.291903 -155.969846 
L 622.06755 -155.969842 
L 622.843196 -155.969838 
L 623.618842 -155.969835 
L 624.394489 -155.969831 
L 624.394489 -166.656994 
L 624.394489 -166.656994 
L 623.618842 -166.76277 
L 622.843196 -166.869572 
L 622.06755 -166.977409 
L 621.291903 -167.08629 
L 620.516257 -167.196225 
L 619.74061 -167.307225 
L 618.964964 -167.419298 
L 618.189318 -167.532455 
L 617.413671 -167.646706 
L 616.638025 -167.762061 
L 615.862379 -167.87853 
L 615.086732 -167.996123 
L 614.311086 -168.11485 
L 613.535439 -168.234723 
L 612.759793 -168.35575 
L 611.984147 -168.477944 
L 611.2085 -168.601315 
L 610.432854 -168.725873 
L 609.657208 -168.85163 
L 608.881561 -168.978596 
L 608.105915 -169.106782 
L 607.330268 -169.236199 
L 606.554622 -169.366859 
L 605.778976 -169.498773 
L 605.003329 -169.631952 
L 604.227683 -169.766408 
L 603.452037 -169.902152 
L 602.67639 -170.039195 
L 601.900744 -170.177551 
L 601.125097 -170.31723 
L 600.349451 -170.458244 
L 599.573805 -170.600606 
L 598.798158 -170.744327 
L 598.022512 -170.889419 
L 597.246866 -171.035896 
L 596.471219 -171.183769 
L 595.695573 -171.333051 
L 594.919927 -171.483754 
L 594.14428 -171.635891 
L 593.368634 -171.789475 
L 592.592987 -171.944519 
L 591.817341 -172.101036 
L 591.041695 -172.259038 
L 590.266048 -172.418538 
L 589.490402 -172.579551 
L 588.714756 -172.74209 
L 587.939109 -172.906167 
L 587.163463 -173.071797 
L 586.387816 -173.238992 
L 585.61217 -173.407768 
L 584.836524 -173.578137 
L 584.060877 -173.750113 
L 583.285231 -173.923711 
L 582.509585 -174.098945 
L 581.733938 -174.275829 
L 580.958292 -174.454377 
L 580.182645 -174.634603 
L 579.406999 -174.816523 
L 578.631353 -175.000151 
L 577.855706 -175.185501 
L 577.08006 -175.372589 
L 576.304414 -175.56143 
L 575.528767 -175.752037 
L 574.753121 -175.944427 
L 573.977474 -176.138615 
L 573.201828 -176.334616 
L 572.426182 -176.532446 
L 571.650535 -176.73212 
L 570.874889 -176.933654 
L 570.099243 -177.137063 
L 569.323596 -177.342363 
L 568.54795 -177.549571 
L 567.772303 -177.758702 
L 566.996657 -177.969773 
L 566.221011 -178.1828 
L 565.445364 -178.397799 
L 564.669718 -178.614786 
L 563.894072 -178.833779 
L 563.118425 -179.054793 
L 562.342779 -179.277847 
L 561.567133 -179.502955 
L 560.791486 -179.730136 
L 560.01584 -179.959407 
L 559.240193 -180.190785 
L 558.464547 -180.424286 
L 557.688901 -180.659929 
L 556.913254 -180.89773 
L 556.137608 -181.137708 
L 555.361962 -181.37988 
L 554.586315 -181.624264 
L 553.810669 -181.870878 
L 553.035022 -182.119739 
L 552.259376 -182.370865 
L 551.48373 -182.624276 
L 550.708083 -182.879989 
L 549.932437 -183.138022 
L 549.156791 -183.398394 
L 548.381144 -183.661124 
L 547.605498 -183.926229 
L 546.829851 -184.193729 
L 546.054205 -184.463643 
L 545.278559 -184.735989 
L 544.502912 -185.010787 
L 543.727266 -185.288055 
L 542.95162 -185.567813 
L 542.175973 -185.85008 
L 541.400327 -186.134875 
L 540.62468 -186.422218 
L 539.849034 -186.712129 
L 539.073388 -187.004626 
L 538.297741 -187.299729 
L 537.522095 -187.597459 
L 536.746449 -187.897835 
L 535.970802 -188.200877 
L 535.195156 -188.506606 
L 534.419509 -188.81504 
L 533.643863 -189.126201 
L 532.868217 -189.440108 
L 532.09257 -189.756782 
L 531.316924 -190.076243 
L 530.541278 -190.398512 
L 529.765631 -190.723609 
L 528.989985 -191.051555 
L 528.214339 -191.38237 
L 527.438692 -191.716075 
L 526.663046 -192.052692 
L 525.887399 -192.39224 
L 525.111753 -192.73474 
L 524.336107 -193.080214 
L 523.56046 -193.428682 
L 522.784814 -193.780166 
L 522.009168 -194.134687 
L 521.233521 -194.492265 
L 520.457875 -194.852923 
L 519.682228 -195.21668 
L 518.906582 -195.583559 
L 518.130936 -195.953581 
L 517.355289 -196.326767 
L 516.579643 -196.703138 
L 515.803997 -197.082717 
L 515.02835 -197.465524 
L 514.252704 -197.85158 
L 513.477057 -198.240908 
L 512.701411 -198.633529 
L 511.925765 -199.029464 
L 511.150118 -199.428735 
L 510.374472 -199.831363 
L 509.598826 -200.23737 
L 508.823179 -200.646778 
L 508.047533 -201.059608 
L 507.271886 -201.475882 
L 506.49624 -201.895621 
L 505.720594 -202.318847 
L 504.944947 -202.745581 
L 504.169301 -203.175845 
L 503.393655 -203.60966 
L 502.618008 -204.047048 
L 501.842362 -204.488031 
L 501.066715 -204.932629 
L 500.291069 -205.380864 
L 499.515423 -205.832758 
L 498.739776 -206.288332 
L 497.96413 -206.747606 
L 497.188484 -207.210603 
L 496.412837 -207.677343 
L 495.637191 -208.147848 
L 494.861545 -208.622138 
L 494.085898 -209.100234 
L 493.310252 -209.582158 
L 492.534605 -210.067931 
L 491.758959 -210.557572 
L 490.983313 -211.051102 
L 490.207666 -211.548543 
L 489.43202 -212.049914 
L 488.656374 -212.555236 
L 487.880727 -213.064528 
L 487.105081 -213.577813 
L 486.329434 -214.095108 
L 485.553788 -214.616434 
L 484.778142 -215.141811 
L 484.002495 -215.671258 
L 483.226849 -216.204795 
L 482.451203 -216.742442 
L 481.675556 -217.284216 
L 480.89991 -217.830138 
L 480.124263 -218.380225 
L 479.348617 -218.934498 
L 478.572971 -219.492973 
L 477.797324 -220.05567 
L 477.021678 -220.622606 
L 476.246032 -221.193799 
L 475.470385 -221.769268 
L 474.694739 -222.349029 
L 473.919092 -222.9331 
L 473.143446 -223.521497 
L 472.3678 -224.114238 
L 471.592153 -224.711338 
L 470.816507 -225.312815 
L 470.040861 -225.918684 
L 469.265214 -226.528961 
L 468.489568 -227.143662 
L 467.713921 -227.762801 
L 466.938275 -228.386393 
L 466.162629 -229.014454 
L 465.386982 -229.646997 
L 464.611336 -230.284036 
L 463.83569 -230.925586 
L 463.060043 -231.571659 
L 462.284397 -232.222268 
L 461.508751 -232.877426 
L 460.733104 -233.537145 
L 459.957458 -234.201438 
L 459.181811 -234.870315 
L 458.406165 -235.543788 
L 457.630519 -236.221867 
L 456.854872 -236.904564 
L 456.079226 -237.591887 
L 455.30358 -238.283847 
L 454.527933 -238.980453 
L 453.752287 -239.681712 
L 452.97664 -240.387635 
L 452.200994 -241.098227 
L 451.425348 -241.813497 
L 450.649701 -242.533451 
L 449.874055 -243.258096 
L 449.098409 -243.987438 
L 448.322762 -244.721481 
L 447.547116 -245.460231 
L 446.771469 -246.203692 
L 445.995823 -246.951868 
L 445.220177 -247.704762 
L 444.44453 -248.462376 
L 443.668884 -249.224713 
L 442.893238 -249.991774 
L 442.117591 -250.76356 
L 441.341945 -251.540072 
L 440.566298 -252.321309 
L 439.790652 -253.10727 
L 439.015006 -253.897954 
L 438.239359 -254.693358 
L 437.463713 -255.49348 
L 436.688067 -256.298317 
L 435.91242 -257.107864 
L 435.136774 -257.922116 
L 434.361128 -258.741068 
L 433.585481 -259.564713 
L 432.809835 -260.393046 
L 432.034188 -261.226057 
L 431.258542 -262.06374 
L 430.482896 -262.906084 
L 429.707249 -263.753079 
L 428.931603 -264.604716 
L 428.155957 -265.460982 
L 427.38031 -266.321866 
L 426.604664 -267.187355 
L 425.829017 -268.057434 
L 425.053371 -268.93209 
L 424.277725 -269.811306 
L 423.502078 -270.695067 
L 422.726432 -271.583355 
L 421.950786 -272.476152 
L 421.175139 -273.37344 
L 420.399493 -274.275199 
L 419.623846 -275.181409 
L 418.8482 -276.092047 
L 418.072554 -277.007092 
L 417.296907 -277.92652 
L 416.521261 -278.850307 
L 415.745615 -279.778427 
L 414.969968 -280.710856 
L 414.194322 -281.647565 
L 413.418675 -282.588527 
L 412.643029 -283.533714 
L 411.867383 -284.483094 
L 411.091736 -285.436637 
L 410.31609 -286.394311 
L 409.540444 -287.356084 
L 408.764797 -288.321921 
L 407.989151 -289.291788 
L 407.213504 -290.265649 
L 406.437858 -291.243466 
L 405.662212 -292.225203 
L 404.886565 -293.210819 
L 404.110919 -294.200275 
L 403.335273 -295.19353 
L 402.559626 -296.190542 
L 401.78398 -297.191268 
L 401.008334 -298.195662 
L 400.232687 -299.203681 
L 399.457041 -300.215277 
L 398.681394 -301.230404 
L 397.905748 -302.249012 
L 397.130102 -303.271052 
L 396.354455 -304.296474 
L 395.578809 -305.325225 
L 394.803163 -306.357253 
L 394.027516 -307.392504 
L 393.25187 -308.430922 
L 392.476223 -309.472453 
L 391.700577 -310.517037 
L 390.924931 -311.564618 
L 390.149284 -312.615135 
L 389.373638 -313.668529 
L 388.597992 -314.724737 
L 387.822345 -315.783696 
L 387.046699 -316.845344 
L 386.271052 -317.909616 
L 385.495406 -318.976444 
L 384.71976 -320.045763 
L 383.944113 -321.117503 
L 383.168467 -322.191597 
L 382.392821 -323.267974 
L 381.617174 -324.346562 
L 380.841528 -325.427289 
L 380.065881 -326.510082 
L 379.290235 -327.594866 
L 378.514589 -328.681566 
L 377.738942 -329.770105 
L 376.963296 -330.860407 
L 376.18765 -331.952391 
L 375.412003 -333.045979 
L 374.636357 -334.141091 
L 373.86071 -335.237644 
L 373.085064 -336.335557 
L 372.309418 -337.434745 
L 371.533771 -338.535126 
L 370.758125 -339.636612 
L 369.982479 -340.739119 
L 369.206832 -341.842559 
L 368.431186 -342.946845 
L 367.65554 -344.051886 
L 366.879893 -345.157595 
L 366.104247 -346.263879 
L 365.3286 -347.370649 
L 364.552954 -348.477811 
L 363.777308 -349.585273 
L 363.001661 -350.692942 
L 362.226015 -351.800722 
L 361.450369 -352.908519 
L 360.674722 -354.016237 
L 359.899076 -355.123779 
L 359.123429 -356.231049 
L 358.347783 -357.337948 
L 357.572137 -358.444378 
L 356.79649 -359.550241 
L 356.020844 -360.655436 
L 355.245198 -361.759863 
L 354.469551 -362.863423 
L 353.693905 -363.966014 
L 352.918258 -365.067534 
L 352.142612 -366.167882 
L 351.366966 -367.266955 
L 350.591319 -368.364651 
L 349.815673 -369.460866 
L 349.040027 -370.555498 
L 348.26438 -371.648443 
L 347.488734 -372.739596 
L 346.713087 -373.828854 
L 345.937441 -374.916113 
L 345.161795 -376.001268 
L 344.386148 -377.084215 
L 343.610502 -378.164848 
L 342.834856 -379.243065 
L 342.059209 -380.318759 
L 341.283563 -381.391826 
L 340.507916 -382.462162 
L 339.73227 -383.529662 
L 338.956624 -384.594222 
L 338.180977 -385.655738 
L 337.405331 -386.714105 
L 336.629685 -387.76922 
L 335.854038 -388.820979 
L 335.078392 -389.86928 
L 334.302746 -390.914019 
L 333.527099 -391.955093 
L 332.751453 -392.992402 
L 331.975806 -394.025843 
L 331.20016 -395.055316 
L 330.424514 -396.080719 
L 329.648867 -397.101953 
L 328.873221 -398.118919 
L 328.097575 -399.131517 
L 327.321928 -400.139651 
L 326.546282 -401.143222 
L 325.770635 -402.142134 
L 324.994989 -403.136292 
L 324.219343 -404.125601 
L 323.443696 -405.109966 
L 322.66805 -406.089296 
L 321.892404 -407.063497 
L 321.116757 -408.032479 
L 320.341111 -408.996151 
L 319.565464 -409.954426 
L 318.789818 -410.907215 
L 318.014172 -411.854431 
L 317.238525 -412.795989 
L 316.462879 -413.731805 
L 315.687233 -414.661796 
L 314.911586 -415.585879 
L 314.13594 -416.503976 
L 313.360293 -417.416006 
L 312.584647 -418.321893 
L 311.809001 -419.221559 
L 311.033354 -420.114931 
L 310.257708 -421.001936 
L 309.482062 -421.882501 
L 308.706415 -422.756556 
L 307.930769 -423.624033 
L 307.155122 -424.484866 
L 306.379476 -425.338988 
L 305.60383 -426.186337 
L 304.828183 -427.02685 
L 304.052537 -427.860468 
L 303.276891 -428.687132 
L 302.501244 -429.506785 
L 301.725598 -430.319373 
L 300.949952 -431.124843 
L 300.174305 -431.923144 
L 299.398659 -432.714226 
L 298.623012 -433.498043 
L 297.847366 -434.274549 
L 297.07172 -435.0437 
L 296.296073 -435.805455 
L 295.520427 -436.559775 
L 294.744781 -437.306621 
L 293.969134 -438.045959 
L 293.193488 -438.777755 
L 292.417841 -439.501978 
L 291.642195 -440.218597 
L 290.866549 -440.927585 
L 290.090902 -441.628917 
L 289.315256 -442.322571 
L 288.53961 -443.008523 
L 287.763963 -443.686756 
L 286.988317 -444.357251 
L 286.21267 -445.019995 
L 285.437024 -445.674973 
L 284.661378 -446.322175 
L 283.885731 -446.961593 
L 283.110085 -447.593219 
L 282.334439 -448.217048 
L 281.558792 -448.833079 
L 280.783146 -449.44131 
L 280.007499 -450.041742 
L 279.231853 -450.63438 
L 278.456207 -451.219229 
L 277.68056 -451.796297 
L 276.904914 -452.365592 
L 276.129268 -452.927126 
L 275.353621 -453.480914 
L 274.577975 -454.02697 
L 273.802329 -454.565311 
L 273.026682 -455.095958 
L 272.251036 -455.618931 
L 271.475389 -456.134254 
L 270.699743 -456.641952 
L 269.924097 -457.14205 
L 269.14845 -457.634579 
L 268.372804 -458.119569 
L 267.597158 -458.597051 
L 266.821511 -459.06706 
L 266.045865 -459.529631 
L 265.270218 -459.984803 
L 264.494572 -460.432613 
L 263.718926 -460.873102 
L 262.943279 -461.306314 
L 262.167633 -461.732291 
L 261.391987 -462.151079 
L 260.61634 -462.562725 
L 259.840694 -462.967277 
L 259.065047 -463.364785 
L 258.289401 -463.7553 
L 257.513755 -464.138874 
L 256.738108 -464.515562 
L 255.962462 -464.885419 
L 255.186816 -465.248501 
L 254.411169 -465.604864 
L 253.635523 -465.954569 
L 252.859876 -466.297675 
L 252.08423 -466.634243 
L 251.308584 -466.964335 
L 250.532937 -467.288014 
L 249.757291 -467.605344 
L 248.981645 -467.91639 
L 248.205998 -468.221217 
L 247.430352 -468.519892 
L 246.654705 -468.812483 
L 245.879059 -469.099058 
L 245.103413 -469.379686 
L 244.327766 -469.654436 
L 243.55212 -469.923378 
L 242.776474 -470.186584 
L 242.000827 -470.444124 
L 241.225181 -470.696071 
L 240.449535 -470.942497 
L 239.673888 -471.183474 
L 238.898242 -471.419077 
L 238.122595 -471.649377 
L 237.346949 -471.87445 
L 236.571303 -472.094368 
L 235.795656 -472.309208 
L 235.02001 -472.519042 
L 234.244364 -472.723945 
L 233.468717 -472.923993 
L 232.693071 -473.11926 
L 231.917424 -473.309821 
L 231.141778 -473.495751 
L 230.366132 -473.677124 
L 229.590485 -473.854015 
L 228.814839 -474.0265 
L 228.039193 -474.194651 
L 227.263546 -474.358545 
L 226.4879 -474.518254 
L 225.712253 -474.673852 
L 224.936607 -474.825413 
L 224.160961 -474.973011 
L 223.385314 -475.116718 
L 222.609668 -475.256607 
L 221.834022 -475.392749 
L 221.058375 -475.525217 
L 220.282729 -475.654082 
L 219.507082 -475.779415 
L 218.731436 -475.901285 
L 217.95579 -476.019763 
L 217.180143 -476.134918 
L 216.404497 -476.246818 
L 215.628851 -476.355531 
L 214.853204 -476.461125 
L 214.077558 -476.563667 
L 213.301911 -476.663222 
L 212.526265 -476.759856 
L 211.750619 -476.853634 
L 210.974972 -476.94462 
L 210.199326 -477.032877 
L 209.42368 -477.118467 
L 208.648033 -477.201452 
L 207.872387 -477.281894 
L 207.096741 -477.359852 
L 206.321094 -477.435386 
L 205.545448 -477.508555 
L 204.769801 -477.579416 
L 203.994155 -477.648026 
L 203.218509 -477.714441 
L 202.442862 -477.778717 
L 201.667216 -477.840908 
L 200.89157 -477.901067 
L 200.115923 -477.959248 
L 199.340277 -478.015501 
L 198.56463 -478.069879 
L 197.788984 -478.122431 
L 197.013338 -478.173206 
L 196.237691 -478.222253 
L 195.462045 -478.269619 
L 194.686399 -478.315351 
L 193.910752 -478.359494 
L 193.135106 -478.402094 
L 192.359459 -478.443193 
L 191.583813 -478.482836 
L 190.808167 -478.521064 
L 190.03252 -478.557919 
L 189.256874 -478.593442 
L 188.481228 -478.627671 
L 187.705581 -478.660646 
L 186.929935 -478.692404 
L 186.154288 -478.722983 
L 185.378642 -478.752419 
L 184.602996 -478.780747 
L 183.827349 -478.808001 
L 183.051703 -478.834217 
L 182.276057 -478.859426 
L 181.50041 -478.88366 
L 180.724764 -478.906952 
L 179.949117 -478.929331 
L 179.173471 -478.950828 
L 178.397825 -478.971471 
L 177.622178 -478.99129 
L 176.846532 -479.01031 
L 176.070886 -479.02856 
L 175.295239 -479.046065 
L 174.519593 -479.062851 
L 173.743947 -479.078942 
L 172.9683 -479.094362 
L 172.192654 -479.109136 
L 171.417007 -479.123284 
L 170.641361 -479.13683 
L 169.865715 -479.149795 
L 169.090068 -479.162199 
L 168.314422 -479.174062 
L 167.538776 -479.185405 
L 166.763129 -479.196245 
L 165.987483 -479.206601 
L 165.211836 -479.21649 
L 164.43619 -479.225931 
L 163.660544 -479.234938 
L 162.884897 -479.243529 
L 162.109251 -479.251718 
L 161.333605 -479.259521 
L 160.557958 -479.266951 
L 159.782312 -479.274023 
L 159.006665 -479.28075 
L 158.231019 -479.287143 
L 157.455373 -479.293217 
L 156.679726 -479.298982 
L 155.90408 -479.304449 
L 155.128434 -479.309629 
L 154.352787 -479.314533 
L 153.577141 -479.319169 
L 152.801494 -479.323547 
L 152.025848 -479.327675 
L 151.250202 -479.331562 
L 150.474555 -479.335214 
L 149.698909 -479.338638 
L 148.923263 -479.34184 
L 148.147616 -479.344827 
L 147.37197 -479.347601 
L 146.596323 -479.350167 
L 145.820677 -479.352529 
L 145.045031 -479.354687 
L 144.269384 -479.356642 
L 143.493738 -479.358394 
L 142.718092 -479.359941 
L 141.942445 -479.361278 
L 141.166799 -479.362401 
L 140.391153 -479.363299 
L 139.615506 -479.363963 
L 138.83986 -479.364376 
L 138.064213 -479.364519 
L 137.288567 -479.364366 
L 136.512921 -479.364136 
L 135.737274 -479.364475 
L 134.961628 -479.364473 
L 134.185982 -479.364088 
L 133.410335 -479.364304 
L 132.634689 -479.364519 
L 131.859042 -479.364282 
L 131.083396 -479.363916 
L 130.30775 -479.364448 
L 129.532103 -479.364444 
L 128.756457 -479.363794 
L 127.980811 -479.364151 
L 127.205164 -479.364519 
L 126.429518 -479.364085 
L 125.653871 -479.362601 
L 124.878225 -479.359682 
L 124.102579 -479.354697 
L 123.326932 -479.346568 
L 122.551286 -479.333327 
L 121.77564 -479.311105 
L 120.999993 -479.271538 
L 120.224347 -479.194192 
L 119.4487 -479.020353 
L 118.673054 -478.538634 
L 117.897408 -476.684687 
L 117.121761 -464.06096 
z
" style="stroke: #1f77b4; stroke-opacity: 0.3"/>
    </defs>
    <g clip-path="url(#p910625ace3)">
     <use xlink:href="#m4da43d675c" x="0" y="540.100875" style="fill: #1f77b4; fill-opacity: 0.3; stroke: #1f77b4; stroke-opacity: 0.3"/>
    </g>
   </g>
   <g id="matplotlib.axis_1">
    <g id="xtick_1">
     <g id="line2d_1">
      <defs>
       <path id="me3e0b40b2f" d="M 0 0 
L 0 3.5 
" style="stroke: #000000; stroke-width: 0.8"/>
      </defs>
      <g>
       <use xlink:href="#me3e0b40b2f" x="116.346115" y="416.476875" style="stroke: #000000; stroke-width: 0.8"/>
      </g>
     </g>
     <g id="text_1">
      <!-- 0 -->
      <g transform="translate(109.983615 438.67375)scale(0.2 -0.2)">
       <defs>
        <path id="DejaVuSans-30" d="M 2034 4250 
Q 1547 4250 1301 3770 
Q 1056 3291 1056 2328 
Q 1056 1369 1301 889 
Q 1547 409 2034 409 
Q 2525 409 2770 889 
Q 3016 1369 3016 2328 
Q 3016 3291 2770 3770 
Q 2525 4250 2034 4250 
z
M 2034 4750 
Q 2819 4750 3233 4129 
Q 3647 3509 3647 2328 
Q 3647 1150 3233 529 
Q 2819 -91 2034 -91 
Q 1250 -91 836 529 
Q 422 1150 422 2328 
Q 422 3509 836 4129 
Q 1250 4750 2034 4750 
z
" transform="scale(0.015625)"/>
       </defs>
       <use xlink:href="#DejaVuSans-30"/>
      </g>
     </g>
    </g>
    <g id="xtick_2">
     <g id="line2d_2">
      <g>
       <use xlink:href="#me3e0b40b2f" x="193.910752" y="416.476875" style="stroke: #000000; stroke-width: 0.8"/>
      </g>
     </g>
     <g id="text_2">
      <!-- 100 -->
      <g transform="translate(174.823252 438.67375)scale(0.2 -0.2)">
       <defs>
        <path id="DejaVuSans-31" d="M 794 531 
L 1825 531 
L 1825 4091 
L 703 3866 
L 703 4441 
L 1819 4666 
L 2450 4666 
L 2450 531 
L 3481 531 
L 3481 0 
L 794 0 
L 794 531 
z
" transform="scale(0.015625)"/>
       </defs>
       <use xlink:href="#DejaVuSans-31"/>
       <use xlink:href="#DejaVuSans-30" x="63.623047"/>
       <use xlink:href="#DejaVuSans-30" x="127.246094"/>
      </g>
     </g>
    </g>
    <g id="xtick_3">
     <g id="line2d_3">
      <g>
       <use xlink:href="#me3e0b40b2f" x="271.475389" y="416.476875" style="stroke: #000000; stroke-width: 0.8"/>
      </g>
     </g>
     <g id="text_3">
      <!-- 200 -->
      <g transform="translate(252.387889 438.67375)scale(0.2 -0.2)">
       <defs>
        <path id="DejaVuSans-32" d="M 1228 531 
L 3431 531 
L 3431 0 
L 469 0 
L 469 531 
Q 828 903 1448 1529 
Q 2069 2156 2228 2338 
Q 2531 2678 2651 2914 
Q 2772 3150 2772 3378 
Q 2772 3750 2511 3984 
Q 2250 4219 1831 4219 
Q 1534 4219 1204 4116 
Q 875 4013 500 3803 
L 500 4441 
Q 881 4594 1212 4672 
Q 1544 4750 1819 4750 
Q 2544 4750 2975 4387 
Q 3406 4025 3406 3419 
Q 3406 3131 3298 2873 
Q 3191 2616 2906 2266 
Q 2828 2175 2409 1742 
Q 1991 1309 1228 531 
z
" transform="scale(0.015625)"/>
       </defs>
       <use xlink:href="#DejaVuSans-32"/>
       <use xlink:href="#DejaVuSans-30" x="63.623047"/>
       <use xlink:href="#DejaVuSans-30" x="127.246094"/>
      </g>
     </g>
    </g>
    <g id="xtick_4">
     <g id="line2d_4">
      <g>
       <use xlink:href="#me3e0b40b2f" x="349.040027" y="416.476875" style="stroke: #000000; stroke-width: 0.8"/>
      </g>
     </g>
     <g id="text_4">
      <!-- 300 -->
      <g transform="translate(329.952527 438.67375)scale(0.2 -0.2)">
       <defs>
        <path id="DejaVuSans-33" d="M 2597 2516 
Q 3050 2419 3304 2112 
Q 3559 1806 3559 1356 
Q 3559 666 3084 287 
Q 2609 -91 1734 -91 
Q 1441 -91 1130 -33 
Q 819 25 488 141 
L 488 750 
Q 750 597 1062 519 
Q 1375 441 1716 441 
Q 2309 441 2620 675 
Q 2931 909 2931 1356 
Q 2931 1769 2642 2001 
Q 2353 2234 1838 2234 
L 1294 2234 
L 1294 2753 
L 1863 2753 
Q 2328 2753 2575 2939 
Q 2822 3125 2822 3475 
Q 2822 3834 2567 4026 
Q 2313 4219 1838 4219 
Q 1578 4219 1281 4162 
Q 984 4106 628 3988 
L 628 4550 
Q 988 4650 1302 4700 
Q 1616 4750 1894 4750 
Q 2613 4750 3031 4423 
Q 3450 4097 3450 3541 
Q 3450 3153 3228 2886 
Q 3006 2619 2597 2516 
z
" transform="scale(0.015625)"/>
       </defs>
       <use xlink:href="#DejaVuSans-33"/>
       <use xlink:href="#DejaVuSans-30" x="63.623047"/>
       <use xlink:href="#DejaVuSans-30" x="127.246094"/>
      </g>
     </g>
    </g>
    <g id="xtick_5">
     <g id="line2d_5">
      <g>
       <use xlink:href="#me3e0b40b2f" x="426.604664" y="416.476875" style="stroke: #000000; stroke-width: 0.8"/>
      </g>
     </g>
     <g id="text_5">
      <!-- 400 -->
      <g transform="translate(407.517164 438.67375)scale(0.2 -0.2)">
       <defs>
        <path id="DejaVuSans-34" d="M 2419 4116 
L 825 1625 
L 2419 1625 
L 2419 4116 
z
M 2253 4666 
L 3047 4666 
L 3047 1625 
L 3713 1625 
L 3713 1100 
L 3047 1100 
L 3047 0 
L 2419 0 
L 2419 1100 
L 313 1100 
L 313 1709 
L 2253 4666 
z
" transform="scale(0.015625)"/>
       </defs>
       <use xlink:href="#DejaVuSans-34"/>
       <use xlink:href="#DejaVuSans-30" x="63.623047"/>
       <use xlink:href="#DejaVuSans-30" x="127.246094"/>
      </g>
     </g>
    </g>
    <g id="xtick_6">
     <g id="line2d_6">
      <g>
       <use xlink:href="#me3e0b40b2f" x="504.169301" y="416.476875" style="stroke: #000000; stroke-width: 0.8"/>
      </g>
     </g>
     <g id="text_6">
      <!-- 500 -->
      <g transform="translate(485.081801 438.67375)scale(0.2 -0.2)">
       <defs>
        <path id="DejaVuSans-35" d="M 691 4666 
L 3169 4666 
L 3169 4134 
L 1269 4134 
L 1269 2991 
Q 1406 3038 1543 3061 
Q 1681 3084 1819 3084 
Q 2600 3084 3056 2656 
Q 3513 2228 3513 1497 
Q 3513 744 3044 326 
Q 2575 -91 1722 -91 
Q 1428 -91 1123 -41 
Q 819 9 494 109 
L 494 744 
Q 775 591 1075 516 
Q 1375 441 1709 441 
Q 2250 441 2565 725 
Q 2881 1009 2881 1497 
Q 2881 1984 2565 2268 
Q 2250 2553 1709 2553 
Q 1456 2553 1204 2497 
Q 953 2441 691 2322 
L 691 4666 
z
" transform="scale(0.015625)"/>
       </defs>
       <use xlink:href="#DejaVuSans-35"/>
       <use xlink:href="#DejaVuSans-30" x="63.623047"/>
       <use xlink:href="#DejaVuSans-30" x="127.246094"/>
      </g>
     </g>
    </g>
    <g id="xtick_7">
     <g id="line2d_7">
      <g>
       <use xlink:href="#me3e0b40b2f" x="581.733938" y="416.476875" style="stroke: #000000; stroke-width: 0.8"/>
      </g>
     </g>
     <g id="text_7">
      <!-- 600 -->
      <g transform="translate(562.646438 438.67375)scale(0.2 -0.2)">
       <defs>
        <path id="DejaVuSans-36" d="M 2113 2584 
Q 1688 2584 1439 2293 
Q 1191 2003 1191 1497 
Q 1191 994 1439 701 
Q 1688 409 2113 409 
Q 2538 409 2786 701 
Q 3034 994 3034 1497 
Q 3034 2003 2786 2293 
Q 2538 2584 2113 2584 
z
M 3366 4563 
L 3366 3988 
Q 3128 4100 2886 4159 
Q 2644 4219 2406 4219 
Q 1781 4219 1451 3797 
Q 1122 3375 1075 2522 
Q 1259 2794 1537 2939 
Q 1816 3084 2150 3084 
Q 2853 3084 3261 2657 
Q 3669 2231 3669 1497 
Q 3669 778 3244 343 
Q 2819 -91 2113 -91 
Q 1303 -91 875 529 
Q 447 1150 447 2328 
Q 447 3434 972 4092 
Q 1497 4750 2381 4750 
Q 2619 4750 2861 4703 
Q 3103 4656 3366 4563 
z
" transform="scale(0.015625)"/>
       </defs>
       <use xlink:href="#DejaVuSans-36"/>
       <use xlink:href="#DejaVuSans-30" x="63.623047"/>
       <use xlink:href="#DejaVuSans-30" x="127.246094"/>
      </g>
     </g>
    </g>
    <g id="text_8">
     <!-- Days since antigen exposure -->
     <g transform="translate(226.337813 462.03)scale(0.2 -0.2)">
      <defs>
       <path id="DejaVuSans-44" d="M 1259 4147 
L 1259 519 
L 2022 519 
Q 2988 519 3436 956 
Q 3884 1394 3884 2338 
Q 3884 3275 3436 3711 
Q 2988 4147 2022 4147 
L 1259 4147 
z
M 628 4666 
L 1925 4666 
Q 3281 4666 3915 4102 
Q 4550 3538 4550 2338 
Q 4550 1131 3912 565 
Q 3275 0 1925 0 
L 628 0 
L 628 4666 
z
" transform="scale(0.015625)"/>
       <path id="DejaVuSans-61" d="M 2194 1759 
Q 1497 1759 1228 1600 
Q 959 1441 959 1056 
Q 959 750 1161 570 
Q 1363 391 1709 391 
Q 2188 391 2477 730 
Q 2766 1069 2766 1631 
L 2766 1759 
L 2194 1759 
z
M 3341 1997 
L 3341 0 
L 2766 0 
L 2766 531 
Q 2569 213 2275 61 
Q 1981 -91 1556 -91 
Q 1019 -91 701 211 
Q 384 513 384 1019 
Q 384 1609 779 1909 
Q 1175 2209 1959 2209 
L 2766 2209 
L 2766 2266 
Q 2766 2663 2505 2880 
Q 2244 3097 1772 3097 
Q 1472 3097 1187 3025 
Q 903 2953 641 2809 
L 641 3341 
Q 956 3463 1253 3523 
Q 1550 3584 1831 3584 
Q 2591 3584 2966 3190 
Q 3341 2797 3341 1997 
z
" transform="scale(0.015625)"/>
       <path id="DejaVuSans-79" d="M 2059 -325 
Q 1816 -950 1584 -1140 
Q 1353 -1331 966 -1331 
L 506 -1331 
L 506 -850 
L 844 -850 
Q 1081 -850 1212 -737 
Q 1344 -625 1503 -206 
L 1606 56 
L 191 3500 
L 800 3500 
L 1894 763 
L 2988 3500 
L 3597 3500 
L 2059 -325 
z
" transform="scale(0.015625)"/>
       <path id="DejaVuSans-73" d="M 2834 3397 
L 2834 2853 
Q 2591 2978 2328 3040 
Q 2066 3103 1784 3103 
Q 1356 3103 1142 2972 
Q 928 2841 928 2578 
Q 928 2378 1081 2264 
Q 1234 2150 1697 2047 
L 1894 2003 
Q 2506 1872 2764 1633 
Q 3022 1394 3022 966 
Q 3022 478 2636 193 
Q 2250 -91 1575 -91 
Q 1294 -91 989 -36 
Q 684 19 347 128 
L 347 722 
Q 666 556 975 473 
Q 1284 391 1588 391 
Q 1994 391 2212 530 
Q 2431 669 2431 922 
Q 2431 1156 2273 1281 
Q 2116 1406 1581 1522 
L 1381 1569 
Q 847 1681 609 1914 
Q 372 2147 372 2553 
Q 372 3047 722 3315 
Q 1072 3584 1716 3584 
Q 2034 3584 2315 3537 
Q 2597 3491 2834 3397 
z
" transform="scale(0.015625)"/>
       <path id="DejaVuSans-20" transform="scale(0.015625)"/>
       <path id="DejaVuSans-69" d="M 603 3500 
L 1178 3500 
L 1178 0 
L 603 0 
L 603 3500 
z
M 603 4863 
L 1178 4863 
L 1178 4134 
L 603 4134 
L 603 4863 
z
" transform="scale(0.015625)"/>
       <path id="DejaVuSans-6e" d="M 3513 2113 
L 3513 0 
L 2938 0 
L 2938 2094 
Q 2938 2591 2744 2837 
Q 2550 3084 2163 3084 
Q 1697 3084 1428 2787 
Q 1159 2491 1159 1978 
L 1159 0 
L 581 0 
L 581 3500 
L 1159 3500 
L 1159 2956 
Q 1366 3272 1645 3428 
Q 1925 3584 2291 3584 
Q 2894 3584 3203 3211 
Q 3513 2838 3513 2113 
z
" transform="scale(0.015625)"/>
       <path id="DejaVuSans-63" d="M 3122 3366 
L 3122 2828 
Q 2878 2963 2633 3030 
Q 2388 3097 2138 3097 
Q 1578 3097 1268 2742 
Q 959 2388 959 1747 
Q 959 1106 1268 751 
Q 1578 397 2138 397 
Q 2388 397 2633 464 
Q 2878 531 3122 666 
L 3122 134 
Q 2881 22 2623 -34 
Q 2366 -91 2075 -91 
Q 1284 -91 818 406 
Q 353 903 353 1747 
Q 353 2603 823 3093 
Q 1294 3584 2113 3584 
Q 2378 3584 2631 3529 
Q 2884 3475 3122 3366 
z
" transform="scale(0.015625)"/>
       <path id="DejaVuSans-65" d="M 3597 1894 
L 3597 1613 
L 953 1613 
Q 991 1019 1311 708 
Q 1631 397 2203 397 
Q 2534 397 2845 478 
Q 3156 559 3463 722 
L 3463 178 
Q 3153 47 2828 -22 
Q 2503 -91 2169 -91 
Q 1331 -91 842 396 
Q 353 884 353 1716 
Q 353 2575 817 3079 
Q 1281 3584 2069 3584 
Q 2775 3584 3186 3129 
Q 3597 2675 3597 1894 
z
M 3022 2063 
Q 3016 2534 2758 2815 
Q 2500 3097 2075 3097 
Q 1594 3097 1305 2825 
Q 1016 2553 972 2059 
L 3022 2063 
z
" transform="scale(0.015625)"/>
       <path id="DejaVuSans-74" d="M 1172 4494 
L 1172 3500 
L 2356 3500 
L 2356 3053 
L 1172 3053 
L 1172 1153 
Q 1172 725 1289 603 
Q 1406 481 1766 481 
L 2356 481 
L 2356 0 
L 1766 0 
Q 1100 0 847 248 
Q 594 497 594 1153 
L 594 3053 
L 172 3053 
L 172 3500 
L 594 3500 
L 594 4494 
L 1172 4494 
z
" transform="scale(0.015625)"/>
       <path id="DejaVuSans-67" d="M 2906 1791 
Q 2906 2416 2648 2759 
Q 2391 3103 1925 3103 
Q 1463 3103 1205 2759 
Q 947 2416 947 1791 
Q 947 1169 1205 825 
Q 1463 481 1925 481 
Q 2391 481 2648 825 
Q 2906 1169 2906 1791 
z
M 3481 434 
Q 3481 -459 3084 -895 
Q 2688 -1331 1869 -1331 
Q 1566 -1331 1297 -1286 
Q 1028 -1241 775 -1147 
L 775 -588 
Q 1028 -725 1275 -790 
Q 1522 -856 1778 -856 
Q 2344 -856 2625 -561 
Q 2906 -266 2906 331 
L 2906 616 
Q 2728 306 2450 153 
Q 2172 0 1784 0 
Q 1141 0 747 490 
Q 353 981 353 1791 
Q 353 2603 747 3093 
Q 1141 3584 1784 3584 
Q 2172 3584 2450 3431 
Q 2728 3278 2906 2969 
L 2906 3500 
L 3481 3500 
L 3481 434 
z
" transform="scale(0.015625)"/>
       <path id="DejaVuSans-78" d="M 3513 3500 
L 2247 1797 
L 3578 0 
L 2900 0 
L 1881 1375 
L 863 0 
L 184 0 
L 1544 1831 
L 300 3500 
L 978 3500 
L 1906 2253 
L 2834 3500 
L 3513 3500 
z
" transform="scale(0.015625)"/>
       <path id="DejaVuSans-70" d="M 1159 525 
L 1159 -1331 
L 581 -1331 
L 581 3500 
L 1159 3500 
L 1159 2969 
Q 1341 3281 1617 3432 
Q 1894 3584 2278 3584 
Q 2916 3584 3314 3078 
Q 3713 2572 3713 1747 
Q 3713 922 3314 415 
Q 2916 -91 2278 -91 
Q 1894 -91 1617 61 
Q 1341 213 1159 525 
z
M 3116 1747 
Q 3116 2381 2855 2742 
Q 2594 3103 2138 3103 
Q 1681 3103 1420 2742 
Q 1159 2381 1159 1747 
Q 1159 1113 1420 752 
Q 1681 391 2138 391 
Q 2594 391 2855 752 
Q 3116 1113 3116 1747 
z
" transform="scale(0.015625)"/>
       <path id="DejaVuSans-6f" d="M 1959 3097 
Q 1497 3097 1228 2736 
Q 959 2375 959 1747 
Q 959 1119 1226 758 
Q 1494 397 1959 397 
Q 2419 397 2687 759 
Q 2956 1122 2956 1747 
Q 2956 2369 2687 2733 
Q 2419 3097 1959 3097 
z
M 1959 3584 
Q 2709 3584 3137 3096 
Q 3566 2609 3566 1747 
Q 3566 888 3137 398 
Q 2709 -91 1959 -91 
Q 1206 -91 779 398 
Q 353 888 353 1747 
Q 353 2609 779 3096 
Q 1206 3584 1959 3584 
z
" transform="scale(0.015625)"/>
       <path id="DejaVuSans-75" d="M 544 1381 
L 544 3500 
L 1119 3500 
L 1119 1403 
Q 1119 906 1312 657 
Q 1506 409 1894 409 
Q 2359 409 2629 706 
Q 2900 1003 2900 1516 
L 2900 3500 
L 3475 3500 
L 3475 0 
L 2900 0 
L 2900 538 
Q 2691 219 2414 64 
Q 2138 -91 1772 -91 
Q 1169 -91 856 284 
Q 544 659 544 1381 
z
M 1991 3584 
L 1991 3584 
z
" transform="scale(0.015625)"/>
       <path id="DejaVuSans-72" d="M 2631 2963 
Q 2534 3019 2420 3045 
Q 2306 3072 2169 3072 
Q 1681 3072 1420 2755 
Q 1159 2438 1159 1844 
L 1159 0 
L 581 0 
L 581 3500 
L 1159 3500 
L 1159 2956 
Q 1341 3275 1631 3429 
Q 1922 3584 2338 3584 
Q 2397 3584 2469 3576 
Q 2541 3569 2628 3553 
L 2631 2963 
z
" transform="scale(0.015625)"/>
      </defs>
      <use xlink:href="#DejaVuSans-44"/>
      <use xlink:href="#DejaVuSans-61" x="77.001953"/>
      <use xlink:href="#DejaVuSans-79" x="138.28125"/>
      <use xlink:href="#DejaVuSans-73" x="197.460938"/>
      <use xlink:href="#DejaVuSans-20" x="249.560547"/>
      <use xlink:href="#DejaVuSans-73" x="281.347656"/>
      <use xlink:href="#DejaVuSans-69" x="333.447266"/>
      <use xlink:href="#DejaVuSans-6e" x="361.230469"/>
      <use xlink:href="#DejaVuSans-63" x="424.609375"/>
      <use xlink:href="#DejaVuSans-65" x="479.589844"/>
      <use xlink:href="#DejaVuSans-20" x="541.113281"/>
      <use xlink:href="#DejaVuSans-61" x="572.900391"/>
      <use xlink:href="#DejaVuSans-6e" x="634.179688"/>
      <use xlink:href="#DejaVuSans-74" x="697.558594"/>
      <use xlink:href="#DejaVuSans-69" x="736.767578"/>
      <use xlink:href="#DejaVuSans-67" x="764.550781"/>
      <use xlink:href="#DejaVuSans-65" x="828.027344"/>
      <use xlink:href="#DejaVuSans-6e" x="889.550781"/>
      <use xlink:href="#DejaVuSans-20" x="952.929688"/>
      <use xlink:href="#DejaVuSans-65" x="984.716797"/>
      <use xlink:href="#DejaVuSans-78" x="1044.490234"/>
      <use xlink:href="#DejaVuSans-70" x="1103.669922"/>
      <use xlink:href="#DejaVuSans-6f" x="1167.146484"/>
      <use xlink:href="#DejaVuSans-73" x="1228.328125"/>
      <use xlink:href="#DejaVuSans-75" x="1280.427734"/>
      <use xlink:href="#DejaVuSans-72" x="1343.806641"/>
      <use xlink:href="#DejaVuSans-65" x="1382.669922"/>
     </g>
    </g>
   </g>
   <g id="matplotlib.axis_2">
    <g id="ytick_1">
     <g id="line2d_8">
      <defs>
       <path id="m2990e161df" d="M 0 0 
L -3.5 0 
" style="stroke: #000000; stroke-width: 0.8"/>
      </defs>
      <g>
       <use xlink:href="#m2990e161df" x="91.758125" y="384.131167" style="stroke: #000000; stroke-width: 0.8"/>
      </g>
     </g>
     <g id="text_9">
      <!-- 0.0 -->
      <g transform="translate(52.951875 391.729605)scale(0.2 -0.2)">
       <defs>
        <path id="DejaVuSans-2e" d="M 684 794 
L 1344 794 
L 1344 0 
L 684 0 
L 684 794 
z
" transform="scale(0.015625)"/>
       </defs>
       <use xlink:href="#DejaVuSans-30"/>
       <use xlink:href="#DejaVuSans-2e" x="63.623047"/>
       <use xlink:href="#DejaVuSans-30" x="95.410156"/>
      </g>
     </g>
    </g>
    <g id="ytick_2">
     <g id="line2d_9">
      <g>
       <use xlink:href="#m2990e161df" x="91.758125" y="319.439752" style="stroke: #000000; stroke-width: 0.8"/>
      </g>
     </g>
     <g id="text_10">
      <!-- 0.2 -->
      <g transform="translate(52.951875 327.038189)scale(0.2 -0.2)">
       <use xlink:href="#DejaVuSans-30"/>
       <use xlink:href="#DejaVuSans-2e" x="63.623047"/>
       <use xlink:href="#DejaVuSans-32" x="95.410156"/>
      </g>
     </g>
    </g>
    <g id="ytick_3">
     <g id="line2d_10">
      <g>
       <use xlink:href="#m2990e161df" x="91.758125" y="254.748336" style="stroke: #000000; stroke-width: 0.8"/>
      </g>
     </g>
     <g id="text_11">
      <!-- 0.4 -->
      <g transform="translate(52.951875 262.346774)scale(0.2 -0.2)">
       <use xlink:href="#DejaVuSans-30"/>
       <use xlink:href="#DejaVuSans-2e" x="63.623047"/>
       <use xlink:href="#DejaVuSans-34" x="95.410156"/>
      </g>
     </g>
    </g>
    <g id="ytick_4">
     <g id="line2d_11">
      <g>
       <use xlink:href="#m2990e161df" x="91.758125" y="190.056921" style="stroke: #000000; stroke-width: 0.8"/>
      </g>
     </g>
     <g id="text_12">
      <!-- 0.6 -->
      <g transform="translate(52.951875 197.655358)scale(0.2 -0.2)">
       <use xlink:href="#DejaVuSans-30"/>
       <use xlink:href="#DejaVuSans-2e" x="63.623047"/>
       <use xlink:href="#DejaVuSans-36" x="95.410156"/>
      </g>
     </g>
    </g>
    <g id="ytick_5">
     <g id="line2d_12">
      <g>
       <use xlink:href="#m2990e161df" x="91.758125" y="125.365505" style="stroke: #000000; stroke-width: 0.8"/>
      </g>
     </g>
     <g id="text_13">
      <!-- 0.8 -->
      <g transform="translate(52.951875 132.963943)scale(0.2 -0.2)">
       <defs>
        <path id="DejaVuSans-38" d="M 2034 2216 
Q 1584 2216 1326 1975 
Q 1069 1734 1069 1313 
Q 1069 891 1326 650 
Q 1584 409 2034 409 
Q 2484 409 2743 651 
Q 3003 894 3003 1313 
Q 3003 1734 2745 1975 
Q 2488 2216 2034 2216 
z
M 1403 2484 
Q 997 2584 770 2862 
Q 544 3141 544 3541 
Q 544 4100 942 4425 
Q 1341 4750 2034 4750 
Q 2731 4750 3128 4425 
Q 3525 4100 3525 3541 
Q 3525 3141 3298 2862 
Q 3072 2584 2669 2484 
Q 3125 2378 3379 2068 
Q 3634 1759 3634 1313 
Q 3634 634 3220 271 
Q 2806 -91 2034 -91 
Q 1263 -91 848 271 
Q 434 634 434 1313 
Q 434 1759 690 2068 
Q 947 2378 1403 2484 
z
M 1172 3481 
Q 1172 3119 1398 2916 
Q 1625 2713 2034 2713 
Q 2441 2713 2670 2916 
Q 2900 3119 2900 3481 
Q 2900 3844 2670 4047 
Q 2441 4250 2034 4250 
Q 1625 4250 1398 4047 
Q 1172 3844 1172 3481 
z
" transform="scale(0.015625)"/>
       </defs>
       <use xlink:href="#DejaVuSans-30"/>
       <use xlink:href="#DejaVuSans-2e" x="63.623047"/>
       <use xlink:href="#DejaVuSans-38" x="95.410156"/>
      </g>
     </g>
    </g>
    <g id="ytick_6">
     <g id="line2d_13">
      <g>
       <use xlink:href="#m2990e161df" x="91.758125" y="60.67409" style="stroke: #000000; stroke-width: 0.8"/>
      </g>
     </g>
     <g id="text_14">
      <!-- 1.0 -->
      <g transform="translate(52.951875 68.272527)scale(0.2 -0.2)">
       <use xlink:href="#DejaVuSans-31"/>
       <use xlink:href="#DejaVuSans-2e" x="63.623047"/>
       <use xlink:href="#DejaVuSans-30" x="95.410156"/>
      </g>
     </g>
    </g>
    <g id="text_15">
     <!-- Virus neutralization -->
     <g transform="translate(22.396875 319.741562)rotate(-90)scale(0.2 -0.2)">
      <defs>
       <path id="DejaVuSans-56" d="M 1831 0 
L 50 4666 
L 709 4666 
L 2188 738 
L 3669 4666 
L 4325 4666 
L 2547 0 
L 1831 0 
z
" transform="scale(0.015625)"/>
       <path id="DejaVuSans-6c" d="M 603 4863 
L 1178 4863 
L 1178 0 
L 603 0 
L 603 4863 
z
" transform="scale(0.015625)"/>
       <path id="DejaVuSans-7a" d="M 353 3500 
L 3084 3500 
L 3084 2975 
L 922 459 
L 3084 459 
L 3084 0 
L 275 0 
L 275 525 
L 2438 3041 
L 353 3041 
L 353 3500 
z
" transform="scale(0.015625)"/>
      </defs>
      <use xlink:href="#DejaVuSans-56"/>
      <use xlink:href="#DejaVuSans-69" x="66.158203"/>
      <use xlink:href="#DejaVuSans-72" x="93.941406"/>
      <use xlink:href="#DejaVuSans-75" x="135.054688"/>
      <use xlink:href="#DejaVuSans-73" x="198.433594"/>
      <use xlink:href="#DejaVuSans-20" x="250.533203"/>
      <use xlink:href="#DejaVuSans-6e" x="282.320312"/>
      <use xlink:href="#DejaVuSans-65" x="345.699219"/>
      <use xlink:href="#DejaVuSans-75" x="407.222656"/>
      <use xlink:href="#DejaVuSans-74" x="470.601562"/>
      <use xlink:href="#DejaVuSans-72" x="509.810547"/>
      <use xlink:href="#DejaVuSans-61" x="550.923828"/>
      <use xlink:href="#DejaVuSans-6c" x="612.203125"/>
      <use xlink:href="#DejaVuSans-69" x="639.986328"/>
      <use xlink:href="#DejaVuSans-7a" x="667.769531"/>
      <use xlink:href="#DejaVuSans-61" x="720.259766"/>
      <use xlink:href="#DejaVuSans-74" x="781.539062"/>
      <use xlink:href="#DejaVuSans-69" x="820.748047"/>
      <use xlink:href="#DejaVuSans-6f" x="848.53125"/>
      <use xlink:href="#DejaVuSans-6e" x="909.712891"/>
     </g>
     <!--  probability -->
     <g transform="translate(44.7925 278.966562)rotate(-90)scale(0.2 -0.2)">
      <defs>
       <path id="DejaVuSans-62" d="M 3116 1747 
Q 3116 2381 2855 2742 
Q 2594 3103 2138 3103 
Q 1681 3103 1420 2742 
Q 1159 2381 1159 1747 
Q 1159 1113 1420 752 
Q 1681 391 2138 391 
Q 2594 391 2855 752 
Q 3116 1113 3116 1747 
z
M 1159 2969 
Q 1341 3281 1617 3432 
Q 1894 3584 2278 3584 
Q 2916 3584 3314 3078 
Q 3713 2572 3713 1747 
Q 3713 922 3314 415 
Q 2916 -91 2278 -91 
Q 1894 -91 1617 61 
Q 1341 213 1159 525 
L 1159 0 
L 581 0 
L 581 4863 
L 1159 4863 
L 1159 2969 
z
" transform="scale(0.015625)"/>
      </defs>
      <use xlink:href="#DejaVuSans-20"/>
      <use xlink:href="#DejaVuSans-70" x="31.787109"/>
      <use xlink:href="#DejaVuSans-72" x="95.263672"/>
      <use xlink:href="#DejaVuSans-6f" x="134.126953"/>
      <use xlink:href="#DejaVuSans-62" x="195.308594"/>
      <use xlink:href="#DejaVuSans-61" x="258.785156"/>
      <use xlink:href="#DejaVuSans-62" x="320.064453"/>
      <use xlink:href="#DejaVuSans-69" x="383.541016"/>
      <use xlink:href="#DejaVuSans-6c" x="411.324219"/>
      <use xlink:href="#DejaVuSans-69" x="439.107422"/>
      <use xlink:href="#DejaVuSans-74" x="466.890625"/>
      <use xlink:href="#DejaVuSans-79" x="506.099609"/>
     </g>
    </g>
   </g>
   <g id="patch_3">
    <path d="M 91.758125 416.476875 
L 91.758125 28.396875 
" style="fill: none; stroke: #000000; stroke-width: 0.8; stroke-linejoin: miter; stroke-linecap: square"/>
   </g>
   <g id="patch_4">
    <path d="M 649.758125 416.476875 
L 649.758125 28.396875 
" style="fill: none; stroke: #000000; stroke-width: 0.8; stroke-linejoin: miter; stroke-linecap: square"/>
   </g>
   <g id="patch_5">
    <path d="M 91.758125 416.476875 
L 649.758125 416.476875 
" style="fill: none; stroke: #000000; stroke-width: 0.8; stroke-linejoin: miter; stroke-linecap: square"/>
   </g>
   <g id="patch_6">
    <path d="M 91.758125 28.396875 
L 649.758125 28.396875 
" style="fill: none; stroke: #000000; stroke-width: 0.8; stroke-linejoin: miter; stroke-linecap: square"/>
   </g>
   <g id="text_16">
    <!-- KP.3 antigen -->
    <g transform="translate(309.01125 22.396875)scale(0.2 -0.2)">
     <defs>
      <path id="DejaVuSans-4b" d="M 628 4666 
L 1259 4666 
L 1259 2694 
L 3353 4666 
L 4166 4666 
L 1850 2491 
L 4331 0 
L 3500 0 
L 1259 2247 
L 1259 0 
L 628 0 
L 628 4666 
z
" transform="scale(0.015625)"/>
      <path id="DejaVuSans-50" d="M 1259 4147 
L 1259 2394 
L 2053 2394 
Q 2494 2394 2734 2622 
Q 2975 2850 2975 3272 
Q 2975 3691 2734 3919 
Q 2494 4147 2053 4147 
L 1259 4147 
z
M 628 4666 
L 2053 4666 
Q 2838 4666 3239 4311 
Q 3641 3956 3641 3272 
Q 3641 2581 3239 2228 
Q 2838 1875 2053 1875 
L 1259 1875 
L 1259 0 
L 628 0 
L 628 4666 
z
" transform="scale(0.015625)"/>
     </defs>
     <use xlink:href="#DejaVuSans-4b"/>
     <use xlink:href="#DejaVuSans-50" x="65.576172"/>
     <use xlink:href="#DejaVuSans-2e" x="110.253906"/>
     <use xlink:href="#DejaVuSans-33" x="142.041016"/>
     <use xlink:href="#DejaVuSans-20" x="205.664062"/>
     <use xlink:href="#DejaVuSans-61" x="237.451172"/>
     <use xlink:href="#DejaVuSans-6e" x="298.730469"/>
     <use xlink:href="#DejaVuSans-74" x="362.109375"/>
     <use xlink:href="#DejaVuSans-69" x="401.318359"/>
     <use xlink:href="#DejaVuSans-67" x="429.101562"/>
     <use xlink:href="#DejaVuSans-65" x="492.578125"/>
     <use xlink:href="#DejaVuSans-6e" x="554.101562"/>
    </g>
   </g>
   <g id="legend_1">
    <g id="patch_7">
     <path d="M 235.258125 532.900875 
L 476.333125 532.900875 
Q 480.333125 532.900875 480.333125 528.900875 
L 480.333125 501.544625 
Q 480.333125 497.544625 476.333125 497.544625 
L 235.258125 497.544625 
Q 231.258125 497.544625 231.258125 501.544625 
L 231.258125 528.900875 
Q 231.258125 532.900875 235.258125 532.900875 
z
" style="fill: #ffffff; opacity: 0.8; stroke: #cccccc; stroke-linejoin: miter"/>
    </g>
    <g id="patch_8">
     <path d="M 239.258125 520.7415 
L 279.258125 520.7415 
L 279.258125 506.7415 
L 239.258125 506.7415 
z
" style="fill: #ffa500; fill-opacity: 0.3; stroke: #ffa500; stroke-opacity: 0.3; stroke-linejoin: miter"/>
    </g>
    <g id="text_17">
     <!-- JN.3 -->
     <g transform="translate(295.258125 520.7415)scale(0.2 -0.2)">
      <defs>
       <path id="DejaVuSans-4a" d="M 628 4666 
L 1259 4666 
L 1259 325 
Q 1259 -519 939 -900 
Q 619 -1281 -91 -1281 
L -331 -1281 
L -331 -750 
L -134 -750 
Q 284 -750 456 -515 
Q 628 -281 628 325 
L 628 4666 
z
" transform="scale(0.015625)"/>
       <path id="DejaVuSans-4e" d="M 628 4666 
L 1478 4666 
L 3547 763 
L 3547 4666 
L 4159 4666 
L 4159 0 
L 3309 0 
L 1241 3903 
L 1241 0 
L 628 0 
L 628 4666 
z
" transform="scale(0.015625)"/>
      </defs>
      <use xlink:href="#DejaVuSans-4a"/>
      <use xlink:href="#DejaVuSans-4e" x="29.492188"/>
      <use xlink:href="#DejaVuSans-2e" x="104.296875"/>
      <use xlink:href="#DejaVuSans-33" x="136.083984"/>
     </g>
    </g>
    <g id="patch_9">
     <path d="M 375.201875 520.7415 
L 415.201875 520.7415 
L 415.201875 506.7415 
L 375.201875 506.7415 
z
" style="fill: #1f77b4; fill-opacity: 0.3; stroke: #1f77b4; stroke-opacity: 0.3; stroke-linejoin: miter"/>
    </g>
    <g id="text_18">
     <!-- KP.3 -->
     <g transform="translate(431.201875 520.7415)scale(0.2 -0.2)">
      <use xlink:href="#DejaVuSans-4b"/>
      <use xlink:href="#DejaVuSans-50" x="65.576172"/>
      <use xlink:href="#DejaVuSans-2e" x="110.253906"/>
      <use xlink:href="#DejaVuSans-33" x="142.041016"/>
     </g>
    </g>
   </g>
  </g>
 </g>
 <defs>
  <clipPath id="p910625ace3">
   <rect x="91.758125" y="28.396875" width="558" height="388.08"/>
  </clipPath>
 </defs>
</svg>
