<?xml version="1.0" encoding="utf-8" standalone="no"?>
<!DOCTYPE svg PUBLIC "-//W3C//DTD SVG 1.1//EN"
  "http://www.w3.org/Graphics/SVG/1.1/DTD/svg11.dtd">
<svg xmlns:xlink="http://www.w3.org/1999/xlink" width="656.958125pt" height="540.100875pt" viewBox="0 0 656.958125 540.100875" xmlns="http://www.w3.org/2000/svg" version="1.1">
 <metadata>
  <rdf:RDF xmlns:dc="http://purl.org/dc/elements/1.1/" xmlns:cc="http://creativecommons.org/ns#" xmlns:rdf="http://www.w3.org/1999/02/22-rdf-syntax-ns#">
   <cc:Work>
    <dc:type rdf:resource="http://purl.org/dc/dcmitype/StillImage"/>
    <dc:date>2024-09-28T11:22:49.076454</dc:date>
    <dc:format>image/svg+xml</dc:format>
    <dc:creator>
     <cc:Agent>
      <dc:title>Matplotlib v3.5.2, https://matplotlib.org/</dc:title>
     </cc:Agent>
    </dc:creator>
   </cc:Work>
  </rdf:RDF>
 </metadata>
 <defs>
  <style type="text/css">*{stroke-linejoin: round; stroke-linecap: butt}</style>
 </defs>
 <g id="figure_1">
  <g id="patch_1">
   <path d="M 0 540.100875 
L 656.958125 540.100875 
L 656.958125 0 
L 0 0 
z
" style="fill: #ffffff"/>
  </g>
  <g id="axes_1">
   <g id="patch_2">
    <path d="M 91.758125 416.476875 
L 649.758125 416.476875 
L 649.758125 28.396875 
L 91.758125 28.396875 
z
" style="fill: #ffffff"/>
   </g>
   <g id="PolyCollection_1">
    <defs>
     <path id="m729db71e77" d="M 117.121761 -464.06096 
L 117.121761 -397.116121 
L 117.897408 -450.864899 
L 118.673054 -467.331633 
L 119.4487 -473.524795 
L 120.224347 -476.220388 
L 120.999993 -477.530684 
L 121.77564 -478.225437 
L 122.551286 -478.620647 
L 123.326932 -478.858897 
L 124.102579 -479.009679 
L 124.878225 -479.109112 
L 125.653871 -479.177024 
L 126.429518 -479.224817 
L 127.205164 -479.259326 
L 127.980811 -479.28479 
L 128.756457 -479.303928 
L 129.532103 -479.318529 
L 130.30775 -479.3298 
L 131.083396 -479.338576 
L 131.859042 -479.343679 
L 132.634689 -479.336209 
L 133.410335 -479.327415 
L 134.185982 -479.317166 
L 134.961628 -479.305309 
L 135.737274 -479.291664 
L 136.512921 -479.27603 
L 137.288567 -479.258179 
L 138.064213 -479.237855 
L 138.83986 -479.214775 
L 139.615506 -479.188628 
L 140.391153 -479.159068 
L 141.166799 -479.125719 
L 141.942445 -479.08817 
L 142.718092 -479.045971 
L 143.493738 -478.998637 
L 144.269384 -478.945641 
L 145.045031 -478.886414 
L 145.820677 -478.820343 
L 146.596323 -478.746773 
L 147.37197 -478.665 
L 148.147616 -478.574273 
L 148.923263 -478.473791 
L 149.698909 -478.362706 
L 150.474555 -478.240117 
L 151.250202 -478.105074 
L 152.025848 -477.956576 
L 152.801494 -477.793568 
L 153.577141 -477.614949 
L 154.352787 -477.419565 
L 155.128434 -477.206213 
L 155.90408 -476.973645 
L 156.679726 -476.720566 
L 157.455373 -476.445636 
L 158.231019 -476.147477 
L 159.006665 -475.824669 
L 159.782312 -475.475761 
L 160.557958 -475.099269 
L 161.333605 -474.69368 
L 162.109251 -474.257462 
L 162.884897 -473.789062 
L 163.660544 -473.286915 
L 164.43619 -472.749448 
L 165.211836 -472.175088 
L 165.987483 -471.562262 
L 166.763129 -470.90941 
L 167.538776 -470.214989 
L 168.314422 -469.477476 
L 169.090068 -468.695379 
L 169.865715 -467.867243 
L 170.641361 -466.991655 
L 171.417007 -466.06725 
L 172.192654 -465.09272 
L 172.9683 -464.066822 
L 173.743947 -462.988377 
L 174.519593 -461.856284 
L 175.295239 -460.669522 
L 176.070886 -459.427157 
L 176.846532 -458.128346 
L 177.622178 -456.772343 
L 178.397825 -455.358503 
L 179.173471 -453.886286 
L 179.949117 -452.35526 
L 180.724764 -450.765108 
L 181.50041 -449.115625 
L 182.276057 -447.406723 
L 183.051703 -445.638434 
L 183.827349 -443.810909 
L 184.602996 -441.924419 
L 185.378642 -439.979355 
L 186.154288 -437.976229 
L 186.929935 -435.915669 
L 187.705581 -433.798423 
L 188.481228 -431.625352 
L 189.256874 -429.397431 
L 190.03252 -427.115743 
L 190.808167 -424.781478 
L 191.583813 -422.395928 
L 192.359459 -419.960482 
L 193.135106 -417.476624 
L 193.910752 -414.945926 
L 194.686399 -412.370042 
L 195.462045 -409.750705 
L 196.237691 -407.08972 
L 197.013338 -404.388957 
L 197.788984 -401.65035 
L 198.56463 -398.875882 
L 199.340277 -396.067589 
L 200.115923 -393.227546 
L 200.89157 -390.357864 
L 201.667216 -387.460686 
L 202.442862 -384.538174 
L 203.218509 -381.592512 
L 203.994155 -378.625893 
L 204.769801 -375.640515 
L 205.545448 -372.638578 
L 206.321094 -369.622276 
L 207.096741 -366.593791 
L 207.872387 -363.55529 
L 208.648033 -360.50892 
L 209.42368 -357.456803 
L 210.199326 -354.40103 
L 210.974972 -351.343659 
L 211.750619 -348.286712 
L 212.526265 -345.232168 
L 213.301911 -342.181962 
L 214.077558 -339.137983 
L 214.853204 -336.10207 
L 215.628851 -333.076008 
L 216.404497 -330.061528 
L 217.180143 -327.060305 
L 217.95579 -324.073955 
L 218.731436 -321.104036 
L 219.507082 -318.152043 
L 220.282729 -315.21941 
L 221.058375 -312.307508 
L 221.834022 -309.417647 
L 222.609668 -306.551071 
L 223.385314 -303.708963 
L 224.160961 -300.892441 
L 224.936607 -298.102559 
L 225.712253 -295.340312 
L 226.4879 -292.60663 
L 227.263546 -289.902381 
L 228.039193 -287.228375 
L 228.814839 -284.585362 
L 229.590485 -281.974031 
L 230.366132 -279.395017 
L 231.141778 -276.848897 
L 231.917424 -274.336193 
L 232.693071 -271.857376 
L 233.468717 -269.412863 
L 234.244364 -267.00302 
L 235.02001 -264.628168 
L 235.795656 -262.288578 
L 236.571303 -259.984475 
L 237.346949 -257.716042 
L 238.122595 -255.483419 
L 238.898242 -253.286705 
L 239.673888 -251.125962 
L 240.449535 -249.001212 
L 241.225181 -246.912443 
L 242.000827 -244.85961 
L 242.776474 -242.842635 
L 243.55212 -240.86141 
L 244.327766 -238.915795 
L 245.103413 -237.005627 
L 245.879059 -235.130714 
L 246.654705 -233.290841 
L 247.430352 -231.485769 
L 248.205998 -229.715239 
L 248.981645 -227.97897 
L 249.757291 -226.276664 
L 250.532937 -224.608004 
L 251.308584 -222.972658 
L 252.08423 -221.370278 
L 252.859876 -219.800504 
L 253.635523 -218.262961 
L 254.411169 -216.757265 
L 255.186816 -215.283019 
L 255.962462 -213.839818 
L 256.738108 -212.427249 
L 257.513755 -211.04489 
L 258.289401 -209.692315 
L 259.065047 -208.369088 
L 259.840694 -207.074773 
L 260.61634 -205.808925 
L 261.391987 -204.5711 
L 262.167633 -203.360849 
L 262.943279 -202.17772 
L 263.718926 -201.021262 
L 264.494572 -199.891021 
L 265.270218 -198.786544 
L 266.045865 -197.707378 
L 266.821511 -196.653071 
L 267.597158 -195.623172 
L 268.372804 -194.61723 
L 269.14845 -193.634799 
L 269.924097 -192.675434 
L 270.699743 -191.738693 
L 271.475389 -190.824136 
L 272.251036 -189.931328 
L 273.026682 -189.059838 
L 273.802329 -188.209237 
L 274.577975 -187.379103 
L 275.353621 -186.569015 
L 276.129268 -185.778559 
L 276.904914 -185.007327 
L 277.68056 -184.254912 
L 278.456207 -183.520916 
L 279.231853 -182.804944 
L 280.007499 -182.106608 
L 280.783146 -181.425524 
L 281.558792 -180.761315 
L 282.334439 -180.113608 
L 283.110085 -179.482038 
L 283.885731 -178.866243 
L 284.661378 -178.265869 
L 285.437024 -177.680567 
L 286.21267 -177.109995 
L 286.988317 -176.553815 
L 287.763963 -176.011696 
L 288.53961 -175.483313 
L 289.315256 -174.968346 
L 290.090902 -174.466482 
L 290.866549 -173.977414 
L 291.642195 -173.50084 
L 292.417841 -173.036463 
L 293.193488 -172.583995 
L 293.969134 -172.143149 
L 294.744781 -171.713648 
L 295.520427 -171.295218 
L 296.296073 -170.887592 
L 297.07172 -170.490507 
L 297.847366 -170.103707 
L 298.623012 -169.726941 
L 299.398659 -169.359963 
L 300.174305 -169.002532 
L 300.949952 -168.654413 
L 301.725598 -168.315375 
L 302.501244 -167.985193 
L 303.276891 -167.663647 
L 304.052537 -167.350521 
L 304.828183 -167.045605 
L 305.60383 -166.748692 
L 306.379476 -166.459582 
L 307.155122 -166.178077 
L 307.930769 -165.903987 
L 308.706415 -165.637122 
L 309.482062 -165.377299 
L 310.257708 -165.12434 
L 311.033354 -164.87807 
L 311.809001 -164.638318 
L 312.584647 -164.404916 
L 313.360293 -164.177703 
L 314.13594 -163.956518 
L 314.911586 -163.741208 
L 315.687233 -163.531621 
L 316.462879 -163.327609 
L 317.238525 -163.129028 
L 318.014172 -162.935737 
L 318.789818 -162.747599 
L 319.565464 -162.56448 
L 320.341111 -162.386249 
L 321.116757 -162.21278 
L 321.892404 -162.043948 
L 322.66805 -161.879632 
L 323.443696 -161.719713 
L 324.219343 -161.564078 
L 324.994989 -161.412612 
L 325.770635 -161.265207 
L 326.546282 -161.121757 
L 327.321928 -160.982156 
L 328.097575 -160.846304 
L 328.873221 -160.714102 
L 329.648867 -160.585454 
L 330.424514 -160.460265 
L 331.20016 -160.338444 
L 331.975806 -160.219902 
L 332.751453 -160.104553 
L 333.527099 -159.99231 
L 334.302746 -159.883093 
L 335.078392 -159.776821 
L 335.854038 -159.673414 
L 336.629685 -159.572798 
L 337.405331 -159.474898 
L 338.180977 -159.379641 
L 338.956624 -159.286957 
L 339.73227 -159.196778 
L 340.507916 -159.109036 
L 341.283563 -159.023666 
L 342.059209 -158.940605 
L 342.834856 -158.859792 
L 343.610502 -158.781165 
L 344.386148 -158.704667 
L 345.161795 -158.63024 
L 345.937441 -158.557829 
L 346.713087 -158.487379 
L 347.488734 -158.418839 
L 348.26438 -158.352156 
L 349.040027 -158.287282 
L 349.815673 -158.224166 
L 350.591319 -158.162763 
L 351.366966 -158.103026 
L 352.142612 -158.044909 
L 352.918258 -157.98837 
L 353.693905 -157.933366 
L 354.469551 -157.879856 
L 355.245198 -157.827798 
L 356.020844 -157.777155 
L 356.79649 -157.727888 
L 357.572137 -157.679959 
L 358.347783 -157.633333 
L 359.123429 -157.587975 
L 359.899076 -157.543849 
L 360.674722 -157.500924 
L 361.450369 -157.459165 
L 362.226015 -157.418543 
L 363.001661 -157.379025 
L 363.777308 -157.340583 
L 364.552954 -157.303187 
L 365.3286 -157.266809 
L 366.104247 -157.23142 
L 366.879893 -157.196995 
L 367.65554 -157.163508 
L 368.431186 -157.130932 
L 369.206832 -157.099243 
L 369.982479 -157.068417 
L 370.758125 -157.038431 
L 371.533771 -157.009262 
L 372.309418 -156.980887 
L 373.085064 -156.953286 
L 373.86071 -156.926436 
L 374.636357 -156.900319 
L 375.412003 -156.874913 
L 376.18765 -156.850199 
L 376.963296 -156.826159 
L 377.738942 -156.802775 
L 378.514589 -156.780028 
L 379.290235 -156.757901 
L 380.065881 -156.736378 
L 380.841528 -156.715442 
L 381.617174 -156.695076 
L 382.392821 -156.675267 
L 383.168467 -156.655997 
L 383.944113 -156.637253 
L 384.71976 -156.61902 
L 385.495406 -156.601285 
L 386.271052 -156.584034 
L 387.046699 -156.567253 
L 387.822345 -156.550931 
L 388.597992 -156.535053 
L 389.373638 -156.519609 
L 390.149284 -156.504587 
L 390.924931 -156.489974 
L 391.700577 -156.47576 
L 392.476223 -156.461935 
L 393.25187 -156.448486 
L 394.027516 -156.435405 
L 394.803163 -156.422681 
L 395.578809 -156.410304 
L 396.354455 -156.398266 
L 397.130102 -156.386556 
L 397.905748 -156.375165 
L 398.681394 -156.364086 
L 399.457041 -156.353309 
L 400.232687 -156.342827 
L 401.008334 -156.33263 
L 401.78398 -156.322712 
L 402.559626 -156.313066 
L 403.335273 -156.303682 
L 404.110919 -156.294555 
L 404.886565 -156.285677 
L 405.662212 -156.277042 
L 406.437858 -156.268642 
L 407.213504 -156.260472 
L 407.989151 -156.252525 
L 408.764797 -156.244795 
L 409.540444 -156.237277 
L 410.31609 -156.229963 
L 411.091736 -156.22285 
L 411.867383 -156.215931 
L 412.643029 -156.209201 
L 413.418675 -156.202655 
L 414.194322 -156.196287 
L 414.969968 -156.190094 
L 415.745615 -156.18407 
L 416.521261 -156.17821 
L 417.296907 -156.172511 
L 418.072554 -156.166967 
L 418.8482 -156.161575 
L 419.623846 -156.15633 
L 420.399493 -156.151229 
L 421.175139 -156.146266 
L 421.950786 -156.14144 
L 422.726432 -156.136745 
L 423.502078 -156.132179 
L 424.277725 -156.127738 
L 425.053371 -156.123417 
L 425.829017 -156.119215 
L 426.604664 -156.115128 
L 427.38031 -156.111153 
L 428.155957 -156.107286 
L 428.931603 -156.103525 
L 429.707249 -156.099866 
L 430.482896 -156.096308 
L 431.258542 -156.092847 
L 432.034188 -156.08948 
L 432.809835 -156.086206 
L 433.585481 -156.083021 
L 434.361128 -156.079923 
L 435.136774 -156.07691 
L 435.91242 -156.073979 
L 436.688067 -156.071128 
L 437.463713 -156.068355 
L 438.239359 -156.065658 
L 439.015006 -156.063035 
L 439.790652 -156.060483 
L 440.566298 -156.058001 
L 441.341945 -156.055587 
L 442.117591 -156.053239 
L 442.893238 -156.050955 
L 443.668884 -156.048734 
L 444.44453 -156.046573 
L 445.220177 -156.044472 
L 445.995823 -156.042427 
L 446.771469 -156.040439 
L 447.547116 -156.038505 
L 448.322762 -156.036624 
L 449.098409 -156.034795 
L 449.874055 -156.033015 
L 450.649701 -156.031284 
L 451.425348 -156.0296 
L 452.200994 -156.027963 
L 452.97664 -156.02637 
L 453.752287 -156.024821 
L 454.527933 -156.023314 
L 455.30358 -156.021848 
L 456.079226 -156.020422 
L 456.854872 -156.019036 
L 457.630519 -156.017687 
L 458.406165 -156.016375 
L 459.181811 -156.015099 
L 459.957458 -156.013858 
L 460.733104 -156.012651 
L 461.508751 -156.011477 
L 462.284397 -156.010335 
L 463.060043 -156.009224 
L 463.83569 -156.008143 
L 464.611336 -156.007092 
L 465.386982 -156.00607 
L 466.162629 -156.005076 
L 466.938275 -156.004109 
L 467.713921 -156.003168 
L 468.489568 -156.002253 
L 469.265214 -156.001363 
L 470.040861 -156.000498 
L 470.816507 -155.999656 
L 471.592153 -155.998837 
L 472.3678 -155.99804 
L 473.143446 -155.997266 
L 473.919092 -155.996512 
L 474.694739 -155.995779 
L 475.470385 -155.995066 
L 476.246032 -155.994373 
L 477.021678 -155.993698 
L 477.797324 -155.993042 
L 478.572971 -155.992404 
L 479.348617 -155.991784 
L 480.124263 -155.99118 
L 480.89991 -155.990593 
L 481.675556 -155.990022 
L 482.451203 -155.989466 
L 483.226849 -155.988926 
L 484.002495 -155.988401 
L 484.778142 -155.987889 
L 485.553788 -155.987392 
L 486.329434 -155.986909 
L 487.105081 -155.986438 
L 487.880727 -155.985981 
L 488.656374 -155.985536 
L 489.43202 -155.985103 
L 490.207666 -155.984682 
L 490.983313 -155.984273 
L 491.758959 -155.983874 
L 492.534605 -155.983487 
L 493.310252 -155.98311 
L 494.085898 -155.982744 
L 494.861545 -155.982387 
L 495.637191 -155.982041 
L 496.412837 -155.981703 
L 497.188484 -155.981375 
L 497.96413 -155.981056 
L 498.739776 -155.980746 
L 499.515423 -155.980444 
L 500.291069 -155.980151 
L 501.066715 -155.979865 
L 501.842362 -155.979587 
L 502.618008 -155.979317 
L 503.393655 -155.979054 
L 504.169301 -155.978799 
L 504.944947 -155.97855 
L 505.720594 -155.978308 
L 506.49624 -155.978073 
L 507.271886 -155.977844 
L 508.047533 -155.977622 
L 508.823179 -155.977406 
L 509.598826 -155.977195 
L 510.374472 -155.97699 
L 511.150118 -155.976791 
L 511.925765 -155.976597 
L 512.701411 -155.976409 
L 513.477057 -155.976226 
L 514.252704 -155.976048 
L 515.02835 -155.975874 
L 515.803997 -155.975706 
L 516.579643 -155.975542 
L 517.355289 -155.975382 
L 518.130936 -155.975227 
L 518.906582 -155.975076 
L 519.682228 -155.974929 
L 520.457875 -155.974786 
L 521.233521 -155.974648 
L 522.009168 -155.974512 
L 522.784814 -155.974381 
L 523.56046 -155.974253 
L 524.336107 -155.974129 
L 525.111753 -155.974008 
L 525.887399 -155.97389 
L 526.663046 -155.973776 
L 527.438692 -155.973665 
L 528.214339 -155.973557 
L 528.989985 -155.973451 
L 529.765631 -155.973349 
L 530.541278 -155.973249 
L 531.316924 -155.973153 
L 532.09257 -155.973058 
L 532.868217 -155.972967 
L 533.643863 -155.972878 
L 534.419509 -155.972791 
L 535.195156 -155.972707 
L 535.970802 -155.972625 
L 536.746449 -155.972545 
L 537.522095 -155.972467 
L 538.297741 -155.972392 
L 539.073388 -155.972318 
L 539.849034 -155.972247 
L 540.62468 -155.972178 
L 541.400327 -155.97211 
L 542.175973 -155.972044 
L 542.95162 -155.971981 
L 543.727266 -155.971918 
L 544.502912 -155.971858 
L 545.278559 -155.971799 
L 546.054205 -155.971742 
L 546.829851 -155.971686 
L 547.605498 -155.971632 
L 548.381144 -155.97158 
L 549.156791 -155.971528 
L 549.932437 -155.971479 
L 550.708083 -155.97143 
L 551.48373 -155.971383 
L 552.259376 -155.971337 
L 553.035022 -155.971293 
L 553.810669 -155.971249 
L 554.586315 -155.971207 
L 555.361962 -155.971166 
L 556.137608 -155.971126 
L 556.913254 -155.971088 
L 557.688901 -155.97105 
L 558.464547 -155.971013 
L 559.240193 -155.970977 
L 560.01584 -155.970943 
L 560.791486 -155.970909 
L 561.567133 -155.970876 
L 562.342779 -155.970844 
L 563.118425 -155.970813 
L 563.894072 -155.970783 
L 564.669718 -155.970753 
L 565.445364 -155.970725 
L 566.221011 -155.970697 
L 566.996657 -155.97067 
L 567.772303 -155.970644 
L 568.54795 -155.970618 
L 569.323596 -155.970593 
L 570.099243 -155.970569 
L 570.874889 -155.970545 
L 571.650535 -155.970523 
L 572.426182 -155.9705 
L 573.201828 -155.970479 
L 573.977474 -155.970457 
L 574.753121 -155.970437 
L 575.528767 -155.970417 
L 576.304414 -155.970398 
L 577.08006 -155.970379 
L 577.855706 -155.97036 
L 578.631353 -155.970343 
L 579.406999 -155.970325 
L 580.182645 -155.970308 
L 580.958292 -155.970292 
L 581.733938 -155.970276 
L 582.509585 -155.97026 
L 583.285231 -155.970245 
L 584.060877 -155.970231 
L 584.836524 -155.970216 
L 585.61217 -155.970202 
L 586.387816 -155.970189 
L 587.163463 -155.970176 
L 587.939109 -155.970163 
L 588.714756 -155.97015 
L 589.490402 -155.970138 
L 590.266048 -155.970127 
L 591.041695 -155.970115 
L 591.817341 -155.970104 
L 592.592987 -155.970093 
L 593.368634 -155.970083 
L 594.14428 -155.970072 
L 594.919927 -155.970062 
L 595.695573 -155.970053 
L 596.471219 -155.970043 
L 597.246866 -155.970034 
L 598.022512 -155.970025 
L 598.798158 -155.970016 
L 599.573805 -155.970008 
L 600.349451 -155.97 
L 601.125097 -155.969992 
L 601.900744 -155.969984 
L 602.67639 -155.969977 
L 603.452037 -155.969969 
L 604.227683 -155.969962 
L 605.003329 -155.969955 
L 605.778976 -155.969948 
L 606.554622 -155.969942 
L 607.330268 -155.969935 
L 608.105915 -155.969929 
L 608.881561 -155.969923 
L 609.657208 -155.969917 
L 610.432854 -155.969911 
L 611.2085 -155.969906 
L 611.984147 -155.9699 
L 612.759793 -155.969895 
L 613.535439 -155.96989 
L 614.311086 -155.969885 
L 615.086732 -155.96988 
L 615.862379 -155.969875 
L 616.638025 -155.969871 
L 617.413671 -155.969866 
L 618.189318 -155.969862 
L 618.964964 -155.969858 
L 619.74061 -155.969854 
L 620.516257 -155.96985 
L 621.291903 -155.969846 
L 622.06755 -155.969842 
L 622.843196 -155.969838 
L 623.618842 -155.969835 
L 624.394489 -155.969831 
L 624.394489 -166.656994 
L 624.394489 -166.656994 
L 623.618842 -166.76277 
L 622.843196 -166.869572 
L 622.06755 -166.977409 
L 621.291903 -167.08629 
L 620.516257 -167.196225 
L 619.74061 -167.307225 
L 618.964964 -167.419298 
L 618.189318 -167.532455 
L 617.413671 -167.646706 
L 616.638025 -167.762061 
L 615.862379 -167.87853 
L 615.086732 -167.996123 
L 614.311086 -168.11485 
L 613.535439 -168.234723 
L 612.759793 -168.35575 
L 611.984147 -168.477944 
L 611.2085 -168.601315 
L 610.432854 -168.725873 
L 609.657208 -168.85163 
L 608.881561 -168.978596 
L 608.105915 -169.106782 
L 607.330268 -169.236199 
L 606.554622 -169.366859 
L 605.778976 -169.498773 
L 605.003329 -169.631952 
L 604.227683 -169.766408 
L 603.452037 -169.902152 
L 602.67639 -170.039195 
L 601.900744 -170.177551 
L 601.125097 -170.31723 
L 600.349451 -170.458244 
L 599.573805 -170.600606 
L 598.798158 -170.744327 
L 598.022512 -170.889419 
L 597.246866 -171.035896 
L 596.471219 -171.183769 
L 595.695573 -171.333051 
L 594.919927 -171.483754 
L 594.14428 -171.635891 
L 593.368634 -171.789475 
L 592.592987 -171.944519 
L 591.817341 -172.101036 
L 591.041695 -172.259038 
L 590.266048 -172.418538 
L 589.490402 -172.579551 
L 588.714756 -172.74209 
L 587.939109 -172.906167 
L 587.163463 -173.071797 
L 586.387816 -173.238992 
L 585.61217 -173.407768 
L 584.836524 -173.578137 
L 584.060877 -173.750113 
L 583.285231 -173.923711 
L 582.509585 -174.098945 
L 581.733938 -174.275829 
L 580.958292 -174.454377 
L 580.182645 -174.634603 
L 579.406999 -174.816523 
L 578.631353 -175.000151 
L 577.855706 -175.185501 
L 577.08006 -175.372589 
L 576.304414 -175.56143 
L 575.528767 -175.752037 
L 574.753121 -175.944427 
L 573.977474 -176.138615 
L 573.201828 -176.334616 
L 572.426182 -176.532446 
L 571.650535 -176.73212 
L 570.874889 -176.933654 
L 570.099243 -177.137063 
L 569.323596 -177.342363 
L 568.54795 -177.549571 
L 567.772303 -177.758702 
L 566.996657 -177.969773 
L 566.221011 -178.1828 
L 565.445364 -178.397799 
L 564.669718 -178.614786 
L 563.894072 -178.833779 
L 563.118425 -179.054793 
L 562.342779 -179.277847 
L 561.567133 -179.502955 
L 560.791486 -179.730136 
L 560.01584 -179.959407 
L 559.240193 -180.190785 
L 558.464547 -180.424286 
L 557.688901 -180.659929 
L 556.913254 -180.89773 
L 556.137608 -181.137708 
L 555.361962 -181.37988 
L 554.586315 -181.624264 
L 553.810669 -181.870878 
L 553.035022 -182.119739 
L 552.259376 -182.370865 
L 551.48373 -182.624276 
L 550.708083 -182.879989 
L 549.932437 -183.138022 
L 549.156791 -183.398394 
L 548.381144 -183.661124 
L 547.605498 -183.926229 
L 546.829851 -184.193729 
L 546.054205 -184.463643 
L 545.278559 -184.735989 
L 544.502912 -185.010787 
L 543.727266 -185.288055 
L 542.95162 -185.567813 
L 542.175973 -185.85008 
L 541.400327 -186.134875 
L 540.62468 -186.422218 
L 539.849034 -186.712129 
L 539.073388 -187.004626 
L 538.297741 -187.299729 
L 537.522095 -187.597459 
L 536.746449 -187.897835 
L 535.970802 -188.200877 
L 535.195156 -188.506606 
L 534.419509 -188.81504 
L 533.643863 -189.126201 
L 532.868217 -189.440108 
L 532.09257 -189.756782 
L 531.316924 -190.076243 
L 530.541278 -190.398512 
L 529.765631 -190.723609 
L 528.989985 -191.051555 
L 528.214339 -191.38237 
L 527.438692 -191.716075 
L 526.663046 -192.052692 
L 525.887399 -192.39224 
L 525.111753 -192.73474 
L 524.336107 -193.080214 
L 523.56046 -193.428682 
L 522.784814 -193.780166 
L 522.009168 -194.134687 
L 521.233521 -194.492265 
L 520.457875 -194.852923 
L 519.682228 -195.21668 
L 518.906582 -195.583559 
L 518.130936 -195.953581 
L 517.355289 -196.326767 
L 516.579643 -196.703138 
L 515.803997 -197.082717 
L 515.02835 -197.465524 
L 514.252704 -197.85158 
L 513.477057 -198.240908 
L 512.701411 -198.633529 
L 511.925765 -199.029464 
L 511.150118 -199.428735 
L 510.374472 -199.831363 
L 509.598826 -200.23737 
L 508.823179 -200.646778 
L 508.047533 -201.059608 
L 507.271886 -201.475882 
L 506.49624 -201.895621 
L 505.720594 -202.318847 
L 504.944947 -202.745581 
L 504.169301 -203.175845 
L 503.393655 -203.60966 
L 502.618008 -204.047048 
L 501.842362 -204.488031 
L 501.066715 -204.932629 
L 500.291069 -205.380864 
L 499.515423 -205.832758 
L 498.739776 -206.288332 
L 497.96413 -206.747606 
L 497.188484 -207.210603 
L 496.412837 -207.677343 
L 495.637191 -208.147848 
L 494.861545 -208.622138 
L 494.085898 -209.100234 
L 493.310252 -209.582158 
L 492.534605 -210.067931 
L 491.758959 -210.557572 
L 490.983313 -211.051102 
L 490.207666 -211.548543 
L 489.43202 -212.049914 
L 488.656374 -212.555236 
L 487.880727 -213.064528 
L 487.105081 -213.577813 
L 486.329434 -214.095108 
L 485.553788 -214.616434 
L 484.778142 -215.141811 
L 484.002495 -215.671258 
L 483.226849 -216.204795 
L 482.451203 -216.742442 
L 481.675556 -217.284216 
L 480.89991 -217.830138 
L 480.124263 -218.380225 
L 479.348617 -218.934498 
L 478.572971 -219.492973 
L 477.797324 -220.05567 
L 477.021678 -220.622606 
L 476.246032 -221.193799 
L 475.470385 -221.769268 
L 474.694739 -222.349029 
L 473.919092 -222.9331 
L 473.143446 -223.521497 
L 472.3678 -224.114238 
L 471.592153 -224.711338 
L 470.816507 -225.312815 
L 470.040861 -225.918684 
L 469.265214 -226.528961 
L 468.489568 -227.143662 
L 467.713921 -227.762801 
L 466.938275 -228.386393 
L 466.162629 -229.014454 
L 465.386982 -229.646997 
L 464.611336 -230.284036 
L 463.83569 -230.925586 
L 463.060043 -231.571659 
L 462.284397 -232.222268 
L 461.508751 -232.877426 
L 460.733104 -233.537145 
L 459.957458 -234.201438 
L 459.181811 -234.870315 
L 458.406165 -235.543788 
L 457.630519 -236.221867 
L 456.854872 -236.904564 
L 456.079226 -237.591887 
L 455.30358 -238.283847 
L 454.527933 -238.980453 
L 453.752287 -239.681712 
L 452.97664 -240.387635 
L 452.200994 -241.098227 
L 451.425348 -241.813497 
L 450.649701 -242.533451 
L 449.874055 -243.258096 
L 449.098409 -243.987438 
L 448.322762 -244.721481 
L 447.547116 -245.460231 
L 446.771469 -246.203692 
L 445.995823 -246.951868 
L 445.220177 -247.704762 
L 444.44453 -248.462376 
L 443.668884 -249.224713 
L 442.893238 -249.991774 
L 442.117591 -250.76356 
L 441.341945 -251.540072 
L 440.566298 -252.321309 
L 439.790652 -253.10727 
L 439.015006 -253.897954 
L 438.239359 -254.693358 
L 437.463713 -255.49348 
L 436.688067 -256.298317 
L 435.91242 -257.107864 
L 435.136774 -257.922116 
L 434.361128 -258.741068 
L 433.585481 -259.564713 
L 432.809835 -260.393046 
L 432.034188 -261.226057 
L 431.258542 -262.06374 
L 430.482896 -262.906084 
L 429.707249 -263.753079 
L 428.931603 -264.604716 
L 428.155957 -265.460982 
L 427.38031 -266.321866 
L 426.604664 -267.187355 
L 425.829017 -268.057434 
L 425.053371 -268.93209 
L 424.277725 -269.811306 
L 423.502078 -270.695067 
L 422.726432 -271.583355 
L 421.950786 -272.476152 
L 421.175139 -273.37344 
L 420.399493 -274.275199 
L 419.623846 -275.181409 
L 418.8482 -276.092047 
L 418.072554 -277.007092 
L 417.296907 -277.92652 
L 416.521261 -278.850307 
L 415.745615 -279.778427 
L 414.969968 -280.710856 
L 414.194322 -281.647565 
L 413.418675 -282.588527 
L 412.643029 -283.533714 
L 411.867383 -284.483094 
L 411.091736 -285.436637 
L 410.31609 -286.394311 
L 409.540444 -287.356084 
L 408.764797 -288.321921 
L 407.989151 -289.291788 
L 407.213504 -290.265649 
L 406.437858 -291.243466 
L 405.662212 -292.225203 
L 404.886565 -293.210819 
L 404.110919 -294.200275 
L 403.335273 -295.19353 
L 402.559626 -296.190542 
L 401.78398 -297.191268 
L 401.008334 -298.195662 
L 400.232687 -299.203681 
L 399.457041 -300.215277 
L 398.681394 -301.230404 
L 397.905748 -302.249012 
L 397.130102 -303.271052 
L 396.354455 -304.296474 
L 395.578809 -305.325225 
L 394.803163 -306.357253 
L 394.027516 -307.392504 
L 393.25187 -308.430922 
L 392.476223 -309.472453 
L 391.700577 -310.517037 
L 390.924931 -311.564618 
L 390.149284 -312.615135 
L 389.373638 -313.668529 
L 388.597992 -314.724737 
L 387.822345 -315.783696 
L 387.046699 -316.845344 
L 386.271052 -317.909616 
L 385.495406 -318.976444 
L 384.71976 -320.045763 
L 383.944113 -321.117503 
L 383.168467 -322.191597 
L 382.392821 -323.267974 
L 381.617174 -324.346562 
L 380.841528 -325.427289 
L 380.065881 -326.510082 
L 379.290235 -327.594866 
L 378.514589 -328.681566 
L 377.738942 -329.770105 
L 376.963296 -330.860407 
L 376.18765 -331.952391 
L 375.412003 -333.045979 
L 374.636357 -334.141091 
L 373.86071 -335.237644 
L 373.085064 -336.335557 
L 372.309418 -337.434745 
L 371.533771 -338.535126 
L 370.758125 -339.636612 
L 369.982479 -340.739119 
L 369.206832 -341.842559 
L 368.431186 -342.946845 
L 367.65554 -344.051886 
L 366.879893 -345.157595 
L 366.104247 -346.263879 
L 365.3286 -347.370649 
L 364.552954 -348.477811 
L 363.777308 -349.585273 
L 363.001661 -350.692942 
L 362.226015 -351.800722 
L 361.450369 -352.908519 
L 360.674722 -354.016237 
L 359.899076 -355.123779 
L 359.123429 -356.231049 
L 358.347783 -357.337948 
L 357.572137 -358.444378 
L 356.79649 -359.550241 
L 356.020844 -360.655436 
L 355.245198 -361.759863 
L 354.469551 -362.863423 
L 353.693905 -363.966014 
L 352.918258 -365.067534 
L 352.142612 -366.167882 
L 351.366966 -367.266955 
L 350.591319 -368.364651 
L 349.815673 -369.460866 
L 349.040027 -370.555498 
L 348.26438 -371.648443 
L 347.488734 -372.739596 
L 346.713087 -373.828854 
L 345.937441 -374.916113 
L 345.161795 -376.001268 
L 344.386148 -377.084215 
L 343.610502 -378.164848 
L 342.834856 -379.243065 
L 342.059209 -380.318759 
L 341.283563 -381.391826 
L 340.507916 -382.462162 
L 339.73227 -383.529662 
L 338.956624 -384.594222 
L 338.180977 -385.655738 
L 337.405331 -386.714105 
L 336.629685 -387.76922 
L 335.854038 -388.820979 
L 335.078392 -389.86928 
L 334.302746 -390.914019 
L 333.527099 -391.955093 
L 332.751453 -392.992402 
L 331.975806 -394.025843 
L 331.20016 -395.055316 
L 330.424514 -396.080719 
L 329.648867 -397.101953 
L 328.873221 -398.118919 
L 328.097575 -399.131517 
L 327.321928 -400.139651 
L 326.546282 -401.143222 
L 325.770635 -402.142134 
L 324.994989 -403.136292 
L 324.219343 -404.125601 
L 323.443696 -405.109966 
L 322.66805 -406.089296 
L 321.892404 -407.063497 
L 321.116757 -408.032479 
L 320.341111 -408.996151 
L 319.565464 -409.954426 
L 318.789818 -410.907215 
L 318.014172 -411.854431 
L 317.238525 -412.795989 
L 316.462879 -413.731805 
L 315.687233 -414.661796 
L 314.911586 -415.585879 
L 314.13594 -416.503976 
L 313.360293 -417.416006 
L 312.584647 -418.321893 
L 311.809001 -419.221559 
L 311.033354 -420.114931 
L 310.257708 -421.001936 
L 309.482062 -421.882501 
L 308.706415 -422.756556 
L 307.930769 -423.624033 
L 307.155122 -424.484866 
L 306.379476 -425.338988 
L 305.60383 -426.186337 
L 304.828183 -427.02685 
L 304.052537 -427.860468 
L 303.276891 -428.687132 
L 302.501244 -429.506785 
L 301.725598 -430.319373 
L 300.949952 -431.124843 
L 300.174305 -431.923144 
L 299.398659 -432.714226 
L 298.623012 -433.498043 
L 297.847366 -434.274549 
L 297.07172 -435.0437 
L 296.296073 -435.805455 
L 295.520427 -436.559775 
L 294.744781 -437.306621 
L 293.969134 -438.045959 
L 293.193488 -438.777755 
L 292.417841 -439.501978 
L 291.642195 -440.218597 
L 290.866549 -440.927585 
L 290.090902 -441.628917 
L 289.315256 -442.322571 
L 288.53961 -443.008523 
L 287.763963 -443.686756 
L 286.988317 -444.357251 
L 286.21267 -445.019995 
L 285.437024 -445.674973 
L 284.661378 -446.322175 
L 283.885731 -446.961593 
L 283.110085 -447.593219 
L 282.334439 -448.217048 
L 281.558792 -448.833079 
L 280.783146 -449.44131 
L 280.007499 -450.041742 
L 279.231853 -450.63438 
L 278.456207 -451.219229 
L 277.68056 -451.796297 
L 276.904914 -452.365592 
L 276.129268 -452.927126 
L 275.353621 -453.480914 
L 274.577975 -454.02697 
L 273.802329 -454.565311 
L 273.026682 -455.095958 
L 272.251036 -455.618931 
L 271.475389 -456.134254 
L 270.699743 -456.641952 
L 269.924097 -457.14205 
L 269.14845 -457.634579 
L 268.372804 -458.119569 
L 267.597158 -458.597051 
L 266.821511 -459.06706 
L 266.045865 -459.529631 
L 265.270218 -459.984803 
L 264.494572 -460.432613 
L 263.718926 -460.873102 
L 262.943279 -461.306314 
L 262.167633 -461.732291 
L 261.391987 -462.151079 
L 260.61634 -462.562725 
L 259.840694 -462.967277 
L 259.065047 -463.364785 
L 258.289401 -463.7553 
L 257.513755 -464.138874 
L 256.738108 -464.515562 
L 255.962462 -464.885419 
L 255.186816 -465.248501 
L 254.411169 -465.604864 
L 253.635523 -465.954569 
L 252.859876 -466.297675 
L 252.08423 -466.634243 
L 251.308584 -466.964335 
L 250.532937 -467.288014 
L 249.757291 -467.605344 
L 248.981645 -467.91639 
L 248.205998 -468.221217 
L 247.430352 -468.519892 
L 246.654705 -468.812483 
L 245.879059 -469.099058 
L 245.103413 -469.379686 
L 244.327766 -469.654436 
L 243.55212 -469.923378 
L 242.776474 -470.186584 
L 242.000827 -470.444124 
L 241.225181 -470.696071 
L 240.449535 -470.942497 
L 239.673888 -471.183474 
L 238.898242 -471.419077 
L 238.122595 -471.649377 
L 237.346949 -471.87445 
L 236.571303 -472.094368 
L 235.795656 -472.309208 
L 235.02001 -472.519042 
L 234.244364 -472.723945 
L 233.468717 -472.923993 
L 232.693071 -473.11926 
L 231.917424 -473.309821 
L 231.141778 -473.495751 
L 230.366132 -473.677124 
L 229.590485 -473.854015 
L 228.814839 -474.0265 
L 228.039193 -474.194651 
L 227.263546 -474.358545 
L 226.4879 -474.518254 
L 225.712253 -474.673852 
L 224.936607 -474.825413 
L 224.160961 -474.973011 
L 223.385314 -475.116718 
L 222.609668 -475.256607 
L 221.834022 -475.392749 
L 221.058375 -475.525217 
L 220.282729 -475.654082 
L 219.507082 -475.779415 
L 218.731436 -475.901285 
L 217.95579 -476.019763 
L 217.180143 -476.134918 
L 216.404497 -476.246818 
L 215.628851 -476.355531 
L 214.853204 -476.461125 
L 214.077558 -476.563667 
L 213.301911 -476.663222 
L 212.526265 -476.759856 
L 211.750619 -476.853634 
L 210.974972 -476.94462 
L 210.199326 -477.032877 
L 209.42368 -477.118467 
L 208.648033 -477.201452 
L 207.872387 -477.281894 
L 207.096741 -477.359852 
L 206.321094 -477.435386 
L 205.545448 -477.508555 
L 204.769801 -477.579416 
L 203.994155 -477.648026 
L 203.218509 -477.714441 
L 202.442862 -477.778717 
L 201.667216 -477.840908 
L 200.89157 -477.901067 
L 200.115923 -477.959248 
L 199.340277 -478.015501 
L 198.56463 -478.069879 
L 197.788984 -478.122431 
L 197.013338 -478.173206 
L 196.237691 -478.222253 
L 195.462045 -478.269619 
L 194.686399 -478.315351 
L 193.910752 -478.359494 
L 193.135106 -478.402094 
L 192.359459 -478.443193 
L 191.583813 -478.482836 
L 190.808167 -478.521064 
L 190.03252 -478.557919 
L 189.256874 -478.593442 
L 188.481228 -478.627671 
L 187.705581 -478.660646 
L 186.929935 -478.692404 
L 186.154288 -478.722983 
L 185.378642 -478.752419 
L 184.602996 -478.780747 
L 183.827349 -478.808001 
L 183.051703 -478.834217 
L 182.276057 -478.859426 
L 181.50041 -478.88366 
L 180.724764 -478.906952 
L 179.949117 -478.929331 
L 179.173471 -478.950828 
L 178.397825 -478.971471 
L 177.622178 -478.99129 
L 176.846532 -479.01031 
L 176.070886 -479.02856 
L 175.295239 -479.046065 
L 174.519593 -479.062851 
L 173.743947 -479.078942 
L 172.9683 -479.094362 
L 172.192654 -479.109136 
L 171.417007 -479.123284 
L 170.641361 -479.13683 
L 169.865715 -479.149795 
L 169.090068 -479.162199 
L 168.314422 -479.174062 
L 167.538776 -479.185405 
L 166.763129 -479.196245 
L 165.987483 -479.206601 
L 165.211836 -479.21649 
L 164.43619 -479.225931 
L 163.660544 -479.234938 
L 162.884897 -479.243529 
L 162.109251 -479.251718 
L 161.333605 -479.259521 
L 160.557958 -479.266951 
L 159.782312 -479.274023 
L 159.006665 -479.28075 
L 158.231019 -479.287143 
L 157.455373 -479.293217 
L 156.679726 -479.298982 
L 155.90408 -479.304449 
L 155.128434 -479.309629 
L 154.352787 -479.314533 
L 153.577141 -479.319169 
L 152.801494 -479.323547 
L 152.025848 -479.327675 
L 151.250202 -479.331562 
L 150.474555 -479.335214 
L 149.698909 -479.338638 
L 148.923263 -479.34184 
L 148.147616 -479.344827 
L 147.37197 -479.347601 
L 146.596323 -479.350167 
L 145.820677 -479.352529 
L 145.045031 -479.354687 
L 144.269384 -479.356642 
L 143.493738 -479.358394 
L 142.718092 -479.359941 
L 141.942445 -479.361278 
L 141.166799 -479.362401 
L 140.391153 -479.363299 
L 139.615506 -479.363963 
L 138.83986 -479.364376 
L 138.064213 -479.364519 
L 137.288567 -479.364366 
L 136.512921 -479.364136 
L 135.737274 -479.364475 
L 134.961628 -479.364473 
L 134.185982 -479.364088 
L 133.410335 -479.364304 
L 132.634689 -479.364519 
L 131.859042 -479.364282 
L 131.083396 -479.363916 
L 130.30775 -479.364448 
L 129.532103 -479.364444 
L 128.756457 -479.363794 
L 127.980811 -479.364151 
L 127.205164 -479.364519 
L 126.429518 -479.364085 
L 125.653871 -479.362601 
L 124.878225 -479.359682 
L 124.102579 -479.354697 
L 123.326932 -479.346568 
L 122.551286 -479.333327 
L 121.77564 -479.311105 
L 120.999993 -479.271538 
L 120.224347 -479.194192 
L 119.4487 -479.020353 
L 118.673054 -478.538634 
L 117.897408 -476.684687 
L 117.121761 -464.06096 
z
" style="stroke: #ffa500; stroke-opacity: 0.3"/>
    </defs>
    <g clip-path="url(#p19b7f90740)">
     <use xlink:href="#m729db71e77" x="0" y="540.100875" style="fill: #ffa500; fill-opacity: 0.3; stroke: #ffa500; stroke-opacity: 0.3"/>
    </g>
   </g>
   <g id="PolyCollection_2">
    <defs>
     <path id="m7f551df429" d="M 117.121761 -270.253459 
L 117.121761 -208.082647 
L 117.897408 -247.818815 
L 118.673054 -278.685057 
L 119.4487 -303.048591 
L 120.224347 -322.548701 
L 120.999993 -338.346261 
L 121.77564 -351.279771 
L 122.551286 -361.965655 
L 123.326932 -370.86431 
L 124.102579 -378.324548 
L 124.878225 -384.614093 
L 125.653871 -389.940876 
L 126.429518 -394.468151 
L 127.205164 -398.325366 
L 127.980811 -401.616116 
L 128.756457 -404.424002 
L 129.532103 -406.817021 
L 130.30775 -408.850878 
L 131.083396 -410.57152 
L 131.859042 -411.636659 
L 132.634689 -410.094266 
L 133.410335 -408.405053 
L 134.185982 -406.582952 
L 134.961628 -404.640053 
L 135.737274 -402.586977 
L 136.512921 -400.433167 
L 137.288567 -398.187109 
L 138.064213 -395.856503 
L 138.83986 -393.448395 
L 139.615506 -390.96928 
L 140.391153 -388.425188 
L 141.166799 -385.821748 
L 141.942445 -383.164239 
L 142.718092 -380.45763 
L 143.493738 -377.70662 
L 144.269384 -374.915662 
L 145.045031 -372.088982 
L 145.820677 -369.230606 
L 146.596323 -366.34437 
L 147.37197 -363.433933 
L 148.147616 -360.502792 
L 148.923263 -357.554286 
L 149.698909 -354.591611 
L 150.474555 -351.617821 
L 151.250202 -348.635837 
L 152.025848 -345.648453 
L 152.801494 -342.65834 
L 153.577141 -339.668051 
L 154.352787 -336.680022 
L 155.128434 -333.696582 
L 155.90408 -330.719949 
L 156.679726 -327.75224 
L 157.455373 -324.795469 
L 158.231019 -321.85155 
L 159.006665 -318.922305 
L 159.782312 -316.009459 
L 160.557958 -313.114648 
L 161.333605 -310.239418 
L 162.109251 -307.385229 
L 162.884897 -304.553459 
L 163.660544 -301.745401 
L 164.43619 -298.962271 
L 165.211836 -296.205205 
L 165.987483 -293.475266 
L 166.763129 -290.77344 
L 167.538776 -288.100647 
L 168.314422 -285.457733 
L 169.090068 -282.845479 
L 169.865715 -280.264601 
L 170.641361 -277.715753 
L 171.417007 -275.199525 
L 172.192654 -272.716452 
L 172.9683 -270.26701 
L 173.743947 -267.851619 
L 174.519593 -265.47065 
L 175.295239 -263.124419 
L 176.070886 -260.813197 
L 176.846532 -258.537205 
L 177.622178 -256.296621 
L 178.397825 -254.091579 
L 179.173471 -251.922174 
L 179.949117 -249.788458 
L 180.724764 -247.69045 
L 181.50041 -245.62813 
L 182.276057 -243.601445 
L 183.051703 -241.610312 
L 183.827349 -239.654614 
L 184.602996 -237.734208 
L 185.378642 -235.848924 
L 186.154288 -233.998564 
L 186.929935 -232.182909 
L 187.705581 -230.401715 
L 188.481228 -228.654718 
L 189.256874 -226.941634 
L 190.03252 -225.262162 
L 190.808167 -223.615982 
L 191.583813 -222.00276 
L 192.359459 -220.422147 
L 193.135106 -218.873779 
L 193.910752 -217.357282 
L 194.686399 -215.872271 
L 195.462045 -214.418349 
L 196.237691 -212.995112 
L 197.013338 -211.602146 
L 197.788984 -210.239032 
L 198.56463 -208.905343 
L 199.340277 -207.600647 
L 200.115923 -206.324508 
L 200.89157 -205.076486 
L 201.667216 -203.856136 
L 202.442862 -202.663013 
L 203.218509 -201.496669 
L 203.994155 -200.356656 
L 204.769801 -199.242523 
L 205.545448 -198.15382 
L 206.321094 -197.090099 
L 207.096741 -196.05091 
L 207.872387 -195.035808 
L 208.648033 -194.044346 
L 209.42368 -193.076081 
L 210.199326 -192.130573 
L 210.974972 -191.207384 
L 211.750619 -190.30608 
L 212.526265 -189.426229 
L 213.301911 -188.567405 
L 214.077558 -187.729185 
L 214.853204 -186.911149 
L 215.628851 -186.112883 
L 216.404497 -185.333977 
L 217.180143 -184.574028 
L 217.95579 -183.832634 
L 218.731436 -183.1094 
L 219.507082 -182.403939 
L 220.282729 -181.715865 
L 221.058375 -181.0448 
L 221.834022 -180.390371 
L 222.609668 -179.75221 
L 223.385314 -179.129956 
L 224.160961 -178.523254 
L 224.936607 -177.931752 
L 225.712253 -177.355106 
L 226.4879 -176.792979 
L 227.263546 -176.245037 
L 228.039193 -175.710954 
L 228.814839 -175.190409 
L 229.590485 -174.683087 
L 230.366132 -174.188678 
L 231.141778 -173.706879 
L 231.917424 -173.237392 
L 232.693071 -172.779927 
L 233.468717 -172.334195 
L 234.244364 -171.899917 
L 235.02001 -171.476819 
L 235.795656 -171.064629 
L 236.571303 -170.663086 
L 237.346949 -170.271929 
L 238.122595 -169.890907 
L 238.898242 -169.519771 
L 239.673888 -169.158279 
L 240.449535 -168.806194 
L 241.225181 -168.463283 
L 242.000827 -168.12932 
L 242.776474 -167.804082 
L 243.55212 -167.487353 
L 244.327766 -167.178919 
L 245.103413 -166.878573 
L 245.879059 -166.586113 
L 246.654705 -166.301339 
L 247.430352 -166.024059 
L 248.205998 -165.754082 
L 248.981645 -165.491224 
L 249.757291 -165.235304 
L 250.532937 -164.986145 
L 251.308584 -164.743576 
L 252.08423 -164.507427 
L 252.859876 -164.277534 
L 253.635523 -164.053738 
L 254.411169 -163.835881 
L 255.186816 -163.62381 
L 255.962462 -163.417377 
L 256.738108 -163.216436 
L 257.513755 -163.020844 
L 258.289401 -162.830464 
L 259.065047 -162.645159 
L 259.840694 -162.464799 
L 260.61634 -162.289254 
L 261.391987 -162.118399 
L 262.167633 -161.952112 
L 262.943279 -161.790272 
L 263.718926 -161.632765 
L 264.494572 -161.479476 
L 265.270218 -161.330295 
L 266.045865 -161.185114 
L 266.821511 -161.043828 
L 267.597158 -160.906334 
L 268.372804 -160.772532 
L 269.14845 -160.642325 
L 269.924097 -160.515619 
L 270.699743 -160.39232 
L 271.475389 -160.272338 
L 272.251036 -160.155587 
L 273.026682 -160.041979 
L 273.802329 -159.931432 
L 274.577975 -159.823865 
L 275.353621 -159.719198 
L 276.129268 -159.617354 
L 276.904914 -159.518258 
L 277.68056 -159.421837 
L 278.456207 -159.32802 
L 279.231853 -159.236737 
L 280.007499 -159.147921 
L 280.783146 -159.061505 
L 281.558792 -158.977426 
L 282.334439 -158.895621 
L 283.110085 -158.816029 
L 283.885731 -158.738592 
L 284.661378 -158.66325 
L 285.437024 -158.589949 
L 286.21267 -158.518633 
L 286.988317 -158.449249 
L 287.763963 -158.381746 
L 288.53961 -158.316072 
L 289.315256 -158.252179 
L 290.090902 -158.190019 
L 290.866549 -158.129545 
L 291.642195 -158.070711 
L 292.417841 -158.013474 
L 293.193488 -157.957791 
L 293.969134 -157.903619 
L 294.744781 -157.850919 
L 295.520427 -157.799649 
L 296.296073 -157.749773 
L 297.07172 -157.701251 
L 297.847366 -157.654048 
L 298.623012 -157.608128 
L 299.398659 -157.563456 
L 300.174305 -157.519999 
L 300.949952 -157.477723 
L 301.725598 -157.436597 
L 302.501244 -157.39659 
L 303.276891 -157.357671 
L 304.052537 -157.319811 
L 304.828183 -157.282981 
L 305.60383 -157.247153 
L 306.379476 -157.212301 
L 307.155122 -157.178397 
L 307.930769 -157.145417 
L 308.706415 -157.113334 
L 309.482062 -157.082125 
L 310.257708 -157.051767 
L 311.033354 -157.022235 
L 311.809001 -156.993507 
L 312.584647 -156.965562 
L 313.360293 -156.938379 
L 314.13594 -156.911936 
L 314.911586 -156.886214 
L 315.687233 -156.861193 
L 316.462879 -156.836854 
L 317.238525 -156.813179 
L 318.014172 -156.790149 
L 318.789818 -156.767746 
L 319.565464 -156.745955 
L 320.341111 -156.724758 
L 321.116757 -156.704139 
L 321.892404 -156.684082 
L 322.66805 -156.664572 
L 323.443696 -156.645594 
L 324.219343 -156.627135 
L 324.994989 -156.609178 
L 325.770635 -156.591712 
L 326.546282 -156.574722 
L 327.321928 -156.558196 
L 328.097575 -156.54212 
L 328.873221 -156.526483 
L 329.648867 -156.511273 
L 330.424514 -156.496479 
L 331.20016 -156.482088 
L 331.975806 -156.468089 
L 332.751453 -156.454473 
L 333.527099 -156.441229 
L 334.302746 -156.428346 
L 335.078392 -156.415814 
L 335.854038 -156.403625 
L 336.629685 -156.391769 
L 337.405331 -156.380236 
L 338.180977 -156.369019 
L 338.956624 -156.358107 
L 339.73227 -156.347494 
L 340.507916 -156.33717 
L 341.283563 -156.327128 
L 342.059209 -156.317361 
L 342.834856 -156.30786 
L 343.610502 -156.298619 
L 344.386148 -156.28963 
L 345.161795 -156.280887 
L 345.937441 -156.272382 
L 346.713087 -156.26411 
L 347.488734 -156.256064 
L 348.26438 -156.248237 
L 349.040027 -156.240625 
L 349.815673 -156.23322 
L 350.591319 -156.226018 
L 351.366966 -156.219012 
L 352.142612 -156.212198 
L 352.918258 -156.20557 
L 353.693905 -156.199123 
L 354.469551 -156.192852 
L 355.245198 -156.186753 
L 356.020844 -156.18082 
L 356.79649 -156.175049 
L 357.572137 -156.169436 
L 358.347783 -156.163977 
L 359.123429 -156.158666 
L 359.899076 -156.153501 
L 360.674722 -156.148477 
L 361.450369 -156.14359 
L 362.226015 -156.138836 
L 363.001661 -156.134213 
L 363.777308 -156.129716 
L 364.552954 -156.125342 
L 365.3286 -156.121087 
L 366.104247 -156.116949 
L 366.879893 -156.112923 
L 367.65554 -156.109008 
L 368.431186 -156.1052 
L 369.206832 -156.101496 
L 369.982479 -156.097893 
L 370.758125 -156.094388 
L 371.533771 -156.09098 
L 372.309418 -156.087664 
L 373.085064 -156.084439 
L 373.86071 -156.081303 
L 374.636357 -156.078252 
L 375.412003 -156.075284 
L 376.18765 -156.072398 
L 376.963296 -156.06959 
L 377.738942 -156.066859 
L 378.514589 -156.064203 
L 379.290235 -156.06162 
L 380.065881 -156.059107 
L 380.841528 -156.056663 
L 381.617174 -156.054285 
L 382.392821 -156.051973 
L 383.168467 -156.049723 
L 383.944113 -156.047536 
L 384.71976 -156.045408 
L 385.495406 -156.043338 
L 386.271052 -156.041325 
L 387.046699 -156.039367 
L 387.822345 -156.037462 
L 388.597992 -156.03561 
L 389.373638 -156.033808 
L 390.149284 -156.032055 
L 390.924931 -156.03035 
L 391.700577 -156.028692 
L 392.476223 -156.02708 
L 393.25187 -156.025511 
L 394.027516 -156.023985 
L 394.803163 -156.022501 
L 395.578809 -156.021058 
L 396.354455 -156.019654 
L 397.130102 -156.018288 
L 397.905748 -156.01696 
L 398.681394 -156.015668 
L 399.457041 -156.014411 
L 400.232687 -156.013189 
L 401.008334 -156.012 
L 401.78398 -156.010843 
L 402.559626 -156.009719 
L 403.335273 -156.008625 
L 404.110919 -156.00756 
L 404.886565 -156.006525 
L 405.662212 -156.005519 
L 406.437858 -156.004539 
L 407.213504 -156.003587 
L 407.989151 -156.002661 
L 408.764797 -156.00176 
L 409.540444 -156.000883 
L 410.31609 -156.000031 
L 411.091736 -155.999202 
L 411.867383 -155.998395 
L 412.643029 -155.997611 
L 413.418675 -155.996848 
L 414.194322 -155.996106 
L 414.969968 -155.995384 
L 415.745615 -155.994682 
L 416.521261 -155.993999 
L 417.296907 -155.993335 
L 418.072554 -155.992689 
L 418.8482 -155.99206 
L 419.623846 -155.991449 
L 420.399493 -155.990855 
L 421.175139 -155.990276 
L 421.950786 -155.989714 
L 422.726432 -155.989167 
L 423.502078 -155.988635 
L 424.277725 -155.988117 
L 425.053371 -155.987614 
L 425.829017 -155.987124 
L 426.604664 -155.986648 
L 427.38031 -155.986185 
L 428.155957 -155.985734 
L 428.931603 -155.985296 
L 429.707249 -155.98487 
L 430.482896 -155.984455 
L 431.258542 -155.984052 
L 432.034188 -155.98366 
L 432.809835 -155.983278 
L 433.585481 -155.982907 
L 434.361128 -155.982546 
L 435.136774 -155.982195 
L 435.91242 -155.981854 
L 436.688067 -155.981521 
L 437.463713 -155.981198 
L 438.239359 -155.980884 
L 439.015006 -155.980579 
L 439.790652 -155.980281 
L 440.566298 -155.979992 
L 441.341945 -155.979711 
L 442.117591 -155.979437 
L 442.893238 -155.979171 
L 443.668884 -155.978913 
L 444.44453 -155.978661 
L 445.220177 -155.978416 
L 445.995823 -155.978178 
L 446.771469 -155.977946 
L 447.547116 -155.977721 
L 448.322762 -155.977502 
L 449.098409 -155.977289 
L 449.874055 -155.977082 
L 450.649701 -155.97688 
L 451.425348 -155.976684 
L 452.200994 -155.976493 
L 452.97664 -155.976307 
L 453.752287 -155.976127 
L 454.527933 -155.975951 
L 455.30358 -155.975781 
L 456.079226 -155.975615 
L 456.854872 -155.975453 
L 457.630519 -155.975296 
L 458.406165 -155.975143 
L 459.181811 -155.974995 
L 459.957458 -155.97485 
L 460.733104 -155.974709 
L 461.508751 -155.974573 
L 462.284397 -155.97444 
L 463.060043 -155.97431 
L 463.83569 -155.974184 
L 464.611336 -155.974062 
L 465.386982 -155.973943 
L 466.162629 -155.973827 
L 466.938275 -155.973714 
L 467.713921 -155.973605 
L 468.489568 -155.973498 
L 469.265214 -155.973395 
L 470.040861 -155.973294 
L 470.816507 -155.973196 
L 471.592153 -155.9731 
L 472.3678 -155.973008 
L 473.143446 -155.972917 
L 473.919092 -155.97283 
L 474.694739 -155.972744 
L 475.470385 -155.972661 
L 476.246032 -155.97258 
L 477.021678 -155.972502 
L 477.797324 -155.972425 
L 478.572971 -155.972351 
L 479.348617 -155.972279 
L 480.124263 -155.972209 
L 480.89991 -155.97214 
L 481.675556 -155.972074 
L 482.451203 -155.972009 
L 483.226849 -155.971946 
L 484.002495 -155.971885 
L 484.778142 -155.971825 
L 485.553788 -155.971767 
L 486.329434 -155.971711 
L 487.105081 -155.971656 
L 487.880727 -155.971603 
L 488.656374 -155.971551 
L 489.43202 -155.971501 
L 490.207666 -155.971452 
L 490.983313 -155.971404 
L 491.758959 -155.971358 
L 492.534605 -155.971313 
L 493.310252 -155.971269 
L 494.085898 -155.971226 
L 494.861545 -155.971184 
L 495.637191 -155.971144 
L 496.412837 -155.971105 
L 497.188484 -155.971067 
L 497.96413 -155.971029 
L 498.739776 -155.970993 
L 499.515423 -155.970958 
L 500.291069 -155.970924 
L 501.066715 -155.970891 
L 501.842362 -155.970858 
L 502.618008 -155.970827 
L 503.393655 -155.970796 
L 504.169301 -155.970767 
L 504.944947 -155.970738 
L 505.720594 -155.970709 
L 506.49624 -155.970682 
L 507.271886 -155.970655 
L 508.047533 -155.970629 
L 508.823179 -155.970604 
L 509.598826 -155.97058 
L 510.374472 -155.970556 
L 511.150118 -155.970533 
L 511.925765 -155.97051 
L 512.701411 -155.970488 
L 513.477057 -155.970467 
L 514.252704 -155.970446 
L 515.02835 -155.970426 
L 515.803997 -155.970406 
L 516.579643 -155.970387 
L 517.355289 -155.970369 
L 518.130936 -155.970351 
L 518.906582 -155.970333 
L 519.682228 -155.970316 
L 520.457875 -155.970299 
L 521.233521 -155.970283 
L 522.009168 -155.970267 
L 522.784814 -155.970252 
L 523.56046 -155.970237 
L 524.336107 -155.970223 
L 525.111753 -155.970209 
L 525.887399 -155.970195 
L 526.663046 -155.970182 
L 527.438692 -155.970169 
L 528.214339 -155.970156 
L 528.989985 -155.970144 
L 529.765631 -155.970132 
L 530.541278 -155.97012 
L 531.316924 -155.970109 
L 532.09257 -155.970098 
L 532.868217 -155.970087 
L 533.643863 -155.970077 
L 534.419509 -155.970067 
L 535.195156 -155.970057 
L 535.970802 -155.970047 
L 536.746449 -155.970038 
L 537.522095 -155.970029 
L 538.297741 -155.97002 
L 539.073388 -155.970012 
L 539.849034 -155.970003 
L 540.62468 -155.969995 
L 541.400327 -155.969988 
L 542.175973 -155.96998 
L 542.95162 -155.969972 
L 543.727266 -155.969965 
L 544.502912 -155.969958 
L 545.278559 -155.969951 
L 546.054205 -155.969945 
L 546.829851 -155.969938 
L 547.605498 -155.969932 
L 548.381144 -155.969926 
L 549.156791 -155.96992 
L 549.932437 -155.969914 
L 550.708083 -155.969908 
L 551.48373 -155.969903 
L 552.259376 -155.969898 
L 553.035022 -155.969892 
L 553.810669 -155.969887 
L 554.586315 -155.969882 
L 555.361962 -155.969878 
L 556.137608 -155.969873 
L 556.913254 -155.969868 
L 557.688901 -155.969864 
L 558.464547 -155.96986 
L 559.240193 -155.969856 
L 560.01584 -155.969852 
L 560.791486 -155.969848 
L 561.567133 -155.969844 
L 562.342779 -155.96984 
L 563.118425 -155.969836 
L 563.894072 -155.969833 
L 564.669718 -155.96983 
L 565.445364 -155.969826 
L 566.221011 -155.969823 
L 566.996657 -155.96982 
L 567.772303 -155.969817 
L 568.54795 -155.969814 
L 569.323596 -155.969811 
L 570.099243 -155.969808 
L 570.874889 -155.969805 
L 571.650535 -155.969803 
L 572.426182 -155.9698 
L 573.201828 -155.969798 
L 573.977474 -155.969795 
L 574.753121 -155.969793 
L 575.528767 -155.96979 
L 576.304414 -155.969788 
L 577.08006 -155.969786 
L 577.855706 -155.969784 
L 578.631353 -155.969782 
L 579.406999 -155.96978 
L 580.182645 -155.969778 
L 580.958292 -155.969776 
L 581.733938 -155.969774 
L 582.509585 -155.969772 
L 583.285231 -155.96977 
L 584.060877 -155.969769 
L 584.836524 -155.969767 
L 585.61217 -155.969765 
L 586.387816 -155.969764 
L 587.163463 -155.969762 
L 587.939109 -155.969761 
L 588.714756 -155.969759 
L 589.490402 -155.969758 
L 590.266048 -155.969757 
L 591.041695 -155.969755 
L 591.817341 -155.969754 
L 592.592987 -155.969753 
L 593.368634 -155.969751 
L 594.14428 -155.96975 
L 594.919927 -155.969749 
L 595.695573 -155.969748 
L 596.471219 -155.969747 
L 597.246866 -155.969746 
L 598.022512 -155.969745 
L 598.798158 -155.969744 
L 599.573805 -155.969743 
L 600.349451 -155.969742 
L 601.125097 -155.969741 
L 601.900744 -155.96974 
L 602.67639 -155.969739 
L 603.452037 -155.969738 
L 604.227683 -155.969737 
L 605.003329 -155.969737 
L 605.778976 -155.969736 
L 606.554622 -155.969735 
L 607.330268 -155.969734 
L 608.105915 -155.969734 
L 608.881561 -155.969733 
L 609.657208 -155.969732 
L 610.432854 -155.969731 
L 611.2085 -155.969731 
L 611.984147 -155.96973 
L 612.759793 -155.96973 
L 613.535439 -155.969729 
L 614.311086 -155.969728 
L 615.086732 -155.969728 
L 615.862379 -155.969727 
L 616.638025 -155.969727 
L 617.413671 -155.969726 
L 618.189318 -155.969726 
L 618.964964 -155.969725 
L 619.74061 -155.969725 
L 620.516257 -155.969724 
L 621.291903 -155.969724 
L 622.06755 -155.969723 
L 622.843196 -155.969723 
L 623.618842 -155.969723 
L 624.394489 -155.969722 
L 624.394489 -157.236095 
L 624.394489 -157.236095 
L 623.618842 -157.248851 
L 622.843196 -157.261735 
L 622.06755 -157.274749 
L 621.291903 -157.287893 
L 620.516257 -157.301169 
L 619.74061 -157.314579 
L 618.964964 -157.328123 
L 618.189318 -157.341803 
L 617.413671 -157.355621 
L 616.638025 -157.369578 
L 615.862379 -157.383675 
L 615.086732 -157.397913 
L 614.311086 -157.412295 
L 613.535439 -157.42682 
L 612.759793 -157.441492 
L 611.984147 -157.456311 
L 611.2085 -157.471279 
L 610.432854 -157.486397 
L 609.657208 -157.501667 
L 608.881561 -157.51709 
L 608.105915 -157.532668 
L 607.330268 -157.548403 
L 606.554622 -157.564295 
L 605.778976 -157.580347 
L 605.003329 -157.59656 
L 604.227683 -157.612935 
L 603.452037 -157.629475 
L 602.67639 -157.646181 
L 601.900744 -157.663055 
L 601.125097 -157.680098 
L 600.349451 -157.697312 
L 599.573805 -157.714698 
L 598.798158 -157.732259 
L 598.022512 -157.749996 
L 597.246866 -157.767911 
L 596.471219 -157.786006 
L 595.695573 -157.804282 
L 594.919927 -157.822741 
L 594.14428 -157.841386 
L 593.368634 -157.860217 
L 592.592987 -157.879238 
L 591.817341 -157.898449 
L 591.041695 -157.917852 
L 590.266048 -157.93745 
L 589.490402 -157.957245 
L 588.714756 -157.977237 
L 587.939109 -157.997431 
L 587.163463 -158.017826 
L 586.387816 -158.038426 
L 585.61217 -158.059232 
L 584.836524 -158.080247 
L 584.060877 -158.101472 
L 583.285231 -158.12291 
L 582.509585 -158.144563 
L 581.733938 -158.166432 
L 580.958292 -158.188521 
L 580.182645 -158.21083 
L 579.406999 -158.233364 
L 578.631353 -158.256122 
L 577.855706 -158.279109 
L 577.08006 -158.302325 
L 576.304414 -158.325774 
L 575.528767 -158.349458 
L 574.753121 -158.373379 
L 573.977474 -158.397539 
L 573.201828 -158.42194 
L 572.426182 -158.446586 
L 571.650535 -158.471479 
L 570.874889 -158.49662 
L 570.099243 -158.522013 
L 569.323596 -158.54766 
L 568.54795 -158.573564 
L 567.772303 -158.599726 
L 566.996657 -158.62615 
L 566.221011 -158.652838 
L 565.445364 -158.679793 
L 564.669718 -158.707017 
L 563.894072 -158.734514 
L 563.118425 -158.762285 
L 562.342779 -158.790334 
L 561.567133 -158.818663 
L 560.791486 -158.847275 
L 560.01584 -158.876172 
L 559.240193 -158.905359 
L 558.464547 -158.934837 
L 557.688901 -158.964609 
L 556.913254 -158.994679 
L 556.137608 -159.025048 
L 555.361962 -159.055721 
L 554.586315 -159.0867 
L 553.810669 -159.117988 
L 553.035022 -159.149589 
L 552.259376 -159.181505 
L 551.48373 -159.213739 
L 550.708083 -159.246294 
L 549.932437 -159.279175 
L 549.156791 -159.312383 
L 548.381144 -159.345923 
L 547.605498 -159.379796 
L 546.829851 -159.414008 
L 546.054205 -159.448561 
L 545.278559 -159.483457 
L 544.502912 -159.518702 
L 543.727266 -159.554298 
L 542.95162 -159.590249 
L 542.175973 -159.626557 
L 541.400327 -159.663227 
L 540.62468 -159.700263 
L 539.849034 -159.737667 
L 539.073388 -159.775444 
L 538.297741 -159.813596 
L 537.522095 -159.852129 
L 536.746449 -159.891044 
L 535.970802 -159.930347 
L 535.195156 -159.970041 
L 534.419509 -160.01013 
L 533.643863 -160.050618 
L 532.868217 -160.091508 
L 532.09257 -160.132805 
L 531.316924 -160.174512 
L 530.541278 -160.216634 
L 529.765631 -160.259174 
L 528.989985 -160.302137 
L 528.214339 -160.345527 
L 527.438692 -160.389348 
L 526.663046 -160.433604 
L 525.887399 -160.478299 
L 525.111753 -160.523439 
L 524.336107 -160.569026 
L 523.56046 -160.615066 
L 522.784814 -160.661562 
L 522.009168 -160.70852 
L 521.233521 -160.755944 
L 520.457875 -160.803838 
L 519.682228 -160.852207 
L 518.906582 -160.901055 
L 518.130936 -160.950388 
L 517.355289 -161.00021 
L 516.579643 -161.050525 
L 515.803997 -161.101338 
L 515.02835 -161.152655 
L 514.252704 -161.204481 
L 513.477057 -161.256819 
L 512.701411 -161.309675 
L 511.925765 -161.363054 
L 511.150118 -161.416962 
L 510.374472 -161.471403 
L 509.598826 -161.526382 
L 508.823179 -161.581905 
L 508.047533 -161.637977 
L 507.271886 -161.694603 
L 506.49624 -161.751789 
L 505.720594 -161.80954 
L 504.944947 -161.867861 
L 504.169301 -161.926758 
L 503.393655 -161.986237 
L 502.618008 -162.046303 
L 501.842362 -162.106961 
L 501.066715 -162.168218 
L 500.291069 -162.23008 
L 499.515423 -162.292551 
L 498.739776 -162.355639 
L 497.96413 -162.419348 
L 497.188484 -162.483685 
L 496.412837 -162.548656 
L 495.637191 -162.614267 
L 494.861545 -162.680524 
L 494.085898 -162.747434 
L 493.310252 -162.815002 
L 492.534605 -162.883235 
L 491.758959 -162.952139 
L 490.983313 -163.021721 
L 490.207666 -163.091987 
L 489.43202 -163.162943 
L 488.656374 -163.234597 
L 487.880727 -163.306955 
L 487.105081 -163.380023 
L 486.329434 -163.453809 
L 485.553788 -163.52832 
L 484.778142 -163.603561 
L 484.002495 -163.679541 
L 483.226849 -163.756265 
L 482.451203 -163.833742 
L 481.675556 -163.911979 
L 480.89991 -163.990982 
L 480.124263 -164.070758 
L 479.348617 -164.151316 
L 478.572971 -164.232663 
L 477.797324 -164.314806 
L 477.021678 -164.397752 
L 476.246032 -164.48151 
L 475.470385 -164.566087 
L 474.694739 -164.65149 
L 473.919092 -164.737727 
L 473.143446 -164.824807 
L 472.3678 -164.912738 
L 471.592153 -165.001526 
L 470.816507 -165.091181 
L 470.040861 -165.18171 
L 469.265214 -165.273122 
L 468.489568 -165.365425 
L 467.713921 -165.458628 
L 466.938275 -165.552738 
L 466.162629 -165.647764 
L 465.386982 -165.743716 
L 464.611336 -165.8406 
L 463.83569 -165.938428 
L 463.060043 -166.037206 
L 462.284397 -166.136944 
L 461.508751 -166.237651 
L 460.733104 -166.339336 
L 459.957458 -166.442008 
L 459.181811 -166.545676 
L 458.406165 -166.650349 
L 457.630519 -166.756038 
L 456.854872 -166.86275 
L 456.079226 -166.970496 
L 455.30358 -167.079286 
L 454.527933 -167.189128 
L 453.752287 -167.300033 
L 452.97664 -167.41201 
L 452.200994 -167.52507 
L 451.425348 -167.639222 
L 450.649701 -167.754477 
L 449.874055 -167.870843 
L 449.098409 -167.988333 
L 448.322762 -168.106956 
L 447.547116 -168.226722 
L 446.771469 -168.347642 
L 445.995823 -168.469726 
L 445.220177 -168.592986 
L 444.44453 -168.717431 
L 443.668884 -168.843073 
L 442.893238 -168.969923 
L 442.117591 -169.097991 
L 441.341945 -169.227289 
L 440.566298 -169.357827 
L 439.790652 -169.489618 
L 439.015006 -169.622671 
L 438.239359 -169.757 
L 437.463713 -169.892615 
L 436.688067 -170.029528 
L 435.91242 -170.167751 
L 435.136774 -170.307295 
L 434.361128 -170.448172 
L 433.585481 -170.590395 
L 432.809835 -170.733975 
L 432.034188 -170.878924 
L 431.258542 -171.025256 
L 430.482896 -171.172981 
L 429.707249 -171.322113 
L 428.931603 -171.472664 
L 428.155957 -171.624647 
L 427.38031 -171.778074 
L 426.604664 -171.932959 
L 425.829017 -172.089314 
L 425.053371 -172.247152 
L 424.277725 -172.406486 
L 423.502078 -172.56733 
L 422.726432 -172.729697 
L 421.950786 -172.8936 
L 421.175139 -173.059053 
L 420.399493 -173.226069 
L 419.623846 -173.394662 
L 418.8482 -173.564846 
L 418.072554 -173.736634 
L 417.296907 -173.910042 
L 416.521261 -174.085082 
L 415.745615 -174.261769 
L 414.969968 -174.440117 
L 414.194322 -174.620141 
L 413.418675 -174.801855 
L 412.643029 -174.985273 
L 411.867383 -175.170411 
L 411.091736 -175.357284 
L 410.31609 -175.545905 
L 409.540444 -175.73629 
L 408.764797 -175.928455 
L 407.989151 -176.122413 
L 407.213504 -176.318182 
L 406.437858 -176.515775 
L 405.662212 -176.715209 
L 404.886565 -176.916499 
L 404.110919 -177.119661 
L 403.335273 -177.32471 
L 402.559626 -177.531663 
L 401.78398 -177.740535 
L 401.008334 -177.951342 
L 400.232687 -178.164102 
L 399.457041 -178.378829 
L 398.681394 -178.595541 
L 397.905748 -178.814254 
L 397.130102 -179.034984 
L 396.354455 -179.257749 
L 395.578809 -179.482565 
L 394.803163 -179.709448 
L 394.027516 -179.938417 
L 393.25187 -180.169487 
L 392.476223 -180.402677 
L 391.700577 -180.638003 
L 390.924931 -180.875484 
L 390.149284 -181.115135 
L 389.373638 -181.356976 
L 388.597992 -181.601023 
L 387.822345 -181.847295 
L 387.046699 -182.095809 
L 386.271052 -182.346583 
L 385.495406 -182.599636 
L 384.71976 -182.854985 
L 383.944113 -183.112649 
L 383.168467 -183.372646 
L 382.392821 -183.634995 
L 381.617174 -183.899714 
L 380.841528 -184.166822 
L 380.065881 -184.436337 
L 379.290235 -184.708279 
L 378.514589 -184.982665 
L 377.738942 -185.259516 
L 376.963296 -185.53885 
L 376.18765 -185.820687 
L 375.412003 -186.105045 
L 374.636357 -186.391944 
L 373.86071 -186.681403 
L 373.085064 -186.973443 
L 372.309418 -187.268082 
L 371.533771 -187.56534 
L 370.758125 -187.865236 
L 369.982479 -188.167792 
L 369.206832 -188.473026 
L 368.431186 -188.780959 
L 367.65554 -189.09161 
L 366.879893 -189.405 
L 366.104247 -189.721149 
L 365.3286 -190.040077 
L 364.552954 -190.361804 
L 363.777308 -190.686352 
L 363.001661 -191.013739 
L 362.226015 -191.343988 
L 361.450369 -191.677118 
L 360.674722 -192.01315 
L 359.899076 -192.352105 
L 359.123429 -192.694003 
L 358.347783 -193.038865 
L 357.572137 -193.386713 
L 356.79649 -193.737567 
L 356.020844 -194.091448 
L 355.245198 -194.448377 
L 354.469551 -194.808375 
L 353.693905 -195.171463 
L 352.918258 -195.537663 
L 352.142612 -195.906995 
L 351.366966 -196.27948 
L 350.591319 -196.655141 
L 349.815673 -197.033998 
L 349.040027 -197.416073 
L 348.26438 -197.801386 
L 347.488734 -198.189959 
L 346.713087 -198.581814 
L 345.937441 -198.976972 
L 345.161795 -199.375454 
L 344.386148 -199.777282 
L 343.610502 -200.182476 
L 342.834856 -200.59106 
L 342.059209 -201.003053 
L 341.283563 -201.418477 
L 340.507916 -201.837354 
L 339.73227 -202.259705 
L 338.956624 -202.685551 
L 338.180977 -203.114914 
L 337.405331 -203.547816 
L 336.629685 -203.984276 
L 335.854038 -204.424318 
L 335.078392 -204.867961 
L 334.302746 -205.315227 
L 333.527099 -205.766138 
L 332.751453 -206.220714 
L 331.975806 -206.678977 
L 331.20016 -207.140947 
L 330.424514 -207.606646 
L 329.648867 -208.076094 
L 328.873221 -208.549313 
L 328.097575 -209.026323 
L 327.321928 -209.507144 
L 326.546282 -209.991798 
L 325.770635 -210.480304 
L 324.994989 -210.972684 
L 324.219343 -211.468958 
L 323.443696 -211.969146 
L 322.66805 -212.473268 
L 321.892404 -212.981343 
L 321.116757 -213.493393 
L 320.341111 -214.009437 
L 319.565464 -214.529495 
L 318.789818 -215.053585 
L 318.014172 -215.581728 
L 317.238525 -216.113942 
L 316.462879 -216.650247 
L 315.687233 -217.190662 
L 314.911586 -217.735206 
L 314.13594 -218.283897 
L 313.360293 -218.836753 
L 312.584647 -219.393793 
L 311.809001 -219.955035 
L 311.033354 -220.520497 
L 310.257708 -221.090196 
L 309.482062 -221.66415 
L 308.706415 -222.242376 
L 307.930769 -222.824892 
L 307.155122 -223.411713 
L 306.379476 -224.002857 
L 305.60383 -224.59834 
L 304.828183 -225.198178 
L 304.052537 -225.802387 
L 303.276891 -226.410982 
L 302.501244 -227.023978 
L 301.725598 -227.641392 
L 300.949952 -228.263236 
L 300.174305 -228.889526 
L 299.398659 -229.520276 
L 298.623012 -230.1555 
L 297.847366 -230.79521 
L 297.07172 -231.439421 
L 296.296073 -232.088145 
L 295.520427 -232.741394 
L 294.744781 -233.399181 
L 293.969134 -234.061517 
L 293.193488 -234.728414 
L 292.417841 -235.399883 
L 291.642195 -236.075933 
L 290.866549 -236.756577 
L 290.090902 -237.441822 
L 289.315256 -238.131679 
L 288.53961 -238.826157 
L 287.763963 -239.525264 
L 286.988317 -240.229007 
L 286.21267 -240.937396 
L 285.437024 -241.650437 
L 284.661378 -242.368136 
L 283.885731 -243.0905 
L 283.110085 -243.817535 
L 282.334439 -244.549246 
L 281.558792 -245.285637 
L 280.783146 -246.026712 
L 280.007499 -246.772476 
L 279.231853 -247.522931 
L 278.456207 -248.278081 
L 277.68056 -249.037926 
L 276.904914 -249.802468 
L 276.129268 -250.571709 
L 275.353621 -251.345649 
L 274.577975 -252.124286 
L 273.802329 -252.907621 
L 273.026682 -253.695651 
L 272.251036 -254.488375 
L 271.475389 -255.285789 
L 270.699743 -256.087891 
L 269.924097 -256.894675 
L 269.14845 -257.706138 
L 268.372804 -258.522273 
L 267.597158 -259.343074 
L 266.821511 -260.168535 
L 266.045865 -260.998648 
L 265.270218 -261.833404 
L 264.494572 -262.672794 
L 263.718926 -263.516809 
L 262.943279 -264.365439 
L 262.167633 -265.21867 
L 261.391987 -266.076493 
L 260.61634 -266.938893 
L 259.840694 -267.805856 
L 259.065047 -268.67737 
L 258.289401 -269.553417 
L 257.513755 -270.433982 
L 256.738108 -271.319049 
L 255.962462 -272.208598 
L 255.186816 -273.102612 
L 254.411169 -274.001071 
L 253.635523 -274.903954 
L 252.859876 -275.811241 
L 252.08423 -276.722909 
L 251.308584 -277.638935 
L 250.532937 -278.559294 
L 249.757291 -279.483963 
L 248.981645 -280.412915 
L 248.205998 -281.346123 
L 247.430352 -282.28356 
L 246.654705 -283.225197 
L 245.879059 -284.171004 
L 245.103413 -285.120951 
L 244.327766 -286.075006 
L 243.55212 -287.033136 
L 242.776474 -287.995308 
L 242.000827 -288.961488 
L 241.225181 -289.931639 
L 240.449535 -290.905726 
L 239.673888 -291.88371 
L 238.898242 -292.865552 
L 238.122595 -293.851214 
L 237.346949 -294.840654 
L 236.571303 -295.83383 
L 235.795656 -296.8307 
L 235.02001 -297.831219 
L 234.244364 -298.835343 
L 233.468717 -299.843025 
L 232.693071 -300.854218 
L 231.917424 -301.868874 
L 231.141778 -302.886944 
L 230.366132 -303.908376 
L 229.590485 -304.93312 
L 228.814839 -305.961123 
L 228.039193 -306.99233 
L 227.263546 -308.026687 
L 226.4879 -309.064138 
L 225.712253 -310.104626 
L 224.936607 -311.148091 
L 224.160961 -312.194475 
L 223.385314 -313.243716 
L 222.609668 -314.295754 
L 221.834022 -315.350524 
L 221.058375 -316.407964 
L 220.282729 -317.468006 
L 219.507082 -318.530586 
L 218.731436 -319.595634 
L 217.95579 -320.663083 
L 217.180143 -321.732862 
L 216.404497 -322.8049 
L 215.628851 -323.879124 
L 214.853204 -324.955461 
L 214.077558 -326.033834 
L 213.301911 -327.11417 
L 212.526265 -328.196389 
L 211.750619 -329.280413 
L 210.974972 -330.366162 
L 210.199326 -331.453555 
L 209.42368 -332.542509 
L 208.648033 -333.63294 
L 207.872387 -334.724764 
L 207.096741 -335.817893 
L 206.321094 -336.91224 
L 205.545448 -338.007715 
L 204.769801 -339.104228 
L 203.994155 -340.201687 
L 203.218509 -341.299998 
L 202.442862 -342.399065 
L 201.667216 -343.498794 
L 200.89157 -344.599084 
L 200.115923 -345.699838 
L 199.340277 -346.800953 
L 198.56463 -347.902326 
L 197.788984 -349.003853 
L 197.013338 -350.105428 
L 196.237691 -351.206942 
L 195.462045 -352.308284 
L 194.686399 -353.409344 
L 193.910752 -354.510007 
L 193.135106 -355.610156 
L 192.359459 -356.709674 
L 191.583813 -357.808439 
L 190.808167 -358.906328 
L 190.03252 -360.003216 
L 189.256874 -361.098975 
L 188.481228 -362.193474 
L 187.705581 -363.286578 
L 186.929935 -364.378152 
L 186.154288 -365.468055 
L 185.378642 -366.556143 
L 184.602996 -367.64227 
L 183.827349 -368.726284 
L 183.051703 -369.808032 
L 182.276057 -370.887353 
L 181.50041 -371.964085 
L 180.724764 -373.038059 
L 179.949117 -374.109101 
L 179.173471 -375.177034 
L 178.397825 -376.241671 
L 177.622178 -377.302823 
L 176.846532 -378.360292 
L 176.070886 -379.413874 
L 175.295239 -380.463356 
L 174.519593 -381.508519 
L 173.743947 -382.549134 
L 172.9683 -383.584964 
L 172.192654 -384.615761 
L 171.417007 -385.641267 
L 170.641361 -386.661212 
L 169.865715 -387.675316 
L 169.090068 -388.683282 
L 168.314422 -389.684802 
L 167.538776 -390.679553 
L 166.763129 -391.667194 
L 165.987483 -392.647368 
L 165.211836 -393.619698 
L 164.43619 -394.583787 
L 163.660544 -395.539217 
L 162.884897 -396.485544 
L 162.109251 -397.422301 
L 161.333605 -398.348991 
L 160.557958 -399.265088 
L 159.782312 -400.170034 
L 159.006665 -401.063235 
L 158.231019 -401.944057 
L 157.455373 -402.811826 
L 156.679726 -403.665821 
L 155.90408 -404.505272 
L 155.128434 -405.329354 
L 154.352787 -406.137182 
L 153.577141 -406.927806 
L 152.801494 -407.700202 
L 152.025848 -408.453269 
L 151.250202 -409.185815 
L 150.474555 -409.896553 
L 149.698909 -410.584088 
L 148.923263 -411.246903 
L 148.147616 -411.883349 
L 147.37197 -412.491626 
L 146.596323 -413.069766 
L 145.820677 -413.615612 
L 145.045031 -414.126792 
L 144.269384 -414.600696 
L 143.493738 -415.034434 
L 142.718092 -415.424807 
L 141.942445 -415.768255 
L 141.166799 -416.060807 
L 140.391153 -416.298015 
L 139.615506 -416.474882 
L 138.83986 -416.58577 
L 138.064213 -416.624293 
L 137.288567 -416.583187 
L 136.512921 -416.521207 
L 135.737274 -416.612403 
L 134.961628 -416.611932 
L 134.185982 -416.508466 
L 133.410335 -416.566394 
L 132.634689 -416.624293 
L 131.859042 -416.560593 
L 131.083396 -416.462253 
L 130.30775 -416.605213 
L 129.532103 -416.604016 
L 128.756457 -416.429731 
L 127.980811 -416.525212 
L 127.205164 -416.624293 
L 126.429518 -416.507581 
L 125.653871 -416.113533 
L 124.878225 -415.35898 
L 124.102579 -414.129355 
L 123.326932 -412.263177 
L 122.551286 -409.526545 
L 121.77564 -405.569529 
L 120.999993 -399.848148 
L 120.224347 -391.477241 
L 119.4487 -378.935141 
L 118.673054 -359.424359 
L 117.897408 -327.351627 
L 117.121761 -270.253459 
z
" style="stroke: #1f77b4; stroke-opacity: 0.3"/>
    </defs>
    <g clip-path="url(#p19b7f90740)">
     <use xlink:href="#m7f551df429" x="0" y="540.100875" style="fill: #1f77b4; fill-opacity: 0.3; stroke: #1f77b4; stroke-opacity: 0.3"/>
    </g>
   </g>
   <g id="matplotlib.axis_1">
    <g id="xtick_1">
     <g id="line2d_1">
      <defs>
       <path id="m48638cf52e" d="M 0 0 
L 0 3.5 
" style="stroke: #000000; stroke-width: 0.8"/>
      </defs>
      <g>
       <use xlink:href="#m48638cf52e" x="116.346115" y="416.476875" style="stroke: #000000; stroke-width: 0.8"/>
      </g>
     </g>
     <g id="text_1">
      <!-- 0 -->
      <g transform="translate(109.983615 438.67375)scale(0.2 -0.2)">
       <defs>
        <path id="DejaVuSans-30" d="M 2034 4250 
Q 1547 4250 1301 3770 
Q 1056 3291 1056 2328 
Q 1056 1369 1301 889 
Q 1547 409 2034 409 
Q 2525 409 2770 889 
Q 3016 1369 3016 2328 
Q 3016 3291 2770 3770 
Q 2525 4250 2034 4250 
z
M 2034 4750 
Q 2819 4750 3233 4129 
Q 3647 3509 3647 2328 
Q 3647 1150 3233 529 
Q 2819 -91 2034 -91 
Q 1250 -91 836 529 
Q 422 1150 422 2328 
Q 422 3509 836 4129 
Q 1250 4750 2034 4750 
z
" transform="scale(0.015625)"/>
       </defs>
       <use xlink:href="#DejaVuSans-30"/>
      </g>
     </g>
    </g>
    <g id="xtick_2">
     <g id="line2d_2">
      <g>
       <use xlink:href="#m48638cf52e" x="193.910752" y="416.476875" style="stroke: #000000; stroke-width: 0.8"/>
      </g>
     </g>
     <g id="text_2">
      <!-- 100 -->
      <g transform="translate(174.823252 438.67375)scale(0.2 -0.2)">
       <defs>
        <path id="DejaVuSans-31" d="M 794 531 
L 1825 531 
L 1825 4091 
L 703 3866 
L 703 4441 
L 1819 4666 
L 2450 4666 
L 2450 531 
L 3481 531 
L 3481 0 
L 794 0 
L 794 531 
z
" transform="scale(0.015625)"/>
       </defs>
       <use xlink:href="#DejaVuSans-31"/>
       <use xlink:href="#DejaVuSans-30" x="63.623047"/>
       <use xlink:href="#DejaVuSans-30" x="127.246094"/>
      </g>
     </g>
    </g>
    <g id="xtick_3">
     <g id="line2d_3">
      <g>
       <use xlink:href="#m48638cf52e" x="271.475389" y="416.476875" style="stroke: #000000; stroke-width: 0.8"/>
      </g>
     </g>
     <g id="text_3">
      <!-- 200 -->
      <g transform="translate(252.387889 438.67375)scale(0.2 -0.2)">
       <defs>
        <path id="DejaVuSans-32" d="M 1228 531 
L 3431 531 
L 3431 0 
L 469 0 
L 469 531 
Q 828 903 1448 1529 
Q 2069 2156 2228 2338 
Q 2531 2678 2651 2914 
Q 2772 3150 2772 3378 
Q 2772 3750 2511 3984 
Q 2250 4219 1831 4219 
Q 1534 4219 1204 4116 
Q 875 4013 500 3803 
L 500 4441 
Q 881 4594 1212 4672 
Q 1544 4750 1819 4750 
Q 2544 4750 2975 4387 
Q 3406 4025 3406 3419 
Q 3406 3131 3298 2873 
Q 3191 2616 2906 2266 
Q 2828 2175 2409 1742 
Q 1991 1309 1228 531 
z
" transform="scale(0.015625)"/>
       </defs>
       <use xlink:href="#DejaVuSans-32"/>
       <use xlink:href="#DejaVuSans-30" x="63.623047"/>
       <use xlink:href="#DejaVuSans-30" x="127.246094"/>
      </g>
     </g>
    </g>
    <g id="xtick_4">
     <g id="line2d_4">
      <g>
       <use xlink:href="#m48638cf52e" x="349.040027" y="416.476875" style="stroke: #000000; stroke-width: 0.8"/>
      </g>
     </g>
     <g id="text_4">
      <!-- 300 -->
      <g transform="translate(329.952527 438.67375)scale(0.2 -0.2)">
       <defs>
        <path id="DejaVuSans-33" d="M 2597 2516 
Q 3050 2419 3304 2112 
Q 3559 1806 3559 1356 
Q 3559 666 3084 287 
Q 2609 -91 1734 -91 
Q 1441 -91 1130 -33 
Q 819 25 488 141 
L 488 750 
Q 750 597 1062 519 
Q 1375 441 1716 441 
Q 2309 441 2620 675 
Q 2931 909 2931 1356 
Q 2931 1769 2642 2001 
Q 2353 2234 1838 2234 
L 1294 2234 
L 1294 2753 
L 1863 2753 
Q 2328 2753 2575 2939 
Q 2822 3125 2822 3475 
Q 2822 3834 2567 4026 
Q 2313 4219 1838 4219 
Q 1578 4219 1281 4162 
Q 984 4106 628 3988 
L 628 4550 
Q 988 4650 1302 4700 
Q 1616 4750 1894 4750 
Q 2613 4750 3031 4423 
Q 3450 4097 3450 3541 
Q 3450 3153 3228 2886 
Q 3006 2619 2597 2516 
z
" transform="scale(0.015625)"/>
       </defs>
       <use xlink:href="#DejaVuSans-33"/>
       <use xlink:href="#DejaVuSans-30" x="63.623047"/>
       <use xlink:href="#DejaVuSans-30" x="127.246094"/>
      </g>
     </g>
    </g>
    <g id="xtick_5">
     <g id="line2d_5">
      <g>
       <use xlink:href="#m48638cf52e" x="426.604664" y="416.476875" style="stroke: #000000; stroke-width: 0.8"/>
      </g>
     </g>
     <g id="text_5">
      <!-- 400 -->
      <g transform="translate(407.517164 438.67375)scale(0.2 -0.2)">
       <defs>
        <path id="DejaVuSans-34" d="M 2419 4116 
L 825 1625 
L 2419 1625 
L 2419 4116 
z
M 2253 4666 
L 3047 4666 
L 3047 1625 
L 3713 1625 
L 3713 1100 
L 3047 1100 
L 3047 0 
L 2419 0 
L 2419 1100 
L 313 1100 
L 313 1709 
L 2253 4666 
z
" transform="scale(0.015625)"/>
       </defs>
       <use xlink:href="#DejaVuSans-34"/>
       <use xlink:href="#DejaVuSans-30" x="63.623047"/>
       <use xlink:href="#DejaVuSans-30" x="127.246094"/>
      </g>
     </g>
    </g>
    <g id="xtick_6">
     <g id="line2d_6">
      <g>
       <use xlink:href="#m48638cf52e" x="504.169301" y="416.476875" style="stroke: #000000; stroke-width: 0.8"/>
      </g>
     </g>
     <g id="text_6">
      <!-- 500 -->
      <g transform="translate(485.081801 438.67375)scale(0.2 -0.2)">
       <defs>
        <path id="DejaVuSans-35" d="M 691 4666 
L 3169 4666 
L 3169 4134 
L 1269 4134 
L 1269 2991 
Q 1406 3038 1543 3061 
Q 1681 3084 1819 3084 
Q 2600 3084 3056 2656 
Q 3513 2228 3513 1497 
Q 3513 744 3044 326 
Q 2575 -91 1722 -91 
Q 1428 -91 1123 -41 
Q 819 9 494 109 
L 494 744 
Q 775 591 1075 516 
Q 1375 441 1709 441 
Q 2250 441 2565 725 
Q 2881 1009 2881 1497 
Q 2881 1984 2565 2268 
Q 2250 2553 1709 2553 
Q 1456 2553 1204 2497 
Q 953 2441 691 2322 
L 691 4666 
z
" transform="scale(0.015625)"/>
       </defs>
       <use xlink:href="#DejaVuSans-35"/>
       <use xlink:href="#DejaVuSans-30" x="63.623047"/>
       <use xlink:href="#DejaVuSans-30" x="127.246094"/>
      </g>
     </g>
    </g>
    <g id="xtick_7">
     <g id="line2d_7">
      <g>
       <use xlink:href="#m48638cf52e" x="581.733938" y="416.476875" style="stroke: #000000; stroke-width: 0.8"/>
      </g>
     </g>
     <g id="text_7">
      <!-- 600 -->
      <g transform="translate(562.646438 438.67375)scale(0.2 -0.2)">
       <defs>
        <path id="DejaVuSans-36" d="M 2113 2584 
Q 1688 2584 1439 2293 
Q 1191 2003 1191 1497 
Q 1191 994 1439 701 
Q 1688 409 2113 409 
Q 2538 409 2786 701 
Q 3034 994 3034 1497 
Q 3034 2003 2786 2293 
Q 2538 2584 2113 2584 
z
M 3366 4563 
L 3366 3988 
Q 3128 4100 2886 4159 
Q 2644 4219 2406 4219 
Q 1781 4219 1451 3797 
Q 1122 3375 1075 2522 
Q 1259 2794 1537 2939 
Q 1816 3084 2150 3084 
Q 2853 3084 3261 2657 
Q 3669 2231 3669 1497 
Q 3669 778 3244 343 
Q 2819 -91 2113 -91 
Q 1303 -91 875 529 
Q 447 1150 447 2328 
Q 447 3434 972 4092 
Q 1497 4750 2381 4750 
Q 2619 4750 2861 4703 
Q 3103 4656 3366 4563 
z
" transform="scale(0.015625)"/>
       </defs>
       <use xlink:href="#DejaVuSans-36"/>
       <use xlink:href="#DejaVuSans-30" x="63.623047"/>
       <use xlink:href="#DejaVuSans-30" x="127.246094"/>
      </g>
     </g>
    </g>
    <g id="text_8">
     <!-- Days since antigen exposure -->
     <g transform="translate(226.337813 462.03)scale(0.2 -0.2)">
      <defs>
       <path id="DejaVuSans-44" d="M 1259 4147 
L 1259 519 
L 2022 519 
Q 2988 519 3436 956 
Q 3884 1394 3884 2338 
Q 3884 3275 3436 3711 
Q 2988 4147 2022 4147 
L 1259 4147 
z
M 628 4666 
L 1925 4666 
Q 3281 4666 3915 4102 
Q 4550 3538 4550 2338 
Q 4550 1131 3912 565 
Q 3275 0 1925 0 
L 628 0 
L 628 4666 
z
" transform="scale(0.015625)"/>
       <path id="DejaVuSans-61" d="M 2194 1759 
Q 1497 1759 1228 1600 
Q 959 1441 959 1056 
Q 959 750 1161 570 
Q 1363 391 1709 391 
Q 2188 391 2477 730 
Q 2766 1069 2766 1631 
L 2766 1759 
L 2194 1759 
z
M 3341 1997 
L 3341 0 
L 2766 0 
L 2766 531 
Q 2569 213 2275 61 
Q 1981 -91 1556 -91 
Q 1019 -91 701 211 
Q 384 513 384 1019 
Q 384 1609 779 1909 
Q 1175 2209 1959 2209 
L 2766 2209 
L 2766 2266 
Q 2766 2663 2505 2880 
Q 2244 3097 1772 3097 
Q 1472 3097 1187 3025 
Q 903 2953 641 2809 
L 641 3341 
Q 956 3463 1253 3523 
Q 1550 3584 1831 3584 
Q 2591 3584 2966 3190 
Q 3341 2797 3341 1997 
z
" transform="scale(0.015625)"/>
       <path id="DejaVuSans-79" d="M 2059 -325 
Q 1816 -950 1584 -1140 
Q 1353 -1331 966 -1331 
L 506 -1331 
L 506 -850 
L 844 -850 
Q 1081 -850 1212 -737 
Q 1344 -625 1503 -206 
L 1606 56 
L 191 3500 
L 800 3500 
L 1894 763 
L 2988 3500 
L 3597 3500 
L 2059 -325 
z
" transform="scale(0.015625)"/>
       <path id="DejaVuSans-73" d="M 2834 3397 
L 2834 2853 
Q 2591 2978 2328 3040 
Q 2066 3103 1784 3103 
Q 1356 3103 1142 2972 
Q 928 2841 928 2578 
Q 928 2378 1081 2264 
Q 1234 2150 1697 2047 
L 1894 2003 
Q 2506 1872 2764 1633 
Q 3022 1394 3022 966 
Q 3022 478 2636 193 
Q 2250 -91 1575 -91 
Q 1294 -91 989 -36 
Q 684 19 347 128 
L 347 722 
Q 666 556 975 473 
Q 1284 391 1588 391 
Q 1994 391 2212 530 
Q 2431 669 2431 922 
Q 2431 1156 2273 1281 
Q 2116 1406 1581 1522 
L 1381 1569 
Q 847 1681 609 1914 
Q 372 2147 372 2553 
Q 372 3047 722 3315 
Q 1072 3584 1716 3584 
Q 2034 3584 2315 3537 
Q 2597 3491 2834 3397 
z
" transform="scale(0.015625)"/>
       <path id="DejaVuSans-20" transform="scale(0.015625)"/>
       <path id="DejaVuSans-69" d="M 603 3500 
L 1178 3500 
L 1178 0 
L 603 0 
L 603 3500 
z
M 603 4863 
L 1178 4863 
L 1178 4134 
L 603 4134 
L 603 4863 
z
" transform="scale(0.015625)"/>
       <path id="DejaVuSans-6e" d="M 3513 2113 
L 3513 0 
L 2938 0 
L 2938 2094 
Q 2938 2591 2744 2837 
Q 2550 3084 2163 3084 
Q 1697 3084 1428 2787 
Q 1159 2491 1159 1978 
L 1159 0 
L 581 0 
L 581 3500 
L 1159 3500 
L 1159 2956 
Q 1366 3272 1645 3428 
Q 1925 3584 2291 3584 
Q 2894 3584 3203 3211 
Q 3513 2838 3513 2113 
z
" transform="scale(0.015625)"/>
       <path id="DejaVuSans-63" d="M 3122 3366 
L 3122 2828 
Q 2878 2963 2633 3030 
Q 2388 3097 2138 3097 
Q 1578 3097 1268 2742 
Q 959 2388 959 1747 
Q 959 1106 1268 751 
Q 1578 397 2138 397 
Q 2388 397 2633 464 
Q 2878 531 3122 666 
L 3122 134 
Q 2881 22 2623 -34 
Q 2366 -91 2075 -91 
Q 1284 -91 818 406 
Q 353 903 353 1747 
Q 353 2603 823 3093 
Q 1294 3584 2113 3584 
Q 2378 3584 2631 3529 
Q 2884 3475 3122 3366 
z
" transform="scale(0.015625)"/>
       <path id="DejaVuSans-65" d="M 3597 1894 
L 3597 1613 
L 953 1613 
Q 991 1019 1311 708 
Q 1631 397 2203 397 
Q 2534 397 2845 478 
Q 3156 559 3463 722 
L 3463 178 
Q 3153 47 2828 -22 
Q 2503 -91 2169 -91 
Q 1331 -91 842 396 
Q 353 884 353 1716 
Q 353 2575 817 3079 
Q 1281 3584 2069 3584 
Q 2775 3584 3186 3129 
Q 3597 2675 3597 1894 
z
M 3022 2063 
Q 3016 2534 2758 2815 
Q 2500 3097 2075 3097 
Q 1594 3097 1305 2825 
Q 1016 2553 972 2059 
L 3022 2063 
z
" transform="scale(0.015625)"/>
       <path id="DejaVuSans-74" d="M 1172 4494 
L 1172 3500 
L 2356 3500 
L 2356 3053 
L 1172 3053 
L 1172 1153 
Q 1172 725 1289 603 
Q 1406 481 1766 481 
L 2356 481 
L 2356 0 
L 1766 0 
Q 1100 0 847 248 
Q 594 497 594 1153 
L 594 3053 
L 172 3053 
L 172 3500 
L 594 3500 
L 594 4494 
L 1172 4494 
z
" transform="scale(0.015625)"/>
       <path id="DejaVuSans-67" d="M 2906 1791 
Q 2906 2416 2648 2759 
Q 2391 3103 1925 3103 
Q 1463 3103 1205 2759 
Q 947 2416 947 1791 
Q 947 1169 1205 825 
Q 1463 481 1925 481 
Q 2391 481 2648 825 
Q 2906 1169 2906 1791 
z
M 3481 434 
Q 3481 -459 3084 -895 
Q 2688 -1331 1869 -1331 
Q 1566 -1331 1297 -1286 
Q 1028 -1241 775 -1147 
L 775 -588 
Q 1028 -725 1275 -790 
Q 1522 -856 1778 -856 
Q 2344 -856 2625 -561 
Q 2906 -266 2906 331 
L 2906 616 
Q 2728 306 2450 153 
Q 2172 0 1784 0 
Q 1141 0 747 490 
Q 353 981 353 1791 
Q 353 2603 747 3093 
Q 1141 3584 1784 3584 
Q 2172 3584 2450 3431 
Q 2728 3278 2906 2969 
L 2906 3500 
L 3481 3500 
L 3481 434 
z
" transform="scale(0.015625)"/>
       <path id="DejaVuSans-78" d="M 3513 3500 
L 2247 1797 
L 3578 0 
L 2900 0 
L 1881 1375 
L 863 0 
L 184 0 
L 1544 1831 
L 300 3500 
L 978 3500 
L 1906 2253 
L 2834 3500 
L 3513 3500 
z
" transform="scale(0.015625)"/>
       <path id="DejaVuSans-70" d="M 1159 525 
L 1159 -1331 
L 581 -1331 
L 581 3500 
L 1159 3500 
L 1159 2969 
Q 1341 3281 1617 3432 
Q 1894 3584 2278 3584 
Q 2916 3584 3314 3078 
Q 3713 2572 3713 1747 
Q 3713 922 3314 415 
Q 2916 -91 2278 -91 
Q 1894 -91 1617 61 
Q 1341 213 1159 525 
z
M 3116 1747 
Q 3116 2381 2855 2742 
Q 2594 3103 2138 3103 
Q 1681 3103 1420 2742 
Q 1159 2381 1159 1747 
Q 1159 1113 1420 752 
Q 1681 391 2138 391 
Q 2594 391 2855 752 
Q 3116 1113 3116 1747 
z
" transform="scale(0.015625)"/>
       <path id="DejaVuSans-6f" d="M 1959 3097 
Q 1497 3097 1228 2736 
Q 959 2375 959 1747 
Q 959 1119 1226 758 
Q 1494 397 1959 397 
Q 2419 397 2687 759 
Q 2956 1122 2956 1747 
Q 2956 2369 2687 2733 
Q 2419 3097 1959 3097 
z
M 1959 3584 
Q 2709 3584 3137 3096 
Q 3566 2609 3566 1747 
Q 3566 888 3137 398 
Q 2709 -91 1959 -91 
Q 1206 -91 779 398 
Q 353 888 353 1747 
Q 353 2609 779 3096 
Q 1206 3584 1959 3584 
z
" transform="scale(0.015625)"/>
       <path id="DejaVuSans-75" d="M 544 1381 
L 544 3500 
L 1119 3500 
L 1119 1403 
Q 1119 906 1312 657 
Q 1506 409 1894 409 
Q 2359 409 2629 706 
Q 2900 1003 2900 1516 
L 2900 3500 
L 3475 3500 
L 3475 0 
L 2900 0 
L 2900 538 
Q 2691 219 2414 64 
Q 2138 -91 1772 -91 
Q 1169 -91 856 284 
Q 544 659 544 1381 
z
M 1991 3584 
L 1991 3584 
z
" transform="scale(0.015625)"/>
       <path id="DejaVuSans-72" d="M 2631 2963 
Q 2534 3019 2420 3045 
Q 2306 3072 2169 3072 
Q 1681 3072 1420 2755 
Q 1159 2438 1159 1844 
L 1159 0 
L 581 0 
L 581 3500 
L 1159 3500 
L 1159 2956 
Q 1341 3275 1631 3429 
Q 1922 3584 2338 3584 
Q 2397 3584 2469 3576 
Q 2541 3569 2628 3553 
L 2631 2963 
z
" transform="scale(0.015625)"/>
      </defs>
      <use xlink:href="#DejaVuSans-44"/>
      <use xlink:href="#DejaVuSans-61" x="77.001953"/>
      <use xlink:href="#DejaVuSans-79" x="138.28125"/>
      <use xlink:href="#DejaVuSans-73" x="197.460938"/>
      <use xlink:href="#DejaVuSans-20" x="249.560547"/>
      <use xlink:href="#DejaVuSans-73" x="281.347656"/>
      <use xlink:href="#DejaVuSans-69" x="333.447266"/>
      <use xlink:href="#DejaVuSans-6e" x="361.230469"/>
      <use xlink:href="#DejaVuSans-63" x="424.609375"/>
      <use xlink:href="#DejaVuSans-65" x="479.589844"/>
      <use xlink:href="#DejaVuSans-20" x="541.113281"/>
      <use xlink:href="#DejaVuSans-61" x="572.900391"/>
      <use xlink:href="#DejaVuSans-6e" x="634.179688"/>
      <use xlink:href="#DejaVuSans-74" x="697.558594"/>
      <use xlink:href="#DejaVuSans-69" x="736.767578"/>
      <use xlink:href="#DejaVuSans-67" x="764.550781"/>
      <use xlink:href="#DejaVuSans-65" x="828.027344"/>
      <use xlink:href="#DejaVuSans-6e" x="889.550781"/>
      <use xlink:href="#DejaVuSans-20" x="952.929688"/>
      <use xlink:href="#DejaVuSans-65" x="984.716797"/>
      <use xlink:href="#DejaVuSans-78" x="1044.490234"/>
      <use xlink:href="#DejaVuSans-70" x="1103.669922"/>
      <use xlink:href="#DejaVuSans-6f" x="1167.146484"/>
      <use xlink:href="#DejaVuSans-73" x="1228.328125"/>
      <use xlink:href="#DejaVuSans-75" x="1280.427734"/>
      <use xlink:href="#DejaVuSans-72" x="1343.806641"/>
      <use xlink:href="#DejaVuSans-65" x="1382.669922"/>
     </g>
    </g>
   </g>
   <g id="matplotlib.axis_2">
    <g id="ytick_1">
     <g id="line2d_8">
      <defs>
       <path id="m56ab692b7a" d="M 0 0 
L -3.5 0 
" style="stroke: #000000; stroke-width: 0.8"/>
      </defs>
      <g>
       <use xlink:href="#m56ab692b7a" x="91.758125" y="384.131167" style="stroke: #000000; stroke-width: 0.8"/>
      </g>
     </g>
     <g id="text_9">
      <!-- 0.0 -->
      <g transform="translate(52.951875 391.729605)scale(0.2 -0.2)">
       <defs>
        <path id="DejaVuSans-2e" d="M 684 794 
L 1344 794 
L 1344 0 
L 684 0 
L 684 794 
z
" transform="scale(0.015625)"/>
       </defs>
       <use xlink:href="#DejaVuSans-30"/>
       <use xlink:href="#DejaVuSans-2e" x="63.623047"/>
       <use xlink:href="#DejaVuSans-30" x="95.410156"/>
      </g>
     </g>
    </g>
    <g id="ytick_2">
     <g id="line2d_9">
      <g>
       <use xlink:href="#m56ab692b7a" x="91.758125" y="319.439752" style="stroke: #000000; stroke-width: 0.8"/>
      </g>
     </g>
     <g id="text_10">
      <!-- 0.2 -->
      <g transform="translate(52.951875 327.038189)scale(0.2 -0.2)">
       <use xlink:href="#DejaVuSans-30"/>
       <use xlink:href="#DejaVuSans-2e" x="63.623047"/>
       <use xlink:href="#DejaVuSans-32" x="95.410156"/>
      </g>
     </g>
    </g>
    <g id="ytick_3">
     <g id="line2d_10">
      <g>
       <use xlink:href="#m56ab692b7a" x="91.758125" y="254.748336" style="stroke: #000000; stroke-width: 0.8"/>
      </g>
     </g>
     <g id="text_11">
      <!-- 0.4 -->
      <g transform="translate(52.951875 262.346774)scale(0.2 -0.2)">
       <use xlink:href="#DejaVuSans-30"/>
       <use xlink:href="#DejaVuSans-2e" x="63.623047"/>
       <use xlink:href="#DejaVuSans-34" x="95.410156"/>
      </g>
     </g>
    </g>
    <g id="ytick_4">
     <g id="line2d_11">
      <g>
       <use xlink:href="#m56ab692b7a" x="91.758125" y="190.056921" style="stroke: #000000; stroke-width: 0.8"/>
      </g>
     </g>
     <g id="text_12">
      <!-- 0.6 -->
      <g transform="translate(52.951875 197.655358)scale(0.2 -0.2)">
       <use xlink:href="#DejaVuSans-30"/>
       <use xlink:href="#DejaVuSans-2e" x="63.623047"/>
       <use xlink:href="#DejaVuSans-36" x="95.410156"/>
      </g>
     </g>
    </g>
    <g id="ytick_5">
     <g id="line2d_12">
      <g>
       <use xlink:href="#m56ab692b7a" x="91.758125" y="125.365505" style="stroke: #000000; stroke-width: 0.8"/>
      </g>
     </g>
     <g id="text_13">
      <!-- 0.8 -->
      <g transform="translate(52.951875 132.963943)scale(0.2 -0.2)">
       <defs>
        <path id="DejaVuSans-38" d="M 2034 2216 
Q 1584 2216 1326 1975 
Q 1069 1734 1069 1313 
Q 1069 891 1326 650 
Q 1584 409 2034 409 
Q 2484 409 2743 651 
Q 3003 894 3003 1313 
Q 3003 1734 2745 1975 
Q 2488 2216 2034 2216 
z
M 1403 2484 
Q 997 2584 770 2862 
Q 544 3141 544 3541 
Q 544 4100 942 4425 
Q 1341 4750 2034 4750 
Q 2731 4750 3128 4425 
Q 3525 4100 3525 3541 
Q 3525 3141 3298 2862 
Q 3072 2584 2669 2484 
Q 3125 2378 3379 2068 
Q 3634 1759 3634 1313 
Q 3634 634 3220 271 
Q 2806 -91 2034 -91 
Q 1263 -91 848 271 
Q 434 634 434 1313 
Q 434 1759 690 2068 
Q 947 2378 1403 2484 
z
M 1172 3481 
Q 1172 3119 1398 2916 
Q 1625 2713 2034 2713 
Q 2441 2713 2670 2916 
Q 2900 3119 2900 3481 
Q 2900 3844 2670 4047 
Q 2441 4250 2034 4250 
Q 1625 4250 1398 4047 
Q 1172 3844 1172 3481 
z
" transform="scale(0.015625)"/>
       </defs>
       <use xlink:href="#DejaVuSans-30"/>
       <use xlink:href="#DejaVuSans-2e" x="63.623047"/>
       <use xlink:href="#DejaVuSans-38" x="95.410156"/>
      </g>
     </g>
    </g>
    <g id="ytick_6">
     <g id="line2d_13">
      <g>
       <use xlink:href="#m56ab692b7a" x="91.758125" y="60.67409" style="stroke: #000000; stroke-width: 0.8"/>
      </g>
     </g>
     <g id="text_14">
      <!-- 1.0 -->
      <g transform="translate(52.951875 68.272527)scale(0.2 -0.2)">
       <use xlink:href="#DejaVuSans-31"/>
       <use xlink:href="#DejaVuSans-2e" x="63.623047"/>
       <use xlink:href="#DejaVuSans-30" x="95.410156"/>
      </g>
     </g>
    </g>
    <g id="text_15">
     <!-- Virus neutralization -->
     <g transform="translate(22.396875 319.741562)rotate(-90)scale(0.2 -0.2)">
      <defs>
       <path id="DejaVuSans-56" d="M 1831 0 
L 50 4666 
L 709 4666 
L 2188 738 
L 3669 4666 
L 4325 4666 
L 2547 0 
L 1831 0 
z
" transform="scale(0.015625)"/>
       <path id="DejaVuSans-6c" d="M 603 4863 
L 1178 4863 
L 1178 0 
L 603 0 
L 603 4863 
z
" transform="scale(0.015625)"/>
       <path id="DejaVuSans-7a" d="M 353 3500 
L 3084 3500 
L 3084 2975 
L 922 459 
L 3084 459 
L 3084 0 
L 275 0 
L 275 525 
L 2438 3041 
L 353 3041 
L 353 3500 
z
" transform="scale(0.015625)"/>
      </defs>
      <use xlink:href="#DejaVuSans-56"/>
      <use xlink:href="#DejaVuSans-69" x="66.158203"/>
      <use xlink:href="#DejaVuSans-72" x="93.941406"/>
      <use xlink:href="#DejaVuSans-75" x="135.054688"/>
      <use xlink:href="#DejaVuSans-73" x="198.433594"/>
      <use xlink:href="#DejaVuSans-20" x="250.533203"/>
      <use xlink:href="#DejaVuSans-6e" x="282.320312"/>
      <use xlink:href="#DejaVuSans-65" x="345.699219"/>
      <use xlink:href="#DejaVuSans-75" x="407.222656"/>
      <use xlink:href="#DejaVuSans-74" x="470.601562"/>
      <use xlink:href="#DejaVuSans-72" x="509.810547"/>
      <use xlink:href="#DejaVuSans-61" x="550.923828"/>
      <use xlink:href="#DejaVuSans-6c" x="612.203125"/>
      <use xlink:href="#DejaVuSans-69" x="639.986328"/>
      <use xlink:href="#DejaVuSans-7a" x="667.769531"/>
      <use xlink:href="#DejaVuSans-61" x="720.259766"/>
      <use xlink:href="#DejaVuSans-74" x="781.539062"/>
      <use xlink:href="#DejaVuSans-69" x="820.748047"/>
      <use xlink:href="#DejaVuSans-6f" x="848.53125"/>
      <use xlink:href="#DejaVuSans-6e" x="909.712891"/>
     </g>
     <!--  probability -->
     <g transform="translate(44.7925 278.966562)rotate(-90)scale(0.2 -0.2)">
      <defs>
       <path id="DejaVuSans-62" d="M 3116 1747 
Q 3116 2381 2855 2742 
Q 2594 3103 2138 3103 
Q 1681 3103 1420 2742 
Q 1159 2381 1159 1747 
Q 1159 1113 1420 752 
Q 1681 391 2138 391 
Q 2594 391 2855 752 
Q 3116 1113 3116 1747 
z
M 1159 2969 
Q 1341 3281 1617 3432 
Q 1894 3584 2278 3584 
Q 2916 3584 3314 3078 
Q 3713 2572 3713 1747 
Q 3713 922 3314 415 
Q 2916 -91 2278 -91 
Q 1894 -91 1617 61 
Q 1341 213 1159 525 
L 1159 0 
L 581 0 
L 581 4863 
L 1159 4863 
L 1159 2969 
z
" transform="scale(0.015625)"/>
      </defs>
      <use xlink:href="#DejaVuSans-20"/>
      <use xlink:href="#DejaVuSans-70" x="31.787109"/>
      <use xlink:href="#DejaVuSans-72" x="95.263672"/>
      <use xlink:href="#DejaVuSans-6f" x="134.126953"/>
      <use xlink:href="#DejaVuSans-62" x="195.308594"/>
      <use xlink:href="#DejaVuSans-61" x="258.785156"/>
      <use xlink:href="#DejaVuSans-62" x="320.064453"/>
      <use xlink:href="#DejaVuSans-69" x="383.541016"/>
      <use xlink:href="#DejaVuSans-6c" x="411.324219"/>
      <use xlink:href="#DejaVuSans-69" x="439.107422"/>
      <use xlink:href="#DejaVuSans-74" x="466.890625"/>
      <use xlink:href="#DejaVuSans-79" x="506.099609"/>
     </g>
    </g>
   </g>
   <g id="patch_3">
    <path d="M 91.758125 416.476875 
L 91.758125 28.396875 
" style="fill: none; stroke: #000000; stroke-width: 0.8; stroke-linejoin: miter; stroke-linecap: square"/>
   </g>
   <g id="patch_4">
    <path d="M 649.758125 416.476875 
L 649.758125 28.396875 
" style="fill: none; stroke: #000000; stroke-width: 0.8; stroke-linejoin: miter; stroke-linecap: square"/>
   </g>
   <g id="patch_5">
    <path d="M 91.758125 416.476875 
L 649.758125 416.476875 
" style="fill: none; stroke: #000000; stroke-width: 0.8; stroke-linejoin: miter; stroke-linecap: square"/>
   </g>
   <g id="patch_6">
    <path d="M 91.758125 28.396875 
L 649.758125 28.396875 
" style="fill: none; stroke: #000000; stroke-width: 0.8; stroke-linejoin: miter; stroke-linecap: square"/>
   </g>
   <g id="text_16">
    <!-- JN.2 antigen -->
    <g transform="translate(309.605 22.396875)scale(0.2 -0.2)">
     <defs>
      <path id="DejaVuSans-4a" d="M 628 4666 
L 1259 4666 
L 1259 325 
Q 1259 -519 939 -900 
Q 619 -1281 -91 -1281 
L -331 -1281 
L -331 -750 
L -134 -750 
Q 284 -750 456 -515 
Q 628 -281 628 325 
L 628 4666 
z
" transform="scale(0.015625)"/>
      <path id="DejaVuSans-4e" d="M 628 4666 
L 1478 4666 
L 3547 763 
L 3547 4666 
L 4159 4666 
L 4159 0 
L 3309 0 
L 1241 3903 
L 1241 0 
L 628 0 
L 628 4666 
z
" transform="scale(0.015625)"/>
     </defs>
     <use xlink:href="#DejaVuSans-4a"/>
     <use xlink:href="#DejaVuSans-4e" x="29.492188"/>
     <use xlink:href="#DejaVuSans-2e" x="104.296875"/>
     <use xlink:href="#DejaVuSans-32" x="136.083984"/>
     <use xlink:href="#DejaVuSans-20" x="199.707031"/>
     <use xlink:href="#DejaVuSans-61" x="231.494141"/>
     <use xlink:href="#DejaVuSans-6e" x="292.773438"/>
     <use xlink:href="#DejaVuSans-74" x="356.152344"/>
     <use xlink:href="#DejaVuSans-69" x="395.361328"/>
     <use xlink:href="#DejaVuSans-67" x="423.144531"/>
     <use xlink:href="#DejaVuSans-65" x="486.621094"/>
     <use xlink:href="#DejaVuSans-6e" x="548.144531"/>
    </g>
   </g>
   <g id="legend_1">
    <g id="patch_7">
     <path d="M 235.258125 532.900875 
L 476.333125 532.900875 
Q 480.333125 532.900875 480.333125 528.900875 
L 480.333125 501.544625 
Q 480.333125 497.544625 476.333125 497.544625 
L 235.258125 497.544625 
Q 231.258125 497.544625 231.258125 501.544625 
L 231.258125 528.900875 
Q 231.258125 532.900875 235.258125 532.900875 
z
" style="fill: #ffffff; opacity: 0.8; stroke: #cccccc; stroke-linejoin: miter"/>
    </g>
    <g id="patch_8">
     <path d="M 239.258125 520.7415 
L 279.258125 520.7415 
L 279.258125 506.7415 
L 239.258125 506.7415 
z
" style="fill: #ffa500; fill-opacity: 0.3; stroke: #ffa500; stroke-opacity: 0.3; stroke-linejoin: miter"/>
    </g>
    <g id="text_17">
     <!-- JN.2 -->
     <g transform="translate(295.258125 520.7415)scale(0.2 -0.2)">
      <use xlink:href="#DejaVuSans-4a"/>
      <use xlink:href="#DejaVuSans-4e" x="29.492188"/>
      <use xlink:href="#DejaVuSans-2e" x="104.296875"/>
      <use xlink:href="#DejaVuSans-32" x="136.083984"/>
     </g>
    </g>
    <g id="patch_9">
     <path d="M 375.201875 520.7415 
L 415.201875 520.7415 
L 415.201875 506.7415 
L 375.201875 506.7415 
z
" style="fill: #1f77b4; fill-opacity: 0.3; stroke: #1f77b4; stroke-opacity: 0.3; stroke-linejoin: miter"/>
    </g>
    <g id="text_18">
     <!-- KP.3 -->
     <g transform="translate(431.201875 520.7415)scale(0.2 -0.2)">
      <defs>
       <path id="DejaVuSans-4b" d="M 628 4666 
L 1259 4666 
L 1259 2694 
L 3353 4666 
L 4166 4666 
L 1850 2491 
L 4331 0 
L 3500 0 
L 1259 2247 
L 1259 0 
L 628 0 
L 628 4666 
z
" transform="scale(0.015625)"/>
       <path id="DejaVuSans-50" d="M 1259 4147 
L 1259 2394 
L 2053 2394 
Q 2494 2394 2734 2622 
Q 2975 2850 2975 3272 
Q 2975 3691 2734 3919 
Q 2494 4147 2053 4147 
L 1259 4147 
z
M 628 4666 
L 2053 4666 
Q 2838 4666 3239 4311 
Q 3641 3956 3641 3272 
Q 3641 2581 3239 2228 
Q 2838 1875 2053 1875 
L 1259 1875 
L 1259 0 
L 628 0 
L 628 4666 
z
" transform="scale(0.015625)"/>
      </defs>
      <use xlink:href="#DejaVuSans-4b"/>
      <use xlink:href="#DejaVuSans-50" x="65.576172"/>
      <use xlink:href="#DejaVuSans-2e" x="110.253906"/>
      <use xlink:href="#DejaVuSans-33" x="142.041016"/>
     </g>
    </g>
   </g>
  </g>
 </g>
 <defs>
  <clipPath id="p19b7f90740">
   <rect x="91.758125" y="28.396875" width="558" height="388.08"/>
  </clipPath>
 </defs>
</svg>
