<?xml version="1.0" encoding="utf-8" standalone="no"?>
<!DOCTYPE svg PUBLIC "-//W3C//DTD SVG 1.1//EN"
  "http://www.w3.org/Graphics/SVG/1.1/DTD/svg11.dtd">
<svg xmlns:xlink="http://www.w3.org/1999/xlink" width="656.958125pt" height="540.100875pt" viewBox="0 0 656.958125 540.100875" xmlns="http://www.w3.org/2000/svg" version="1.1">
 <metadata>
  <rdf:RDF xmlns:dc="http://purl.org/dc/elements/1.1/" xmlns:cc="http://creativecommons.org/ns#" xmlns:rdf="http://www.w3.org/1999/02/22-rdf-syntax-ns#">
   <cc:Work>
    <dc:type rdf:resource="http://purl.org/dc/dcmitype/StillImage"/>
    <dc:date>2024-10-03T10:29:31.889944</dc:date>
    <dc:format>image/svg+xml</dc:format>
    <dc:creator>
     <cc:Agent>
      <dc:title>Matplotlib v3.5.2, https://matplotlib.org/</dc:title>
     </cc:Agent>
    </dc:creator>
   </cc:Work>
  </rdf:RDF>
 </metadata>
 <defs>
  <style type="text/css">*{stroke-linejoin: round; stroke-linecap: butt}</style>
 </defs>
 <g id="figure_1">
  <g id="patch_1">
   <path d="M 0 540.100875 
L 656.958125 540.100875 
L 656.958125 0 
L 0 0 
z
" style="fill: #ffffff"/>
  </g>
  <g id="axes_1">
   <g id="patch_2">
    <path d="M 91.758125 416.476875 
L 649.758125 416.476875 
L 649.758125 28.396875 
L 91.758125 28.396875 
z
" style="fill: #ffffff"/>
   </g>
   <g id="PolyCollection_1">
    <defs>
     <path id="mb9d6ba0c58" d="M 117.121761 -464.06096 
L 117.121761 -397.116121 
L 117.897408 -450.864899 
L 118.673054 -467.331633 
L 119.4487 -473.524795 
L 120.224347 -476.220388 
L 120.999993 -477.530684 
L 121.77564 -478.225437 
L 122.551286 -478.620647 
L 123.326932 -478.858897 
L 124.102579 -479.009679 
L 124.878225 -479.109112 
L 125.653871 -479.177024 
L 126.429518 -479.224817 
L 127.205164 -479.259326 
L 127.980811 -479.28479 
L 128.756457 -479.303928 
L 129.532103 -479.318529 
L 130.30775 -479.3298 
L 131.083396 -479.338576 
L 131.859042 -479.343679 
L 132.634689 -479.336209 
L 133.410335 -479.327415 
L 134.185982 -479.317166 
L 134.961628 -479.305309 
L 135.737274 -479.291664 
L 136.512921 -479.27603 
L 137.288567 -479.258179 
L 138.064213 -479.237855 
L 138.83986 -479.214775 
L 139.615506 -479.188628 
L 140.391153 -479.159068 
L 141.166799 -479.125719 
L 141.942445 -479.08817 
L 142.718092 -479.045971 
L 143.493738 -478.998637 
L 144.269384 -478.945641 
L 145.045031 -478.886414 
L 145.820677 -478.820343 
L 146.596323 -478.746773 
L 147.37197 -478.665 
L 148.147616 -478.574273 
L 148.923263 -478.473791 
L 149.698909 -478.362706 
L 150.474555 -478.240117 
L 151.250202 -478.105074 
L 152.025848 -477.956576 
L 152.801494 -477.793568 
L 153.577141 -477.614949 
L 154.352787 -477.419565 
L 155.128434 -477.206213 
L 155.90408 -476.973645 
L 156.679726 -476.720566 
L 157.455373 -476.445636 
L 158.231019 -476.147477 
L 159.006665 -475.824669 
L 159.782312 -475.475761 
L 160.557958 -475.099269 
L 161.333605 -474.69368 
L 162.109251 -474.257462 
L 162.884897 -473.789062 
L 163.660544 -473.286915 
L 164.43619 -472.749448 
L 165.211836 -472.175088 
L 165.987483 -471.562262 
L 166.763129 -470.90941 
L 167.538776 -470.214989 
L 168.314422 -469.477476 
L 169.090068 -468.695379 
L 169.865715 -467.867243 
L 170.641361 -466.991655 
L 171.417007 -466.06725 
L 172.192654 -465.09272 
L 172.9683 -464.066822 
L 173.743947 -462.988377 
L 174.519593 -461.856284 
L 175.295239 -460.669522 
L 176.070886 -459.427157 
L 176.846532 -458.128346 
L 177.622178 -456.772343 
L 178.397825 -455.358503 
L 179.173471 -453.886286 
L 179.949117 -452.35526 
L 180.724764 -450.765108 
L 181.50041 -449.115625 
L 182.276057 -447.406723 
L 183.051703 -445.638434 
L 183.827349 -443.810909 
L 184.602996 -441.924419 
L 185.378642 -439.979355 
L 186.154288 -437.976229 
L 186.929935 -435.915669 
L 187.705581 -433.798423 
L 188.481228 -431.625352 
L 189.256874 -429.397431 
L 190.03252 -427.115743 
L 190.808167 -424.781478 
L 191.583813 -422.395928 
L 192.359459 -419.960482 
L 193.135106 -417.476624 
L 193.910752 -414.945926 
L 194.686399 -412.370042 
L 195.462045 -409.750705 
L 196.237691 -407.08972 
L 197.013338 -404.388957 
L 197.788984 -401.65035 
L 198.56463 -398.875882 
L 199.340277 -396.067589 
L 200.115923 -393.227546 
L 200.89157 -390.357864 
L 201.667216 -387.460686 
L 202.442862 -384.538174 
L 203.218509 -381.592512 
L 203.994155 -378.625893 
L 204.769801 -375.640515 
L 205.545448 -372.638578 
L 206.321094 -369.622276 
L 207.096741 -366.593791 
L 207.872387 -363.55529 
L 208.648033 -360.50892 
L 209.42368 -357.456803 
L 210.199326 -354.40103 
L 210.974972 -351.343659 
L 211.750619 -348.286712 
L 212.526265 -345.232168 
L 213.301911 -342.181962 
L 214.077558 -339.137983 
L 214.853204 -336.10207 
L 215.628851 -333.076008 
L 216.404497 -330.061528 
L 217.180143 -327.060305 
L 217.95579 -324.073955 
L 218.731436 -321.104036 
L 219.507082 -318.152043 
L 220.282729 -315.21941 
L 221.058375 -312.307508 
L 221.834022 -309.417647 
L 222.609668 -306.551071 
L 223.385314 -303.708963 
L 224.160961 -300.892441 
L 224.936607 -298.102559 
L 225.712253 -295.340312 
L 226.4879 -292.60663 
L 227.263546 -289.902381 
L 228.039193 -287.228375 
L 228.814839 -284.585362 
L 229.590485 -281.974031 
L 230.366132 -279.395017 
L 231.141778 -276.848897 
L 231.917424 -274.336193 
L 232.693071 -271.857376 
L 233.468717 -269.412863 
L 234.244364 -267.00302 
L 235.02001 -264.628168 
L 235.795656 -262.288578 
L 236.571303 -259.984475 
L 237.346949 -257.716042 
L 238.122595 -255.483419 
L 238.898242 -253.286705 
L 239.673888 -251.125962 
L 240.449535 -249.001212 
L 241.225181 -246.912443 
L 242.000827 -244.85961 
L 242.776474 -242.842635 
L 243.55212 -240.86141 
L 244.327766 -238.915795 
L 245.103413 -237.005627 
L 245.879059 -235.130714 
L 246.654705 -233.290841 
L 247.430352 -231.485769 
L 248.205998 -229.715239 
L 248.981645 -227.97897 
L 249.757291 -226.276664 
L 250.532937 -224.608004 
L 251.308584 -222.972658 
L 252.08423 -221.370278 
L 252.859876 -219.800504 
L 253.635523 -218.262961 
L 254.411169 -216.757265 
L 255.186816 -215.283019 
L 255.962462 -213.839818 
L 256.738108 -212.427249 
L 257.513755 -211.04489 
L 258.289401 -209.692315 
L 259.065047 -208.369088 
L 259.840694 -207.074773 
L 260.61634 -205.808925 
L 261.391987 -204.5711 
L 262.167633 -203.360849 
L 262.943279 -202.17772 
L 263.718926 -201.021262 
L 264.494572 -199.891021 
L 265.270218 -198.786544 
L 266.045865 -197.707378 
L 266.821511 -196.653071 
L 267.597158 -195.623172 
L 268.372804 -194.61723 
L 269.14845 -193.634799 
L 269.924097 -192.675434 
L 270.699743 -191.738693 
L 271.475389 -190.824136 
L 272.251036 -189.931328 
L 273.026682 -189.059838 
L 273.802329 -188.209237 
L 274.577975 -187.379103 
L 275.353621 -186.569015 
L 276.129268 -185.778559 
L 276.904914 -185.007327 
L 277.68056 -184.254912 
L 278.456207 -183.520916 
L 279.231853 -182.804944 
L 280.007499 -182.106608 
L 280.783146 -181.425524 
L 281.558792 -180.761315 
L 282.334439 -180.113608 
L 283.110085 -179.482038 
L 283.885731 -178.866243 
L 284.661378 -178.265869 
L 285.437024 -177.680567 
L 286.21267 -177.109995 
L 286.988317 -176.553815 
L 287.763963 -176.011696 
L 288.53961 -175.483313 
L 289.315256 -174.968346 
L 290.090902 -174.466482 
L 290.866549 -173.977414 
L 291.642195 -173.50084 
L 292.417841 -173.036463 
L 293.193488 -172.583995 
L 293.969134 -172.143149 
L 294.744781 -171.713648 
L 295.520427 -171.295218 
L 296.296073 -170.887592 
L 297.07172 -170.490507 
L 297.847366 -170.103707 
L 298.623012 -169.726941 
L 299.398659 -169.359963 
L 300.174305 -169.002532 
L 300.949952 -168.654413 
L 301.725598 -168.315375 
L 302.501244 -167.985193 
L 303.276891 -167.663647 
L 304.052537 -167.350521 
L 304.828183 -167.045605 
L 305.60383 -166.748692 
L 306.379476 -166.459582 
L 307.155122 -166.178077 
L 307.930769 -165.903987 
L 308.706415 -165.637122 
L 309.482062 -165.377299 
L 310.257708 -165.12434 
L 311.033354 -164.87807 
L 311.809001 -164.638318 
L 312.584647 -164.404916 
L 313.360293 -164.177703 
L 314.13594 -163.956518 
L 314.911586 -163.741208 
L 315.687233 -163.531621 
L 316.462879 -163.327609 
L 317.238525 -163.129028 
L 318.014172 -162.935737 
L 318.789818 -162.747599 
L 319.565464 -162.56448 
L 320.341111 -162.386249 
L 321.116757 -162.21278 
L 321.892404 -162.043948 
L 322.66805 -161.879632 
L 323.443696 -161.719713 
L 324.219343 -161.564078 
L 324.994989 -161.412612 
L 325.770635 -161.265207 
L 326.546282 -161.121757 
L 327.321928 -160.982156 
L 328.097575 -160.846304 
L 328.873221 -160.714102 
L 329.648867 -160.585454 
L 330.424514 -160.460265 
L 331.20016 -160.338444 
L 331.975806 -160.219902 
L 332.751453 -160.104553 
L 333.527099 -159.99231 
L 334.302746 -159.883093 
L 335.078392 -159.776821 
L 335.854038 -159.673414 
L 336.629685 -159.572798 
L 337.405331 -159.474898 
L 338.180977 -159.379641 
L 338.956624 -159.286957 
L 339.73227 -159.196778 
L 340.507916 -159.109036 
L 341.283563 -159.023666 
L 342.059209 -158.940605 
L 342.834856 -158.859792 
L 343.610502 -158.781165 
L 344.386148 -158.704667 
L 345.161795 -158.63024 
L 345.937441 -158.557829 
L 346.713087 -158.487379 
L 347.488734 -158.418839 
L 348.26438 -158.352156 
L 349.040027 -158.287282 
L 349.815673 -158.224166 
L 350.591319 -158.162763 
L 351.366966 -158.103026 
L 352.142612 -158.044909 
L 352.918258 -157.98837 
L 353.693905 -157.933366 
L 354.469551 -157.879856 
L 355.245198 -157.827798 
L 356.020844 -157.777155 
L 356.79649 -157.727888 
L 357.572137 -157.679959 
L 358.347783 -157.633333 
L 359.123429 -157.587975 
L 359.899076 -157.543849 
L 360.674722 -157.500924 
L 361.450369 -157.459165 
L 362.226015 -157.418543 
L 363.001661 -157.379025 
L 363.777308 -157.340583 
L 364.552954 -157.303187 
L 365.3286 -157.266809 
L 366.104247 -157.23142 
L 366.879893 -157.196995 
L 367.65554 -157.163508 
L 368.431186 -157.130932 
L 369.206832 -157.099243 
L 369.982479 -157.068417 
L 370.758125 -157.038431 
L 371.533771 -157.009262 
L 372.309418 -156.980887 
L 373.085064 -156.953286 
L 373.86071 -156.926436 
L 374.636357 -156.900319 
L 375.412003 -156.874913 
L 376.18765 -156.850199 
L 376.963296 -156.826159 
L 377.738942 -156.802775 
L 378.514589 -156.780028 
L 379.290235 -156.757901 
L 380.065881 -156.736378 
L 380.841528 -156.715442 
L 381.617174 -156.695076 
L 382.392821 -156.675267 
L 383.168467 -156.655997 
L 383.944113 -156.637253 
L 384.71976 -156.61902 
L 385.495406 -156.601285 
L 386.271052 -156.584034 
L 387.046699 -156.567253 
L 387.822345 -156.550931 
L 388.597992 -156.535053 
L 389.373638 -156.519609 
L 390.149284 -156.504587 
L 390.924931 -156.489974 
L 391.700577 -156.47576 
L 392.476223 -156.461935 
L 393.25187 -156.448486 
L 394.027516 -156.435405 
L 394.803163 -156.422681 
L 395.578809 -156.410304 
L 396.354455 -156.398266 
L 397.130102 -156.386556 
L 397.905748 -156.375165 
L 398.681394 -156.364086 
L 399.457041 -156.353309 
L 400.232687 -156.342827 
L 401.008334 -156.33263 
L 401.78398 -156.322712 
L 402.559626 -156.313066 
L 403.335273 -156.303682 
L 404.110919 -156.294555 
L 404.886565 -156.285677 
L 405.662212 -156.277042 
L 406.437858 -156.268642 
L 407.213504 -156.260472 
L 407.989151 -156.252525 
L 408.764797 -156.244795 
L 409.540444 -156.237277 
L 410.31609 -156.229963 
L 411.091736 -156.22285 
L 411.867383 -156.215931 
L 412.643029 -156.209201 
L 413.418675 -156.202655 
L 414.194322 -156.196287 
L 414.969968 -156.190094 
L 415.745615 -156.18407 
L 416.521261 -156.17821 
L 417.296907 -156.172511 
L 418.072554 -156.166967 
L 418.8482 -156.161575 
L 419.623846 -156.15633 
L 420.399493 -156.151229 
L 421.175139 -156.146266 
L 421.950786 -156.14144 
L 422.726432 -156.136745 
L 423.502078 -156.132179 
L 424.277725 -156.127738 
L 425.053371 -156.123417 
L 425.829017 -156.119215 
L 426.604664 -156.115128 
L 427.38031 -156.111153 
L 428.155957 -156.107286 
L 428.931603 -156.103525 
L 429.707249 -156.099866 
L 430.482896 -156.096308 
L 431.258542 -156.092847 
L 432.034188 -156.08948 
L 432.809835 -156.086206 
L 433.585481 -156.083021 
L 434.361128 -156.079923 
L 435.136774 -156.07691 
L 435.91242 -156.073979 
L 436.688067 -156.071128 
L 437.463713 -156.068355 
L 438.239359 -156.065658 
L 439.015006 -156.063035 
L 439.790652 -156.060483 
L 440.566298 -156.058001 
L 441.341945 -156.055587 
L 442.117591 -156.053239 
L 442.893238 -156.050955 
L 443.668884 -156.048734 
L 444.44453 -156.046573 
L 445.220177 -156.044472 
L 445.995823 -156.042427 
L 446.771469 -156.040439 
L 447.547116 -156.038505 
L 448.322762 -156.036624 
L 449.098409 -156.034795 
L 449.874055 -156.033015 
L 450.649701 -156.031284 
L 451.425348 -156.0296 
L 452.200994 -156.027963 
L 452.97664 -156.02637 
L 453.752287 -156.024821 
L 454.527933 -156.023314 
L 455.30358 -156.021848 
L 456.079226 -156.020422 
L 456.854872 -156.019036 
L 457.630519 -156.017687 
L 458.406165 -156.016375 
L 459.181811 -156.015099 
L 459.957458 -156.013858 
L 460.733104 -156.012651 
L 461.508751 -156.011477 
L 462.284397 -156.010335 
L 463.060043 -156.009224 
L 463.83569 -156.008143 
L 464.611336 -156.007092 
L 465.386982 -156.00607 
L 466.162629 -156.005076 
L 466.938275 -156.004109 
L 467.713921 -156.003168 
L 468.489568 -156.002253 
L 469.265214 -156.001363 
L 470.040861 -156.000498 
L 470.816507 -155.999656 
L 471.592153 -155.998837 
L 472.3678 -155.99804 
L 473.143446 -155.997266 
L 473.919092 -155.996512 
L 474.694739 -155.995779 
L 475.470385 -155.995066 
L 476.246032 -155.994373 
L 477.021678 -155.993698 
L 477.797324 -155.993042 
L 478.572971 -155.992404 
L 479.348617 -155.991784 
L 480.124263 -155.99118 
L 480.89991 -155.990593 
L 481.675556 -155.990022 
L 482.451203 -155.989466 
L 483.226849 -155.988926 
L 484.002495 -155.988401 
L 484.778142 -155.987889 
L 485.553788 -155.987392 
L 486.329434 -155.986909 
L 487.105081 -155.986438 
L 487.880727 -155.985981 
L 488.656374 -155.985536 
L 489.43202 -155.985103 
L 490.207666 -155.984682 
L 490.983313 -155.984273 
L 491.758959 -155.983874 
L 492.534605 -155.983487 
L 493.310252 -155.98311 
L 494.085898 -155.982744 
L 494.861545 -155.982387 
L 495.637191 -155.982041 
L 496.412837 -155.981703 
L 497.188484 -155.981375 
L 497.96413 -155.981056 
L 498.739776 -155.980746 
L 499.515423 -155.980444 
L 500.291069 -155.980151 
L 501.066715 -155.979865 
L 501.842362 -155.979587 
L 502.618008 -155.979317 
L 503.393655 -155.979054 
L 504.169301 -155.978799 
L 504.944947 -155.97855 
L 505.720594 -155.978308 
L 506.49624 -155.978073 
L 507.271886 -155.977844 
L 508.047533 -155.977622 
L 508.823179 -155.977406 
L 509.598826 -155.977195 
L 510.374472 -155.97699 
L 511.150118 -155.976791 
L 511.925765 -155.976597 
L 512.701411 -155.976409 
L 513.477057 -155.976226 
L 514.252704 -155.976048 
L 515.02835 -155.975874 
L 515.803997 -155.975706 
L 516.579643 -155.975542 
L 517.355289 -155.975382 
L 518.130936 -155.975227 
L 518.906582 -155.975076 
L 519.682228 -155.974929 
L 520.457875 -155.974786 
L 521.233521 -155.974648 
L 522.009168 -155.974512 
L 522.784814 -155.974381 
L 523.56046 -155.974253 
L 524.336107 -155.974129 
L 525.111753 -155.974008 
L 525.887399 -155.97389 
L 526.663046 -155.973776 
L 527.438692 -155.973665 
L 528.214339 -155.973557 
L 528.989985 -155.973451 
L 529.765631 -155.973349 
L 530.541278 -155.973249 
L 531.316924 -155.973153 
L 532.09257 -155.973058 
L 532.868217 -155.972967 
L 533.643863 -155.972878 
L 534.419509 -155.972791 
L 535.195156 -155.972707 
L 535.970802 -155.972625 
L 536.746449 -155.972545 
L 537.522095 -155.972467 
L 538.297741 -155.972392 
L 539.073388 -155.972318 
L 539.849034 -155.972247 
L 540.62468 -155.972178 
L 541.400327 -155.97211 
L 542.175973 -155.972044 
L 542.95162 -155.971981 
L 543.727266 -155.971918 
L 544.502912 -155.971858 
L 545.278559 -155.971799 
L 546.054205 -155.971742 
L 546.829851 -155.971686 
L 547.605498 -155.971632 
L 548.381144 -155.97158 
L 549.156791 -155.971528 
L 549.932437 -155.971479 
L 550.708083 -155.97143 
L 551.48373 -155.971383 
L 552.259376 -155.971337 
L 553.035022 -155.971293 
L 553.810669 -155.971249 
L 554.586315 -155.971207 
L 555.361962 -155.971166 
L 556.137608 -155.971126 
L 556.913254 -155.971088 
L 557.688901 -155.97105 
L 558.464547 -155.971013 
L 559.240193 -155.970977 
L 560.01584 -155.970943 
L 560.791486 -155.970909 
L 561.567133 -155.970876 
L 562.342779 -155.970844 
L 563.118425 -155.970813 
L 563.894072 -155.970783 
L 564.669718 -155.970753 
L 565.445364 -155.970725 
L 566.221011 -155.970697 
L 566.996657 -155.97067 
L 567.772303 -155.970644 
L 568.54795 -155.970618 
L 569.323596 -155.970593 
L 570.099243 -155.970569 
L 570.874889 -155.970545 
L 571.650535 -155.970523 
L 572.426182 -155.9705 
L 573.201828 -155.970479 
L 573.977474 -155.970457 
L 574.753121 -155.970437 
L 575.528767 -155.970417 
L 576.304414 -155.970398 
L 577.08006 -155.970379 
L 577.855706 -155.97036 
L 578.631353 -155.970343 
L 579.406999 -155.970325 
L 580.182645 -155.970308 
L 580.958292 -155.970292 
L 581.733938 -155.970276 
L 582.509585 -155.97026 
L 583.285231 -155.970245 
L 584.060877 -155.970231 
L 584.836524 -155.970216 
L 585.61217 -155.970202 
L 586.387816 -155.970189 
L 587.163463 -155.970176 
L 587.939109 -155.970163 
L 588.714756 -155.97015 
L 589.490402 -155.970138 
L 590.266048 -155.970127 
L 591.041695 -155.970115 
L 591.817341 -155.970104 
L 592.592987 -155.970093 
L 593.368634 -155.970083 
L 594.14428 -155.970072 
L 594.919927 -155.970062 
L 595.695573 -155.970053 
L 596.471219 -155.970043 
L 597.246866 -155.970034 
L 598.022512 -155.970025 
L 598.798158 -155.970016 
L 599.573805 -155.970008 
L 600.349451 -155.97 
L 601.125097 -155.969992 
L 601.900744 -155.969984 
L 602.67639 -155.969977 
L 603.452037 -155.969969 
L 604.227683 -155.969962 
L 605.003329 -155.969955 
L 605.778976 -155.969948 
L 606.554622 -155.969942 
L 607.330268 -155.969935 
L 608.105915 -155.969929 
L 608.881561 -155.969923 
L 609.657208 -155.969917 
L 610.432854 -155.969911 
L 611.2085 -155.969906 
L 611.984147 -155.9699 
L 612.759793 -155.969895 
L 613.535439 -155.96989 
L 614.311086 -155.969885 
L 615.086732 -155.96988 
L 615.862379 -155.969875 
L 616.638025 -155.969871 
L 617.413671 -155.969866 
L 618.189318 -155.969862 
L 618.964964 -155.969858 
L 619.74061 -155.969854 
L 620.516257 -155.96985 
L 621.291903 -155.969846 
L 622.06755 -155.969842 
L 622.843196 -155.969838 
L 623.618842 -155.969835 
L 624.394489 -155.969831 
L 624.394489 -166.656994 
L 624.394489 -166.656994 
L 623.618842 -166.76277 
L 622.843196 -166.869572 
L 622.06755 -166.977409 
L 621.291903 -167.08629 
L 620.516257 -167.196225 
L 619.74061 -167.307225 
L 618.964964 -167.419298 
L 618.189318 -167.532455 
L 617.413671 -167.646706 
L 616.638025 -167.762061 
L 615.862379 -167.87853 
L 615.086732 -167.996123 
L 614.311086 -168.11485 
L 613.535439 -168.234723 
L 612.759793 -168.35575 
L 611.984147 -168.477944 
L 611.2085 -168.601315 
L 610.432854 -168.725873 
L 609.657208 -168.85163 
L 608.881561 -168.978596 
L 608.105915 -169.106782 
L 607.330268 -169.236199 
L 606.554622 -169.366859 
L 605.778976 -169.498773 
L 605.003329 -169.631952 
L 604.227683 -169.766408 
L 603.452037 -169.902152 
L 602.67639 -170.039195 
L 601.900744 -170.177551 
L 601.125097 -170.31723 
L 600.349451 -170.458244 
L 599.573805 -170.600606 
L 598.798158 -170.744327 
L 598.022512 -170.889419 
L 597.246866 -171.035896 
L 596.471219 -171.183769 
L 595.695573 -171.333051 
L 594.919927 -171.483754 
L 594.14428 -171.635891 
L 593.368634 -171.789475 
L 592.592987 -171.944519 
L 591.817341 -172.101036 
L 591.041695 -172.259038 
L 590.266048 -172.418538 
L 589.490402 -172.579551 
L 588.714756 -172.74209 
L 587.939109 -172.906167 
L 587.163463 -173.071797 
L 586.387816 -173.238992 
L 585.61217 -173.407768 
L 584.836524 -173.578137 
L 584.060877 -173.750113 
L 583.285231 -173.923711 
L 582.509585 -174.098945 
L 581.733938 -174.275829 
L 580.958292 -174.454377 
L 580.182645 -174.634603 
L 579.406999 -174.816523 
L 578.631353 -175.000151 
L 577.855706 -175.185501 
L 577.08006 -175.372589 
L 576.304414 -175.56143 
L 575.528767 -175.752037 
L 574.753121 -175.944427 
L 573.977474 -176.138615 
L 573.201828 -176.334616 
L 572.426182 -176.532446 
L 571.650535 -176.73212 
L 570.874889 -176.933654 
L 570.099243 -177.137063 
L 569.323596 -177.342363 
L 568.54795 -177.549571 
L 567.772303 -177.758702 
L 566.996657 -177.969773 
L 566.221011 -178.1828 
L 565.445364 -178.397799 
L 564.669718 -178.614786 
L 563.894072 -178.833779 
L 563.118425 -179.054793 
L 562.342779 -179.277847 
L 561.567133 -179.502955 
L 560.791486 -179.730136 
L 560.01584 -179.959407 
L 559.240193 -180.190785 
L 558.464547 -180.424286 
L 557.688901 -180.659929 
L 556.913254 -180.89773 
L 556.137608 -181.137708 
L 555.361962 -181.37988 
L 554.586315 -181.624264 
L 553.810669 -181.870878 
L 553.035022 -182.119739 
L 552.259376 -182.370865 
L 551.48373 -182.624276 
L 550.708083 -182.879989 
L 549.932437 -183.138022 
L 549.156791 -183.398394 
L 548.381144 -183.661124 
L 547.605498 -183.926229 
L 546.829851 -184.193729 
L 546.054205 -184.463643 
L 545.278559 -184.735989 
L 544.502912 -185.010787 
L 543.727266 -185.288055 
L 542.95162 -185.567813 
L 542.175973 -185.85008 
L 541.400327 -186.134875 
L 540.62468 -186.422218 
L 539.849034 -186.712129 
L 539.073388 -187.004626 
L 538.297741 -187.299729 
L 537.522095 -187.597459 
L 536.746449 -187.897835 
L 535.970802 -188.200877 
L 535.195156 -188.506606 
L 534.419509 -188.81504 
L 533.643863 -189.126201 
L 532.868217 -189.440108 
L 532.09257 -189.756782 
L 531.316924 -190.076243 
L 530.541278 -190.398512 
L 529.765631 -190.723609 
L 528.989985 -191.051555 
L 528.214339 -191.38237 
L 527.438692 -191.716075 
L 526.663046 -192.052692 
L 525.887399 -192.39224 
L 525.111753 -192.73474 
L 524.336107 -193.080214 
L 523.56046 -193.428682 
L 522.784814 -193.780166 
L 522.009168 -194.134687 
L 521.233521 -194.492265 
L 520.457875 -194.852923 
L 519.682228 -195.21668 
L 518.906582 -195.583559 
L 518.130936 -195.953581 
L 517.355289 -196.326767 
L 516.579643 -196.703138 
L 515.803997 -197.082717 
L 515.02835 -197.465524 
L 514.252704 -197.85158 
L 513.477057 -198.240908 
L 512.701411 -198.633529 
L 511.925765 -199.029464 
L 511.150118 -199.428735 
L 510.374472 -199.831363 
L 509.598826 -200.23737 
L 508.823179 -200.646778 
L 508.047533 -201.059608 
L 507.271886 -201.475882 
L 506.49624 -201.895621 
L 505.720594 -202.318847 
L 504.944947 -202.745581 
L 504.169301 -203.175845 
L 503.393655 -203.60966 
L 502.618008 -204.047048 
L 501.842362 -204.488031 
L 501.066715 -204.932629 
L 500.291069 -205.380864 
L 499.515423 -205.832758 
L 498.739776 -206.288332 
L 497.96413 -206.747606 
L 497.188484 -207.210603 
L 496.412837 -207.677343 
L 495.637191 -208.147848 
L 494.861545 -208.622138 
L 494.085898 -209.100234 
L 493.310252 -209.582158 
L 492.534605 -210.067931 
L 491.758959 -210.557572 
L 490.983313 -211.051102 
L 490.207666 -211.548543 
L 489.43202 -212.049914 
L 488.656374 -212.555236 
L 487.880727 -213.064528 
L 487.105081 -213.577813 
L 486.329434 -214.095108 
L 485.553788 -214.616434 
L 484.778142 -215.141811 
L 484.002495 -215.671258 
L 483.226849 -216.204795 
L 482.451203 -216.742442 
L 481.675556 -217.284216 
L 480.89991 -217.830138 
L 480.124263 -218.380225 
L 479.348617 -218.934498 
L 478.572971 -219.492973 
L 477.797324 -220.05567 
L 477.021678 -220.622606 
L 476.246032 -221.193799 
L 475.470385 -221.769268 
L 474.694739 -222.349029 
L 473.919092 -222.9331 
L 473.143446 -223.521497 
L 472.3678 -224.114238 
L 471.592153 -224.711338 
L 470.816507 -225.312815 
L 470.040861 -225.918684 
L 469.265214 -226.528961 
L 468.489568 -227.143662 
L 467.713921 -227.762801 
L 466.938275 -228.386393 
L 466.162629 -229.014454 
L 465.386982 -229.646997 
L 464.611336 -230.284036 
L 463.83569 -230.925586 
L 463.060043 -231.571659 
L 462.284397 -232.222268 
L 461.508751 -232.877426 
L 460.733104 -233.537145 
L 459.957458 -234.201438 
L 459.181811 -234.870315 
L 458.406165 -235.543788 
L 457.630519 -236.221867 
L 456.854872 -236.904564 
L 456.079226 -237.591887 
L 455.30358 -238.283847 
L 454.527933 -238.980453 
L 453.752287 -239.681712 
L 452.97664 -240.387635 
L 452.200994 -241.098227 
L 451.425348 -241.813497 
L 450.649701 -242.533451 
L 449.874055 -243.258096 
L 449.098409 -243.987438 
L 448.322762 -244.721481 
L 447.547116 -245.460231 
L 446.771469 -246.203692 
L 445.995823 -246.951868 
L 445.220177 -247.704762 
L 444.44453 -248.462376 
L 443.668884 -249.224713 
L 442.893238 -249.991774 
L 442.117591 -250.76356 
L 441.341945 -251.540072 
L 440.566298 -252.321309 
L 439.790652 -253.10727 
L 439.015006 -253.897954 
L 438.239359 -254.693358 
L 437.463713 -255.49348 
L 436.688067 -256.298317 
L 435.91242 -257.107864 
L 435.136774 -257.922116 
L 434.361128 -258.741068 
L 433.585481 -259.564713 
L 432.809835 -260.393046 
L 432.034188 -261.226057 
L 431.258542 -262.06374 
L 430.482896 -262.906084 
L 429.707249 -263.753079 
L 428.931603 -264.604716 
L 428.155957 -265.460982 
L 427.38031 -266.321866 
L 426.604664 -267.187355 
L 425.829017 -268.057434 
L 425.053371 -268.93209 
L 424.277725 -269.811306 
L 423.502078 -270.695067 
L 422.726432 -271.583355 
L 421.950786 -272.476152 
L 421.175139 -273.37344 
L 420.399493 -274.275199 
L 419.623846 -275.181409 
L 418.8482 -276.092047 
L 418.072554 -277.007092 
L 417.296907 -277.92652 
L 416.521261 -278.850307 
L 415.745615 -279.778427 
L 414.969968 -280.710856 
L 414.194322 -281.647565 
L 413.418675 -282.588527 
L 412.643029 -283.533714 
L 411.867383 -284.483094 
L 411.091736 -285.436637 
L 410.31609 -286.394311 
L 409.540444 -287.356084 
L 408.764797 -288.321921 
L 407.989151 -289.291788 
L 407.213504 -290.265649 
L 406.437858 -291.243466 
L 405.662212 -292.225203 
L 404.886565 -293.210819 
L 404.110919 -294.200275 
L 403.335273 -295.19353 
L 402.559626 -296.190542 
L 401.78398 -297.191268 
L 401.008334 -298.195662 
L 400.232687 -299.203681 
L 399.457041 -300.215277 
L 398.681394 -301.230404 
L 397.905748 -302.249012 
L 397.130102 -303.271052 
L 396.354455 -304.296474 
L 395.578809 -305.325225 
L 394.803163 -306.357253 
L 394.027516 -307.392504 
L 393.25187 -308.430922 
L 392.476223 -309.472453 
L 391.700577 -310.517037 
L 390.924931 -311.564618 
L 390.149284 -312.615135 
L 389.373638 -313.668529 
L 388.597992 -314.724737 
L 387.822345 -315.783696 
L 387.046699 -316.845344 
L 386.271052 -317.909616 
L 385.495406 -318.976444 
L 384.71976 -320.045763 
L 383.944113 -321.117503 
L 383.168467 -322.191597 
L 382.392821 -323.267974 
L 381.617174 -324.346562 
L 380.841528 -325.427289 
L 380.065881 -326.510082 
L 379.290235 -327.594866 
L 378.514589 -328.681566 
L 377.738942 -329.770105 
L 376.963296 -330.860407 
L 376.18765 -331.952391 
L 375.412003 -333.045979 
L 374.636357 -334.141091 
L 373.86071 -335.237644 
L 373.085064 -336.335557 
L 372.309418 -337.434745 
L 371.533771 -338.535126 
L 370.758125 -339.636612 
L 369.982479 -340.739119 
L 369.206832 -341.842559 
L 368.431186 -342.946845 
L 367.65554 -344.051886 
L 366.879893 -345.157595 
L 366.104247 -346.263879 
L 365.3286 -347.370649 
L 364.552954 -348.477811 
L 363.777308 -349.585273 
L 363.001661 -350.692942 
L 362.226015 -351.800722 
L 361.450369 -352.908519 
L 360.674722 -354.016237 
L 359.899076 -355.123779 
L 359.123429 -356.231049 
L 358.347783 -357.337948 
L 357.572137 -358.444378 
L 356.79649 -359.550241 
L 356.020844 -360.655436 
L 355.245198 -361.759863 
L 354.469551 -362.863423 
L 353.693905 -363.966014 
L 352.918258 -365.067534 
L 352.142612 -366.167882 
L 351.366966 -367.266955 
L 350.591319 -368.364651 
L 349.815673 -369.460866 
L 349.040027 -370.555498 
L 348.26438 -371.648443 
L 347.488734 -372.739596 
L 346.713087 -373.828854 
L 345.937441 -374.916113 
L 345.161795 -376.001268 
L 344.386148 -377.084215 
L 343.610502 -378.164848 
L 342.834856 -379.243065 
L 342.059209 -380.318759 
L 341.283563 -381.391826 
L 340.507916 -382.462162 
L 339.73227 -383.529662 
L 338.956624 -384.594222 
L 338.180977 -385.655738 
L 337.405331 -386.714105 
L 336.629685 -387.76922 
L 335.854038 -388.820979 
L 335.078392 -389.86928 
L 334.302746 -390.914019 
L 333.527099 -391.955093 
L 332.751453 -392.992402 
L 331.975806 -394.025843 
L 331.20016 -395.055316 
L 330.424514 -396.080719 
L 329.648867 -397.101953 
L 328.873221 -398.118919 
L 328.097575 -399.131517 
L 327.321928 -400.139651 
L 326.546282 -401.143222 
L 325.770635 -402.142134 
L 324.994989 -403.136292 
L 324.219343 -404.125601 
L 323.443696 -405.109966 
L 322.66805 -406.089296 
L 321.892404 -407.063497 
L 321.116757 -408.032479 
L 320.341111 -408.996151 
L 319.565464 -409.954426 
L 318.789818 -410.907215 
L 318.014172 -411.854431 
L 317.238525 -412.795989 
L 316.462879 -413.731805 
L 315.687233 -414.661796 
L 314.911586 -415.585879 
L 314.13594 -416.503976 
L 313.360293 -417.416006 
L 312.584647 -418.321893 
L 311.809001 -419.221559 
L 311.033354 -420.114931 
L 310.257708 -421.001936 
L 309.482062 -421.882501 
L 308.706415 -422.756556 
L 307.930769 -423.624033 
L 307.155122 -424.484866 
L 306.379476 -425.338988 
L 305.60383 -426.186337 
L 304.828183 -427.02685 
L 304.052537 -427.860468 
L 303.276891 -428.687132 
L 302.501244 -429.506785 
L 301.725598 -430.319373 
L 300.949952 -431.124843 
L 300.174305 -431.923144 
L 299.398659 -432.714226 
L 298.623012 -433.498043 
L 297.847366 -434.274549 
L 297.07172 -435.0437 
L 296.296073 -435.805455 
L 295.520427 -436.559775 
L 294.744781 -437.306621 
L 293.969134 -438.045959 
L 293.193488 -438.777755 
L 292.417841 -439.501978 
L 291.642195 -440.218597 
L 290.866549 -440.927585 
L 290.090902 -441.628917 
L 289.315256 -442.322571 
L 288.53961 -443.008523 
L 287.763963 -443.686756 
L 286.988317 -444.357251 
L 286.21267 -445.019995 
L 285.437024 -445.674973 
L 284.661378 -446.322175 
L 283.885731 -446.961593 
L 283.110085 -447.593219 
L 282.334439 -448.217048 
L 281.558792 -448.833079 
L 280.783146 -449.44131 
L 280.007499 -450.041742 
L 279.231853 -450.63438 
L 278.456207 -451.219229 
L 277.68056 -451.796297 
L 276.904914 -452.365592 
L 276.129268 -452.927126 
L 275.353621 -453.480914 
L 274.577975 -454.02697 
L 273.802329 -454.565311 
L 273.026682 -455.095958 
L 272.251036 -455.618931 
L 271.475389 -456.134254 
L 270.699743 -456.641952 
L 269.924097 -457.14205 
L 269.14845 -457.634579 
L 268.372804 -458.119569 
L 267.597158 -458.597051 
L 266.821511 -459.06706 
L 266.045865 -459.529631 
L 265.270218 -459.984803 
L 264.494572 -460.432613 
L 263.718926 -460.873102 
L 262.943279 -461.306314 
L 262.167633 -461.732291 
L 261.391987 -462.151079 
L 260.61634 -462.562725 
L 259.840694 -462.967277 
L 259.065047 -463.364785 
L 258.289401 -463.7553 
L 257.513755 -464.138874 
L 256.738108 -464.515562 
L 255.962462 -464.885419 
L 255.186816 -465.248501 
L 254.411169 -465.604864 
L 253.635523 -465.954569 
L 252.859876 -466.297675 
L 252.08423 -466.634243 
L 251.308584 -466.964335 
L 250.532937 -467.288014 
L 249.757291 -467.605344 
L 248.981645 -467.91639 
L 248.205998 -468.221217 
L 247.430352 -468.519892 
L 246.654705 -468.812483 
L 245.879059 -469.099058 
L 245.103413 -469.379686 
L 244.327766 -469.654436 
L 243.55212 -469.923378 
L 242.776474 -470.186584 
L 242.000827 -470.444124 
L 241.225181 -470.696071 
L 240.449535 -470.942497 
L 239.673888 -471.183474 
L 238.898242 -471.419077 
L 238.122595 -471.649377 
L 237.346949 -471.87445 
L 236.571303 -472.094368 
L 235.795656 -472.309208 
L 235.02001 -472.519042 
L 234.244364 -472.723945 
L 233.468717 -472.923993 
L 232.693071 -473.11926 
L 231.917424 -473.309821 
L 231.141778 -473.495751 
L 230.366132 -473.677124 
L 229.590485 -473.854015 
L 228.814839 -474.0265 
L 228.039193 -474.194651 
L 227.263546 -474.358545 
L 226.4879 -474.518254 
L 225.712253 -474.673852 
L 224.936607 -474.825413 
L 224.160961 -474.973011 
L 223.385314 -475.116718 
L 222.609668 -475.256607 
L 221.834022 -475.392749 
L 221.058375 -475.525217 
L 220.282729 -475.654082 
L 219.507082 -475.779415 
L 218.731436 -475.901285 
L 217.95579 -476.019763 
L 217.180143 -476.134918 
L 216.404497 -476.246818 
L 215.628851 -476.355531 
L 214.853204 -476.461125 
L 214.077558 -476.563667 
L 213.301911 -476.663222 
L 212.526265 -476.759856 
L 211.750619 -476.853634 
L 210.974972 -476.94462 
L 210.199326 -477.032877 
L 209.42368 -477.118467 
L 208.648033 -477.201452 
L 207.872387 -477.281894 
L 207.096741 -477.359852 
L 206.321094 -477.435386 
L 205.545448 -477.508555 
L 204.769801 -477.579416 
L 203.994155 -477.648026 
L 203.218509 -477.714441 
L 202.442862 -477.778717 
L 201.667216 -477.840908 
L 200.89157 -477.901067 
L 200.115923 -477.959248 
L 199.340277 -478.015501 
L 198.56463 -478.069879 
L 197.788984 -478.122431 
L 197.013338 -478.173206 
L 196.237691 -478.222253 
L 195.462045 -478.269619 
L 194.686399 -478.315351 
L 193.910752 -478.359494 
L 193.135106 -478.402094 
L 192.359459 -478.443193 
L 191.583813 -478.482836 
L 190.808167 -478.521064 
L 190.03252 -478.557919 
L 189.256874 -478.593442 
L 188.481228 -478.627671 
L 187.705581 -478.660646 
L 186.929935 -478.692404 
L 186.154288 -478.722983 
L 185.378642 -478.752419 
L 184.602996 -478.780747 
L 183.827349 -478.808001 
L 183.051703 -478.834217 
L 182.276057 -478.859426 
L 181.50041 -478.88366 
L 180.724764 -478.906952 
L 179.949117 -478.929331 
L 179.173471 -478.950828 
L 178.397825 -478.971471 
L 177.622178 -478.99129 
L 176.846532 -479.01031 
L 176.070886 -479.02856 
L 175.295239 -479.046065 
L 174.519593 -479.062851 
L 173.743947 -479.078942 
L 172.9683 -479.094362 
L 172.192654 -479.109136 
L 171.417007 -479.123284 
L 170.641361 -479.13683 
L 169.865715 -479.149795 
L 169.090068 -479.162199 
L 168.314422 -479.174062 
L 167.538776 -479.185405 
L 166.763129 -479.196245 
L 165.987483 -479.206601 
L 165.211836 -479.21649 
L 164.43619 -479.225931 
L 163.660544 -479.234938 
L 162.884897 -479.243529 
L 162.109251 -479.251718 
L 161.333605 -479.259521 
L 160.557958 -479.266951 
L 159.782312 -479.274023 
L 159.006665 -479.28075 
L 158.231019 -479.287143 
L 157.455373 -479.293217 
L 156.679726 -479.298982 
L 155.90408 -479.304449 
L 155.128434 -479.309629 
L 154.352787 -479.314533 
L 153.577141 -479.319169 
L 152.801494 -479.323547 
L 152.025848 -479.327675 
L 151.250202 -479.331562 
L 150.474555 -479.335214 
L 149.698909 -479.338638 
L 148.923263 -479.34184 
L 148.147616 -479.344827 
L 147.37197 -479.347601 
L 146.596323 -479.350167 
L 145.820677 -479.352529 
L 145.045031 -479.354687 
L 144.269384 -479.356642 
L 143.493738 -479.358394 
L 142.718092 -479.359941 
L 141.942445 -479.361278 
L 141.166799 -479.362401 
L 140.391153 -479.363299 
L 139.615506 -479.363963 
L 138.83986 -479.364376 
L 138.064213 -479.364519 
L 137.288567 -479.364366 
L 136.512921 -479.364136 
L 135.737274 -479.364475 
L 134.961628 -479.364473 
L 134.185982 -479.364088 
L 133.410335 -479.364304 
L 132.634689 -479.364519 
L 131.859042 -479.364282 
L 131.083396 -479.363916 
L 130.30775 -479.364448 
L 129.532103 -479.364444 
L 128.756457 -479.363794 
L 127.980811 -479.364151 
L 127.205164 -479.364519 
L 126.429518 -479.364085 
L 125.653871 -479.362601 
L 124.878225 -479.359682 
L 124.102579 -479.354697 
L 123.326932 -479.346568 
L 122.551286 -479.333327 
L 121.77564 -479.311105 
L 120.999993 -479.271538 
L 120.224347 -479.194192 
L 119.4487 -479.020353 
L 118.673054 -478.538634 
L 117.897408 -476.684687 
L 117.121761 -464.06096 
z
" style="stroke: #ffa500; stroke-opacity: 0.3"/>
    </defs>
    <g clip-path="url(#p1a39dfb1a3)">
     <use xlink:href="#mb9d6ba0c58" x="0" y="540.100875" style="fill: #ffa500; fill-opacity: 0.3; stroke: #ffa500; stroke-opacity: 0.3"/>
    </g>
   </g>
   <g id="PolyCollection_2">
    <defs>
     <path id="ma0c181f7ed" d="M 117.121761 -203.429283 
L 117.121761 -175.756629 
L 117.897408 -192.827437 
L 118.673054 -207.626182 
L 119.4487 -220.509217 
L 120.224347 -231.765085 
L 120.999993 -241.629364 
L 121.77564 -250.295875 
L 122.551286 -257.925231 
L 123.326932 -264.651424 
L 124.102579 -270.586942 
L 124.878225 -275.826784 
L 125.653871 -280.451628 
L 126.429518 -284.530353 
L 127.205164 -288.122064 
L 127.980811 -291.277722 
L 128.756457 -294.041466 
L 129.532103 -296.4517 
L 130.30775 -298.541972 
L 131.083396 -300.341716 
L 131.859042 -301.470771 
L 132.634689 -299.839568 
L 133.410335 -298.080398 
L 134.185982 -296.213641 
L 134.961628 -294.256955 
L 135.737274 -292.225694 
L 136.512921 -290.133258 
L 137.288567 -287.99137 
L 138.064213 -285.810313 
L 138.83986 -283.599121 
L 139.615506 -281.365744 
L 140.391153 -279.117186 
L 141.166799 -276.85962 
L 141.942445 -274.598493 
L 142.718092 -272.338607 
L 143.493738 -270.0842 
L 144.269384 -267.839004 
L 145.045031 -265.606307 
L 145.820677 -263.389001 
L 146.596323 -261.189626 
L 147.37197 -259.010406 
L 148.147616 -256.853286 
L 148.923263 -254.71996 
L 149.698909 -252.611898 
L 150.474555 -250.53037 
L 151.250202 -248.476465 
L 152.025848 -246.451113 
L 152.801494 -244.455098 
L 153.577141 -242.489074 
L 154.352787 -240.553581 
L 155.128434 -238.649051 
L 155.90408 -236.775824 
L 156.679726 -234.934156 
L 157.455373 -233.124224 
L 158.231019 -231.346139 
L 159.006665 -229.599951 
L 159.782312 -227.885651 
L 160.557958 -226.203185 
L 161.333605 -224.552449 
L 162.109251 -222.933303 
L 162.884897 -221.345568 
L 163.660544 -219.789034 
L 164.43619 -218.263462 
L 165.211836 -216.768586 
L 165.987483 -215.304117 
L 166.763129 -213.869745 
L 167.538776 -212.465143 
L 168.314422 -211.089965 
L 169.090068 -209.743854 
L 169.865715 -208.426437 
L 170.641361 -207.137332 
L 171.417007 -205.876147 
L 172.192654 -204.642482 
L 172.9683 -203.435929 
L 173.743947 -202.256075 
L 174.519593 -201.102502 
L 175.295239 -199.974787 
L 176.070886 -198.872507 
L 176.846532 -197.795234 
L 177.622178 -196.742539 
L 178.397825 -195.713994 
L 179.173471 -194.709168 
L 179.949117 -193.727634 
L 180.724764 -192.768963 
L 181.50041 -191.832729 
L 182.276057 -190.918508 
L 183.051703 -190.025877 
L 183.827349 -189.154418 
L 184.602996 -188.303714 
L 185.378642 -187.473353 
L 186.154288 -186.662925 
L 186.929935 -185.872026 
L 187.705581 -185.100254 
L 188.481228 -184.347213 
L 189.256874 -183.612512 
L 190.03252 -182.895763 
L 190.808167 -182.196583 
L 191.583813 -181.514597 
L 192.359459 -180.849431 
L 193.135106 -180.200719 
L 193.910752 -179.568101 
L 194.686399 -178.95122 
L 195.462045 -178.349725 
L 196.237691 -177.763273 
L 197.013338 -177.191524 
L 197.788984 -176.634144 
L 198.56463 -176.090807 
L 199.340277 -175.561189 
L 200.115923 -175.044974 
L 200.89157 -174.541852 
L 201.667216 -174.051517 
L 202.442862 -173.57367 
L 203.218509 -173.108018 
L 203.994155 -172.654272 
L 204.769801 -172.212149 
L 205.545448 -171.781373 
L 206.321094 -171.361671 
L 207.096741 -170.952779 
L 207.872387 -170.554434 
L 208.648033 -170.166382 
L 209.42368 -169.788372 
L 210.199326 -169.420161 
L 210.974972 -169.061507 
L 211.750619 -168.712176 
L 212.526265 -168.371939 
L 213.301911 -168.040572 
L 214.077558 -167.717853 
L 214.853204 -167.40357 
L 215.628851 -167.097511 
L 216.404497 -166.79947 
L 217.180143 -166.509248 
L 217.95579 -166.226648 
L 218.731436 -165.951478 
L 219.507082 -165.68355 
L 220.282729 -165.422681 
L 221.058375 -165.168693 
L 221.834022 -164.921411 
L 222.609668 -164.680664 
L 223.385314 -164.446284 
L 224.160961 -164.218111 
L 224.936607 -163.995983 
L 225.712253 -163.779748 
L 226.4879 -163.569252 
L 227.263546 -163.364349 
L 228.039193 -163.164893 
L 228.814839 -162.970745 
L 229.590485 -162.781767 
L 230.366132 -162.597825 
L 231.141778 -162.418788 
L 231.917424 -162.244528 
L 232.693071 -162.074922 
L 233.468717 -161.909848 
L 234.244364 -161.749188 
L 235.02001 -161.592827 
L 235.795656 -161.440651 
L 236.571303 -161.292551 
L 237.346949 -161.148421 
L 238.122595 -161.008156 
L 238.898242 -160.871654 
L 239.673888 -160.738817 
L 240.449535 -160.609547 
L 241.225181 -160.483752 
L 242.000827 -160.361338 
L 242.776474 -160.242216 
L 243.55212 -160.126301 
L 244.327766 -160.013505 
L 245.103413 -159.903748 
L 245.879059 -159.796948 
L 246.654705 -159.693027 
L 247.430352 -159.591908 
L 248.205998 -159.493517 
L 248.981645 -159.397781 
L 249.757291 -159.30463 
L 250.532937 -159.213994 
L 251.308584 -159.125806 
L 252.08423 -159.040002 
L 252.859876 -158.956518 
L 253.635523 -158.87529 
L 254.411169 -158.79626 
L 255.186816 -158.719369 
L 255.962462 -158.644558 
L 256.738108 -158.571773 
L 257.513755 -158.500958 
L 258.289401 -158.432062 
L 259.065047 -158.365033 
L 259.840694 -158.29982 
L 260.61634 -158.236375 
L 261.391987 -158.174651 
L 262.167633 -158.1146 
L 262.943279 -158.056178 
L 263.718926 -157.999342 
L 264.494572 -157.944048 
L 265.270218 -157.890254 
L 266.045865 -157.837922 
L 266.821511 -157.78701 
L 267.597158 -157.737481 
L 268.372804 -157.689298 
L 269.14845 -157.642424 
L 269.924097 -157.596823 
L 270.699743 -157.552462 
L 271.475389 -157.509307 
L 272.251036 -157.467326 
L 273.026682 -157.426486 
L 273.802329 -157.386756 
L 274.577975 -157.348107 
L 275.353621 -157.31051 
L 276.129268 -157.273936 
L 276.904914 -157.238357 
L 277.68056 -157.203746 
L 278.456207 -157.170078 
L 279.231853 -157.137326 
L 280.007499 -157.105465 
L 280.783146 -157.074472 
L 281.558792 -157.044324 
L 282.334439 -157.014996 
L 283.110085 -156.986467 
L 283.885731 -156.958716 
L 284.661378 -156.93172 
L 285.437024 -156.90546 
L 286.21267 -156.879916 
L 286.988317 -156.855068 
L 287.763963 -156.830897 
L 288.53961 -156.807385 
L 289.315256 -156.784513 
L 290.090902 -156.762266 
L 290.866549 -156.740625 
L 291.642195 -156.719574 
L 292.417841 -156.699097 
L 293.193488 -156.679178 
L 293.969134 -156.659803 
L 294.744781 -156.640956 
L 295.520427 -156.622623 
L 296.296073 -156.60479 
L 297.07172 -156.587444 
L 297.847366 -156.570571 
L 298.623012 -156.554159 
L 299.398659 -156.538194 
L 300.174305 -156.522665 
L 300.949952 -156.50756 
L 301.725598 -156.492866 
L 302.501244 -156.478574 
L 303.276891 -156.464672 
L 304.052537 -156.45115 
L 304.828183 -156.437996 
L 305.60383 -156.425202 
L 306.379476 -156.412757 
L 307.155122 -156.400651 
L 307.930769 -156.388876 
L 308.706415 -156.377423 
L 309.482062 -156.366282 
L 310.257708 -156.355446 
L 311.033354 -156.344905 
L 311.809001 -156.334653 
L 312.584647 -156.32468 
L 313.360293 -156.314979 
L 314.13594 -156.305544 
L 314.911586 -156.296366 
L 315.687233 -156.287439 
L 316.462879 -156.278756 
L 317.238525 -156.270309 
L 318.014172 -156.262094 
L 318.789818 -156.254103 
L 319.565464 -156.24633 
L 320.341111 -156.23877 
L 321.116757 -156.231416 
L 321.892404 -156.224263 
L 322.66805 -156.217305 
L 323.443696 -156.210538 
L 324.219343 -156.203955 
L 324.994989 -156.197552 
L 325.770635 -156.191325 
L 326.546282 -156.185267 
L 327.321928 -156.179375 
L 328.097575 -156.173644 
L 328.873221 -156.168069 
L 329.648867 -156.162647 
L 330.424514 -156.157373 
L 331.20016 -156.152243 
L 331.975806 -156.147253 
L 332.751453 -156.1424 
L 333.527099 -156.137679 
L 334.302746 -156.133087 
L 335.078392 -156.128621 
L 335.854038 -156.124277 
L 336.629685 -156.120051 
L 337.405331 -156.115941 
L 338.180977 -156.111943 
L 338.956624 -156.108055 
L 339.73227 -156.104273 
L 340.507916 -156.100594 
L 341.283563 -156.097016 
L 342.059209 -156.093535 
L 342.834856 -156.09015 
L 343.610502 -156.086857 
L 344.386148 -156.083654 
L 345.161795 -156.080539 
L 345.937441 -156.077509 
L 346.713087 -156.074562 
L 347.488734 -156.071695 
L 348.26438 -156.068907 
L 349.040027 -156.066195 
L 349.815673 -156.063557 
L 350.591319 -156.060991 
L 351.366966 -156.058495 
L 352.142612 -156.056068 
L 352.918258 -156.053707 
L 353.693905 -156.05141 
L 354.469551 -156.049176 
L 355.245198 -156.047003 
L 356.020844 -156.04489 
L 356.79649 -156.042834 
L 357.572137 -156.040835 
L 358.347783 -156.03889 
L 359.123429 -156.036999 
L 359.899076 -156.035159 
L 360.674722 -156.033369 
L 361.450369 -156.031629 
L 362.226015 -156.029936 
L 363.001661 -156.028289 
L 363.777308 -156.026687 
L 364.552954 -156.025129 
L 365.3286 -156.023614 
L 366.104247 -156.02214 
L 366.879893 -156.020706 
L 367.65554 -156.019312 
L 368.431186 -156.017956 
L 369.206832 -156.016636 
L 369.982479 -156.015353 
L 370.758125 -156.014105 
L 371.533771 -156.012891 
L 372.309418 -156.01171 
L 373.085064 -156.010562 
L 373.86071 -156.009445 
L 374.636357 -156.008358 
L 375.412003 -156.007302 
L 376.18765 -156.006274 
L 376.963296 -156.005274 
L 377.738942 -156.004301 
L 378.514589 -156.003355 
L 379.290235 -156.002435 
L 380.065881 -156.00154 
L 380.841528 -156.00067 
L 381.617174 -155.999823 
L 382.392821 -155.999 
L 383.168467 -155.998199 
L 383.944113 -155.99742 
L 384.71976 -155.996662 
L 385.495406 -155.995925 
L 386.271052 -155.995208 
L 387.046699 -155.994511 
L 387.822345 -155.993833 
L 388.597992 -155.993173 
L 389.373638 -155.992531 
L 390.149284 -155.991907 
L 390.924931 -155.9913 
L 391.700577 -155.99071 
L 392.476223 -155.990136 
L 393.25187 -155.989577 
L 394.027516 -155.989034 
L 394.803163 -155.988505 
L 395.578809 -155.987991 
L 396.354455 -155.987491 
L 397.130102 -155.987005 
L 397.905748 -155.986532 
L 398.681394 -155.986072 
L 399.457041 -155.985625 
L 400.232687 -155.985189 
L 401.008334 -155.984766 
L 401.78398 -155.984354 
L 402.559626 -155.983954 
L 403.335273 -155.983564 
L 404.110919 -155.983185 
L 404.886565 -155.982817 
L 405.662212 -155.982458 
L 406.437858 -155.98211 
L 407.213504 -155.981771 
L 407.989151 -155.981441 
L 408.764797 -155.98112 
L 409.540444 -155.980808 
L 410.31609 -155.980504 
L 411.091736 -155.980209 
L 411.867383 -155.979922 
L 412.643029 -155.979643 
L 413.418675 -155.979371 
L 414.194322 -155.979107 
L 414.969968 -155.97885 
L 415.745615 -155.9786 
L 416.521261 -155.978357 
L 417.296907 -155.97812 
L 418.072554 -155.97789 
L 418.8482 -155.977666 
L 419.623846 -155.977449 
L 420.399493 -155.977237 
L 421.175139 -155.977031 
L 421.950786 -155.976831 
L 422.726432 -155.976636 
L 423.502078 -155.976447 
L 424.277725 -155.976262 
L 425.053371 -155.976083 
L 425.829017 -155.975909 
L 426.604664 -155.975739 
L 427.38031 -155.975574 
L 428.155957 -155.975414 
L 428.931603 -155.975258 
L 429.707249 -155.975106 
L 430.482896 -155.974958 
L 431.258542 -155.974815 
L 432.034188 -155.974675 
L 432.809835 -155.974539 
L 433.585481 -155.974407 
L 434.361128 -155.974279 
L 435.136774 -155.974154 
L 435.91242 -155.974032 
L 436.688067 -155.973914 
L 437.463713 -155.973799 
L 438.239359 -155.973687 
L 439.015006 -155.973578 
L 439.790652 -155.973472 
L 440.566298 -155.973369 
L 441.341945 -155.973269 
L 442.117591 -155.973172 
L 442.893238 -155.973077 
L 443.668884 -155.972985 
L 444.44453 -155.972895 
L 445.220177 -155.972808 
L 445.995823 -155.972723 
L 446.771469 -155.972641 
L 447.547116 -155.972561 
L 448.322762 -155.972483 
L 449.098409 -155.972407 
L 449.874055 -155.972333 
L 450.649701 -155.972261 
L 451.425348 -155.972191 
L 452.200994 -155.972124 
L 452.97664 -155.972058 
L 453.752287 -155.971993 
L 454.527933 -155.971931 
L 455.30358 -155.97187 
L 456.079226 -155.971811 
L 456.854872 -155.971753 
L 457.630519 -155.971697 
L 458.406165 -155.971643 
L 459.181811 -155.97159 
L 459.957458 -155.971539 
L 460.733104 -155.971489 
L 461.508751 -155.97144 
L 462.284397 -155.971392 
L 463.060043 -155.971346 
L 463.83569 -155.971302 
L 464.611336 -155.971258 
L 465.386982 -155.971216 
L 466.162629 -155.971174 
L 466.938275 -155.971134 
L 467.713921 -155.971095 
L 468.489568 -155.971057 
L 469.265214 -155.97102 
L 470.040861 -155.970985 
L 470.816507 -155.97095 
L 471.592153 -155.970916 
L 472.3678 -155.970883 
L 473.143446 -155.97085 
L 473.919092 -155.970819 
L 474.694739 -155.970789 
L 475.470385 -155.970759 
L 476.246032 -155.970731 
L 477.021678 -155.970703 
L 477.797324 -155.970675 
L 478.572971 -155.970649 
L 479.348617 -155.970623 
L 480.124263 -155.970598 
L 480.89991 -155.970574 
L 481.675556 -155.97055 
L 482.451203 -155.970527 
L 483.226849 -155.970505 
L 484.002495 -155.970483 
L 484.778142 -155.970462 
L 485.553788 -155.970441 
L 486.329434 -155.970421 
L 487.105081 -155.970402 
L 487.880727 -155.970383 
L 488.656374 -155.970364 
L 489.43202 -155.970346 
L 490.207666 -155.970329 
L 490.983313 -155.970312 
L 491.758959 -155.970295 
L 492.534605 -155.970279 
L 493.310252 -155.970263 
L 494.085898 -155.970248 
L 494.861545 -155.970234 
L 495.637191 -155.970219 
L 496.412837 -155.970205 
L 497.188484 -155.970192 
L 497.96413 -155.970178 
L 498.739776 -155.970165 
L 499.515423 -155.970153 
L 500.291069 -155.970141 
L 501.066715 -155.970129 
L 501.842362 -155.970117 
L 502.618008 -155.970106 
L 503.393655 -155.970095 
L 504.169301 -155.970085 
L 504.944947 -155.970074 
L 505.720594 -155.970064 
L 506.49624 -155.970055 
L 507.271886 -155.970045 
L 508.047533 -155.970036 
L 508.823179 -155.970027 
L 509.598826 -155.970018 
L 510.374472 -155.97001 
L 511.150118 -155.970001 
L 511.925765 -155.969993 
L 512.701411 -155.969986 
L 513.477057 -155.969978 
L 514.252704 -155.969971 
L 515.02835 -155.969963 
L 515.803997 -155.969956 
L 516.579643 -155.96995 
L 517.355289 -155.969943 
L 518.130936 -155.969937 
L 518.906582 -155.96993 
L 519.682228 -155.969924 
L 520.457875 -155.969918 
L 521.233521 -155.969913 
L 522.009168 -155.969907 
L 522.784814 -155.969902 
L 523.56046 -155.969896 
L 524.336107 -155.969891 
L 525.111753 -155.969886 
L 525.887399 -155.969881 
L 526.663046 -155.969876 
L 527.438692 -155.969872 
L 528.214339 -155.969867 
L 528.989985 -155.969863 
L 529.765631 -155.969859 
L 530.541278 -155.969855 
L 531.316924 -155.969851 
L 532.09257 -155.969847 
L 532.868217 -155.969843 
L 533.643863 -155.969839 
L 534.419509 -155.969836 
L 535.195156 -155.969832 
L 535.970802 -155.969829 
L 536.746449 -155.969825 
L 537.522095 -155.969822 
L 538.297741 -155.969819 
L 539.073388 -155.969816 
L 539.849034 -155.969813 
L 540.62468 -155.96981 
L 541.400327 -155.969807 
L 542.175973 -155.969805 
L 542.95162 -155.969802 
L 543.727266 -155.969799 
L 544.502912 -155.969797 
L 545.278559 -155.969794 
L 546.054205 -155.969792 
L 546.829851 -155.96979 
L 547.605498 -155.969788 
L 548.381144 -155.969785 
L 549.156791 -155.969783 
L 549.932437 -155.969781 
L 550.708083 -155.969779 
L 551.48373 -155.969777 
L 552.259376 -155.969775 
L 553.035022 -155.969773 
L 553.810669 -155.969772 
L 554.586315 -155.96977 
L 555.361962 -155.969768 
L 556.137608 -155.969767 
L 556.913254 -155.969765 
L 557.688901 -155.969763 
L 558.464547 -155.969762 
L 559.240193 -155.96976 
L 560.01584 -155.969759 
L 560.791486 -155.969758 
L 561.567133 -155.969756 
L 562.342779 -155.969755 
L 563.118425 -155.969754 
L 563.894072 -155.969752 
L 564.669718 -155.969751 
L 565.445364 -155.96975 
L 566.221011 -155.969749 
L 566.996657 -155.969748 
L 567.772303 -155.969747 
L 568.54795 -155.969745 
L 569.323596 -155.969744 
L 570.099243 -155.969743 
L 570.874889 -155.969742 
L 571.650535 -155.969742 
L 572.426182 -155.969741 
L 573.201828 -155.96974 
L 573.977474 -155.969739 
L 574.753121 -155.969738 
L 575.528767 -155.969737 
L 576.304414 -155.969736 
L 577.08006 -155.969736 
L 577.855706 -155.969735 
L 578.631353 -155.969734 
L 579.406999 -155.969733 
L 580.182645 -155.969733 
L 580.958292 -155.969732 
L 581.733938 -155.969731 
L 582.509585 -155.969731 
L 583.285231 -155.96973 
L 584.060877 -155.969729 
L 584.836524 -155.969729 
L 585.61217 -155.969728 
L 586.387816 -155.969728 
L 587.163463 -155.969727 
L 587.939109 -155.969727 
L 588.714756 -155.969726 
L 589.490402 -155.969726 
L 590.266048 -155.969725 
L 591.041695 -155.969725 
L 591.817341 -155.969724 
L 592.592987 -155.969724 
L 593.368634 -155.969723 
L 594.14428 -155.969723 
L 594.919927 -155.969722 
L 595.695573 -155.969722 
L 596.471219 -155.969722 
L 597.246866 -155.969721 
L 598.022512 -155.969721 
L 598.798158 -155.969721 
L 599.573805 -155.96972 
L 600.349451 -155.96972 
L 601.125097 -155.96972 
L 601.900744 -155.969719 
L 602.67639 -155.969719 
L 603.452037 -155.969719 
L 604.227683 -155.969718 
L 605.003329 -155.969718 
L 605.778976 -155.969718 
L 606.554622 -155.969717 
L 607.330268 -155.969717 
L 608.105915 -155.969717 
L 608.881561 -155.969717 
L 609.657208 -155.969716 
L 610.432854 -155.969716 
L 611.2085 -155.969716 
L 611.984147 -155.969716 
L 612.759793 -155.969716 
L 613.535439 -155.969715 
L 614.311086 -155.969715 
L 615.086732 -155.969715 
L 615.862379 -155.969715 
L 616.638025 -155.969715 
L 617.413671 -155.969714 
L 618.189318 -155.969714 
L 618.964964 -155.969714 
L 619.74061 -155.969714 
L 620.516257 -155.969714 
L 621.291903 -155.969713 
L 622.06755 -155.969713 
L 622.843196 -155.969713 
L 623.618842 -155.969713 
L 624.394489 -155.969713 
L 624.394489 -156.421253 
L 624.394489 -156.421253 
L 623.618842 -156.425808 
L 622.843196 -156.430409 
L 622.06755 -156.435056 
L 621.291903 -156.43975 
L 620.516257 -156.444492 
L 619.74061 -156.449281 
L 618.964964 -156.454119 
L 618.189318 -156.459005 
L 617.413671 -156.46394 
L 616.638025 -156.468925 
L 615.862379 -156.473961 
L 615.086732 -156.479047 
L 614.311086 -156.484185 
L 613.535439 -156.489374 
L 612.759793 -156.494615 
L 611.984147 -156.49991 
L 611.2085 -156.505257 
L 610.432854 -156.510659 
L 609.657208 -156.516115 
L 608.881561 -156.521626 
L 608.105915 -156.527192 
L 607.330268 -156.532815 
L 606.554622 -156.538494 
L 605.778976 -156.54423 
L 605.003329 -156.550024 
L 604.227683 -156.555877 
L 603.452037 -156.561788 
L 602.67639 -156.567759 
L 601.900744 -156.573791 
L 601.125097 -156.579883 
L 600.349451 -156.586036 
L 599.573805 -156.592251 
L 598.798158 -156.598529 
L 598.022512 -156.60487 
L 597.246866 -156.611275 
L 596.471219 -156.617745 
L 595.695573 -156.62428 
L 594.919927 -156.63088 
L 594.14428 -156.637547 
L 593.368634 -156.644281 
L 592.592987 -156.651083 
L 591.817341 -156.657953 
L 591.041695 -156.664893 
L 590.266048 -156.671903 
L 589.490402 -156.678983 
L 588.714756 -156.686134 
L 587.939109 -156.693357 
L 587.163463 -156.700653 
L 586.387816 -156.708023 
L 585.61217 -156.715467 
L 584.836524 -156.722985 
L 584.060877 -156.73058 
L 583.285231 -156.738251 
L 582.509585 -156.745999 
L 581.733938 -156.753825 
L 580.958292 -156.76173 
L 580.182645 -156.769714 
L 579.406999 -156.777779 
L 578.631353 -156.785925 
L 577.855706 -156.794153 
L 577.08006 -156.802463 
L 576.304414 -156.810858 
L 575.528767 -156.819337 
L 574.753121 -156.827901 
L 573.977474 -156.836551 
L 573.201828 -156.845289 
L 572.426182 -156.854114 
L 571.650535 -156.863028 
L 570.874889 -156.872032 
L 570.099243 -156.881126 
L 569.323596 -156.890312 
L 568.54795 -156.899591 
L 567.772303 -156.908963 
L 566.996657 -156.918429 
L 566.221011 -156.92799 
L 565.445364 -156.937647 
L 564.669718 -156.947402 
L 563.894072 -156.957254 
L 563.118425 -156.967206 
L 562.342779 -156.977258 
L 561.567133 -156.987411 
L 560.791486 -156.997666 
L 560.01584 -157.008024 
L 559.240193 -157.018487 
L 558.464547 -157.029054 
L 557.688901 -157.039728 
L 556.913254 -157.05051 
L 556.137608 -157.061399 
L 555.361962 -157.072398 
L 554.586315 -157.083508 
L 553.810669 -157.094729 
L 553.035022 -157.106064 
L 552.259376 -157.117512 
L 551.48373 -157.129075 
L 550.708083 -157.140754 
L 549.932437 -157.152551 
L 549.156791 -157.164467 
L 548.381144 -157.176502 
L 547.605498 -157.188658 
L 546.829851 -157.200936 
L 546.054205 -157.213338 
L 545.278559 -157.225864 
L 544.502912 -157.238516 
L 543.727266 -157.251296 
L 542.95162 -157.264203 
L 542.175973 -157.277241 
L 541.400327 -157.290409 
L 540.62468 -157.30371 
L 539.849034 -157.317144 
L 539.073388 -157.330713 
L 538.297741 -157.344418 
L 537.522095 -157.358262 
L 536.746449 -157.372244 
L 535.970802 -157.386366 
L 535.195156 -157.400631 
L 534.419509 -157.415038 
L 533.643863 -157.429591 
L 532.868217 -157.444289 
L 532.09257 -157.459135 
L 531.316924 -157.47413 
L 530.541278 -157.489276 
L 529.765631 -157.504573 
L 528.989985 -157.520024 
L 528.214339 -157.535631 
L 527.438692 -157.551393 
L 526.663046 -157.567314 
L 525.887399 -157.583395 
L 525.111753 -157.599637 
L 524.336107 -157.616043 
L 523.56046 -157.632612 
L 522.784814 -157.649348 
L 522.009168 -157.666252 
L 521.233521 -157.683326 
L 520.457875 -157.70057 
L 519.682228 -157.717988 
L 518.906582 -157.73558 
L 518.130936 -157.753349 
L 517.355289 -157.771296 
L 516.579643 -157.789423 
L 515.803997 -157.807732 
L 515.02835 -157.826224 
L 514.252704 -157.844902 
L 513.477057 -157.863767 
L 512.701411 -157.88282 
L 511.925765 -157.902065 
L 511.150118 -157.921503 
L 510.374472 -157.941136 
L 509.598826 -157.960965 
L 508.823179 -157.980993 
L 508.047533 -158.001222 
L 507.271886 -158.021653 
L 506.49624 -158.042289 
L 505.720594 -158.063132 
L 504.944947 -158.084184 
L 504.169301 -158.105446 
L 503.393655 -158.126921 
L 502.618008 -158.148612 
L 501.842362 -158.170519 
L 501.066715 -158.192646 
L 500.291069 -158.214995 
L 499.515423 -158.237567 
L 498.739776 -158.260365 
L 497.96413 -158.283391 
L 497.188484 -158.306648 
L 496.412837 -158.330137 
L 495.637191 -158.353861 
L 494.861545 -158.377823 
L 494.085898 -158.402025 
L 493.310252 -158.426468 
L 492.534605 -158.451156 
L 491.758959 -158.476091 
L 490.983313 -158.501276 
L 490.207666 -158.526712 
L 489.43202 -158.552402 
L 488.656374 -158.57835 
L 487.880727 -158.604556 
L 487.105081 -158.631025 
L 486.329434 -158.657758 
L 485.553788 -158.684759 
L 484.778142 -158.712029 
L 484.002495 -158.739571 
L 483.226849 -158.767389 
L 482.451203 -158.795485 
L 481.675556 -158.823861 
L 480.89991 -158.852521 
L 480.124263 -158.881466 
L 479.348617 -158.910701 
L 478.572971 -158.940228 
L 477.797324 -158.97005 
L 477.021678 -159.000169 
L 476.246032 -159.030588 
L 475.470385 -159.061312 
L 474.694739 -159.092342 
L 473.919092 -159.123681 
L 473.143446 -159.155333 
L 472.3678 -159.187301 
L 471.592153 -159.219587 
L 470.816507 -159.252196 
L 470.040861 -159.285129 
L 469.265214 -159.318391 
L 468.489568 -159.351985 
L 467.713921 -159.385913 
L 466.938275 -159.42018 
L 466.162629 -159.454788 
L 465.386982 -159.48974 
L 464.611336 -159.525041 
L 463.83569 -159.560693 
L 463.060043 -159.596701 
L 462.284397 -159.633067 
L 461.508751 -159.669795 
L 460.733104 -159.706889 
L 459.957458 -159.744352 
L 459.181811 -159.782187 
L 458.406165 -159.820399 
L 457.630519 -159.858992 
L 456.854872 -159.897968 
L 456.079226 -159.937332 
L 455.30358 -159.977087 
L 454.527933 -160.017238 
L 453.752287 -160.057787 
L 452.97664 -160.09874 
L 452.200994 -160.1401 
L 451.425348 -160.18187 
L 450.649701 -160.224056 
L 449.874055 -160.266661 
L 449.098409 -160.309689 
L 448.322762 -160.353144 
L 447.547116 -160.39703 
L 446.771469 -160.441352 
L 445.995823 -160.486114 
L 445.220177 -160.53132 
L 444.44453 -160.576975 
L 443.668884 -160.623083 
L 442.893238 -160.669648 
L 442.117591 -160.716674 
L 441.341945 -160.764167 
L 440.566298 -160.812131 
L 439.790652 -160.860569 
L 439.015006 -160.909488 
L 438.239359 -160.958892 
L 437.463713 -161.008785 
L 436.688067 -161.059172 
L 435.91242 -161.110057 
L 435.136774 -161.161447 
L 434.361128 -161.213345 
L 433.585481 -161.265757 
L 432.809835 -161.318687 
L 432.034188 -161.37214 
L 431.258542 -161.426123 
L 430.482896 -161.480638 
L 429.707249 -161.535693 
L 428.931603 -161.591292 
L 428.155957 -161.64744 
L 427.38031 -161.704143 
L 426.604664 -161.761406 
L 425.829017 -161.819234 
L 425.053371 -161.877633 
L 424.277725 -161.936609 
L 423.502078 -161.996166 
L 422.726432 -162.056311 
L 421.950786 -162.117049 
L 421.175139 -162.178386 
L 420.399493 -162.240328 
L 419.623846 -162.30288 
L 418.8482 -162.366048 
L 418.072554 -162.429839 
L 417.296907 -162.494257 
L 416.521261 -162.55931 
L 415.745615 -162.625004 
L 414.969968 -162.691343 
L 414.194322 -162.758336 
L 413.418675 -162.825987 
L 412.643029 -162.894303 
L 411.867383 -162.963291 
L 411.091736 -163.032957 
L 410.31609 -163.103308 
L 409.540444 -163.174349 
L 408.764797 -163.246088 
L 407.989151 -163.318531 
L 407.213504 -163.391685 
L 406.437858 -163.465557 
L 405.662212 -163.540153 
L 404.886565 -163.615481 
L 404.110919 -163.691547 
L 403.335273 -163.768358 
L 402.559626 -163.845922 
L 401.78398 -163.924245 
L 401.008334 -164.003335 
L 400.232687 -164.083199 
L 399.457041 -164.163845 
L 398.681394 -164.245279 
L 397.905748 -164.32751 
L 397.130102 -164.410544 
L 396.354455 -164.494389 
L 395.578809 -164.579054 
L 394.803163 -164.664545 
L 394.027516 -164.750871 
L 393.25187 -164.838039 
L 392.476223 -164.926057 
L 391.700577 -165.014934 
L 390.924931 -165.104677 
L 390.149284 -165.195294 
L 389.373638 -165.286794 
L 388.597992 -165.379185 
L 387.822345 -165.472476 
L 387.046699 -165.566673 
L 386.271052 -165.661788 
L 385.495406 -165.757826 
L 384.71976 -165.854798 
L 383.944113 -165.952713 
L 383.168467 -166.051578 
L 382.392821 -166.151402 
L 381.617174 -166.252196 
L 380.841528 -166.353967 
L 380.065881 -166.456724 
L 379.290235 -166.560478 
L 378.514589 -166.665236 
L 377.738942 -166.771009 
L 376.963296 -166.877806 
L 376.18765 -166.985636 
L 375.412003 -167.094509 
L 374.636357 -167.204434 
L 373.86071 -167.315421 
L 373.085064 -167.42748 
L 372.309418 -167.540621 
L 371.533771 -167.654853 
L 370.758125 -167.770187 
L 369.982479 -167.886633 
L 369.206832 -168.004201 
L 368.431186 -168.122901 
L 367.65554 -168.242744 
L 366.879893 -168.36374 
L 366.104247 -168.485899 
L 365.3286 -168.609232 
L 364.552954 -168.733751 
L 363.777308 -168.859465 
L 363.001661 -168.986385 
L 362.226015 -169.114523 
L 361.450369 -169.243889 
L 360.674722 -169.374495 
L 359.899076 -169.506352 
L 359.123429 -169.63947 
L 358.347783 -169.773862 
L 357.572137 -169.909539 
L 356.79649 -170.046513 
L 356.020844 -170.184795 
L 355.245198 -170.324396 
L 354.469551 -170.46533 
L 353.693905 -170.607606 
L 352.918258 -170.751239 
L 352.142612 -170.896239 
L 351.366966 -171.042619 
L 350.591319 -171.190392 
L 349.815673 -171.339569 
L 349.040027 -171.490163 
L 348.26438 -171.642186 
L 347.488734 -171.795652 
L 346.713087 -171.950573 
L 345.937441 -172.106962 
L 345.161795 -172.264832 
L 344.386148 -172.424195 
L 343.610502 -172.585066 
L 342.834856 -172.747457 
L 342.059209 -172.911381 
L 341.283563 -173.076852 
L 340.507916 -173.243884 
L 339.73227 -173.412489 
L 338.956624 -173.582683 
L 338.180977 -173.754478 
L 337.405331 -173.927888 
L 336.629685 -174.102928 
L 335.854038 -174.279612 
L 335.078392 -174.457953 
L 334.302746 -174.637966 
L 333.527099 -174.819666 
L 332.751453 -175.003066 
L 331.975806 -175.188182 
L 331.20016 -175.375028 
L 330.424514 -175.563619 
L 329.648867 -175.75397 
L 328.873221 -175.946096 
L 328.097575 -176.140011 
L 327.321928 -176.335732 
L 326.546282 -176.533273 
L 325.770635 -176.732649 
L 324.994989 -176.933877 
L 324.219343 -177.136971 
L 323.443696 -177.341948 
L 322.66805 -177.548822 
L 321.892404 -177.757611 
L 321.116757 -177.96833 
L 320.341111 -178.180994 
L 319.565464 -178.395621 
L 318.789818 -178.612226 
L 318.014172 -178.830826 
L 317.238525 -179.051437 
L 316.462879 -179.274075 
L 315.687233 -179.498758 
L 314.911586 -179.725503 
L 314.13594 -179.954325 
L 313.360293 -180.185242 
L 312.584647 -180.41827 
L 311.809001 -180.653428 
L 311.033354 -180.890732 
L 310.257708 -181.1302 
L 309.482062 -181.371848 
L 308.706415 -181.615695 
L 307.930769 -181.861758 
L 307.155122 -182.110055 
L 306.379476 -182.360603 
L 305.60383 -182.61342 
L 304.828183 -182.868525 
L 304.052537 -183.125935 
L 303.276891 -183.385669 
L 302.501244 -183.647744 
L 301.725598 -183.912179 
L 300.949952 -184.178993 
L 300.174305 -184.448204 
L 299.398659 -184.71983 
L 298.623012 -184.99389 
L 297.847366 -185.270403 
L 297.07172 -185.549388 
L 296.296073 -185.830864 
L 295.520427 -186.114849 
L 294.744781 -186.401363 
L 293.969134 -186.690424 
L 293.193488 -186.982053 
L 292.417841 -187.276268 
L 291.642195 -187.573089 
L 290.866549 -187.872535 
L 290.090902 -188.174626 
L 289.315256 -188.479381 
L 288.53961 -188.78682 
L 287.763963 -189.096963 
L 286.988317 -189.409829 
L 286.21267 -189.725439 
L 285.437024 -190.043812 
L 284.661378 -190.364968 
L 283.885731 -190.688928 
L 283.110085 -191.015711 
L 282.334439 -191.345339 
L 281.558792 -191.677829 
L 280.783146 -192.013205 
L 280.007499 -192.351484 
L 279.231853 -192.692689 
L 278.456207 -193.036839 
L 277.68056 -193.383955 
L 276.904914 -193.734057 
L 276.129268 -194.087167 
L 275.353621 -194.443304 
L 274.577975 -194.802489 
L 273.802329 -195.164743 
L 273.026682 -195.530086 
L 272.251036 -195.89854 
L 271.475389 -196.270125 
L 270.699743 -196.644862 
L 269.924097 -197.022772 
L 269.14845 -197.403875 
L 268.372804 -197.788193 
L 267.597158 -198.175746 
L 266.821511 -198.566555 
L 266.045865 -198.960642 
L 265.270218 -199.358026 
L 264.494572 -199.758729 
L 263.718926 -200.162772 
L 262.943279 -200.570176 
L 262.167633 -200.980961 
L 261.391987 -201.395149 
L 260.61634 -201.81276 
L 259.840694 -202.233815 
L 259.065047 -202.658335 
L 258.289401 -203.086341 
L 257.513755 -203.517853 
L 256.738108 -203.952892 
L 255.962462 -204.39148 
L 255.186816 -204.833635 
L 254.411169 -205.27938 
L 253.635523 -205.728735 
L 252.859876 -206.18172 
L 252.08423 -206.638356 
L 251.308584 -207.098662 
L 250.532937 -207.56266 
L 249.757291 -208.03037 
L 248.981645 -208.501811 
L 248.205998 -208.977004 
L 247.430352 -209.455969 
L 246.654705 -209.938726 
L 245.879059 -210.425294 
L 245.103413 -210.915693 
L 244.327766 -211.409943 
L 243.55212 -211.908063 
L 242.776474 -212.410073 
L 242.000827 -212.915992 
L 241.225181 -213.425838 
L 240.449535 -213.939632 
L 239.673888 -214.45739 
L 238.898242 -214.979134 
L 238.122595 -215.50488 
L 237.346949 -216.034647 
L 236.571303 -216.568453 
L 235.795656 -217.106317 
L 235.02001 -217.648255 
L 234.244364 -218.194286 
L 233.468717 -218.744427 
L 232.693071 -219.298696 
L 231.917424 -219.857108 
L 231.141778 -220.419681 
L 230.366132 -220.986432 
L 229.590485 -221.557376 
L 228.814839 -222.13253 
L 228.039193 -222.711908 
L 227.263546 -223.295528 
L 226.4879 -223.883404 
L 225.712253 -224.47555 
L 224.936607 -225.071982 
L 224.160961 -225.672713 
L 223.385314 -226.277757 
L 222.609668 -226.887129 
L 221.834022 -227.50084 
L 221.058375 -228.118905 
L 220.282729 -228.741335 
L 219.507082 -229.368143 
L 218.731436 -229.99934 
L 217.95579 -230.634937 
L 217.180143 -231.274945 
L 216.404497 -231.919374 
L 215.628851 -232.568235 
L 214.853204 -233.221536 
L 214.077558 -233.879286 
L 213.301911 -234.541493 
L 212.526265 -235.208165 
L 211.750619 -235.879309 
L 210.974972 -236.554931 
L 210.199326 -237.235038 
L 209.42368 -237.919633 
L 208.648033 -238.608723 
L 207.872387 -239.302309 
L 207.096741 -240.000395 
L 206.321094 -240.702982 
L 205.545448 -241.410073 
L 204.769801 -242.121667 
L 203.994155 -242.837764 
L 203.218509 -243.558361 
L 202.442862 -244.283456 
L 201.667216 -245.013045 
L 200.89157 -245.747123 
L 200.115923 -246.485684 
L 199.340277 -247.22872 
L 198.56463 -247.976222 
L 197.788984 -248.728179 
L 197.013338 -249.484581 
L 196.237691 -250.245412 
L 195.462045 -251.010658 
L 194.686399 -251.780302 
L 193.910752 -252.554324 
L 193.135106 -253.332704 
L 192.359459 -254.115417 
L 191.583813 -254.902438 
L 190.808167 -255.693738 
L 190.03252 -256.489288 
L 189.256874 -257.289052 
L 188.481228 -258.092994 
L 187.705581 -258.901075 
L 186.929935 -259.713249 
L 186.154288 -260.52947 
L 185.378642 -261.349686 
L 184.602996 -262.173843 
L 183.827349 -263.001878 
L 183.051703 -263.833729 
L 182.276057 -264.669323 
L 181.50041 -265.508584 
L 180.724764 -266.351432 
L 179.949117 -267.197776 
L 179.173471 -268.047521 
L 178.397825 -268.900564 
L 177.622178 -269.756793 
L 176.846532 -270.616087 
L 176.070886 -271.478317 
L 175.295239 -272.343344 
L 174.519593 -273.211015 
L 173.743947 -274.081168 
L 172.9683 -274.953628 
L 172.192654 -275.828205 
L 171.417007 -276.704695 
L 170.641361 -277.582878 
L 169.865715 -278.462516 
L 169.090068 -279.343353 
L 168.314422 -280.225112 
L 167.538776 -281.107494 
L 166.763129 -281.990179 
L 165.987483 -282.872817 
L 165.211836 -283.755034 
L 164.43619 -284.636424 
L 163.660544 -285.516549 
L 162.884897 -286.394936 
L 162.109251 -287.271074 
L 161.333605 -288.144411 
L 160.557958 -289.014349 
L 159.782312 -289.880243 
L 159.006665 -290.741393 
L 158.231019 -291.597045 
L 157.455373 -292.446379 
L 156.679726 -293.288509 
L 155.90408 -294.122476 
L 155.128434 -294.94724 
L 154.352787 -295.761672 
L 153.577141 -296.564551 
L 152.801494 -297.354549 
L 152.025848 -298.130224 
L 151.250202 -298.890012 
L 150.474555 -299.632212 
L 149.698909 -300.354971 
L 148.923263 -301.056277 
L 148.147616 -301.733933 
L 147.37197 -302.385548 
L 146.596323 -303.00851 
L 145.820677 -303.599967 
L 145.045031 -304.156803 
L 144.269384 -304.675602 
L 143.493738 -305.152624 
L 142.718092 -305.583765 
L 141.942445 -305.964513 
L 141.166799 -306.289904 
L 140.391153 -306.554465 
L 139.615506 -306.752152 
L 138.83986 -306.87628 
L 138.064213 -306.919436 
L 137.288567 -306.873387 
L 136.512921 -306.803991 
L 135.737274 -306.906114 
L 134.961628 -306.905587 
L 134.185982 -306.789731 
L 133.410335 -306.85458 
L 132.634689 -306.919436 
L 131.859042 -306.848084 
L 131.083396 -306.738025 
L 130.30775 -306.89806 
L 129.532103 -306.896718 
L 128.756457 -306.701652 
L 127.980811 -306.808473 
L 127.205164 -306.919436 
L 126.429518 -306.788741 
L 125.653871 -306.348653 
L 124.878225 -305.510942 
L 124.102579 -304.159601 
L 123.326932 -302.140366 
L 122.551286 -299.245202 
L 121.77564 -295.188759 
L 120.999993 -289.571494 
L 120.224347 -281.819895 
L 119.4487 -271.085772 
L 118.673054 -256.068832 
L 117.897408 -234.687487 
L 117.121761 -203.429283 
z
" style="stroke: #1f77b4; stroke-opacity: 0.3"/>
    </defs>
    <g clip-path="url(#p1a39dfb1a3)">
     <use xlink:href="#ma0c181f7ed" x="0" y="540.100875" style="fill: #1f77b4; fill-opacity: 0.3; stroke: #1f77b4; stroke-opacity: 0.3"/>
    </g>
   </g>
   <g id="matplotlib.axis_1">
    <g id="xtick_1">
     <g id="line2d_1">
      <defs>
       <path id="md5a6c64480" d="M 0 0 
L 0 3.5 
" style="stroke: #000000; stroke-width: 0.8"/>
      </defs>
      <g>
       <use xlink:href="#md5a6c64480" x="116.346115" y="416.476875" style="stroke: #000000; stroke-width: 0.8"/>
      </g>
     </g>
     <g id="text_1">
      <!-- 0 -->
      <g transform="translate(109.983615 438.67375)scale(0.2 -0.2)">
       <defs>
        <path id="DejaVuSans-30" d="M 2034 4250 
Q 1547 4250 1301 3770 
Q 1056 3291 1056 2328 
Q 1056 1369 1301 889 
Q 1547 409 2034 409 
Q 2525 409 2770 889 
Q 3016 1369 3016 2328 
Q 3016 3291 2770 3770 
Q 2525 4250 2034 4250 
z
M 2034 4750 
Q 2819 4750 3233 4129 
Q 3647 3509 3647 2328 
Q 3647 1150 3233 529 
Q 2819 -91 2034 -91 
Q 1250 -91 836 529 
Q 422 1150 422 2328 
Q 422 3509 836 4129 
Q 1250 4750 2034 4750 
z
" transform="scale(0.015625)"/>
       </defs>
       <use xlink:href="#DejaVuSans-30"/>
      </g>
     </g>
    </g>
    <g id="xtick_2">
     <g id="line2d_2">
      <g>
       <use xlink:href="#md5a6c64480" x="193.910752" y="416.476875" style="stroke: #000000; stroke-width: 0.8"/>
      </g>
     </g>
     <g id="text_2">
      <!-- 100 -->
      <g transform="translate(174.823252 438.67375)scale(0.2 -0.2)">
       <defs>
        <path id="DejaVuSans-31" d="M 794 531 
L 1825 531 
L 1825 4091 
L 703 3866 
L 703 4441 
L 1819 4666 
L 2450 4666 
L 2450 531 
L 3481 531 
L 3481 0 
L 794 0 
L 794 531 
z
" transform="scale(0.015625)"/>
       </defs>
       <use xlink:href="#DejaVuSans-31"/>
       <use xlink:href="#DejaVuSans-30" x="63.623047"/>
       <use xlink:href="#DejaVuSans-30" x="127.246094"/>
      </g>
     </g>
    </g>
    <g id="xtick_3">
     <g id="line2d_3">
      <g>
       <use xlink:href="#md5a6c64480" x="271.475389" y="416.476875" style="stroke: #000000; stroke-width: 0.8"/>
      </g>
     </g>
     <g id="text_3">
      <!-- 200 -->
      <g transform="translate(252.387889 438.67375)scale(0.2 -0.2)">
       <defs>
        <path id="DejaVuSans-32" d="M 1228 531 
L 3431 531 
L 3431 0 
L 469 0 
L 469 531 
Q 828 903 1448 1529 
Q 2069 2156 2228 2338 
Q 2531 2678 2651 2914 
Q 2772 3150 2772 3378 
Q 2772 3750 2511 3984 
Q 2250 4219 1831 4219 
Q 1534 4219 1204 4116 
Q 875 4013 500 3803 
L 500 4441 
Q 881 4594 1212 4672 
Q 1544 4750 1819 4750 
Q 2544 4750 2975 4387 
Q 3406 4025 3406 3419 
Q 3406 3131 3298 2873 
Q 3191 2616 2906 2266 
Q 2828 2175 2409 1742 
Q 1991 1309 1228 531 
z
" transform="scale(0.015625)"/>
       </defs>
       <use xlink:href="#DejaVuSans-32"/>
       <use xlink:href="#DejaVuSans-30" x="63.623047"/>
       <use xlink:href="#DejaVuSans-30" x="127.246094"/>
      </g>
     </g>
    </g>
    <g id="xtick_4">
     <g id="line2d_4">
      <g>
       <use xlink:href="#md5a6c64480" x="349.040027" y="416.476875" style="stroke: #000000; stroke-width: 0.8"/>
      </g>
     </g>
     <g id="text_4">
      <!-- 300 -->
      <g transform="translate(329.952527 438.67375)scale(0.2 -0.2)">
       <defs>
        <path id="DejaVuSans-33" d="M 2597 2516 
Q 3050 2419 3304 2112 
Q 3559 1806 3559 1356 
Q 3559 666 3084 287 
Q 2609 -91 1734 -91 
Q 1441 -91 1130 -33 
Q 819 25 488 141 
L 488 750 
Q 750 597 1062 519 
Q 1375 441 1716 441 
Q 2309 441 2620 675 
Q 2931 909 2931 1356 
Q 2931 1769 2642 2001 
Q 2353 2234 1838 2234 
L 1294 2234 
L 1294 2753 
L 1863 2753 
Q 2328 2753 2575 2939 
Q 2822 3125 2822 3475 
Q 2822 3834 2567 4026 
Q 2313 4219 1838 4219 
Q 1578 4219 1281 4162 
Q 984 4106 628 3988 
L 628 4550 
Q 988 4650 1302 4700 
Q 1616 4750 1894 4750 
Q 2613 4750 3031 4423 
Q 3450 4097 3450 3541 
Q 3450 3153 3228 2886 
Q 3006 2619 2597 2516 
z
" transform="scale(0.015625)"/>
       </defs>
       <use xlink:href="#DejaVuSans-33"/>
       <use xlink:href="#DejaVuSans-30" x="63.623047"/>
       <use xlink:href="#DejaVuSans-30" x="127.246094"/>
      </g>
     </g>
    </g>
    <g id="xtick_5">
     <g id="line2d_5">
      <g>
       <use xlink:href="#md5a6c64480" x="426.604664" y="416.476875" style="stroke: #000000; stroke-width: 0.8"/>
      </g>
     </g>
     <g id="text_5">
      <!-- 400 -->
      <g transform="translate(407.517164 438.67375)scale(0.2 -0.2)">
       <defs>
        <path id="DejaVuSans-34" d="M 2419 4116 
L 825 1625 
L 2419 1625 
L 2419 4116 
z
M 2253 4666 
L 3047 4666 
L 3047 1625 
L 3713 1625 
L 3713 1100 
L 3047 1100 
L 3047 0 
L 2419 0 
L 2419 1100 
L 313 1100 
L 313 1709 
L 2253 4666 
z
" transform="scale(0.015625)"/>
       </defs>
       <use xlink:href="#DejaVuSans-34"/>
       <use xlink:href="#DejaVuSans-30" x="63.623047"/>
       <use xlink:href="#DejaVuSans-30" x="127.246094"/>
      </g>
     </g>
    </g>
    <g id="xtick_6">
     <g id="line2d_6">
      <g>
       <use xlink:href="#md5a6c64480" x="504.169301" y="416.476875" style="stroke: #000000; stroke-width: 0.8"/>
      </g>
     </g>
     <g id="text_6">
      <!-- 500 -->
      <g transform="translate(485.081801 438.67375)scale(0.2 -0.2)">
       <defs>
        <path id="DejaVuSans-35" d="M 691 4666 
L 3169 4666 
L 3169 4134 
L 1269 4134 
L 1269 2991 
Q 1406 3038 1543 3061 
Q 1681 3084 1819 3084 
Q 2600 3084 3056 2656 
Q 3513 2228 3513 1497 
Q 3513 744 3044 326 
Q 2575 -91 1722 -91 
Q 1428 -91 1123 -41 
Q 819 9 494 109 
L 494 744 
Q 775 591 1075 516 
Q 1375 441 1709 441 
Q 2250 441 2565 725 
Q 2881 1009 2881 1497 
Q 2881 1984 2565 2268 
Q 2250 2553 1709 2553 
Q 1456 2553 1204 2497 
Q 953 2441 691 2322 
L 691 4666 
z
" transform="scale(0.015625)"/>
       </defs>
       <use xlink:href="#DejaVuSans-35"/>
       <use xlink:href="#DejaVuSans-30" x="63.623047"/>
       <use xlink:href="#DejaVuSans-30" x="127.246094"/>
      </g>
     </g>
    </g>
    <g id="xtick_7">
     <g id="line2d_7">
      <g>
       <use xlink:href="#md5a6c64480" x="581.733938" y="416.476875" style="stroke: #000000; stroke-width: 0.8"/>
      </g>
     </g>
     <g id="text_7">
      <!-- 600 -->
      <g transform="translate(562.646438 438.67375)scale(0.2 -0.2)">
       <defs>
        <path id="DejaVuSans-36" d="M 2113 2584 
Q 1688 2584 1439 2293 
Q 1191 2003 1191 1497 
Q 1191 994 1439 701 
Q 1688 409 2113 409 
Q 2538 409 2786 701 
Q 3034 994 3034 1497 
Q 3034 2003 2786 2293 
Q 2538 2584 2113 2584 
z
M 3366 4563 
L 3366 3988 
Q 3128 4100 2886 4159 
Q 2644 4219 2406 4219 
Q 1781 4219 1451 3797 
Q 1122 3375 1075 2522 
Q 1259 2794 1537 2939 
Q 1816 3084 2150 3084 
Q 2853 3084 3261 2657 
Q 3669 2231 3669 1497 
Q 3669 778 3244 343 
Q 2819 -91 2113 -91 
Q 1303 -91 875 529 
Q 447 1150 447 2328 
Q 447 3434 972 4092 
Q 1497 4750 2381 4750 
Q 2619 4750 2861 4703 
Q 3103 4656 3366 4563 
z
" transform="scale(0.015625)"/>
       </defs>
       <use xlink:href="#DejaVuSans-36"/>
       <use xlink:href="#DejaVuSans-30" x="63.623047"/>
       <use xlink:href="#DejaVuSans-30" x="127.246094"/>
      </g>
     </g>
    </g>
    <g id="text_8">
     <!-- Days since antigen exposure -->
     <g transform="translate(226.337813 462.03)scale(0.2 -0.2)">
      <defs>
       <path id="DejaVuSans-44" d="M 1259 4147 
L 1259 519 
L 2022 519 
Q 2988 519 3436 956 
Q 3884 1394 3884 2338 
Q 3884 3275 3436 3711 
Q 2988 4147 2022 4147 
L 1259 4147 
z
M 628 4666 
L 1925 4666 
Q 3281 4666 3915 4102 
Q 4550 3538 4550 2338 
Q 4550 1131 3912 565 
Q 3275 0 1925 0 
L 628 0 
L 628 4666 
z
" transform="scale(0.015625)"/>
       <path id="DejaVuSans-61" d="M 2194 1759 
Q 1497 1759 1228 1600 
Q 959 1441 959 1056 
Q 959 750 1161 570 
Q 1363 391 1709 391 
Q 2188 391 2477 730 
Q 2766 1069 2766 1631 
L 2766 1759 
L 2194 1759 
z
M 3341 1997 
L 3341 0 
L 2766 0 
L 2766 531 
Q 2569 213 2275 61 
Q 1981 -91 1556 -91 
Q 1019 -91 701 211 
Q 384 513 384 1019 
Q 384 1609 779 1909 
Q 1175 2209 1959 2209 
L 2766 2209 
L 2766 2266 
Q 2766 2663 2505 2880 
Q 2244 3097 1772 3097 
Q 1472 3097 1187 3025 
Q 903 2953 641 2809 
L 641 3341 
Q 956 3463 1253 3523 
Q 1550 3584 1831 3584 
Q 2591 3584 2966 3190 
Q 3341 2797 3341 1997 
z
" transform="scale(0.015625)"/>
       <path id="DejaVuSans-79" d="M 2059 -325 
Q 1816 -950 1584 -1140 
Q 1353 -1331 966 -1331 
L 506 -1331 
L 506 -850 
L 844 -850 
Q 1081 -850 1212 -737 
Q 1344 -625 1503 -206 
L 1606 56 
L 191 3500 
L 800 3500 
L 1894 763 
L 2988 3500 
L 3597 3500 
L 2059 -325 
z
" transform="scale(0.015625)"/>
       <path id="DejaVuSans-73" d="M 2834 3397 
L 2834 2853 
Q 2591 2978 2328 3040 
Q 2066 3103 1784 3103 
Q 1356 3103 1142 2972 
Q 928 2841 928 2578 
Q 928 2378 1081 2264 
Q 1234 2150 1697 2047 
L 1894 2003 
Q 2506 1872 2764 1633 
Q 3022 1394 3022 966 
Q 3022 478 2636 193 
Q 2250 -91 1575 -91 
Q 1294 -91 989 -36 
Q 684 19 347 128 
L 347 722 
Q 666 556 975 473 
Q 1284 391 1588 391 
Q 1994 391 2212 530 
Q 2431 669 2431 922 
Q 2431 1156 2273 1281 
Q 2116 1406 1581 1522 
L 1381 1569 
Q 847 1681 609 1914 
Q 372 2147 372 2553 
Q 372 3047 722 3315 
Q 1072 3584 1716 3584 
Q 2034 3584 2315 3537 
Q 2597 3491 2834 3397 
z
" transform="scale(0.015625)"/>
       <path id="DejaVuSans-20" transform="scale(0.015625)"/>
       <path id="DejaVuSans-69" d="M 603 3500 
L 1178 3500 
L 1178 0 
L 603 0 
L 603 3500 
z
M 603 4863 
L 1178 4863 
L 1178 4134 
L 603 4134 
L 603 4863 
z
" transform="scale(0.015625)"/>
       <path id="DejaVuSans-6e" d="M 3513 2113 
L 3513 0 
L 2938 0 
L 2938 2094 
Q 2938 2591 2744 2837 
Q 2550 3084 2163 3084 
Q 1697 3084 1428 2787 
Q 1159 2491 1159 1978 
L 1159 0 
L 581 0 
L 581 3500 
L 1159 3500 
L 1159 2956 
Q 1366 3272 1645 3428 
Q 1925 3584 2291 3584 
Q 2894 3584 3203 3211 
Q 3513 2838 3513 2113 
z
" transform="scale(0.015625)"/>
       <path id="DejaVuSans-63" d="M 3122 3366 
L 3122 2828 
Q 2878 2963 2633 3030 
Q 2388 3097 2138 3097 
Q 1578 3097 1268 2742 
Q 959 2388 959 1747 
Q 959 1106 1268 751 
Q 1578 397 2138 397 
Q 2388 397 2633 464 
Q 2878 531 3122 666 
L 3122 134 
Q 2881 22 2623 -34 
Q 2366 -91 2075 -91 
Q 1284 -91 818 406 
Q 353 903 353 1747 
Q 353 2603 823 3093 
Q 1294 3584 2113 3584 
Q 2378 3584 2631 3529 
Q 2884 3475 3122 3366 
z
" transform="scale(0.015625)"/>
       <path id="DejaVuSans-65" d="M 3597 1894 
L 3597 1613 
L 953 1613 
Q 991 1019 1311 708 
Q 1631 397 2203 397 
Q 2534 397 2845 478 
Q 3156 559 3463 722 
L 3463 178 
Q 3153 47 2828 -22 
Q 2503 -91 2169 -91 
Q 1331 -91 842 396 
Q 353 884 353 1716 
Q 353 2575 817 3079 
Q 1281 3584 2069 3584 
Q 2775 3584 3186 3129 
Q 3597 2675 3597 1894 
z
M 3022 2063 
Q 3016 2534 2758 2815 
Q 2500 3097 2075 3097 
Q 1594 3097 1305 2825 
Q 1016 2553 972 2059 
L 3022 2063 
z
" transform="scale(0.015625)"/>
       <path id="DejaVuSans-74" d="M 1172 4494 
L 1172 3500 
L 2356 3500 
L 2356 3053 
L 1172 3053 
L 1172 1153 
Q 1172 725 1289 603 
Q 1406 481 1766 481 
L 2356 481 
L 2356 0 
L 1766 0 
Q 1100 0 847 248 
Q 594 497 594 1153 
L 594 3053 
L 172 3053 
L 172 3500 
L 594 3500 
L 594 4494 
L 1172 4494 
z
" transform="scale(0.015625)"/>
       <path id="DejaVuSans-67" d="M 2906 1791 
Q 2906 2416 2648 2759 
Q 2391 3103 1925 3103 
Q 1463 3103 1205 2759 
Q 947 2416 947 1791 
Q 947 1169 1205 825 
Q 1463 481 1925 481 
Q 2391 481 2648 825 
Q 2906 1169 2906 1791 
z
M 3481 434 
Q 3481 -459 3084 -895 
Q 2688 -1331 1869 -1331 
Q 1566 -1331 1297 -1286 
Q 1028 -1241 775 -1147 
L 775 -588 
Q 1028 -725 1275 -790 
Q 1522 -856 1778 -856 
Q 2344 -856 2625 -561 
Q 2906 -266 2906 331 
L 2906 616 
Q 2728 306 2450 153 
Q 2172 0 1784 0 
Q 1141 0 747 490 
Q 353 981 353 1791 
Q 353 2603 747 3093 
Q 1141 3584 1784 3584 
Q 2172 3584 2450 3431 
Q 2728 3278 2906 2969 
L 2906 3500 
L 3481 3500 
L 3481 434 
z
" transform="scale(0.015625)"/>
       <path id="DejaVuSans-78" d="M 3513 3500 
L 2247 1797 
L 3578 0 
L 2900 0 
L 1881 1375 
L 863 0 
L 184 0 
L 1544 1831 
L 300 3500 
L 978 3500 
L 1906 2253 
L 2834 3500 
L 3513 3500 
z
" transform="scale(0.015625)"/>
       <path id="DejaVuSans-70" d="M 1159 525 
L 1159 -1331 
L 581 -1331 
L 581 3500 
L 1159 3500 
L 1159 2969 
Q 1341 3281 1617 3432 
Q 1894 3584 2278 3584 
Q 2916 3584 3314 3078 
Q 3713 2572 3713 1747 
Q 3713 922 3314 415 
Q 2916 -91 2278 -91 
Q 1894 -91 1617 61 
Q 1341 213 1159 525 
z
M 3116 1747 
Q 3116 2381 2855 2742 
Q 2594 3103 2138 3103 
Q 1681 3103 1420 2742 
Q 1159 2381 1159 1747 
Q 1159 1113 1420 752 
Q 1681 391 2138 391 
Q 2594 391 2855 752 
Q 3116 1113 3116 1747 
z
" transform="scale(0.015625)"/>
       <path id="DejaVuSans-6f" d="M 1959 3097 
Q 1497 3097 1228 2736 
Q 959 2375 959 1747 
Q 959 1119 1226 758 
Q 1494 397 1959 397 
Q 2419 397 2687 759 
Q 2956 1122 2956 1747 
Q 2956 2369 2687 2733 
Q 2419 3097 1959 3097 
z
M 1959 3584 
Q 2709 3584 3137 3096 
Q 3566 2609 3566 1747 
Q 3566 888 3137 398 
Q 2709 -91 1959 -91 
Q 1206 -91 779 398 
Q 353 888 353 1747 
Q 353 2609 779 3096 
Q 1206 3584 1959 3584 
z
" transform="scale(0.015625)"/>
       <path id="DejaVuSans-75" d="M 544 1381 
L 544 3500 
L 1119 3500 
L 1119 1403 
Q 1119 906 1312 657 
Q 1506 409 1894 409 
Q 2359 409 2629 706 
Q 2900 1003 2900 1516 
L 2900 3500 
L 3475 3500 
L 3475 0 
L 2900 0 
L 2900 538 
Q 2691 219 2414 64 
Q 2138 -91 1772 -91 
Q 1169 -91 856 284 
Q 544 659 544 1381 
z
M 1991 3584 
L 1991 3584 
z
" transform="scale(0.015625)"/>
       <path id="DejaVuSans-72" d="M 2631 2963 
Q 2534 3019 2420 3045 
Q 2306 3072 2169 3072 
Q 1681 3072 1420 2755 
Q 1159 2438 1159 1844 
L 1159 0 
L 581 0 
L 581 3500 
L 1159 3500 
L 1159 2956 
Q 1341 3275 1631 3429 
Q 1922 3584 2338 3584 
Q 2397 3584 2469 3576 
Q 2541 3569 2628 3553 
L 2631 2963 
z
" transform="scale(0.015625)"/>
      </defs>
      <use xlink:href="#DejaVuSans-44"/>
      <use xlink:href="#DejaVuSans-61" x="77.001953"/>
      <use xlink:href="#DejaVuSans-79" x="138.28125"/>
      <use xlink:href="#DejaVuSans-73" x="197.460938"/>
      <use xlink:href="#DejaVuSans-20" x="249.560547"/>
      <use xlink:href="#DejaVuSans-73" x="281.347656"/>
      <use xlink:href="#DejaVuSans-69" x="333.447266"/>
      <use xlink:href="#DejaVuSans-6e" x="361.230469"/>
      <use xlink:href="#DejaVuSans-63" x="424.609375"/>
      <use xlink:href="#DejaVuSans-65" x="479.589844"/>
      <use xlink:href="#DejaVuSans-20" x="541.113281"/>
      <use xlink:href="#DejaVuSans-61" x="572.900391"/>
      <use xlink:href="#DejaVuSans-6e" x="634.179688"/>
      <use xlink:href="#DejaVuSans-74" x="697.558594"/>
      <use xlink:href="#DejaVuSans-69" x="736.767578"/>
      <use xlink:href="#DejaVuSans-67" x="764.550781"/>
      <use xlink:href="#DejaVuSans-65" x="828.027344"/>
      <use xlink:href="#DejaVuSans-6e" x="889.550781"/>
      <use xlink:href="#DejaVuSans-20" x="952.929688"/>
      <use xlink:href="#DejaVuSans-65" x="984.716797"/>
      <use xlink:href="#DejaVuSans-78" x="1044.490234"/>
      <use xlink:href="#DejaVuSans-70" x="1103.669922"/>
      <use xlink:href="#DejaVuSans-6f" x="1167.146484"/>
      <use xlink:href="#DejaVuSans-73" x="1228.328125"/>
      <use xlink:href="#DejaVuSans-75" x="1280.427734"/>
      <use xlink:href="#DejaVuSans-72" x="1343.806641"/>
      <use xlink:href="#DejaVuSans-65" x="1382.669922"/>
     </g>
    </g>
   </g>
   <g id="matplotlib.axis_2">
    <g id="ytick_1">
     <g id="line2d_8">
      <defs>
       <path id="m960bf5e669" d="M 0 0 
L -3.5 0 
" style="stroke: #000000; stroke-width: 0.8"/>
      </defs>
      <g>
       <use xlink:href="#m960bf5e669" x="91.758125" y="384.131167" style="stroke: #000000; stroke-width: 0.8"/>
      </g>
     </g>
     <g id="text_9">
      <!-- 0.0 -->
      <g transform="translate(52.951875 391.729605)scale(0.2 -0.2)">
       <defs>
        <path id="DejaVuSans-2e" d="M 684 794 
L 1344 794 
L 1344 0 
L 684 0 
L 684 794 
z
" transform="scale(0.015625)"/>
       </defs>
       <use xlink:href="#DejaVuSans-30"/>
       <use xlink:href="#DejaVuSans-2e" x="63.623047"/>
       <use xlink:href="#DejaVuSans-30" x="95.410156"/>
      </g>
     </g>
    </g>
    <g id="ytick_2">
     <g id="line2d_9">
      <g>
       <use xlink:href="#m960bf5e669" x="91.758125" y="319.439752" style="stroke: #000000; stroke-width: 0.8"/>
      </g>
     </g>
     <g id="text_10">
      <!-- 0.2 -->
      <g transform="translate(52.951875 327.038189)scale(0.2 -0.2)">
       <use xlink:href="#DejaVuSans-30"/>
       <use xlink:href="#DejaVuSans-2e" x="63.623047"/>
       <use xlink:href="#DejaVuSans-32" x="95.410156"/>
      </g>
     </g>
    </g>
    <g id="ytick_3">
     <g id="line2d_10">
      <g>
       <use xlink:href="#m960bf5e669" x="91.758125" y="254.748336" style="stroke: #000000; stroke-width: 0.8"/>
      </g>
     </g>
     <g id="text_11">
      <!-- 0.4 -->
      <g transform="translate(52.951875 262.346774)scale(0.2 -0.2)">
       <use xlink:href="#DejaVuSans-30"/>
       <use xlink:href="#DejaVuSans-2e" x="63.623047"/>
       <use xlink:href="#DejaVuSans-34" x="95.410156"/>
      </g>
     </g>
    </g>
    <g id="ytick_4">
     <g id="line2d_11">
      <g>
       <use xlink:href="#m960bf5e669" x="91.758125" y="190.056921" style="stroke: #000000; stroke-width: 0.8"/>
      </g>
     </g>
     <g id="text_12">
      <!-- 0.6 -->
      <g transform="translate(52.951875 197.655358)scale(0.2 -0.2)">
       <use xlink:href="#DejaVuSans-30"/>
       <use xlink:href="#DejaVuSans-2e" x="63.623047"/>
       <use xlink:href="#DejaVuSans-36" x="95.410156"/>
      </g>
     </g>
    </g>
    <g id="ytick_5">
     <g id="line2d_12">
      <g>
       <use xlink:href="#m960bf5e669" x="91.758125" y="125.365505" style="stroke: #000000; stroke-width: 0.8"/>
      </g>
     </g>
     <g id="text_13">
      <!-- 0.8 -->
      <g transform="translate(52.951875 132.963943)scale(0.2 -0.2)">
       <defs>
        <path id="DejaVuSans-38" d="M 2034 2216 
Q 1584 2216 1326 1975 
Q 1069 1734 1069 1313 
Q 1069 891 1326 650 
Q 1584 409 2034 409 
Q 2484 409 2743 651 
Q 3003 894 3003 1313 
Q 3003 1734 2745 1975 
Q 2488 2216 2034 2216 
z
M 1403 2484 
Q 997 2584 770 2862 
Q 544 3141 544 3541 
Q 544 4100 942 4425 
Q 1341 4750 2034 4750 
Q 2731 4750 3128 4425 
Q 3525 4100 3525 3541 
Q 3525 3141 3298 2862 
Q 3072 2584 2669 2484 
Q 3125 2378 3379 2068 
Q 3634 1759 3634 1313 
Q 3634 634 3220 271 
Q 2806 -91 2034 -91 
Q 1263 -91 848 271 
Q 434 634 434 1313 
Q 434 1759 690 2068 
Q 947 2378 1403 2484 
z
M 1172 3481 
Q 1172 3119 1398 2916 
Q 1625 2713 2034 2713 
Q 2441 2713 2670 2916 
Q 2900 3119 2900 3481 
Q 2900 3844 2670 4047 
Q 2441 4250 2034 4250 
Q 1625 4250 1398 4047 
Q 1172 3844 1172 3481 
z
" transform="scale(0.015625)"/>
       </defs>
       <use xlink:href="#DejaVuSans-30"/>
       <use xlink:href="#DejaVuSans-2e" x="63.623047"/>
       <use xlink:href="#DejaVuSans-38" x="95.410156"/>
      </g>
     </g>
    </g>
    <g id="ytick_6">
     <g id="line2d_13">
      <g>
       <use xlink:href="#m960bf5e669" x="91.758125" y="60.67409" style="stroke: #000000; stroke-width: 0.8"/>
      </g>
     </g>
     <g id="text_14">
      <!-- 1.0 -->
      <g transform="translate(52.951875 68.272527)scale(0.2 -0.2)">
       <use xlink:href="#DejaVuSans-31"/>
       <use xlink:href="#DejaVuSans-2e" x="63.623047"/>
       <use xlink:href="#DejaVuSans-30" x="95.410156"/>
      </g>
     </g>
    </g>
    <g id="text_15">
     <!-- Virus neutralization -->
     <g transform="translate(22.396875 319.741562)rotate(-90)scale(0.2 -0.2)">
      <defs>
       <path id="DejaVuSans-56" d="M 1831 0 
L 50 4666 
L 709 4666 
L 2188 738 
L 3669 4666 
L 4325 4666 
L 2547 0 
L 1831 0 
z
" transform="scale(0.015625)"/>
       <path id="DejaVuSans-6c" d="M 603 4863 
L 1178 4863 
L 1178 0 
L 603 0 
L 603 4863 
z
" transform="scale(0.015625)"/>
       <path id="DejaVuSans-7a" d="M 353 3500 
L 3084 3500 
L 3084 2975 
L 922 459 
L 3084 459 
L 3084 0 
L 275 0 
L 275 525 
L 2438 3041 
L 353 3041 
L 353 3500 
z
" transform="scale(0.015625)"/>
      </defs>
      <use xlink:href="#DejaVuSans-56"/>
      <use xlink:href="#DejaVuSans-69" x="66.158203"/>
      <use xlink:href="#DejaVuSans-72" x="93.941406"/>
      <use xlink:href="#DejaVuSans-75" x="135.054688"/>
      <use xlink:href="#DejaVuSans-73" x="198.433594"/>
      <use xlink:href="#DejaVuSans-20" x="250.533203"/>
      <use xlink:href="#DejaVuSans-6e" x="282.320312"/>
      <use xlink:href="#DejaVuSans-65" x="345.699219"/>
      <use xlink:href="#DejaVuSans-75" x="407.222656"/>
      <use xlink:href="#DejaVuSans-74" x="470.601562"/>
      <use xlink:href="#DejaVuSans-72" x="509.810547"/>
      <use xlink:href="#DejaVuSans-61" x="550.923828"/>
      <use xlink:href="#DejaVuSans-6c" x="612.203125"/>
      <use xlink:href="#DejaVuSans-69" x="639.986328"/>
      <use xlink:href="#DejaVuSans-7a" x="667.769531"/>
      <use xlink:href="#DejaVuSans-61" x="720.259766"/>
      <use xlink:href="#DejaVuSans-74" x="781.539062"/>
      <use xlink:href="#DejaVuSans-69" x="820.748047"/>
      <use xlink:href="#DejaVuSans-6f" x="848.53125"/>
      <use xlink:href="#DejaVuSans-6e" x="909.712891"/>
     </g>
     <!--  probability -->
     <g transform="translate(44.7925 278.966562)rotate(-90)scale(0.2 -0.2)">
      <defs>
       <path id="DejaVuSans-62" d="M 3116 1747 
Q 3116 2381 2855 2742 
Q 2594 3103 2138 3103 
Q 1681 3103 1420 2742 
Q 1159 2381 1159 1747 
Q 1159 1113 1420 752 
Q 1681 391 2138 391 
Q 2594 391 2855 752 
Q 3116 1113 3116 1747 
z
M 1159 2969 
Q 1341 3281 1617 3432 
Q 1894 3584 2278 3584 
Q 2916 3584 3314 3078 
Q 3713 2572 3713 1747 
Q 3713 922 3314 415 
Q 2916 -91 2278 -91 
Q 1894 -91 1617 61 
Q 1341 213 1159 525 
L 1159 0 
L 581 0 
L 581 4863 
L 1159 4863 
L 1159 2969 
z
" transform="scale(0.015625)"/>
      </defs>
      <use xlink:href="#DejaVuSans-20"/>
      <use xlink:href="#DejaVuSans-70" x="31.787109"/>
      <use xlink:href="#DejaVuSans-72" x="95.263672"/>
      <use xlink:href="#DejaVuSans-6f" x="134.126953"/>
      <use xlink:href="#DejaVuSans-62" x="195.308594"/>
      <use xlink:href="#DejaVuSans-61" x="258.785156"/>
      <use xlink:href="#DejaVuSans-62" x="320.064453"/>
      <use xlink:href="#DejaVuSans-69" x="383.541016"/>
      <use xlink:href="#DejaVuSans-6c" x="411.324219"/>
      <use xlink:href="#DejaVuSans-69" x="439.107422"/>
      <use xlink:href="#DejaVuSans-74" x="466.890625"/>
      <use xlink:href="#DejaVuSans-79" x="506.099609"/>
     </g>
    </g>
   </g>
   <g id="patch_3">
    <path d="M 91.758125 416.476875 
L 91.758125 28.396875 
" style="fill: none; stroke: #000000; stroke-width: 0.8; stroke-linejoin: miter; stroke-linecap: square"/>
   </g>
   <g id="patch_4">
    <path d="M 649.758125 416.476875 
L 649.758125 28.396875 
" style="fill: none; stroke: #000000; stroke-width: 0.8; stroke-linejoin: miter; stroke-linecap: square"/>
   </g>
   <g id="patch_5">
    <path d="M 91.758125 416.476875 
L 649.758125 416.476875 
" style="fill: none; stroke: #000000; stroke-width: 0.8; stroke-linejoin: miter; stroke-linecap: square"/>
   </g>
   <g id="patch_6">
    <path d="M 91.758125 28.396875 
L 649.758125 28.396875 
" style="fill: none; stroke: #000000; stroke-width: 0.8; stroke-linejoin: miter; stroke-linecap: square"/>
   </g>
   <g id="text_16">
    <!-- BA.4 antigen -->
    <g transform="translate(306.509687 22.396875)scale(0.2 -0.2)">
     <defs>
      <path id="DejaVuSans-42" d="M 1259 2228 
L 1259 519 
L 2272 519 
Q 2781 519 3026 730 
Q 3272 941 3272 1375 
Q 3272 1813 3026 2020 
Q 2781 2228 2272 2228 
L 1259 2228 
z
M 1259 4147 
L 1259 2741 
L 2194 2741 
Q 2656 2741 2882 2914 
Q 3109 3088 3109 3444 
Q 3109 3797 2882 3972 
Q 2656 4147 2194 4147 
L 1259 4147 
z
M 628 4666 
L 2241 4666 
Q 2963 4666 3353 4366 
Q 3744 4066 3744 3513 
Q 3744 3084 3544 2831 
Q 3344 2578 2956 2516 
Q 3422 2416 3680 2098 
Q 3938 1781 3938 1306 
Q 3938 681 3513 340 
Q 3088 0 2303 0 
L 628 0 
L 628 4666 
z
" transform="scale(0.015625)"/>
      <path id="DejaVuSans-41" d="M 2188 4044 
L 1331 1722 
L 3047 1722 
L 2188 4044 
z
M 1831 4666 
L 2547 4666 
L 4325 0 
L 3669 0 
L 3244 1197 
L 1141 1197 
L 716 0 
L 50 0 
L 1831 4666 
z
" transform="scale(0.015625)"/>
     </defs>
     <use xlink:href="#DejaVuSans-42"/>
     <use xlink:href="#DejaVuSans-41" x="68.603516"/>
     <use xlink:href="#DejaVuSans-2e" x="135.261719"/>
     <use xlink:href="#DejaVuSans-34" x="167.048828"/>
     <use xlink:href="#DejaVuSans-20" x="230.671875"/>
     <use xlink:href="#DejaVuSans-61" x="262.458984"/>
     <use xlink:href="#DejaVuSans-6e" x="323.738281"/>
     <use xlink:href="#DejaVuSans-74" x="387.117188"/>
     <use xlink:href="#DejaVuSans-69" x="426.326172"/>
     <use xlink:href="#DejaVuSans-67" x="454.109375"/>
     <use xlink:href="#DejaVuSans-65" x="517.585938"/>
     <use xlink:href="#DejaVuSans-6e" x="579.109375"/>
    </g>
   </g>
   <g id="legend_1">
    <g id="patch_7">
     <path d="M 235.258125 532.900875 
L 482.52375 532.900875 
Q 486.52375 532.900875 486.52375 528.900875 
L 486.52375 501.544625 
Q 486.52375 497.544625 482.52375 497.544625 
L 235.258125 497.544625 
Q 231.258125 497.544625 231.258125 501.544625 
L 231.258125 528.900875 
Q 231.258125 532.900875 235.258125 532.900875 
z
" style="fill: #ffffff; opacity: 0.8; stroke: #cccccc; stroke-linejoin: miter"/>
    </g>
    <g id="patch_8">
     <path d="M 239.258125 520.7415 
L 279.258125 520.7415 
L 279.258125 506.7415 
L 239.258125 506.7415 
z
" style="fill: #ffa500; fill-opacity: 0.3; stroke: #ffa500; stroke-opacity: 0.3; stroke-linejoin: miter"/>
    </g>
    <g id="text_17">
     <!-- BA.4 -->
     <g transform="translate(295.258125 520.7415)scale(0.2 -0.2)">
      <use xlink:href="#DejaVuSans-42"/>
      <use xlink:href="#DejaVuSans-41" x="68.603516"/>
      <use xlink:href="#DejaVuSans-2e" x="135.261719"/>
      <use xlink:href="#DejaVuSans-34" x="167.048828"/>
     </g>
    </g>
    <g id="patch_9">
     <path d="M 381.3925 520.7415 
L 421.3925 520.7415 
L 421.3925 506.7415 
L 381.3925 506.7415 
z
" style="fill: #1f77b4; fill-opacity: 0.3; stroke: #1f77b4; stroke-opacity: 0.3; stroke-linejoin: miter"/>
    </g>
    <g id="text_18">
     <!-- KP.3 -->
     <g transform="translate(437.3925 520.7415)scale(0.2 -0.2)">
      <defs>
       <path id="DejaVuSans-4b" d="M 628 4666 
L 1259 4666 
L 1259 2694 
L 3353 4666 
L 4166 4666 
L 1850 2491 
L 4331 0 
L 3500 0 
L 1259 2247 
L 1259 0 
L 628 0 
L 628 4666 
z
" transform="scale(0.015625)"/>
       <path id="DejaVuSans-50" d="M 1259 4147 
L 1259 2394 
L 2053 2394 
Q 2494 2394 2734 2622 
Q 2975 2850 2975 3272 
Q 2975 3691 2734 3919 
Q 2494 4147 2053 4147 
L 1259 4147 
z
M 628 4666 
L 2053 4666 
Q 2838 4666 3239 4311 
Q 3641 3956 3641 3272 
Q 3641 2581 3239 2228 
Q 2838 1875 2053 1875 
L 1259 1875 
L 1259 0 
L 628 0 
L 628 4666 
z
" transform="scale(0.015625)"/>
      </defs>
      <use xlink:href="#DejaVuSans-4b"/>
      <use xlink:href="#DejaVuSans-50" x="65.576172"/>
      <use xlink:href="#DejaVuSans-2e" x="110.253906"/>
      <use xlink:href="#DejaVuSans-33" x="142.041016"/>
     </g>
    </g>
   </g>
  </g>
 </g>
 <defs>
  <clipPath id="p1a39dfb1a3">
   <rect x="91.758125" y="28.396875" width="558" height="388.08"/>
  </clipPath>
 </defs>
</svg>
