<?xml version="1.0" encoding="utf-8" standalone="no"?>
<!DOCTYPE svg PUBLIC "-//W3C//DTD SVG 1.1//EN"
  "http://www.w3.org/Graphics/SVG/1.1/DTD/svg11.dtd">
<svg xmlns:xlink="http://www.w3.org/1999/xlink" width="656.958125pt" height="540.100875pt" viewBox="0 0 656.958125 540.100875" xmlns="http://www.w3.org/2000/svg" version="1.1">
 <metadata>
  <rdf:RDF xmlns:dc="http://purl.org/dc/elements/1.1/" xmlns:cc="http://creativecommons.org/ns#" xmlns:rdf="http://www.w3.org/1999/02/22-rdf-syntax-ns#">
   <cc:Work>
    <dc:type rdf:resource="http://purl.org/dc/dcmitype/StillImage"/>
    <dc:date>2024-09-30T17:39:26.372114</dc:date>
    <dc:format>image/svg+xml</dc:format>
    <dc:creator>
     <cc:Agent>
      <dc:title>Matplotlib v3.5.2, https://matplotlib.org/</dc:title>
     </cc:Agent>
    </dc:creator>
   </cc:Work>
  </rdf:RDF>
 </metadata>
 <defs>
  <style type="text/css">*{stroke-linejoin: round; stroke-linecap: butt}</style>
 </defs>
 <g id="figure_1">
  <g id="patch_1">
   <path d="M 0 540.100875 
L 656.958125 540.100875 
L 656.958125 0 
L 0 0 
z
" style="fill: #ffffff"/>
  </g>
  <g id="axes_1">
   <g id="patch_2">
    <path d="M 91.758125 416.476875 
L 649.758125 416.476875 
L 649.758125 28.396875 
L 91.758125 28.396875 
z
" style="fill: #ffffff"/>
   </g>
   <g id="PolyCollection_1">
    <defs>
     <path id="m2d80b706f8" d="M 117.121761 -464.06096 
L 117.121761 -397.116121 
L 117.897408 -450.864899 
L 118.673054 -467.331633 
L 119.4487 -473.524795 
L 120.224347 -476.220388 
L 120.999993 -477.530684 
L 121.77564 -478.225437 
L 122.551286 -478.620647 
L 123.326932 -478.858897 
L 124.102579 -479.009679 
L 124.878225 -479.109112 
L 125.653871 -479.177024 
L 126.429518 -479.224817 
L 127.205164 -479.259326 
L 127.980811 -479.28479 
L 128.756457 -479.303928 
L 129.532103 -479.318529 
L 130.30775 -479.3298 
L 131.083396 -479.338576 
L 131.859042 -479.343679 
L 132.634689 -479.336209 
L 133.410335 -479.327415 
L 134.185982 -479.317166 
L 134.961628 -479.305309 
L 135.737274 -479.291664 
L 136.512921 -479.27603 
L 137.288567 -479.258179 
L 138.064213 -479.237855 
L 138.83986 -479.214775 
L 139.615506 -479.188628 
L 140.391153 -479.159068 
L 141.166799 -479.125719 
L 141.942445 -479.08817 
L 142.718092 -479.045971 
L 143.493738 -478.998637 
L 144.269384 -478.945641 
L 145.045031 -478.886414 
L 145.820677 -478.820343 
L 146.596323 -478.746773 
L 147.37197 -478.665 
L 148.147616 -478.574273 
L 148.923263 -478.473791 
L 149.698909 -478.362706 
L 150.474555 -478.240117 
L 151.250202 -478.105074 
L 152.025848 -477.956576 
L 152.801494 -477.793568 
L 153.577141 -477.614949 
L 154.352787 -477.419565 
L 155.128434 -477.206213 
L 155.90408 -476.973645 
L 156.679726 -476.720566 
L 157.455373 -476.445636 
L 158.231019 -476.147477 
L 159.006665 -475.824669 
L 159.782312 -475.475761 
L 160.557958 -475.099269 
L 161.333605 -474.69368 
L 162.109251 -474.257462 
L 162.884897 -473.789062 
L 163.660544 -473.286915 
L 164.43619 -472.749448 
L 165.211836 -472.175088 
L 165.987483 -471.562262 
L 166.763129 -470.90941 
L 167.538776 -470.214989 
L 168.314422 -469.477476 
L 169.090068 -468.695379 
L 169.865715 -467.867243 
L 170.641361 -466.991655 
L 171.417007 -466.06725 
L 172.192654 -465.09272 
L 172.9683 -464.066822 
L 173.743947 -462.988377 
L 174.519593 -461.856284 
L 175.295239 -460.669522 
L 176.070886 -459.427157 
L 176.846532 -458.128346 
L 177.622178 -456.772343 
L 178.397825 -455.358503 
L 179.173471 -453.886286 
L 179.949117 -452.35526 
L 180.724764 -450.765108 
L 181.50041 -449.115625 
L 182.276057 -447.406723 
L 183.051703 -445.638434 
L 183.827349 -443.810909 
L 184.602996 -441.924419 
L 185.378642 -439.979355 
L 186.154288 -437.976229 
L 186.929935 -435.915669 
L 187.705581 -433.798423 
L 188.481228 -431.625352 
L 189.256874 -429.397431 
L 190.03252 -427.115743 
L 190.808167 -424.781478 
L 191.583813 -422.395928 
L 192.359459 -419.960482 
L 193.135106 -417.476624 
L 193.910752 -414.945926 
L 194.686399 -412.370042 
L 195.462045 -409.750705 
L 196.237691 -407.08972 
L 197.013338 -404.388957 
L 197.788984 -401.65035 
L 198.56463 -398.875882 
L 199.340277 -396.067589 
L 200.115923 -393.227546 
L 200.89157 -390.357864 
L 201.667216 -387.460686 
L 202.442862 -384.538174 
L 203.218509 -381.592512 
L 203.994155 -378.625893 
L 204.769801 -375.640515 
L 205.545448 -372.638578 
L 206.321094 -369.622276 
L 207.096741 -366.593791 
L 207.872387 -363.55529 
L 208.648033 -360.50892 
L 209.42368 -357.456803 
L 210.199326 -354.40103 
L 210.974972 -351.343659 
L 211.750619 -348.286712 
L 212.526265 -345.232168 
L 213.301911 -342.181962 
L 214.077558 -339.137983 
L 214.853204 -336.10207 
L 215.628851 -333.076008 
L 216.404497 -330.061528 
L 217.180143 -327.060305 
L 217.95579 -324.073955 
L 218.731436 -321.104036 
L 219.507082 -318.152043 
L 220.282729 -315.21941 
L 221.058375 -312.307508 
L 221.834022 -309.417647 
L 222.609668 -306.551071 
L 223.385314 -303.708963 
L 224.160961 -300.892441 
L 224.936607 -298.102559 
L 225.712253 -295.340312 
L 226.4879 -292.60663 
L 227.263546 -289.902381 
L 228.039193 -287.228375 
L 228.814839 -284.585362 
L 229.590485 -281.974031 
L 230.366132 -279.395017 
L 231.141778 -276.848897 
L 231.917424 -274.336193 
L 232.693071 -271.857376 
L 233.468717 -269.412863 
L 234.244364 -267.00302 
L 235.02001 -264.628168 
L 235.795656 -262.288578 
L 236.571303 -259.984475 
L 237.346949 -257.716042 
L 238.122595 -255.483419 
L 238.898242 -253.286705 
L 239.673888 -251.125962 
L 240.449535 -249.001212 
L 241.225181 -246.912443 
L 242.000827 -244.85961 
L 242.776474 -242.842635 
L 243.55212 -240.86141 
L 244.327766 -238.915795 
L 245.103413 -237.005627 
L 245.879059 -235.130714 
L 246.654705 -233.290841 
L 247.430352 -231.485769 
L 248.205998 -229.715239 
L 248.981645 -227.97897 
L 249.757291 -226.276664 
L 250.532937 -224.608004 
L 251.308584 -222.972658 
L 252.08423 -221.370278 
L 252.859876 -219.800504 
L 253.635523 -218.262961 
L 254.411169 -216.757265 
L 255.186816 -215.283019 
L 255.962462 -213.839818 
L 256.738108 -212.427249 
L 257.513755 -211.04489 
L 258.289401 -209.692315 
L 259.065047 -208.369088 
L 259.840694 -207.074773 
L 260.61634 -205.808925 
L 261.391987 -204.5711 
L 262.167633 -203.360849 
L 262.943279 -202.17772 
L 263.718926 -201.021262 
L 264.494572 -199.891021 
L 265.270218 -198.786544 
L 266.045865 -197.707378 
L 266.821511 -196.653071 
L 267.597158 -195.623172 
L 268.372804 -194.61723 
L 269.14845 -193.634799 
L 269.924097 -192.675434 
L 270.699743 -191.738693 
L 271.475389 -190.824136 
L 272.251036 -189.931328 
L 273.026682 -189.059838 
L 273.802329 -188.209237 
L 274.577975 -187.379103 
L 275.353621 -186.569015 
L 276.129268 -185.778559 
L 276.904914 -185.007327 
L 277.68056 -184.254912 
L 278.456207 -183.520916 
L 279.231853 -182.804944 
L 280.007499 -182.106608 
L 280.783146 -181.425524 
L 281.558792 -180.761315 
L 282.334439 -180.113608 
L 283.110085 -179.482038 
L 283.885731 -178.866243 
L 284.661378 -178.265869 
L 285.437024 -177.680567 
L 286.21267 -177.109995 
L 286.988317 -176.553815 
L 287.763963 -176.011696 
L 288.53961 -175.483313 
L 289.315256 -174.968346 
L 290.090902 -174.466482 
L 290.866549 -173.977414 
L 291.642195 -173.50084 
L 292.417841 -173.036463 
L 293.193488 -172.583995 
L 293.969134 -172.143149 
L 294.744781 -171.713648 
L 295.520427 -171.295218 
L 296.296073 -170.887592 
L 297.07172 -170.490507 
L 297.847366 -170.103707 
L 298.623012 -169.726941 
L 299.398659 -169.359963 
L 300.174305 -169.002532 
L 300.949952 -168.654413 
L 301.725598 -168.315375 
L 302.501244 -167.985193 
L 303.276891 -167.663647 
L 304.052537 -167.350521 
L 304.828183 -167.045605 
L 305.60383 -166.748692 
L 306.379476 -166.459582 
L 307.155122 -166.178077 
L 307.930769 -165.903987 
L 308.706415 -165.637122 
L 309.482062 -165.377299 
L 310.257708 -165.12434 
L 311.033354 -164.87807 
L 311.809001 -164.638318 
L 312.584647 -164.404916 
L 313.360293 -164.177703 
L 314.13594 -163.956518 
L 314.911586 -163.741208 
L 315.687233 -163.531621 
L 316.462879 -163.327609 
L 317.238525 -163.129028 
L 318.014172 -162.935737 
L 318.789818 -162.747599 
L 319.565464 -162.56448 
L 320.341111 -162.386249 
L 321.116757 -162.21278 
L 321.892404 -162.043948 
L 322.66805 -161.879632 
L 323.443696 -161.719713 
L 324.219343 -161.564078 
L 324.994989 -161.412612 
L 325.770635 -161.265207 
L 326.546282 -161.121757 
L 327.321928 -160.982156 
L 328.097575 -160.846304 
L 328.873221 -160.714102 
L 329.648867 -160.585454 
L 330.424514 -160.460265 
L 331.20016 -160.338444 
L 331.975806 -160.219902 
L 332.751453 -160.104553 
L 333.527099 -159.99231 
L 334.302746 -159.883093 
L 335.078392 -159.776821 
L 335.854038 -159.673414 
L 336.629685 -159.572798 
L 337.405331 -159.474898 
L 338.180977 -159.379641 
L 338.956624 -159.286957 
L 339.73227 -159.196778 
L 340.507916 -159.109036 
L 341.283563 -159.023666 
L 342.059209 -158.940605 
L 342.834856 -158.859792 
L 343.610502 -158.781165 
L 344.386148 -158.704667 
L 345.161795 -158.63024 
L 345.937441 -158.557829 
L 346.713087 -158.487379 
L 347.488734 -158.418839 
L 348.26438 -158.352156 
L 349.040027 -158.287282 
L 349.815673 -158.224166 
L 350.591319 -158.162763 
L 351.366966 -158.103026 
L 352.142612 -158.044909 
L 352.918258 -157.98837 
L 353.693905 -157.933366 
L 354.469551 -157.879856 
L 355.245198 -157.827798 
L 356.020844 -157.777155 
L 356.79649 -157.727888 
L 357.572137 -157.679959 
L 358.347783 -157.633333 
L 359.123429 -157.587975 
L 359.899076 -157.543849 
L 360.674722 -157.500924 
L 361.450369 -157.459165 
L 362.226015 -157.418543 
L 363.001661 -157.379025 
L 363.777308 -157.340583 
L 364.552954 -157.303187 
L 365.3286 -157.266809 
L 366.104247 -157.23142 
L 366.879893 -157.196995 
L 367.65554 -157.163508 
L 368.431186 -157.130932 
L 369.206832 -157.099243 
L 369.982479 -157.068417 
L 370.758125 -157.038431 
L 371.533771 -157.009262 
L 372.309418 -156.980887 
L 373.085064 -156.953286 
L 373.86071 -156.926436 
L 374.636357 -156.900319 
L 375.412003 -156.874913 
L 376.18765 -156.850199 
L 376.963296 -156.826159 
L 377.738942 -156.802775 
L 378.514589 -156.780028 
L 379.290235 -156.757901 
L 380.065881 -156.736378 
L 380.841528 -156.715442 
L 381.617174 -156.695076 
L 382.392821 -156.675267 
L 383.168467 -156.655997 
L 383.944113 -156.637253 
L 384.71976 -156.61902 
L 385.495406 -156.601285 
L 386.271052 -156.584034 
L 387.046699 -156.567253 
L 387.822345 -156.550931 
L 388.597992 -156.535053 
L 389.373638 -156.519609 
L 390.149284 -156.504587 
L 390.924931 -156.489974 
L 391.700577 -156.47576 
L 392.476223 -156.461935 
L 393.25187 -156.448486 
L 394.027516 -156.435405 
L 394.803163 -156.422681 
L 395.578809 -156.410304 
L 396.354455 -156.398266 
L 397.130102 -156.386556 
L 397.905748 -156.375165 
L 398.681394 -156.364086 
L 399.457041 -156.353309 
L 400.232687 -156.342827 
L 401.008334 -156.33263 
L 401.78398 -156.322712 
L 402.559626 -156.313066 
L 403.335273 -156.303682 
L 404.110919 -156.294555 
L 404.886565 -156.285677 
L 405.662212 -156.277042 
L 406.437858 -156.268642 
L 407.213504 -156.260472 
L 407.989151 -156.252525 
L 408.764797 -156.244795 
L 409.540444 -156.237277 
L 410.31609 -156.229963 
L 411.091736 -156.22285 
L 411.867383 -156.215931 
L 412.643029 -156.209201 
L 413.418675 -156.202655 
L 414.194322 -156.196287 
L 414.969968 -156.190094 
L 415.745615 -156.18407 
L 416.521261 -156.17821 
L 417.296907 -156.172511 
L 418.072554 -156.166967 
L 418.8482 -156.161575 
L 419.623846 -156.15633 
L 420.399493 -156.151229 
L 421.175139 -156.146266 
L 421.950786 -156.14144 
L 422.726432 -156.136745 
L 423.502078 -156.132179 
L 424.277725 -156.127738 
L 425.053371 -156.123417 
L 425.829017 -156.119215 
L 426.604664 -156.115128 
L 427.38031 -156.111153 
L 428.155957 -156.107286 
L 428.931603 -156.103525 
L 429.707249 -156.099866 
L 430.482896 -156.096308 
L 431.258542 -156.092847 
L 432.034188 -156.08948 
L 432.809835 -156.086206 
L 433.585481 -156.083021 
L 434.361128 -156.079923 
L 435.136774 -156.07691 
L 435.91242 -156.073979 
L 436.688067 -156.071128 
L 437.463713 -156.068355 
L 438.239359 -156.065658 
L 439.015006 -156.063035 
L 439.790652 -156.060483 
L 440.566298 -156.058001 
L 441.341945 -156.055587 
L 442.117591 -156.053239 
L 442.893238 -156.050955 
L 443.668884 -156.048734 
L 444.44453 -156.046573 
L 445.220177 -156.044472 
L 445.995823 -156.042427 
L 446.771469 -156.040439 
L 447.547116 -156.038505 
L 448.322762 -156.036624 
L 449.098409 -156.034795 
L 449.874055 -156.033015 
L 450.649701 -156.031284 
L 451.425348 -156.0296 
L 452.200994 -156.027963 
L 452.97664 -156.02637 
L 453.752287 -156.024821 
L 454.527933 -156.023314 
L 455.30358 -156.021848 
L 456.079226 -156.020422 
L 456.854872 -156.019036 
L 457.630519 -156.017687 
L 458.406165 -156.016375 
L 459.181811 -156.015099 
L 459.957458 -156.013858 
L 460.733104 -156.012651 
L 461.508751 -156.011477 
L 462.284397 -156.010335 
L 463.060043 -156.009224 
L 463.83569 -156.008143 
L 464.611336 -156.007092 
L 465.386982 -156.00607 
L 466.162629 -156.005076 
L 466.938275 -156.004109 
L 467.713921 -156.003168 
L 468.489568 -156.002253 
L 469.265214 -156.001363 
L 470.040861 -156.000498 
L 470.816507 -155.999656 
L 471.592153 -155.998837 
L 472.3678 -155.99804 
L 473.143446 -155.997266 
L 473.919092 -155.996512 
L 474.694739 -155.995779 
L 475.470385 -155.995066 
L 476.246032 -155.994373 
L 477.021678 -155.993698 
L 477.797324 -155.993042 
L 478.572971 -155.992404 
L 479.348617 -155.991784 
L 480.124263 -155.99118 
L 480.89991 -155.990593 
L 481.675556 -155.990022 
L 482.451203 -155.989466 
L 483.226849 -155.988926 
L 484.002495 -155.988401 
L 484.778142 -155.987889 
L 485.553788 -155.987392 
L 486.329434 -155.986909 
L 487.105081 -155.986438 
L 487.880727 -155.985981 
L 488.656374 -155.985536 
L 489.43202 -155.985103 
L 490.207666 -155.984682 
L 490.983313 -155.984273 
L 491.758959 -155.983874 
L 492.534605 -155.983487 
L 493.310252 -155.98311 
L 494.085898 -155.982744 
L 494.861545 -155.982387 
L 495.637191 -155.982041 
L 496.412837 -155.981703 
L 497.188484 -155.981375 
L 497.96413 -155.981056 
L 498.739776 -155.980746 
L 499.515423 -155.980444 
L 500.291069 -155.980151 
L 501.066715 -155.979865 
L 501.842362 -155.979587 
L 502.618008 -155.979317 
L 503.393655 -155.979054 
L 504.169301 -155.978799 
L 504.944947 -155.97855 
L 505.720594 -155.978308 
L 506.49624 -155.978073 
L 507.271886 -155.977844 
L 508.047533 -155.977622 
L 508.823179 -155.977406 
L 509.598826 -155.977195 
L 510.374472 -155.97699 
L 511.150118 -155.976791 
L 511.925765 -155.976597 
L 512.701411 -155.976409 
L 513.477057 -155.976226 
L 514.252704 -155.976048 
L 515.02835 -155.975874 
L 515.803997 -155.975706 
L 516.579643 -155.975542 
L 517.355289 -155.975382 
L 518.130936 -155.975227 
L 518.906582 -155.975076 
L 519.682228 -155.974929 
L 520.457875 -155.974786 
L 521.233521 -155.974648 
L 522.009168 -155.974512 
L 522.784814 -155.974381 
L 523.56046 -155.974253 
L 524.336107 -155.974129 
L 525.111753 -155.974008 
L 525.887399 -155.97389 
L 526.663046 -155.973776 
L 527.438692 -155.973665 
L 528.214339 -155.973557 
L 528.989985 -155.973451 
L 529.765631 -155.973349 
L 530.541278 -155.973249 
L 531.316924 -155.973153 
L 532.09257 -155.973058 
L 532.868217 -155.972967 
L 533.643863 -155.972878 
L 534.419509 -155.972791 
L 535.195156 -155.972707 
L 535.970802 -155.972625 
L 536.746449 -155.972545 
L 537.522095 -155.972467 
L 538.297741 -155.972392 
L 539.073388 -155.972318 
L 539.849034 -155.972247 
L 540.62468 -155.972178 
L 541.400327 -155.97211 
L 542.175973 -155.972044 
L 542.95162 -155.971981 
L 543.727266 -155.971918 
L 544.502912 -155.971858 
L 545.278559 -155.971799 
L 546.054205 -155.971742 
L 546.829851 -155.971686 
L 547.605498 -155.971632 
L 548.381144 -155.97158 
L 549.156791 -155.971528 
L 549.932437 -155.971479 
L 550.708083 -155.97143 
L 551.48373 -155.971383 
L 552.259376 -155.971337 
L 553.035022 -155.971293 
L 553.810669 -155.971249 
L 554.586315 -155.971207 
L 555.361962 -155.971166 
L 556.137608 -155.971126 
L 556.913254 -155.971088 
L 557.688901 -155.97105 
L 558.464547 -155.971013 
L 559.240193 -155.970977 
L 560.01584 -155.970943 
L 560.791486 -155.970909 
L 561.567133 -155.970876 
L 562.342779 -155.970844 
L 563.118425 -155.970813 
L 563.894072 -155.970783 
L 564.669718 -155.970753 
L 565.445364 -155.970725 
L 566.221011 -155.970697 
L 566.996657 -155.97067 
L 567.772303 -155.970644 
L 568.54795 -155.970618 
L 569.323596 -155.970593 
L 570.099243 -155.970569 
L 570.874889 -155.970545 
L 571.650535 -155.970523 
L 572.426182 -155.9705 
L 573.201828 -155.970479 
L 573.977474 -155.970457 
L 574.753121 -155.970437 
L 575.528767 -155.970417 
L 576.304414 -155.970398 
L 577.08006 -155.970379 
L 577.855706 -155.97036 
L 578.631353 -155.970343 
L 579.406999 -155.970325 
L 580.182645 -155.970308 
L 580.958292 -155.970292 
L 581.733938 -155.970276 
L 582.509585 -155.97026 
L 583.285231 -155.970245 
L 584.060877 -155.970231 
L 584.836524 -155.970216 
L 585.61217 -155.970202 
L 586.387816 -155.970189 
L 587.163463 -155.970176 
L 587.939109 -155.970163 
L 588.714756 -155.97015 
L 589.490402 -155.970138 
L 590.266048 -155.970127 
L 591.041695 -155.970115 
L 591.817341 -155.970104 
L 592.592987 -155.970093 
L 593.368634 -155.970083 
L 594.14428 -155.970072 
L 594.919927 -155.970062 
L 595.695573 -155.970053 
L 596.471219 -155.970043 
L 597.246866 -155.970034 
L 598.022512 -155.970025 
L 598.798158 -155.970016 
L 599.573805 -155.970008 
L 600.349451 -155.97 
L 601.125097 -155.969992 
L 601.900744 -155.969984 
L 602.67639 -155.969977 
L 603.452037 -155.969969 
L 604.227683 -155.969962 
L 605.003329 -155.969955 
L 605.778976 -155.969948 
L 606.554622 -155.969942 
L 607.330268 -155.969935 
L 608.105915 -155.969929 
L 608.881561 -155.969923 
L 609.657208 -155.969917 
L 610.432854 -155.969911 
L 611.2085 -155.969906 
L 611.984147 -155.9699 
L 612.759793 -155.969895 
L 613.535439 -155.96989 
L 614.311086 -155.969885 
L 615.086732 -155.96988 
L 615.862379 -155.969875 
L 616.638025 -155.969871 
L 617.413671 -155.969866 
L 618.189318 -155.969862 
L 618.964964 -155.969858 
L 619.74061 -155.969854 
L 620.516257 -155.96985 
L 621.291903 -155.969846 
L 622.06755 -155.969842 
L 622.843196 -155.969838 
L 623.618842 -155.969835 
L 624.394489 -155.969831 
L 624.394489 -166.656994 
L 624.394489 -166.656994 
L 623.618842 -166.76277 
L 622.843196 -166.869572 
L 622.06755 -166.977409 
L 621.291903 -167.08629 
L 620.516257 -167.196225 
L 619.74061 -167.307225 
L 618.964964 -167.419298 
L 618.189318 -167.532455 
L 617.413671 -167.646706 
L 616.638025 -167.762061 
L 615.862379 -167.87853 
L 615.086732 -167.996123 
L 614.311086 -168.11485 
L 613.535439 -168.234723 
L 612.759793 -168.35575 
L 611.984147 -168.477944 
L 611.2085 -168.601315 
L 610.432854 -168.725873 
L 609.657208 -168.85163 
L 608.881561 -168.978596 
L 608.105915 -169.106782 
L 607.330268 -169.236199 
L 606.554622 -169.366859 
L 605.778976 -169.498773 
L 605.003329 -169.631952 
L 604.227683 -169.766408 
L 603.452037 -169.902152 
L 602.67639 -170.039195 
L 601.900744 -170.177551 
L 601.125097 -170.31723 
L 600.349451 -170.458244 
L 599.573805 -170.600606 
L 598.798158 -170.744327 
L 598.022512 -170.889419 
L 597.246866 -171.035896 
L 596.471219 -171.183769 
L 595.695573 -171.333051 
L 594.919927 -171.483754 
L 594.14428 -171.635891 
L 593.368634 -171.789475 
L 592.592987 -171.944519 
L 591.817341 -172.101036 
L 591.041695 -172.259038 
L 590.266048 -172.418538 
L 589.490402 -172.579551 
L 588.714756 -172.74209 
L 587.939109 -172.906167 
L 587.163463 -173.071797 
L 586.387816 -173.238992 
L 585.61217 -173.407768 
L 584.836524 -173.578137 
L 584.060877 -173.750113 
L 583.285231 -173.923711 
L 582.509585 -174.098945 
L 581.733938 -174.275829 
L 580.958292 -174.454377 
L 580.182645 -174.634603 
L 579.406999 -174.816523 
L 578.631353 -175.000151 
L 577.855706 -175.185501 
L 577.08006 -175.372589 
L 576.304414 -175.56143 
L 575.528767 -175.752037 
L 574.753121 -175.944427 
L 573.977474 -176.138615 
L 573.201828 -176.334616 
L 572.426182 -176.532446 
L 571.650535 -176.73212 
L 570.874889 -176.933654 
L 570.099243 -177.137063 
L 569.323596 -177.342363 
L 568.54795 -177.549571 
L 567.772303 -177.758702 
L 566.996657 -177.969773 
L 566.221011 -178.1828 
L 565.445364 -178.397799 
L 564.669718 -178.614786 
L 563.894072 -178.833779 
L 563.118425 -179.054793 
L 562.342779 -179.277847 
L 561.567133 -179.502955 
L 560.791486 -179.730136 
L 560.01584 -179.959407 
L 559.240193 -180.190785 
L 558.464547 -180.424286 
L 557.688901 -180.659929 
L 556.913254 -180.89773 
L 556.137608 -181.137708 
L 555.361962 -181.37988 
L 554.586315 -181.624264 
L 553.810669 -181.870878 
L 553.035022 -182.119739 
L 552.259376 -182.370865 
L 551.48373 -182.624276 
L 550.708083 -182.879989 
L 549.932437 -183.138022 
L 549.156791 -183.398394 
L 548.381144 -183.661124 
L 547.605498 -183.926229 
L 546.829851 -184.193729 
L 546.054205 -184.463643 
L 545.278559 -184.735989 
L 544.502912 -185.010787 
L 543.727266 -185.288055 
L 542.95162 -185.567813 
L 542.175973 -185.85008 
L 541.400327 -186.134875 
L 540.62468 -186.422218 
L 539.849034 -186.712129 
L 539.073388 -187.004626 
L 538.297741 -187.299729 
L 537.522095 -187.597459 
L 536.746449 -187.897835 
L 535.970802 -188.200877 
L 535.195156 -188.506606 
L 534.419509 -188.81504 
L 533.643863 -189.126201 
L 532.868217 -189.440108 
L 532.09257 -189.756782 
L 531.316924 -190.076243 
L 530.541278 -190.398512 
L 529.765631 -190.723609 
L 528.989985 -191.051555 
L 528.214339 -191.38237 
L 527.438692 -191.716075 
L 526.663046 -192.052692 
L 525.887399 -192.39224 
L 525.111753 -192.73474 
L 524.336107 -193.080214 
L 523.56046 -193.428682 
L 522.784814 -193.780166 
L 522.009168 -194.134687 
L 521.233521 -194.492265 
L 520.457875 -194.852923 
L 519.682228 -195.21668 
L 518.906582 -195.583559 
L 518.130936 -195.953581 
L 517.355289 -196.326767 
L 516.579643 -196.703138 
L 515.803997 -197.082717 
L 515.02835 -197.465524 
L 514.252704 -197.85158 
L 513.477057 -198.240908 
L 512.701411 -198.633529 
L 511.925765 -199.029464 
L 511.150118 -199.428735 
L 510.374472 -199.831363 
L 509.598826 -200.23737 
L 508.823179 -200.646778 
L 508.047533 -201.059608 
L 507.271886 -201.475882 
L 506.49624 -201.895621 
L 505.720594 -202.318847 
L 504.944947 -202.745581 
L 504.169301 -203.175845 
L 503.393655 -203.60966 
L 502.618008 -204.047048 
L 501.842362 -204.488031 
L 501.066715 -204.932629 
L 500.291069 -205.380864 
L 499.515423 -205.832758 
L 498.739776 -206.288332 
L 497.96413 -206.747606 
L 497.188484 -207.210603 
L 496.412837 -207.677343 
L 495.637191 -208.147848 
L 494.861545 -208.622138 
L 494.085898 -209.100234 
L 493.310252 -209.582158 
L 492.534605 -210.067931 
L 491.758959 -210.557572 
L 490.983313 -211.051102 
L 490.207666 -211.548543 
L 489.43202 -212.049914 
L 488.656374 -212.555236 
L 487.880727 -213.064528 
L 487.105081 -213.577813 
L 486.329434 -214.095108 
L 485.553788 -214.616434 
L 484.778142 -215.141811 
L 484.002495 -215.671258 
L 483.226849 -216.204795 
L 482.451203 -216.742442 
L 481.675556 -217.284216 
L 480.89991 -217.830138 
L 480.124263 -218.380225 
L 479.348617 -218.934498 
L 478.572971 -219.492973 
L 477.797324 -220.05567 
L 477.021678 -220.622606 
L 476.246032 -221.193799 
L 475.470385 -221.769268 
L 474.694739 -222.349029 
L 473.919092 -222.9331 
L 473.143446 -223.521497 
L 472.3678 -224.114238 
L 471.592153 -224.711338 
L 470.816507 -225.312815 
L 470.040861 -225.918684 
L 469.265214 -226.528961 
L 468.489568 -227.143662 
L 467.713921 -227.762801 
L 466.938275 -228.386393 
L 466.162629 -229.014454 
L 465.386982 -229.646997 
L 464.611336 -230.284036 
L 463.83569 -230.925586 
L 463.060043 -231.571659 
L 462.284397 -232.222268 
L 461.508751 -232.877426 
L 460.733104 -233.537145 
L 459.957458 -234.201438 
L 459.181811 -234.870315 
L 458.406165 -235.543788 
L 457.630519 -236.221867 
L 456.854872 -236.904564 
L 456.079226 -237.591887 
L 455.30358 -238.283847 
L 454.527933 -238.980453 
L 453.752287 -239.681712 
L 452.97664 -240.387635 
L 452.200994 -241.098227 
L 451.425348 -241.813497 
L 450.649701 -242.533451 
L 449.874055 -243.258096 
L 449.098409 -243.987438 
L 448.322762 -244.721481 
L 447.547116 -245.460231 
L 446.771469 -246.203692 
L 445.995823 -246.951868 
L 445.220177 -247.704762 
L 444.44453 -248.462376 
L 443.668884 -249.224713 
L 442.893238 -249.991774 
L 442.117591 -250.76356 
L 441.341945 -251.540072 
L 440.566298 -252.321309 
L 439.790652 -253.10727 
L 439.015006 -253.897954 
L 438.239359 -254.693358 
L 437.463713 -255.49348 
L 436.688067 -256.298317 
L 435.91242 -257.107864 
L 435.136774 -257.922116 
L 434.361128 -258.741068 
L 433.585481 -259.564713 
L 432.809835 -260.393046 
L 432.034188 -261.226057 
L 431.258542 -262.06374 
L 430.482896 -262.906084 
L 429.707249 -263.753079 
L 428.931603 -264.604716 
L 428.155957 -265.460982 
L 427.38031 -266.321866 
L 426.604664 -267.187355 
L 425.829017 -268.057434 
L 425.053371 -268.93209 
L 424.277725 -269.811306 
L 423.502078 -270.695067 
L 422.726432 -271.583355 
L 421.950786 -272.476152 
L 421.175139 -273.37344 
L 420.399493 -274.275199 
L 419.623846 -275.181409 
L 418.8482 -276.092047 
L 418.072554 -277.007092 
L 417.296907 -277.92652 
L 416.521261 -278.850307 
L 415.745615 -279.778427 
L 414.969968 -280.710856 
L 414.194322 -281.647565 
L 413.418675 -282.588527 
L 412.643029 -283.533714 
L 411.867383 -284.483094 
L 411.091736 -285.436637 
L 410.31609 -286.394311 
L 409.540444 -287.356084 
L 408.764797 -288.321921 
L 407.989151 -289.291788 
L 407.213504 -290.265649 
L 406.437858 -291.243466 
L 405.662212 -292.225203 
L 404.886565 -293.210819 
L 404.110919 -294.200275 
L 403.335273 -295.19353 
L 402.559626 -296.190542 
L 401.78398 -297.191268 
L 401.008334 -298.195662 
L 400.232687 -299.203681 
L 399.457041 -300.215277 
L 398.681394 -301.230404 
L 397.905748 -302.249012 
L 397.130102 -303.271052 
L 396.354455 -304.296474 
L 395.578809 -305.325225 
L 394.803163 -306.357253 
L 394.027516 -307.392504 
L 393.25187 -308.430922 
L 392.476223 -309.472453 
L 391.700577 -310.517037 
L 390.924931 -311.564618 
L 390.149284 -312.615135 
L 389.373638 -313.668529 
L 388.597992 -314.724737 
L 387.822345 -315.783696 
L 387.046699 -316.845344 
L 386.271052 -317.909616 
L 385.495406 -318.976444 
L 384.71976 -320.045763 
L 383.944113 -321.117503 
L 383.168467 -322.191597 
L 382.392821 -323.267974 
L 381.617174 -324.346562 
L 380.841528 -325.427289 
L 380.065881 -326.510082 
L 379.290235 -327.594866 
L 378.514589 -328.681566 
L 377.738942 -329.770105 
L 376.963296 -330.860407 
L 376.18765 -331.952391 
L 375.412003 -333.045979 
L 374.636357 -334.141091 
L 373.86071 -335.237644 
L 373.085064 -336.335557 
L 372.309418 -337.434745 
L 371.533771 -338.535126 
L 370.758125 -339.636612 
L 369.982479 -340.739119 
L 369.206832 -341.842559 
L 368.431186 -342.946845 
L 367.65554 -344.051886 
L 366.879893 -345.157595 
L 366.104247 -346.263879 
L 365.3286 -347.370649 
L 364.552954 -348.477811 
L 363.777308 -349.585273 
L 363.001661 -350.692942 
L 362.226015 -351.800722 
L 361.450369 -352.908519 
L 360.674722 -354.016237 
L 359.899076 -355.123779 
L 359.123429 -356.231049 
L 358.347783 -357.337948 
L 357.572137 -358.444378 
L 356.79649 -359.550241 
L 356.020844 -360.655436 
L 355.245198 -361.759863 
L 354.469551 -362.863423 
L 353.693905 -363.966014 
L 352.918258 -365.067534 
L 352.142612 -366.167882 
L 351.366966 -367.266955 
L 350.591319 -368.364651 
L 349.815673 -369.460866 
L 349.040027 -370.555498 
L 348.26438 -371.648443 
L 347.488734 -372.739596 
L 346.713087 -373.828854 
L 345.937441 -374.916113 
L 345.161795 -376.001268 
L 344.386148 -377.084215 
L 343.610502 -378.164848 
L 342.834856 -379.243065 
L 342.059209 -380.318759 
L 341.283563 -381.391826 
L 340.507916 -382.462162 
L 339.73227 -383.529662 
L 338.956624 -384.594222 
L 338.180977 -385.655738 
L 337.405331 -386.714105 
L 336.629685 -387.76922 
L 335.854038 -388.820979 
L 335.078392 -389.86928 
L 334.302746 -390.914019 
L 333.527099 -391.955093 
L 332.751453 -392.992402 
L 331.975806 -394.025843 
L 331.20016 -395.055316 
L 330.424514 -396.080719 
L 329.648867 -397.101953 
L 328.873221 -398.118919 
L 328.097575 -399.131517 
L 327.321928 -400.139651 
L 326.546282 -401.143222 
L 325.770635 -402.142134 
L 324.994989 -403.136292 
L 324.219343 -404.125601 
L 323.443696 -405.109966 
L 322.66805 -406.089296 
L 321.892404 -407.063497 
L 321.116757 -408.032479 
L 320.341111 -408.996151 
L 319.565464 -409.954426 
L 318.789818 -410.907215 
L 318.014172 -411.854431 
L 317.238525 -412.795989 
L 316.462879 -413.731805 
L 315.687233 -414.661796 
L 314.911586 -415.585879 
L 314.13594 -416.503976 
L 313.360293 -417.416006 
L 312.584647 -418.321893 
L 311.809001 -419.221559 
L 311.033354 -420.114931 
L 310.257708 -421.001936 
L 309.482062 -421.882501 
L 308.706415 -422.756556 
L 307.930769 -423.624033 
L 307.155122 -424.484866 
L 306.379476 -425.338988 
L 305.60383 -426.186337 
L 304.828183 -427.02685 
L 304.052537 -427.860468 
L 303.276891 -428.687132 
L 302.501244 -429.506785 
L 301.725598 -430.319373 
L 300.949952 -431.124843 
L 300.174305 -431.923144 
L 299.398659 -432.714226 
L 298.623012 -433.498043 
L 297.847366 -434.274549 
L 297.07172 -435.0437 
L 296.296073 -435.805455 
L 295.520427 -436.559775 
L 294.744781 -437.306621 
L 293.969134 -438.045959 
L 293.193488 -438.777755 
L 292.417841 -439.501978 
L 291.642195 -440.218597 
L 290.866549 -440.927585 
L 290.090902 -441.628917 
L 289.315256 -442.322571 
L 288.53961 -443.008523 
L 287.763963 -443.686756 
L 286.988317 -444.357251 
L 286.21267 -445.019995 
L 285.437024 -445.674973 
L 284.661378 -446.322175 
L 283.885731 -446.961593 
L 283.110085 -447.593219 
L 282.334439 -448.217048 
L 281.558792 -448.833079 
L 280.783146 -449.44131 
L 280.007499 -450.041742 
L 279.231853 -450.63438 
L 278.456207 -451.219229 
L 277.68056 -451.796297 
L 276.904914 -452.365592 
L 276.129268 -452.927126 
L 275.353621 -453.480914 
L 274.577975 -454.02697 
L 273.802329 -454.565311 
L 273.026682 -455.095958 
L 272.251036 -455.618931 
L 271.475389 -456.134254 
L 270.699743 -456.641952 
L 269.924097 -457.14205 
L 269.14845 -457.634579 
L 268.372804 -458.119569 
L 267.597158 -458.597051 
L 266.821511 -459.06706 
L 266.045865 -459.529631 
L 265.270218 -459.984803 
L 264.494572 -460.432613 
L 263.718926 -460.873102 
L 262.943279 -461.306314 
L 262.167633 -461.732291 
L 261.391987 -462.151079 
L 260.61634 -462.562725 
L 259.840694 -462.967277 
L 259.065047 -463.364785 
L 258.289401 -463.7553 
L 257.513755 -464.138874 
L 256.738108 -464.515562 
L 255.962462 -464.885419 
L 255.186816 -465.248501 
L 254.411169 -465.604864 
L 253.635523 -465.954569 
L 252.859876 -466.297675 
L 252.08423 -466.634243 
L 251.308584 -466.964335 
L 250.532937 -467.288014 
L 249.757291 -467.605344 
L 248.981645 -467.91639 
L 248.205998 -468.221217 
L 247.430352 -468.519892 
L 246.654705 -468.812483 
L 245.879059 -469.099058 
L 245.103413 -469.379686 
L 244.327766 -469.654436 
L 243.55212 -469.923378 
L 242.776474 -470.186584 
L 242.000827 -470.444124 
L 241.225181 -470.696071 
L 240.449535 -470.942497 
L 239.673888 -471.183474 
L 238.898242 -471.419077 
L 238.122595 -471.649377 
L 237.346949 -471.87445 
L 236.571303 -472.094368 
L 235.795656 -472.309208 
L 235.02001 -472.519042 
L 234.244364 -472.723945 
L 233.468717 -472.923993 
L 232.693071 -473.11926 
L 231.917424 -473.309821 
L 231.141778 -473.495751 
L 230.366132 -473.677124 
L 229.590485 -473.854015 
L 228.814839 -474.0265 
L 228.039193 -474.194651 
L 227.263546 -474.358545 
L 226.4879 -474.518254 
L 225.712253 -474.673852 
L 224.936607 -474.825413 
L 224.160961 -474.973011 
L 223.385314 -475.116718 
L 222.609668 -475.256607 
L 221.834022 -475.392749 
L 221.058375 -475.525217 
L 220.282729 -475.654082 
L 219.507082 -475.779415 
L 218.731436 -475.901285 
L 217.95579 -476.019763 
L 217.180143 -476.134918 
L 216.404497 -476.246818 
L 215.628851 -476.355531 
L 214.853204 -476.461125 
L 214.077558 -476.563667 
L 213.301911 -476.663222 
L 212.526265 -476.759856 
L 211.750619 -476.853634 
L 210.974972 -476.94462 
L 210.199326 -477.032877 
L 209.42368 -477.118467 
L 208.648033 -477.201452 
L 207.872387 -477.281894 
L 207.096741 -477.359852 
L 206.321094 -477.435386 
L 205.545448 -477.508555 
L 204.769801 -477.579416 
L 203.994155 -477.648026 
L 203.218509 -477.714441 
L 202.442862 -477.778717 
L 201.667216 -477.840908 
L 200.89157 -477.901067 
L 200.115923 -477.959248 
L 199.340277 -478.015501 
L 198.56463 -478.069879 
L 197.788984 -478.122431 
L 197.013338 -478.173206 
L 196.237691 -478.222253 
L 195.462045 -478.269619 
L 194.686399 -478.315351 
L 193.910752 -478.359494 
L 193.135106 -478.402094 
L 192.359459 -478.443193 
L 191.583813 -478.482836 
L 190.808167 -478.521064 
L 190.03252 -478.557919 
L 189.256874 -478.593442 
L 188.481228 -478.627671 
L 187.705581 -478.660646 
L 186.929935 -478.692404 
L 186.154288 -478.722983 
L 185.378642 -478.752419 
L 184.602996 -478.780747 
L 183.827349 -478.808001 
L 183.051703 -478.834217 
L 182.276057 -478.859426 
L 181.50041 -478.88366 
L 180.724764 -478.906952 
L 179.949117 -478.929331 
L 179.173471 -478.950828 
L 178.397825 -478.971471 
L 177.622178 -478.99129 
L 176.846532 -479.01031 
L 176.070886 -479.02856 
L 175.295239 -479.046065 
L 174.519593 -479.062851 
L 173.743947 -479.078942 
L 172.9683 -479.094362 
L 172.192654 -479.109136 
L 171.417007 -479.123284 
L 170.641361 -479.13683 
L 169.865715 -479.149795 
L 169.090068 -479.162199 
L 168.314422 -479.174062 
L 167.538776 -479.185405 
L 166.763129 -479.196245 
L 165.987483 -479.206601 
L 165.211836 -479.21649 
L 164.43619 -479.225931 
L 163.660544 -479.234938 
L 162.884897 -479.243529 
L 162.109251 -479.251718 
L 161.333605 -479.259521 
L 160.557958 -479.266951 
L 159.782312 -479.274023 
L 159.006665 -479.28075 
L 158.231019 -479.287143 
L 157.455373 -479.293217 
L 156.679726 -479.298982 
L 155.90408 -479.304449 
L 155.128434 -479.309629 
L 154.352787 -479.314533 
L 153.577141 -479.319169 
L 152.801494 -479.323547 
L 152.025848 -479.327675 
L 151.250202 -479.331562 
L 150.474555 -479.335214 
L 149.698909 -479.338638 
L 148.923263 -479.34184 
L 148.147616 -479.344827 
L 147.37197 -479.347601 
L 146.596323 -479.350167 
L 145.820677 -479.352529 
L 145.045031 -479.354687 
L 144.269384 -479.356642 
L 143.493738 -479.358394 
L 142.718092 -479.359941 
L 141.942445 -479.361278 
L 141.166799 -479.362401 
L 140.391153 -479.363299 
L 139.615506 -479.363963 
L 138.83986 -479.364376 
L 138.064213 -479.364519 
L 137.288567 -479.364366 
L 136.512921 -479.364136 
L 135.737274 -479.364475 
L 134.961628 -479.364473 
L 134.185982 -479.364088 
L 133.410335 -479.364304 
L 132.634689 -479.364519 
L 131.859042 -479.364282 
L 131.083396 -479.363916 
L 130.30775 -479.364448 
L 129.532103 -479.364444 
L 128.756457 -479.363794 
L 127.980811 -479.364151 
L 127.205164 -479.364519 
L 126.429518 -479.364085 
L 125.653871 -479.362601 
L 124.878225 -479.359682 
L 124.102579 -479.354697 
L 123.326932 -479.346568 
L 122.551286 -479.333327 
L 121.77564 -479.311105 
L 120.999993 -479.271538 
L 120.224347 -479.194192 
L 119.4487 -479.020353 
L 118.673054 -478.538634 
L 117.897408 -476.684687 
L 117.121761 -464.06096 
z
" style="stroke: #ffa500; stroke-opacity: 0.3"/>
    </defs>
    <g clip-path="url(#p8bea17a610)">
     <use xlink:href="#m2d80b706f8" x="0" y="540.100875" style="fill: #ffa500; fill-opacity: 0.3; stroke: #ffa500; stroke-opacity: 0.3"/>
    </g>
   </g>
   <g id="PolyCollection_2">
    <defs>
     <path id="mc4374f2e85" d="M 117.121761 -461.91693 
L 117.121761 -392.551024 
L 117.897408 -447.827277 
L 118.673054 -465.480762 
L 119.4487 -472.369163 
L 120.224347 -475.466954 
L 120.999993 -477.017188 
L 121.77564 -477.860755 
L 122.551286 -478.351854 
L 123.326932 -478.654094 
L 124.102579 -478.84894 
L 124.878225 -478.979569 
L 125.653871 -479.07011 
L 126.429518 -479.134671 
L 127.205164 -479.181834 
L 127.980811 -479.216998 
L 128.756457 -479.243669 
L 129.532103 -479.264181 
L 130.30775 -479.280128 
L 131.083396 -479.292621 
L 131.859042 -479.299919 
L 132.634689 -479.289244 
L 133.410335 -479.276745 
L 134.185982 -479.26226 
L 134.961628 -479.245602 
L 135.737274 -479.226552 
L 136.512921 -479.204863 
L 137.288567 -479.180258 
L 138.064213 -479.15243 
L 138.83986 -479.121039 
L 139.615506 -479.085713 
L 140.391153 -479.046047 
L 141.166799 -479.001597 
L 141.942445 -478.951883 
L 142.718092 -478.896388 
L 143.493738 -478.834551 
L 144.269384 -478.765773 
L 145.045031 -478.68941 
L 145.820677 -478.604772 
L 146.596323 -478.511127 
L 147.37197 -478.407695 
L 148.147616 -478.293647 
L 148.923263 -478.168109 
L 149.698909 -478.030158 
L 150.474555 -477.87882 
L 151.250202 -477.713076 
L 152.025848 -477.531857 
L 152.801494 -477.334048 
L 153.577141 -477.118487 
L 154.352787 -476.883966 
L 155.128434 -476.629235 
L 155.90408 -476.353002 
L 156.679726 -476.053936 
L 157.455373 -475.730667 
L 158.231019 -475.381796 
L 159.006665 -475.005889 
L 159.782312 -474.60149 
L 160.557958 -474.167116 
L 161.333605 -473.701269 
L 162.109251 -473.202438 
L 162.884897 -472.6691 
L 163.660544 -472.099733 
L 164.43619 -471.492814 
L 165.211836 -470.846829 
L 165.987483 -470.16028 
L 166.763129 -469.431687 
L 167.538776 -468.659594 
L 168.314422 -467.842583 
L 169.090068 -466.979269 
L 169.865715 -466.068316 
L 170.641361 -465.108437 
L 171.417007 -464.098404 
L 172.192654 -463.037051 
L 172.9683 -461.923283 
L 173.743947 -460.75608 
L 174.519593 -459.534501 
L 175.295239 -458.257694 
L 176.070886 -456.924894 
L 176.846532 -455.535434 
L 177.622178 -454.088746 
L 178.397825 -452.584364 
L 179.173471 -451.02193 
L 179.949117 -449.401194 
L 180.724764 -447.722019 
L 181.50041 -445.98438 
L 182.276057 -444.188368 
L 183.051703 -442.334189 
L 183.827349 -440.422168 
L 184.602996 -438.452742 
L 185.378642 -436.426465 
L 186.154288 -434.344008 
L 186.929935 -432.20615 
L 187.705581 -430.013783 
L 188.481228 -427.767907 
L 189.256874 -425.469627 
L 190.03252 -423.120149 
L 190.808167 -420.720777 
L 191.583813 -418.272908 
L 192.359459 -415.778028 
L 193.135106 -413.23771 
L 193.910752 -410.653602 
L 194.686399 -408.027429 
L 195.462045 -405.360984 
L 196.237691 -402.656122 
L 197.013338 -399.914755 
L 197.788984 -397.138849 
L 198.56463 -394.33041 
L 199.340277 -391.491489 
L 200.115923 -388.624166 
L 200.89157 -385.73055 
L 201.667216 -382.812772 
L 202.442862 -379.872978 
L 203.218509 -376.913323 
L 203.994155 -373.935967 
L 204.769801 -370.943069 
L 205.545448 -367.936783 
L 206.321094 -364.919248 
L 207.096741 -361.892589 
L 207.872387 -358.85891 
L 208.648033 -355.82029 
L 209.42368 -352.778776 
L 210.199326 -349.736384 
L 210.974972 -346.695091 
L 211.750619 -343.656835 
L 212.526265 -340.623509 
L 213.301911 -337.59696 
L 214.077558 -334.578985 
L 214.853204 -331.571329 
L 215.628851 -328.575684 
L 216.404497 -325.593687 
L 217.180143 -322.626916 
L 217.95579 -319.676892 
L 218.731436 -316.745074 
L 219.507082 -313.832863 
L 220.282729 -310.941598 
L 221.058375 -308.072554 
L 221.834022 -305.226946 
L 222.609668 -302.405926 
L 223.385314 -299.610585 
L 224.160961 -296.841951 
L 224.936607 -294.10099 
L 225.712253 -291.388609 
L 226.4879 -288.705653 
L 227.263546 -286.05291 
L 228.039193 -283.431106 
L 228.814839 -280.840914 
L 229.590485 -278.282948 
L 230.366132 -275.757768 
L 231.141778 -273.265879 
L 231.917424 -270.807737 
L 232.693071 -268.383744 
L 233.468717 -265.994253 
L 234.244364 -263.639572 
L 235.02001 -261.31996 
L 235.795656 -259.035633 
L 236.571303 -256.786763 
L 237.346949 -254.57348 
L 238.122595 -252.395878 
L 238.898242 -250.254008 
L 239.673888 -248.147887 
L 240.449535 -246.077498 
L 241.225181 -244.04279 
L 242.000827 -242.04368 
L 242.776474 -240.080055 
L 243.55212 -238.151773 
L 244.327766 -236.258668 
L 245.103413 -234.400546 
L 245.879059 -232.577189 
L 246.654705 -230.788357 
L 247.430352 -229.033789 
L 248.205998 -227.313206 
L 248.981645 -225.626307 
L 249.757291 -223.972777 
L 250.532937 -222.352284 
L 251.308584 -220.76448 
L 252.08423 -219.209007 
L 252.859876 -217.685492 
L 253.635523 -216.19355 
L 254.411169 -214.732788 
L 255.186816 -213.302803 
L 255.962462 -211.903184 
L 256.738108 -210.533512 
L 257.513755 -209.193361 
L 258.289401 -207.882301 
L 259.065047 -206.599897 
L 259.840694 -205.345709 
L 260.61634 -204.119294 
L 261.391987 -202.920206 
L 262.167633 -201.747999 
L 262.943279 -200.602222 
L 263.718926 -199.482428 
L 264.494572 -198.388165 
L 265.270218 -197.318984 
L 266.045865 -196.274437 
L 266.821511 -195.254076 
L 267.597158 -194.257455 
L 268.372804 -193.284132 
L 269.14845 -192.333663 
L 269.924097 -191.405612 
L 270.699743 -190.499542 
L 271.475389 -189.615023 
L 272.251036 -188.751625 
L 273.026682 -187.908926 
L 273.802329 -187.086504 
L 274.577975 -186.283945 
L 275.353621 -185.500837 
L 276.129268 -184.736775 
L 276.904914 -183.991358 
L 277.68056 -183.264189 
L 278.456207 -182.554878 
L 279.231853 -181.86304 
L 280.007499 -181.188295 
L 280.783146 -180.530268 
L 281.558792 -179.88859 
L 282.334439 -179.2629 
L 283.110085 -178.652839 
L 283.885731 -178.058056 
L 284.661378 -177.478205 
L 285.437024 -176.912947 
L 286.21267 -176.361948 
L 286.988317 -175.824879 
L 287.763963 -175.301419 
L 288.53961 -174.79125 
L 289.315256 -174.294063 
L 290.090902 -173.809552 
L 290.866549 -173.337419 
L 291.642195 -172.87737 
L 292.417841 -172.429118 
L 293.193488 -171.992381 
L 293.969134 -171.566883 
L 294.744781 -171.152353 
L 295.520427 -170.748527 
L 296.296073 -170.355143 
L 297.07172 -169.971949 
L 297.847366 -169.598696 
L 298.623012 -169.235139 
L 299.398659 -168.88104 
L 300.174305 -168.536166 
L 300.949952 -168.200289 
L 301.725598 -167.873185 
L 302.501244 -167.554636 
L 303.276891 -167.24443 
L 304.052537 -166.942356 
L 304.828183 -166.648211 
L 305.60383 -166.361797 
L 306.379476 -166.082917 
L 307.155122 -165.811381 
L 307.930769 -165.547004 
L 308.706415 -165.289604 
L 309.482062 -165.039004 
L 310.257708 -164.79503 
L 311.033354 -164.557512 
L 311.809001 -164.326287 
L 312.584647 -164.101192 
L 313.360293 -163.88207 
L 314.13594 -163.668767 
L 314.911586 -163.461134 
L 315.687233 -163.259024 
L 316.462879 -163.062294 
L 317.238525 -162.870805 
L 318.014172 -162.684421 
L 318.789818 -162.503009 
L 319.565464 -162.32644 
L 320.341111 -162.154588 
L 321.116757 -161.98733 
L 321.892404 -161.824546 
L 322.66805 -161.666118 
L 323.443696 -161.511933 
L 324.219343 -161.36188 
L 324.994989 -161.215849 
L 325.770635 -161.073736 
L 326.546282 -160.935437 
L 327.321928 -160.800851 
L 328.097575 -160.669882 
L 328.873221 -160.542433 
L 329.648867 -160.418411 
L 330.424514 -160.297726 
L 331.20016 -160.180289 
L 331.975806 -160.066015 
L 332.751453 -159.954819 
L 333.527099 -159.846619 
L 334.302746 -159.741338 
L 335.078392 -159.638895 
L 335.854038 -159.539217 
L 336.629685 -159.442229 
L 337.405331 -159.34786 
L 338.180977 -159.256041 
L 338.956624 -159.166702 
L 339.73227 -159.079777 
L 340.507916 -158.995203 
L 341.283563 -158.912917 
L 342.059209 -158.832856 
L 342.834856 -158.754963 
L 343.610502 -158.679177 
L 344.386148 -158.605444 
L 345.161795 -158.533708 
L 345.937441 -158.463915 
L 346.713087 -158.396014 
L 347.488734 -158.329953 
L 348.26438 -158.265683 
L 349.040027 -158.203156 
L 349.815673 -158.142325 
L 350.591319 -158.083144 
L 351.366966 -158.025569 
L 352.142612 -157.969557 
L 352.918258 -157.915066 
L 353.693905 -157.862054 
L 354.469551 -157.810482 
L 355.245198 -157.760311 
L 356.020844 -157.711503 
L 356.79649 -157.664021 
L 357.572137 -157.617829 
L 358.347783 -157.572893 
L 359.123429 -157.529179 
L 359.899076 -157.486654 
L 360.674722 -157.445285 
L 361.450369 -157.405041 
L 362.226015 -157.365892 
L 363.001661 -157.327808 
L 363.777308 -157.29076 
L 364.552954 -157.254721 
L 365.3286 -157.219662 
L 366.104247 -157.185558 
L 366.879893 -157.152383 
L 367.65554 -157.12011 
L 368.431186 -157.088717 
L 369.206832 -157.058178 
L 369.982479 -157.028472 
L 370.758125 -156.999574 
L 371.533771 -156.971464 
L 372.309418 -156.94412 
L 373.085064 -156.91752 
L 373.86071 -156.891646 
L 374.636357 -156.866477 
L 375.412003 -156.841994 
L 376.18765 -156.818178 
L 376.963296 -156.795012 
L 377.738942 -156.772477 
L 378.514589 -156.750556 
L 379.290235 -156.729234 
L 380.065881 -156.708492 
L 380.841528 -156.688317 
L 381.617174 -156.668692 
L 382.392821 -156.649602 
L 383.168467 -156.631032 
L 383.944113 -156.61297 
L 384.71976 -156.5954 
L 385.495406 -156.578309 
L 386.271052 -156.561685 
L 387.046699 -156.545514 
L 387.822345 -156.529785 
L 388.597992 -156.514485 
L 389.373638 -156.499602 
L 390.149284 -156.485126 
L 390.924931 -156.471045 
L 391.700577 -156.457348 
L 392.476223 -156.444025 
L 393.25187 -156.431066 
L 394.027516 -156.41846 
L 394.803163 -156.406199 
L 395.578809 -156.394272 
L 396.354455 -156.382671 
L 397.130102 -156.371387 
L 397.905748 -156.360411 
L 398.681394 -156.349734 
L 399.457041 -156.33935 
L 400.232687 -156.329248 
L 401.008334 -156.319423 
L 401.78398 -156.309866 
L 402.559626 -156.30057 
L 403.335273 -156.291528 
L 404.110919 -156.282733 
L 404.886565 -156.274178 
L 405.662212 -156.265856 
L 406.437858 -156.257762 
L 407.213504 -156.24989 
L 407.989151 -156.242232 
L 408.764797 -156.234783 
L 409.540444 -156.227538 
L 410.31609 -156.220491 
L 411.091736 -156.213636 
L 411.867383 -156.206969 
L 412.643029 -156.200484 
L 413.418675 -156.194176 
L 414.194322 -156.18804 
L 414.969968 -156.182072 
L 415.745615 -156.176267 
L 416.521261 -156.170621 
L 417.296907 -156.165129 
L 418.072554 -156.159787 
L 418.8482 -156.154591 
L 419.623846 -156.149537 
L 420.399493 -156.144621 
L 421.175139 -156.13984 
L 421.950786 -156.135189 
L 422.726432 -156.130665 
L 423.502078 -156.126265 
L 424.277725 -156.121985 
L 425.053371 -156.117822 
L 425.829017 -156.113773 
L 426.604664 -156.109835 
L 427.38031 -156.106004 
L 428.155957 -156.102278 
L 428.931603 -156.098653 
L 429.707249 -156.095128 
L 430.482896 -156.091699 
L 431.258542 -156.088364 
L 432.034188 -156.08512 
L 432.809835 -156.081965 
L 433.585481 -156.078896 
L 434.361128 -156.075911 
L 435.136774 -156.073007 
L 435.91242 -156.070183 
L 436.688067 -156.067436 
L 437.463713 -156.064764 
L 438.239359 -156.062165 
L 439.015006 -156.059637 
L 439.790652 -156.057178 
L 440.566298 -156.054787 
L 441.341945 -156.052461 
L 442.117591 -156.050198 
L 442.893238 -156.047998 
L 443.668884 -156.045857 
L 444.44453 -156.043775 
L 445.220177 -156.04175 
L 445.995823 -156.03978 
L 446.771469 -156.037864 
L 447.547116 -156.036001 
L 448.322762 -156.034188 
L 449.098409 -156.032425 
L 449.874055 -156.03071 
L 450.649701 -156.029042 
L 451.425348 -156.02742 
L 452.200994 -156.025842 
L 452.97664 -156.024307 
L 453.752287 -156.022814 
L 454.527933 -156.021362 
L 455.30358 -156.01995 
L 456.079226 -156.018576 
L 456.854872 -156.01724 
L 457.630519 -156.01594 
L 458.406165 -156.014676 
L 459.181811 -156.013447 
L 459.957458 -156.012251 
L 460.733104 -156.011087 
L 461.508751 -156.009956 
L 462.284397 -156.008855 
L 463.060043 -156.007785 
L 463.83569 -156.006744 
L 464.611336 -156.005731 
L 465.386982 -156.004746 
L 466.162629 -156.003788 
L 466.938275 -156.002856 
L 467.713921 -156.00195 
L 468.489568 -156.001068 
L 469.265214 -156.000211 
L 470.040861 -155.999377 
L 470.816507 -155.998565 
L 471.592153 -155.997776 
L 472.3678 -155.997009 
L 473.143446 -155.996262 
L 473.919092 -155.995536 
L 474.694739 -155.99483 
L 475.470385 -155.994143 
L 476.246032 -155.993475 
L 477.021678 -155.992825 
L 477.797324 -155.992193 
L 478.572971 -155.991578 
L 479.348617 -155.99098 
L 480.124263 -155.990398 
L 480.89991 -155.989833 
L 481.675556 -155.989282 
L 482.451203 -155.988747 
L 483.226849 -155.988226 
L 484.002495 -155.98772 
L 484.778142 -155.987228 
L 485.553788 -155.986748 
L 486.329434 -155.986282 
L 487.105081 -155.985829 
L 487.880727 -155.985388 
L 488.656374 -155.98496 
L 489.43202 -155.984543 
L 490.207666 -155.984137 
L 490.983313 -155.983742 
L 491.758959 -155.983359 
L 492.534605 -155.982985 
L 493.310252 -155.982622 
L 494.085898 -155.982269 
L 494.861545 -155.981926 
L 495.637191 -155.981592 
L 496.412837 -155.981267 
L 497.188484 -155.980951 
L 497.96413 -155.980643 
L 498.739776 -155.980344 
L 499.515423 -155.980053 
L 500.291069 -155.97977 
L 501.066715 -155.979495 
L 501.842362 -155.979228 
L 502.618008 -155.978967 
L 503.393655 -155.978714 
L 504.169301 -155.978468 
L 504.944947 -155.978228 
L 505.720594 -155.977995 
L 506.49624 -155.977769 
L 507.271886 -155.977548 
L 508.047533 -155.977334 
L 508.823179 -155.977125 
L 509.598826 -155.976922 
L 510.374472 -155.976725 
L 511.150118 -155.976533 
L 511.925765 -155.976347 
L 512.701411 -155.976165 
L 513.477057 -155.975989 
L 514.252704 -155.975817 
L 515.02835 -155.97565 
L 515.803997 -155.975487 
L 516.579643 -155.975329 
L 517.355289 -155.975175 
L 518.130936 -155.975026 
L 518.906582 -155.974881 
L 519.682228 -155.974739 
L 520.457875 -155.974602 
L 521.233521 -155.974468 
L 522.009168 -155.974338 
L 522.784814 -155.974211 
L 523.56046 -155.974088 
L 524.336107 -155.973968 
L 525.111753 -155.973852 
L 525.887399 -155.973738 
L 526.663046 -155.973628 
L 527.438692 -155.973521 
L 528.214339 -155.973417 
L 528.989985 -155.973315 
L 529.765631 -155.973216 
L 530.541278 -155.973121 
L 531.316924 -155.973027 
L 532.09257 -155.972936 
L 532.868217 -155.972848 
L 533.643863 -155.972762 
L 534.419509 -155.972679 
L 535.195156 -155.972597 
L 535.970802 -155.972518 
L 536.746449 -155.972442 
L 537.522095 -155.972367 
L 538.297741 -155.972294 
L 539.073388 -155.972223 
L 539.849034 -155.972155 
L 540.62468 -155.972088 
L 541.400327 -155.972023 
L 542.175973 -155.971959 
L 542.95162 -155.971898 
L 543.727266 -155.971838 
L 544.502912 -155.97178 
L 545.278559 -155.971723 
L 546.054205 -155.971668 
L 546.829851 -155.971614 
L 547.605498 -155.971562 
L 548.381144 -155.971511 
L 549.156791 -155.971462 
L 549.932437 -155.971414 
L 550.708083 -155.971367 
L 551.48373 -155.971322 
L 552.259376 -155.971278 
L 553.035022 -155.971235 
L 553.810669 -155.971193 
L 554.586315 -155.971153 
L 555.361962 -155.971113 
L 556.137608 -155.971075 
L 556.913254 -155.971037 
L 557.688901 -155.971001 
L 558.464547 -155.970966 
L 559.240193 -155.970931 
L 560.01584 -155.970898 
L 560.791486 -155.970865 
L 561.567133 -155.970834 
L 562.342779 -155.970803 
L 563.118425 -155.970773 
L 563.894072 -155.970744 
L 564.669718 -155.970715 
L 565.445364 -155.970688 
L 566.221011 -155.970661 
L 566.996657 -155.970635 
L 567.772303 -155.97061 
L 568.54795 -155.970585 
L 569.323596 -155.970561 
L 570.099243 -155.970538 
L 570.874889 -155.970515 
L 571.650535 -155.970493 
L 572.426182 -155.970471 
L 573.201828 -155.97045 
L 573.977474 -155.97043 
L 574.753121 -155.97041 
L 575.528767 -155.970391 
L 576.304414 -155.970373 
L 577.08006 -155.970354 
L 577.855706 -155.970337 
L 578.631353 -155.970319 
L 579.406999 -155.970303 
L 580.182645 -155.970286 
L 580.958292 -155.970271 
L 581.733938 -155.970255 
L 582.509585 -155.97024 
L 583.285231 -155.970226 
L 584.060877 -155.970212 
L 584.836524 -155.970198 
L 585.61217 -155.970184 
L 586.387816 -155.970171 
L 587.163463 -155.970159 
L 587.939109 -155.970146 
L 588.714756 -155.970134 
L 589.490402 -155.970123 
L 590.266048 -155.970111 
L 591.041695 -155.9701 
L 591.817341 -155.97009 
L 592.592987 -155.970079 
L 593.368634 -155.970069 
L 594.14428 -155.970059 
L 594.919927 -155.970049 
L 595.695573 -155.97004 
L 596.471219 -155.970031 
L 597.246866 -155.970022 
L 598.022512 -155.970014 
L 598.798158 -155.970005 
L 599.573805 -155.969997 
L 600.349451 -155.969989 
L 601.125097 -155.969981 
L 601.900744 -155.969974 
L 602.67639 -155.969967 
L 603.452037 -155.96996 
L 604.227683 -155.969953 
L 605.003329 -155.969946 
L 605.778976 -155.96994 
L 606.554622 -155.969933 
L 607.330268 -155.969927 
L 608.105915 -155.969921 
L 608.881561 -155.969915 
L 609.657208 -155.96991 
L 610.432854 -155.969904 
L 611.2085 -155.969899 
L 611.984147 -155.969893 
L 612.759793 -155.969888 
L 613.535439 -155.969883 
L 614.311086 -155.969879 
L 615.086732 -155.969874 
L 615.862379 -155.969869 
L 616.638025 -155.969865 
L 617.413671 -155.969861 
L 618.189318 -155.969856 
L 618.964964 -155.969852 
L 619.74061 -155.969848 
L 620.516257 -155.969845 
L 621.291903 -155.969841 
L 622.06755 -155.969837 
L 622.843196 -155.969834 
L 623.618842 -155.96983 
L 624.394489 -155.969827 
L 624.394489 -166.273342 
L 624.394489 -166.273342 
L 623.618842 -166.375377 
L 622.843196 -166.478401 
L 622.06755 -166.582426 
L 621.291903 -166.687459 
L 620.516257 -166.79351 
L 619.74061 -166.900589 
L 618.964964 -167.008705 
L 618.189318 -167.117867 
L 617.413671 -167.228086 
L 616.638025 -167.339372 
L 615.862379 -167.451733 
L 615.086732 -167.56518 
L 614.311086 -167.679724 
L 613.535439 -167.795373 
L 612.759793 -167.912138 
L 611.984147 -168.03003 
L 611.2085 -168.149059 
L 610.432854 -168.269235 
L 609.657208 -168.390568 
L 608.881561 -168.51307 
L 608.105915 -168.636751 
L 607.330268 -168.761622 
L 606.554622 -168.887693 
L 605.778976 -169.014976 
L 605.003329 -169.143481 
L 604.227683 -169.27322 
L 603.452037 -169.404204 
L 602.67639 -169.536444 
L 601.900744 -169.669952 
L 601.125097 -169.804738 
L 600.349451 -169.940816 
L 599.573805 -170.078195 
L 598.798158 -170.216888 
L 598.022512 -170.356907 
L 597.246866 -170.498264 
L 596.471219 -170.64097 
L 595.695573 -170.785038 
L 594.919927 -170.930481 
L 594.14428 -171.077309 
L 593.368634 -171.225536 
L 592.592987 -171.375175 
L 591.817341 -171.526237 
L 591.041695 -171.678735 
L 590.266048 -171.832683 
L 589.490402 -171.988092 
L 588.714756 -172.144977 
L 587.939109 -172.30335 
L 587.163463 -172.463223 
L 586.387816 -172.624612 
L 585.61217 -172.787528 
L 584.836524 -172.951985 
L 584.060877 -173.117997 
L 583.285231 -173.285577 
L 582.509585 -173.454739 
L 581.733938 -173.625497 
L 580.958292 -173.797865 
L 580.182645 -173.971857 
L 579.406999 -174.147487 
L 578.631353 -174.324769 
L 577.855706 -174.503718 
L 577.08006 -174.684347 
L 576.304414 -174.866672 
L 575.528767 -175.050708 
L 574.753121 -175.236468 
L 573.977474 -175.423967 
L 573.201828 -175.613222 
L 572.426182 -175.804245 
L 571.650535 -175.997054 
L 570.874889 -176.191663 
L 570.099243 -176.388087 
L 569.323596 -176.586341 
L 568.54795 -176.786442 
L 567.772303 -176.988405 
L 566.996657 -177.192245 
L 566.221011 -177.397979 
L 565.445364 -177.605622 
L 564.669718 -177.815191 
L 563.894072 -178.026701 
L 563.118425 -178.240169 
L 562.342779 -178.455611 
L 561.567133 -178.673044 
L 560.791486 -178.892483 
L 560.01584 -179.113947 
L 559.240193 -179.337451 
L 558.464547 -179.563012 
L 557.688901 -179.790648 
L 556.913254 -180.020374 
L 556.137608 -180.25221 
L 555.361962 -180.486171 
L 554.586315 -180.722275 
L 553.810669 -180.960539 
L 553.035022 -181.200981 
L 552.259376 -181.443619 
L 551.48373 -181.68847 
L 550.708083 -181.935553 
L 549.932437 -182.184884 
L 549.156791 -182.436483 
L 548.381144 -182.690366 
L 547.605498 -182.946553 
L 546.829851 -183.205062 
L 546.054205 -183.465911 
L 545.278559 -183.729118 
L 544.502912 -183.994702 
L 543.727266 -184.262682 
L 542.95162 -184.533077 
L 542.175973 -184.805905 
L 541.400327 -185.081186 
L 540.62468 -185.358937 
L 539.849034 -185.639179 
L 539.073388 -185.921931 
L 538.297741 -186.207212 
L 537.522095 -186.495041 
L 536.746449 -186.785437 
L 535.970802 -187.078421 
L 535.195156 -187.374012 
L 534.419509 -187.672229 
L 533.643863 -187.973093 
L 532.868217 -188.276623 
L 532.09257 -188.582839 
L 531.316924 -188.891761 
L 530.541278 -189.203409 
L 529.765631 -189.517803 
L 528.989985 -189.834964 
L 528.214339 -190.154912 
L 527.438692 -190.477667 
L 526.663046 -190.803249 
L 525.887399 -191.13168 
L 525.111753 -191.462979 
L 524.336107 -191.797167 
L 523.56046 -192.134265 
L 522.784814 -192.474294 
L 522.009168 -192.817274 
L 521.233521 -193.163226 
L 520.457875 -193.512172 
L 519.682228 -193.864131 
L 518.906582 -194.219125 
L 518.130936 -194.577176 
L 517.355289 -194.938303 
L 516.579643 -195.302528 
L 515.803997 -195.669873 
L 515.02835 -196.040358 
L 514.252704 -196.414005 
L 513.477057 -196.790835 
L 512.701411 -197.170869 
L 511.925765 -197.554129 
L 511.150118 -197.940635 
L 510.374472 -198.33041 
L 509.598826 -198.723474 
L 508.823179 -199.119849 
L 508.047533 -199.519556 
L 507.271886 -199.922617 
L 506.49624 -200.329053 
L 505.720594 -200.738885 
L 504.944947 -201.152136 
L 504.169301 -201.568825 
L 503.393655 -201.988975 
L 502.618008 -202.412607 
L 501.842362 -202.839743 
L 501.066715 -203.270403 
L 500.291069 -203.704609 
L 499.515423 -204.142383 
L 498.739776 -204.583745 
L 497.96413 -205.028716 
L 497.188484 -205.477319 
L 496.412837 -205.929574 
L 495.637191 -206.385502 
L 494.861545 -206.845125 
L 494.085898 -207.308462 
L 493.310252 -207.775536 
L 492.534605 -208.246367 
L 491.758959 -208.720975 
L 490.983313 -209.199383 
L 490.207666 -209.681609 
L 489.43202 -210.167675 
L 488.656374 -210.657602 
L 487.880727 -211.151409 
L 487.105081 -211.649117 
L 486.329434 -212.150747 
L 485.553788 -212.656317 
L 484.778142 -213.165849 
L 484.002495 -213.679361 
L 483.226849 -214.196875 
L 482.451203 -214.718409 
L 481.675556 -215.243982 
L 480.89991 -215.773615 
L 480.124263 -216.307326 
L 479.348617 -216.845134 
L 478.572971 -217.387058 
L 477.797324 -217.933117 
L 477.021678 -218.48333 
L 476.246032 -219.037714 
L 475.470385 -219.596287 
L 474.694739 -220.159069 
L 473.919092 -220.726076 
L 473.143446 -221.297326 
L 472.3678 -221.872837 
L 471.592153 -222.452625 
L 470.816507 -223.036708 
L 470.040861 -223.625101 
L 469.265214 -224.217822 
L 468.489568 -224.814887 
L 467.713921 -225.416311 
L 466.938275 -226.022111 
L 466.162629 -226.632301 
L 465.386982 -227.246897 
L 464.611336 -227.865914 
L 463.83569 -228.489365 
L 463.060043 -229.117266 
L 462.284397 -229.74963 
L 461.508751 -230.386471 
L 460.733104 -231.027802 
L 459.957458 -231.673636 
L 459.181811 -232.323986 
L 458.406165 -232.978864 
L 457.630519 -233.638281 
L 456.854872 -234.30225 
L 456.079226 -234.970781 
L 455.30358 -235.643885 
L 454.527933 -236.321573 
L 453.752287 -237.003854 
L 452.97664 -237.690738 
L 452.200994 -238.382234 
L 451.425348 -239.078352 
L 450.649701 -239.779098 
L 449.874055 -240.484481 
L 449.098409 -241.194508 
L 448.322762 -241.909186 
L 447.547116 -242.628522 
L 446.771469 -243.352521 
L 445.995823 -244.081189 
L 445.220177 -244.814531 
L 444.44453 -245.55255 
L 443.668884 -246.295251 
L 442.893238 -247.042638 
L 442.117591 -247.794712 
L 441.341945 -248.551477 
L 440.566298 -249.312933 
L 439.790652 -250.079083 
L 439.015006 -250.849925 
L 438.239359 -251.625461 
L 437.463713 -252.405689 
L 436.688067 -253.190609 
L 435.91242 -253.980217 
L 435.136774 -254.774513 
L 434.361128 -255.573491 
L 433.585481 -256.377149 
L 432.809835 -257.185481 
L 432.034188 -257.998484 
L 431.258542 -258.816149 
L 430.482896 -259.638472 
L 429.707249 -260.465444 
L 428.931603 -261.297058 
L 428.155957 -262.133304 
L 427.38031 -262.974173 
L 426.604664 -263.819655 
L 425.829017 -264.669739 
L 425.053371 -265.524413 
L 424.277725 -266.383664 
L 423.502078 -267.247479 
L 422.726432 -268.115843 
L 421.950786 -268.988742 
L 421.175139 -269.86616 
L 420.399493 -270.74808 
L 419.623846 -271.634485 
L 418.8482 -272.525356 
L 418.072554 -273.420674 
L 417.296907 -274.320419 
L 416.521261 -275.22457 
L 415.745615 -276.133105 
L 414.969968 -277.046001 
L 414.194322 -277.963235 
L 413.418675 -278.884783 
L 412.643029 -279.810618 
L 411.867383 -280.740714 
L 411.091736 -281.675045 
L 410.31609 -282.613581 
L 409.540444 -283.556294 
L 408.764797 -284.503152 
L 407.989151 -285.454126 
L 407.213504 -286.409183 
L 406.437858 -287.36829 
L 405.662212 -288.331412 
L 404.886565 -289.298515 
L 404.110919 -290.269562 
L 403.335273 -291.244516 
L 402.559626 -292.22334 
L 401.78398 -293.205993 
L 401.008334 -294.192436 
L 400.232687 -295.182628 
L 399.457041 -296.176526 
L 398.681394 -297.174087 
L 397.905748 -298.175267 
L 397.130102 -299.180019 
L 396.354455 -300.188299 
L 395.578809 -301.200057 
L 394.803163 -302.215247 
L 394.027516 -303.233817 
L 393.25187 -304.255717 
L 392.476223 -305.280896 
L 391.700577 -306.309301 
L 390.924931 -307.340877 
L 390.149284 -308.37557 
L 389.373638 -309.413324 
L 388.597992 -310.454081 
L 387.822345 -311.497784 
L 387.046699 -312.544372 
L 386.271052 -313.593787 
L 385.495406 -314.645965 
L 384.71976 -315.700846 
L 383.944113 -316.758365 
L 383.168467 -317.818457 
L 382.392821 -318.881058 
L 381.617174 -319.946099 
L 380.841528 -321.013514 
L 380.065881 -322.083234 
L 379.290235 -323.155189 
L 378.514589 -324.229308 
L 377.738942 -325.305519 
L 376.963296 -326.383748 
L 376.18765 -327.463923 
L 375.412003 -328.545969 
L 374.636357 -329.629808 
L 373.86071 -330.715365 
L 373.085064 -331.802561 
L 372.309418 -332.891318 
L 371.533771 -333.981556 
L 370.758125 -335.073193 
L 369.982479 -336.166148 
L 369.206832 -337.260339 
L 368.431186 -338.355682 
L 367.65554 -339.452093 
L 366.879893 -340.549486 
L 366.104247 -341.647774 
L 365.3286 -342.746872 
L 364.552954 -343.846691 
L 363.777308 -344.947142 
L 363.001661 -346.048136 
L 362.226015 -347.149582 
L 361.450369 -348.25139 
L 360.674722 -349.353468 
L 359.899076 -350.455723 
L 359.123429 -351.558061 
L 358.347783 -352.66039 
L 357.572137 -353.762614 
L 356.79649 -354.864638 
L 356.020844 -355.966367 
L 355.245198 -357.067703 
L 354.469551 -358.16855 
L 353.693905 -359.268811 
L 352.918258 -360.368386 
L 352.142612 -361.467178 
L 351.366966 -362.565087 
L 350.591319 -363.662014 
L 349.815673 -364.757859 
L 349.040027 -365.852521 
L 348.26438 -366.945901 
L 347.488734 -368.037896 
L 346.713087 -369.128405 
L 345.937441 -370.217327 
L 345.161795 -371.30456 
L 344.386148 -372.390001 
L 343.610502 -373.473549 
L 342.834856 -374.555101 
L 342.059209 -375.634554 
L 341.283563 -376.711806 
L 340.507916 -377.786753 
L 339.73227 -378.859294 
L 338.956624 -379.929325 
L 338.180977 -380.996744 
L 337.405331 -382.061448 
L 336.629685 -383.123334 
L 335.854038 -384.1823 
L 335.078392 -385.238244 
L 334.302746 -386.291065 
L 333.527099 -387.340659 
L 332.751453 -388.386926 
L 331.975806 -389.429764 
L 331.20016 -390.469074 
L 330.424514 -391.504754 
L 329.648867 -392.536704 
L 328.873221 -393.564825 
L 328.097575 -394.589019 
L 327.321928 -395.609186 
L 326.546282 -396.625229 
L 325.770635 -397.637051 
L 324.994989 -398.644555 
L 324.219343 -399.647645 
L 323.443696 -400.646226 
L 322.66805 -401.640204 
L 321.892404 -402.629486 
L 321.116757 -403.613978 
L 320.341111 -404.593589 
L 319.565464 -405.568227 
L 318.789818 -406.537804 
L 318.014172 -407.502229 
L 317.238525 -408.461416 
L 316.462879 -409.415277 
L 315.687233 -410.363726 
L 314.911586 -411.306679 
L 314.13594 -412.244053 
L 313.360293 -413.175764 
L 312.584647 -414.101733 
L 311.809001 -415.02188 
L 311.033354 -415.936125 
L 310.257708 -416.844392 
L 309.482062 -417.746606 
L 308.706415 -418.642692 
L 307.930769 -419.532576 
L 307.155122 -420.416188 
L 306.379476 -421.293458 
L 305.60383 -422.164318 
L 304.828183 -423.0287 
L 304.052537 -423.886539 
L 303.276891 -424.737772 
L 302.501244 -425.582337 
L 301.725598 -426.420173 
L 300.949952 -427.251222 
L 300.174305 -428.075427 
L 299.398659 -428.892732 
L 298.623012 -429.703085 
L 297.847366 -430.506434 
L 297.07172 -431.302728 
L 296.296073 -432.09192 
L 295.520427 -432.873963 
L 294.744781 -433.648814 
L 293.969134 -434.416429 
L 293.193488 -435.176769 
L 292.417841 -435.929794 
L 291.642195 -436.675469 
L 290.866549 -437.413757 
L 290.090902 -438.144627 
L 289.315256 -438.868047 
L 288.53961 -439.583989 
L 287.763963 -440.292425 
L 286.988317 -440.993331 
L 286.21267 -441.686683 
L 285.437024 -442.372461 
L 284.661378 -443.050646 
L 283.885731 -443.72122 
L 283.110085 -444.384169 
L 282.334439 -445.03948 
L 281.558792 -445.687142 
L 280.783146 -446.327145 
L 280.007499 -446.959484 
L 279.231853 -447.584152 
L 278.456207 -448.201148 
L 277.68056 -448.810469 
L 276.904914 -449.412117 
L 276.129268 -450.006095 
L 275.353621 -450.592408 
L 274.577975 -451.171063 
L 273.802329 -451.742068 
L 273.026682 -452.305435 
L 272.251036 -452.861175 
L 271.475389 -453.409303 
L 270.699743 -453.949837 
L 269.924097 -454.482793 
L 269.14845 -455.008192 
L 268.372804 -455.526057 
L 267.597158 -456.03641 
L 266.821511 -456.539277 
L 266.045865 -457.034686 
L 265.270218 -457.522665 
L 264.494572 -458.003245 
L 263.718926 -458.476459 
L 262.943279 -458.94234 
L 262.167633 -459.400925 
L 261.391987 -459.85225 
L 260.61634 -460.296354 
L 259.840694 -460.733278 
L 259.065047 -461.163064 
L 258.289401 -461.585754 
L 257.513755 -462.001395 
L 256.738108 -462.410031 
L 255.962462 -462.811711 
L 255.186816 -463.206484 
L 254.411169 -463.594399 
L 253.635523 -463.975509 
L 252.859876 -464.349866 
L 252.08423 -464.717524 
L 251.308584 -465.078539 
L 250.532937 -465.432967 
L 249.757291 -465.780864 
L 248.981645 -466.122291 
L 248.205998 -466.457306 
L 247.430352 -466.785969 
L 246.654705 -467.108342 
L 245.879059 -467.424488 
L 245.103413 -467.73447 
L 244.327766 -468.038351 
L 243.55212 -468.336197 
L 242.776474 -468.628073 
L 242.000827 -468.914045 
L 241.225181 -469.19418 
L 240.449535 -469.468547 
L 239.673888 -469.737212 
L 238.898242 -470.000245 
L 238.122595 -470.257715 
L 237.346949 -470.509692 
L 236.571303 -470.756246 
L 235.795656 -470.997447 
L 235.02001 -471.233366 
L 234.244364 -471.464075 
L 233.468717 -471.689645 
L 232.693071 -471.910147 
L 231.917424 -472.125654 
L 231.141778 -472.336238 
L 230.366132 -472.541971 
L 229.590485 -472.742925 
L 228.814839 -472.939172 
L 228.039193 -473.130786 
L 227.263546 -473.317838 
L 226.4879 -473.500401 
L 225.712253 -473.678547 
L 224.936607 -473.852349 
L 224.160961 -474.021878 
L 223.385314 -474.187205 
L 222.609668 -474.348404 
L 221.834022 -474.505545 
L 221.058375 -474.658699 
L 220.282729 -474.807937 
L 219.507082 -474.95333 
L 218.731436 -475.094948 
L 217.95579 -475.23286 
L 217.180143 -475.367137 
L 216.404497 -475.497846 
L 215.628851 -475.625057 
L 214.853204 -475.748837 
L 214.077558 -475.869255 
L 213.301911 -475.986376 
L 212.526265 -476.100267 
L 211.750619 -476.210995 
L 210.974972 -476.318625 
L 210.199326 -476.42322 
L 209.42368 -476.524846 
L 208.648033 -476.623566 
L 207.872387 -476.719442 
L 207.096741 -476.812537 
L 206.321094 -476.902911 
L 205.545448 -476.990626 
L 204.769801 -477.075742 
L 203.994155 -477.158317 
L 203.218509 -477.23841 
L 202.442862 -477.31608 
L 201.667216 -477.391382 
L 200.89157 -477.464373 
L 200.115923 -477.535109 
L 199.340277 -477.603644 
L 198.56463 -477.670032 
L 197.788984 -477.734326 
L 197.013338 -477.796578 
L 196.237691 -477.856839 
L 195.462045 -477.91516 
L 194.686399 -477.971592 
L 193.910752 -478.026181 
L 193.135106 -478.078978 
L 192.359459 -478.130028 
L 191.583813 -478.179379 
L 190.808167 -478.227076 
L 190.03252 -478.273163 
L 189.256874 -478.317685 
L 188.481228 -478.360685 
L 187.705581 -478.402205 
L 186.929935 -478.442285 
L 186.154288 -478.480968 
L 185.378642 -478.518292 
L 184.602996 -478.554297 
L 183.827349 -478.58902 
L 183.051703 -478.6225 
L 182.276057 -478.654771 
L 181.50041 -478.685871 
L 180.724764 -478.715834 
L 179.949117 -478.744695 
L 179.173471 -478.772486 
L 178.397825 -478.799239 
L 177.622178 -478.824988 
L 176.846532 -478.849763 
L 176.070886 -478.873594 
L 175.295239 -478.896511 
L 174.519593 -478.918542 
L 173.743947 -478.939716 
L 172.9683 -478.96006 
L 172.192654 -478.9796 
L 171.417007 -478.998363 
L 170.641361 -479.016374 
L 169.865715 -479.033657 
L 169.090068 -479.050236 
L 168.314422 -479.066135 
L 167.538776 -479.081375 
L 166.763129 -479.09598 
L 165.987483 -479.109969 
L 165.211836 -479.123365 
L 164.43619 -479.136185 
L 163.660544 -479.148451 
L 162.884897 -479.160181 
L 162.109251 -479.171392 
L 161.333605 -479.182102 
L 160.557958 -479.192329 
L 159.782312 -479.202088 
L 159.006665 -479.211395 
L 158.231019 -479.220266 
L 157.455373 -479.228714 
L 156.679726 -479.236753 
L 155.90408 -479.244398 
L 155.128434 -479.25166 
L 154.352787 -479.258552 
L 153.577141 -479.265084 
L 152.801494 -479.271268 
L 152.025848 -479.277113 
L 151.250202 -479.28263 
L 150.474555 -479.287826 
L 149.698909 -479.292709 
L 148.923263 -479.297286 
L 148.147616 -479.301564 
L 147.37197 -479.305546 
L 146.596323 -479.309237 
L 145.820677 -479.31264 
L 145.045031 -479.315755 
L 144.269384 -479.318583 
L 143.493738 -479.321121 
L 142.718092 -479.323364 
L 141.942445 -479.325307 
L 141.166799 -479.326939 
L 140.391153 -479.328247 
L 139.615506 -479.329214 
L 138.83986 -479.329816 
L 138.064213 -479.330024 
L 137.288567 -479.329802 
L 136.512921 -479.329465 
L 135.737274 -479.32996 
L 134.961628 -479.329957 
L 134.185982 -479.329396 
L 133.410335 -479.329711 
L 132.634689 -479.330024 
L 131.859042 -479.329679 
L 131.083396 -479.329145 
L 130.30775 -479.329921 
L 129.532103 -479.329914 
L 128.756457 -479.328968 
L 127.980811 -479.329487 
L 127.205164 -479.330024 
L 126.429518 -479.329391 
L 125.653871 -479.327231 
L 124.878225 -479.322989 
L 124.102579 -479.315771 
L 123.326932 -479.304062 
L 122.551286 -479.28514 
L 121.77564 -479.253732 
L 120.999993 -479.198655 
L 120.224347 -479.093211 
L 119.4487 -478.862869 
L 118.673054 -478.249034 
L 117.897408 -476.011657 
L 117.121761 -461.91693 
z
" style="stroke: #1f77b4; stroke-opacity: 0.3"/>
    </defs>
    <g clip-path="url(#p8bea17a610)">
     <use xlink:href="#mc4374f2e85" x="0" y="540.100875" style="fill: #1f77b4; fill-opacity: 0.3; stroke: #1f77b4; stroke-opacity: 0.3"/>
    </g>
   </g>
   <g id="matplotlib.axis_1">
    <g id="xtick_1">
     <g id="line2d_1">
      <defs>
       <path id="m03f8e65f94" d="M 0 0 
L 0 3.5 
" style="stroke: #000000; stroke-width: 0.8"/>
      </defs>
      <g>
       <use xlink:href="#m03f8e65f94" x="116.346115" y="416.476875" style="stroke: #000000; stroke-width: 0.8"/>
      </g>
     </g>
     <g id="text_1">
      <!-- 0 -->
      <g transform="translate(109.983615 438.67375)scale(0.2 -0.2)">
       <defs>
        <path id="DejaVuSans-30" d="M 2034 4250 
Q 1547 4250 1301 3770 
Q 1056 3291 1056 2328 
Q 1056 1369 1301 889 
Q 1547 409 2034 409 
Q 2525 409 2770 889 
Q 3016 1369 3016 2328 
Q 3016 3291 2770 3770 
Q 2525 4250 2034 4250 
z
M 2034 4750 
Q 2819 4750 3233 4129 
Q 3647 3509 3647 2328 
Q 3647 1150 3233 529 
Q 2819 -91 2034 -91 
Q 1250 -91 836 529 
Q 422 1150 422 2328 
Q 422 3509 836 4129 
Q 1250 4750 2034 4750 
z
" transform="scale(0.015625)"/>
       </defs>
       <use xlink:href="#DejaVuSans-30"/>
      </g>
     </g>
    </g>
    <g id="xtick_2">
     <g id="line2d_2">
      <g>
       <use xlink:href="#m03f8e65f94" x="193.910752" y="416.476875" style="stroke: #000000; stroke-width: 0.8"/>
      </g>
     </g>
     <g id="text_2">
      <!-- 100 -->
      <g transform="translate(174.823252 438.67375)scale(0.2 -0.2)">
       <defs>
        <path id="DejaVuSans-31" d="M 794 531 
L 1825 531 
L 1825 4091 
L 703 3866 
L 703 4441 
L 1819 4666 
L 2450 4666 
L 2450 531 
L 3481 531 
L 3481 0 
L 794 0 
L 794 531 
z
" transform="scale(0.015625)"/>
       </defs>
       <use xlink:href="#DejaVuSans-31"/>
       <use xlink:href="#DejaVuSans-30" x="63.623047"/>
       <use xlink:href="#DejaVuSans-30" x="127.246094"/>
      </g>
     </g>
    </g>
    <g id="xtick_3">
     <g id="line2d_3">
      <g>
       <use xlink:href="#m03f8e65f94" x="271.475389" y="416.476875" style="stroke: #000000; stroke-width: 0.8"/>
      </g>
     </g>
     <g id="text_3">
      <!-- 200 -->
      <g transform="translate(252.387889 438.67375)scale(0.2 -0.2)">
       <defs>
        <path id="DejaVuSans-32" d="M 1228 531 
L 3431 531 
L 3431 0 
L 469 0 
L 469 531 
Q 828 903 1448 1529 
Q 2069 2156 2228 2338 
Q 2531 2678 2651 2914 
Q 2772 3150 2772 3378 
Q 2772 3750 2511 3984 
Q 2250 4219 1831 4219 
Q 1534 4219 1204 4116 
Q 875 4013 500 3803 
L 500 4441 
Q 881 4594 1212 4672 
Q 1544 4750 1819 4750 
Q 2544 4750 2975 4387 
Q 3406 4025 3406 3419 
Q 3406 3131 3298 2873 
Q 3191 2616 2906 2266 
Q 2828 2175 2409 1742 
Q 1991 1309 1228 531 
z
" transform="scale(0.015625)"/>
       </defs>
       <use xlink:href="#DejaVuSans-32"/>
       <use xlink:href="#DejaVuSans-30" x="63.623047"/>
       <use xlink:href="#DejaVuSans-30" x="127.246094"/>
      </g>
     </g>
    </g>
    <g id="xtick_4">
     <g id="line2d_4">
      <g>
       <use xlink:href="#m03f8e65f94" x="349.040027" y="416.476875" style="stroke: #000000; stroke-width: 0.8"/>
      </g>
     </g>
     <g id="text_4">
      <!-- 300 -->
      <g transform="translate(329.952527 438.67375)scale(0.2 -0.2)">
       <defs>
        <path id="DejaVuSans-33" d="M 2597 2516 
Q 3050 2419 3304 2112 
Q 3559 1806 3559 1356 
Q 3559 666 3084 287 
Q 2609 -91 1734 -91 
Q 1441 -91 1130 -33 
Q 819 25 488 141 
L 488 750 
Q 750 597 1062 519 
Q 1375 441 1716 441 
Q 2309 441 2620 675 
Q 2931 909 2931 1356 
Q 2931 1769 2642 2001 
Q 2353 2234 1838 2234 
L 1294 2234 
L 1294 2753 
L 1863 2753 
Q 2328 2753 2575 2939 
Q 2822 3125 2822 3475 
Q 2822 3834 2567 4026 
Q 2313 4219 1838 4219 
Q 1578 4219 1281 4162 
Q 984 4106 628 3988 
L 628 4550 
Q 988 4650 1302 4700 
Q 1616 4750 1894 4750 
Q 2613 4750 3031 4423 
Q 3450 4097 3450 3541 
Q 3450 3153 3228 2886 
Q 3006 2619 2597 2516 
z
" transform="scale(0.015625)"/>
       </defs>
       <use xlink:href="#DejaVuSans-33"/>
       <use xlink:href="#DejaVuSans-30" x="63.623047"/>
       <use xlink:href="#DejaVuSans-30" x="127.246094"/>
      </g>
     </g>
    </g>
    <g id="xtick_5">
     <g id="line2d_5">
      <g>
       <use xlink:href="#m03f8e65f94" x="426.604664" y="416.476875" style="stroke: #000000; stroke-width: 0.8"/>
      </g>
     </g>
     <g id="text_5">
      <!-- 400 -->
      <g transform="translate(407.517164 438.67375)scale(0.2 -0.2)">
       <defs>
        <path id="DejaVuSans-34" d="M 2419 4116 
L 825 1625 
L 2419 1625 
L 2419 4116 
z
M 2253 4666 
L 3047 4666 
L 3047 1625 
L 3713 1625 
L 3713 1100 
L 3047 1100 
L 3047 0 
L 2419 0 
L 2419 1100 
L 313 1100 
L 313 1709 
L 2253 4666 
z
" transform="scale(0.015625)"/>
       </defs>
       <use xlink:href="#DejaVuSans-34"/>
       <use xlink:href="#DejaVuSans-30" x="63.623047"/>
       <use xlink:href="#DejaVuSans-30" x="127.246094"/>
      </g>
     </g>
    </g>
    <g id="xtick_6">
     <g id="line2d_6">
      <g>
       <use xlink:href="#m03f8e65f94" x="504.169301" y="416.476875" style="stroke: #000000; stroke-width: 0.8"/>
      </g>
     </g>
     <g id="text_6">
      <!-- 500 -->
      <g transform="translate(485.081801 438.67375)scale(0.2 -0.2)">
       <defs>
        <path id="DejaVuSans-35" d="M 691 4666 
L 3169 4666 
L 3169 4134 
L 1269 4134 
L 1269 2991 
Q 1406 3038 1543 3061 
Q 1681 3084 1819 3084 
Q 2600 3084 3056 2656 
Q 3513 2228 3513 1497 
Q 3513 744 3044 326 
Q 2575 -91 1722 -91 
Q 1428 -91 1123 -41 
Q 819 9 494 109 
L 494 744 
Q 775 591 1075 516 
Q 1375 441 1709 441 
Q 2250 441 2565 725 
Q 2881 1009 2881 1497 
Q 2881 1984 2565 2268 
Q 2250 2553 1709 2553 
Q 1456 2553 1204 2497 
Q 953 2441 691 2322 
L 691 4666 
z
" transform="scale(0.015625)"/>
       </defs>
       <use xlink:href="#DejaVuSans-35"/>
       <use xlink:href="#DejaVuSans-30" x="63.623047"/>
       <use xlink:href="#DejaVuSans-30" x="127.246094"/>
      </g>
     </g>
    </g>
    <g id="xtick_7">
     <g id="line2d_7">
      <g>
       <use xlink:href="#m03f8e65f94" x="581.733938" y="416.476875" style="stroke: #000000; stroke-width: 0.8"/>
      </g>
     </g>
     <g id="text_7">
      <!-- 600 -->
      <g transform="translate(562.646438 438.67375)scale(0.2 -0.2)">
       <defs>
        <path id="DejaVuSans-36" d="M 2113 2584 
Q 1688 2584 1439 2293 
Q 1191 2003 1191 1497 
Q 1191 994 1439 701 
Q 1688 409 2113 409 
Q 2538 409 2786 701 
Q 3034 994 3034 1497 
Q 3034 2003 2786 2293 
Q 2538 2584 2113 2584 
z
M 3366 4563 
L 3366 3988 
Q 3128 4100 2886 4159 
Q 2644 4219 2406 4219 
Q 1781 4219 1451 3797 
Q 1122 3375 1075 2522 
Q 1259 2794 1537 2939 
Q 1816 3084 2150 3084 
Q 2853 3084 3261 2657 
Q 3669 2231 3669 1497 
Q 3669 778 3244 343 
Q 2819 -91 2113 -91 
Q 1303 -91 875 529 
Q 447 1150 447 2328 
Q 447 3434 972 4092 
Q 1497 4750 2381 4750 
Q 2619 4750 2861 4703 
Q 3103 4656 3366 4563 
z
" transform="scale(0.015625)"/>
       </defs>
       <use xlink:href="#DejaVuSans-36"/>
       <use xlink:href="#DejaVuSans-30" x="63.623047"/>
       <use xlink:href="#DejaVuSans-30" x="127.246094"/>
      </g>
     </g>
    </g>
    <g id="text_8">
     <!-- Days since antigen exposure -->
     <g transform="translate(226.337813 462.03)scale(0.2 -0.2)">
      <defs>
       <path id="DejaVuSans-44" d="M 1259 4147 
L 1259 519 
L 2022 519 
Q 2988 519 3436 956 
Q 3884 1394 3884 2338 
Q 3884 3275 3436 3711 
Q 2988 4147 2022 4147 
L 1259 4147 
z
M 628 4666 
L 1925 4666 
Q 3281 4666 3915 4102 
Q 4550 3538 4550 2338 
Q 4550 1131 3912 565 
Q 3275 0 1925 0 
L 628 0 
L 628 4666 
z
" transform="scale(0.015625)"/>
       <path id="DejaVuSans-61" d="M 2194 1759 
Q 1497 1759 1228 1600 
Q 959 1441 959 1056 
Q 959 750 1161 570 
Q 1363 391 1709 391 
Q 2188 391 2477 730 
Q 2766 1069 2766 1631 
L 2766 1759 
L 2194 1759 
z
M 3341 1997 
L 3341 0 
L 2766 0 
L 2766 531 
Q 2569 213 2275 61 
Q 1981 -91 1556 -91 
Q 1019 -91 701 211 
Q 384 513 384 1019 
Q 384 1609 779 1909 
Q 1175 2209 1959 2209 
L 2766 2209 
L 2766 2266 
Q 2766 2663 2505 2880 
Q 2244 3097 1772 3097 
Q 1472 3097 1187 3025 
Q 903 2953 641 2809 
L 641 3341 
Q 956 3463 1253 3523 
Q 1550 3584 1831 3584 
Q 2591 3584 2966 3190 
Q 3341 2797 3341 1997 
z
" transform="scale(0.015625)"/>
       <path id="DejaVuSans-79" d="M 2059 -325 
Q 1816 -950 1584 -1140 
Q 1353 -1331 966 -1331 
L 506 -1331 
L 506 -850 
L 844 -850 
Q 1081 -850 1212 -737 
Q 1344 -625 1503 -206 
L 1606 56 
L 191 3500 
L 800 3500 
L 1894 763 
L 2988 3500 
L 3597 3500 
L 2059 -325 
z
" transform="scale(0.015625)"/>
       <path id="DejaVuSans-73" d="M 2834 3397 
L 2834 2853 
Q 2591 2978 2328 3040 
Q 2066 3103 1784 3103 
Q 1356 3103 1142 2972 
Q 928 2841 928 2578 
Q 928 2378 1081 2264 
Q 1234 2150 1697 2047 
L 1894 2003 
Q 2506 1872 2764 1633 
Q 3022 1394 3022 966 
Q 3022 478 2636 193 
Q 2250 -91 1575 -91 
Q 1294 -91 989 -36 
Q 684 19 347 128 
L 347 722 
Q 666 556 975 473 
Q 1284 391 1588 391 
Q 1994 391 2212 530 
Q 2431 669 2431 922 
Q 2431 1156 2273 1281 
Q 2116 1406 1581 1522 
L 1381 1569 
Q 847 1681 609 1914 
Q 372 2147 372 2553 
Q 372 3047 722 3315 
Q 1072 3584 1716 3584 
Q 2034 3584 2315 3537 
Q 2597 3491 2834 3397 
z
" transform="scale(0.015625)"/>
       <path id="DejaVuSans-20" transform="scale(0.015625)"/>
       <path id="DejaVuSans-69" d="M 603 3500 
L 1178 3500 
L 1178 0 
L 603 0 
L 603 3500 
z
M 603 4863 
L 1178 4863 
L 1178 4134 
L 603 4134 
L 603 4863 
z
" transform="scale(0.015625)"/>
       <path id="DejaVuSans-6e" d="M 3513 2113 
L 3513 0 
L 2938 0 
L 2938 2094 
Q 2938 2591 2744 2837 
Q 2550 3084 2163 3084 
Q 1697 3084 1428 2787 
Q 1159 2491 1159 1978 
L 1159 0 
L 581 0 
L 581 3500 
L 1159 3500 
L 1159 2956 
Q 1366 3272 1645 3428 
Q 1925 3584 2291 3584 
Q 2894 3584 3203 3211 
Q 3513 2838 3513 2113 
z
" transform="scale(0.015625)"/>
       <path id="DejaVuSans-63" d="M 3122 3366 
L 3122 2828 
Q 2878 2963 2633 3030 
Q 2388 3097 2138 3097 
Q 1578 3097 1268 2742 
Q 959 2388 959 1747 
Q 959 1106 1268 751 
Q 1578 397 2138 397 
Q 2388 397 2633 464 
Q 2878 531 3122 666 
L 3122 134 
Q 2881 22 2623 -34 
Q 2366 -91 2075 -91 
Q 1284 -91 818 406 
Q 353 903 353 1747 
Q 353 2603 823 3093 
Q 1294 3584 2113 3584 
Q 2378 3584 2631 3529 
Q 2884 3475 3122 3366 
z
" transform="scale(0.015625)"/>
       <path id="DejaVuSans-65" d="M 3597 1894 
L 3597 1613 
L 953 1613 
Q 991 1019 1311 708 
Q 1631 397 2203 397 
Q 2534 397 2845 478 
Q 3156 559 3463 722 
L 3463 178 
Q 3153 47 2828 -22 
Q 2503 -91 2169 -91 
Q 1331 -91 842 396 
Q 353 884 353 1716 
Q 353 2575 817 3079 
Q 1281 3584 2069 3584 
Q 2775 3584 3186 3129 
Q 3597 2675 3597 1894 
z
M 3022 2063 
Q 3016 2534 2758 2815 
Q 2500 3097 2075 3097 
Q 1594 3097 1305 2825 
Q 1016 2553 972 2059 
L 3022 2063 
z
" transform="scale(0.015625)"/>
       <path id="DejaVuSans-74" d="M 1172 4494 
L 1172 3500 
L 2356 3500 
L 2356 3053 
L 1172 3053 
L 1172 1153 
Q 1172 725 1289 603 
Q 1406 481 1766 481 
L 2356 481 
L 2356 0 
L 1766 0 
Q 1100 0 847 248 
Q 594 497 594 1153 
L 594 3053 
L 172 3053 
L 172 3500 
L 594 3500 
L 594 4494 
L 1172 4494 
z
" transform="scale(0.015625)"/>
       <path id="DejaVuSans-67" d="M 2906 1791 
Q 2906 2416 2648 2759 
Q 2391 3103 1925 3103 
Q 1463 3103 1205 2759 
Q 947 2416 947 1791 
Q 947 1169 1205 825 
Q 1463 481 1925 481 
Q 2391 481 2648 825 
Q 2906 1169 2906 1791 
z
M 3481 434 
Q 3481 -459 3084 -895 
Q 2688 -1331 1869 -1331 
Q 1566 -1331 1297 -1286 
Q 1028 -1241 775 -1147 
L 775 -588 
Q 1028 -725 1275 -790 
Q 1522 -856 1778 -856 
Q 2344 -856 2625 -561 
Q 2906 -266 2906 331 
L 2906 616 
Q 2728 306 2450 153 
Q 2172 0 1784 0 
Q 1141 0 747 490 
Q 353 981 353 1791 
Q 353 2603 747 3093 
Q 1141 3584 1784 3584 
Q 2172 3584 2450 3431 
Q 2728 3278 2906 2969 
L 2906 3500 
L 3481 3500 
L 3481 434 
z
" transform="scale(0.015625)"/>
       <path id="DejaVuSans-78" d="M 3513 3500 
L 2247 1797 
L 3578 0 
L 2900 0 
L 1881 1375 
L 863 0 
L 184 0 
L 1544 1831 
L 300 3500 
L 978 3500 
L 1906 2253 
L 2834 3500 
L 3513 3500 
z
" transform="scale(0.015625)"/>
       <path id="DejaVuSans-70" d="M 1159 525 
L 1159 -1331 
L 581 -1331 
L 581 3500 
L 1159 3500 
L 1159 2969 
Q 1341 3281 1617 3432 
Q 1894 3584 2278 3584 
Q 2916 3584 3314 3078 
Q 3713 2572 3713 1747 
Q 3713 922 3314 415 
Q 2916 -91 2278 -91 
Q 1894 -91 1617 61 
Q 1341 213 1159 525 
z
M 3116 1747 
Q 3116 2381 2855 2742 
Q 2594 3103 2138 3103 
Q 1681 3103 1420 2742 
Q 1159 2381 1159 1747 
Q 1159 1113 1420 752 
Q 1681 391 2138 391 
Q 2594 391 2855 752 
Q 3116 1113 3116 1747 
z
" transform="scale(0.015625)"/>
       <path id="DejaVuSans-6f" d="M 1959 3097 
Q 1497 3097 1228 2736 
Q 959 2375 959 1747 
Q 959 1119 1226 758 
Q 1494 397 1959 397 
Q 2419 397 2687 759 
Q 2956 1122 2956 1747 
Q 2956 2369 2687 2733 
Q 2419 3097 1959 3097 
z
M 1959 3584 
Q 2709 3584 3137 3096 
Q 3566 2609 3566 1747 
Q 3566 888 3137 398 
Q 2709 -91 1959 -91 
Q 1206 -91 779 398 
Q 353 888 353 1747 
Q 353 2609 779 3096 
Q 1206 3584 1959 3584 
z
" transform="scale(0.015625)"/>
       <path id="DejaVuSans-75" d="M 544 1381 
L 544 3500 
L 1119 3500 
L 1119 1403 
Q 1119 906 1312 657 
Q 1506 409 1894 409 
Q 2359 409 2629 706 
Q 2900 1003 2900 1516 
L 2900 3500 
L 3475 3500 
L 3475 0 
L 2900 0 
L 2900 538 
Q 2691 219 2414 64 
Q 2138 -91 1772 -91 
Q 1169 -91 856 284 
Q 544 659 544 1381 
z
M 1991 3584 
L 1991 3584 
z
" transform="scale(0.015625)"/>
       <path id="DejaVuSans-72" d="M 2631 2963 
Q 2534 3019 2420 3045 
Q 2306 3072 2169 3072 
Q 1681 3072 1420 2755 
Q 1159 2438 1159 1844 
L 1159 0 
L 581 0 
L 581 3500 
L 1159 3500 
L 1159 2956 
Q 1341 3275 1631 3429 
Q 1922 3584 2338 3584 
Q 2397 3584 2469 3576 
Q 2541 3569 2628 3553 
L 2631 2963 
z
" transform="scale(0.015625)"/>
      </defs>
      <use xlink:href="#DejaVuSans-44"/>
      <use xlink:href="#DejaVuSans-61" x="77.001953"/>
      <use xlink:href="#DejaVuSans-79" x="138.28125"/>
      <use xlink:href="#DejaVuSans-73" x="197.460938"/>
      <use xlink:href="#DejaVuSans-20" x="249.560547"/>
      <use xlink:href="#DejaVuSans-73" x="281.347656"/>
      <use xlink:href="#DejaVuSans-69" x="333.447266"/>
      <use xlink:href="#DejaVuSans-6e" x="361.230469"/>
      <use xlink:href="#DejaVuSans-63" x="424.609375"/>
      <use xlink:href="#DejaVuSans-65" x="479.589844"/>
      <use xlink:href="#DejaVuSans-20" x="541.113281"/>
      <use xlink:href="#DejaVuSans-61" x="572.900391"/>
      <use xlink:href="#DejaVuSans-6e" x="634.179688"/>
      <use xlink:href="#DejaVuSans-74" x="697.558594"/>
      <use xlink:href="#DejaVuSans-69" x="736.767578"/>
      <use xlink:href="#DejaVuSans-67" x="764.550781"/>
      <use xlink:href="#DejaVuSans-65" x="828.027344"/>
      <use xlink:href="#DejaVuSans-6e" x="889.550781"/>
      <use xlink:href="#DejaVuSans-20" x="952.929688"/>
      <use xlink:href="#DejaVuSans-65" x="984.716797"/>
      <use xlink:href="#DejaVuSans-78" x="1044.490234"/>
      <use xlink:href="#DejaVuSans-70" x="1103.669922"/>
      <use xlink:href="#DejaVuSans-6f" x="1167.146484"/>
      <use xlink:href="#DejaVuSans-73" x="1228.328125"/>
      <use xlink:href="#DejaVuSans-75" x="1280.427734"/>
      <use xlink:href="#DejaVuSans-72" x="1343.806641"/>
      <use xlink:href="#DejaVuSans-65" x="1382.669922"/>
     </g>
    </g>
   </g>
   <g id="matplotlib.axis_2">
    <g id="ytick_1">
     <g id="line2d_8">
      <defs>
       <path id="mc983e634ab" d="M 0 0 
L -3.5 0 
" style="stroke: #000000; stroke-width: 0.8"/>
      </defs>
      <g>
       <use xlink:href="#mc983e634ab" x="91.758125" y="384.131167" style="stroke: #000000; stroke-width: 0.8"/>
      </g>
     </g>
     <g id="text_9">
      <!-- 0.0 -->
      <g transform="translate(52.951875 391.729605)scale(0.2 -0.2)">
       <defs>
        <path id="DejaVuSans-2e" d="M 684 794 
L 1344 794 
L 1344 0 
L 684 0 
L 684 794 
z
" transform="scale(0.015625)"/>
       </defs>
       <use xlink:href="#DejaVuSans-30"/>
       <use xlink:href="#DejaVuSans-2e" x="63.623047"/>
       <use xlink:href="#DejaVuSans-30" x="95.410156"/>
      </g>
     </g>
    </g>
    <g id="ytick_2">
     <g id="line2d_9">
      <g>
       <use xlink:href="#mc983e634ab" x="91.758125" y="319.439752" style="stroke: #000000; stroke-width: 0.8"/>
      </g>
     </g>
     <g id="text_10">
      <!-- 0.2 -->
      <g transform="translate(52.951875 327.038189)scale(0.2 -0.2)">
       <use xlink:href="#DejaVuSans-30"/>
       <use xlink:href="#DejaVuSans-2e" x="63.623047"/>
       <use xlink:href="#DejaVuSans-32" x="95.410156"/>
      </g>
     </g>
    </g>
    <g id="ytick_3">
     <g id="line2d_10">
      <g>
       <use xlink:href="#mc983e634ab" x="91.758125" y="254.748336" style="stroke: #000000; stroke-width: 0.8"/>
      </g>
     </g>
     <g id="text_11">
      <!-- 0.4 -->
      <g transform="translate(52.951875 262.346774)scale(0.2 -0.2)">
       <use xlink:href="#DejaVuSans-30"/>
       <use xlink:href="#DejaVuSans-2e" x="63.623047"/>
       <use xlink:href="#DejaVuSans-34" x="95.410156"/>
      </g>
     </g>
    </g>
    <g id="ytick_4">
     <g id="line2d_11">
      <g>
       <use xlink:href="#mc983e634ab" x="91.758125" y="190.056921" style="stroke: #000000; stroke-width: 0.8"/>
      </g>
     </g>
     <g id="text_12">
      <!-- 0.6 -->
      <g transform="translate(52.951875 197.655358)scale(0.2 -0.2)">
       <use xlink:href="#DejaVuSans-30"/>
       <use xlink:href="#DejaVuSans-2e" x="63.623047"/>
       <use xlink:href="#DejaVuSans-36" x="95.410156"/>
      </g>
     </g>
    </g>
    <g id="ytick_5">
     <g id="line2d_12">
      <g>
       <use xlink:href="#mc983e634ab" x="91.758125" y="125.365505" style="stroke: #000000; stroke-width: 0.8"/>
      </g>
     </g>
     <g id="text_13">
      <!-- 0.8 -->
      <g transform="translate(52.951875 132.963943)scale(0.2 -0.2)">
       <defs>
        <path id="DejaVuSans-38" d="M 2034 2216 
Q 1584 2216 1326 1975 
Q 1069 1734 1069 1313 
Q 1069 891 1326 650 
Q 1584 409 2034 409 
Q 2484 409 2743 651 
Q 3003 894 3003 1313 
Q 3003 1734 2745 1975 
Q 2488 2216 2034 2216 
z
M 1403 2484 
Q 997 2584 770 2862 
Q 544 3141 544 3541 
Q 544 4100 942 4425 
Q 1341 4750 2034 4750 
Q 2731 4750 3128 4425 
Q 3525 4100 3525 3541 
Q 3525 3141 3298 2862 
Q 3072 2584 2669 2484 
Q 3125 2378 3379 2068 
Q 3634 1759 3634 1313 
Q 3634 634 3220 271 
Q 2806 -91 2034 -91 
Q 1263 -91 848 271 
Q 434 634 434 1313 
Q 434 1759 690 2068 
Q 947 2378 1403 2484 
z
M 1172 3481 
Q 1172 3119 1398 2916 
Q 1625 2713 2034 2713 
Q 2441 2713 2670 2916 
Q 2900 3119 2900 3481 
Q 2900 3844 2670 4047 
Q 2441 4250 2034 4250 
Q 1625 4250 1398 4047 
Q 1172 3844 1172 3481 
z
" transform="scale(0.015625)"/>
       </defs>
       <use xlink:href="#DejaVuSans-30"/>
       <use xlink:href="#DejaVuSans-2e" x="63.623047"/>
       <use xlink:href="#DejaVuSans-38" x="95.410156"/>
      </g>
     </g>
    </g>
    <g id="ytick_6">
     <g id="line2d_13">
      <g>
       <use xlink:href="#mc983e634ab" x="91.758125" y="60.67409" style="stroke: #000000; stroke-width: 0.8"/>
      </g>
     </g>
     <g id="text_14">
      <!-- 1.0 -->
      <g transform="translate(52.951875 68.272527)scale(0.2 -0.2)">
       <use xlink:href="#DejaVuSans-31"/>
       <use xlink:href="#DejaVuSans-2e" x="63.623047"/>
       <use xlink:href="#DejaVuSans-30" x="95.410156"/>
      </g>
     </g>
    </g>
    <g id="text_15">
     <!-- Virus neutralization -->
     <g transform="translate(22.396875 319.741562)rotate(-90)scale(0.2 -0.2)">
      <defs>
       <path id="DejaVuSans-56" d="M 1831 0 
L 50 4666 
L 709 4666 
L 2188 738 
L 3669 4666 
L 4325 4666 
L 2547 0 
L 1831 0 
z
" transform="scale(0.015625)"/>
       <path id="DejaVuSans-6c" d="M 603 4863 
L 1178 4863 
L 1178 0 
L 603 0 
L 603 4863 
z
" transform="scale(0.015625)"/>
       <path id="DejaVuSans-7a" d="M 353 3500 
L 3084 3500 
L 3084 2975 
L 922 459 
L 3084 459 
L 3084 0 
L 275 0 
L 275 525 
L 2438 3041 
L 353 3041 
L 353 3500 
z
" transform="scale(0.015625)"/>
      </defs>
      <use xlink:href="#DejaVuSans-56"/>
      <use xlink:href="#DejaVuSans-69" x="66.158203"/>
      <use xlink:href="#DejaVuSans-72" x="93.941406"/>
      <use xlink:href="#DejaVuSans-75" x="135.054688"/>
      <use xlink:href="#DejaVuSans-73" x="198.433594"/>
      <use xlink:href="#DejaVuSans-20" x="250.533203"/>
      <use xlink:href="#DejaVuSans-6e" x="282.320312"/>
      <use xlink:href="#DejaVuSans-65" x="345.699219"/>
      <use xlink:href="#DejaVuSans-75" x="407.222656"/>
      <use xlink:href="#DejaVuSans-74" x="470.601562"/>
      <use xlink:href="#DejaVuSans-72" x="509.810547"/>
      <use xlink:href="#DejaVuSans-61" x="550.923828"/>
      <use xlink:href="#DejaVuSans-6c" x="612.203125"/>
      <use xlink:href="#DejaVuSans-69" x="639.986328"/>
      <use xlink:href="#DejaVuSans-7a" x="667.769531"/>
      <use xlink:href="#DejaVuSans-61" x="720.259766"/>
      <use xlink:href="#DejaVuSans-74" x="781.539062"/>
      <use xlink:href="#DejaVuSans-69" x="820.748047"/>
      <use xlink:href="#DejaVuSans-6f" x="848.53125"/>
      <use xlink:href="#DejaVuSans-6e" x="909.712891"/>
     </g>
     <!--  probability -->
     <g transform="translate(44.7925 278.966562)rotate(-90)scale(0.2 -0.2)">
      <defs>
       <path id="DejaVuSans-62" d="M 3116 1747 
Q 3116 2381 2855 2742 
Q 2594 3103 2138 3103 
Q 1681 3103 1420 2742 
Q 1159 2381 1159 1747 
Q 1159 1113 1420 752 
Q 1681 391 2138 391 
Q 2594 391 2855 752 
Q 3116 1113 3116 1747 
z
M 1159 2969 
Q 1341 3281 1617 3432 
Q 1894 3584 2278 3584 
Q 2916 3584 3314 3078 
Q 3713 2572 3713 1747 
Q 3713 922 3314 415 
Q 2916 -91 2278 -91 
Q 1894 -91 1617 61 
Q 1341 213 1159 525 
L 1159 0 
L 581 0 
L 581 4863 
L 1159 4863 
L 1159 2969 
z
" transform="scale(0.015625)"/>
      </defs>
      <use xlink:href="#DejaVuSans-20"/>
      <use xlink:href="#DejaVuSans-70" x="31.787109"/>
      <use xlink:href="#DejaVuSans-72" x="95.263672"/>
      <use xlink:href="#DejaVuSans-6f" x="134.126953"/>
      <use xlink:href="#DejaVuSans-62" x="195.308594"/>
      <use xlink:href="#DejaVuSans-61" x="258.785156"/>
      <use xlink:href="#DejaVuSans-62" x="320.064453"/>
      <use xlink:href="#DejaVuSans-69" x="383.541016"/>
      <use xlink:href="#DejaVuSans-6c" x="411.324219"/>
      <use xlink:href="#DejaVuSans-69" x="439.107422"/>
      <use xlink:href="#DejaVuSans-74" x="466.890625"/>
      <use xlink:href="#DejaVuSans-79" x="506.099609"/>
     </g>
    </g>
   </g>
   <g id="patch_3">
    <path d="M 91.758125 416.476875 
L 91.758125 28.396875 
" style="fill: none; stroke: #000000; stroke-width: 0.8; stroke-linejoin: miter; stroke-linecap: square"/>
   </g>
   <g id="patch_4">
    <path d="M 649.758125 416.476875 
L 649.758125 28.396875 
" style="fill: none; stroke: #000000; stroke-width: 0.8; stroke-linejoin: miter; stroke-linecap: square"/>
   </g>
   <g id="patch_5">
    <path d="M 91.758125 416.476875 
L 649.758125 416.476875 
" style="fill: none; stroke: #000000; stroke-width: 0.8; stroke-linejoin: miter; stroke-linecap: square"/>
   </g>
   <g id="patch_6">
    <path d="M 91.758125 28.396875 
L 649.758125 28.396875 
" style="fill: none; stroke: #000000; stroke-width: 0.8; stroke-linejoin: miter; stroke-linecap: square"/>
   </g>
   <g id="text_16">
    <!-- JN.2 antigen -->
    <g transform="translate(309.605 22.396875)scale(0.2 -0.2)">
     <defs>
      <path id="DejaVuSans-4a" d="M 628 4666 
L 1259 4666 
L 1259 325 
Q 1259 -519 939 -900 
Q 619 -1281 -91 -1281 
L -331 -1281 
L -331 -750 
L -134 -750 
Q 284 -750 456 -515 
Q 628 -281 628 325 
L 628 4666 
z
" transform="scale(0.015625)"/>
      <path id="DejaVuSans-4e" d="M 628 4666 
L 1478 4666 
L 3547 763 
L 3547 4666 
L 4159 4666 
L 4159 0 
L 3309 0 
L 1241 3903 
L 1241 0 
L 628 0 
L 628 4666 
z
" transform="scale(0.015625)"/>
     </defs>
     <use xlink:href="#DejaVuSans-4a"/>
     <use xlink:href="#DejaVuSans-4e" x="29.492188"/>
     <use xlink:href="#DejaVuSans-2e" x="104.296875"/>
     <use xlink:href="#DejaVuSans-32" x="136.083984"/>
     <use xlink:href="#DejaVuSans-20" x="199.707031"/>
     <use xlink:href="#DejaVuSans-61" x="231.494141"/>
     <use xlink:href="#DejaVuSans-6e" x="292.773438"/>
     <use xlink:href="#DejaVuSans-74" x="356.152344"/>
     <use xlink:href="#DejaVuSans-69" x="395.361328"/>
     <use xlink:href="#DejaVuSans-67" x="423.144531"/>
     <use xlink:href="#DejaVuSans-65" x="486.621094"/>
     <use xlink:href="#DejaVuSans-6e" x="548.144531"/>
    </g>
   </g>
   <g id="legend_1">
    <g id="patch_7">
     <path d="M 235.258125 532.900875 
L 475.145625 532.900875 
Q 479.145625 532.900875 479.145625 528.900875 
L 479.145625 501.544625 
Q 479.145625 497.544625 475.145625 497.544625 
L 235.258125 497.544625 
Q 231.258125 497.544625 231.258125 501.544625 
L 231.258125 528.900875 
Q 231.258125 532.900875 235.258125 532.900875 
z
" style="fill: #ffffff; opacity: 0.8; stroke: #cccccc; stroke-linejoin: miter"/>
    </g>
    <g id="patch_8">
     <path d="M 239.258125 520.7415 
L 279.258125 520.7415 
L 279.258125 506.7415 
L 239.258125 506.7415 
z
" style="fill: #ffa500; fill-opacity: 0.3; stroke: #ffa500; stroke-opacity: 0.3; stroke-linejoin: miter"/>
    </g>
    <g id="text_17">
     <!-- JN.2 -->
     <g transform="translate(295.258125 520.7415)scale(0.2 -0.2)">
      <use xlink:href="#DejaVuSans-4a"/>
      <use xlink:href="#DejaVuSans-4e" x="29.492188"/>
      <use xlink:href="#DejaVuSans-2e" x="104.296875"/>
      <use xlink:href="#DejaVuSans-32" x="136.083984"/>
     </g>
    </g>
    <g id="patch_9">
     <path d="M 375.201875 520.7415 
L 415.201875 520.7415 
L 415.201875 506.7415 
L 375.201875 506.7415 
z
" style="fill: #1f77b4; fill-opacity: 0.3; stroke: #1f77b4; stroke-opacity: 0.3; stroke-linejoin: miter"/>
    </g>
    <g id="text_18">
     <!-- JN.3 -->
     <g transform="translate(431.201875 520.7415)scale(0.2 -0.2)">
      <use xlink:href="#DejaVuSans-4a"/>
      <use xlink:href="#DejaVuSans-4e" x="29.492188"/>
      <use xlink:href="#DejaVuSans-2e" x="104.296875"/>
      <use xlink:href="#DejaVuSans-33" x="136.083984"/>
     </g>
    </g>
   </g>
  </g>
 </g>
 <defs>
  <clipPath id="p8bea17a610">
   <rect x="91.758125" y="28.396875" width="558" height="388.08"/>
  </clipPath>
 </defs>
</svg>
