<?xml version="1.0" encoding="utf-8" standalone="no"?>
<!DOCTYPE svg PUBLIC "-//W3C//DTD SVG 1.1//EN"
  "http://www.w3.org/Graphics/SVG/1.1/DTD/svg11.dtd">
<svg xmlns:xlink="http://www.w3.org/1999/xlink" width="656.958125pt" height="540.100875pt" viewBox="0 0 656.958125 540.100875" xmlns="http://www.w3.org/2000/svg" version="1.1">
 <metadata>
  <rdf:RDF xmlns:dc="http://purl.org/dc/elements/1.1/" xmlns:cc="http://creativecommons.org/ns#" xmlns:rdf="http://www.w3.org/1999/02/22-rdf-syntax-ns#">
   <cc:Work>
    <dc:type rdf:resource="http://purl.org/dc/dcmitype/StillImage"/>
    <dc:date>2024-09-28T11:26:59.085079</dc:date>
    <dc:format>image/svg+xml</dc:format>
    <dc:creator>
     <cc:Agent>
      <dc:title>Matplotlib v3.5.2, https://matplotlib.org/</dc:title>
     </cc:Agent>
    </dc:creator>
   </cc:Work>
  </rdf:RDF>
 </metadata>
 <defs>
  <style type="text/css">*{stroke-linejoin: round; stroke-linecap: butt}</style>
 </defs>
 <g id="figure_1">
  <g id="patch_1">
   <path d="M 0 540.100875 
L 656.958125 540.100875 
L 656.958125 0 
L 0 0 
z
" style="fill: #ffffff"/>
  </g>
  <g id="axes_1">
   <g id="patch_2">
    <path d="M 91.758125 416.476875 
L 649.758125 416.476875 
L 649.758125 28.396875 
L 91.758125 28.396875 
z
" style="fill: #ffffff"/>
   </g>
   <g id="PolyCollection_1">
    <defs>
     <path id="m64b5e1704c" d="M 117.121761 -464.06096 
L 117.121761 -397.116121 
L 117.897408 -450.864899 
L 118.673054 -467.331633 
L 119.4487 -473.524795 
L 120.224347 -476.220388 
L 120.999993 -477.530684 
L 121.77564 -478.225437 
L 122.551286 -478.620647 
L 123.326932 -478.858897 
L 124.102579 -479.009679 
L 124.878225 -479.109112 
L 125.653871 -479.177024 
L 126.429518 -479.224817 
L 127.205164 -479.259326 
L 127.980811 -479.28479 
L 128.756457 -479.303928 
L 129.532103 -479.318529 
L 130.30775 -479.3298 
L 131.083396 -479.338576 
L 131.859042 -479.343679 
L 132.634689 -479.336209 
L 133.410335 -479.327415 
L 134.185982 -479.317166 
L 134.961628 -479.305309 
L 135.737274 -479.291664 
L 136.512921 -479.27603 
L 137.288567 -479.258179 
L 138.064213 -479.237855 
L 138.83986 -479.214775 
L 139.615506 -479.188628 
L 140.391153 -479.159068 
L 141.166799 -479.125719 
L 141.942445 -479.08817 
L 142.718092 -479.045971 
L 143.493738 -478.998637 
L 144.269384 -478.945641 
L 145.045031 -478.886414 
L 145.820677 -478.820343 
L 146.596323 -478.746773 
L 147.37197 -478.665 
L 148.147616 -478.574273 
L 148.923263 -478.473791 
L 149.698909 -478.362706 
L 150.474555 -478.240117 
L 151.250202 -478.105074 
L 152.025848 -477.956576 
L 152.801494 -477.793568 
L 153.577141 -477.614949 
L 154.352787 -477.419565 
L 155.128434 -477.206213 
L 155.90408 -476.973645 
L 156.679726 -476.720566 
L 157.455373 -476.445636 
L 158.231019 -476.147477 
L 159.006665 -475.824669 
L 159.782312 -475.475761 
L 160.557958 -475.099269 
L 161.333605 -474.69368 
L 162.109251 -474.257462 
L 162.884897 -473.789062 
L 163.660544 -473.286915 
L 164.43619 -472.749448 
L 165.211836 -472.175088 
L 165.987483 -471.562262 
L 166.763129 -470.90941 
L 167.538776 -470.214989 
L 168.314422 -469.477476 
L 169.090068 -468.695379 
L 169.865715 -467.867243 
L 170.641361 -466.991655 
L 171.417007 -466.06725 
L 172.192654 -465.09272 
L 172.9683 -464.066822 
L 173.743947 -462.988377 
L 174.519593 -461.856284 
L 175.295239 -460.669522 
L 176.070886 -459.427157 
L 176.846532 -458.128346 
L 177.622178 -456.772343 
L 178.397825 -455.358503 
L 179.173471 -453.886286 
L 179.949117 -452.35526 
L 180.724764 -450.765108 
L 181.50041 -449.115625 
L 182.276057 -447.406723 
L 183.051703 -445.638434 
L 183.827349 -443.810909 
L 184.602996 -441.924419 
L 185.378642 -439.979355 
L 186.154288 -437.976229 
L 186.929935 -435.915669 
L 187.705581 -433.798423 
L 188.481228 -431.625352 
L 189.256874 -429.397431 
L 190.03252 -427.115743 
L 190.808167 -424.781478 
L 191.583813 -422.395928 
L 192.359459 -419.960482 
L 193.135106 -417.476624 
L 193.910752 -414.945926 
L 194.686399 -412.370042 
L 195.462045 -409.750705 
L 196.237691 -407.08972 
L 197.013338 -404.388957 
L 197.788984 -401.65035 
L 198.56463 -398.875882 
L 199.340277 -396.067589 
L 200.115923 -393.227546 
L 200.89157 -390.357864 
L 201.667216 -387.460686 
L 202.442862 -384.538174 
L 203.218509 -381.592512 
L 203.994155 -378.625893 
L 204.769801 -375.640515 
L 205.545448 -372.638578 
L 206.321094 -369.622276 
L 207.096741 -366.593791 
L 207.872387 -363.55529 
L 208.648033 -360.50892 
L 209.42368 -357.456803 
L 210.199326 -354.40103 
L 210.974972 -351.343659 
L 211.750619 -348.286712 
L 212.526265 -345.232168 
L 213.301911 -342.181962 
L 214.077558 -339.137983 
L 214.853204 -336.10207 
L 215.628851 -333.076008 
L 216.404497 -330.061528 
L 217.180143 -327.060305 
L 217.95579 -324.073955 
L 218.731436 -321.104036 
L 219.507082 -318.152043 
L 220.282729 -315.21941 
L 221.058375 -312.307508 
L 221.834022 -309.417647 
L 222.609668 -306.551071 
L 223.385314 -303.708963 
L 224.160961 -300.892441 
L 224.936607 -298.102559 
L 225.712253 -295.340312 
L 226.4879 -292.60663 
L 227.263546 -289.902381 
L 228.039193 -287.228375 
L 228.814839 -284.585362 
L 229.590485 -281.974031 
L 230.366132 -279.395017 
L 231.141778 -276.848897 
L 231.917424 -274.336193 
L 232.693071 -271.857376 
L 233.468717 -269.412863 
L 234.244364 -267.00302 
L 235.02001 -264.628168 
L 235.795656 -262.288578 
L 236.571303 -259.984475 
L 237.346949 -257.716042 
L 238.122595 -255.483419 
L 238.898242 -253.286705 
L 239.673888 -251.125962 
L 240.449535 -249.001212 
L 241.225181 -246.912443 
L 242.000827 -244.85961 
L 242.776474 -242.842635 
L 243.55212 -240.86141 
L 244.327766 -238.915795 
L 245.103413 -237.005627 
L 245.879059 -235.130714 
L 246.654705 -233.290841 
L 247.430352 -231.485769 
L 248.205998 -229.715239 
L 248.981645 -227.97897 
L 249.757291 -226.276664 
L 250.532937 -224.608004 
L 251.308584 -222.972658 
L 252.08423 -221.370278 
L 252.859876 -219.800504 
L 253.635523 -218.262961 
L 254.411169 -216.757265 
L 255.186816 -215.283019 
L 255.962462 -213.839818 
L 256.738108 -212.427249 
L 257.513755 -211.04489 
L 258.289401 -209.692315 
L 259.065047 -208.369088 
L 259.840694 -207.074773 
L 260.61634 -205.808925 
L 261.391987 -204.5711 
L 262.167633 -203.360849 
L 262.943279 -202.17772 
L 263.718926 -201.021262 
L 264.494572 -199.891021 
L 265.270218 -198.786544 
L 266.045865 -197.707378 
L 266.821511 -196.653071 
L 267.597158 -195.623172 
L 268.372804 -194.61723 
L 269.14845 -193.634799 
L 269.924097 -192.675434 
L 270.699743 -191.738693 
L 271.475389 -190.824136 
L 272.251036 -189.931328 
L 273.026682 -189.059838 
L 273.802329 -188.209237 
L 274.577975 -187.379103 
L 275.353621 -186.569015 
L 276.129268 -185.778559 
L 276.904914 -185.007327 
L 277.68056 -184.254912 
L 278.456207 -183.520916 
L 279.231853 -182.804944 
L 280.007499 -182.106608 
L 280.783146 -181.425524 
L 281.558792 -180.761315 
L 282.334439 -180.113608 
L 283.110085 -179.482038 
L 283.885731 -178.866243 
L 284.661378 -178.265869 
L 285.437024 -177.680567 
L 286.21267 -177.109995 
L 286.988317 -176.553815 
L 287.763963 -176.011696 
L 288.53961 -175.483313 
L 289.315256 -174.968346 
L 290.090902 -174.466482 
L 290.866549 -173.977414 
L 291.642195 -173.50084 
L 292.417841 -173.036463 
L 293.193488 -172.583995 
L 293.969134 -172.143149 
L 294.744781 -171.713648 
L 295.520427 -171.295218 
L 296.296073 -170.887592 
L 297.07172 -170.490507 
L 297.847366 -170.103707 
L 298.623012 -169.726941 
L 299.398659 -169.359963 
L 300.174305 -169.002532 
L 300.949952 -168.654413 
L 301.725598 -168.315375 
L 302.501244 -167.985193 
L 303.276891 -167.663647 
L 304.052537 -167.350521 
L 304.828183 -167.045605 
L 305.60383 -166.748692 
L 306.379476 -166.459582 
L 307.155122 -166.178077 
L 307.930769 -165.903987 
L 308.706415 -165.637122 
L 309.482062 -165.377299 
L 310.257708 -165.12434 
L 311.033354 -164.87807 
L 311.809001 -164.638318 
L 312.584647 -164.404916 
L 313.360293 -164.177703 
L 314.13594 -163.956518 
L 314.911586 -163.741208 
L 315.687233 -163.531621 
L 316.462879 -163.327609 
L 317.238525 -163.129028 
L 318.014172 -162.935737 
L 318.789818 -162.747599 
L 319.565464 -162.56448 
L 320.341111 -162.386249 
L 321.116757 -162.21278 
L 321.892404 -162.043948 
L 322.66805 -161.879632 
L 323.443696 -161.719713 
L 324.219343 -161.564078 
L 324.994989 -161.412612 
L 325.770635 -161.265207 
L 326.546282 -161.121757 
L 327.321928 -160.982156 
L 328.097575 -160.846304 
L 328.873221 -160.714102 
L 329.648867 -160.585454 
L 330.424514 -160.460265 
L 331.20016 -160.338444 
L 331.975806 -160.219902 
L 332.751453 -160.104553 
L 333.527099 -159.99231 
L 334.302746 -159.883093 
L 335.078392 -159.776821 
L 335.854038 -159.673414 
L 336.629685 -159.572798 
L 337.405331 -159.474898 
L 338.180977 -159.379641 
L 338.956624 -159.286957 
L 339.73227 -159.196778 
L 340.507916 -159.109036 
L 341.283563 -159.023666 
L 342.059209 -158.940605 
L 342.834856 -158.859792 
L 343.610502 -158.781165 
L 344.386148 -158.704667 
L 345.161795 -158.63024 
L 345.937441 -158.557829 
L 346.713087 -158.487379 
L 347.488734 -158.418839 
L 348.26438 -158.352156 
L 349.040027 -158.287282 
L 349.815673 -158.224166 
L 350.591319 -158.162763 
L 351.366966 -158.103026 
L 352.142612 -158.044909 
L 352.918258 -157.98837 
L 353.693905 -157.933366 
L 354.469551 -157.879856 
L 355.245198 -157.827798 
L 356.020844 -157.777155 
L 356.79649 -157.727888 
L 357.572137 -157.679959 
L 358.347783 -157.633333 
L 359.123429 -157.587975 
L 359.899076 -157.543849 
L 360.674722 -157.500924 
L 361.450369 -157.459165 
L 362.226015 -157.418543 
L 363.001661 -157.379025 
L 363.777308 -157.340583 
L 364.552954 -157.303187 
L 365.3286 -157.266809 
L 366.104247 -157.23142 
L 366.879893 -157.196995 
L 367.65554 -157.163508 
L 368.431186 -157.130932 
L 369.206832 -157.099243 
L 369.982479 -157.068417 
L 370.758125 -157.038431 
L 371.533771 -157.009262 
L 372.309418 -156.980887 
L 373.085064 -156.953286 
L 373.86071 -156.926436 
L 374.636357 -156.900319 
L 375.412003 -156.874913 
L 376.18765 -156.850199 
L 376.963296 -156.826159 
L 377.738942 -156.802775 
L 378.514589 -156.780028 
L 379.290235 -156.757901 
L 380.065881 -156.736378 
L 380.841528 -156.715442 
L 381.617174 -156.695076 
L 382.392821 -156.675267 
L 383.168467 -156.655997 
L 383.944113 -156.637253 
L 384.71976 -156.61902 
L 385.495406 -156.601285 
L 386.271052 -156.584034 
L 387.046699 -156.567253 
L 387.822345 -156.550931 
L 388.597992 -156.535053 
L 389.373638 -156.519609 
L 390.149284 -156.504587 
L 390.924931 -156.489974 
L 391.700577 -156.47576 
L 392.476223 -156.461935 
L 393.25187 -156.448486 
L 394.027516 -156.435405 
L 394.803163 -156.422681 
L 395.578809 -156.410304 
L 396.354455 -156.398266 
L 397.130102 -156.386556 
L 397.905748 -156.375165 
L 398.681394 -156.364086 
L 399.457041 -156.353309 
L 400.232687 -156.342827 
L 401.008334 -156.33263 
L 401.78398 -156.322712 
L 402.559626 -156.313066 
L 403.335273 -156.303682 
L 404.110919 -156.294555 
L 404.886565 -156.285677 
L 405.662212 -156.277042 
L 406.437858 -156.268642 
L 407.213504 -156.260472 
L 407.989151 -156.252525 
L 408.764797 -156.244795 
L 409.540444 -156.237277 
L 410.31609 -156.229963 
L 411.091736 -156.22285 
L 411.867383 -156.215931 
L 412.643029 -156.209201 
L 413.418675 -156.202655 
L 414.194322 -156.196287 
L 414.969968 -156.190094 
L 415.745615 -156.18407 
L 416.521261 -156.17821 
L 417.296907 -156.172511 
L 418.072554 -156.166967 
L 418.8482 -156.161575 
L 419.623846 -156.15633 
L 420.399493 -156.151229 
L 421.175139 -156.146266 
L 421.950786 -156.14144 
L 422.726432 -156.136745 
L 423.502078 -156.132179 
L 424.277725 -156.127738 
L 425.053371 -156.123417 
L 425.829017 -156.119215 
L 426.604664 -156.115128 
L 427.38031 -156.111153 
L 428.155957 -156.107286 
L 428.931603 -156.103525 
L 429.707249 -156.099866 
L 430.482896 -156.096308 
L 431.258542 -156.092847 
L 432.034188 -156.08948 
L 432.809835 -156.086206 
L 433.585481 -156.083021 
L 434.361128 -156.079923 
L 435.136774 -156.07691 
L 435.91242 -156.073979 
L 436.688067 -156.071128 
L 437.463713 -156.068355 
L 438.239359 -156.065658 
L 439.015006 -156.063035 
L 439.790652 -156.060483 
L 440.566298 -156.058001 
L 441.341945 -156.055587 
L 442.117591 -156.053239 
L 442.893238 -156.050955 
L 443.668884 -156.048734 
L 444.44453 -156.046573 
L 445.220177 -156.044472 
L 445.995823 -156.042427 
L 446.771469 -156.040439 
L 447.547116 -156.038505 
L 448.322762 -156.036624 
L 449.098409 -156.034795 
L 449.874055 -156.033015 
L 450.649701 -156.031284 
L 451.425348 -156.0296 
L 452.200994 -156.027963 
L 452.97664 -156.02637 
L 453.752287 -156.024821 
L 454.527933 -156.023314 
L 455.30358 -156.021848 
L 456.079226 -156.020422 
L 456.854872 -156.019036 
L 457.630519 -156.017687 
L 458.406165 -156.016375 
L 459.181811 -156.015099 
L 459.957458 -156.013858 
L 460.733104 -156.012651 
L 461.508751 -156.011477 
L 462.284397 -156.010335 
L 463.060043 -156.009224 
L 463.83569 -156.008143 
L 464.611336 -156.007092 
L 465.386982 -156.00607 
L 466.162629 -156.005076 
L 466.938275 -156.004109 
L 467.713921 -156.003168 
L 468.489568 -156.002253 
L 469.265214 -156.001363 
L 470.040861 -156.000498 
L 470.816507 -155.999656 
L 471.592153 -155.998837 
L 472.3678 -155.99804 
L 473.143446 -155.997266 
L 473.919092 -155.996512 
L 474.694739 -155.995779 
L 475.470385 -155.995066 
L 476.246032 -155.994373 
L 477.021678 -155.993698 
L 477.797324 -155.993042 
L 478.572971 -155.992404 
L 479.348617 -155.991784 
L 480.124263 -155.99118 
L 480.89991 -155.990593 
L 481.675556 -155.990022 
L 482.451203 -155.989466 
L 483.226849 -155.988926 
L 484.002495 -155.988401 
L 484.778142 -155.987889 
L 485.553788 -155.987392 
L 486.329434 -155.986909 
L 487.105081 -155.986438 
L 487.880727 -155.985981 
L 488.656374 -155.985536 
L 489.43202 -155.985103 
L 490.207666 -155.984682 
L 490.983313 -155.984273 
L 491.758959 -155.983874 
L 492.534605 -155.983487 
L 493.310252 -155.98311 
L 494.085898 -155.982744 
L 494.861545 -155.982387 
L 495.637191 -155.982041 
L 496.412837 -155.981703 
L 497.188484 -155.981375 
L 497.96413 -155.981056 
L 498.739776 -155.980746 
L 499.515423 -155.980444 
L 500.291069 -155.980151 
L 501.066715 -155.979865 
L 501.842362 -155.979587 
L 502.618008 -155.979317 
L 503.393655 -155.979054 
L 504.169301 -155.978799 
L 504.944947 -155.97855 
L 505.720594 -155.978308 
L 506.49624 -155.978073 
L 507.271886 -155.977844 
L 508.047533 -155.977622 
L 508.823179 -155.977406 
L 509.598826 -155.977195 
L 510.374472 -155.97699 
L 511.150118 -155.976791 
L 511.925765 -155.976597 
L 512.701411 -155.976409 
L 513.477057 -155.976226 
L 514.252704 -155.976048 
L 515.02835 -155.975874 
L 515.803997 -155.975706 
L 516.579643 -155.975542 
L 517.355289 -155.975382 
L 518.130936 -155.975227 
L 518.906582 -155.975076 
L 519.682228 -155.974929 
L 520.457875 -155.974786 
L 521.233521 -155.974648 
L 522.009168 -155.974512 
L 522.784814 -155.974381 
L 523.56046 -155.974253 
L 524.336107 -155.974129 
L 525.111753 -155.974008 
L 525.887399 -155.97389 
L 526.663046 -155.973776 
L 527.438692 -155.973665 
L 528.214339 -155.973557 
L 528.989985 -155.973451 
L 529.765631 -155.973349 
L 530.541278 -155.973249 
L 531.316924 -155.973153 
L 532.09257 -155.973058 
L 532.868217 -155.972967 
L 533.643863 -155.972878 
L 534.419509 -155.972791 
L 535.195156 -155.972707 
L 535.970802 -155.972625 
L 536.746449 -155.972545 
L 537.522095 -155.972467 
L 538.297741 -155.972392 
L 539.073388 -155.972318 
L 539.849034 -155.972247 
L 540.62468 -155.972178 
L 541.400327 -155.97211 
L 542.175973 -155.972044 
L 542.95162 -155.971981 
L 543.727266 -155.971918 
L 544.502912 -155.971858 
L 545.278559 -155.971799 
L 546.054205 -155.971742 
L 546.829851 -155.971686 
L 547.605498 -155.971632 
L 548.381144 -155.97158 
L 549.156791 -155.971528 
L 549.932437 -155.971479 
L 550.708083 -155.97143 
L 551.48373 -155.971383 
L 552.259376 -155.971337 
L 553.035022 -155.971293 
L 553.810669 -155.971249 
L 554.586315 -155.971207 
L 555.361962 -155.971166 
L 556.137608 -155.971126 
L 556.913254 -155.971088 
L 557.688901 -155.97105 
L 558.464547 -155.971013 
L 559.240193 -155.970977 
L 560.01584 -155.970943 
L 560.791486 -155.970909 
L 561.567133 -155.970876 
L 562.342779 -155.970844 
L 563.118425 -155.970813 
L 563.894072 -155.970783 
L 564.669718 -155.970753 
L 565.445364 -155.970725 
L 566.221011 -155.970697 
L 566.996657 -155.97067 
L 567.772303 -155.970644 
L 568.54795 -155.970618 
L 569.323596 -155.970593 
L 570.099243 -155.970569 
L 570.874889 -155.970545 
L 571.650535 -155.970523 
L 572.426182 -155.9705 
L 573.201828 -155.970479 
L 573.977474 -155.970457 
L 574.753121 -155.970437 
L 575.528767 -155.970417 
L 576.304414 -155.970398 
L 577.08006 -155.970379 
L 577.855706 -155.97036 
L 578.631353 -155.970343 
L 579.406999 -155.970325 
L 580.182645 -155.970308 
L 580.958292 -155.970292 
L 581.733938 -155.970276 
L 582.509585 -155.97026 
L 583.285231 -155.970245 
L 584.060877 -155.970231 
L 584.836524 -155.970216 
L 585.61217 -155.970202 
L 586.387816 -155.970189 
L 587.163463 -155.970176 
L 587.939109 -155.970163 
L 588.714756 -155.97015 
L 589.490402 -155.970138 
L 590.266048 -155.970127 
L 591.041695 -155.970115 
L 591.817341 -155.970104 
L 592.592987 -155.970093 
L 593.368634 -155.970083 
L 594.14428 -155.970072 
L 594.919927 -155.970062 
L 595.695573 -155.970053 
L 596.471219 -155.970043 
L 597.246866 -155.970034 
L 598.022512 -155.970025 
L 598.798158 -155.970016 
L 599.573805 -155.970008 
L 600.349451 -155.97 
L 601.125097 -155.969992 
L 601.900744 -155.969984 
L 602.67639 -155.969977 
L 603.452037 -155.969969 
L 604.227683 -155.969962 
L 605.003329 -155.969955 
L 605.778976 -155.969948 
L 606.554622 -155.969942 
L 607.330268 -155.969935 
L 608.105915 -155.969929 
L 608.881561 -155.969923 
L 609.657208 -155.969917 
L 610.432854 -155.969911 
L 611.2085 -155.969906 
L 611.984147 -155.9699 
L 612.759793 -155.969895 
L 613.535439 -155.96989 
L 614.311086 -155.969885 
L 615.086732 -155.96988 
L 615.862379 -155.969875 
L 616.638025 -155.969871 
L 617.413671 -155.969866 
L 618.189318 -155.969862 
L 618.964964 -155.969858 
L 619.74061 -155.969854 
L 620.516257 -155.96985 
L 621.291903 -155.969846 
L 622.06755 -155.969842 
L 622.843196 -155.969838 
L 623.618842 -155.969835 
L 624.394489 -155.969831 
L 624.394489 -166.656994 
L 624.394489 -166.656994 
L 623.618842 -166.76277 
L 622.843196 -166.869572 
L 622.06755 -166.977409 
L 621.291903 -167.08629 
L 620.516257 -167.196225 
L 619.74061 -167.307225 
L 618.964964 -167.419298 
L 618.189318 -167.532455 
L 617.413671 -167.646706 
L 616.638025 -167.762061 
L 615.862379 -167.87853 
L 615.086732 -167.996123 
L 614.311086 -168.11485 
L 613.535439 -168.234723 
L 612.759793 -168.35575 
L 611.984147 -168.477944 
L 611.2085 -168.601315 
L 610.432854 -168.725873 
L 609.657208 -168.85163 
L 608.881561 -168.978596 
L 608.105915 -169.106782 
L 607.330268 -169.236199 
L 606.554622 -169.366859 
L 605.778976 -169.498773 
L 605.003329 -169.631952 
L 604.227683 -169.766408 
L 603.452037 -169.902152 
L 602.67639 -170.039195 
L 601.900744 -170.177551 
L 601.125097 -170.31723 
L 600.349451 -170.458244 
L 599.573805 -170.600606 
L 598.798158 -170.744327 
L 598.022512 -170.889419 
L 597.246866 -171.035896 
L 596.471219 -171.183769 
L 595.695573 -171.333051 
L 594.919927 -171.483754 
L 594.14428 -171.635891 
L 593.368634 -171.789475 
L 592.592987 -171.944519 
L 591.817341 -172.101036 
L 591.041695 -172.259038 
L 590.266048 -172.418538 
L 589.490402 -172.579551 
L 588.714756 -172.74209 
L 587.939109 -172.906167 
L 587.163463 -173.071797 
L 586.387816 -173.238992 
L 585.61217 -173.407768 
L 584.836524 -173.578137 
L 584.060877 -173.750113 
L 583.285231 -173.923711 
L 582.509585 -174.098945 
L 581.733938 -174.275829 
L 580.958292 -174.454377 
L 580.182645 -174.634603 
L 579.406999 -174.816523 
L 578.631353 -175.000151 
L 577.855706 -175.185501 
L 577.08006 -175.372589 
L 576.304414 -175.56143 
L 575.528767 -175.752037 
L 574.753121 -175.944427 
L 573.977474 -176.138615 
L 573.201828 -176.334616 
L 572.426182 -176.532446 
L 571.650535 -176.73212 
L 570.874889 -176.933654 
L 570.099243 -177.137063 
L 569.323596 -177.342363 
L 568.54795 -177.549571 
L 567.772303 -177.758702 
L 566.996657 -177.969773 
L 566.221011 -178.1828 
L 565.445364 -178.397799 
L 564.669718 -178.614786 
L 563.894072 -178.833779 
L 563.118425 -179.054793 
L 562.342779 -179.277847 
L 561.567133 -179.502955 
L 560.791486 -179.730136 
L 560.01584 -179.959407 
L 559.240193 -180.190785 
L 558.464547 -180.424286 
L 557.688901 -180.659929 
L 556.913254 -180.89773 
L 556.137608 -181.137708 
L 555.361962 -181.37988 
L 554.586315 -181.624264 
L 553.810669 -181.870878 
L 553.035022 -182.119739 
L 552.259376 -182.370865 
L 551.48373 -182.624276 
L 550.708083 -182.879989 
L 549.932437 -183.138022 
L 549.156791 -183.398394 
L 548.381144 -183.661124 
L 547.605498 -183.926229 
L 546.829851 -184.193729 
L 546.054205 -184.463643 
L 545.278559 -184.735989 
L 544.502912 -185.010787 
L 543.727266 -185.288055 
L 542.95162 -185.567813 
L 542.175973 -185.85008 
L 541.400327 -186.134875 
L 540.62468 -186.422218 
L 539.849034 -186.712129 
L 539.073388 -187.004626 
L 538.297741 -187.299729 
L 537.522095 -187.597459 
L 536.746449 -187.897835 
L 535.970802 -188.200877 
L 535.195156 -188.506606 
L 534.419509 -188.81504 
L 533.643863 -189.126201 
L 532.868217 -189.440108 
L 532.09257 -189.756782 
L 531.316924 -190.076243 
L 530.541278 -190.398512 
L 529.765631 -190.723609 
L 528.989985 -191.051555 
L 528.214339 -191.38237 
L 527.438692 -191.716075 
L 526.663046 -192.052692 
L 525.887399 -192.39224 
L 525.111753 -192.73474 
L 524.336107 -193.080214 
L 523.56046 -193.428682 
L 522.784814 -193.780166 
L 522.009168 -194.134687 
L 521.233521 -194.492265 
L 520.457875 -194.852923 
L 519.682228 -195.21668 
L 518.906582 -195.583559 
L 518.130936 -195.953581 
L 517.355289 -196.326767 
L 516.579643 -196.703138 
L 515.803997 -197.082717 
L 515.02835 -197.465524 
L 514.252704 -197.85158 
L 513.477057 -198.240908 
L 512.701411 -198.633529 
L 511.925765 -199.029464 
L 511.150118 -199.428735 
L 510.374472 -199.831363 
L 509.598826 -200.23737 
L 508.823179 -200.646778 
L 508.047533 -201.059608 
L 507.271886 -201.475882 
L 506.49624 -201.895621 
L 505.720594 -202.318847 
L 504.944947 -202.745581 
L 504.169301 -203.175845 
L 503.393655 -203.60966 
L 502.618008 -204.047048 
L 501.842362 -204.488031 
L 501.066715 -204.932629 
L 500.291069 -205.380864 
L 499.515423 -205.832758 
L 498.739776 -206.288332 
L 497.96413 -206.747606 
L 497.188484 -207.210603 
L 496.412837 -207.677343 
L 495.637191 -208.147848 
L 494.861545 -208.622138 
L 494.085898 -209.100234 
L 493.310252 -209.582158 
L 492.534605 -210.067931 
L 491.758959 -210.557572 
L 490.983313 -211.051102 
L 490.207666 -211.548543 
L 489.43202 -212.049914 
L 488.656374 -212.555236 
L 487.880727 -213.064528 
L 487.105081 -213.577813 
L 486.329434 -214.095108 
L 485.553788 -214.616434 
L 484.778142 -215.141811 
L 484.002495 -215.671258 
L 483.226849 -216.204795 
L 482.451203 -216.742442 
L 481.675556 -217.284216 
L 480.89991 -217.830138 
L 480.124263 -218.380225 
L 479.348617 -218.934498 
L 478.572971 -219.492973 
L 477.797324 -220.05567 
L 477.021678 -220.622606 
L 476.246032 -221.193799 
L 475.470385 -221.769268 
L 474.694739 -222.349029 
L 473.919092 -222.9331 
L 473.143446 -223.521497 
L 472.3678 -224.114238 
L 471.592153 -224.711338 
L 470.816507 -225.312815 
L 470.040861 -225.918684 
L 469.265214 -226.528961 
L 468.489568 -227.143662 
L 467.713921 -227.762801 
L 466.938275 -228.386393 
L 466.162629 -229.014454 
L 465.386982 -229.646997 
L 464.611336 -230.284036 
L 463.83569 -230.925586 
L 463.060043 -231.571659 
L 462.284397 -232.222268 
L 461.508751 -232.877426 
L 460.733104 -233.537145 
L 459.957458 -234.201438 
L 459.181811 -234.870315 
L 458.406165 -235.543788 
L 457.630519 -236.221867 
L 456.854872 -236.904564 
L 456.079226 -237.591887 
L 455.30358 -238.283847 
L 454.527933 -238.980453 
L 453.752287 -239.681712 
L 452.97664 -240.387635 
L 452.200994 -241.098227 
L 451.425348 -241.813497 
L 450.649701 -242.533451 
L 449.874055 -243.258096 
L 449.098409 -243.987438 
L 448.322762 -244.721481 
L 447.547116 -245.460231 
L 446.771469 -246.203692 
L 445.995823 -246.951868 
L 445.220177 -247.704762 
L 444.44453 -248.462376 
L 443.668884 -249.224713 
L 442.893238 -249.991774 
L 442.117591 -250.76356 
L 441.341945 -251.540072 
L 440.566298 -252.321309 
L 439.790652 -253.10727 
L 439.015006 -253.897954 
L 438.239359 -254.693358 
L 437.463713 -255.49348 
L 436.688067 -256.298317 
L 435.91242 -257.107864 
L 435.136774 -257.922116 
L 434.361128 -258.741068 
L 433.585481 -259.564713 
L 432.809835 -260.393046 
L 432.034188 -261.226057 
L 431.258542 -262.06374 
L 430.482896 -262.906084 
L 429.707249 -263.753079 
L 428.931603 -264.604716 
L 428.155957 -265.460982 
L 427.38031 -266.321866 
L 426.604664 -267.187355 
L 425.829017 -268.057434 
L 425.053371 -268.93209 
L 424.277725 -269.811306 
L 423.502078 -270.695067 
L 422.726432 -271.583355 
L 421.950786 -272.476152 
L 421.175139 -273.37344 
L 420.399493 -274.275199 
L 419.623846 -275.181409 
L 418.8482 -276.092047 
L 418.072554 -277.007092 
L 417.296907 -277.92652 
L 416.521261 -278.850307 
L 415.745615 -279.778427 
L 414.969968 -280.710856 
L 414.194322 -281.647565 
L 413.418675 -282.588527 
L 412.643029 -283.533714 
L 411.867383 -284.483094 
L 411.091736 -285.436637 
L 410.31609 -286.394311 
L 409.540444 -287.356084 
L 408.764797 -288.321921 
L 407.989151 -289.291788 
L 407.213504 -290.265649 
L 406.437858 -291.243466 
L 405.662212 -292.225203 
L 404.886565 -293.210819 
L 404.110919 -294.200275 
L 403.335273 -295.19353 
L 402.559626 -296.190542 
L 401.78398 -297.191268 
L 401.008334 -298.195662 
L 400.232687 -299.203681 
L 399.457041 -300.215277 
L 398.681394 -301.230404 
L 397.905748 -302.249012 
L 397.130102 -303.271052 
L 396.354455 -304.296474 
L 395.578809 -305.325225 
L 394.803163 -306.357253 
L 394.027516 -307.392504 
L 393.25187 -308.430922 
L 392.476223 -309.472453 
L 391.700577 -310.517037 
L 390.924931 -311.564618 
L 390.149284 -312.615135 
L 389.373638 -313.668529 
L 388.597992 -314.724737 
L 387.822345 -315.783696 
L 387.046699 -316.845344 
L 386.271052 -317.909616 
L 385.495406 -318.976444 
L 384.71976 -320.045763 
L 383.944113 -321.117503 
L 383.168467 -322.191597 
L 382.392821 -323.267974 
L 381.617174 -324.346562 
L 380.841528 -325.427289 
L 380.065881 -326.510082 
L 379.290235 -327.594866 
L 378.514589 -328.681566 
L 377.738942 -329.770105 
L 376.963296 -330.860407 
L 376.18765 -331.952391 
L 375.412003 -333.045979 
L 374.636357 -334.141091 
L 373.86071 -335.237644 
L 373.085064 -336.335557 
L 372.309418 -337.434745 
L 371.533771 -338.535126 
L 370.758125 -339.636612 
L 369.982479 -340.739119 
L 369.206832 -341.842559 
L 368.431186 -342.946845 
L 367.65554 -344.051886 
L 366.879893 -345.157595 
L 366.104247 -346.263879 
L 365.3286 -347.370649 
L 364.552954 -348.477811 
L 363.777308 -349.585273 
L 363.001661 -350.692942 
L 362.226015 -351.800722 
L 361.450369 -352.908519 
L 360.674722 -354.016237 
L 359.899076 -355.123779 
L 359.123429 -356.231049 
L 358.347783 -357.337948 
L 357.572137 -358.444378 
L 356.79649 -359.550241 
L 356.020844 -360.655436 
L 355.245198 -361.759863 
L 354.469551 -362.863423 
L 353.693905 -363.966014 
L 352.918258 -365.067534 
L 352.142612 -366.167882 
L 351.366966 -367.266955 
L 350.591319 -368.364651 
L 349.815673 -369.460866 
L 349.040027 -370.555498 
L 348.26438 -371.648443 
L 347.488734 -372.739596 
L 346.713087 -373.828854 
L 345.937441 -374.916113 
L 345.161795 -376.001268 
L 344.386148 -377.084215 
L 343.610502 -378.164848 
L 342.834856 -379.243065 
L 342.059209 -380.318759 
L 341.283563 -381.391826 
L 340.507916 -382.462162 
L 339.73227 -383.529662 
L 338.956624 -384.594222 
L 338.180977 -385.655738 
L 337.405331 -386.714105 
L 336.629685 -387.76922 
L 335.854038 -388.820979 
L 335.078392 -389.86928 
L 334.302746 -390.914019 
L 333.527099 -391.955093 
L 332.751453 -392.992402 
L 331.975806 -394.025843 
L 331.20016 -395.055316 
L 330.424514 -396.080719 
L 329.648867 -397.101953 
L 328.873221 -398.118919 
L 328.097575 -399.131517 
L 327.321928 -400.139651 
L 326.546282 -401.143222 
L 325.770635 -402.142134 
L 324.994989 -403.136292 
L 324.219343 -404.125601 
L 323.443696 -405.109966 
L 322.66805 -406.089296 
L 321.892404 -407.063497 
L 321.116757 -408.032479 
L 320.341111 -408.996151 
L 319.565464 -409.954426 
L 318.789818 -410.907215 
L 318.014172 -411.854431 
L 317.238525 -412.795989 
L 316.462879 -413.731805 
L 315.687233 -414.661796 
L 314.911586 -415.585879 
L 314.13594 -416.503976 
L 313.360293 -417.416006 
L 312.584647 -418.321893 
L 311.809001 -419.221559 
L 311.033354 -420.114931 
L 310.257708 -421.001936 
L 309.482062 -421.882501 
L 308.706415 -422.756556 
L 307.930769 -423.624033 
L 307.155122 -424.484866 
L 306.379476 -425.338988 
L 305.60383 -426.186337 
L 304.828183 -427.02685 
L 304.052537 -427.860468 
L 303.276891 -428.687132 
L 302.501244 -429.506785 
L 301.725598 -430.319373 
L 300.949952 -431.124843 
L 300.174305 -431.923144 
L 299.398659 -432.714226 
L 298.623012 -433.498043 
L 297.847366 -434.274549 
L 297.07172 -435.0437 
L 296.296073 -435.805455 
L 295.520427 -436.559775 
L 294.744781 -437.306621 
L 293.969134 -438.045959 
L 293.193488 -438.777755 
L 292.417841 -439.501978 
L 291.642195 -440.218597 
L 290.866549 -440.927585 
L 290.090902 -441.628917 
L 289.315256 -442.322571 
L 288.53961 -443.008523 
L 287.763963 -443.686756 
L 286.988317 -444.357251 
L 286.21267 -445.019995 
L 285.437024 -445.674973 
L 284.661378 -446.322175 
L 283.885731 -446.961593 
L 283.110085 -447.593219 
L 282.334439 -448.217048 
L 281.558792 -448.833079 
L 280.783146 -449.44131 
L 280.007499 -450.041742 
L 279.231853 -450.63438 
L 278.456207 -451.219229 
L 277.68056 -451.796297 
L 276.904914 -452.365592 
L 276.129268 -452.927126 
L 275.353621 -453.480914 
L 274.577975 -454.02697 
L 273.802329 -454.565311 
L 273.026682 -455.095958 
L 272.251036 -455.618931 
L 271.475389 -456.134254 
L 270.699743 -456.641952 
L 269.924097 -457.14205 
L 269.14845 -457.634579 
L 268.372804 -458.119569 
L 267.597158 -458.597051 
L 266.821511 -459.06706 
L 266.045865 -459.529631 
L 265.270218 -459.984803 
L 264.494572 -460.432613 
L 263.718926 -460.873102 
L 262.943279 -461.306314 
L 262.167633 -461.732291 
L 261.391987 -462.151079 
L 260.61634 -462.562725 
L 259.840694 -462.967277 
L 259.065047 -463.364785 
L 258.289401 -463.7553 
L 257.513755 -464.138874 
L 256.738108 -464.515562 
L 255.962462 -464.885419 
L 255.186816 -465.248501 
L 254.411169 -465.604864 
L 253.635523 -465.954569 
L 252.859876 -466.297675 
L 252.08423 -466.634243 
L 251.308584 -466.964335 
L 250.532937 -467.288014 
L 249.757291 -467.605344 
L 248.981645 -467.91639 
L 248.205998 -468.221217 
L 247.430352 -468.519892 
L 246.654705 -468.812483 
L 245.879059 -469.099058 
L 245.103413 -469.379686 
L 244.327766 -469.654436 
L 243.55212 -469.923378 
L 242.776474 -470.186584 
L 242.000827 -470.444124 
L 241.225181 -470.696071 
L 240.449535 -470.942497 
L 239.673888 -471.183474 
L 238.898242 -471.419077 
L 238.122595 -471.649377 
L 237.346949 -471.87445 
L 236.571303 -472.094368 
L 235.795656 -472.309208 
L 235.02001 -472.519042 
L 234.244364 -472.723945 
L 233.468717 -472.923993 
L 232.693071 -473.11926 
L 231.917424 -473.309821 
L 231.141778 -473.495751 
L 230.366132 -473.677124 
L 229.590485 -473.854015 
L 228.814839 -474.0265 
L 228.039193 -474.194651 
L 227.263546 -474.358545 
L 226.4879 -474.518254 
L 225.712253 -474.673852 
L 224.936607 -474.825413 
L 224.160961 -474.973011 
L 223.385314 -475.116718 
L 222.609668 -475.256607 
L 221.834022 -475.392749 
L 221.058375 -475.525217 
L 220.282729 -475.654082 
L 219.507082 -475.779415 
L 218.731436 -475.901285 
L 217.95579 -476.019763 
L 217.180143 -476.134918 
L 216.404497 -476.246818 
L 215.628851 -476.355531 
L 214.853204 -476.461125 
L 214.077558 -476.563667 
L 213.301911 -476.663222 
L 212.526265 -476.759856 
L 211.750619 -476.853634 
L 210.974972 -476.94462 
L 210.199326 -477.032877 
L 209.42368 -477.118467 
L 208.648033 -477.201452 
L 207.872387 -477.281894 
L 207.096741 -477.359852 
L 206.321094 -477.435386 
L 205.545448 -477.508555 
L 204.769801 -477.579416 
L 203.994155 -477.648026 
L 203.218509 -477.714441 
L 202.442862 -477.778717 
L 201.667216 -477.840908 
L 200.89157 -477.901067 
L 200.115923 -477.959248 
L 199.340277 -478.015501 
L 198.56463 -478.069879 
L 197.788984 -478.122431 
L 197.013338 -478.173206 
L 196.237691 -478.222253 
L 195.462045 -478.269619 
L 194.686399 -478.315351 
L 193.910752 -478.359494 
L 193.135106 -478.402094 
L 192.359459 -478.443193 
L 191.583813 -478.482836 
L 190.808167 -478.521064 
L 190.03252 -478.557919 
L 189.256874 -478.593442 
L 188.481228 -478.627671 
L 187.705581 -478.660646 
L 186.929935 -478.692404 
L 186.154288 -478.722983 
L 185.378642 -478.752419 
L 184.602996 -478.780747 
L 183.827349 -478.808001 
L 183.051703 -478.834217 
L 182.276057 -478.859426 
L 181.50041 -478.88366 
L 180.724764 -478.906952 
L 179.949117 -478.929331 
L 179.173471 -478.950828 
L 178.397825 -478.971471 
L 177.622178 -478.99129 
L 176.846532 -479.01031 
L 176.070886 -479.02856 
L 175.295239 -479.046065 
L 174.519593 -479.062851 
L 173.743947 -479.078942 
L 172.9683 -479.094362 
L 172.192654 -479.109136 
L 171.417007 -479.123284 
L 170.641361 -479.13683 
L 169.865715 -479.149795 
L 169.090068 -479.162199 
L 168.314422 -479.174062 
L 167.538776 -479.185405 
L 166.763129 -479.196245 
L 165.987483 -479.206601 
L 165.211836 -479.21649 
L 164.43619 -479.225931 
L 163.660544 -479.234938 
L 162.884897 -479.243529 
L 162.109251 -479.251718 
L 161.333605 -479.259521 
L 160.557958 -479.266951 
L 159.782312 -479.274023 
L 159.006665 -479.28075 
L 158.231019 -479.287143 
L 157.455373 -479.293217 
L 156.679726 -479.298982 
L 155.90408 -479.304449 
L 155.128434 -479.309629 
L 154.352787 -479.314533 
L 153.577141 -479.319169 
L 152.801494 -479.323547 
L 152.025848 -479.327675 
L 151.250202 -479.331562 
L 150.474555 -479.335214 
L 149.698909 -479.338638 
L 148.923263 -479.34184 
L 148.147616 -479.344827 
L 147.37197 -479.347601 
L 146.596323 -479.350167 
L 145.820677 -479.352529 
L 145.045031 -479.354687 
L 144.269384 -479.356642 
L 143.493738 -479.358394 
L 142.718092 -479.359941 
L 141.942445 -479.361278 
L 141.166799 -479.362401 
L 140.391153 -479.363299 
L 139.615506 -479.363963 
L 138.83986 -479.364376 
L 138.064213 -479.364519 
L 137.288567 -479.364366 
L 136.512921 -479.364136 
L 135.737274 -479.364475 
L 134.961628 -479.364473 
L 134.185982 -479.364088 
L 133.410335 -479.364304 
L 132.634689 -479.364519 
L 131.859042 -479.364282 
L 131.083396 -479.363916 
L 130.30775 -479.364448 
L 129.532103 -479.364444 
L 128.756457 -479.363794 
L 127.980811 -479.364151 
L 127.205164 -479.364519 
L 126.429518 -479.364085 
L 125.653871 -479.362601 
L 124.878225 -479.359682 
L 124.102579 -479.354697 
L 123.326932 -479.346568 
L 122.551286 -479.333327 
L 121.77564 -479.311105 
L 120.999993 -479.271538 
L 120.224347 -479.194192 
L 119.4487 -479.020353 
L 118.673054 -478.538634 
L 117.897408 -476.684687 
L 117.121761 -464.06096 
z
" style="stroke: #ffa500; stroke-opacity: 0.3"/>
    </defs>
    <g clip-path="url(#pbbfe8aff61)">
     <use xlink:href="#m64b5e1704c" x="0" y="540.100875" style="fill: #ffa500; fill-opacity: 0.3; stroke: #ffa500; stroke-opacity: 0.3"/>
    </g>
   </g>
   <g id="PolyCollection_2">
    <defs>
     <path id="mf3ce658588" d="M 117.121761 -239.741139 
L 117.121761 -192.659642 
L 117.897408 -222.273147 
L 118.673054 -246.464391 
L 119.4487 -266.434515 
L 120.224347 -283.071393 
L 120.999993 -297.041909 
L 121.77564 -308.854227 
L 122.551286 -318.90066 
L 123.326932 -327.487707 
L 124.102579 -334.857443 
L 124.878225 -341.202983 
L 125.653871 -346.679809 
L 126.429518 -351.414175 
L 127.205164 -355.509414 
L 127.980811 -359.050725 
L 128.756457 -362.108838 
L 129.532103 -364.74285 
L 130.30775 -367.002436 
L 131.083396 -368.929593 
L 131.859042 -370.129925 
L 132.634689 -368.393602 
L 133.410335 -366.505448 
L 134.185982 -364.484051 
L 134.961628 -362.345581 
L 135.737274 -360.104223 
L 136.512921 -357.772513 
L 137.288567 -355.361606 
L 138.064213 -352.881483 
L 138.83986 -350.341124 
L 139.615506 -347.748646 
L 140.391153 -345.111413 
L 141.166799 -342.436132 
L 141.942445 -339.728928 
L 142.718092 -336.99541 
L 143.493738 -334.240727 
L 144.269384 -331.469611 
L 145.045031 -328.686422 
L 145.820677 -325.895179 
L 146.596323 -323.099595 
L 147.37197 -320.303097 
L 148.147616 -317.508855 
L 148.923263 -314.719801 
L 149.698909 -311.938646 
L 150.474555 -309.167901 
L 151.250202 -306.409884 
L 152.025848 -303.666742 
L 152.801494 -300.940458 
L 153.577141 -298.232862 
L 154.352787 -295.545646 
L 155.128434 -292.880364 
L 155.90408 -290.238449 
L 156.679726 -287.621218 
L 157.455373 -285.029876 
L 158.231019 -282.465527 
L 159.006665 -279.929177 
L 159.782312 -277.421739 
L 160.557958 -274.944043 
L 161.333605 -272.496836 
L 162.109251 -270.080786 
L 162.884897 -267.696492 
L 163.660544 -265.344482 
L 164.43619 -263.02522 
L 165.211836 -260.739106 
L 165.987483 -258.486486 
L 166.763129 -256.267649 
L 167.538776 -254.08283 
L 168.314422 -251.932218 
L 169.090068 -249.815955 
L 169.865715 -247.734137 
L 170.641361 -245.686821 
L 171.417007 -243.674024 
L 172.192654 -241.695726 
L 172.9683 -239.751872 
L 173.743947 -237.842375 
L 174.519593 -235.967118 
L 175.295239 -234.125954 
L 176.070886 -232.318709 
L 176.846532 -230.545185 
L 177.622178 -228.80516 
L 178.397825 -227.098389 
L 179.173471 -225.424607 
L 179.949117 -223.783532 
L 180.724764 -222.174862 
L 181.50041 -220.598278 
L 182.276057 -219.053451 
L 183.051703 -217.540032 
L 183.827349 -216.057665 
L 184.602996 -214.605978 
L 185.378642 -213.184592 
L 186.154288 -211.793117 
L 186.929935 -210.431156 
L 187.705581 -209.098304 
L 188.481228 -207.794148 
L 189.256874 -206.518272 
L 190.03252 -205.270255 
L 190.808167 -204.049669 
L 191.583813 -202.856085 
L 192.359459 -201.689072 
L 193.135106 -200.548195 
L 193.910752 -199.433019 
L 194.686399 -198.343107 
L 195.462045 -197.278024 
L 196.237691 -196.237333 
L 197.013338 -195.220598 
L 197.788984 -194.227385 
L 198.56463 -193.257261 
L 199.340277 -192.309796 
L 200.115923 -191.384561 
L 200.89157 -190.48113 
L 201.667216 -189.599081 
L 202.442862 -188.737994 
L 203.218509 -187.897454 
L 203.994155 -187.077049 
L 204.769801 -186.27637 
L 205.545448 -185.495015 
L 206.321094 -184.732583 
L 207.096741 -183.988681 
L 207.872387 -183.262919 
L 208.648033 -182.554913 
L 209.42368 -181.864282 
L 210.199326 -181.190652 
L 210.974972 -180.533654 
L 211.750619 -179.892925 
L 212.526265 -179.268105 
L 213.301911 -178.658843 
L 214.077558 -178.064791 
L 214.853204 -177.485607 
L 215.628851 -176.920955 
L 216.404497 -176.370506 
L 217.180143 -175.833933 
L 217.95579 -175.310919 
L 218.731436 -174.80115 
L 219.507082 -174.304319 
L 220.282729 -173.820123 
L 221.058375 -173.348266 
L 221.834022 -172.888457 
L 222.609668 -172.440412 
L 223.385314 -172.00385 
L 224.160961 -171.578498 
L 224.936607 -171.164087 
L 225.712253 -170.760354 
L 226.4879 -170.36704 
L 227.263546 -169.983894 
L 228.039193 -169.610668 
L 228.814839 -169.247119 
L 229.590485 -168.893011 
L 230.366132 -168.548113 
L 231.141778 -168.212196 
L 231.917424 -167.885038 
L 232.693071 -167.566424 
L 233.468717 -167.25614 
L 234.244364 -166.953978 
L 235.02001 -166.659736 
L 235.795656 -166.373215 
L 236.571303 -166.09422 
L 237.346949 -165.822564 
L 238.122595 -165.558059 
L 238.898242 -165.300526 
L 239.673888 -165.049786 
L 240.449535 -164.805669 
L 241.225181 -164.568004 
L 242.000827 -164.336628 
L 242.776474 -164.111379 
L 243.55212 -163.892101 
L 244.327766 -163.67864 
L 245.103413 -163.470847 
L 245.879059 -163.268575 
L 246.654705 -163.071683 
L 247.430352 -162.880031 
L 248.205998 -162.693483 
L 248.981645 -162.511907 
L 249.757291 -162.335175 
L 250.532937 -162.163159 
L 251.308584 -161.995738 
L 252.08423 -161.832792 
L 252.859876 -161.674202 
L 253.635523 -161.519857 
L 254.411169 -161.369644 
L 255.186816 -161.223456 
L 255.962462 -161.081186 
L 256.738108 -160.942732 
L 257.513755 -160.807993 
L 258.289401 -160.676872 
L 259.065047 -160.549273 
L 259.840694 -160.425104 
L 260.61634 -160.304273 
L 261.391987 -160.186692 
L 262.167633 -160.072276 
L 262.943279 -159.96094 
L 263.718926 -159.852604 
L 264.494572 -159.747187 
L 265.270218 -159.644611 
L 266.045865 -159.544802 
L 266.821511 -159.447686 
L 267.597158 -159.35319 
L 268.372804 -159.261246 
L 269.14845 -159.171785 
L 269.924097 -159.084741 
L 270.699743 -159.00005 
L 271.475389 -158.917648 
L 272.251036 -158.837475 
L 273.026682 -158.75947 
L 273.802329 -158.683576 
L 274.577975 -158.609737 
L 275.353621 -158.537896 
L 276.129268 -158.468001 
L 276.904914 -158.4 
L 277.68056 -158.333841 
L 278.456207 -158.269475 
L 279.231853 -158.206855 
L 280.007499 -158.145932 
L 280.783146 -158.086662 
L 281.558792 -158.028999 
L 282.334439 -157.972901 
L 283.110085 -157.918326 
L 283.885731 -157.865232 
L 284.661378 -157.81358 
L 285.437024 -157.763331 
L 286.21267 -157.714446 
L 286.988317 -157.666889 
L 287.763963 -157.620625 
L 288.53961 -157.575618 
L 289.315256 -157.531834 
L 290.090902 -157.48924 
L 290.866549 -157.447805 
L 291.642195 -157.407496 
L 292.417841 -157.368284 
L 293.193488 -157.330138 
L 293.969134 -157.293031 
L 294.744781 -157.256932 
L 295.520427 -157.221817 
L 296.296073 -157.187657 
L 297.07172 -157.154426 
L 297.847366 -157.122101 
L 298.623012 -157.090655 
L 299.398659 -157.060066 
L 300.174305 -157.03031 
L 300.949952 -157.001365 
L 301.725598 -156.973208 
L 302.501244 -156.945817 
L 303.276891 -156.919174 
L 304.052537 -156.893256 
L 304.828183 -156.868044 
L 305.60383 -156.84352 
L 306.379476 -156.819664 
L 307.155122 -156.796458 
L 307.930769 -156.773885 
L 308.706415 -156.751927 
L 309.482062 -156.730568 
L 310.257708 -156.709792 
L 311.033354 -156.689582 
L 311.809001 -156.669923 
L 312.584647 -156.6508 
L 313.360293 -156.632199 
L 314.13594 -156.614105 
L 314.911586 -156.596505 
L 315.687233 -156.579385 
L 316.462879 -156.562732 
L 317.238525 -156.546533 
L 318.014172 -156.530777 
L 318.789818 -156.51545 
L 319.565464 -156.500542 
L 320.341111 -156.48604 
L 321.116757 -156.471934 
L 321.892404 -156.458214 
L 322.66805 -156.444868 
L 323.443696 -156.431886 
L 324.219343 -156.419258 
L 324.994989 -156.406975 
L 325.770635 -156.395028 
L 326.546282 -156.383406 
L 327.321928 -156.372102 
L 328.097575 -156.361107 
L 328.873221 -156.350412 
L 329.648867 -156.340009 
L 330.424514 -156.32989 
L 331.20016 -156.320047 
L 331.975806 -156.310473 
L 332.751453 -156.301161 
L 333.527099 -156.292103 
L 334.302746 -156.283292 
L 335.078392 -156.274722 
L 335.854038 -156.266386 
L 336.629685 -156.258278 
L 337.405331 -156.250391 
L 338.180977 -156.24272 
L 338.956624 -156.235258 
L 339.73227 -156.228 
L 340.507916 -156.22094 
L 341.283563 -156.214074 
L 342.059209 -156.207394 
L 342.834856 -156.200898 
L 343.610502 -156.194579 
L 344.386148 -156.188432 
L 345.161795 -156.182453 
L 345.937441 -156.176638 
L 346.713087 -156.170982 
L 347.488734 -156.16548 
L 348.26438 -156.160128 
L 349.040027 -156.154923 
L 349.815673 -156.14986 
L 350.591319 -156.144936 
L 351.366966 -156.140145 
L 352.142612 -156.135486 
L 352.918258 -156.130954 
L 353.693905 -156.126546 
L 354.469551 -156.122259 
L 355.245198 -156.118089 
L 356.020844 -156.114032 
L 356.79649 -156.110087 
L 357.572137 -156.106249 
L 358.347783 -156.102516 
L 359.123429 -156.098885 
L 359.899076 -156.095354 
L 360.674722 -156.091919 
L 361.450369 -156.088578 
L 362.226015 -156.085328 
L 363.001661 -156.082167 
L 363.777308 -156.079092 
L 364.552954 -156.076102 
L 365.3286 -156.073193 
L 366.104247 -156.070364 
L 366.879893 -156.067612 
L 367.65554 -156.064935 
L 368.431186 -156.062332 
L 369.206832 -156.059799 
L 369.982479 -156.057336 
L 370.758125 -156.05494 
L 371.533771 -156.05261 
L 372.309418 -156.050343 
L 373.085064 -156.048139 
L 373.86071 -156.045994 
L 374.636357 -156.043909 
L 375.412003 -156.04188 
L 376.18765 -156.039907 
L 376.963296 -156.037987 
L 377.738942 -156.03612 
L 378.514589 -156.034304 
L 379.290235 -156.032538 
L 380.065881 -156.03082 
L 380.841528 -156.029149 
L 381.617174 -156.027524 
L 382.392821 -156.025943 
L 383.168467 -156.024406 
L 383.944113 -156.02291 
L 384.71976 -156.021456 
L 385.495406 -156.020041 
L 386.271052 -156.018664 
L 387.046699 -156.017326 
L 387.822345 -156.016024 
L 388.597992 -156.014757 
L 389.373638 -156.013526 
L 390.149284 -156.012327 
L 390.924931 -156.011162 
L 391.700577 -156.010029 
L 392.476223 -156.008926 
L 393.25187 -156.007854 
L 394.027516 -156.006811 
L 394.803163 -156.005796 
L 395.578809 -156.004809 
L 396.354455 -156.00385 
L 397.130102 -156.002916 
L 397.905748 -156.002008 
L 398.681394 -156.001125 
L 399.457041 -156.000266 
L 400.232687 -155.99943 
L 401.008334 -155.998618 
L 401.78398 -155.997827 
L 402.559626 -155.997058 
L 403.335273 -155.99631 
L 404.110919 -155.995583 
L 404.886565 -155.994875 
L 405.662212 -155.994187 
L 406.437858 -155.993518 
L 407.213504 -155.992867 
L 407.989151 -155.992234 
L 408.764797 -155.991618 
L 409.540444 -155.991018 
L 410.31609 -155.990436 
L 411.091736 -155.989869 
L 411.867383 -155.989318 
L 412.643029 -155.988781 
L 413.418675 -155.98826 
L 414.194322 -155.987753 
L 414.969968 -155.987259 
L 415.745615 -155.986779 
L 416.521261 -155.986312 
L 417.296907 -155.985858 
L 418.072554 -155.985417 
L 418.8482 -155.984987 
L 419.623846 -155.984569 
L 420.399493 -155.984163 
L 421.175139 -155.983768 
L 421.950786 -155.983383 
L 422.726432 -155.983009 
L 423.502078 -155.982646 
L 424.277725 -155.982292 
L 425.053371 -155.981948 
L 425.829017 -155.981613 
L 426.604664 -155.981288 
L 427.38031 -155.980971 
L 428.155957 -155.980663 
L 428.931603 -155.980363 
L 429.707249 -155.980072 
L 430.482896 -155.979789 
L 431.258542 -155.979513 
L 432.034188 -155.979245 
L 432.809835 -155.978984 
L 433.585481 -155.97873 
L 434.361128 -155.978484 
L 435.136774 -155.978244 
L 435.91242 -155.97801 
L 436.688067 -155.977783 
L 437.463713 -155.977562 
L 438.239359 -155.977348 
L 439.015006 -155.977139 
L 439.790652 -155.976935 
L 440.566298 -155.976738 
L 441.341945 -155.976546 
L 442.117591 -155.976359 
L 442.893238 -155.976177 
L 443.668884 -155.976 
L 444.44453 -155.975828 
L 445.220177 -155.97566 
L 445.995823 -155.975498 
L 446.771469 -155.975339 
L 447.547116 -155.975185 
L 448.322762 -155.975036 
L 449.098409 -155.97489 
L 449.874055 -155.974748 
L 450.649701 -155.97461 
L 451.425348 -155.974476 
L 452.200994 -155.974346 
L 452.97664 -155.974219 
L 453.752287 -155.974096 
L 454.527933 -155.973976 
L 455.30358 -155.973859 
L 456.079226 -155.973745 
L 456.854872 -155.973635 
L 457.630519 -155.973528 
L 458.406165 -155.973423 
L 459.181811 -155.973322 
L 459.957458 -155.973223 
L 460.733104 -155.973127 
L 461.508751 -155.973033 
L 462.284397 -155.972942 
L 463.060043 -155.972854 
L 463.83569 -155.972768 
L 464.611336 -155.972684 
L 465.386982 -155.972603 
L 466.162629 -155.972524 
L 466.938275 -155.972447 
L 467.713921 -155.972372 
L 468.489568 -155.972299 
L 469.265214 -155.972228 
L 470.040861 -155.972159 
L 470.816507 -155.972092 
L 471.592153 -155.972027 
L 472.3678 -155.971963 
L 473.143446 -155.971902 
L 473.919092 -155.971842 
L 474.694739 -155.971783 
L 475.470385 -155.971727 
L 476.246032 -155.971671 
L 477.021678 -155.971618 
L 477.797324 -155.971565 
L 478.572971 -155.971515 
L 479.348617 -155.971465 
L 480.124263 -155.971417 
L 480.89991 -155.97137 
L 481.675556 -155.971325 
L 482.451203 -155.971281 
L 483.226849 -155.971238 
L 484.002495 -155.971196 
L 484.778142 -155.971155 
L 485.553788 -155.971116 
L 486.329434 -155.971077 
L 487.105081 -155.97104 
L 487.880727 -155.971003 
L 488.656374 -155.970968 
L 489.43202 -155.970933 
L 490.207666 -155.9709 
L 490.983313 -155.970867 
L 491.758959 -155.970836 
L 492.534605 -155.970805 
L 493.310252 -155.970775 
L 494.085898 -155.970746 
L 494.861545 -155.970717 
L 495.637191 -155.97069 
L 496.412837 -155.970663 
L 497.188484 -155.970637 
L 497.96413 -155.970611 
L 498.739776 -155.970587 
L 499.515423 -155.970562 
L 500.291069 -155.970539 
L 501.066715 -155.970516 
L 501.842362 -155.970494 
L 502.618008 -155.970473 
L 503.393655 -155.970452 
L 504.169301 -155.970431 
L 504.944947 -155.970412 
L 505.720594 -155.970392 
L 506.49624 -155.970374 
L 507.271886 -155.970356 
L 508.047533 -155.970338 
L 508.823179 -155.970321 
L 509.598826 -155.970304 
L 510.374472 -155.970288 
L 511.150118 -155.970272 
L 511.925765 -155.970256 
L 512.701411 -155.970241 
L 513.477057 -155.970227 
L 514.252704 -155.970212 
L 515.02835 -155.970199 
L 515.803997 -155.970185 
L 516.579643 -155.970172 
L 517.355289 -155.970159 
L 518.130936 -155.970147 
L 518.906582 -155.970135 
L 519.682228 -155.970123 
L 520.457875 -155.970112 
L 521.233521 -155.970101 
L 522.009168 -155.97009 
L 522.784814 -155.97008 
L 523.56046 -155.97007 
L 524.336107 -155.97006 
L 525.111753 -155.97005 
L 525.887399 -155.970041 
L 526.663046 -155.970032 
L 527.438692 -155.970023 
L 528.214339 -155.970014 
L 528.989985 -155.970006 
L 529.765631 -155.969998 
L 530.541278 -155.96999 
L 531.316924 -155.969982 
L 532.09257 -155.969974 
L 532.868217 -155.969967 
L 533.643863 -155.96996 
L 534.419509 -155.969953 
L 535.195156 -155.969946 
L 535.970802 -155.96994 
L 536.746449 -155.969934 
L 537.522095 -155.969927 
L 538.297741 -155.969921 
L 539.073388 -155.969916 
L 539.849034 -155.96991 
L 540.62468 -155.969904 
L 541.400327 -155.969899 
L 542.175973 -155.969894 
L 542.95162 -155.969889 
L 543.727266 -155.969884 
L 544.502912 -155.969879 
L 545.278559 -155.969874 
L 546.054205 -155.96987 
L 546.829851 -155.969865 
L 547.605498 -155.969861 
L 548.381144 -155.969857 
L 549.156791 -155.969853 
L 549.932437 -155.969849 
L 550.708083 -155.969845 
L 551.48373 -155.969841 
L 552.259376 -155.969837 
L 553.035022 -155.969834 
L 553.810669 -155.96983 
L 554.586315 -155.969827 
L 555.361962 -155.969824 
L 556.137608 -155.969821 
L 556.913254 -155.969818 
L 557.688901 -155.969815 
L 558.464547 -155.969812 
L 559.240193 -155.969809 
L 560.01584 -155.969806 
L 560.791486 -155.969803 
L 561.567133 -155.969801 
L 562.342779 -155.969798 
L 563.118425 -155.969796 
L 563.894072 -155.969793 
L 564.669718 -155.969791 
L 565.445364 -155.969789 
L 566.221011 -155.969786 
L 566.996657 -155.969784 
L 567.772303 -155.969782 
L 568.54795 -155.96978 
L 569.323596 -155.969778 
L 570.099243 -155.969776 
L 570.874889 -155.969774 
L 571.650535 -155.969773 
L 572.426182 -155.969771 
L 573.201828 -155.969769 
L 573.977474 -155.969767 
L 574.753121 -155.969766 
L 575.528767 -155.969764 
L 576.304414 -155.969763 
L 577.08006 -155.969761 
L 577.855706 -155.96976 
L 578.631353 -155.969758 
L 579.406999 -155.969757 
L 580.182645 -155.969756 
L 580.958292 -155.969754 
L 581.733938 -155.969753 
L 582.509585 -155.969752 
L 583.285231 -155.969751 
L 584.060877 -155.969749 
L 584.836524 -155.969748 
L 585.61217 -155.969747 
L 586.387816 -155.969746 
L 587.163463 -155.969745 
L 587.939109 -155.969744 
L 588.714756 -155.969743 
L 589.490402 -155.969742 
L 590.266048 -155.969741 
L 591.041695 -155.96974 
L 591.817341 -155.969739 
L 592.592987 -155.969738 
L 593.368634 -155.969738 
L 594.14428 -155.969737 
L 594.919927 -155.969736 
L 595.695573 -155.969735 
L 596.471219 -155.969734 
L 597.246866 -155.969734 
L 598.022512 -155.969733 
L 598.798158 -155.969732 
L 599.573805 -155.969732 
L 600.349451 -155.969731 
L 601.125097 -155.96973 
L 601.900744 -155.96973 
L 602.67639 -155.969729 
L 603.452037 -155.969729 
L 604.227683 -155.969728 
L 605.003329 -155.969727 
L 605.778976 -155.969727 
L 606.554622 -155.969726 
L 607.330268 -155.969726 
L 608.105915 -155.969725 
L 608.881561 -155.969725 
L 609.657208 -155.969724 
L 610.432854 -155.969724 
L 611.2085 -155.969724 
L 611.984147 -155.969723 
L 612.759793 -155.969723 
L 613.535439 -155.969722 
L 614.311086 -155.969722 
L 615.086732 -155.969721 
L 615.862379 -155.969721 
L 616.638025 -155.969721 
L 617.413671 -155.96972 
L 618.189318 -155.96972 
L 618.964964 -155.96972 
L 619.74061 -155.969719 
L 620.516257 -155.969719 
L 621.291903 -155.969719 
L 622.06755 -155.969718 
L 622.843196 -155.969718 
L 623.618842 -155.969718 
L 624.394489 -155.969718 
L 624.394489 -156.835951 
L 624.394489 -156.835951 
L 623.618842 -156.844682 
L 622.843196 -156.853501 
L 622.06755 -156.862409 
L 621.291903 -156.871407 
L 620.516257 -156.880495 
L 619.74061 -156.889674 
L 618.964964 -156.898946 
L 618.189318 -156.908311 
L 617.413671 -156.917771 
L 616.638025 -156.927325 
L 615.862379 -156.936976 
L 615.086732 -156.946724 
L 614.311086 -156.956569 
L 613.535439 -156.966514 
L 612.759793 -156.976559 
L 611.984147 -156.986705 
L 611.2085 -156.996953 
L 610.432854 -157.007304 
L 609.657208 -157.017759 
L 608.881561 -157.028319 
L 608.105915 -157.038985 
L 607.330268 -157.049759 
L 606.554622 -157.060641 
L 605.778976 -157.071632 
L 605.003329 -157.082734 
L 604.227683 -157.093947 
L 603.452037 -157.105274 
L 602.67639 -157.116714 
L 601.900744 -157.128269 
L 601.125097 -157.13994 
L 600.349451 -157.151728 
L 599.573805 -157.163635 
L 598.798158 -157.175662 
L 598.022512 -157.18781 
L 597.246866 -157.200079 
L 596.471219 -157.212472 
L 595.695573 -157.22499 
L 594.919927 -157.237633 
L 594.14428 -157.250403 
L 593.368634 -157.263302 
L 592.592987 -157.27633 
L 591.817341 -157.289489 
L 591.041695 -157.30278 
L 590.266048 -157.316205 
L 589.490402 -157.329764 
L 588.714756 -157.34346 
L 587.939109 -157.357293 
L 587.163463 -157.371265 
L 586.387816 -157.385378 
L 585.61217 -157.399632 
L 584.836524 -157.41403 
L 584.060877 -157.428571 
L 583.285231 -157.443259 
L 582.509585 -157.458095 
L 581.733938 -157.473079 
L 580.958292 -157.488214 
L 580.182645 -157.503501 
L 579.406999 -157.518941 
L 578.631353 -157.534536 
L 577.855706 -157.550287 
L 577.08006 -157.566197 
L 576.304414 -157.582266 
L 575.528767 -157.598497 
L 574.753121 -157.61489 
L 573.977474 -157.631448 
L 573.201828 -157.648172 
L 572.426182 -157.665064 
L 571.650535 -157.682125 
L 570.874889 -157.699358 
L 570.099243 -157.716763 
L 569.323596 -157.734343 
L 568.54795 -157.752099 
L 567.772303 -157.770033 
L 566.996657 -157.788147 
L 566.221011 -157.806442 
L 565.445364 -157.824921 
L 564.669718 -157.843585 
L 563.894072 -157.862437 
L 563.118425 -157.881477 
L 562.342779 -157.900708 
L 561.567133 -157.920132 
L 560.791486 -157.93975 
L 560.01584 -157.959565 
L 559.240193 -157.979579 
L 558.464547 -157.999793 
L 557.688901 -158.02021 
L 556.913254 -158.040831 
L 556.137608 -158.061658 
L 555.361962 -158.082695 
L 554.586315 -158.103942 
L 553.810669 -158.125401 
L 553.035022 -158.147076 
L 552.259376 -158.168968 
L 551.48373 -158.191079 
L 550.708083 -158.213411 
L 549.932437 -158.235966 
L 549.156791 -158.258748 
L 548.381144 -158.281757 
L 547.605498 -158.304997 
L 546.829851 -158.328469 
L 546.054205 -158.352176 
L 545.278559 -158.376121 
L 544.502912 -158.400305 
L 543.727266 -158.42473 
L 542.95162 -158.4494 
L 542.175973 -158.474317 
L 541.400327 -158.499483 
L 540.62468 -158.524901 
L 539.849034 -158.550572 
L 539.073388 -158.576501 
L 538.297741 -158.602688 
L 537.522095 -158.629137 
L 536.746449 -158.655851 
L 535.970802 -158.682831 
L 535.195156 -158.710081 
L 534.419509 -158.737604 
L 533.643863 -158.765401 
L 532.868217 -158.793476 
L 532.09257 -158.821831 
L 531.316924 -158.85047 
L 530.541278 -158.879394 
L 529.765631 -158.908608 
L 528.989985 -158.938112 
L 528.214339 -158.967912 
L 527.438692 -158.998009 
L 526.663046 -159.028406 
L 525.887399 -159.059106 
L 525.111753 -159.090113 
L 524.336107 -159.121429 
L 523.56046 -159.153058 
L 522.784814 -159.185002 
L 522.009168 -159.217264 
L 521.233521 -159.249848 
L 520.457875 -159.282758 
L 519.682228 -159.315995 
L 518.906582 -159.349563 
L 518.130936 -159.383466 
L 517.355289 -159.417707 
L 516.579643 -159.452289 
L 515.803997 -159.487215 
L 515.02835 -159.52249 
L 514.252704 -159.558115 
L 513.477057 -159.594096 
L 512.701411 -159.630434 
L 511.925765 -159.667135 
L 511.150118 -159.7042 
L 510.374472 -159.741635 
L 509.598826 -159.779442 
L 508.823179 -159.817625 
L 508.047533 -159.856188 
L 507.271886 -159.895135 
L 506.49624 -159.934469 
L 505.720594 -159.974194 
L 504.944947 -160.014314 
L 504.169301 -160.054833 
L 503.393655 -160.095755 
L 502.618008 -160.137083 
L 501.842362 -160.178822 
L 501.066715 -160.220975 
L 500.291069 -160.263547 
L 499.515423 -160.306542 
L 498.739776 -160.349964 
L 497.96413 -160.393817 
L 497.188484 -160.438105 
L 496.412837 -160.482833 
L 495.637191 -160.528004 
L 494.861545 -160.573624 
L 494.085898 -160.619696 
L 493.310252 -160.666224 
L 492.534605 -160.713215 
L 491.758959 -160.760671 
L 490.983313 -160.808597 
L 490.207666 -160.856999 
L 489.43202 -160.90588 
L 488.656374 -160.955245 
L 487.880727 -161.005099 
L 487.105081 -161.055446 
L 486.329434 -161.106292 
L 485.553788 -161.157642 
L 484.778142 -161.209499 
L 484.002495 -161.26187 
L 483.226849 -161.314758 
L 482.451203 -161.36817 
L 481.675556 -161.42211 
L 480.89991 -161.476583 
L 480.124263 -161.531594 
L 479.348617 -161.587149 
L 478.572971 -161.643253 
L 477.797324 -161.699911 
L 477.021678 -161.757129 
L 476.246032 -161.814911 
L 475.470385 -161.873264 
L 474.694739 -161.932193 
L 473.919092 -161.991702 
L 473.143446 -162.051799 
L 472.3678 -162.112489 
L 471.592153 -162.173777 
L 470.816507 -162.235669 
L 470.040861 -162.298171 
L 469.265214 -162.361288 
L 468.489568 -162.425027 
L 467.713921 -162.489394 
L 466.938275 -162.554395 
L 466.162629 -162.620035 
L 465.386982 -162.686321 
L 464.611336 -162.753259 
L 463.83569 -162.820855 
L 463.060043 -162.889116 
L 462.284397 -162.958048 
L 461.508751 -163.027657 
L 460.733104 -163.09795 
L 459.957458 -163.168933 
L 459.181811 -163.240613 
L 458.406165 -163.312997 
L 457.630519 -163.386091 
L 456.854872 -163.459902 
L 456.079226 -163.534436 
L 455.30358 -163.609702 
L 454.527933 -163.685705 
L 453.752287 -163.762452 
L 452.97664 -163.839952 
L 452.200994 -163.91821 
L 451.425348 -163.997234 
L 450.649701 -164.077031 
L 449.874055 -164.157609 
L 449.098409 -164.238975 
L 448.322762 -164.321137 
L 447.547116 -164.404101 
L 446.771469 -164.487876 
L 445.995823 -164.572469 
L 445.220177 -164.657888 
L 444.44453 -164.744141 
L 443.668884 -164.831235 
L 442.893238 -164.919178 
L 442.117591 -165.007979 
L 441.341945 -165.097645 
L 440.566298 -165.188185 
L 439.790652 -165.279607 
L 439.015006 -165.371918 
L 438.239359 -165.465128 
L 437.463713 -165.559245 
L 436.688067 -165.654277 
L 435.91242 -165.750232 
L 435.136774 -165.84712 
L 434.361128 -165.944949 
L 433.585481 -166.043728 
L 432.809835 -166.143465 
L 432.034188 -166.24417 
L 431.258542 -166.345852 
L 430.482896 -166.448519 
L 429.707249 -166.552181 
L 428.931603 -166.656847 
L 428.155957 -166.762527 
L 427.38031 -166.869229 
L 426.604664 -166.976963 
L 425.829017 -167.085738 
L 425.053371 -167.195565 
L 424.277725 -167.306453 
L 423.502078 -167.418411 
L 422.726432 -167.53145 
L 421.950786 -167.64558 
L 421.175139 -167.760809 
L 420.399493 -167.87715 
L 419.623846 -167.994611 
L 418.8482 -168.113203 
L 418.072554 -168.232936 
L 417.296907 -168.353821 
L 416.521261 -168.475868 
L 415.745615 -168.599089 
L 414.969968 -168.723492 
L 414.194322 -168.84909 
L 413.418675 -168.975892 
L 412.643029 -169.103911 
L 411.867383 -169.233157 
L 411.091736 -169.363641 
L 410.31609 -169.495374 
L 409.540444 -169.628368 
L 408.764797 -169.762633 
L 407.989151 -169.898182 
L 407.213504 -170.035026 
L 406.437858 -170.173177 
L 405.662212 -170.312645 
L 404.886565 -170.453444 
L 404.110919 -170.595585 
L 403.335273 -170.739079 
L 402.559626 -170.88394 
L 401.78398 -171.030179 
L 401.008334 -171.177808 
L 400.232687 -171.32684 
L 399.457041 -171.477288 
L 398.681394 -171.629163 
L 397.905748 -171.782478 
L 397.130102 -171.937247 
L 396.354455 -172.093482 
L 395.578809 -172.251196 
L 394.803163 -172.410401 
L 394.027516 -172.571112 
L 393.25187 -172.733341 
L 392.476223 -172.897101 
L 391.700577 -173.062406 
L 390.924931 -173.229269 
L 390.149284 -173.397705 
L 389.373638 -173.567726 
L 388.597992 -173.739346 
L 387.822345 -173.91258 
L 387.046699 -174.087441 
L 386.271052 -174.263943 
L 385.495406 -174.442101 
L 384.71976 -174.621928 
L 383.944113 -174.803439 
L 383.168467 -174.986649 
L 382.392821 -175.171572 
L 381.617174 -175.358223 
L 380.841528 -175.546616 
L 380.065881 -175.736766 
L 379.290235 -175.928688 
L 378.514589 -176.122398 
L 377.738942 -176.31791 
L 376.963296 -176.51524 
L 376.18765 -176.714403 
L 375.412003 -176.915414 
L 374.636357 -177.118289 
L 373.86071 -177.323043 
L 373.085064 -177.529693 
L 372.309418 -177.738253 
L 371.533771 -177.948741 
L 370.758125 -178.161172 
L 369.982479 -178.375562 
L 369.206832 -178.591927 
L 368.431186 -178.810284 
L 367.65554 -179.030648 
L 366.879893 -179.253038 
L 366.104247 -179.477468 
L 365.3286 -179.703956 
L 364.552954 -179.932519 
L 363.777308 -180.163174 
L 363.001661 -180.395936 
L 362.226015 -180.630825 
L 361.450369 -180.867856 
L 360.674722 -181.107047 
L 359.899076 -181.348415 
L 359.123429 -181.591978 
L 358.347783 -181.837753 
L 357.572137 -182.085758 
L 356.79649 -182.336011 
L 356.020844 -182.588529 
L 355.245198 -182.843331 
L 354.469551 -183.100434 
L 353.693905 -183.359857 
L 352.918258 -183.621617 
L 352.142612 -183.885733 
L 351.366966 -184.152223 
L 350.591319 -184.421106 
L 349.815673 -184.6924 
L 349.040027 -184.966123 
L 348.26438 -185.242295 
L 347.488734 -185.520935 
L 346.713087 -185.80206 
L 345.937441 -186.085691 
L 345.161795 -186.371845 
L 344.386148 -186.660542 
L 343.610502 -186.951802 
L 342.834856 -187.245643 
L 342.059209 -187.542085 
L 341.283563 -187.841147 
L 340.507916 -188.142848 
L 339.73227 -188.447209 
L 338.956624 -188.754249 
L 338.180977 -189.063986 
L 337.405331 -189.376442 
L 336.629685 -189.691636 
L 335.854038 -190.009588 
L 335.078392 -190.330317 
L 334.302746 -190.653844 
L 333.527099 -190.980189 
L 332.751453 -191.309372 
L 331.975806 -191.641413 
L 331.20016 -191.976331 
L 330.424514 -192.314149 
L 329.648867 -192.654885 
L 328.873221 -192.99856 
L 328.097575 -193.345194 
L 327.321928 -193.694809 
L 326.546282 -194.047424 
L 325.770635 -194.40306 
L 324.994989 -194.761737 
L 324.219343 -195.123477 
L 323.443696 -195.488299 
L 322.66805 -195.856224 
L 321.892404 -196.227274 
L 321.116757 -196.601468 
L 320.341111 -196.978828 
L 319.565464 -197.359374 
L 318.789818 -197.743128 
L 318.014172 -198.130108 
L 317.238525 -198.520338 
L 316.462879 -198.913837 
L 315.687233 -199.310625 
L 314.911586 -199.710725 
L 314.13594 -200.114157 
L 313.360293 -200.520941 
L 312.584647 -200.931098 
L 311.809001 -201.34465 
L 311.033354 -201.761616 
L 310.257708 -202.182018 
L 309.482062 -202.605876 
L 308.706415 -203.033211 
L 307.930769 -203.464044 
L 307.155122 -203.898395 
L 306.379476 -204.336285 
L 305.60383 -204.777734 
L 304.828183 -205.222763 
L 304.052537 -205.671393 
L 303.276891 -206.123643 
L 302.501244 -206.579534 
L 301.725598 -207.039087 
L 300.949952 -207.502321 
L 300.174305 -207.969258 
L 299.398659 -208.439915 
L 298.623012 -208.914315 
L 297.847366 -209.392477 
L 297.07172 -209.87442 
L 296.296073 -210.360164 
L 295.520427 -210.849729 
L 294.744781 -211.343135 
L 293.969134 -211.8404 
L 293.193488 -212.341544 
L 292.417841 -212.846587 
L 291.642195 -213.355547 
L 290.866549 -213.868443 
L 290.090902 -214.385294 
L 289.315256 -214.906119 
L 288.53961 -215.430936 
L 287.763963 -215.959763 
L 286.988317 -216.492619 
L 286.21267 -217.029522 
L 285.437024 -217.570489 
L 284.661378 -218.115538 
L 283.885731 -218.664687 
L 283.110085 -219.217952 
L 282.334439 -219.775352 
L 281.558792 -220.336902 
L 280.783146 -220.90262 
L 280.007499 -221.472522 
L 279.231853 -222.046624 
L 278.456207 -222.624943 
L 277.68056 -223.207493 
L 276.904914 -223.794291 
L 276.129268 -224.385351 
L 275.353621 -224.98069 
L 274.577975 -225.58032 
L 273.802329 -226.184258 
L 273.026682 -226.792517 
L 272.251036 -227.405111 
L 271.475389 -228.022053 
L 270.699743 -228.643357 
L 269.924097 -229.269037 
L 269.14845 -229.899103 
L 268.372804 -230.53357 
L 267.597158 -231.172449 
L 266.821511 -231.815751 
L 266.045865 -232.463487 
L 265.270218 -233.11567 
L 264.494572 -233.772309 
L 263.718926 -234.433414 
L 262.943279 -235.098996 
L 262.167633 -235.769063 
L 261.391987 -236.443625 
L 260.61634 -237.12269 
L 259.840694 -237.806267 
L 259.065047 -238.494363 
L 258.289401 -239.186985 
L 257.513755 -239.884141 
L 256.738108 -240.585836 
L 255.962462 -241.292077 
L 255.186816 -242.002869 
L 254.411169 -242.718217 
L 253.635523 -243.438125 
L 252.859876 -244.162598 
L 252.08423 -244.891639 
L 251.308584 -245.625251 
L 250.532937 -246.363435 
L 249.757291 -247.106195 
L 248.981645 -247.853531 
L 248.205998 -248.605444 
L 247.430352 -249.361934 
L 246.654705 -250.123001 
L 245.879059 -250.888644 
L 245.103413 -251.65886 
L 244.327766 -252.433648 
L 243.55212 -253.213006 
L 242.776474 -253.996928 
L 242.000827 -254.785412 
L 241.225181 -255.578453 
L 240.449535 -256.376044 
L 239.673888 -257.17818 
L 238.898242 -257.984854 
L 238.122595 -258.796059 
L 237.346949 -259.611786 
L 236.571303 -260.432026 
L 235.795656 -261.256769 
L 235.02001 -262.086006 
L 234.244364 -262.919725 
L 233.468717 -263.757913 
L 232.693071 -264.600559 
L 231.917424 -265.447648 
L 231.141778 -266.299166 
L 230.366132 -267.155099 
L 229.590485 -268.01543 
L 228.814839 -268.880143 
L 228.039193 -269.749219 
L 227.263546 -270.62264 
L 226.4879 -271.500388 
L 225.712253 -272.382441 
L 224.936607 -273.268778 
L 224.160961 -274.159378 
L 223.385314 -275.054217 
L 222.609668 -275.953271 
L 221.834022 -276.856516 
L 221.058375 -277.763926 
L 220.282729 -278.675473 
L 219.507082 -279.59113 
L 218.731436 -280.510868 
L 217.95579 -281.434657 
L 217.180143 -282.362466 
L 216.404497 -283.294263 
L 215.628851 -284.230014 
L 214.853204 -285.169686 
L 214.077558 -286.113243 
L 213.301911 -287.060649 
L 212.526265 -288.011865 
L 211.750619 -288.966853 
L 210.974972 -289.925573 
L 210.199326 -290.887982 
L 209.42368 -291.85404 
L 208.648033 -292.8237 
L 207.872387 -293.796918 
L 207.096741 -294.773648 
L 206.321094 -295.75384 
L 205.545448 -296.737446 
L 204.769801 -297.724414 
L 203.994155 -298.714691 
L 203.218509 -299.708223 
L 202.442862 -300.704955 
L 201.667216 -301.704828 
L 200.89157 -302.707784 
L 200.115923 -303.71376 
L 199.340277 -304.722695 
L 198.56463 -305.734523 
L 197.788984 -306.749176 
L 197.013338 -307.766587 
L 196.237691 -308.786683 
L 195.462045 -309.809392 
L 194.686399 -310.834636 
L 193.910752 -311.862338 
L 193.135106 -312.892417 
L 192.359459 -313.924789 
L 191.583813 -314.959367 
L 190.808167 -315.996062 
L 190.03252 -317.03478 
L 189.256874 -318.075426 
L 188.481228 -319.1179 
L 187.705581 -320.162099 
L 186.929935 -321.207916 
L 186.154288 -322.255238 
L 185.378642 -323.303951 
L 184.602996 -324.353934 
L 183.827349 -325.405061 
L 183.051703 -326.457203 
L 182.276057 -327.510222 
L 181.50041 -328.563977 
L 180.724764 -329.618319 
L 179.949117 -330.673094 
L 179.173471 -331.728139 
L 178.397825 -332.783284 
L 177.622178 -333.83835 
L 176.846532 -334.893153 
L 176.070886 -335.947494 
L 175.295239 -337.001168 
L 174.519593 -338.053959 
L 173.743947 -339.105638 
L 172.9683 -340.155964 
L 172.192654 -341.204684 
L 171.417007 -342.251529 
L 170.641361 -343.296218 
L 169.865715 -344.33845 
L 169.090068 -345.377908 
L 168.314422 -346.414258 
L 167.538776 -347.447142 
L 166.763129 -348.476183 
L 165.987483 -349.50098 
L 165.211836 -350.521105 
L 164.43619 -351.536105 
L 163.660544 -352.545495 
L 162.884897 -353.548761 
L 162.109251 -354.545351 
L 161.333605 -355.534679 
L 160.557958 -356.516116 
L 159.782312 -357.488991 
L 159.006665 -358.452585 
L 158.231019 -359.406127 
L 157.455373 -360.34879 
L 156.679726 -361.279688 
L 155.90408 -362.197867 
L 155.128434 -363.102301 
L 154.352787 -363.991885 
L 153.577141 -364.865429 
L 152.801494 -365.721647 
L 152.025848 -366.559151 
L 151.250202 -367.37644 
L 150.474555 -368.171885 
L 149.698909 -368.943723 
L 148.923263 -369.690037 
L 148.147616 -370.408742 
L 147.37197 -371.097566 
L 146.596323 -371.75403 
L 145.820677 -372.375423 
L 145.045031 -372.958776 
L 144.269384 -373.50083 
L 143.493738 -373.997999 
L 142.718092 -374.446331 
L 141.942445 -374.841459 
L 141.166799 -375.178542 
L 140.391153 -375.452204 
L 139.615506 -375.656455 
L 138.83986 -375.784601 
L 138.064213 -375.829136 
L 137.288567 -375.781616 
L 136.512921 -375.709982 
L 135.737274 -375.815389 
L 134.961628 -375.814845 
L 134.185982 -375.69526 
L 133.410335 -375.762205 
L 132.634689 -375.829136 
L 131.859042 -375.7555 
L 131.083396 -375.641866 
L 130.30775 -375.807078 
L 129.532103 -375.805693 
L 128.756457 -375.604298 
L 127.980811 -375.71461 
L 127.205164 -375.829136 
L 126.429518 -375.694237 
L 125.653871 -375.239344 
L 124.878225 -374.370672 
L 124.102579 -372.961704 
L 123.326932 -370.838644 
L 122.551286 -367.757471 
L 121.77564 -363.366471 
L 120.999993 -357.142554 
L 120.224347 -348.277992 
L 119.4487 -335.467991 
L 118.673054 -316.486249 
L 117.897408 -287.269176 
L 117.121761 -239.741139 
z
" style="stroke: #1f77b4; stroke-opacity: 0.3"/>
    </defs>
    <g clip-path="url(#pbbfe8aff61)">
     <use xlink:href="#mf3ce658588" x="0" y="540.100875" style="fill: #1f77b4; fill-opacity: 0.3; stroke: #1f77b4; stroke-opacity: 0.3"/>
    </g>
   </g>
   <g id="matplotlib.axis_1">
    <g id="xtick_1">
     <g id="line2d_1">
      <defs>
       <path id="m3204e1e6a7" d="M 0 0 
L 0 3.5 
" style="stroke: #000000; stroke-width: 0.8"/>
      </defs>
      <g>
       <use xlink:href="#m3204e1e6a7" x="116.346115" y="416.476875" style="stroke: #000000; stroke-width: 0.8"/>
      </g>
     </g>
     <g id="text_1">
      <!-- 0 -->
      <g transform="translate(109.983615 438.67375)scale(0.2 -0.2)">
       <defs>
        <path id="DejaVuSans-30" d="M 2034 4250 
Q 1547 4250 1301 3770 
Q 1056 3291 1056 2328 
Q 1056 1369 1301 889 
Q 1547 409 2034 409 
Q 2525 409 2770 889 
Q 3016 1369 3016 2328 
Q 3016 3291 2770 3770 
Q 2525 4250 2034 4250 
z
M 2034 4750 
Q 2819 4750 3233 4129 
Q 3647 3509 3647 2328 
Q 3647 1150 3233 529 
Q 2819 -91 2034 -91 
Q 1250 -91 836 529 
Q 422 1150 422 2328 
Q 422 3509 836 4129 
Q 1250 4750 2034 4750 
z
" transform="scale(0.015625)"/>
       </defs>
       <use xlink:href="#DejaVuSans-30"/>
      </g>
     </g>
    </g>
    <g id="xtick_2">
     <g id="line2d_2">
      <g>
       <use xlink:href="#m3204e1e6a7" x="193.910752" y="416.476875" style="stroke: #000000; stroke-width: 0.8"/>
      </g>
     </g>
     <g id="text_2">
      <!-- 100 -->
      <g transform="translate(174.823252 438.67375)scale(0.2 -0.2)">
       <defs>
        <path id="DejaVuSans-31" d="M 794 531 
L 1825 531 
L 1825 4091 
L 703 3866 
L 703 4441 
L 1819 4666 
L 2450 4666 
L 2450 531 
L 3481 531 
L 3481 0 
L 794 0 
L 794 531 
z
" transform="scale(0.015625)"/>
       </defs>
       <use xlink:href="#DejaVuSans-31"/>
       <use xlink:href="#DejaVuSans-30" x="63.623047"/>
       <use xlink:href="#DejaVuSans-30" x="127.246094"/>
      </g>
     </g>
    </g>
    <g id="xtick_3">
     <g id="line2d_3">
      <g>
       <use xlink:href="#m3204e1e6a7" x="271.475389" y="416.476875" style="stroke: #000000; stroke-width: 0.8"/>
      </g>
     </g>
     <g id="text_3">
      <!-- 200 -->
      <g transform="translate(252.387889 438.67375)scale(0.2 -0.2)">
       <defs>
        <path id="DejaVuSans-32" d="M 1228 531 
L 3431 531 
L 3431 0 
L 469 0 
L 469 531 
Q 828 903 1448 1529 
Q 2069 2156 2228 2338 
Q 2531 2678 2651 2914 
Q 2772 3150 2772 3378 
Q 2772 3750 2511 3984 
Q 2250 4219 1831 4219 
Q 1534 4219 1204 4116 
Q 875 4013 500 3803 
L 500 4441 
Q 881 4594 1212 4672 
Q 1544 4750 1819 4750 
Q 2544 4750 2975 4387 
Q 3406 4025 3406 3419 
Q 3406 3131 3298 2873 
Q 3191 2616 2906 2266 
Q 2828 2175 2409 1742 
Q 1991 1309 1228 531 
z
" transform="scale(0.015625)"/>
       </defs>
       <use xlink:href="#DejaVuSans-32"/>
       <use xlink:href="#DejaVuSans-30" x="63.623047"/>
       <use xlink:href="#DejaVuSans-30" x="127.246094"/>
      </g>
     </g>
    </g>
    <g id="xtick_4">
     <g id="line2d_4">
      <g>
       <use xlink:href="#m3204e1e6a7" x="349.040027" y="416.476875" style="stroke: #000000; stroke-width: 0.8"/>
      </g>
     </g>
     <g id="text_4">
      <!-- 300 -->
      <g transform="translate(329.952527 438.67375)scale(0.2 -0.2)">
       <defs>
        <path id="DejaVuSans-33" d="M 2597 2516 
Q 3050 2419 3304 2112 
Q 3559 1806 3559 1356 
Q 3559 666 3084 287 
Q 2609 -91 1734 -91 
Q 1441 -91 1130 -33 
Q 819 25 488 141 
L 488 750 
Q 750 597 1062 519 
Q 1375 441 1716 441 
Q 2309 441 2620 675 
Q 2931 909 2931 1356 
Q 2931 1769 2642 2001 
Q 2353 2234 1838 2234 
L 1294 2234 
L 1294 2753 
L 1863 2753 
Q 2328 2753 2575 2939 
Q 2822 3125 2822 3475 
Q 2822 3834 2567 4026 
Q 2313 4219 1838 4219 
Q 1578 4219 1281 4162 
Q 984 4106 628 3988 
L 628 4550 
Q 988 4650 1302 4700 
Q 1616 4750 1894 4750 
Q 2613 4750 3031 4423 
Q 3450 4097 3450 3541 
Q 3450 3153 3228 2886 
Q 3006 2619 2597 2516 
z
" transform="scale(0.015625)"/>
       </defs>
       <use xlink:href="#DejaVuSans-33"/>
       <use xlink:href="#DejaVuSans-30" x="63.623047"/>
       <use xlink:href="#DejaVuSans-30" x="127.246094"/>
      </g>
     </g>
    </g>
    <g id="xtick_5">
     <g id="line2d_5">
      <g>
       <use xlink:href="#m3204e1e6a7" x="426.604664" y="416.476875" style="stroke: #000000; stroke-width: 0.8"/>
      </g>
     </g>
     <g id="text_5">
      <!-- 400 -->
      <g transform="translate(407.517164 438.67375)scale(0.2 -0.2)">
       <defs>
        <path id="DejaVuSans-34" d="M 2419 4116 
L 825 1625 
L 2419 1625 
L 2419 4116 
z
M 2253 4666 
L 3047 4666 
L 3047 1625 
L 3713 1625 
L 3713 1100 
L 3047 1100 
L 3047 0 
L 2419 0 
L 2419 1100 
L 313 1100 
L 313 1709 
L 2253 4666 
z
" transform="scale(0.015625)"/>
       </defs>
       <use xlink:href="#DejaVuSans-34"/>
       <use xlink:href="#DejaVuSans-30" x="63.623047"/>
       <use xlink:href="#DejaVuSans-30" x="127.246094"/>
      </g>
     </g>
    </g>
    <g id="xtick_6">
     <g id="line2d_6">
      <g>
       <use xlink:href="#m3204e1e6a7" x="504.169301" y="416.476875" style="stroke: #000000; stroke-width: 0.8"/>
      </g>
     </g>
     <g id="text_6">
      <!-- 500 -->
      <g transform="translate(485.081801 438.67375)scale(0.2 -0.2)">
       <defs>
        <path id="DejaVuSans-35" d="M 691 4666 
L 3169 4666 
L 3169 4134 
L 1269 4134 
L 1269 2991 
Q 1406 3038 1543 3061 
Q 1681 3084 1819 3084 
Q 2600 3084 3056 2656 
Q 3513 2228 3513 1497 
Q 3513 744 3044 326 
Q 2575 -91 1722 -91 
Q 1428 -91 1123 -41 
Q 819 9 494 109 
L 494 744 
Q 775 591 1075 516 
Q 1375 441 1709 441 
Q 2250 441 2565 725 
Q 2881 1009 2881 1497 
Q 2881 1984 2565 2268 
Q 2250 2553 1709 2553 
Q 1456 2553 1204 2497 
Q 953 2441 691 2322 
L 691 4666 
z
" transform="scale(0.015625)"/>
       </defs>
       <use xlink:href="#DejaVuSans-35"/>
       <use xlink:href="#DejaVuSans-30" x="63.623047"/>
       <use xlink:href="#DejaVuSans-30" x="127.246094"/>
      </g>
     </g>
    </g>
    <g id="xtick_7">
     <g id="line2d_7">
      <g>
       <use xlink:href="#m3204e1e6a7" x="581.733938" y="416.476875" style="stroke: #000000; stroke-width: 0.8"/>
      </g>
     </g>
     <g id="text_7">
      <!-- 600 -->
      <g transform="translate(562.646438 438.67375)scale(0.2 -0.2)">
       <defs>
        <path id="DejaVuSans-36" d="M 2113 2584 
Q 1688 2584 1439 2293 
Q 1191 2003 1191 1497 
Q 1191 994 1439 701 
Q 1688 409 2113 409 
Q 2538 409 2786 701 
Q 3034 994 3034 1497 
Q 3034 2003 2786 2293 
Q 2538 2584 2113 2584 
z
M 3366 4563 
L 3366 3988 
Q 3128 4100 2886 4159 
Q 2644 4219 2406 4219 
Q 1781 4219 1451 3797 
Q 1122 3375 1075 2522 
Q 1259 2794 1537 2939 
Q 1816 3084 2150 3084 
Q 2853 3084 3261 2657 
Q 3669 2231 3669 1497 
Q 3669 778 3244 343 
Q 2819 -91 2113 -91 
Q 1303 -91 875 529 
Q 447 1150 447 2328 
Q 447 3434 972 4092 
Q 1497 4750 2381 4750 
Q 2619 4750 2861 4703 
Q 3103 4656 3366 4563 
z
" transform="scale(0.015625)"/>
       </defs>
       <use xlink:href="#DejaVuSans-36"/>
       <use xlink:href="#DejaVuSans-30" x="63.623047"/>
       <use xlink:href="#DejaVuSans-30" x="127.246094"/>
      </g>
     </g>
    </g>
    <g id="text_8">
     <!-- Days since antigen exposure -->
     <g transform="translate(226.337813 462.03)scale(0.2 -0.2)">
      <defs>
       <path id="DejaVuSans-44" d="M 1259 4147 
L 1259 519 
L 2022 519 
Q 2988 519 3436 956 
Q 3884 1394 3884 2338 
Q 3884 3275 3436 3711 
Q 2988 4147 2022 4147 
L 1259 4147 
z
M 628 4666 
L 1925 4666 
Q 3281 4666 3915 4102 
Q 4550 3538 4550 2338 
Q 4550 1131 3912 565 
Q 3275 0 1925 0 
L 628 0 
L 628 4666 
z
" transform="scale(0.015625)"/>
       <path id="DejaVuSans-61" d="M 2194 1759 
Q 1497 1759 1228 1600 
Q 959 1441 959 1056 
Q 959 750 1161 570 
Q 1363 391 1709 391 
Q 2188 391 2477 730 
Q 2766 1069 2766 1631 
L 2766 1759 
L 2194 1759 
z
M 3341 1997 
L 3341 0 
L 2766 0 
L 2766 531 
Q 2569 213 2275 61 
Q 1981 -91 1556 -91 
Q 1019 -91 701 211 
Q 384 513 384 1019 
Q 384 1609 779 1909 
Q 1175 2209 1959 2209 
L 2766 2209 
L 2766 2266 
Q 2766 2663 2505 2880 
Q 2244 3097 1772 3097 
Q 1472 3097 1187 3025 
Q 903 2953 641 2809 
L 641 3341 
Q 956 3463 1253 3523 
Q 1550 3584 1831 3584 
Q 2591 3584 2966 3190 
Q 3341 2797 3341 1997 
z
" transform="scale(0.015625)"/>
       <path id="DejaVuSans-79" d="M 2059 -325 
Q 1816 -950 1584 -1140 
Q 1353 -1331 966 -1331 
L 506 -1331 
L 506 -850 
L 844 -850 
Q 1081 -850 1212 -737 
Q 1344 -625 1503 -206 
L 1606 56 
L 191 3500 
L 800 3500 
L 1894 763 
L 2988 3500 
L 3597 3500 
L 2059 -325 
z
" transform="scale(0.015625)"/>
       <path id="DejaVuSans-73" d="M 2834 3397 
L 2834 2853 
Q 2591 2978 2328 3040 
Q 2066 3103 1784 3103 
Q 1356 3103 1142 2972 
Q 928 2841 928 2578 
Q 928 2378 1081 2264 
Q 1234 2150 1697 2047 
L 1894 2003 
Q 2506 1872 2764 1633 
Q 3022 1394 3022 966 
Q 3022 478 2636 193 
Q 2250 -91 1575 -91 
Q 1294 -91 989 -36 
Q 684 19 347 128 
L 347 722 
Q 666 556 975 473 
Q 1284 391 1588 391 
Q 1994 391 2212 530 
Q 2431 669 2431 922 
Q 2431 1156 2273 1281 
Q 2116 1406 1581 1522 
L 1381 1569 
Q 847 1681 609 1914 
Q 372 2147 372 2553 
Q 372 3047 722 3315 
Q 1072 3584 1716 3584 
Q 2034 3584 2315 3537 
Q 2597 3491 2834 3397 
z
" transform="scale(0.015625)"/>
       <path id="DejaVuSans-20" transform="scale(0.015625)"/>
       <path id="DejaVuSans-69" d="M 603 3500 
L 1178 3500 
L 1178 0 
L 603 0 
L 603 3500 
z
M 603 4863 
L 1178 4863 
L 1178 4134 
L 603 4134 
L 603 4863 
z
" transform="scale(0.015625)"/>
       <path id="DejaVuSans-6e" d="M 3513 2113 
L 3513 0 
L 2938 0 
L 2938 2094 
Q 2938 2591 2744 2837 
Q 2550 3084 2163 3084 
Q 1697 3084 1428 2787 
Q 1159 2491 1159 1978 
L 1159 0 
L 581 0 
L 581 3500 
L 1159 3500 
L 1159 2956 
Q 1366 3272 1645 3428 
Q 1925 3584 2291 3584 
Q 2894 3584 3203 3211 
Q 3513 2838 3513 2113 
z
" transform="scale(0.015625)"/>
       <path id="DejaVuSans-63" d="M 3122 3366 
L 3122 2828 
Q 2878 2963 2633 3030 
Q 2388 3097 2138 3097 
Q 1578 3097 1268 2742 
Q 959 2388 959 1747 
Q 959 1106 1268 751 
Q 1578 397 2138 397 
Q 2388 397 2633 464 
Q 2878 531 3122 666 
L 3122 134 
Q 2881 22 2623 -34 
Q 2366 -91 2075 -91 
Q 1284 -91 818 406 
Q 353 903 353 1747 
Q 353 2603 823 3093 
Q 1294 3584 2113 3584 
Q 2378 3584 2631 3529 
Q 2884 3475 3122 3366 
z
" transform="scale(0.015625)"/>
       <path id="DejaVuSans-65" d="M 3597 1894 
L 3597 1613 
L 953 1613 
Q 991 1019 1311 708 
Q 1631 397 2203 397 
Q 2534 397 2845 478 
Q 3156 559 3463 722 
L 3463 178 
Q 3153 47 2828 -22 
Q 2503 -91 2169 -91 
Q 1331 -91 842 396 
Q 353 884 353 1716 
Q 353 2575 817 3079 
Q 1281 3584 2069 3584 
Q 2775 3584 3186 3129 
Q 3597 2675 3597 1894 
z
M 3022 2063 
Q 3016 2534 2758 2815 
Q 2500 3097 2075 3097 
Q 1594 3097 1305 2825 
Q 1016 2553 972 2059 
L 3022 2063 
z
" transform="scale(0.015625)"/>
       <path id="DejaVuSans-74" d="M 1172 4494 
L 1172 3500 
L 2356 3500 
L 2356 3053 
L 1172 3053 
L 1172 1153 
Q 1172 725 1289 603 
Q 1406 481 1766 481 
L 2356 481 
L 2356 0 
L 1766 0 
Q 1100 0 847 248 
Q 594 497 594 1153 
L 594 3053 
L 172 3053 
L 172 3500 
L 594 3500 
L 594 4494 
L 1172 4494 
z
" transform="scale(0.015625)"/>
       <path id="DejaVuSans-67" d="M 2906 1791 
Q 2906 2416 2648 2759 
Q 2391 3103 1925 3103 
Q 1463 3103 1205 2759 
Q 947 2416 947 1791 
Q 947 1169 1205 825 
Q 1463 481 1925 481 
Q 2391 481 2648 825 
Q 2906 1169 2906 1791 
z
M 3481 434 
Q 3481 -459 3084 -895 
Q 2688 -1331 1869 -1331 
Q 1566 -1331 1297 -1286 
Q 1028 -1241 775 -1147 
L 775 -588 
Q 1028 -725 1275 -790 
Q 1522 -856 1778 -856 
Q 2344 -856 2625 -561 
Q 2906 -266 2906 331 
L 2906 616 
Q 2728 306 2450 153 
Q 2172 0 1784 0 
Q 1141 0 747 490 
Q 353 981 353 1791 
Q 353 2603 747 3093 
Q 1141 3584 1784 3584 
Q 2172 3584 2450 3431 
Q 2728 3278 2906 2969 
L 2906 3500 
L 3481 3500 
L 3481 434 
z
" transform="scale(0.015625)"/>
       <path id="DejaVuSans-78" d="M 3513 3500 
L 2247 1797 
L 3578 0 
L 2900 0 
L 1881 1375 
L 863 0 
L 184 0 
L 1544 1831 
L 300 3500 
L 978 3500 
L 1906 2253 
L 2834 3500 
L 3513 3500 
z
" transform="scale(0.015625)"/>
       <path id="DejaVuSans-70" d="M 1159 525 
L 1159 -1331 
L 581 -1331 
L 581 3500 
L 1159 3500 
L 1159 2969 
Q 1341 3281 1617 3432 
Q 1894 3584 2278 3584 
Q 2916 3584 3314 3078 
Q 3713 2572 3713 1747 
Q 3713 922 3314 415 
Q 2916 -91 2278 -91 
Q 1894 -91 1617 61 
Q 1341 213 1159 525 
z
M 3116 1747 
Q 3116 2381 2855 2742 
Q 2594 3103 2138 3103 
Q 1681 3103 1420 2742 
Q 1159 2381 1159 1747 
Q 1159 1113 1420 752 
Q 1681 391 2138 391 
Q 2594 391 2855 752 
Q 3116 1113 3116 1747 
z
" transform="scale(0.015625)"/>
       <path id="DejaVuSans-6f" d="M 1959 3097 
Q 1497 3097 1228 2736 
Q 959 2375 959 1747 
Q 959 1119 1226 758 
Q 1494 397 1959 397 
Q 2419 397 2687 759 
Q 2956 1122 2956 1747 
Q 2956 2369 2687 2733 
Q 2419 3097 1959 3097 
z
M 1959 3584 
Q 2709 3584 3137 3096 
Q 3566 2609 3566 1747 
Q 3566 888 3137 398 
Q 2709 -91 1959 -91 
Q 1206 -91 779 398 
Q 353 888 353 1747 
Q 353 2609 779 3096 
Q 1206 3584 1959 3584 
z
" transform="scale(0.015625)"/>
       <path id="DejaVuSans-75" d="M 544 1381 
L 544 3500 
L 1119 3500 
L 1119 1403 
Q 1119 906 1312 657 
Q 1506 409 1894 409 
Q 2359 409 2629 706 
Q 2900 1003 2900 1516 
L 2900 3500 
L 3475 3500 
L 3475 0 
L 2900 0 
L 2900 538 
Q 2691 219 2414 64 
Q 2138 -91 1772 -91 
Q 1169 -91 856 284 
Q 544 659 544 1381 
z
M 1991 3584 
L 1991 3584 
z
" transform="scale(0.015625)"/>
       <path id="DejaVuSans-72" d="M 2631 2963 
Q 2534 3019 2420 3045 
Q 2306 3072 2169 3072 
Q 1681 3072 1420 2755 
Q 1159 2438 1159 1844 
L 1159 0 
L 581 0 
L 581 3500 
L 1159 3500 
L 1159 2956 
Q 1341 3275 1631 3429 
Q 1922 3584 2338 3584 
Q 2397 3584 2469 3576 
Q 2541 3569 2628 3553 
L 2631 2963 
z
" transform="scale(0.015625)"/>
      </defs>
      <use xlink:href="#DejaVuSans-44"/>
      <use xlink:href="#DejaVuSans-61" x="77.001953"/>
      <use xlink:href="#DejaVuSans-79" x="138.28125"/>
      <use xlink:href="#DejaVuSans-73" x="197.460938"/>
      <use xlink:href="#DejaVuSans-20" x="249.560547"/>
      <use xlink:href="#DejaVuSans-73" x="281.347656"/>
      <use xlink:href="#DejaVuSans-69" x="333.447266"/>
      <use xlink:href="#DejaVuSans-6e" x="361.230469"/>
      <use xlink:href="#DejaVuSans-63" x="424.609375"/>
      <use xlink:href="#DejaVuSans-65" x="479.589844"/>
      <use xlink:href="#DejaVuSans-20" x="541.113281"/>
      <use xlink:href="#DejaVuSans-61" x="572.900391"/>
      <use xlink:href="#DejaVuSans-6e" x="634.179688"/>
      <use xlink:href="#DejaVuSans-74" x="697.558594"/>
      <use xlink:href="#DejaVuSans-69" x="736.767578"/>
      <use xlink:href="#DejaVuSans-67" x="764.550781"/>
      <use xlink:href="#DejaVuSans-65" x="828.027344"/>
      <use xlink:href="#DejaVuSans-6e" x="889.550781"/>
      <use xlink:href="#DejaVuSans-20" x="952.929688"/>
      <use xlink:href="#DejaVuSans-65" x="984.716797"/>
      <use xlink:href="#DejaVuSans-78" x="1044.490234"/>
      <use xlink:href="#DejaVuSans-70" x="1103.669922"/>
      <use xlink:href="#DejaVuSans-6f" x="1167.146484"/>
      <use xlink:href="#DejaVuSans-73" x="1228.328125"/>
      <use xlink:href="#DejaVuSans-75" x="1280.427734"/>
      <use xlink:href="#DejaVuSans-72" x="1343.806641"/>
      <use xlink:href="#DejaVuSans-65" x="1382.669922"/>
     </g>
    </g>
   </g>
   <g id="matplotlib.axis_2">
    <g id="ytick_1">
     <g id="line2d_8">
      <defs>
       <path id="m724200e967" d="M 0 0 
L -3.5 0 
" style="stroke: #000000; stroke-width: 0.8"/>
      </defs>
      <g>
       <use xlink:href="#m724200e967" x="91.758125" y="384.131167" style="stroke: #000000; stroke-width: 0.8"/>
      </g>
     </g>
     <g id="text_9">
      <!-- 0.0 -->
      <g transform="translate(52.951875 391.729605)scale(0.2 -0.2)">
       <defs>
        <path id="DejaVuSans-2e" d="M 684 794 
L 1344 794 
L 1344 0 
L 684 0 
L 684 794 
z
" transform="scale(0.015625)"/>
       </defs>
       <use xlink:href="#DejaVuSans-30"/>
       <use xlink:href="#DejaVuSans-2e" x="63.623047"/>
       <use xlink:href="#DejaVuSans-30" x="95.410156"/>
      </g>
     </g>
    </g>
    <g id="ytick_2">
     <g id="line2d_9">
      <g>
       <use xlink:href="#m724200e967" x="91.758125" y="319.439752" style="stroke: #000000; stroke-width: 0.8"/>
      </g>
     </g>
     <g id="text_10">
      <!-- 0.2 -->
      <g transform="translate(52.951875 327.038189)scale(0.2 -0.2)">
       <use xlink:href="#DejaVuSans-30"/>
       <use xlink:href="#DejaVuSans-2e" x="63.623047"/>
       <use xlink:href="#DejaVuSans-32" x="95.410156"/>
      </g>
     </g>
    </g>
    <g id="ytick_3">
     <g id="line2d_10">
      <g>
       <use xlink:href="#m724200e967" x="91.758125" y="254.748336" style="stroke: #000000; stroke-width: 0.8"/>
      </g>
     </g>
     <g id="text_11">
      <!-- 0.4 -->
      <g transform="translate(52.951875 262.346774)scale(0.2 -0.2)">
       <use xlink:href="#DejaVuSans-30"/>
       <use xlink:href="#DejaVuSans-2e" x="63.623047"/>
       <use xlink:href="#DejaVuSans-34" x="95.410156"/>
      </g>
     </g>
    </g>
    <g id="ytick_4">
     <g id="line2d_11">
      <g>
       <use xlink:href="#m724200e967" x="91.758125" y="190.056921" style="stroke: #000000; stroke-width: 0.8"/>
      </g>
     </g>
     <g id="text_12">
      <!-- 0.6 -->
      <g transform="translate(52.951875 197.655358)scale(0.2 -0.2)">
       <use xlink:href="#DejaVuSans-30"/>
       <use xlink:href="#DejaVuSans-2e" x="63.623047"/>
       <use xlink:href="#DejaVuSans-36" x="95.410156"/>
      </g>
     </g>
    </g>
    <g id="ytick_5">
     <g id="line2d_12">
      <g>
       <use xlink:href="#m724200e967" x="91.758125" y="125.365505" style="stroke: #000000; stroke-width: 0.8"/>
      </g>
     </g>
     <g id="text_13">
      <!-- 0.8 -->
      <g transform="translate(52.951875 132.963943)scale(0.2 -0.2)">
       <defs>
        <path id="DejaVuSans-38" d="M 2034 2216 
Q 1584 2216 1326 1975 
Q 1069 1734 1069 1313 
Q 1069 891 1326 650 
Q 1584 409 2034 409 
Q 2484 409 2743 651 
Q 3003 894 3003 1313 
Q 3003 1734 2745 1975 
Q 2488 2216 2034 2216 
z
M 1403 2484 
Q 997 2584 770 2862 
Q 544 3141 544 3541 
Q 544 4100 942 4425 
Q 1341 4750 2034 4750 
Q 2731 4750 3128 4425 
Q 3525 4100 3525 3541 
Q 3525 3141 3298 2862 
Q 3072 2584 2669 2484 
Q 3125 2378 3379 2068 
Q 3634 1759 3634 1313 
Q 3634 634 3220 271 
Q 2806 -91 2034 -91 
Q 1263 -91 848 271 
Q 434 634 434 1313 
Q 434 1759 690 2068 
Q 947 2378 1403 2484 
z
M 1172 3481 
Q 1172 3119 1398 2916 
Q 1625 2713 2034 2713 
Q 2441 2713 2670 2916 
Q 2900 3119 2900 3481 
Q 2900 3844 2670 4047 
Q 2441 4250 2034 4250 
Q 1625 4250 1398 4047 
Q 1172 3844 1172 3481 
z
" transform="scale(0.015625)"/>
       </defs>
       <use xlink:href="#DejaVuSans-30"/>
       <use xlink:href="#DejaVuSans-2e" x="63.623047"/>
       <use xlink:href="#DejaVuSans-38" x="95.410156"/>
      </g>
     </g>
    </g>
    <g id="ytick_6">
     <g id="line2d_13">
      <g>
       <use xlink:href="#m724200e967" x="91.758125" y="60.67409" style="stroke: #000000; stroke-width: 0.8"/>
      </g>
     </g>
     <g id="text_14">
      <!-- 1.0 -->
      <g transform="translate(52.951875 68.272527)scale(0.2 -0.2)">
       <use xlink:href="#DejaVuSans-31"/>
       <use xlink:href="#DejaVuSans-2e" x="63.623047"/>
       <use xlink:href="#DejaVuSans-30" x="95.410156"/>
      </g>
     </g>
    </g>
    <g id="text_15">
     <!-- Virus neutralization -->
     <g transform="translate(22.396875 319.741562)rotate(-90)scale(0.2 -0.2)">
      <defs>
       <path id="DejaVuSans-56" d="M 1831 0 
L 50 4666 
L 709 4666 
L 2188 738 
L 3669 4666 
L 4325 4666 
L 2547 0 
L 1831 0 
z
" transform="scale(0.015625)"/>
       <path id="DejaVuSans-6c" d="M 603 4863 
L 1178 4863 
L 1178 0 
L 603 0 
L 603 4863 
z
" transform="scale(0.015625)"/>
       <path id="DejaVuSans-7a" d="M 353 3500 
L 3084 3500 
L 3084 2975 
L 922 459 
L 3084 459 
L 3084 0 
L 275 0 
L 275 525 
L 2438 3041 
L 353 3041 
L 353 3500 
z
" transform="scale(0.015625)"/>
      </defs>
      <use xlink:href="#DejaVuSans-56"/>
      <use xlink:href="#DejaVuSans-69" x="66.158203"/>
      <use xlink:href="#DejaVuSans-72" x="93.941406"/>
      <use xlink:href="#DejaVuSans-75" x="135.054688"/>
      <use xlink:href="#DejaVuSans-73" x="198.433594"/>
      <use xlink:href="#DejaVuSans-20" x="250.533203"/>
      <use xlink:href="#DejaVuSans-6e" x="282.320312"/>
      <use xlink:href="#DejaVuSans-65" x="345.699219"/>
      <use xlink:href="#DejaVuSans-75" x="407.222656"/>
      <use xlink:href="#DejaVuSans-74" x="470.601562"/>
      <use xlink:href="#DejaVuSans-72" x="509.810547"/>
      <use xlink:href="#DejaVuSans-61" x="550.923828"/>
      <use xlink:href="#DejaVuSans-6c" x="612.203125"/>
      <use xlink:href="#DejaVuSans-69" x="639.986328"/>
      <use xlink:href="#DejaVuSans-7a" x="667.769531"/>
      <use xlink:href="#DejaVuSans-61" x="720.259766"/>
      <use xlink:href="#DejaVuSans-74" x="781.539062"/>
      <use xlink:href="#DejaVuSans-69" x="820.748047"/>
      <use xlink:href="#DejaVuSans-6f" x="848.53125"/>
      <use xlink:href="#DejaVuSans-6e" x="909.712891"/>
     </g>
     <!--  probability -->
     <g transform="translate(44.7925 278.966562)rotate(-90)scale(0.2 -0.2)">
      <defs>
       <path id="DejaVuSans-62" d="M 3116 1747 
Q 3116 2381 2855 2742 
Q 2594 3103 2138 3103 
Q 1681 3103 1420 2742 
Q 1159 2381 1159 1747 
Q 1159 1113 1420 752 
Q 1681 391 2138 391 
Q 2594 391 2855 752 
Q 3116 1113 3116 1747 
z
M 1159 2969 
Q 1341 3281 1617 3432 
Q 1894 3584 2278 3584 
Q 2916 3584 3314 3078 
Q 3713 2572 3713 1747 
Q 3713 922 3314 415 
Q 2916 -91 2278 -91 
Q 1894 -91 1617 61 
Q 1341 213 1159 525 
L 1159 0 
L 581 0 
L 581 4863 
L 1159 4863 
L 1159 2969 
z
" transform="scale(0.015625)"/>
      </defs>
      <use xlink:href="#DejaVuSans-20"/>
      <use xlink:href="#DejaVuSans-70" x="31.787109"/>
      <use xlink:href="#DejaVuSans-72" x="95.263672"/>
      <use xlink:href="#DejaVuSans-6f" x="134.126953"/>
      <use xlink:href="#DejaVuSans-62" x="195.308594"/>
      <use xlink:href="#DejaVuSans-61" x="258.785156"/>
      <use xlink:href="#DejaVuSans-62" x="320.064453"/>
      <use xlink:href="#DejaVuSans-69" x="383.541016"/>
      <use xlink:href="#DejaVuSans-6c" x="411.324219"/>
      <use xlink:href="#DejaVuSans-69" x="439.107422"/>
      <use xlink:href="#DejaVuSans-74" x="466.890625"/>
      <use xlink:href="#DejaVuSans-79" x="506.099609"/>
     </g>
    </g>
   </g>
   <g id="patch_3">
    <path d="M 91.758125 416.476875 
L 91.758125 28.396875 
" style="fill: none; stroke: #000000; stroke-width: 0.8; stroke-linejoin: miter; stroke-linecap: square"/>
   </g>
   <g id="patch_4">
    <path d="M 649.758125 416.476875 
L 649.758125 28.396875 
" style="fill: none; stroke: #000000; stroke-width: 0.8; stroke-linejoin: miter; stroke-linecap: square"/>
   </g>
   <g id="patch_5">
    <path d="M 91.758125 416.476875 
L 649.758125 416.476875 
" style="fill: none; stroke: #000000; stroke-width: 0.8; stroke-linejoin: miter; stroke-linecap: square"/>
   </g>
   <g id="patch_6">
    <path d="M 91.758125 28.396875 
L 649.758125 28.396875 
" style="fill: none; stroke: #000000; stroke-width: 0.8; stroke-linejoin: miter; stroke-linecap: square"/>
   </g>
   <g id="text_16">
    <!-- JN.1 antigen -->
    <g transform="translate(309.605 22.396875)scale(0.2 -0.2)">
     <defs>
      <path id="DejaVuSans-4a" d="M 628 4666 
L 1259 4666 
L 1259 325 
Q 1259 -519 939 -900 
Q 619 -1281 -91 -1281 
L -331 -1281 
L -331 -750 
L -134 -750 
Q 284 -750 456 -515 
Q 628 -281 628 325 
L 628 4666 
z
" transform="scale(0.015625)"/>
      <path id="DejaVuSans-4e" d="M 628 4666 
L 1478 4666 
L 3547 763 
L 3547 4666 
L 4159 4666 
L 4159 0 
L 3309 0 
L 1241 3903 
L 1241 0 
L 628 0 
L 628 4666 
z
" transform="scale(0.015625)"/>
     </defs>
     <use xlink:href="#DejaVuSans-4a"/>
     <use xlink:href="#DejaVuSans-4e" x="29.492188"/>
     <use xlink:href="#DejaVuSans-2e" x="104.296875"/>
     <use xlink:href="#DejaVuSans-31" x="136.083984"/>
     <use xlink:href="#DejaVuSans-20" x="199.707031"/>
     <use xlink:href="#DejaVuSans-61" x="231.494141"/>
     <use xlink:href="#DejaVuSans-6e" x="292.773438"/>
     <use xlink:href="#DejaVuSans-74" x="356.152344"/>
     <use xlink:href="#DejaVuSans-69" x="395.361328"/>
     <use xlink:href="#DejaVuSans-67" x="423.144531"/>
     <use xlink:href="#DejaVuSans-65" x="486.621094"/>
     <use xlink:href="#DejaVuSans-6e" x="548.144531"/>
    </g>
   </g>
   <g id="legend_1">
    <g id="patch_7">
     <path d="M 235.258125 532.900875 
L 514.508125 532.900875 
Q 518.508125 532.900875 518.508125 528.900875 
L 518.508125 501.544625 
Q 518.508125 497.544625 514.508125 497.544625 
L 235.258125 497.544625 
Q 231.258125 497.544625 231.258125 501.544625 
L 231.258125 528.900875 
Q 231.258125 532.900875 235.258125 532.900875 
z
" style="fill: #ffffff; opacity: 0.8; stroke: #cccccc; stroke-linejoin: miter"/>
    </g>
    <g id="patch_8">
     <path d="M 239.258125 520.7415 
L 279.258125 520.7415 
L 279.258125 506.7415 
L 239.258125 506.7415 
z
" style="fill: #ffa500; fill-opacity: 0.3; stroke: #ffa500; stroke-opacity: 0.3; stroke-linejoin: miter"/>
    </g>
    <g id="text_17">
     <!-- JN.1 -->
     <g transform="translate(295.258125 520.7415)scale(0.2 -0.2)">
      <use xlink:href="#DejaVuSans-4a"/>
      <use xlink:href="#DejaVuSans-4e" x="29.492188"/>
      <use xlink:href="#DejaVuSans-2e" x="104.296875"/>
      <use xlink:href="#DejaVuSans-31" x="136.083984"/>
     </g>
    </g>
    <g id="patch_9">
     <path d="M 375.201875 520.7415 
L 415.201875 520.7415 
L 415.201875 506.7415 
L 375.201875 506.7415 
z
" style="fill: #1f77b4; fill-opacity: 0.3; stroke: #1f77b4; stroke-opacity: 0.3; stroke-linejoin: miter"/>
    </g>
    <g id="text_18">
     <!-- XBB.1.5 -->
     <g transform="translate(431.201875 520.7415)scale(0.2 -0.2)">
      <defs>
       <path id="DejaVuSans-58" d="M 403 4666 
L 1081 4666 
L 2241 2931 
L 3406 4666 
L 4084 4666 
L 2584 2425 
L 4184 0 
L 3506 0 
L 2194 1984 
L 872 0 
L 191 0 
L 1856 2491 
L 403 4666 
z
" transform="scale(0.015625)"/>
       <path id="DejaVuSans-42" d="M 1259 2228 
L 1259 519 
L 2272 519 
Q 2781 519 3026 730 
Q 3272 941 3272 1375 
Q 3272 1813 3026 2020 
Q 2781 2228 2272 2228 
L 1259 2228 
z
M 1259 4147 
L 1259 2741 
L 2194 2741 
Q 2656 2741 2882 2914 
Q 3109 3088 3109 3444 
Q 3109 3797 2882 3972 
Q 2656 4147 2194 4147 
L 1259 4147 
z
M 628 4666 
L 2241 4666 
Q 2963 4666 3353 4366 
Q 3744 4066 3744 3513 
Q 3744 3084 3544 2831 
Q 3344 2578 2956 2516 
Q 3422 2416 3680 2098 
Q 3938 1781 3938 1306 
Q 3938 681 3513 340 
Q 3088 0 2303 0 
L 628 0 
L 628 4666 
z
" transform="scale(0.015625)"/>
      </defs>
      <use xlink:href="#DejaVuSans-58"/>
      <use xlink:href="#DejaVuSans-42" x="68.505859"/>
      <use xlink:href="#DejaVuSans-42" x="137.109375"/>
      <use xlink:href="#DejaVuSans-2e" x="205.712891"/>
      <use xlink:href="#DejaVuSans-31" x="237.5"/>
      <use xlink:href="#DejaVuSans-2e" x="301.123047"/>
      <use xlink:href="#DejaVuSans-35" x="332.910156"/>
     </g>
    </g>
   </g>
  </g>
 </g>
 <defs>
  <clipPath id="pbbfe8aff61">
   <rect x="91.758125" y="28.396875" width="558" height="388.08"/>
  </clipPath>
 </defs>
</svg>
